<?xml version="1.0" standalone="no"?>
<!DOCTYPE svg PUBLIC "-//W3C//DTD SVG 1.1//EN" "http://www.w3.org/Graphics/SVG/1.1/DTD/svg11.dtd" >
<svg xmlns="http://www.w3.org/2000/svg" xmlns:xlink="http://www.w3.org/1999/xlink" version="1.1">
<metadata>
Created by FontForge 20170731 at Sat Jan 16 11:32:56 2021
 By Aleksey,,,
Copyright (c) 2014 by Type Dynamic. All rights reserved.
</metadata>
<defs>
<font id="Sailec-Bold" horiz-adv-x="1232" >
  <font-face 
    font-family="Sailec"
    font-weight="700"
    font-stretch="normal"
    units-per-em="2048"
    panose-1="0 0 8 0 0 0 0 0 0 0"
    ascent="1536"
    descent="-512"
    x-height="1059"
    cap-height="1532"
    bbox="-442 -774 2576 2210"
    underline-thickness="102"
    underline-position="-307"
    unicode-range="U+000D-FB02"
  />
<missing-glyph horiz-adv-x="1505" 
d="M1368 0h-1231v1532h1231v-1532zM532 1321l226 -367l223 367h-449zM362 367l256 395l-256 395v-790zM897 762l246 -381v764zM537 211h440l-219 360z" />
    <glyph glyph-name="fi" unicode="fi" horiz-adv-x="1372" 
d="M643 1604q51 0 105 -7v-258q-36 4 -70 4q-78 0 -128 -46t-50 -121v-117h245v-258h-245v-801h-297v801h-193v258h193v108q0 199 120 318t320 119zM1075 1585q75 0 127.5 -52.5t52.5 -127.5q0 -74 -52.5 -126t-127.5 -52t-126.5 52t-51.5 126q0 75 52.5 127.5t125.5 52.5z
M1225 0h-299v1059h299v-1059z" />
    <glyph glyph-name="f_j" unicode="fj" horiz-adv-x="1372" 
d="M643 1604q51 0 105 -7v-258q-36 4 -70 4q-78 0 -128 -46t-50 -121v-117h245v-258h-245v-801h-297v801h-193v258h193v108q0 199 120 318t320 119zM1075 1585q75 0 127.5 -52.5t52.5 -127.5q0 -74 -52.5 -126t-127.5 -52t-126.5 52t-51.5 126q0 75 51.5 127.5t126.5 52.5z
M1227 1059v-1161q0 -199 -120 -317t-319 -118q-50 0 -104 7v260q27 -6 70 -6q77 0 125.5 45.5t48.5 121.5v1168h299z" />
    <glyph glyph-name=".notdef" horiz-adv-x="1505" 
d="M1368 0h-1231v1532h1231v-1532zM532 1321l226 -367l223 367h-449zM362 367l256 395l-256 395v-790zM897 762l246 -381v764zM537 211h440l-219 360z" />
    <glyph glyph-name=".null" horiz-adv-x="0" 
 />
    <glyph glyph-name="nonmarkingreturn" horiz-adv-x="682" 
 />
    <glyph glyph-name="CR" unicode="&#xd;" horiz-adv-x="1228" 
 />
    <glyph glyph-name="space" unicode=" " horiz-adv-x="462" 
 />
    <glyph glyph-name="exclam" unicode="!" horiz-adv-x="663" 
d="M487 467h-315l-16 1065h350zM330 340q75 0 128.5 -53t53.5 -129q0 -75 -53.5 -128t-128.5 -53t-127.5 53t-52.5 128q0 76 52.5 129t127.5 53z" />
    <glyph glyph-name="quotedbl" unicode="&#x22;" horiz-adv-x="858" 
d="M340 969h-227l-29 577h287zM745 969h-229l-29 577h287z" />
    <glyph glyph-name="numbersign" unicode="#" horiz-adv-x="1370" 
d="M1141 1153h217l-58 -238h-217l-73 -309h221l-55 -237h-222l-88 -369h-250l89 369h-230l-86 -369h-252l88 369h-213l56 237h215l71 309h-217l58 238h217l92 379h250l-92 -379h227l92 379h250zM604 915l-72 -309h228l74 309h-230z" />
    <glyph glyph-name="dollar" unicode="$" horiz-adv-x="1357" 
d="M1270 446q0 -205 -125.5 -321t-331.5 -141v-226h-248v230q-215 32 -342.5 156t-130.5 325l322 16q4 -104 86 -168.5t207 -64.5q112 0 176.5 43t64.5 133q0 82 -72.5 125.5t-242.5 85.5q-68 17 -115.5 31t-104.5 36t-95.5 44.5t-77.5 56t-61.5 72.5t-37 91.5t-14.5 114.5
q0 178 113 306.5t325 156.5v224h248v-230q193 -33 307.5 -153.5t118.5 -305.5l-324 -16q-2 97 -65.5 155t-171.5 58q-107 0 -167 -50.5t-60 -133.5t63.5 -121t235.5 -78q102 -26 175.5 -51.5t142 -63t110.5 -83t67 -109.5t25 -144z" />
    <glyph glyph-name="percent" unicode="%" horiz-adv-x="1826" 
d="M426 1554q158 0 259 -106t101 -279q0 -172 -101 -278.5t-259 -106.5t-260.5 106.5t-102.5 278.5q0 173 102 279t261 106zM553 0h-289l1010 1532h289zM426 1346q-65 0 -104 -46.5t-39 -130.5q0 -83 39 -130.5t104 -47.5q64 0 102.5 47t38.5 131t-38 130.5t-103 46.5z
M1403 748q159 0 259.5 -105t100.5 -278t-101 -280.5t-259 -107.5t-260.5 107.5t-102.5 280.5t102 278t261 105zM1403 541q-66 0 -104.5 -46.5t-38.5 -129.5q0 -84 39 -131.5t104 -47.5t103 47t38 132q0 83 -38 129.5t-103 46.5z" />
    <glyph glyph-name="ampersand" unicode="&#x26;" horiz-adv-x="1474" 
d="M1327 -23l-240 201q-186 -198 -464 -198q-262 0 -402.5 124.5t-140.5 317.5q0 137 61.5 235.5t177.5 182.5q-120 138 -120 286q0 207 129.5 317.5t345.5 110.5q191 0 319.5 -103t155.5 -286l-305 -24q-22 151 -170 151q-75 0 -117.5 -42t-42.5 -120q0 -18 2.5 -34.5
t11 -33.5t13.5 -28.5t21 -29.5t22.5 -26t28 -27.5t28 -25t32.5 -27t32 -26.5l323 -270q38 91 76 244l278 -72q-53 -198 -131 -358l252 -211zM627 248q142 0 250 108l-371 312q-105 -84 -105 -217q0 -95 60.5 -149t165.5 -54z" />
    <glyph glyph-name="quotesingle" unicode="'" horiz-adv-x="454" 
d="M340 969h-227l-29 577h287z" />
    <glyph glyph-name="parenleft" unicode="(" horiz-adv-x="610" 
d="M319 1505l259 -90q-205 -355 -205 -760q0 -404 205 -759l-259 -91q-111 168 -177 383.5t-66 466.5t66 466.5t177 383.5z" />
    <glyph glyph-name="parenright" unicode=")" horiz-adv-x="610" 
d="M35 1415l258 90q111 -169 177.5 -384.5t66.5 -465.5t-66.5 -465.5t-177.5 -384.5l-258 91q203 357 203 759q0 403 -203 760z" />
    <glyph glyph-name="asterisk" unicode="*" horiz-adv-x="755" 
d="M455 1315l235 82l51 -156l-237 -76l149 -194l-133 -99l-141 203l-143 -205l-134 101l150 194l-238 76l52 156l235 -82l-6 250h166z" />
    <glyph glyph-name="plus" unicode="+" horiz-adv-x="1122" 
d="M707 893h352v-270h-352v-365h-291v365h-353v270h353v360h291v-360z" />
    <glyph glyph-name="comma" unicode="," horiz-adv-x="499" 
d="M254 340q78 0 123 -55.5t45 -145.5q0 -309 -313 -469v125q107 67 137 185q-71 5 -119.5 55.5t-48.5 122.5q0 76 50 129t126 53z" />
    <glyph glyph-name="hyphen" unicode="-" horiz-adv-x="831" 
d="M739 397h-647v279h647v-279z" />
    <glyph glyph-name="period" unicode="." horiz-adv-x="518" 
d="M258 340q75 0 128.5 -53t53.5 -129q0 -75 -53.5 -128t-128.5 -53t-127.5 53t-52.5 128q0 76 52.5 129t127.5 53z" />
    <glyph glyph-name="slash" unicode="/" horiz-adv-x="862" 
d="M328 -137h-314l523 1669h311z" />
    <glyph glyph-name="zero" unicode="0" horiz-adv-x="1333" 
d="M668 1554q261 0 420 -207t159 -581q0 -373 -159 -581t-420 -208q-264 0 -423 207.5t-159 581.5q0 375 159 581.5t423 206.5zM668 1274q-260 0 -260 -508t260 -508q258 0 258 508t-258 508z" />
    <glyph glyph-name="one" unicode="1" horiz-adv-x="804" 
d="M649 0h-315v1135l-195 -138l-139 250l418 285h231v-1532z" />
    <glyph glyph-name="two" unicode="2" horiz-adv-x="1110" 
d="M569 1554q223 0 346 -113t123 -323q0 -90 -21 -171t-64 -153t-84.5 -124.5t-104.5 -120.5l-252 -268h535v-281h-947v248l422 465q116 126 157.5 204t41.5 187q0 80 -38.5 125t-107.5 45q-83 0 -121 -54.5t-40 -160.5l-316 18q3 224 126.5 350.5t344.5 126.5z" />
    <glyph glyph-name="three" unicode="3" horiz-adv-x="1163" 
d="M575 1554q225 0 350.5 -121t125.5 -327q0 -117 -45 -191t-123 -124q85 -32 139.5 -121t54.5 -215q0 -221 -137.5 -349.5t-361.5 -128.5q-239 0 -369.5 124.5t-136.5 342.5l315 19q5 -98 52 -151.5t136 -53.5t137 53t48 150q0 95 -55 143.5t-148 48.5h-158v271h154
q79 0 129.5 47.5t50.5 130.5q0 85 -41 128.5t-117 43.5q-77 0 -121 -49.5t-48 -141.5l-314 17q5 213 130 333.5t353 120.5z" />
    <glyph glyph-name="four" unicode="4" horiz-adv-x="1234" 
d="M961 549h227v-281h-227v-268h-285v268h-621v260l656 1004h250v-983zM377 549h297v452z" />
    <glyph glyph-name="five" unicode="5" horiz-adv-x="1167" 
d="M614 973q208 0 339.5 -127.5t131.5 -358.5q0 -233 -138.5 -371.5t-373.5 -138.5q-229 0 -360 121t-137 326l315 18q5 -87 51.5 -135.5t132.5 -48.5q93 0 143 60t50 161q0 100 -49 156.5t-135 56.5q-92 0 -164 -53h-293v893h899v-279h-584v-315q72 35 172 35z" />
    <glyph glyph-name="six" unicode="6" horiz-adv-x="1245" 
d="M1075 1532l-381 -531q208 -21 339.5 -159.5t131.5 -349.5q0 -153 -70 -271t-192 -181t-276 -63q-236 0 -389.5 142.5t-153.5 372.5q0 168 113 329l499 711h379zM625 258q99 0 160 66t61 178t-60.5 175.5t-160.5 63.5q-116 0 -176 -82q-43 -58 -43 -157q0 -112 60 -178
t159 -66z" />
    <glyph glyph-name="seven" unicode="7" horiz-adv-x="1107" 
d="M1047 1278l-598 -1278h-347l598 1253h-661v279h1008v-254z" />
    <glyph glyph-name="eight" unicode="8" horiz-adv-x="1259" 
d="M627 1554q217 0 357 -117t140 -315q0 -195 -147 -303q88 -59 137 -151.5t49 -212.5q0 -145 -70 -254.5t-190.5 -166.5t-273.5 -57q-234 0 -384.5 130t-150.5 348q0 118 49 210.5t136 151.5q-146 107 -146 305q0 132 64.5 231t176 150t253.5 51zM629 1274
q-78 0 -129 -46.5t-51 -127.5q0 -76 51.5 -122t128.5 -46q79 0 129.5 45.5t50.5 122.5q0 81 -50 127.5t-130 46.5zM629 678q-95 0 -157 -56t-62 -153t62 -154t157 -57q96 0 157.5 56.5t61.5 154.5q0 97 -61.5 153t-157.5 56z" />
    <glyph glyph-name="nine" unicode="9" horiz-adv-x="1245" 
d="M618 1554q236 0 389.5 -142t153.5 -372q0 -94 -28 -171.5t-84 -157.5l-500 -711h-379l381 530q-208 21 -339.5 160t-131.5 350q0 230 151.5 372t386.5 142zM621 791q116 0 176 81q43 58 43 158q0 112 -60 178t-159 66t-160.5 -66.5t-61.5 -177.5q0 -112 61 -175.5
t161 -63.5z" />
    <glyph glyph-name="colon" unicode=":" horiz-adv-x="518" 
d="M242 1079q75 0 128.5 -53t53.5 -129q0 -73 -53.5 -125.5t-128.5 -52.5t-128 52t-53 126q0 76 53 129t128 53zM242 340q75 0 128.5 -53t53.5 -129q0 -75 -53.5 -128t-128.5 -53t-128 53t-53 128q0 76 53 129t128 53z" />
    <glyph glyph-name="semicolon" unicode=";" horiz-adv-x="518" 
d="M242 719q-75 0 -128 52t-53 126q0 76 53 129t128 53t128.5 -53t53.5 -129q0 -73 -53.5 -125.5t-128.5 -52.5zM254 340q78 0 123 -55.5t45 -145.5q0 -309 -313 -469v125q107 67 137 185q-71 5 -119.5 55.5t-48.5 122.5q0 76 50 129t126 53z" />
    <glyph glyph-name="less" unicode="&#x3c;" horiz-adv-x="1101" 
d="M1038 963l-395 -207l395 -207v-340l-979 547l979 544v-337z" />
    <glyph glyph-name="equal" unicode="=" horiz-adv-x="1122" 
d="M1059 868h-996v281h996v-281zM1059 367h-996v280h996v-280z" />
    <glyph glyph-name="greater" unicode="&#x3e;" horiz-adv-x="1101" 
d="M1042 756l-979 -547v340l396 207l-396 207v337z" />
    <glyph glyph-name="question" unicode="?" horiz-adv-x="1095" 
d="M549 1556q236 0 374 -125t138 -339q0 -61 -15.5 -111.5t-48 -93t-61.5 -70t-76 -65.5q-80 -64 -116.5 -110.5t-36.5 -109.5v-65h-316v78q0 47 15 90t45 82.5t60.5 69.5t76.5 69q75 63 113 114t38 117q0 88 -50.5 139.5t-139.5 51.5q-90 0 -143.5 -54.5t-57.5 -150.5
l-315 21q7 210 148.5 336t367.5 126zM547 340q75 0 128.5 -53t53.5 -129q0 -75 -53.5 -128t-128.5 -53q-74 0 -126 53t-52 128q0 76 52 129t126 53z" />
    <glyph glyph-name="at" unicode="@" horiz-adv-x="1644" 
d="M821 1243q213 0 384 -95.5t266.5 -264t95.5 -377.5q0 -211 -87 -319.5t-241 -108.5q-157 0 -211 104q-96 -110 -260 -110q-174 0 -282.5 119t-108.5 313q0 196 108.5 315t282.5 119q83 0 145 -26.5t95 -67.5v63h217v-594q0 -80 71 -80q57 0 92 69.5t35 203.5
q0 126 -46 238t-125 191.5t-191 126t-240 46.5q-171 0 -308.5 -79t-214.5 -216.5t-77 -306.5q0 -134 48 -248t129 -190t187.5 -119t223.5 -43q212 0 367 90l47 -133q-87 -49 -183.5 -71.5t-230.5 -22.5q-202 0 -368.5 92t-264.5 261.5t-98 383.5q0 210 94.5 378t264.5 263.5
t384 95.5zM997 487v35q0 100 -52.5 156.5t-139.5 56.5q-90 0 -142.5 -60.5t-52.5 -170.5q0 -109 53 -170.5t142 -61.5q87 0 139.5 57.5t52.5 157.5z" />
    <glyph glyph-name="A" unicode="A" horiz-adv-x="1615" 
d="M1599 0h-348l-125 295h-637l-127 -295h-346l658 1532h266zM602 553h414l-207 489z" />
    <glyph glyph-name="B" unicode="B" horiz-adv-x="1445" 
d="M154 1532h641q216 0 346.5 -108.5t130.5 -317.5q0 -104 -40.5 -179.5t-109.5 -121.5q94 -36 153.5 -128.5t59.5 -230.5q0 -214 -135 -330t-360 -116h-686v1532zM469 1253v-335h305q176 0 176 165q0 85 -51 127.5t-141 42.5h-289zM469 649v-368h334q97 0 153 44.5
t56 137.5q0 94 -56 140t-149 46h-338z" />
    <glyph glyph-name="C" unicode="C" horiz-adv-x="1691" 
d="M879 1554q283 0 484.5 -158t242.5 -425l-330 -29q-32 161 -139.5 246.5t-268.5 85.5q-202 0 -324 -138t-122 -370q0 -122 34.5 -219t95 -160t142 -96t176.5 -33q160 0 268 84.5t138 241.5l332 -29q-44 -265 -244.5 -421.5t-482.5 -156.5q-225 0 -401 93t-278 273.5
t-102 422.5q0 243 101.5 423t277 272.5t400.5 92.5z" />
    <glyph glyph-name="D" unicode="D" horiz-adv-x="1644" 
d="M154 1532h630q219 0 390 -90t270.5 -265.5t99.5 -410.5t-100 -410.5t-271.5 -265.5t-390.5 -90h-628v1532zM469 1262v-992h317q205 0 325 127t120 369t-119.5 369t-325.5 127h-317z" />
    <glyph glyph-name="E" unicode="E" 
d="M1137 1253h-666v-331h578v-273h-578v-368h668v-281h-985v1532h983v-279z" />
    <glyph glyph-name="F" unicode="F" horiz-adv-x="1204" 
d="M1137 1253h-666v-331h543v-279h-543v-643h-317v1532h983v-279z" />
    <glyph glyph-name="G" unicode="G" horiz-adv-x="1708" 
d="M1608 836v-103q0 -225 -88 -396t-253.5 -265.5t-387.5 -94.5q-167 0 -310 54.5t-247 154t-163 249t-59 331.5q0 243 101.5 423t276.5 272.5t399 92.5q269 0 462 -138.5t254 -387.5l-327 -55q-33 141 -135 221t-257 80q-211 0 -331.5 -129.5t-120.5 -378.5t121 -378.5
t331 -129.5q148 0 251 73.5t137 225.5h-385v279h731z" />
    <glyph glyph-name="H" unicode="H" horiz-adv-x="1560" 
d="M1407 0h-315v645h-621v-645h-317v1532h317v-606h621v606h315v-1532z" />
    <glyph glyph-name="I" unicode="I" horiz-adv-x="624" 
d="M471 0h-317v1532h317v-1532z" />
    <glyph glyph-name="J" unicode="J" horiz-adv-x="1257" 
d="M1114 1532v-985q0 -268 -143.5 -419t-395.5 -151q-237 0 -381 137t-157 380l317 51q8 -136 66 -211.5t158 -75.5q108 0 164.5 71t56.5 208v995h315z" />
    <glyph glyph-name="K" unicode="K" horiz-adv-x="1476" 
d="M870 905l588 -905h-373l-426 651l-188 -227v-424h-317v1532h317v-633l520 633h406z" />
    <glyph glyph-name="L" unicode="L" horiz-adv-x="1210" 
d="M471 281h668v-281h-985v1532h317v-1251z" />
    <glyph glyph-name="M" unicode="M" horiz-adv-x="1994" 
d="M1839 0h-313v827l-422 -811h-209l-424 811v-827h-317v1532h280l565 -1053l562 1053h278v-1532z" />
    <glyph glyph-name="N" unicode="N" horiz-adv-x="1564" 
d="M1411 0h-268l-672 948v-948h-317v1532h268l674 -950v950h315v-1532z" />
    <glyph glyph-name="O" unicode="O" horiz-adv-x="1792" 
d="M897 1554q170 0 316.5 -56t252.5 -157t166 -249.5t60 -325.5q0 -236 -103.5 -416.5t-283.5 -276.5t-408 -96q-230 0 -410.5 96t-283.5 276.5t-103 416.5q0 177 60 325.5t165.5 249.5t252.5 157t319 56zM897 1274q-214 0 -344.5 -136.5t-130.5 -371.5q0 -234 131 -371
t344 -137q210 0 340.5 137.5t130.5 370.5q0 234 -130.5 371t-340.5 137z" />
    <glyph glyph-name="P" unicode="P" horiz-adv-x="1366" 
d="M154 1532h663q223 0 358.5 -131t135.5 -363t-135.5 -362.5t-358.5 -130.5h-346v-545h-317v1532zM469 1253v-428h307q95 0 154 56t59 157q0 102 -59 158.5t-154 56.5h-307z" />
    <glyph glyph-name="Q" unicode="Q" horiz-adv-x="1800" 
d="M1559 -160l-242 240q-189 -103 -420 -103q-230 0 -410.5 96t-283.5 276.5t-103 416.5q0 177 60 325.5t165.5 249.5t252.5 157t319 56q170 0 316.5 -56t252.5 -157t166 -249.5t60 -325.5q0 -275 -142 -475l230 -225zM897 258q109 0 201 39l-232 229l221 222l232 -230
q49 107 49 248q0 234 -130.5 371t-340.5 137q-214 0 -344.5 -136.5t-130.5 -371.5q0 -234 131 -371t344 -137z" />
    <glyph glyph-name="R" unicode="R" horiz-adv-x="1447" 
d="M1026 0l-299 551h-256v-551h-317v1532h655q223 0 358.5 -130t135.5 -362q0 -157 -65 -269t-181 -169l325 -602h-356zM469 831h301q95 0 153 55t58 154q0 102 -58 157.5t-153 55.5h-301v-422z" />
    <glyph glyph-name="S" unicode="S" horiz-adv-x="1357" 
d="M672 1554q252 0 406.5 -126t160.5 -345l-324 -16q-2 97 -65.5 155t-171.5 58q-107 0 -167 -50.5t-60 -133.5t63.5 -121t235.5 -78q102 -26 175.5 -51.5t142 -63t110.5 -83t67 -109.5t25 -144q0 -119 -44.5 -210.5t-122.5 -147t-178 -83.5t-218 -28q-273 0 -442.5 130
t-172.5 362l322 16q4 -104 86 -168.5t207 -64.5q112 0 176.5 43t64.5 133q0 82 -72.5 125.5t-242.5 85.5q-68 17 -115.5 31t-104.5 36t-95.5 44.5t-77.5 56t-61.5 72.5t-37 91.5t-14.5 114.5q0 96 34 180t100 149t171.5 102.5t239.5 37.5z" />
    <glyph glyph-name="T" unicode="T" horiz-adv-x="1419" 
d="M1380 1253h-512v-1253h-315v1253h-514v279h1341v-279z" />
    <glyph glyph-name="U" unicode="U" horiz-adv-x="1591" 
d="M1448 1532v-909q0 -305 -174 -475.5t-477 -170.5q-306 0 -480 170t-174 476v909h316v-905q0 -180 86 -274.5t252 -94.5q163 0 249.5 94.5t86.5 274.5v905h315z" />
    <glyph glyph-name="V" unicode="V" horiz-adv-x="1603" 
d="M936 0h-266l-645 1532h346l432 -1040l430 1040h348z" />
    <glyph glyph-name="W" unicode="W" horiz-adv-x="2304" 
d="M1745 0h-266l-326 971l-326 -971h-268l-534 1532h344l327 -995l326 995h260l328 -995l325 995h344z" />
    <glyph glyph-name="X" unicode="X" horiz-adv-x="1488" 
d="M979 778l473 -778h-367l-340 569l-342 -569h-366l473 778l-447 754h365l317 -543l316 543h364z" />
    <glyph glyph-name="Y" unicode="Y" horiz-adv-x="1523" 
d="M922 590v-590h-316v590l-581 942h366l371 -629l371 629h368z" />
    <glyph glyph-name="Z" unicode="Z" horiz-adv-x="1282" 
d="M1192 1292l-713 -1011h733v-281h-1136v240l708 1013h-698v279h1106v-240z" />
    <glyph glyph-name="bracketleft" unicode="[" horiz-adv-x="628" 
d="M588 1223h-182v-1133h182v-248h-479v1628h479v-247z" />
    <glyph glyph-name="backslash" unicode="\" horiz-adv-x="862" 
d="M848 -137h-311l-523 1669h312z" />
    <glyph glyph-name="bracketright" unicode="]" horiz-adv-x="628" 
d="M522 -158h-479v248h180v1133h-180v247h479v-1628z" />
    <glyph glyph-name="asciicircum" unicode="^" horiz-adv-x="1220" 
d="M1165 762h-338l-217 342l-217 -342h-338l555 807z" />
    <glyph glyph-name="underscore" unicode="_" horiz-adv-x="1409" 
d="M1317 -281h-1225v281h1225v-281z" />
    <glyph glyph-name="grave" unicode="`" horiz-adv-x="548" 
d="M528 1225h-231l-279 391h340z" />
    <glyph glyph-name="a" unicode="a" horiz-adv-x="1140" 
d="M561 1079q214 0 327 -108.5t113 -317.5v-653h-288v86q-105 -109 -271 -109q-163 0 -257.5 81.5t-94.5 232.5q0 302 424 321l188 11v41q0 163 -137 163q-72 0 -109.5 -40.5t-37.5 -98.5l-299 12q0 70 31.5 137.5t87 121.5t140.5 87t183 33zM702 426l-159 -10
q-154 -7 -154 -111q0 -96 123 -96q85 0 137.5 45t52.5 127v45z" />
    <glyph glyph-name="b" unicode="b" horiz-adv-x="1345" 
d="M446 1591v-624q43 50 121.5 81t175.5 31q227 0 369.5 -151t142.5 -400q0 -248 -142.5 -399.5t-369.5 -151.5q-105 0 -187 37t-126 95v-109h-283v1591h299zM696 823q-112 0 -181 -72t-69 -198v-47q0 -127 69 -198.5t181 -71.5q115 0 185.5 77t70.5 215t-70.5 216.5
t-185.5 78.5z" />
    <glyph glyph-name="c" unicode="c" horiz-adv-x="1212" 
d="M633 1079q197 0 335 -110t167 -299l-293 -25q-11 82 -67 130t-142 48q-107 0 -173.5 -78.5t-66.5 -216.5q0 -137 66.5 -214.5t173.5 -77.5q87 0 143 46t68 126l291 -27q-30 -186 -167.5 -295t-334.5 -109q-239 0 -391 148.5t-152 402.5q0 256 151.5 403.5t391.5 147.5z
" />
    <glyph glyph-name="d" unicode="d" horiz-adv-x="1345" 
d="M1196 0h-281v109q-44 -58 -126 -95t-189 -37q-226 0 -368 152t-142 399q0 249 142 400t368 151q99 0 177.5 -31t121.5 -81v624h297v-1591zM649 823q-115 0 -185.5 -78.5t-70.5 -216.5t70.5 -215t185.5 -77q112 0 181 71.5t69 198.5v47q0 126 -69 198t-181 72z" />
    <glyph glyph-name="e" unicode="e" horiz-adv-x="1224" 
d="M1135 434h-727q5 -99 63 -157t158 -58q77 0 127 30.5t67 86.5l301 -14q-28 -151 -164.5 -248t-322.5 -97q-245 0 -396 149t-151 402t149.5 402t389.5 149q231 0 368.5 -140.5t137.5 -385.5v-119zM627 846q-96 0 -154.5 -56t-64.5 -157h426q-5 100 -57 156.5t-150 56.5z
" />
    <glyph glyph-name="f" unicode="f" horiz-adv-x="778" 
d="M643 1604q51 0 105 -7v-258q-36 4 -70 4q-78 0 -128 -46t-50 -121v-117h245v-258h-245v-801h-297v801h-193v258h193v108q0 199 120 318t320 119z" />
    <glyph glyph-name="g" unicode="g" horiz-adv-x="1327" 
d="M600 1079q108 0 189.5 -36t125.5 -95v111h281v-1098q0 -229 -145 -366.5t-389 -137.5q-241 0 -377.5 109.5t-167.5 298.5l297 10q11 -77 73.5 -120.5t163.5 -43.5q114 0 181 58.5t67 169.5v151q-46 -49 -124 -81t-175 -32q-226 0 -368 152t-142 399t142 399t368 152z
M649 823q-115 0 -185.5 -78.5t-70.5 -216.5t70.5 -216.5t185.5 -78.5q112 0 181 72.5t69 198.5v49q0 126 -69 198t-181 72z" />
    <glyph glyph-name="h" unicode="h" horiz-adv-x="1261" 
d="M446 1591v-622q87 110 269 110q186 0 299.5 -115t113.5 -317v-647h-299v590q0 100 -49.5 155.5t-136.5 55.5q-89 0 -143 -58.5t-54 -154.5v-588h-299v1591h299z" />
    <glyph glyph-name="i" unicode="i" horiz-adv-x="595" 
d="M297 1585q75 0 127.5 -52.5t52.5 -127.5q0 -74 -52.5 -126t-127.5 -52t-126.5 52t-51.5 126q0 75 52.5 127.5t125.5 52.5zM446 0h-299v1059h299v-1059z" />
    <glyph glyph-name="j" unicode="j" horiz-adv-x="595" 
d="M297 1585q75 0 127.5 -52.5t52.5 -127.5q0 -74 -52.5 -126t-127.5 -52t-126.5 52t-51.5 126q0 75 51.5 127.5t126.5 52.5zM449 1059v-1161q0 -199 -120 -317t-319 -118q-50 0 -104 7v260q27 -6 69 -6q77 0 126 45.5t49 121.5v1168h299z" />
    <glyph glyph-name="k" unicode="k" horiz-adv-x="1191" 
d="M446 682l342 377h363l-399 -453l428 -606h-363l-276 383l-95 -102v-281h-299v1591h299v-909z" />
    <glyph glyph-name="l" unicode="l" horiz-adv-x="595" 
d="M446 0h-299v1591h299v-1591z" />
    <glyph glyph-name="m" unicode="m" horiz-adv-x="1904" 
d="M1366 1079q183 0 292 -115.5t109 -314.5v-649h-299v590q0 102 -45 156.5t-131 54.5q-78 0 -126.5 -47.5t-57.5 -128.5v-625h-299v590q0 101 -45 156t-127 55q-88 0 -139.5 -58.5t-51.5 -154.5v-588h-299v1059h283v-109q82 129 279 129q223 0 331 -168q107 168 326 168z
" />
    <glyph glyph-name="n" unicode="n" horiz-adv-x="1265" 
d="M715 1079q186 0 299.5 -115t113.5 -317v-647h-299v590q0 100 -49.5 155.5t-136.5 55.5q-89 0 -143 -58.5t-54 -154.5v-588h-299v1059h283v-109q37 59 109.5 94t175.5 35z" />
    <glyph glyph-name="o" unicode="o" horiz-adv-x="1306" 
d="M653 1079q246 0 405 -152t159 -399q0 -246 -159 -398.5t-405 -152.5t-404.5 152.5t-158.5 398.5q0 164 73 290t201 193.5t289 67.5zM653 823q-117 0 -188.5 -79t-71.5 -216q0 -136 71.5 -214t188.5 -78t188.5 78t71.5 214q0 137 -71.5 216t-188.5 79z" />
    <glyph glyph-name="p" unicode="p" horiz-adv-x="1345" 
d="M743 1079q227 0 369.5 -151.5t142.5 -399.5t-142.5 -399.5t-369.5 -151.5q-96 0 -174.5 32t-122.5 81v-612h-299v1581h283v-111q43 58 125 94.5t188 36.5zM696 823q-112 0 -181 -72t-69 -198v-49q0 -126 69 -198.5t181 -72.5q115 0 185.5 78.5t70.5 216.5t-70.5 216.5
t-185.5 78.5z" />
    <glyph glyph-name="q" unicode="q" horiz-adv-x="1345" 
d="M600 1079q108 0 189.5 -36t125.5 -95v111h281v-1581h-297v612q-44 -49 -122.5 -81t-176.5 -32q-226 0 -368 152t-142 399t142 399t368 152zM649 823q-115 0 -185.5 -78.5t-70.5 -216.5t70.5 -216.5t185.5 -78.5q112 0 181 72.5t69 198.5v49q0 126 -69 198t-181 72z" />
    <glyph glyph-name="r" unicode="r" horiz-adv-x="774" 
d="M727 1069v-289q-128 0 -204.5 -67t-76.5 -176v-537h-299v1059h289v-121q84 131 291 131z" />
    <glyph glyph-name="s" unicode="s" horiz-adv-x="1036" 
d="M510 1079q194 0 304 -94t124 -248l-297 -16q-7 129 -135 129q-59 0 -90 -23.5t-31 -66.5q0 -12 2.5 -22t9.5 -18.5t13 -15t19.5 -13t23.5 -10.5t29.5 -9.5t32 -9t37.5 -9.5t40 -10q70 -18 119 -35t98 -43t78 -57.5t47 -76t18 -101.5q0 -163 -114.5 -258t-319.5 -95
q-202 0 -317.5 89.5t-132.5 255.5l299 16q3 -61 41 -96t112 -35q62 0 97.5 25.5t35.5 70.5q0 47 -37.5 70t-154.5 51q-57 14 -92.5 24.5t-79.5 26t-70.5 31.5t-55 39.5t-43.5 51t-24.5 65t-9.5 83.5q0 153 113 243.5t311 90.5z" />
    <glyph glyph-name="t" unicode="t" horiz-adv-x="827" 
d="M514 801l-2 -393q0 -82 45 -121t115 -39q35 0 92 10v-266q-86 -12 -166 -12q-179 0 -282.5 89t-102.5 267l2 465h-192v258h194l2 350h299l-2 -350h248v-258h-250z" />
    <glyph glyph-name="u" unicode="u" 
d="M1085 0h-282v106q-80 -129 -275 -129q-183 0 -287 111t-104 305v666h299v-602q0 -201 170 -201q84 0 132 57t48 148v598h299v-1059z" />
    <glyph glyph-name="v" unicode="v" horiz-adv-x="1173" 
d="M707 0h-240l-457 1059h330l248 -623l246 623h329z" />
    <glyph glyph-name="w" unicode="w" horiz-adv-x="1732" 
d="M1317 0h-238l-213 561l-213 -561h-237l-406 1059h328l207 -606l217 606h209l219 -606l207 606h327z" />
    <glyph glyph-name="x" unicode="x" horiz-adv-x="1132" 
d="M774 535l336 -535h-342l-203 330l-200 -330h-340l329 535l-325 524h340l196 -324l197 324h340z" />
    <glyph glyph-name="y" unicode="y" horiz-adv-x="1173" 
d="M483 -522h-325l270 616l-414 965h330l244 -631l241 631h332z" />
    <glyph glyph-name="z" unicode="z" horiz-adv-x="931" 
d="M848 860l-432 -618h448v-242h-794v197l434 620h-426v242h770v-199z" />
    <glyph glyph-name="braceleft" unicode="{" horiz-adv-x="620" 
d="M578 1223h-13q-93 0 -120.5 -58.5t-4.5 -208.5q10 -79 9 -142.5t-37.5 -106t-110.5 -50.5q74 -9 110.5 -52t37.5 -106.5t-9 -142.5q-23 -150 4.5 -208t120.5 -58h13v-248h-13q-111 0 -198.5 29.5t-147 89.5t-79 151.5t4.5 215.5q12 52 16.5 80t4 56.5t-13 41.5t-36.5 21
t-65 8h-16v243h16q41 0 65 8t36.5 21t13 41.5t-4 56.5t-16.5 80q-24 124 -4.5 215t79.5 151t147 89.5t198 29.5h13v-247z" />
    <glyph glyph-name="bar" unicode="|" horiz-adv-x="589" 
d="M444 -137h-299v1669h299v-1669z" />
    <glyph glyph-name="braceright" unicode="}" horiz-adv-x="620" 
d="M43 1470h12q111 0 198 -29.5t147 -89.5t79.5 -151t-4.5 -215q-12 -52 -16.5 -80t-4 -56.5t13 -41.5t36.5 -21t65 -8h17v-243h-17q-41 0 -65 -8t-36.5 -21t-13 -41.5t4 -56.5t16.5 -80q24 -124 4.5 -215.5t-79 -151.5t-147 -89.5t-198.5 -29.5h-12v248h12q93 0 120.5 58
t4.5 208q-10 79 -9 142.5t37 106.5t109 52q-73 8 -109 50.5t-37 106t9 142.5q23 150 -4.5 208.5t-120.5 58.5h-12v247z" />
    <glyph glyph-name="asciitilde" unicode="~" horiz-adv-x="1114" 
d="M958 948l136 -196q-72 -93 -151.5 -142t-178.5 -49q-57 0 -112.5 18.5t-92 40t-86 40t-96.5 18.5q-72 0 -122 -24t-99 -83l-136 199q71 92 150 139t178 47q53 0 106.5 -18t90 -40t87.5 -40t101 -18q73 0 124.5 24.5t100.5 83.5z" />
    <glyph glyph-name="exclamdown" unicode="&#xa1;" horiz-adv-x="663" 
d="M334 684q-75 0 -128.5 53t-53.5 129q0 75 53.5 128t128.5 53q74 0 126 -53t52 -128q0 -76 -52 -129t-126 -53zM174 557h315l17 -1065h-348z" />
    <glyph glyph-name="cent" unicode="&#xa2;" horiz-adv-x="1212" 
d="M633 236q87 0 143 46t68 126l291 -27q-26 -156 -129.5 -259.5t-257.5 -133.5v-230h-248v234q-186 38 -298 179t-112 357q0 218 111 359t299 180v217h248v-215q155 -30 259 -134.5t128 -264.5l-293 -25q-11 82 -67 130t-142 48q-107 0 -173.5 -78.5t-66.5 -216.5
q0 -137 66.5 -214.5t173.5 -77.5z" />
    <glyph glyph-name="sterling" unicode="&#xa3;" horiz-adv-x="1159" 
d="M1114 281v-281h-1057v258q123 25 164 110t27 255v4h-193v247h170l-12 130q-27 262 86.5 406t355.5 144q210 0 324.5 -111.5t120.5 -309.5l-316 -17q0 73 -35 115.5t-100 42.5q-79 0 -114.5 -55.5t-26.5 -157.5l16 -187h307v-247h-282v-11q11 -117 -18 -196.5t-91 -138.5
h674z" />
    <glyph glyph-name="currency" unicode="&#xa4;" horiz-adv-x="1230" 
d="M1001 516q0 -109 -36 -188l229 -230l-188 -186l-228 227q-70 -30 -162 -30q-84 0 -159 32l-232 -229l-188 186l231 232q-39 83 -39 186t39 189l-231 231l188 188l232 -231q78 33 159 33q79 0 160 -33l230 231l188 -188l-231 -231q38 -84 38 -189zM473 516
q0 -94 38 -145.5t105 -51.5q65 0 103.5 53.5t38.5 143.5q0 92 -38.5 144.5t-103.5 52.5q-66 0 -104.5 -52.5t-38.5 -144.5z" />
    <glyph glyph-name="yen" unicode="&#xa5;" horiz-adv-x="1523" 
d="M1006 725h188v-184h-272v-135h272v-187h-272v-219h-316v219h-274v187h274v135h-274v184h190l-497 807h366l371 -629l371 629h368z" />
    <glyph glyph-name="brokenbar" unicode="&#xa6;" horiz-adv-x="589" 
d="M444 879h-299v653h299v-653zM444 -137h-299v653h299v-653z" />
    <glyph glyph-name="section" unicode="&#xa7;" horiz-adv-x="1083" 
d="M883 532q121 -76 121 -237q0 -157 -124 -254.5t-335 -97.5q-221 0 -346 92.5t-125 251.5l299 12q0 -64 44.5 -101.5t129.5 -37.5q73 0 115.5 30.5t42.5 85.5q0 52 -44 79.5t-163 54.5q-87 18 -147.5 35.5t-118.5 44t-92.5 59t-55.5 80t-21 108.5q0 85 36.5 142.5
t105.5 101.5q-111 78 -111 231q0 154 117.5 248t316.5 94q210 0 326.5 -87.5t118.5 -239.5l-297 -10q-3 118 -146 118q-65 0 -101 -27t-36 -81q0 -49 40 -74.5t153 -52.5q112 -23 184.5 -47t132.5 -61t87.5 -90t27.5 -128q0 -84 -34.5 -140.5t-100.5 -101.5zM338 766
q0 -60 60 -87.5t212 -57.5l47 -11q44 30 65 58.5t21 74.5q0 61 -59 88.5t-213 57.5l-47 10q-43 -30 -64.5 -59.5t-21.5 -73.5z" />
    <glyph glyph-name="dieresis" unicode="&#xa8;" horiz-adv-x="759" 
d="M182 1550q68 0 116 -46.5t48 -112.5q0 -68 -48 -115t-116 -47t-115 46.5t-47 115.5q0 66 47.5 112.5t114.5 46.5zM578 1550q67 0 114 -46.5t47 -112.5q0 -69 -46.5 -115.5t-114.5 -46.5t-115 46.5t-47 115.5q0 66 47.5 112.5t114.5 46.5z" />
    <glyph glyph-name="copyright" unicode="&#xa9;" horiz-adv-x="1218" 
d="M610 1559q236 0 394.5 -150.5t158.5 -374.5t-158.5 -374t-394.5 -150q-158 0 -285.5 68.5t-198.5 188t-71 267.5q0 225 157.5 375t397.5 150zM610 1456q-194 0 -316 -118.5t-122 -303.5t122 -303.5t316 -118.5q192 0 314.5 118.5t122.5 303.5t-122.5 303.5t-314.5 118.5z
M612 1358q115 0 196.5 -64.5t98.5 -173.5l-170 -10q-9 50 -43 77t-86 27q-65 0 -104 -47.5t-39 -128.5q0 -83 41 -129.5t104 -46.5q50 0 84 27t43 76l170 -13q-19 -108 -99.5 -171.5t-195.5 -63.5q-138 0 -226.5 86.5t-88.5 234.5t88.5 234t226.5 86z" />
    <glyph glyph-name="ordfeminine" unicode="&#xaa;" horiz-adv-x="935" 
d="M461 1550q370 0 370 -342v-526h-251v63q-33 -35 -92.5 -57t-135.5 -22q-135 0 -212 64t-77 183q0 241 369 263l133 8v43q0 50 -27 79t-77 29q-55 0 -85 -30.5t-30 -75.5l-260 8q0 122 103.5 217.5t271.5 95.5zM565 1022l-112 -8q-119 -10 -119 -84q0 -36 23.5 -54
t64.5 -18q58 -2 100.5 32t42.5 95v37z" />
    <glyph glyph-name="guillemotleft" unicode="&#xab;" horiz-adv-x="1189" 
d="M602 862l-240 -334l240 -333l-237 -148l-334 481l334 482zM1155 862l-237 -334l237 -333l-237 -148l-334 481l334 482z" />
    <glyph glyph-name="logicalnot" unicode="&#xac;" 
d="M1155 301h-233v389h-854v232h1087v-621z" />
    <glyph glyph-name="registered" unicode="&#xae;" horiz-adv-x="1218" 
d="M610 1559q236 0 394.5 -150.5t158.5 -374.5t-158.5 -374t-394.5 -150q-158 0 -285.5 68.5t-198.5 188t-71 267.5q0 225 157.5 375t397.5 150zM610 612q192 0 314.5 118.5t122.5 303.5t-122.5 303.5t-314.5 118.5q-194 0 -316 -118.5t-122 -303.5t122 -303.5t316 -118.5z
M858 1145q0 -123 -88 -176l117 -246h-180l-103 217h-72v-217h-163v627h286q92 0 147.5 -54.5t55.5 -150.5zM532 1071h80q78 0 78 74q0 36 -21 54t-57 18h-80v-146z" />
    <glyph glyph-name="macron" unicode="&#xaf;" horiz-adv-x="649" 
d="M631 1268h-615v229h615v-229z" />
    <glyph glyph-name="degree" unicode="&#xb0;" horiz-adv-x="772" 
d="M385 1552q148 0 240 -82t92 -225v-45q0 -143 -92 -225t-240 -82t-239 81.5t-91 225.5v45q0 144 90.5 225.5t239.5 81.5zM385 1370q-59 0 -93 -35.5t-34 -99.5v-25q0 -64 34 -99.5t93 -35.5q58 0 92.5 35.5t34.5 99.5v25q0 64 -34.5 99.5t-92.5 35.5z" />
    <glyph glyph-name="plusminus" unicode="&#xb1;" horiz-adv-x="1122" 
d="M707 1120h352v-270h-352v-363h-291v363h-353v270h353v361h291v-361zM1059 102h-996v279h996v-279z" />
    <glyph glyph-name="acute" unicode="&#xb4;" horiz-adv-x="548" 
d="M252 1225h-234l175 391h335z" />
    <glyph glyph-name="paragraph" unicode="&#xb6;" horiz-adv-x="1456" 
d="M1421 1311h-143v-1448h-231v1448h-197v-1448h-229v891h-115q-199 0 -316.5 100.5t-117.5 290.5q0 187 117.5 287t316.5 100h915v-221z" />
    <glyph glyph-name="periodcentered" unicode="&#xb7;" horiz-adv-x="550" 
d="M258 844q75 0 128.5 -53t53.5 -129q0 -75 -53.5 -128t-128.5 -53t-127.5 53t-52.5 128q0 76 52.5 129t127.5 53z" />
    <glyph glyph-name="cedilla" unicode="&#xb8;" horiz-adv-x="561" 
d="M326 25l-27 -109q95 -6 162 -62.5t67 -150.5q0 -107 -83.5 -163t-202.5 -56q-127 0 -203 39l47 158q47 -29 113 -29q42 0 74 17t32 55q0 39 -31 57t-81 18q-41 0 -74 -10l76 236h131z" />
    <glyph glyph-name="ordmasculine" unicode="&#xba;" horiz-adv-x="1050" 
d="M524 1550q200 0 328.5 -123t128.5 -321q0 -197 -128.5 -318.5t-328.5 -121.5t-327 121t-127 319t127.5 321t326.5 123zM524 1321q-84 0 -134 -57.5t-50 -157.5q0 -99 50 -156t134 -57q86 0 137.5 57t51.5 156q0 100 -51.5 157.5t-137.5 57.5z" />
    <glyph glyph-name="guillemotright" unicode="&#xbb;" horiz-adv-x="1189" 
d="M606 528l-334 -481l-237 148l239 333l-239 334l237 148zM1159 528l-334 -481l-237 148l239 333l-239 334l237 148z" />
    <glyph glyph-name="onequarter" unicode="&#xbc;" horiz-adv-x="1507" 
d="M375 0h-303l1036 1532h305zM414 659h-230v541l-96 -63l-96 186l276 178h146v-842zM1382 332h91v-203h-91v-129h-229v129h-336v178l344 535h221v-510zM1018 332h135v200z" />
    <glyph glyph-name="onehalf" unicode="&#xbd;" horiz-adv-x="1597" 
d="M375 0h-303l1036 1532h305zM414 659h-230v541l-96 -63l-96 186l276 178h146v-842zM1264 856q141 0 212.5 -74.5t71.5 -197.5q0 -80 -33.5 -147t-95.5 -136l-88 -98h221v-203h-565v158l266 286q34 36 50 68t16 74q0 31 -13 48t-36 17q-28 0 -44 -20t-16 -56l-225 13
q1 124 77.5 196t201.5 72z" />
    <glyph glyph-name="threequarters" unicode="&#xbe;" horiz-adv-x="1667" 
d="M535 0h-304l1037 1532h305zM332 1513q132 0 204 -68t72 -188q0 -105 -88 -165q43 -21 70.5 -68.5t27.5 -110.5q0 -125 -80 -197.5t-208 -72.5q-138 0 -212.5 71.5t-76.5 192.5l231 17q3 -76 58 -76q27 0 43 19t16 53q0 73 -70 73h-92v185h88q29 0 49.5 18t20.5 49
q0 30 -14.5 47t-38.5 17q-56 0 -56 -68l-223 12q0 123 72 191.5t207 68.5zM1542 332h90v-203h-90v-129h-229v129h-336v178l344 535h221v-510zM1178 332h135v200z" />
    <glyph glyph-name="questiondown" unicode="&#xbf;" horiz-adv-x="1095" 
d="M547 719q-75 0 -128.5 53t-53.5 129q0 73 53.5 125.5t128.5 52.5t127.5 -52t52.5 -126q0 -76 -52.5 -129t-127.5 -53zM547 -498q-237 0 -375.5 125.5t-138.5 339.5q0 61 16 111.5t49 93t61.5 70t76.5 65.5q78 61 114.5 108.5t36.5 110.5v64h318v-76q0 -48 -14.5 -91
t-45.5 -82t-60.5 -68.5t-76.5 -69.5q-77 -66 -114.5 -116.5t-37.5 -115.5q0 -89 51 -139.5t140 -50.5t142 54t59 151l315 -21q-7 -210 -148.5 -336.5t-367.5 -126.5z" />
    <glyph glyph-name="Agrave" unicode="&#xc0;" horiz-adv-x="1615" 
d="M934 1628h-272l-398 316h408zM1599 0h-348l-125 295h-637l-127 -295h-346l658 1532h266zM602 553h414l-207 489z" />
    <glyph glyph-name="Aacute" unicode="&#xc1;" horiz-adv-x="1615" 
d="M942 1628h-272l262 316h407zM1599 0h-348l-125 295h-637l-127 -295h-346l658 1532h266zM602 553h414l-207 489z" />
    <glyph glyph-name="Acircumflex" unicode="&#xc2;" horiz-adv-x="1615" 
d="M1192 1628h-252l-131 154l-133 -154h-250l240 328h288zM1599 0h-348l-125 295h-637l-127 -295h-346l658 1532h266zM602 553h414l-207 489z" />
    <glyph glyph-name="Atilde" unicode="&#xc3;" horiz-adv-x="1615" 
d="M655 1964q44 0 85.5 -17t67.5 -37.5t58.5 -37.5t61.5 -17q83 0 86 95h168q11 -129 -50.5 -223.5t-170.5 -94.5q-44 0 -85.5 17t-67 37.5t-58 37.5t-60.5 17q-86 0 -86 -94h-168q-11 129 49.5 223t169.5 94zM1599 0h-348l-125 295h-637l-127 -295h-346l658 1532h266z
M602 553h414l-207 489z" />
    <glyph glyph-name="Adieresis" unicode="&#xc4;" horiz-adv-x="1615" 
d="M612 1960q68 0 116 -47.5t48 -114.5t-48 -114.5t-116 -47.5q-67 0 -114 47t-47 115t47 115t114 47zM1008 1960q67 0 114 -47t47 -115t-47 -115t-114 -47q-68 0 -115 47t-47 115t47 115t115 47zM1599 0h-348l-125 295h-637l-127 -295h-346l658 1532h266zM602 553h414
l-207 489z" />
    <glyph glyph-name="Aring" unicode="&#xc5;" horiz-adv-x="1615" 
d="M809 2064q97 0 164 -62t67 -159q0 -94 -67.5 -156.5t-163.5 -62.5q-101 0 -169.5 62.5t-68.5 156.5q0 97 68.5 159t169.5 62zM809 1927q-39 0 -62.5 -23.5t-23.5 -60.5q0 -35 23.5 -57.5t62.5 -22.5q35 0 57.5 23t22.5 57q0 37 -22.5 60.5t-57.5 23.5zM1599 0h-348
l-125 295h-637l-127 -295h-346l658 1532h266zM602 553h414l-207 489z" />
    <glyph glyph-name="AE" unicode="&#xc6;" horiz-adv-x="2156" 
d="M1393 1253v-331h577v-273h-577v-368h667v-281h-983v295h-483l-199 -295h-385l1032 1532h1018v-279h-667zM1077 553v471l-311 -471h311z" />
    <glyph glyph-name="Ccedilla" unicode="&#xc7;" horiz-adv-x="1691" 
d="M1276 584l332 -29q-28 -169 -123.5 -297.5t-239.5 -199t-319 -78.5l-19 -74q95 -6 162.5 -62.5t67.5 -150.5q0 -107 -84 -163t-203 -56q-127 0 -203 39l47 157q45 -28 113 -28q42 0 74 17t32 54q0 39 -31 57.5t-81 18.5q-41 0 -74 -10l66 203q-151 14 -278 74
t-219.5 158.5t-144 240t-51.5 311.5q0 243 101.5 423t277 272.5t400.5 92.5q283 0 484.5 -158t242.5 -425l-330 -29q-32 161 -139.5 246.5t-268.5 85.5q-202 0 -324 -138t-122 -370q0 -122 34.5 -219t95 -160t142 -96t176.5 -33q160 0 268 84.5t138 241.5z" />
    <glyph glyph-name="Egrave" unicode="&#xc8;" 
d="M778 1628h-272l-397 316h407zM1137 1253h-666v-331h578v-273h-578v-368h668v-281h-985v1532h983v-279z" />
    <glyph glyph-name="Eacute" unicode="&#xc9;" 
d="M788 1628h-272l262 316h408zM1137 1253h-666v-331h578v-273h-578v-368h668v-281h-985v1532h983v-279z" />
    <glyph glyph-name="Ecircumflex" unicode="&#xca;" 
d="M1036 1628h-252l-131 154l-133 -154h-250l240 328h289zM1137 1253h-666v-331h578v-273h-578v-368h668v-281h-985v1532h983v-279z" />
    <glyph glyph-name="Edieresis" unicode="&#xcb;" 
d="M457 1960q68 0 116 -47.5t48 -114.5t-48 -114.5t-116 -47.5q-67 0 -114.5 47t-47.5 115t47.5 115t114.5 47zM852 1960q68 0 115 -47t47 -115t-47 -115t-115 -47t-115 47t-47 115t47 115t115 47zM1137 1253h-666v-331h578v-273h-578v-368h668v-281h-985v1532h983v-279z
" />
    <glyph glyph-name="Igrave" unicode="&#xcc;" horiz-adv-x="624" 
d="M446 1628h-272l-397 316h407zM471 0h-317v1532h317v-1532z" />
    <glyph glyph-name="Iacute" unicode="&#xcd;" horiz-adv-x="624" 
d="M457 1628h-273l262 316h408zM471 0h-317v1532h317v-1532z" />
    <glyph glyph-name="Icircumflex" unicode="&#xce;" horiz-adv-x="624" 
d="M705 1628h-252l-131 154l-134 -154h-249l239 328h289zM471 0h-317v1532h317v-1532z" />
    <glyph glyph-name="Idieresis" unicode="&#xcf;" horiz-adv-x="624" 
d="M125 1960q68 0 116 -47.5t48 -114.5t-48 -114.5t-116 -47.5q-67 0 -114.5 47t-47.5 115t47.5 115t114.5 47zM520 1960q68 0 115 -47t47 -115t-47 -115t-115 -47t-115 47t-47 115t47 115t115 47zM471 0h-317v1532h317v-1532z" />
    <glyph glyph-name="Eth" unicode="&#xd0;" horiz-adv-x="1648" 
d="M188 1532h631q219 0 390 -90t270.5 -265.5t99.5 -410.5t-100 -410.5t-271.5 -265.5t-390.5 -90h-629v645h-172v240h172v647zM504 270h317q205 0 325 127t120 369t-119.5 369t-325.5 127h-317v-377h225v-240h-225v-375z" />
    <glyph glyph-name="Ntilde" unicode="&#xd1;" horiz-adv-x="1564" 
d="M614 1964q44 0 85.5 -17t67.5 -37.5t58.5 -37.5t61.5 -17q83 0 86 95h168q11 -129 -50.5 -223.5t-170.5 -94.5q-44 0 -85.5 17t-67 37.5t-58 37.5t-60.5 17q-86 0 -86 -94h-168q-11 129 49.5 223t169.5 94zM1411 0h-268l-672 948v-948h-317v1532h268l674 -950v950h315
v-1532z" />
    <glyph glyph-name="Ograve" unicode="&#xd2;" horiz-adv-x="1792" 
d="M1014 1628h-273l-397 316h408zM897 1554q170 0 316.5 -56t252.5 -157t166 -249.5t60 -325.5q0 -236 -103.5 -416.5t-283.5 -276.5t-408 -96q-230 0 -410.5 96t-283.5 276.5t-103 416.5q0 177 60 325.5t165.5 249.5t252.5 157t319 56zM897 1274q-214 0 -344.5 -136.5
t-130.5 -371.5q0 -234 131 -371t344 -137q210 0 340.5 137.5t130.5 370.5q0 234 -130.5 371t-340.5 137z" />
    <glyph glyph-name="Oacute" unicode="&#xd3;" horiz-adv-x="1792" 
d="M1024 1628h-272l262 316h407zM897 1554q170 0 316.5 -56t252.5 -157t166 -249.5t60 -325.5q0 -236 -103.5 -416.5t-283.5 -276.5t-408 -96q-230 0 -410.5 96t-283.5 276.5t-103 416.5q0 177 60 325.5t165.5 249.5t252.5 157t319 56zM897 1274q-214 0 -344.5 -136.5
t-130.5 -371.5q0 -234 131 -371t344 -137q210 0 340.5 137.5t130.5 370.5q0 234 -130.5 371t-340.5 137z" />
    <glyph glyph-name="Ocircumflex" unicode="&#xd4;" horiz-adv-x="1792" 
d="M1272 1628h-252l-131 154l-133 -154h-250l239 328h289zM897 1554q170 0 316.5 -56t252.5 -157t166 -249.5t60 -325.5q0 -236 -103.5 -416.5t-283.5 -276.5t-408 -96q-230 0 -410.5 96t-283.5 276.5t-103 416.5q0 177 60 325.5t165.5 249.5t252.5 157t319 56zM897 1274
q-214 0 -344.5 -136.5t-130.5 -371.5q0 -234 131 -371t344 -137q210 0 340.5 137.5t130.5 370.5q0 234 -130.5 371t-340.5 137z" />
    <glyph glyph-name="Otilde" unicode="&#xd5;" horiz-adv-x="1792" 
d="M735 1964q44 0 85.5 -17t67.5 -37.5t58.5 -37.5t61.5 -17q83 0 86 95h168q11 -129 -51 -223.5t-171 -94.5q-44 0 -85 17t-67 37.5t-58 37.5t-60 17q-86 0 -86 -94h-168q-11 129 49.5 223t169.5 94zM897 1554q170 0 316.5 -56t252.5 -157t166 -249.5t60 -325.5
q0 -236 -103.5 -416.5t-283.5 -276.5t-408 -96q-230 0 -410.5 96t-283.5 276.5t-103 416.5q0 177 60 325.5t165.5 249.5t252.5 157t319 56zM897 1274q-214 0 -344.5 -136.5t-130.5 -371.5q0 -234 131 -371t344 -137q210 0 340.5 137.5t130.5 370.5q0 234 -130.5 371
t-340.5 137z" />
    <glyph glyph-name="Odieresis" unicode="&#xd6;" horiz-adv-x="1792" 
d="M694 1960q68 0 116 -47.5t48 -114.5t-48 -114.5t-116 -47.5t-115 47t-47 115t47 115t115 47zM1090 1960q67 0 114 -47t47 -115t-47 -115t-114 -47q-68 0 -115 47t-47 115t47 115t115 47zM897 1554q170 0 316.5 -56t252.5 -157t166 -249.5t60 -325.5q0 -236 -103.5 -416.5
t-283.5 -276.5t-408 -96q-230 0 -410.5 96t-283.5 276.5t-103 416.5q0 177 60 325.5t165.5 249.5t252.5 157t319 56zM897 1274q-214 0 -344.5 -136.5t-130.5 -371.5q0 -234 131 -371t344 -137q210 0 340.5 137.5t130.5 370.5q0 234 -130.5 371t-340.5 137z" />
    <glyph glyph-name="multiply" unicode="&#xd7;" horiz-adv-x="1124" 
d="M1034 1032l-274 -272l276 -277l-198 -198l-277 276l-274 -276l-199 198l277 277l-275 274l197 199l274 -277l275 275z" />
    <glyph glyph-name="Oslash" unicode="&#xd8;" horiz-adv-x="1777" 
d="M1595 1491l-120 -158q104 -105 160.5 -249.5t56.5 -317.5q0 -236 -103.5 -416.5t-283.5 -276.5t-408 -96q-213 0 -393 89l-127 -166l-195 147l125 164q-100 103 -153.5 244.5t-53.5 310.5q0 177 60 325.5t165.5 249.5t252.5 157t319 56q209 0 379 -81l125 163zM422 766
q0 -178 80 -303l592 774q-84 37 -197 37q-214 0 -344.5 -136.5t-130.5 -371.5zM897 258q210 0 340.5 137.5t130.5 370.5q0 187 -86 315l-598 -780q93 -43 213 -43z" />
    <glyph glyph-name="Ugrave" unicode="&#xd9;" horiz-adv-x="1591" 
d="M920 1628h-273l-397 316h407zM1448 1532v-909q0 -305 -174 -475.5t-477 -170.5q-306 0 -480 170t-174 476v909h316v-905q0 -180 86 -274.5t252 -94.5q163 0 249.5 94.5t86.5 274.5v905h315z" />
    <glyph glyph-name="Uacute" unicode="&#xda;" horiz-adv-x="1591" 
d="M930 1628h-273l263 316h407zM1448 1532v-909q0 -305 -174 -475.5t-477 -170.5q-306 0 -480 170t-174 476v909h316v-905q0 -180 86 -274.5t252 -94.5q163 0 249.5 94.5t86.5 274.5v905h315z" />
    <glyph glyph-name="Ucircumflex" unicode="&#xdb;" horiz-adv-x="1591" 
d="M1180 1628h-252l-131 154l-133 -154h-250l239 328h289zM1448 1532v-909q0 -305 -174 -475.5t-477 -170.5q-306 0 -480 170t-174 476v909h316v-905q0 -180 86 -274.5t252 -94.5q163 0 249.5 94.5t86.5 274.5v905h315z" />
    <glyph glyph-name="Udieresis" unicode="&#xdc;" horiz-adv-x="1591" 
d="M600 1960q68 0 116 -47.5t48 -114.5t-48 -114.5t-116 -47.5t-115 47t-47 115t47 115t115 47zM995 1960q67 0 114.5 -47t47.5 -115t-47.5 -115t-114.5 -47t-114 47t-47 115t47 115t114 47zM1448 1532v-909q0 -305 -174 -475.5t-477 -170.5q-306 0 -480 170t-174 476v909
h316v-905q0 -180 86 -274.5t252 -94.5q163 0 249.5 94.5t86.5 274.5v905h315z" />
    <glyph glyph-name="Yacute" unicode="&#xdd;" horiz-adv-x="1523" 
d="M897 1628h-272l262 316h407zM922 590v-590h-316v590l-581 942h366l371 -629l371 629h368z" />
    <glyph glyph-name="Thorn" unicode="&#xde;" horiz-adv-x="1343" 
d="M471 1337h322q223 0 359 -130.5t136 -360.5q0 -229 -136.5 -360.5t-358.5 -131.5h-322v-354h-317v1532h317v-195zM469 1057v-422h283q95 0 154 55.5t59 155.5t-59 155.5t-154 55.5h-283z" />
    <glyph glyph-name="germandbls" unicode="&#xdf;" horiz-adv-x="1349" 
d="M631 1608q224 0 357.5 -99t133.5 -262q0 -58 -18.5 -103.5t-44.5 -74t-52 -54t-44.5 -56.5t-18.5 -68q0 -32 17.5 -61t46 -53t62.5 -49.5t68 -57.5t62.5 -69t46 -91.5t17.5 -118.5q0 -128 -64 -221.5t-171 -139.5t-243 -46q-116 0 -219 39l58 237q69 -27 135 -27
q87 0 145 49t58 138q0 41 -17.5 78t-46 65.5t-62.5 56t-68 55.5t-62.5 57.5t-46 69t-17.5 83.5q0 53 18.5 93t44.5 64.5t52 45.5t44.5 48t18.5 60q0 75 -47.5 118.5t-136.5 43.5q-90 0 -141.5 -54.5t-51.5 -152.5v-1151h-299v1159q0 204 133 326.5t353 122.5z" />
    <glyph glyph-name="agrave" unicode="&#xe0;" horiz-adv-x="1140" 
d="M692 1225h-231l-279 391h340zM561 1079q214 0 327 -108.5t113 -317.5v-653h-288v86q-105 -109 -271 -109q-163 0 -257.5 81.5t-94.5 232.5q0 302 424 321l188 11v41q0 163 -137 163q-72 0 -109.5 -40.5t-37.5 -98.5l-299 12q0 70 31.5 137.5t87 121.5t140.5 87t183 33z
M702 426l-159 -10q-154 -7 -154 -111q0 -96 123 -96q85 0 137.5 45t52.5 127v45z" />
    <glyph glyph-name="aacute" unicode="&#xe1;" horiz-adv-x="1140" 
d="M696 1225h-233l174 391h336zM561 1079q214 0 327 -108.5t113 -317.5v-653h-288v86q-105 -109 -271 -109q-163 0 -257.5 81.5t-94.5 232.5q0 302 424 321l188 11v41q0 163 -137 163q-72 0 -109.5 -40.5t-37.5 -98.5l-299 12q0 70 31.5 137.5t87 121.5t140.5 87t183 33z
M702 426l-159 -10q-154 -7 -154 -111q0 -96 123 -96q85 0 137.5 45t52.5 127v45z" />
    <glyph glyph-name="acircumflex" unicode="&#xe2;" horiz-adv-x="1140" 
d="M969 1227h-250l-133 168l-133 -168h-250l237 362h289zM561 1079q214 0 327 -108.5t113 -317.5v-653h-288v86q-105 -109 -271 -109q-163 0 -257.5 81.5t-94.5 232.5q0 302 424 321l188 11v41q0 163 -137 163q-72 0 -109.5 -40.5t-37.5 -98.5l-299 12q0 70 31.5 137.5
t87 121.5t140.5 87t183 33zM702 426l-159 -10q-154 -7 -154 -111q0 -96 123 -96q85 0 137.5 45t52.5 127v45z" />
    <glyph glyph-name="atilde" unicode="&#xe3;" horiz-adv-x="1140" 
d="M430 1559q44 0 85 -17.5t67 -38t58.5 -38t61.5 -17.5q83 0 86 96h168q11 -129 -50.5 -224t-170.5 -95q-56 0 -105 27t-89.5 54t-75.5 27q-86 0 -86 -94h-168q-7 84 16.5 156.5t77 118t125.5 45.5zM561 1079q214 0 327 -108.5t113 -317.5v-653h-288v86
q-105 -109 -271 -109q-163 0 -257.5 81.5t-94.5 232.5q0 302 424 321l188 11v41q0 163 -137 163q-72 0 -109.5 -40.5t-37.5 -98.5l-299 12q0 70 31.5 137.5t87 121.5t140.5 87t183 33zM702 426l-159 -10q-154 -7 -154 -111q0 -96 123 -96q85 0 137.5 45t52.5 127v45z" />
    <glyph glyph-name="adieresis" unicode="&#xe4;" horiz-adv-x="1140" 
d="M385 1550q68 0 116 -46.5t48 -112.5q0 -68 -48 -115t-116 -47t-115 46.5t-47 115.5q0 66 47.5 112.5t114.5 46.5zM780 1550q67 0 114.5 -46.5t47.5 -112.5q0 -69 -47 -115.5t-115 -46.5t-115 46.5t-47 115.5q0 66 47.5 112.5t114.5 46.5zM561 1079q214 0 327 -108.5
t113 -317.5v-653h-288v86q-105 -109 -271 -109q-163 0 -257.5 81.5t-94.5 232.5q0 302 424 321l188 11v41q0 163 -137 163q-72 0 -109.5 -40.5t-37.5 -98.5l-299 12q0 70 31.5 137.5t87 121.5t140.5 87t183 33zM702 426l-159 -10q-154 -7 -154 -111q0 -96 123 -96
q85 0 137.5 45t52.5 127v45z" />
    <glyph glyph-name="aring" unicode="&#xe5;" horiz-adv-x="1140" 
d="M584 1686q113 0 190.5 -71t77.5 -179t-77.5 -179t-190.5 -71q-114 0 -191.5 71t-77.5 179t77.5 179t191.5 71zM584 1526q-42 0 -67 -25t-25 -65t25 -64t67 -24q41 0 65.5 24t24.5 64t-24.5 65t-65.5 25zM561 1079q214 0 327 -108.5t113 -317.5v-653h-288v86
q-105 -109 -271 -109q-163 0 -257.5 81.5t-94.5 232.5q0 302 424 321l188 11v41q0 163 -137 163q-72 0 -109.5 -40.5t-37.5 -98.5l-299 12q0 70 31.5 137.5t87 121.5t140.5 87t183 33zM702 426l-159 -10q-154 -7 -154 -111q0 -96 123 -96q85 0 137.5 45t52.5 127v45z" />
    <glyph glyph-name="ae" unicode="&#xe6;" horiz-adv-x="1841" 
d="M1751 434h-727q5 -99 63 -157t158 -58q77 0 127.5 30.5t67.5 86.5l301 -14q-29 -151 -166 -248t-324 -97q-254 0 -405 160q-153 -160 -379 -160q-175 0 -276 83.5t-101 234.5q0 298 424 317l188 11v39q0 76 -33.5 121.5t-105.5 45.5t-108.5 -41.5t-36.5 -99.5l-299 12
q0 70 30.5 137.5t85 121.5t138.5 87t182 33q215 0 328 -125q140 125 362 125q231 0 368.5 -140.5t137.5 -385.5v-119zM1241 846q-95 0 -153 -56.5t-64 -156.5h426q-5 100 -57.5 156.5t-151.5 56.5zM702 426l-159 -10q-154 -7 -154 -109q0 -94 123 -94q80 0 135 41.5
t55 126.5v45z" />
    <glyph glyph-name="ccedilla" unicode="&#xe7;" horiz-adv-x="1212" 
d="M633 236q87 0 143 46t68 126l291 -27q-29 -175 -154 -282.5t-305 -118.5l-19 -72q95 -6 162.5 -62.5t67.5 -150.5q0 -107 -84 -163t-203 -56q-127 0 -203 39l47 157q45 -28 113 -28q43 0 75 17t32 54q0 39 -31.5 57.5t-81.5 18.5q-41 0 -74 -10l66 203
q-203 29 -328 172.5t-125 371.5q0 256 151.5 403.5t391.5 147.5q197 0 335 -110t167 -299l-293 -25q-11 82 -67 130t-142 48q-107 0 -173.5 -78.5t-66.5 -216.5q0 -137 66.5 -214.5t173.5 -77.5z" />
    <glyph glyph-name="egrave" unicode="&#xe8;" horiz-adv-x="1224" 
d="M498 1225l-279 391h340l170 -391h-231zM1135 434h-727q5 -99 63 -157t158 -58q77 0 127 30.5t67 86.5l301 -14q-28 -151 -164.5 -248t-322.5 -97q-245 0 -396 149t-151 402t149.5 402t389.5 149q231 0 368.5 -140.5t137.5 -385.5v-119zM627 846q-96 0 -154.5 -56
t-64.5 -157h426q-5 100 -57 156.5t-150 56.5z" />
    <glyph glyph-name="eacute" unicode="&#xe9;" horiz-adv-x="1224" 
d="M735 1225h-233l174 391h336zM1135 434h-727q5 -99 63 -157t158 -58q77 0 127 30.5t67 86.5l301 -14q-28 -151 -164.5 -248t-322.5 -97q-245 0 -396 149t-151 402t149.5 402t389.5 149q231 0 368.5 -140.5t137.5 -385.5v-119zM627 846q-96 0 -154.5 -56t-64.5 -157h426
q-5 100 -57 156.5t-150 56.5z" />
    <glyph glyph-name="ecircumflex" unicode="&#xea;" horiz-adv-x="1224" 
d="M489 1227h-249l237 362h289l240 -362h-250l-133 168zM1135 434h-727q5 -99 63 -157t158 -58q77 0 127 30.5t67 86.5l301 -14q-28 -151 -164.5 -248t-322.5 -97q-245 0 -396 149t-151 402t149.5 402t389.5 149q231 0 368.5 -140.5t137.5 -385.5v-119zM627 846
q-96 0 -154.5 -56t-64.5 -157h426q-5 100 -57 156.5t-150 56.5z" />
    <glyph glyph-name="edieresis" unicode="&#xeb;" horiz-adv-x="1224" 
d="M422 1229q-68 0 -115 46.5t-47 115.5q0 66 47.5 112.5t114.5 46.5q68 0 116 -46.5t48 -112.5q0 -68 -48 -115t-116 -47zM817 1229q-68 0 -115 46.5t-47 115.5q0 66 47.5 112.5t114.5 46.5t114.5 -46.5t47.5 -112.5q0 -69 -47 -115.5t-115 -46.5zM1135 434h-727
q5 -99 63 -157t158 -58q77 0 127 30.5t67 86.5l301 -14q-28 -151 -164.5 -248t-322.5 -97q-245 0 -396 149t-151 402t149.5 402t389.5 149q231 0 368.5 -140.5t137.5 -385.5v-119zM627 846q-96 0 -154.5 -56t-64.5 -157h426q-5 100 -57 156.5t-150 56.5z" />
    <glyph glyph-name="igrave" unicode="&#xec;" horiz-adv-x="595" 
d="M412 1225h-232l-278 391h340zM446 0h-299v1059h299v-1059z" />
    <glyph glyph-name="iacute" unicode="&#xed;" horiz-adv-x="595" 
d="M416 1225h-234l174 391h336zM446 0h-299v1059h299v-1059z" />
    <glyph glyph-name="icircumflex" unicode="&#xee;" horiz-adv-x="595" 
d="M688 1227h-250l-133 168l-133 -168h-250l238 362h289zM446 0h-299v1059h299v-1059z" />
    <glyph glyph-name="idieresis" unicode="&#xef;" horiz-adv-x="595" 
d="M104 1550q68 0 116 -46.5t48 -112.5q0 -68 -48 -115t-116 -47t-114.5 46.5t-46.5 115.5q0 66 47 112.5t114 46.5zM500 1550q67 0 114.5 -46.5t47.5 -112.5q0 -69 -47 -115.5t-115 -46.5t-115 46.5t-47 115.5q0 66 47.5 112.5t114.5 46.5zM446 0h-299v1059h299v-1059z" />
    <glyph glyph-name="eth" unicode="&#xf0;" horiz-adv-x="1245" 
d="M1001 1513l-141 -133q145 -135 218 -347t73 -482q0 -273 -146.5 -423.5t-392.5 -150.5q-143 0 -260 58.5t-189.5 176t-72.5 275.5q0 152 72 267.5t189 174t259 58.5q108 0 201 -35q-46 162 -137 256l-146 -137l-135 133l119 111q-98 41 -244 47v229q246 0 434 -98
l160 149zM623 225q108 0 171.5 72.5t63.5 187.5q0 120 -62.5 190t-172.5 70q-106 0 -173 -71t-67 -189q0 -119 67.5 -189.5t172.5 -70.5z" />
    <glyph glyph-name="ntilde" unicode="&#xf1;" horiz-adv-x="1265" 
d="M502 1559q44 0 85 -17.5t67 -38t58.5 -38t61.5 -17.5q83 0 86 96h168q11 -129 -50.5 -224t-170.5 -95q-56 0 -105 27t-89.5 54t-75.5 27q-86 0 -86 -94h-168q-7 84 16.5 156.5t77 118t125.5 45.5zM715 1079q186 0 299.5 -115t113.5 -317v-647h-299v590q0 100 -49.5 155.5
t-136.5 55.5q-89 0 -143 -58.5t-54 -154.5v-588h-299v1059h283v-109q37 59 109.5 94t175.5 35z" />
    <glyph glyph-name="ograve" unicode="&#xf2;" horiz-adv-x="1306" 
d="M758 1225h-232l-278 391h340zM653 1079q246 0 405 -152t159 -399q0 -246 -159 -398.5t-405 -152.5t-404.5 152.5t-158.5 398.5q0 164 73 290t201 193.5t289 67.5zM653 823q-117 0 -188.5 -79t-71.5 -216q0 -136 71.5 -214t188.5 -78t188.5 78t71.5 214q0 137 -71.5 216
t-188.5 79z" />
    <glyph glyph-name="oacute" unicode="&#xf3;" horiz-adv-x="1306" 
d="M764 1225h-234l175 391h335zM653 1079q246 0 405 -152t159 -399q0 -246 -159 -398.5t-405 -152.5t-404.5 152.5t-158.5 398.5q0 164 73 290t201 193.5t289 67.5zM653 823q-117 0 -188.5 -79t-71.5 -216q0 -136 71.5 -214t188.5 -78t188.5 78t71.5 214q0 137 -71.5 216
t-188.5 79z" />
    <glyph glyph-name="ocircumflex" unicode="&#xf4;" horiz-adv-x="1306" 
d="M1034 1227h-250l-133 168l-133 -168h-250l238 362h289zM653 1079q246 0 405 -152t159 -399q0 -246 -159 -398.5t-405 -152.5t-404.5 152.5t-158.5 398.5q0 164 73 290t201 193.5t289 67.5zM653 823q-117 0 -188.5 -79t-71.5 -216q0 -136 71.5 -214t188.5 -78t188.5 78
t71.5 214q0 137 -71.5 216t-188.5 79z" />
    <glyph glyph-name="otilde" unicode="&#xf5;" horiz-adv-x="1306" 
d="M496 1559q44 0 85 -17.5t67 -38t58.5 -38t61.5 -17.5q83 0 86 96h168q11 -129 -50.5 -224t-170.5 -95q-44 0 -85.5 17t-67 37t-58 37t-60.5 17q-86 0 -86 -94h-168q-7 84 16.5 156.5t77.5 118t126 45.5zM653 1079q246 0 405 -152t159 -399q0 -246 -159 -398.5
t-405 -152.5t-404.5 152.5t-158.5 398.5q0 164 73 290t201 193.5t289 67.5zM653 823q-117 0 -188.5 -79t-71.5 -216q0 -136 71.5 -214t188.5 -78t188.5 78t71.5 214q0 137 -71.5 216t-188.5 79z" />
    <glyph glyph-name="odieresis" unicode="&#xf6;" horiz-adv-x="1306" 
d="M451 1550q68 0 115.5 -46.5t47.5 -112.5q0 -69 -47.5 -115.5t-115.5 -46.5t-115 46.5t-47 115.5q0 66 47.5 112.5t114.5 46.5zM846 1550q67 0 114.5 -46.5t47.5 -112.5q0 -69 -47 -115.5t-115 -46.5t-115 46.5t-47 115.5q0 66 47.5 112.5t114.5 46.5zM653 1079
q246 0 405 -152t159 -399q0 -246 -159 -398.5t-405 -152.5t-404.5 152.5t-158.5 398.5q0 164 73 290t201 193.5t289 67.5zM653 823q-117 0 -188.5 -79t-71.5 -216q0 -136 71.5 -214t188.5 -78t188.5 78t71.5 214q0 137 -71.5 216t-188.5 79z" />
    <glyph glyph-name="divide" unicode="&#xf7;" horiz-adv-x="1122" 
d="M561 1438q75 0 128.5 -54t53.5 -129t-53.5 -126.5t-128.5 -51.5t-127.5 51.5t-52.5 126.5t52.5 129t127.5 54zM1059 621h-996v280h996v-280zM561 446q75 0 128.5 -52.5t53.5 -127.5t-53.5 -128.5t-128.5 -53.5t-127.5 53.5t-52.5 128.5t52.5 127.5t127.5 52.5z" />
    <glyph glyph-name="oslash" unicode="&#xf8;" horiz-adv-x="1306" 
d="M1147 1008l-74 -97q144 -150 144 -383q0 -246 -159 -398.5t-405 -152.5q-135 0 -247 50l-91 -121l-163 121l86 114q-148 154 -148 387q0 164 73 290t201 193.5t289 67.5q137 0 254 -51l76 102zM393 528q0 -76 27 -145l321 426q-38 14 -88 14q-117 0 -188.5 -79
t-71.5 -216zM653 236q117 0 188.5 78t71.5 214q0 77 -22 138l-318 -420q42 -10 80 -10z" />
    <glyph glyph-name="ugrave" unicode="&#xf9;" 
d="M725 1225h-231l-279 391h340zM1085 0h-282v106q-80 -129 -275 -129q-183 0 -287 111t-104 305v666h299v-602q0 -201 170 -201q84 0 132 57t48 148v598h299v-1059z" />
    <glyph glyph-name="uacute" unicode="&#xfa;" 
d="M731 1225h-233l174 391h336zM1085 0h-282v106q-80 -129 -275 -129q-183 0 -287 111t-104 305v666h299v-602q0 -201 170 -201q84 0 132 57t48 148v598h299v-1059z" />
    <glyph glyph-name="ucircumflex" unicode="&#xfb;" 
d="M1001 1227h-249l-134 168l-133 -168h-249l237 362h289zM1085 0h-282v106q-80 -129 -275 -129q-183 0 -287 111t-104 305v666h299v-602q0 -201 170 -201q84 0 132 57t48 148v598h299v-1059z" />
    <glyph glyph-name="udieresis" unicode="&#xfc;" 
d="M418 1550q68 0 116 -46.5t48 -112.5q0 -68 -48 -115t-116 -47t-115 46.5t-47 115.5q0 66 47.5 112.5t114.5 46.5zM813 1550q67 0 114.5 -46.5t47.5 -112.5q0 -69 -47 -115.5t-115 -46.5t-115 46.5t-47 115.5q0 66 47.5 112.5t114.5 46.5zM1085 0h-282v106
q-80 -129 -275 -129q-183 0 -287 111t-104 305v666h299v-602q0 -201 170 -201q84 0 132 57t48 148v598h299v-1059z" />
    <glyph glyph-name="yacute" unicode="&#xfd;" horiz-adv-x="1173" 
d="M698 1225h-233l174 391h336zM483 -522h-325l270 616l-414 965h330l244 -631l241 631h332z" />
    <glyph glyph-name="thorn" unicode="&#xfe;" horiz-adv-x="1345" 
d="M446 1591v-624q43 50 121.5 81t175.5 31q227 0 369.5 -151.5t142.5 -399.5t-142.5 -399.5t-369.5 -151.5q-96 0 -174.5 32t-122.5 81v-612h-299v2113h299zM696 823q-112 0 -181 -72t-69 -198v-49q0 -126 69 -198.5t181 -72.5q115 0 185.5 78.5t70.5 216.5t-70.5 216.5
t-185.5 78.5z" />
    <glyph glyph-name="ydieresis" unicode="&#xff;" horiz-adv-x="1173" 
d="M387 1550q68 0 116 -46.5t48 -112.5q0 -68 -48 -115t-116 -47t-115 46.5t-47 115.5q0 66 47.5 112.5t114.5 46.5zM782 1550q67 0 114.5 -46.5t47.5 -112.5q0 -69 -47 -115.5t-115 -46.5t-114.5 46.5t-46.5 115.5q0 66 47 112.5t114 46.5zM483 -522h-325l270 616l-414 965
h330l244 -631l241 631h332z" />
    <glyph glyph-name="Amacron" unicode="&#x100;" horiz-adv-x="1615" 
d="M1116 1669h-614v227h614v-227zM1599 0h-348l-125 295h-637l-127 -295h-346l658 1532h266zM602 553h414l-207 489z" />
    <glyph glyph-name="amacron" unicode="&#x101;" horiz-adv-x="1140" 
d="M891 1268h-615v229h615v-229zM561 1079q214 0 327 -108.5t113 -317.5v-653h-288v86q-105 -109 -271 -109q-163 0 -257.5 81.5t-94.5 232.5q0 302 424 321l188 11v41q0 163 -137 163q-72 0 -109.5 -40.5t-37.5 -98.5l-299 12q0 70 31.5 137.5t87 121.5t140.5 87t183 33z
M702 426l-159 -10q-154 -7 -154 -111q0 -96 123 -96q85 0 137.5 45t52.5 127v45z" />
    <glyph glyph-name="Abreve" unicode="&#x102;" horiz-adv-x="1615" 
d="M946 1968h242q0 -165 -104 -251.5t-277 -86.5q-172 0 -275.5 86.5t-103.5 251.5h242q0 -61 37.5 -96t99.5 -35q64 0 101.5 35t37.5 96zM1599 0h-348l-125 295h-637l-127 -295h-346l658 1532h266zM602 553h414l-207 489z" />
    <glyph glyph-name="abreve" unicode="&#x103;" horiz-adv-x="1140" 
d="M723 1552h242q0 -165 -104 -251.5t-277 -86.5q-172 0 -275.5 86.5t-103.5 251.5h241q0 -61 38 -97t100 -36q63 0 101 36t38 97zM561 1079q214 0 327 -108.5t113 -317.5v-653h-288v86q-105 -109 -271 -109q-163 0 -257.5 81.5t-94.5 232.5q0 302 424 321l188 11v41
q0 163 -137 163q-72 0 -109.5 -40.5t-37.5 -98.5l-299 12q0 70 31.5 137.5t87 121.5t140.5 87t183 33zM702 426l-159 -10q-154 -7 -154 -111q0 -96 123 -96q85 0 137.5 45t52.5 127v45z" />
    <glyph glyph-name="Aogonek" unicode="&#x104;" horiz-adv-x="1615" 
d="M1360 -236q54 0 102 25l27 -145q-79 -37 -178 -37q-114 0 -186 49t-72 145q0 138 190 219l-117 275h-637l-127 -295h-346l658 1532h266l659 -1532h-174q-80 -45 -114.5 -79t-34.5 -83q0 -35 22.5 -54.5t61.5 -19.5zM1016 553l-207 489l-207 -489h414z" />
    <glyph glyph-name="aogonek" unicode="&#x105;" horiz-adv-x="1140" 
d="M1001 0h-69q-76 -43 -111 -78t-35 -82q0 -35 22.5 -54t61.5 -19q56 0 103 24l26 -145q-79 -37 -178 -37q-114 0 -186 49t-72 145q0 124 150 201v82q-105 -109 -271 -109q-163 0 -257.5 81.5t-94.5 232.5q0 302 424 321l188 11v41q0 163 -137 163q-72 0 -109.5 -40.5
t-37.5 -98.5l-299 12q0 70 31.5 137.5t87 121.5t140.5 87t183 33q214 0 327 -108.5t113 -317.5v-653zM702 426l-159 -10q-154 -7 -154 -111q0 -96 123 -96q85 0 137.5 45t52.5 127v45z" />
    <glyph glyph-name="Cacute" unicode="&#x106;" horiz-adv-x="1691" 
d="M995 1628h-272l262 316h408zM879 1554q283 0 484.5 -158t242.5 -425l-330 -29q-32 161 -139.5 246.5t-268.5 85.5q-202 0 -324 -138t-122 -370q0 -122 34.5 -219t95 -160t142 -96t176.5 -33q160 0 268 84.5t138 241.5l332 -29q-44 -265 -244.5 -421.5t-482.5 -156.5
q-225 0 -401 93t-278 273.5t-102 422.5q0 243 101.5 423t277 272.5t400.5 92.5z" />
    <glyph glyph-name="cacute" unicode="&#x107;" horiz-adv-x="1212" 
d="M731 1225h-233l174 391h336zM633 1079q197 0 335 -110t167 -299l-293 -25q-11 82 -67 130t-142 48q-107 0 -173.5 -78.5t-66.5 -216.5q0 -137 66.5 -214.5t173.5 -77.5q87 0 143 46t68 126l291 -27q-30 -186 -167.5 -295t-334.5 -109q-239 0 -391 148.5t-152 402.5
q0 256 151.5 403.5t391.5 147.5z" />
    <glyph glyph-name="Ccircumflex" unicode="&#x108;" horiz-adv-x="1691" 
d="M1245 1628h-252l-131 154l-133 -154h-250l240 328h289zM879 1554q283 0 484.5 -158t242.5 -425l-330 -29q-32 161 -139.5 246.5t-268.5 85.5q-202 0 -324 -138t-122 -370q0 -122 34.5 -219t95 -160t142 -96t176.5 -33q160 0 268 84.5t138 241.5l332 -29
q-44 -265 -244.5 -421.5t-482.5 -156.5q-225 0 -401 93t-278 273.5t-102 422.5q0 243 101.5 423t277 272.5t400.5 92.5z" />
    <glyph glyph-name="ccircumflex" unicode="&#x109;" horiz-adv-x="1212" 
d="M1004 1227h-250l-133 168l-134 -168h-249l237 362h289zM633 1079q197 0 335 -110t167 -299l-293 -25q-11 82 -67 130t-142 48q-107 0 -173.5 -78.5t-66.5 -216.5q0 -137 66.5 -214.5t173.5 -77.5q87 0 143 46t68 126l291 -27q-30 -186 -167.5 -295t-334.5 -109
q-239 0 -391 148.5t-152 402.5q0 256 151.5 403.5t391.5 147.5z" />
    <glyph glyph-name="Cdotaccent" unicode="&#x10a;" horiz-adv-x="1691" 
d="M862 1993q75 0 127.5 -53t52.5 -128t-52.5 -126.5t-127.5 -51.5q-74 0 -126 51.5t-52 126.5t53 128t125 53zM879 1554q283 0 484.5 -158t242.5 -425l-330 -29q-32 161 -139.5 246.5t-268.5 85.5q-202 0 -324 -138t-122 -370q0 -122 34.5 -219t95 -160t142 -96t176.5 -33
q160 0 268 84.5t138 241.5l332 -29q-44 -265 -244.5 -421.5t-482.5 -156.5q-225 0 -401 93t-278 273.5t-102 422.5q0 243 101.5 423t277 272.5t400.5 92.5z" />
    <glyph glyph-name="cdotaccent" unicode="&#x10b;" horiz-adv-x="1212" 
d="M618 1577q75 0 128 -53t53 -127q0 -75 -53 -127.5t-128 -52.5q-74 0 -126 52.5t-52 127.5q0 73 53 126.5t125 53.5zM633 1079q197 0 335 -110t167 -299l-293 -25q-11 82 -67 130t-142 48q-107 0 -173.5 -78.5t-66.5 -216.5q0 -137 66.5 -214.5t173.5 -77.5q87 0 143 46
t68 126l291 -27q-30 -186 -167.5 -295t-334.5 -109q-239 0 -391 148.5t-152 402.5q0 256 151.5 403.5t391.5 147.5z" />
    <glyph glyph-name="Ccaron" unicode="&#x10c;" horiz-adv-x="1691" 
d="M1008 1628h-289l-240 328h250l133 -154l131 154h252zM879 1554q283 0 484.5 -158t242.5 -425l-330 -29q-32 161 -139.5 246.5t-268.5 85.5q-202 0 -324 -138t-122 -370q0 -122 34.5 -219t95 -160t142 -96t176.5 -33q160 0 268 84.5t138 241.5l332 -29
q-44 -265 -244.5 -421.5t-482.5 -156.5q-225 0 -401 93t-278 273.5t-102 422.5q0 243 101.5 423t277 272.5t400.5 92.5z" />
    <glyph glyph-name="ccaron" unicode="&#x10d;" horiz-adv-x="1212" 
d="M764 1223h-289l-237 360h249l134 -168l133 168h250zM633 1079q197 0 335 -110t167 -299l-293 -25q-11 82 -67 130t-142 48q-107 0 -173.5 -78.5t-66.5 -216.5q0 -137 66.5 -214.5t173.5 -77.5q87 0 143 46t68 126l291 -27q-30 -186 -167.5 -295t-334.5 -109
q-239 0 -391 148.5t-152 402.5q0 256 151.5 403.5t391.5 147.5z" />
    <glyph glyph-name="Dcaron" unicode="&#x10e;" horiz-adv-x="1644" 
d="M858 1628h-289l-239 328h250l133 -154l131 154h252zM154 1532h630q219 0 390 -90t270.5 -265.5t99.5 -410.5t-100 -410.5t-271.5 -265.5t-390.5 -90h-628v1532zM469 1262v-992h317q205 0 325 127t120 369t-119.5 369t-325.5 127h-317z" />
    <glyph glyph-name="dcaron" unicode="&#x10f;" horiz-adv-x="1671" 
d="M899 1591h297v-1591h-281v109q-44 -58 -126 -95t-189 -37q-226 0 -368 152t-142 399q0 249 142 400t368 151q99 0 177.5 -31t121.5 -81v624zM1468 1589q78 0 123 -55.5t45 -144.5q0 -309 -313 -469v124q107 67 137 185q-71 5 -119.5 55.5t-48.5 122.5q0 76 50 129t126 53
zM899 506v47q0 126 -69 198t-181 72q-115 0 -185.5 -78.5t-70.5 -216.5t70.5 -215t185.5 -77q112 0 181 71.5t69 198.5z" />
    <glyph glyph-name="Dcroat" unicode="&#x110;" horiz-adv-x="1648" 
d="M190 1532h629q164 0 304 -52.5t241.5 -149.5t159 -242t57.5 -322t-58 -322t-160 -242t-242 -149.5t-304 -52.5h-627v645h-174v240h174v647zM506 270h315q206 0 325.5 127t119.5 369t-119 369t-326 127h-315v-377h223v-240h-223v-375z" />
    <glyph glyph-name="dcroat" unicode="&#x111;" horiz-adv-x="1341" 
d="M1339 1221h-143v-1221h-281v109q-44 -58 -126 -95t-189 -37q-226 0 -368 152t-142 399q0 249 142 400t368 151q99 0 177.5 -31t121.5 -81v254h-172v229h172v141h297v-141h143v-229zM899 506v47q0 126 -69 198t-181 72q-115 0 -185.5 -78.5t-70.5 -216.5t70.5 -215
t185.5 -77q112 0 181 71.5t69 198.5z" />
    <glyph glyph-name="Emacron" unicode="&#x112;" 
d="M961 1669h-615v227h615v-227zM1137 1253h-666v-331h578v-273h-578v-368h668v-281h-985v1532h983v-279z" />
    <glyph glyph-name="emacron" unicode="&#x113;" horiz-adv-x="1224" 
d="M930 1268h-615v229h615v-229zM1135 434h-727q5 -99 63 -157t158 -58q77 0 127 30.5t67 86.5l301 -14q-28 -151 -164.5 -248t-322.5 -97q-245 0 -396 149t-151 402t149.5 402t389.5 149q231 0 368.5 -140.5t137.5 -385.5v-119zM627 846q-96 0 -154.5 -56t-64.5 -157h426
q-5 100 -57 156.5t-150 56.5z" />
    <glyph glyph-name="Ebreve" unicode="&#x114;" 
d="M793 1968h241q0 -165 -104 -251.5t-277 -86.5q-172 0 -275.5 86.5t-103.5 251.5h242q0 -61 37.5 -96t99.5 -35q64 0 102 35t38 96zM1137 1253h-666v-331h578v-273h-578v-368h668v-281h-985v1532h983v-279z" />
    <glyph glyph-name="ebreve" unicode="&#x115;" horiz-adv-x="1224" 
d="M621 1214q-172 0 -275.5 86.5t-103.5 251.5h241q0 -61 38 -97t100 -36q63 0 101 36t38 97h241q0 -165 -103.5 -251.5t-276.5 -86.5zM1135 434h-727q5 -99 63 -157t158 -58q77 0 127 30.5t67 86.5l301 -14q-28 -151 -164.5 -248t-322.5 -97q-245 0 -396 149t-151 402
t149.5 402t389.5 149q231 0 368.5 -140.5t137.5 -385.5v-119zM627 846q-96 0 -154.5 -56t-64.5 -157h426q-5 100 -57 156.5t-150 56.5z" />
    <glyph glyph-name="Edotaccent" unicode="&#x116;" 
d="M653 1993q75 0 128 -53t53 -128t-53 -126.5t-128 -51.5q-74 0 -126 51.5t-52 126.5t53 128t125 53zM1137 1253h-666v-331h578v-273h-578v-368h668v-281h-985v1532h983v-279z" />
    <glyph glyph-name="edotaccent" unicode="&#x117;" horiz-adv-x="1224" 
d="M623 1217q-74 0 -126.5 52.5t-52.5 127.5q0 73 53.5 126.5t125.5 53.5q75 0 127.5 -53t52.5 -127q0 -75 -52.5 -127.5t-127.5 -52.5zM1135 434h-727q5 -99 63 -157t158 -58q77 0 127 30.5t67 86.5l301 -14q-28 -151 -164.5 -248t-322.5 -97q-245 0 -396 149t-151 402
t149.5 402t389.5 149q231 0 368.5 -140.5t137.5 -385.5v-119zM627 846q-96 0 -154.5 -56t-64.5 -157h426q-5 100 -57 156.5t-150 56.5z" />
    <glyph glyph-name="Eogonek" unicode="&#x118;" 
d="M1165 -211l27 -145q-79 -37 -178 -37q-114 0 -186 49t-72 145q0 122 145 199h-747v1532h983v-279h-666v-331h578v-273h-578v-368h668v-281h-11q-80 -45 -114.5 -79t-34.5 -83q0 -35 22.5 -54.5t61.5 -19.5q54 0 102 25z" />
    <glyph glyph-name="eogonek" unicode="&#x119;" horiz-adv-x="1224" 
d="M1135 434h-727q5 -99 63 -157t158 -58q77 0 127 30.5t67 86.5l301 -14q-22 -119 -115 -207.5t-229 -120.5q-72 -40 -105.5 -74.5t-33.5 -81.5q0 -35 22.5 -54.5t61.5 -19.5q54 0 102 25l27 -145q-79 -37 -178 -37q-114 0 -186 49t-72 145q0 114 119 183
q-204 31 -325.5 175.5t-121.5 368.5q0 253 149.5 402t389.5 149q231 0 368.5 -140.5t137.5 -385.5v-119zM627 846q-96 0 -154.5 -56t-64.5 -157h426q-5 100 -57 156.5t-150 56.5z" />
    <glyph glyph-name="Ecaron" unicode="&#x11a;" 
d="M799 1628h-289l-240 328h250l133 -154l131 154h252zM1137 1253h-666v-331h578v-273h-578v-368h668v-281h-985v1532h983v-279z" />
    <glyph glyph-name="ecaron" unicode="&#x11b;" horiz-adv-x="1224" 
d="M477 1223l-237 360h249l134 -168l133 168h250l-240 -360h-289zM1135 434h-727q5 -99 63 -157t158 -58q77 0 127 30.5t67 86.5l301 -14q-28 -151 -164.5 -248t-322.5 -97q-245 0 -396 149t-151 402t149.5 402t389.5 149q231 0 368.5 -140.5t137.5 -385.5v-119zM627 846
q-96 0 -154.5 -56t-64.5 -157h426q-5 100 -57 156.5t-150 56.5z" />
    <glyph glyph-name="Gcircumflex" unicode="&#x11c;" horiz-adv-x="1708" 
d="M731 1628h-250l240 328h289l237 -328h-252l-131 154zM1608 836v-103q0 -225 -88 -396t-253.5 -265.5t-387.5 -94.5q-167 0 -310 54.5t-247 154t-163 249t-59 331.5q0 243 101.5 423t276.5 272.5t399 92.5q269 0 462 -138.5t254 -387.5l-327 -55q-33 141 -135 221t-257 80
q-211 0 -331.5 -129.5t-120.5 -378.5t121 -378.5t331 -129.5q148 0 251 73.5t137 225.5h-385v279h731z" />
    <glyph glyph-name="gcircumflex" unicode="&#x11d;" horiz-adv-x="1327" 
d="M1034 1227h-250l-133 168l-133 -168h-250l238 362h289zM600 1079q108 0 189.5 -36t125.5 -95v111h281v-1098q0 -229 -145 -366.5t-389 -137.5q-241 0 -377.5 109.5t-167.5 298.5l297 10q11 -77 73.5 -120.5t163.5 -43.5q114 0 181 58.5t67 169.5v151q-46 -49 -124 -81
t-175 -32q-226 0 -368 152t-142 399t142 399t368 152zM649 823q-115 0 -185.5 -78.5t-70.5 -216.5t70.5 -216.5t185.5 -78.5q112 0 181 72.5t69 198.5v49q0 126 -69 198t-181 72z" />
    <glyph glyph-name="Gbreve" unicode="&#x11e;" horiz-adv-x="1708" 
d="M864 1630q-172 0 -275.5 86.5t-103.5 251.5h242q0 -61 37.5 -96t99.5 -35q64 0 102 35t38 96h241q0 -165 -104 -251.5t-277 -86.5zM1608 836v-103q0 -225 -88 -396t-253.5 -265.5t-387.5 -94.5q-167 0 -310 54.5t-247 154t-163 249t-59 331.5q0 243 101.5 423
t276.5 272.5t399 92.5q269 0 462 -138.5t254 -387.5l-327 -55q-33 141 -135 221t-257 80q-211 0 -331.5 -129.5t-120.5 -378.5t121 -378.5t331 -129.5q148 0 251 73.5t137 225.5h-385v279h731z" />
    <glyph glyph-name="gbreve" unicode="&#x11f;" horiz-adv-x="1327" 
d="M788 1552h242q0 -165 -104 -251.5t-277 -86.5q-172 0 -275.5 86.5t-103.5 251.5h242q0 -61 37.5 -97t99.5 -36q63 0 101 36t38 97zM600 1079q108 0 189.5 -36t125.5 -95v111h281v-1098q0 -229 -145 -366.5t-389 -137.5q-241 0 -377.5 109.5t-167.5 298.5l297 10
q11 -77 73.5 -120.5t163.5 -43.5q114 0 181 58.5t67 169.5v151q-46 -49 -124 -81t-175 -32q-226 0 -368 152t-142 399t142 399t368 152zM649 823q-115 0 -185.5 -78.5t-70.5 -216.5t70.5 -216.5t185.5 -78.5q112 0 181 72.5t69 198.5v49q0 126 -69 198t-181 72z" />
    <glyph glyph-name="Gdotaccent" unicode="&#x120;" horiz-adv-x="1708" 
d="M864 1634q-74 0 -126 51.5t-52 126.5t53 128t125 53q75 0 127.5 -53t52.5 -128t-52.5 -126.5t-127.5 -51.5zM1608 836v-103q0 -225 -88 -396t-253.5 -265.5t-387.5 -94.5q-167 0 -310 54.5t-247 154t-163 249t-59 331.5q0 243 101.5 423t276.5 272.5t399 92.5
q269 0 462 -138.5t254 -387.5l-327 -55q-33 141 -135 221t-257 80q-211 0 -331.5 -129.5t-120.5 -378.5t121 -378.5t331 -129.5q148 0 251 73.5t137 225.5h-385v279h731z" />
    <glyph glyph-name="gdotaccent" unicode="&#x121;" horiz-adv-x="1327" 
d="M651 1577q75 0 127.5 -53t52.5 -127q0 -75 -52.5 -127.5t-127.5 -52.5q-74 0 -126 52.5t-52 127.5q0 73 53 126.5t125 53.5zM600 1079q108 0 189.5 -36t125.5 -95v111h281v-1098q0 -229 -145 -366.5t-389 -137.5q-241 0 -377.5 109.5t-167.5 298.5l297 10
q11 -77 73.5 -120.5t163.5 -43.5q114 0 181 58.5t67 169.5v151q-46 -49 -124 -81t-175 -32q-226 0 -368 152t-142 399t142 399t368 152zM649 823q-115 0 -185.5 -78.5t-70.5 -216.5t70.5 -216.5t185.5 -78.5q112 0 181 72.5t69 198.5v49q0 126 -69 198t-181 72z" />
    <glyph glyph-name="Gcommaaccent" unicode="&#x122;" horiz-adv-x="1708" 
d="M1608 836v-103q0 -225 -88 -396t-253.5 -265.5t-387.5 -94.5q-167 0 -310 54.5t-247 154t-163 249t-59 331.5q0 243 101.5 423t276.5 272.5t399 92.5q269 0 462 -138.5t254 -387.5l-327 -55q-33 141 -135 221t-257 80q-211 0 -331.5 -129.5t-120.5 -378.5t121 -378.5
t331 -129.5q148 0 251 73.5t137 225.5h-385v279h731zM868 -98q78 0 123 -55.5t45 -145.5q0 -309 -313 -469v125q107 67 137 184q-71 5 -119.5 55.5t-48.5 122.5q0 76 50.5 129.5t125.5 53.5z" />
    <glyph glyph-name="gcommaaccent" unicode="&#x123;" horiz-adv-x="1327" 
d="M670 1483q-71 5 -119.5 55.5t-48.5 122.5q0 76 50 129t126 53q78 0 123 -55.5t45 -145.5q0 -307 -314 -468v124q108 67 138 185zM1196 1059v-1098q0 -229 -145 -366.5t-389 -137.5q-241 0 -377.5 109.5t-167.5 298.5l297 10q11 -77 73.5 -120.5t163.5 -43.5
q114 0 181 58.5t67 169.5v151q-46 -49 -124 -81t-175 -32q-226 0 -368 152t-142 399t142 399t368 152q108 0 189.5 -36t125.5 -95v111h281zM899 504v49q0 126 -69 198t-181 72q-115 0 -185.5 -78.5t-70.5 -216.5t70.5 -216.5t185.5 -78.5q112 0 181 72.5t69 198.5z" />
    <glyph glyph-name="Hcircumflex" unicode="&#x124;" horiz-adv-x="1560" 
d="M1165 1628h-252l-131 154l-133 -154h-250l240 328h289zM1407 0h-315v645h-621v-645h-317v1532h317v-606h621v606h315v-1532z" />
    <glyph glyph-name="hcircumflex" unicode="&#x125;" horiz-adv-x="1261" 
d="M684 1640h-250l-131 156l-133 -156h-250l238 328h288zM446 1591v-622q87 110 269 110q186 0 299.5 -115t113.5 -317v-647h-299v590q0 100 -49.5 155.5t-136.5 55.5q-89 0 -143 -58.5t-54 -154.5v-588h-299v1591h299z" />
    <glyph glyph-name="Hbar" unicode="&#x126;" horiz-adv-x="1595" 
d="M1577 1104h-154v-1104h-315v645h-621v-645h-315v1104h-154v239h154v189h315v-189h621v189h315v-189h154v-239zM1108 1104h-621v-178h621v178z" />
    <glyph glyph-name="hbar" unicode="&#x127;" horiz-adv-x="1261" 
d="M715 1079q186 0 299.5 -115t113.5 -317v-647h-299v590q0 100 -49.5 155.5t-136.5 55.5q-89 0 -143 -58.5t-54 -154.5v-588h-299v1221h-141v229h141v141h299v-141h175v-229h-175v-252q87 110 269 110z" />
    <glyph glyph-name="Itilde" unicode="&#x128;" horiz-adv-x="624" 
d="M168 1964q44 0 85 -17t67 -37.5t58.5 -37.5t61.5 -17q83 0 86 95h168q11 -129 -50.5 -223.5t-170.5 -94.5q-44 0 -85 17t-67 37.5t-58 37.5t-60 17q-86 0 -86 -94h-168q-11 129 49.5 223t169.5 94zM471 0h-317v1532h317v-1532z" />
    <glyph glyph-name="itilde" unicode="&#x129;" horiz-adv-x="595" 
d="M150 1559q44 0 85 -17.5t67 -38t58.5 -38t61.5 -17.5q83 0 86 96h168q11 -129 -50.5 -224t-170.5 -95q-44 0 -85.5 17t-67 37t-58 37t-60.5 17q-86 0 -86 -94h-168q-7 84 16.5 156.5t77.5 118t126 45.5zM446 0h-299v1059h299v-1059z" />
    <glyph glyph-name="Imacron" unicode="&#x12a;" horiz-adv-x="624" 
d="M629 1669h-615v227h615v-227zM471 0h-317v1532h317v-1532z" />
    <glyph glyph-name="imacron" unicode="&#x12b;" horiz-adv-x="595" 
d="M610 1268h-614v229h614v-229zM446 0h-299v1059h299v-1059z" />
    <glyph glyph-name="Ibreve" unicode="&#x12c;" horiz-adv-x="624" 
d="M459 1968h241q0 -165 -104 -251.5t-277 -86.5q-172 0 -275 86.5t-103 251.5h241q0 -61 37.5 -96t99.5 -35q64 0 102 35t38 96zM471 0h-317v1532h317v-1532z" />
    <glyph glyph-name="ibreve" unicode="&#x12d;" horiz-adv-x="595" 
d="M442 1552h242q0 -165 -104 -251.5t-277 -86.5q-172 0 -275.5 86.5t-103.5 251.5h242q0 -61 37.5 -97t99.5 -36q63 0 101 36t38 97zM446 0h-299v1059h299v-1059z" />
    <glyph glyph-name="Iogonek" unicode="&#x12e;" horiz-adv-x="624" 
d="M471 0h-129q-76 -43 -110.5 -78t-34.5 -82q0 -35 22.5 -54t61.5 -19q55 0 102 24l27 -145q-79 -37 -179 -37q-114 0 -186 49t-72 145q0 134 181 215v1514h317v-1532z" />
    <glyph glyph-name="iogonek" unicode="&#x12f;" horiz-adv-x="595" 
d="M303 1217q-74 0 -126 52.5t-52 127.5q0 73 53 126.5t125 53.5q75 0 127.5 -53t52.5 -127q0 -75 -52.5 -127.5t-127.5 -52.5zM147 1059h299v-1059h-77q-76 -43 -111 -78t-35 -82q0 -35 22.5 -54t61.5 -19q57 0 103 24l26 -145q-79 -37 -178 -37q-114 0 -186 49t-72 145
q0 125 147 199v1057z" />
    <glyph glyph-name="Idotaccent" unicode="&#x130;" horiz-adv-x="624" 
d="M322 1993q75 0 127.5 -53t52.5 -128t-52.5 -126.5t-127.5 -51.5q-74 0 -126.5 51.5t-52.5 126.5q0 74 53.5 127.5t125.5 53.5zM471 0h-317v1532h317v-1532z" />
    <glyph glyph-name="dotlessi" unicode="&#x131;" horiz-adv-x="595" 
d="M446 0h-299v1059h299v-1059z" />
    <glyph glyph-name="Jcircumflex" unicode="&#x134;" horiz-adv-x="1257" 
d="M1356 1628h-252l-131 154l-133 -154h-250l239 328h289zM1114 1532v-985q0 -268 -143.5 -419t-395.5 -151q-237 0 -381 137t-157 380l317 51q8 -136 66 -211.5t158 -75.5q108 0 164.5 71t56.5 208v995h315z" />
    <glyph glyph-name="jcircumflex" unicode="&#x135;" horiz-adv-x="595" 
d="M678 1227h-250l-133 168l-133 -168h-250l238 362h288zM449 1059v-1163q0 -219 -110.5 -329t-293.5 -110q-156 0 -262 70l119 244q18 -16 30 -24.5t34.5 -17t47.5 -8.5q136 0 136 158v1180h299z" />
    <glyph glyph-name="Kcommaaccent" unicode="&#x136;" horiz-adv-x="1476" 
d="M1458 0h-373l-426 651l-188 -227v-424h-317v1532h317v-633l520 633h406l-527 -627zM756 -88q78 0 123 -55.5t45 -145.5q0 -308 -314 -469v125q108 68 138 184q-71 5 -119.5 56t-48.5 123q0 76 50 129t126 53z" />
    <glyph glyph-name="kcommaaccent" unicode="&#x137;" horiz-adv-x="1191" 
d="M1180 0h-363l-276 383l-95 -102v-281h-299v1591h299v-909l342 377h363l-399 -453zM618 -88q78 0 123 -55.5t45 -145.5q0 -309 -313 -469v125q107 67 137 184q-71 5 -119.5 56t-48.5 123q0 76 50 129t126 53z" />
    <glyph glyph-name="Lacute" unicode="&#x139;" horiz-adv-x="1210" 
d="M459 1628h-273l263 316h407zM471 281h668v-281h-985v1532h317v-1251z" />
    <glyph glyph-name="lacute" unicode="&#x13a;" horiz-adv-x="595" 
d="M444 1663h-272l262 315h408zM446 0h-299v1591h299v-1591z" />
    <glyph glyph-name="Lcommaaccent" unicode="&#x13b;" horiz-adv-x="1210" 
d="M1139 281v-281h-985v1532h317v-1251h668zM664 -88q78 0 122.5 -55.5t44.5 -145.5q0 -309 -313 -469v125q107 67 137 184q-71 5 -119.5 56t-48.5 123q0 76 50.5 129t126.5 53z" />
    <glyph glyph-name="lcommaaccent" unicode="&#x13c;" horiz-adv-x="595" 
d="M446 0h-299v1591h299v-1591zM299 -88q78 0 123 -55.5t45 -145.5q0 -309 -313 -469v125q107 67 137 184q-71 5 -119.5 56t-48.5 123q0 76 50 129t126 53z" />
    <glyph glyph-name="Lcaron" unicode="&#x13d;" horiz-adv-x="1210" 
d="M1051 1229q-71 5 -119.5 55.5t-48.5 122.5q0 76 50 129t126 53q78 0 123 -55.5t45 -144.5q0 -308 -314 -469v124q108 67 138 185zM471 281h668v-281h-985v1532h317v-1251z" />
    <glyph glyph-name="lcaron" unicode="&#x13e;" horiz-adv-x="923" 
d="M147 1591h299v-1591h-299v1591zM735 1589q78 0 123 -55.5t45 -144.5q0 -309 -313 -469v124q107 67 137 185q-71 5 -119.5 55.5t-48.5 122.5q0 76 50 129t126 53z" />
    <glyph glyph-name="Ldot" unicode="&#x13f;" horiz-adv-x="1210" 
d="M471 281h668v-281h-985v1532h317v-1251zM942 1028q75 0 128.5 -53t53.5 -129q0 -75 -53.5 -127.5t-128.5 -52.5t-127.5 52.5t-52.5 127.5q0 76 52.5 129t127.5 53z" />
    <glyph glyph-name="ldot" unicode="&#x140;" horiz-adv-x="960" 
d="M446 0h-299v1591h299v-1591zM731 844q75 0 128.5 -53t53.5 -129q0 -75 -53.5 -128t-128.5 -53t-127.5 53t-52.5 128q0 76 52.5 129t127.5 53z" />
    <glyph glyph-name="Lslash" unicode="&#x141;" horiz-adv-x="1230" 
d="M1161 281v-281h-985v561l-151 -29l-35 240l186 35v725h318v-664l178 35l35 -237l-213 -41v-344h667z" />
    <glyph glyph-name="lslash" unicode="&#x142;" horiz-adv-x="645" 
d="M475 537v-537h-297v457l-162 -43l-53 235l215 58v884h297v-805l154 41l55 -235z" />
    <glyph glyph-name="Nacute" unicode="&#x143;" horiz-adv-x="1564" 
d="M901 1628h-272l262 316h407zM1411 0h-268l-672 948v-948h-317v1532h268l674 -950v950h315v-1532z" />
    <glyph glyph-name="nacute" unicode="&#x144;" horiz-adv-x="1265" 
d="M768 1225h-233l174 391h335zM715 1079q186 0 299.5 -115t113.5 -317v-647h-299v590q0 100 -49.5 155.5t-136.5 55.5q-89 0 -143 -58.5t-54 -154.5v-588h-299v1059h283v-109q37 59 109.5 94t175.5 35z" />
    <glyph glyph-name="Ncommaaccent" unicode="&#x145;" horiz-adv-x="1564" 
d="M1411 1532v-1532h-268l-672 948v-948h-317v1532h268l674 -950v950h315zM811 -88q78 0 123 -55.5t45 -145.5q0 -309 -313 -469v125q107 67 137 184q-71 5 -119.5 56t-48.5 123q0 76 50 129t126 53z" />
    <glyph glyph-name="ncommaaccent" unicode="&#x146;" horiz-adv-x="1265" 
d="M715 1079q186 0 299.5 -115t113.5 -317v-647h-299v590q0 100 -49.5 155.5t-136.5 55.5q-89 0 -143 -58.5t-54 -154.5v-588h-299v1059h283v-109q37 59 109.5 94t175.5 35zM641 -88q78 0 123 -55.5t45 -145.5q0 -309 -313 -469v125q107 67 137 184q-71 5 -119.5 56
t-48.5 123q0 76 50 129t126 53z" />
    <glyph glyph-name="Ncaron" unicode="&#x147;" horiz-adv-x="1564" 
d="M913 1628h-288l-240 328h250l133 -154l131 154h252zM1411 0h-268l-672 948v-948h-317v1532h268l674 -950v950h315v-1532z" />
    <glyph glyph-name="ncaron" unicode="&#x148;" horiz-adv-x="1265" 
d="M801 1223h-289l-238 360h250l133 -168l134 168h249zM715 1079q186 0 299.5 -115t113.5 -317v-647h-299v590q0 100 -49.5 155.5t-136.5 55.5q-89 0 -143 -58.5t-54 -154.5v-588h-299v1059h283v-109q37 59 109.5 94t175.5 35z" />
    <glyph glyph-name="Eng" unicode="&#x14a;" horiz-adv-x="1564" 
d="M1411 1532v-1575q0 -101 -37.5 -188.5t-106 -152t-171 -101.5t-226.5 -37v278q108 0 167 71.5t59 207.5v31l-625 882v-948h-317v1532h268l674 -950v950h315z" />
    <glyph glyph-name="eng" unicode="&#x14b;" horiz-adv-x="1265" 
d="M715 1079q186 0 299.5 -115t113.5 -317v-749q0 -200 -122 -317.5t-332 -117.5v261q65 0 110 46t45 121v699q0 100 -49.5 155.5t-136.5 55.5q-89 0 -143 -58.5t-54 -154.5v-588h-299v1059h283v-109q37 59 109.5 94t175.5 35z" />
    <glyph glyph-name="Omacron" unicode="&#x14c;" horiz-adv-x="1792" 
d="M1196 1669h-614v227h614v-227zM897 1554q170 0 316.5 -56t252.5 -157t166 -249.5t60 -325.5q0 -236 -103.5 -416.5t-283.5 -276.5t-408 -96q-230 0 -410.5 96t-283.5 276.5t-103 416.5q0 177 60 325.5t165.5 249.5t252.5 157t319 56zM897 1274q-214 0 -344.5 -136.5
t-130.5 -371.5q0 -234 131 -371t344 -137q210 0 340.5 137.5t130.5 370.5q0 234 -130.5 371t-340.5 137z" />
    <glyph glyph-name="omacron" unicode="&#x14d;" horiz-adv-x="1306" 
d="M958 1268h-614v229h614v-229zM653 1079q246 0 405 -152t159 -399q0 -246 -159 -398.5t-405 -152.5t-404.5 152.5t-158.5 398.5q0 164 73 290t201 193.5t289 67.5zM653 823q-117 0 -188.5 -79t-71.5 -216q0 -136 71.5 -214t188.5 -78t188.5 78t71.5 214q0 137 -71.5 216
t-188.5 79z" />
    <glyph glyph-name="Obreve" unicode="&#x14e;" horiz-adv-x="1792" 
d="M1028 1968h242q0 -165 -104 -251.5t-277 -86.5q-172 0 -275.5 86.5t-103.5 251.5h242q0 -61 37.5 -96t99.5 -35q64 0 101.5 35t37.5 96zM897 1554q170 0 316.5 -56t252.5 -157t166 -249.5t60 -325.5q0 -236 -103.5 -416.5t-283.5 -276.5t-408 -96q-230 0 -410.5 96
t-283.5 276.5t-103 416.5q0 177 60 325.5t165.5 249.5t252.5 157t319 56zM897 1274q-214 0 -344.5 -136.5t-130.5 -371.5q0 -234 131 -371t344 -137q210 0 340.5 137.5t130.5 370.5q0 234 -130.5 371t-340.5 137z" />
    <glyph glyph-name="obreve" unicode="&#x14f;" horiz-adv-x="1306" 
d="M788 1552h242q0 -165 -104 -251.5t-277 -86.5q-172 0 -275.5 86.5t-103.5 251.5h242q0 -61 37.5 -97t99.5 -36q63 0 101 36t38 97zM653 1079q246 0 405 -152t159 -399q0 -246 -159 -398.5t-405 -152.5t-404.5 152.5t-158.5 398.5q0 164 73 290t201 193.5t289 67.5z
M653 823q-117 0 -188.5 -79t-71.5 -216q0 -136 71.5 -214t188.5 -78t188.5 78t71.5 214q0 137 -71.5 216t-188.5 79z" />
    <glyph glyph-name="Ohungarumlaut" unicode="&#x150;" horiz-adv-x="1792" 
d="M784 1634h-231l125 346h283zM1198 1634h-231l125 346h282zM897 1554q170 0 316.5 -56t252.5 -157t166 -249.5t60 -325.5q0 -236 -103.5 -416.5t-283.5 -276.5t-408 -96q-230 0 -410.5 96t-283.5 276.5t-103 416.5q0 177 60 325.5t165.5 249.5t252.5 157t319 56zM897 1274
q-214 0 -344.5 -136.5t-130.5 -371.5q0 -234 131 -371t344 -137q210 0 340.5 137.5t130.5 370.5q0 234 -130.5 371t-340.5 137z" />
    <glyph glyph-name="ohungarumlaut" unicode="&#x151;" horiz-adv-x="1306" 
d="M555 1233h-233l127 369h282zM969 1233h-234l127 369h283zM653 1079q246 0 405 -152t159 -399q0 -246 -159 -398.5t-405 -152.5t-404.5 152.5t-158.5 398.5q0 164 73 290t201 193.5t289 67.5zM653 823q-117 0 -188.5 -79t-71.5 -216q0 -136 71.5 -214t188.5 -78t188.5 78
t71.5 214q0 137 -71.5 216t-188.5 79z" />
    <glyph glyph-name="OE" unicode="&#x152;" horiz-adv-x="2447" 
d="M2353 281v-281h-983v115q-202 -138 -473 -138q-230 0 -410.5 96t-283.5 276.5t-103 416.5q0 177 60 325.5t165.5 249.5t252.5 157t319 56q272 0 473 -137v115h981v-279h-665v-331h577v-273h-577v-368h667zM897 258q210 0 340.5 137.5t130.5 370.5q0 234 -130.5 371
t-340.5 137q-214 0 -344.5 -136.5t-130.5 -371.5q0 -234 131 -371t344 -137z" />
    <glyph glyph-name="oe" unicode="&#x153;" horiz-adv-x="2050" 
d="M1958 434h-727q5 -99 63 -157t158 -58q77 0 127.5 30.5t67.5 86.5l301 -14q-29 -151 -166 -248t-324 -97q-248 0 -399 154q-157 -154 -406 -154q-246 0 -404.5 152.5t-158.5 398.5q0 164 73 290t201 193.5t289 67.5q250 0 406 -153q150 153 393 153q231 0 368.5 -140.5
t137.5 -385.5v-119zM1448 846q-95 0 -153 -56.5t-64 -156.5h426q-5 100 -57.5 156.5t-151.5 56.5zM653 236q117 0 188.5 78t71.5 214q0 137 -71.5 216t-188.5 79t-188.5 -79t-71.5 -216q0 -136 71.5 -214t188.5 -78z" />
    <glyph glyph-name="Racute" unicode="&#x154;" horiz-adv-x="1447" 
d="M786 1628h-272l262 316h408zM1026 0l-299 551h-256v-551h-317v1532h655q223 0 358.5 -130t135.5 -362q0 -157 -65 -269t-181 -169l325 -602h-356zM469 831h301q95 0 153 55t58 154q0 102 -58 157.5t-153 55.5h-301v-422z" />
    <glyph glyph-name="racute" unicode="&#x155;" horiz-adv-x="774" 
d="M569 1225h-233l174 391h336zM727 1069v-289q-128 0 -204.5 -67t-76.5 -176v-537h-299v1059h289v-121q84 131 291 131z" />
    <glyph glyph-name="Rcommaaccent" unicode="&#x156;" horiz-adv-x="1447" 
d="M1382 0h-356l-299 551h-256v-551h-317v1532h655q223 0 358.5 -130t135.5 -362q0 -157 -65 -269t-181 -169zM469 831h301q95 0 153 55t58 154q0 102 -58 157.5t-153 55.5h-301v-422zM737 -88q78 0 123 -55.5t45 -145.5q0 -309 -313 -469v125q107 67 137 184
q-71 5 -119.5 56t-48.5 123q0 76 50 129t126 53z" />
    <glyph glyph-name="rcommaaccent" unicode="&#x157;" horiz-adv-x="774" 
d="M436 1059v-121q84 131 291 131v-289q-128 0 -204.5 -67t-76.5 -176v-537h-299v1059h289zM299 -88q78 0 123 -55.5t45 -145.5q0 -309 -313 -469v125q107 67 137 184q-71 5 -119.5 56t-48.5 123q0 76 50 129t126 53z" />
    <glyph glyph-name="Rcaron" unicode="&#x158;" horiz-adv-x="1447" 
d="M508 1628l-240 328h250l133 -154l131 154h252l-237 -328h-289zM1026 0l-299 551h-256v-551h-317v1532h655q223 0 358.5 -130t135.5 -362q0 -157 -65 -269t-181 -169l325 -602h-356zM469 831h301q95 0 153 55t58 154q0 102 -58 157.5t-153 55.5h-301v-422z" />
    <glyph glyph-name="rcaron" unicode="&#x159;" horiz-adv-x="774" 
d="M602 1223h-289l-237 360h250l133 -168l133 168h250zM727 1069v-289q-128 0 -204.5 -67t-76.5 -176v-537h-299v1059h289v-121q84 131 291 131z" />
    <glyph glyph-name="Sacute" unicode="&#x15a;" horiz-adv-x="1357" 
d="M811 1628h-272l262 316h407zM672 1554q252 0 406.5 -126t160.5 -345l-324 -16q-2 97 -65.5 155t-171.5 58q-107 0 -167 -50.5t-60 -133.5t63.5 -121t235.5 -78q102 -26 175.5 -51.5t142 -63t110.5 -83t67 -109.5t25 -144q0 -119 -44.5 -210.5t-122.5 -147t-178 -83.5
t-218 -28q-273 0 -442.5 130t-172.5 362l322 16q4 -104 86 -168.5t207 -64.5q112 0 176.5 43t64.5 133q0 82 -72.5 125.5t-242.5 85.5q-68 17 -115.5 31t-104.5 36t-95.5 44.5t-77.5 56t-61.5 72.5t-37 91.5t-14.5 114.5q0 96 34 180t100 149t171.5 102.5t239.5 37.5z" />
    <glyph glyph-name="sacute" unicode="&#x15b;" horiz-adv-x="1036" 
d="M614 1225h-233l174 391h336zM510 1079q194 0 304 -94t124 -248l-297 -16q-7 129 -135 129q-59 0 -90 -23.5t-31 -66.5q0 -12 2.5 -22t9.5 -18.5t13 -15t19.5 -13t23.5 -10.5t29.5 -9.5t32 -9t37.5 -9.5t40 -10q70 -18 119 -35t98 -43t78 -57.5t47 -76t18 -101.5
q0 -163 -114.5 -258t-319.5 -95q-202 0 -317.5 89.5t-132.5 255.5l299 16q3 -61 41 -96t112 -35q62 0 97.5 25.5t35.5 70.5q0 47 -37.5 70t-154.5 51q-57 14 -92.5 24.5t-79.5 26t-70.5 31.5t-55 39.5t-43.5 51t-24.5 65t-9.5 83.5q0 153 113 243.5t311 90.5z" />
    <glyph glyph-name="Scircumflex" unicode="&#x15c;" horiz-adv-x="1357" 
d="M1059 1628h-252l-131 154l-133 -154h-250l239 328h289zM672 1554q252 0 406.5 -126t160.5 -345l-324 -16q-2 97 -65.5 155t-171.5 58q-107 0 -167 -50.5t-60 -133.5t63.5 -121t235.5 -78q102 -26 175.5 -51.5t142 -63t110.5 -83t67 -109.5t25 -144q0 -119 -44.5 -210.5
t-122.5 -147t-178 -83.5t-218 -28q-273 0 -442.5 130t-172.5 362l322 16q4 -104 86 -168.5t207 -64.5q112 0 176.5 43t64.5 133q0 82 -72.5 125.5t-242.5 85.5q-68 17 -115.5 31t-104.5 36t-95.5 44.5t-77.5 56t-61.5 72.5t-37 91.5t-14.5 114.5q0 96 34 180t100 149
t171.5 102.5t239.5 37.5z" />
    <glyph glyph-name="scircumflex" unicode="&#x15d;" horiz-adv-x="1036" 
d="M885 1227h-250l-133 168l-133 -168h-250l237 362h289zM510 1079q194 0 304 -94t124 -248l-297 -16q-7 129 -135 129q-59 0 -90 -23.5t-31 -66.5q0 -12 2.5 -22t9.5 -18.5t13 -15t19.5 -13t23.5 -10.5t29.5 -9.5t32 -9t37.5 -9.5t40 -10q70 -18 119 -35t98 -43t78 -57.5
t47 -76t18 -101.5q0 -163 -114.5 -258t-319.5 -95q-202 0 -317.5 89.5t-132.5 255.5l299 16q3 -61 41 -96t112 -35q62 0 97.5 25.5t35.5 70.5q0 47 -37.5 70t-154.5 51q-57 14 -92.5 24.5t-79.5 26t-70.5 31.5t-55 39.5t-43.5 51t-24.5 65t-9.5 83.5q0 153 113 243.5
t311 90.5z" />
    <glyph glyph-name="Scedilla" unicode="&#x15e;" horiz-adv-x="1357" 
d="M1270 446q0 -112 -39.5 -200t-110 -143.5t-161 -86.5t-199.5 -36l-19 -74q95 -6 162.5 -62.5t67.5 -150.5q0 -107 -84 -163t-203 -56q-127 0 -203 39l47 157q45 -28 113 -28q43 0 75 17t32 54q0 39 -31.5 57.5t-81.5 18.5q-41 0 -74 -10l66 203q-241 19 -386.5 146
t-148.5 341l322 16q4 -104 86 -168.5t207 -64.5q112 0 176.5 43t64.5 133q0 82 -72.5 125.5t-242.5 85.5q-68 17 -115.5 31t-104.5 36t-95.5 44.5t-77.5 56t-61.5 72.5t-37 91.5t-14.5 114.5q0 96 34 180t100 149t171.5 102.5t239.5 37.5q252 0 406.5 -126t160.5 -345
l-324 -16q-2 97 -65.5 155t-171.5 58q-107 0 -167 -50.5t-60 -133.5t63.5 -121t235.5 -78q102 -26 175.5 -51.5t142 -63t110.5 -83t67 -109.5t25 -144z" />
    <glyph glyph-name="scedilla" unicode="&#x15f;" horiz-adv-x="1036" 
d="M952 330q0 -151 -98 -244t-276 -106l-19 -74q95 -6 162 -62.5t67 -150.5q0 -107 -83.5 -163t-202.5 -56q-127 0 -203 39l47 157q45 -28 113 -28q42 0 74 17t32 54q0 39 -31 57.5t-81 18.5q-41 0 -74 -10l65 203q-169 15 -265 102t-111 238l299 16q3 -61 41 -96t112 -35
q62 0 97.5 25.5t35.5 70.5q0 47 -37.5 70t-154.5 51q-57 14 -92.5 24.5t-79.5 26t-70.5 31.5t-55 39.5t-43.5 51t-24.5 65t-9.5 83.5q0 153 113 243.5t311 90.5q194 0 304 -94t124 -248l-297 -16q-7 129 -135 129q-59 0 -90 -23.5t-31 -66.5q0 -12 2.5 -22t9.5 -18.5t13 -15
t19.5 -13t23.5 -10.5t29.5 -9.5t32 -9t37.5 -9.5t40 -10q70 -18 119 -35t98 -43t78 -57.5t47 -76t18 -101.5z" />
    <glyph glyph-name="Scaron" unicode="&#x160;" horiz-adv-x="1357" 
d="M821 1628h-289l-239 328h250l133 -154l131 154h252zM672 1554q252 0 406.5 -126t160.5 -345l-324 -16q-2 97 -65.5 155t-171.5 58q-107 0 -167 -50.5t-60 -133.5t63.5 -121t235.5 -78q102 -26 175.5 -51.5t142 -63t110.5 -83t67 -109.5t25 -144q0 -119 -44.5 -210.5
t-122.5 -147t-178 -83.5t-218 -28q-273 0 -442.5 130t-172.5 362l322 16q4 -104 86 -168.5t207 -64.5q112 0 176.5 43t64.5 133q0 82 -72.5 125.5t-242.5 85.5q-68 17 -115.5 31t-104.5 36t-95.5 44.5t-77.5 56t-61.5 72.5t-37 91.5t-14.5 114.5q0 96 34 180t100 149
t171.5 102.5t239.5 37.5z" />
    <glyph glyph-name="scaron" unicode="&#x161;" horiz-adv-x="1036" 
d="M645 1223h-289l-237 360h250l133 -168l133 168h250zM510 1079q194 0 304 -94t124 -248l-297 -16q-7 129 -135 129q-59 0 -90 -23.5t-31 -66.5q0 -12 2.5 -22t9.5 -18.5t13 -15t19.5 -13t23.5 -10.5t29.5 -9.5t32 -9t37.5 -9.5t40 -10q70 -18 119 -35t98 -43t78 -57.5
t47 -76t18 -101.5q0 -163 -114.5 -258t-319.5 -95q-202 0 -317.5 89.5t-132.5 255.5l299 16q3 -61 41 -96t112 -35q62 0 97.5 25.5t35.5 70.5q0 47 -37.5 70t-154.5 51q-57 14 -92.5 24.5t-79.5 26t-70.5 31.5t-55 39.5t-43.5 51t-24.5 65t-9.5 83.5q0 153 113 243.5
t311 90.5z" />
    <glyph glyph-name="Tcaron" unicode="&#x164;" horiz-adv-x="1419" 
d="M862 1628h-289l-239 328h250l133 -154l131 154h252zM1380 1253h-512v-1253h-315v1253h-514v279h1341v-279z" />
    <glyph glyph-name="tcaron" unicode="&#x165;" horiz-adv-x="1198" 
d="M1006 1589q78 0 123 -55.5t45 -144.5q0 -308 -314 -469v124q107 67 137 185q-71 5 -119.5 55.5t-48.5 122.5q0 76 50.5 129t126.5 53zM516 1059h248v-258h-250l-2 -393q0 -82 45 -121t115 -39q35 0 92 10v-266q-86 -12 -166 -12q-179 0 -282.5 89t-102.5 267l2 465h-192
v258h194l2 350h299z" />
    <glyph glyph-name="Tbar" unicode="&#x166;" horiz-adv-x="1419" 
d="M868 1253v-405h252v-242h-252v-606h-315v606h-254v242h254v405h-514v279h1341v-279h-512z" />
    <glyph glyph-name="tbar" unicode="&#x167;" horiz-adv-x="827" 
d="M514 801v-156h250v-213h-252v-24q0 -82 45 -121t115 -39q35 0 92 10v-266q-86 -12 -166 -12q-179 0 -282.5 89t-102.5 267v96h-190v213h192v156h-192v258h194l2 350h299l-2 -350h248v-258h-250z" />
    <glyph glyph-name="Utilde" unicode="&#x168;" horiz-adv-x="1591" 
d="M641 1964q44 0 85 -17t67 -37.5t58.5 -37.5t61.5 -17q83 0 86 95h168q11 -129 -50.5 -223.5t-170.5 -94.5q-44 0 -85 17t-67 37.5t-58 37.5t-60 17q-86 0 -86 -94h-168q-11 129 49.5 223t169.5 94zM1448 1532v-909q0 -305 -174 -475.5t-477 -170.5q-306 0 -480 170
t-174 476v909h316v-905q0 -180 86 -274.5t252 -94.5q163 0 249.5 94.5t86.5 274.5v905h315z" />
    <glyph glyph-name="utilde" unicode="&#x169;" 
d="M463 1559q44 0 85 -17.5t67 -38t58.5 -38t61.5 -17.5q83 0 86 96h168q11 -129 -50.5 -224t-170.5 -95q-56 0 -105 27t-89.5 54t-75.5 27q-86 0 -86 -94h-168q-7 84 16.5 156.5t77 118t125.5 45.5zM1085 0h-282v106q-80 -129 -275 -129q-183 0 -287 111t-104 305v666h299
v-602q0 -201 170 -201q84 0 132 57t48 148v598h299v-1059z" />
    <glyph glyph-name="Umacron" unicode="&#x16a;" horiz-adv-x="1591" 
d="M1102 1669h-615v227h615v-227zM1448 1532v-909q0 -305 -174 -475.5t-477 -170.5q-306 0 -480 170t-174 476v909h316v-905q0 -180 86 -274.5t252 -94.5q163 0 249.5 94.5t86.5 274.5v905h315z" />
    <glyph glyph-name="umacron" unicode="&#x16b;" 
d="M926 1268h-615v229h615v-229zM1085 0h-282v106q-80 -129 -275 -129q-183 0 -287 111t-104 305v666h299v-602q0 -201 170 -201q84 0 132 57t48 148v598h299v-1059z" />
    <glyph glyph-name="Ubreve" unicode="&#x16c;" horiz-adv-x="1591" 
d="M934 1968h242q0 -165 -104 -251.5t-277 -86.5q-172 0 -275.5 86.5t-103.5 251.5h241q0 -61 38 -96t100 -35q64 0 101.5 35t37.5 96zM1448 1532v-909q0 -305 -174 -475.5t-477 -170.5q-306 0 -480 170t-174 476v909h316v-905q0 -180 86 -274.5t252 -94.5q163 0 249.5 94.5
t86.5 274.5v905h315z" />
    <glyph glyph-name="ubreve" unicode="&#x16d;" 
d="M756 1552h241q0 -165 -104 -251.5t-277 -86.5q-172 0 -275 86.5t-103 251.5h241q0 -61 37.5 -97t99.5 -36q63 0 101.5 36t38.5 97zM1085 0h-282v106q-80 -129 -275 -129q-183 0 -287 111t-104 305v666h299v-602q0 -201 170 -201q84 0 132 57t48 148v598h299v-1059z" />
    <glyph glyph-name="Uring" unicode="&#x16e;" horiz-adv-x="1591" 
d="M797 2064q97 0 164 -62t67 -159q0 -94 -67.5 -156.5t-163.5 -62.5q-101 0 -169.5 62.5t-68.5 156.5q0 97 68.5 159t169.5 62zM797 1927q-39 0 -62.5 -23.5t-23.5 -60.5q0 -35 23.5 -57.5t62.5 -22.5q35 0 57.5 23t22.5 57q0 37 -22.5 60.5t-57.5 23.5zM1448 1532v-909
q0 -305 -174 -475.5t-477 -170.5q-306 0 -480 170t-174 476v909h316v-905q0 -180 86 -274.5t252 -94.5q163 0 249.5 94.5t86.5 274.5v905h315z" />
    <glyph glyph-name="uring" unicode="&#x16f;" 
d="M618 1686q114 0 191.5 -71t77.5 -179t-77.5 -179t-191.5 -71q-113 0 -190.5 71t-77.5 179t77.5 179t190.5 71zM618 1526q-42 0 -67 -25t-25 -65t25 -64t67 -24q41 0 66 24t25 64t-25 65t-66 25zM1085 0h-282v106q-80 -129 -275 -129q-183 0 -287 111t-104 305v666h299
v-602q0 -201 170 -201q84 0 132 57t48 148v598h299v-1059z" />
    <glyph glyph-name="Uhungarumlaut" unicode="&#x170;" horiz-adv-x="1591" 
d="M690 1634h-231l125 346h282zM1104 1634h-232l125 346h283zM1448 1532v-909q0 -305 -174 -475.5t-477 -170.5q-306 0 -480 170t-174 476v909h316v-905q0 -180 86 -274.5t252 -94.5q163 0 249.5 94.5t86.5 274.5v905h315z" />
    <glyph glyph-name="uhungarumlaut" unicode="&#x171;" 
d="M522 1233h-233l127 369h282zM936 1233h-234l127 369h283zM1085 0h-282v106q-80 -129 -275 -129q-183 0 -287 111t-104 305v666h299v-602q0 -201 170 -201q84 0 132 57t48 148v598h299v-1059z" />
    <glyph glyph-name="Uogonek" unicode="&#x172;" horiz-adv-x="1591" 
d="M1448 1532v-909q0 -253 -122 -415t-341 -212q-73 -40 -107 -74.5t-34 -81.5q0 -35 22.5 -54t61.5 -19q56 0 102 24l27 -145q-79 -37 -178 -37q-114 0 -186 49t-72 145q0 109 108 177q-276 19 -431 187t-155 456v909h316v-905q0 -180 86 -274.5t252 -94.5
q163 0 249.5 94.5t86.5 274.5v905h315z" />
    <glyph glyph-name="uogonek" unicode="&#x173;" 
d="M1063 -211l27 -145q-79 -37 -179 -37q-114 0 -186 49t-72 145q0 124 150 201v104q-80 -129 -275 -129q-183 0 -287 111t-104 305v666h299v-602q0 -201 170 -201q84 0 132 57t48 148v598h299v-1059h-59q-80 -45 -114.5 -79t-34.5 -83q0 -35 22.5 -54.5t61.5 -19.5
q54 0 102 25z" />
    <glyph glyph-name="Wcircumflex" unicode="&#x174;" horiz-adv-x="2304" 
d="M1536 1628h-252l-131 154l-133 -154h-250l240 328h288zM1745 0h-266l-326 971l-326 -971h-268l-534 1532h344l327 -995l326 995h260l328 -995l325 995h344z" />
    <glyph glyph-name="wcircumflex" unicode="&#x175;" horiz-adv-x="1732" 
d="M1253 1227h-249l-134 168l-133 -168h-250l238 362h289zM1317 0h-238l-213 561l-213 -561h-237l-406 1059h328l207 -606l217 606h209l219 -606l207 606h327z" />
    <glyph glyph-name="Ycircumflex" unicode="&#x176;" horiz-adv-x="1523" 
d="M1145 1628h-252l-131 154l-133 -154h-250l239 328h289zM922 590v-590h-316v590l-581 942h366l371 -629l371 629h368z" />
    <glyph glyph-name="ycircumflex" unicode="&#x177;" horiz-adv-x="1173" 
d="M971 1227h-250l-133 168l-133 -168h-250l237 362h289zM483 -522h-325l270 616l-414 965h330l244 -631l241 631h332z" />
    <glyph glyph-name="Ydieresis" unicode="&#x178;" horiz-adv-x="1523" 
d="M567 1960q68 0 116 -47.5t48 -114.5t-48 -114.5t-116 -47.5q-67 0 -114 47t-47 115t47 115t114 47zM963 1960q67 0 114 -47t47 -115t-47 -115t-114 -47t-114.5 47t-47.5 115t47.5 115t114.5 47zM922 590v-590h-316v590l-581 942h366l371 -629l371 629h368z" />
    <glyph glyph-name="Zacute" unicode="&#x179;" horiz-adv-x="1282" 
d="M770 1628h-272l262 316h407zM1192 1292l-713 -1011h733v-281h-1136v240l708 1013h-698v279h1106v-240z" />
    <glyph glyph-name="zacute" unicode="&#x17a;" horiz-adv-x="931" 
d="M584 1225h-234l174 391h336zM848 860l-432 -618h448v-242h-794v197l434 620h-426v242h770v-199z" />
    <glyph glyph-name="Zdotaccent" unicode="&#x17b;" horiz-adv-x="1282" 
d="M637 1993q75 0 127.5 -53t52.5 -128t-52.5 -126.5t-127.5 -51.5q-74 0 -126 51.5t-52 126.5t53 128t125 53zM1192 1292l-713 -1011h733v-281h-1136v240l708 1013h-698v279h1106v-240z" />
    <glyph glyph-name="zdotaccent" unicode="&#x17c;" horiz-adv-x="931" 
d="M471 1577q75 0 127.5 -53t52.5 -127q0 -75 -52.5 -127.5t-127.5 -52.5q-74 0 -126 52.5t-52 127.5q0 73 53 126.5t125 53.5zM848 860l-432 -618h448v-242h-794v197l434 620h-426v242h770v-199z" />
    <glyph glyph-name="Zcaron" unicode="&#x17d;" horiz-adv-x="1282" 
d="M782 1628h-288l-240 328h250l133 -154l131 154h252zM1192 1292l-713 -1011h733v-281h-1136v240l708 1013h-698v279h1106v-240z" />
    <glyph glyph-name="zcaron" unicode="&#x17e;" horiz-adv-x="931" 
d="M616 1223h-288l-238 360h250l133 -168l133 168h250zM848 860l-432 -618h448v-242h-794v197l434 620h-426v242h770v-199z" />
    <glyph glyph-name="florin" unicode="&#x192;" horiz-adv-x="909" 
d="M748 1610q179 0 301 -84l-119 -246q-62 66 -150 66q-64 0 -101 -32.5t-50 -103.5l-27 -151h256v-248h-301l-195 -1102h-303l195 1102h-195v248h240l35 201q31 177 140 263.5t274 86.5z" />
    <glyph glyph-name="Aringacute" unicode="&#x1fa;" horiz-adv-x="1615" 
d="M827 1581q-100 0 -167.5 62t-67.5 157q0 115 92 178l242 232h372l-344 -223q48 -28 76.5 -77.5t28.5 -109.5q0 -94 -67 -156.5t-165 -62.5zM827 1720q35 0 58.5 23t23.5 57q0 37 -23.5 60.5t-58.5 23.5q-38 0 -61 -23.5t-23 -60.5q0 -34 23 -57t61 -23zM1599 0h-348
l-125 295h-637l-127 -295h-346l658 1532h266zM1016 553l-207 489l-207 -489h414z" />
    <glyph glyph-name="aringacute" unicode="&#x1fb;" horiz-adv-x="1140" 
d="M575 1178q-99 0 -167 62.5t-68 158.5q0 104 80 168l254 239h373l-345 -221q49 -29 78 -77.5t29 -108.5q0 -96 -68 -158.5t-166 -62.5zM575 1317q36 0 59 23t23 59t-23 59t-59 23q-38 0 -60.5 -23t-22.5 -59t22.5 -59t60.5 -23zM561 1079q214 0 327 -108.5t113 -317.5
v-653h-288v86q-105 -109 -271 -109q-163 0 -257.5 81.5t-94.5 232.5q0 302 424 321l188 11v41q0 163 -137 163q-72 0 -109.5 -40.5t-37.5 -98.5l-299 12q0 70 31.5 137.5t87 121.5t140.5 87t183 33zM702 426l-159 -10q-154 -7 -154 -111q0 -96 123 -96q85 0 137.5 45
t52.5 127v45z" />
    <glyph glyph-name="AEacute" unicode="&#x1fc;" horiz-adv-x="2156" 
d="M1518 1628h-273l262 316h408zM1393 1253v-331h577v-273h-577v-368h667v-281h-983v295h-483l-199 -295h-385l1032 1532h1018v-279h-667zM1077 553v471l-311 -471h311z" />
    <glyph glyph-name="aeacute" unicode="&#x1fd;" horiz-adv-x="1841" 
d="M999 1225h-233l174 391h336zM1751 434h-727q5 -99 63 -157t158 -58q77 0 127.5 30.5t67.5 86.5l301 -14q-29 -151 -166 -248t-324 -97q-254 0 -405 160q-153 -160 -379 -160q-175 0 -276 83.5t-101 234.5q0 298 424 317l188 11v39q0 76 -33.5 121.5t-105.5 45.5
t-108.5 -41.5t-36.5 -99.5l-299 12q0 70 30.5 137.5t85 121.5t138.5 87t182 33q215 0 328 -125q140 125 362 125q231 0 368.5 -140.5t137.5 -385.5v-119zM1241 846q-95 0 -153 -56.5t-64 -156.5h426q-5 100 -57.5 156.5t-151.5 56.5zM702 426l-159 -10q-154 -7 -154 -109
q0 -94 123 -94q80 0 135 41.5t55 126.5v45z" />
    <glyph glyph-name="Oslashacute" unicode="&#x1fe;" horiz-adv-x="1777" 
d="M1024 1628h-272l262 316h407zM1595 1491l-120 -158q104 -105 160.5 -249.5t56.5 -317.5q0 -236 -103.5 -416.5t-283.5 -276.5t-408 -96q-213 0 -393 89l-127 -166l-195 147l125 164q-100 103 -153.5 244.5t-53.5 310.5q0 177 60 325.5t165.5 249.5t252.5 157t319 56
q209 0 379 -81l125 163zM422 766q0 -178 80 -303l592 774q-84 37 -197 37q-214 0 -344.5 -136.5t-130.5 -371.5zM897 258q210 0 340.5 137.5t130.5 370.5q0 187 -86 315l-598 -780q93 -43 213 -43z" />
    <glyph glyph-name="oslashacute" unicode="&#x1ff;" horiz-adv-x="1306" 
d="M764 1225h-234l175 391h335zM1147 1008l-74 -97q144 -150 144 -383q0 -246 -159 -398.5t-405 -152.5q-135 0 -247 50l-91 -121l-163 121l86 114q-148 154 -148 387q0 164 73 290t201 193.5t289 67.5q137 0 254 -51l76 102zM393 528q0 -76 27 -145l321 426q-38 14 -88 14
q-117 0 -188.5 -79t-71.5 -216zM653 236q117 0 188.5 78t71.5 214q0 77 -22 138l-318 -420q42 -10 80 -10z" />
    <glyph glyph-name="Scommaaccent" unicode="&#x218;" horiz-adv-x="1357" 
d="M750 897q102 -26 175.5 -51.5t142 -63t110.5 -83t67 -109.5t25 -144q0 -119 -44.5 -210.5t-122.5 -147t-178 -83.5t-218 -28q-273 0 -442.5 130t-172.5 362l322 16q4 -104 86 -168.5t207 -64.5q112 0 176.5 43t64.5 133q0 82 -72.5 125.5t-242.5 85.5q-68 17 -115.5 31
t-104.5 36t-95.5 44.5t-77.5 56t-61.5 72.5t-37 91.5t-14.5 114.5q0 96 34 180t100 149t171.5 102.5t239.5 37.5q252 0 406.5 -126t160.5 -345l-324 -16q-2 97 -65.5 155t-171.5 58q-107 0 -167 -50.5t-60 -133.5t63.5 -121t235.5 -78zM694 -98q78 0 123 -55.5t45 -145.5
q0 -309 -313 -469v125q107 67 137 184q-71 5 -119.5 55.5t-48.5 122.5q0 76 50.5 129.5t125.5 53.5z" />
    <glyph glyph-name="scommaaccent" unicode="&#x219;" horiz-adv-x="1036" 
d="M592 643q70 -18 119 -35t98 -43t78 -57.5t47 -76t18 -101.5q0 -163 -114.5 -258t-319.5 -95q-202 0 -317.5 89.5t-132.5 255.5l299 16q3 -61 41 -96t112 -35q62 0 97.5 25.5t35.5 70.5q0 47 -37.5 70t-154.5 51q-57 14 -92.5 24.5t-79.5 26t-70.5 31.5t-55 39.5t-43.5 51
t-24.5 65t-9.5 83.5q0 153 113 243.5t311 90.5q194 0 304 -94t124 -248l-297 -16q-7 129 -135 129q-59 0 -90 -23.5t-31 -66.5q0 -12 2.5 -22t9.5 -18.5t13 -15t19.5 -13t23.5 -10.5t29.5 -9.5t32 -9t37.5 -9.5t40 -10zM512 -98q78 0 123 -55.5t45 -145.5q0 -309 -313 -469
v125q107 67 137 184q-71 5 -119.5 55.5t-48.5 122.5q0 76 50.5 129.5t125.5 53.5z" />
    <glyph glyph-name="uni021A" unicode="&#x21a;" horiz-adv-x="1419" 
d="M1380 1532v-279h-512v-1253h-315v1253h-514v279h1341zM713 -88q78 0 123 -55.5t45 -145.5q0 -308 -314 -469v125q108 68 138 184q-71 5 -119.5 56t-48.5 123q0 76 50 129t126 53z" />
    <glyph glyph-name="uni021B" unicode="&#x21b;" horiz-adv-x="827" 
d="M514 801l-2 -393q0 -82 45 -121t115 -39q35 0 92 10v-266q-86 -12 -166 -12q-179 0 -282.5 89t-102.5 267l2 465h-192v258h194l2 350h299l-2 -350h248v-258h-250zM477 -104q78 0 123 -55.5t45 -145.5q0 -309 -313 -469v125q107 67 137 184q-71 5 -119.5 55.5t-48.5 122.5
q0 76 50.5 129.5t125.5 53.5z" />
    <glyph glyph-name="dotlessj" unicode="&#x237;" horiz-adv-x="595" 
d="M449 1059v-1163q0 -219 -110.5 -329t-293.5 -110q-156 0 -262 70l119 244q18 -16 30 -24.5t34.5 -17t47.5 -8.5q136 0 136 158v1180h299z" />
    <glyph glyph-name="circumflex" unicode="&#x2c6;" horiz-adv-x="800" 
d="M784 1227h-249l-134 168l-133 -168h-250l238 362h289z" />
    <glyph glyph-name="caron" unicode="&#x2c7;" horiz-adv-x="800" 
d="M545 1223h-289l-238 360h250l133 -168l134 168h249z" />
    <glyph glyph-name="breve" unicode="&#x2d8;" horiz-adv-x="800" 
d="M539 1552h241q0 -165 -104 -251.5t-277 -86.5q-172 0 -275.5 86.5t-103.5 251.5h242q0 -61 37.5 -97t99.5 -36q63 0 101.5 36t38.5 97z" />
    <glyph glyph-name="dotaccent" unicode="&#x2d9;" horiz-adv-x="399" 
d="M199 1577q75 0 127.5 -53t52.5 -127q0 -75 -52.5 -127.5t-127.5 -52.5q-74 0 -126.5 52.5t-52.5 127.5q0 73 53.5 126.5t125.5 53.5z" />
    <glyph glyph-name="ring" unicode="&#x2da;" horiz-adv-x="575" 
d="M289 1686q113 0 190.5 -71t77.5 -179t-77.5 -179t-190.5 -71q-114 0 -191.5 71t-77.5 179t77.5 179t191.5 71zM289 1526q-42 0 -67 -25t-25 -65t25 -64t67 -24q41 0 65.5 24t24.5 64t-24.5 65t-65.5 25z" />
    <glyph glyph-name="ogonek" unicode="&#x2db;" horiz-adv-x="481" 
d="M352 74l49 -66q-81 -45 -117 -80t-36 -84q0 -35 22.5 -54t61.5 -19q56 0 102 24l27 -145q-79 -37 -178 -37q-114 0 -186 49t-72 145q0 52 24 94t70.5 73.5t102 55t130.5 44.5z" />
    <glyph glyph-name="tilde" unicode="&#x2dc;" horiz-adv-x="786" 
d="M240 1559q44 0 85 -17.5t67 -38t58.5 -38t61.5 -17.5q83 0 86 96h168q11 -129 -50.5 -224t-170.5 -95q-44 0 -85.5 17t-67 37t-58 37t-60.5 17q-86 0 -86 -94h-168q-7 84 16.5 156.5t77.5 118t126 45.5z" />
    <glyph glyph-name="hungarumlaut" unicode="&#x2dd;" horiz-adv-x="860" 
d="M252 1233h-234l127 369h283zM666 1233h-234l127 369h283z" />
    <glyph glyph-name="uni0326" unicode="&#x326;" horiz-adv-x="0" 
d="M422 -289v-2q-3 -304 -313 -467v125q109 71 135 184q-69 6 -117.5 57.5t-48.5 121.5q0 76 50 129t126 53q78 0 123 -55.5t45 -143.5v-2z" />
    <glyph glyph-name="Omega" unicode="&#x3a9;" horiz-adv-x="1634" 
d="M817 1487q207 0 363.5 -95.5t236.5 -255.5t80 -360q0 -168 -66 -314.5t-155 -232.5h315v-229h-630v211q119 77 201.5 233t82.5 322q0 218 -114.5 354.5t-313.5 136.5t-313.5 -136.5t-114.5 -354.5q0 -166 83 -322t202 -233v-211h-631v229h315q-88 85 -153.5 232
t-65.5 315q0 200 79.5 360t235.5 255.5t363 95.5z" />
    <glyph glyph-name="mu" unicode="&#x3bc;" horiz-adv-x="1243" 
d="M1096 1059v-1059h-283v106q-80 -129 -274 -129q-49 0 -93 9v-508h-299v1581h299v-602q0 -201 170 -201q85 0 133 57t48 148v598h299z" />
    <glyph glyph-name="pi" unicode="&#x3c0;" horiz-adv-x="1476" 
d="M1198 1087l229 -133q-80 -272 -331 -272h-17l-45 -371q-12 -80 49 -80q35 0 80 35l133 -174q-104 -110 -256 -110q-137 0 -198 83.5t-45 227.5l45 389h-193l-49 -397q-21 -159 -86 -285h-278q72 152 91 212q18 59 27 120l45 350h-34q-104 0 -181 -100l-137 204
q40 40 72 65.5t76.5 49t100.5 34.5t128 11h520q77 0 127.5 18t76.5 46t50 77z" />
    <glyph glyph-name="Wgrave" unicode="&#x1e80;" horiz-adv-x="2304" 
d="M1278 1628h-272l-398 316h408zM1745 0h-266l-326 971l-326 -971h-268l-534 1532h344l327 -995l326 995h260l328 -995l325 995h344z" />
    <glyph glyph-name="wgrave" unicode="&#x1e81;" horiz-adv-x="1732" 
d="M977 1225h-232l-278 391h340zM1317 0h-238l-213 561l-213 -561h-237l-406 1059h328l207 -606l217 606h209l219 -606l207 606h327z" />
    <glyph glyph-name="Wacute" unicode="&#x1e82;" horiz-adv-x="2304" 
d="M1288 1628h-272l262 316h408zM1745 0h-266l-326 971l-326 -971h-268l-534 1532h344l327 -995l326 995h260l328 -995l325 995h344z" />
    <glyph glyph-name="wacute" unicode="&#x1e83;" horiz-adv-x="1732" 
d="M981 1225h-233l174 391h335zM1317 0h-238l-213 561l-213 -561h-237l-406 1059h328l207 -606l217 606h209l219 -606l207 606h327z" />
    <glyph glyph-name="Wdieresis" unicode="&#x1e84;" horiz-adv-x="2304" 
d="M956 1960q68 0 116 -47.5t48 -114.5t-48 -114.5t-116 -47.5q-67 0 -114 47t-47 115t47 115t114 47zM1352 1960q67 0 114 -47t47 -115t-47 -115t-114 -47q-68 0 -115 47t-47 115t47 115t115 47zM1745 0h-266l-326 971l-326 -971h-268l-534 1532h344l327 -995l326 995h260
l328 -995l325 995h344z" />
    <glyph glyph-name="wdieresis" unicode="&#x1e85;" horiz-adv-x="1732" 
d="M670 1550q68 0 116 -46.5t48 -112.5q0 -68 -48 -115t-116 -47t-115 46.5t-47 115.5q0 66 47.5 112.5t114.5 46.5zM1065 1550q67 0 114.5 -46.5t47.5 -112.5q0 -69 -47 -115.5t-115 -46.5t-115 46.5t-47 115.5q0 66 47.5 112.5t114.5 46.5zM1317 0h-238l-213 561
l-213 -561h-237l-406 1059h328l207 -606l217 606h209l219 -606l207 606h327z" />
    <glyph glyph-name="Ygrave" unicode="&#x1ef2;" horiz-adv-x="1523" 
d="M887 1628h-273l-397 316h408zM922 590v-590h-316v590l-581 942h366l371 -629l371 629h368z" />
    <glyph glyph-name="ygrave" unicode="&#x1ef3;" horiz-adv-x="1173" 
d="M694 1225h-231l-279 391h340zM483 -522h-325l270 616l-414 965h330l244 -631l241 631h332z" />
    <glyph glyph-name="endash" unicode="&#x2013;" horiz-adv-x="1159" 
d="M1067 397h-975v279h975v-279z" />
    <glyph glyph-name="emdash" unicode="&#x2014;" horiz-adv-x="1634" 
d="M1542 397h-1450v279h1450v-279z" />
    <glyph glyph-name="quoteleft" unicode="&#x2018;" horiz-adv-x="458" 
d="M252 1280q69 -5 117.5 -56.5t48.5 -123.5q0 -76 -49 -128t-125 -52q-78 0 -123 54.5t-45 143.5v2v2q3 306 311 465v-123q-109 -71 -135 -184z" />
    <glyph glyph-name="quoteright" unicode="&#x2019;" horiz-adv-x="458" 
d="M217 1587q78 0 123 -54.5t45 -143.5q0 -309 -313 -469v124q108 67 135 185q-70 5 -118 56t-48 122q0 76 50 128t126 52z" />
    <glyph glyph-name="quotesinglbase" unicode="&#x201a;" horiz-adv-x="458" 
d="M217 340q78 0 123 -55.5t45 -145.5q0 -309 -313 -469v125q108 67 135 185q-70 5 -118 56t-48 122q0 76 50 129t126 53z" />
    <glyph glyph-name="quotedblleft" unicode="&#x201c;" horiz-adv-x="886" 
d="M248 1278q71 -5 119.5 -55.5t48.5 -122.5q0 -76 -50 -129t-126 -53q-78 0 -123 55.5t-45 144.5q0 309 313 469v-125q-107 -67 -137 -184zM676 1278q71 -5 119.5 -55.5t48.5 -122.5q0 -76 -50 -129t-126 -53q-78 0 -123 55.5t-45 144.5q0 309 313 469v-125
q-107 -67 -137 -184z" />
    <glyph glyph-name="quotedblright" unicode="&#x201d;" horiz-adv-x="886" 
d="M213 1589q78 0 123 -55.5t45 -144.5q0 -309 -313 -469v124q107 67 137 185q-71 5 -119.5 55.5t-48.5 122.5q0 76 50 129t126 53zM641 1589q78 0 123 -55.5t45 -144.5q0 -309 -313 -469v124q107 67 137 185q-71 5 -119.5 55.5t-48.5 122.5q0 76 50 129t126 53z" />
    <glyph glyph-name="quotedblbase" unicode="&#x201e;" horiz-adv-x="886" 
d="M217 340q78 0 123 -55.5t45 -145.5q0 -309 -313 -469v125q108 67 135 185q-70 5 -118 56t-48 122q0 76 50 129t126 53zM645 340q78 0 123 -55.5t45 -145.5q0 -309 -313 -469v125q108 67 135 185q-70 5 -118 56t-48 122q0 76 50 129t126 53z" />
    <glyph glyph-name="dagger" unicode="&#x2020;" horiz-adv-x="1093" 
d="M696 1139h365v-269h-365v-1007h-297v1007h-364v269h364v393h297v-393z" />
    <glyph glyph-name="daggerdbl" unicode="&#x2021;" horiz-adv-x="1093" 
d="M696 1139h365v-269h-365v-346h365v-268h-365v-393h-297v393h-364v268h364v346h-364v269h364v393h297v-393z" />
    <glyph glyph-name="bullet" unicode="&#x2022;" horiz-adv-x="714" 
d="M358 780q106 0 182 -75.5t76 -182.5q0 -108 -76 -184t-182 -76q-109 0 -184.5 75.5t-75.5 184.5q0 107 75.5 182.5t184.5 75.5z" />
    <glyph glyph-name="ellipsis" unicode="&#x2026;" horiz-adv-x="1595" 
d="M258 340q75 0 128.5 -53t53.5 -129q0 -75 -53.5 -128t-128.5 -53t-127.5 53t-52.5 128q0 76 52.5 129t127.5 53zM780 340q75 0 129 -53t54 -129q0 -75 -54 -128t-129 -53t-127.5 53t-52.5 128q0 76 52.5 129t127.5 53zM1303 340q75 0 128.5 -53t53.5 -129
q0 -75 -53.5 -128t-128.5 -53t-128 53t-53 128q0 76 53 129t128 53z" />
    <glyph glyph-name="perthousand" unicode="&#x2030;" horiz-adv-x="2641" 
d="M426 1554q158 0 259 -106t101 -279q0 -172 -101 -278.5t-259 -106.5t-260.5 106.5t-102.5 278.5q0 173 102 279t261 106zM553 0h-289l1010 1532h289zM426 1346q-65 0 -104 -46.5t-39 -130.5q0 -83 39 -130.5t104 -47.5q64 0 102.5 47t38.5 131t-38 130.5t-103 46.5z
M1403 748q159 0 259.5 -105t100.5 -278t-101 -280.5t-259 -107.5t-260.5 107.5t-102.5 280.5t102 278t261 105zM2218 748q158 0 258 -105t100 -278q0 -174 -100 -281t-258 -107t-260.5 107.5t-102.5 280.5t102 278t261 105zM1403 541q-66 0 -104.5 -46.5t-38.5 -129.5
q0 -84 39 -131.5t104 -47.5t103 47t38 132q0 83 -38 129.5t-103 46.5zM2218 541q-66 0 -104.5 -46.5t-38.5 -129.5q0 -84 39 -131.5t104 -47.5q64 0 101.5 47t37.5 132q0 82 -37.5 129t-101.5 47z" />
    <glyph glyph-name="guilsinglleft" unicode="&#x2039;" horiz-adv-x="692" 
d="M657 815l-268 -287l268 -286l-213 -189l-413 475l413 476z" />
    <glyph glyph-name="guilsinglright" unicode="&#x203a;" horiz-adv-x="692" 
d="M662 528l-414 -475l-213 189l268 286l-268 287l213 189z" />
    <glyph glyph-name="fraction" unicode="&#x2044;" horiz-adv-x="454" 
d="M-139 0h-303l1036 1532h305z" />
    <glyph glyph-name="Euro" unicode="&#x20ac;" horiz-adv-x="1445" 
d="M1247 369l131 -265q-104 -67 -205 -97t-245 -30q-234 0 -415.5 138t-248.5 385h-244l70 184h143q-2 27 -2 82q0 49 2 72h-213l70 184h172q66 253 249.5 392.5t420.5 139.5q135 0 231 -31.5t189 -97.5l-99 -262q-127 111 -307 111q-124 0 -215.5 -64t-136.5 -188h604
l-70 -184h-573q-2 -23 -2 -72q0 -28 4 -82h510l-68 -184h-401q46 -118 137.5 -180t210.5 -62q167 0 301 111z" />
    <glyph glyph-name="trademark" unicode="&#x2122;" horiz-adv-x="1830" 
d="M739 1321h-239v-524h-219v524h-238v211h696v-211zM1712 797h-219v303l-166 -295h-98l-166 295v-303h-219v735h186l248 -445l248 445h186v-735z" />
    <glyph glyph-name="estimated" unicode="&#x212e;" horiz-adv-x="1236" 
d="M645 1108q109 0 201.5 -34.5t162.5 -100.5t110 -169.5t40 -232.5h-788v-362q0 -45 14 -75t57 -50q68 -47 203 -47q143 0 259.5 69t191.5 191l53 -35q-88 -137 -217.5 -213t-286.5 -76q-161 0 -289.5 69.5t-203 199t-74.5 297.5q0 254 161 411.5t406 157.5zM645 1042
q-131 0 -207 -49q-67 -29 -67 -121v-237h520v237q0 58 -13 86t-55 46q-65 38 -178 38z" />
    <glyph glyph-name="partialdiff" unicode="&#x2202;" horiz-adv-x="1259" 
d="M580 1554q591 0 591 -903q0 -325 -146.5 -499.5t-406.5 -174.5q-151 0 -272.5 63.5t-192.5 183.5t-71 276q0 223 144.5 357t373.5 134q144 0 254 -71q-11 179 -76 266.5t-190 87.5q-90 0 -158.5 -31.5t-130.5 -93.5l-168 260q102 72 206.5 108.5t242.5 36.5zM631 258
q100 0 162.5 66t62.5 172v18q-3 104 -65.5 167.5t-159.5 63.5q-98 0 -161.5 -66.5t-63.5 -174.5q0 -111 61.5 -178.5t163.5 -67.5z" />
    <glyph glyph-name="product" unicode="&#x220f;" horiz-adv-x="1353" 
d="M1315 1253h-195v-1589h-270v1589h-348v-1589h-269v1589h-196v279h1278v-279z" />
    <glyph glyph-name="summation" unicode="&#x2211;" horiz-adv-x="1228" 
d="M1145 1253h-686l364 -487l-364 -485h686v-281h-1049v231l400 535l-400 534v232h1049v-279z" />
    <glyph glyph-name="minus" unicode="&#x2212;" horiz-adv-x="1122" 
d="M1059 621h-996v278h996v-278z" />
    <glyph glyph-name="radical" unicode="&#x221a;" horiz-adv-x="1384" 
d="M1343 1317l-626 -1475l-316 656l-213 -133l-147 233l473 291l197 -436l389 966z" />
    <glyph glyph-name="infinity" unicode="&#x221e;" horiz-adv-x="1591" 
d="M1139 1036q170 0 280.5 -120t110.5 -293q0 -176 -110 -297t-281 -121q-197 0 -351 182l-28 33l-27 -33q-77 -73 -150 -112t-167 -39q-157 0 -256 110.5t-99 274.5q0 163 99 275t256 112q98 0 171 -41t144 -119l25 -29l22 25q57 62 101.5 99t112.5 65t147 28zM1139 784
q-57 0 -103.5 -32.5t-99.5 -96.5l-27 -37l29 -34q54 -60 100.5 -92.5t100.5 -32.5q64 0 101.5 47t37.5 117q0 69 -37.5 115t-101.5 46zM422 766q-57 0 -91 -41.5t-34 -103.5q0 -61 34 -102.5t91 -41.5q98 0 174 105l25 36l-25 31q-49 59 -89.5 88t-84.5 29z" />
    <glyph glyph-name="integral" unicode="&#x222b;" horiz-adv-x="688" 
d="M494 1554q109 0 219 -36l-49 -228q-61 23 -109 23q-80 0 -80 -101v-1228q0 -164 -70 -249t-206 -85q-113 0 -222 37l50 225q61 -21 98 -21q92 0 92 101v1231q0 162 70.5 246.5t206.5 84.5z" />
    <glyph glyph-name="approxequal" unicode="&#x2248;" horiz-adv-x="1114" 
d="M958 1202l136 -198q-72 -93 -151.5 -142t-178.5 -49q-57 0 -112.5 18.5t-92 41t-86 41t-96.5 18.5q-71 0 -121.5 -24.5t-99.5 -84.5l-136 199q71 92 150 140t178 48q53 0 106.5 -18.5t90 -40.5t87.5 -40.5t101 -18.5q72 0 124 25t101 85zM958 698l136 -198
q-71 -93 -150.5 -141t-179.5 -48q-57 0 -112.5 18.5t-92 40t-86 40t-96.5 18.5q-71 0 -121.5 -24.5t-99.5 -84.5l-136 199q145 189 328 189q53 0 106.5 -18.5t90 -41t87.5 -41t101 -18.5q72 0 124 25t101 85z" />
    <glyph glyph-name="notequal" unicode="&#x2260;" horiz-adv-x="1122" 
d="M721 868l-59 -221h397v-280h-471l-64 -244l-254 61l47 183h-254v280h328l58 221h-386v281h459l64 240l256 -60l-47 -180h264v-281h-338z" />
    <glyph glyph-name="lessequal" unicode="&#x2264;" horiz-adv-x="1101" 
d="M1038 1139l-381 -172l381 -172v-308l-979 480l979 477v-305zM1038 117h-979v278h979v-278z" />
    <glyph glyph-name="greaterequal" unicode="&#x2265;" horiz-adv-x="1101" 
d="M1042 967l-979 -480v308l383 172l-383 172v305zM1042 117h-979v278h979v-278z" />
    <glyph glyph-name="lozenge" unicode="&#x25ca;" horiz-adv-x="1142" 
d="M1085 709l-417 -822h-191l-420 822l420 823h191zM369 709l204 -398l203 398l-203 395z" />
    <glyph glyph-name="fl" unicode="&#xfb02;" horiz-adv-x="1372" 
d="M643 1604q51 0 105 -7v-258q-36 4 -70 4q-78 0 -128 -46t-50 -121v-117h245v-258h-245v-801h-297v801h-193v258h193v108q0 199 120 318t320 119zM1225 0h-299v1591h299v-1591z" />
    <glyph glyph-name="n.001" horiz-adv-x="1265" 
d="M717 1079q186 0 298.5 -112t112.5 -310v-657h-299v590q0 100 -49.5 155.5t-136.5 55.5q-89 0 -143 -58.5t-54 -154.5v-588h-299v1059h283v-115q33 58 108 96.5t179 38.5z" />
    <glyph glyph-name="germandbls.cap" horiz-adv-x="1439" 
d="M692 1548q359 0 570 -248l-215 -358q313 -128 313 -448q0 -233 -157.5 -371.5t-411.5 -138.5q-109 0 -207 20l61 279q53 -19 133 -19q110 0 183 65t73 175q0 70 -26 122.5t-78.5 87.5t-116.5 57t-156 40l220 387q-68 72 -197 72q-98 0 -161.5 -59.5t-63.5 -161.5v-1049
h-318v1044q0 152 73.5 267.5t199 176t282.5 60.5z" />
    <glyph glyph-name="a.sups" horiz-adv-x="935" 
d="M461 1550q370 0 370 -342v-526h-251v63q-33 -35 -92.5 -57t-135.5 -22q-135 0 -212 64t-77 183q0 241 369 263l133 8v43q0 50 -27 79t-77 29q-55 0 -85 -30.5t-30 -75.5l-260 8q0 122 103.5 217.5t271.5 95.5zM565 1022l-112 -8q-119 -10 -119 -84q0 -36 23.5 -54
t64.5 -18q58 -2 100.5 32t42.5 95v37z" />
    <glyph glyph-name="b.sups" horiz-adv-x="1081" 
d="M379 1956v-477q33 31 91 51t130 20q184 0 298 -122.5t114 -321.5q0 -196 -114.5 -318t-297.5 -122q-80 0 -141.5 23.5t-96.5 60.5v-68h-249v1274h266zM557 1321q-80 0 -130 -53.5t-50 -143.5v-34q0 -90 50 -143.5t130 -53.5q85 0 135.5 56t50.5 157t-50.5 158t-135.5 57z
" />
    <glyph glyph-name="c.sups" horiz-adv-x="976" 
d="M510 1550q160 0 272.5 -89t135.5 -242l-261 -23q-8 57 -47 91t-100 34q-78 0 -124 -57t-46 -158q0 -100 47 -156.5t123 -56.5q61 0 100 33t47 90l261 -23q-23 -152 -135 -239.5t-273 -87.5q-195 0 -317.5 118.5t-122.5 321.5q0 205 122.5 324.5t317.5 119.5z" />
    <glyph glyph-name="d.sups" horiz-adv-x="1081" 
d="M969 682h-252v68q-33 -36 -95.5 -60t-142.5 -24q-182 0 -295.5 122t-113.5 318q0 199 113.5 321.5t295.5 122.5q72 0 131 -20t92 -51v477h267v-1274zM524 1321q-84 0 -134 -57t-50 -158t49.5 -157t134.5 -56q80 0 129 53.5t49 143.5v34q0 90 -49 143.5t-129 53.5z" />
    <glyph glyph-name="e.sups" horiz-adv-x="985" 
d="M915 1026h-563q3 -68 42.5 -107.5t111.5 -39.5q53 0 87.5 23t45.5 61l268 -15q-22 -126 -133 -204t-262 -78q-200 0 -321 119t-121 321q0 204 120 324t316 120q186 0 297.5 -113t111.5 -313v-98zM504 1341q-64 0 -104 -38t-46 -103h293q-5 66 -40.5 103.5t-102.5 37.5z
" />
    <glyph glyph-name="f.sups" horiz-adv-x="630" 
d="M528 1966q48 0 88 -6v-229q-14 4 -57 4q-59 0 -97 -34.5t-38 -88.5v-80h192v-229h-192v-621h-266v621h-150v229h150v74q0 162 102 261t268 99z" />
    <glyph glyph-name="g.sups" horiz-adv-x="1073" 
d="M479 1550q80 0 142 -24.5t96 -61.5v68h252v-877q0 -185 -119 -295t-318 -110t-309.5 88t-134.5 244l266 10q4 -55 49 -87t119 -32q84 0 132 41.5t48 122.5v98q-76 -69 -223 -69q-182 0 -295.5 122t-113.5 318q0 199 113.5 321.5t295.5 122.5zM524 1321q-84 0 -134 -57
t-50 -158t49.5 -157t134.5 -56q80 0 129 53.5t49 143.5v34q0 90 -49 143.5t-129 53.5z" />
    <glyph glyph-name="h.sups" horiz-adv-x="1013" 
d="M379 1956v-481q71 75 205 75q150 0 239.5 -90t89.5 -250v-528h-266v467q0 73 -34.5 113.5t-96.5 40.5q-63 0 -100 -42.5t-37 -113.5v-465h-266v1274h266z" />
    <glyph glyph-name="i.sups" horiz-adv-x="489" 
d="M246 1960q65 0 110 -46t45 -112t-45 -110.5t-110 -44.5q-66 0 -112 44.5t-46 110.5t46.5 112t111.5 46zM379 682h-266v850h266v-850z" />
    <glyph glyph-name="j.sups" horiz-adv-x="489" 
d="M244 1960q66 0 111.5 -46t45.5 -112t-45.5 -110.5t-111.5 -44.5t-111 44.5t-45 110.5t45 112t111 46zM379 1532v-920q0 -164 -101.5 -262t-267.5 -98q-50 0 -90 6v231q24 -6 60 -6q59 0 96 35t37 90v924h266z" />
    <glyph glyph-name="k.sups" horiz-adv-x="972" 
d="M379 1249l246 283h321l-311 -363l332 -487h-322l-196 291l-70 -80v-211h-266v1274h266v-707z" />
    <glyph glyph-name="l.sups" horiz-adv-x="489" 
d="M379 682h-266v1274h266v-1274z" />
    <glyph glyph-name="m.sups" horiz-adv-x="1521" 
d="M1094 1550q149 0 236 -89.5t87 -250.5v-528h-266v467q0 74 -31 114t-92 40q-62 0 -95.5 -42t-33.5 -114v-465h-266v467q0 154 -125 154q-62 0 -95.5 -42t-33.5 -114v-465h-266v850h249v-66q68 84 213 84q180 0 265 -123q89 123 254 123z" />
    <glyph glyph-name="n.sups" horiz-adv-x="1017" 
d="M584 1550q150 0 239.5 -90t89.5 -250v-528h-266v467q0 73 -34.5 113.5t-96.5 40.5q-63 0 -100 -42.5t-37 -113.5v-465h-266v850h249v-66q28 35 85.5 59.5t136.5 24.5z" />
    <glyph glyph-name="o.sups" horiz-adv-x="1050" 
d="M524 1550q200 0 328.5 -123t128.5 -321q0 -197 -128.5 -318.5t-328.5 -121.5t-327 121t-127 319t127.5 321t326.5 123zM524 1321q-84 0 -134 -57.5t-50 -157.5q0 -99 50 -156t134 -57q86 0 137.5 57t51.5 156q0 100 -51.5 157.5t-137.5 57.5z" />
    <glyph glyph-name="p.sups" horiz-adv-x="1081" 
d="M600 1550q184 0 298 -122.5t114 -321.5q0 -196 -114.5 -318t-297.5 -122q-72 0 -130.5 19t-90.5 50v-471h-266v1268h249v-68q36 37 97.5 61.5t140.5 24.5zM557 1321q-80 0 -130 -53.5t-50 -143.5v-34q0 -90 50 -143.5t130 -53.5q85 0 135.5 56t50.5 157t-50.5 158
t-135.5 57z" />
    <glyph glyph-name="q.sups" horiz-adv-x="1081" 
d="M479 1550q80 0 142 -24.5t96 -61.5v68h252v-1268h-267v471q-32 -31 -91.5 -50t-131.5 -19q-182 0 -295.5 122t-113.5 318q0 199 113.5 321.5t295.5 122.5zM524 1321q-84 0 -134 -57t-50 -158t49.5 -157t134.5 -56q80 0 129 53.5t49 143.5v34q0 90 -49 143.5t-129 53.5z
" />
    <glyph glyph-name="r.sups" horiz-adv-x="626" 
d="M598 1540v-256q-101 0 -160 -50.5t-59 -135.5v-416h-266v850h256v-76q73 84 229 84z" />
    <glyph glyph-name="s.sups" horiz-adv-x="831" 
d="M410 1550q161 0 251 -77t103 -205l-266 -17q-3 95 -88 95q-39 0 -60.5 -15.5t-21.5 -44.5q0 -8 2 -14.5t7 -12.5t10 -10t14.5 -8.5t17.5 -7t22 -6.5t24.5 -6.5t28.5 -7t31 -7.5q71 -19 117 -37.5t88 -47.5t62 -70.5t20 -98.5q0 -132 -93 -209t-263 -77q-167 0 -262 73
t-107 209l266 15q2 -44 27 -69.5t76 -25.5q43 0 66.5 16.5t23.5 47.5q0 30 -26.5 44.5t-114.5 37.5q-81 19 -128.5 36t-92 46t-64 73t-19.5 107q0 126 93.5 200t255.5 74z" />
    <glyph glyph-name="t.sups" horiz-adv-x="669" 
d="M557 903q34 0 74 8v-237q-74 -8 -139 -8q-151 0 -237 72.5t-85 219.5l2 345h-156v229h156l2 278h266l-2 -278h191v-229h-193l-2 -287q0 -60 35 -86.5t88 -26.5z" />
    <glyph glyph-name="u.sups" horiz-adv-x="993" 
d="M881 682h-250v66q-70 -82 -213 -82q-149 0 -231.5 83.5t-82.5 239.5v543h267v-477q0 -72 27.5 -107t88.5 -35q60 0 93.5 37t33.5 103v479h267v-850z" />
    <glyph glyph-name="v.sups" horiz-adv-x="958" 
d="M584 682h-209l-369 850h291l182 -436l180 436h291z" />
    <glyph glyph-name="w.sups" horiz-adv-x="1404" 
d="M1071 682h-207l-162 459l-161 -459h-207l-328 850h291l158 -438l155 438h185l157 -438l156 438h291z" />
    <glyph glyph-name="x.sups" horiz-adv-x="923" 
d="M647 1110l262 -428h-305l-143 242l-137 -242h-308l260 426l-258 424h304l139 -240l141 240h303z" />
    <glyph glyph-name="y.sups" horiz-adv-x="958" 
d="M403 264h-290l221 512l-324 756h291l178 -436l178 436h291z" />
    <glyph glyph-name="z.sups" horiz-adv-x="757" 
d="M688 1348l-326 -451h338v-215h-645v184l326 451h-318v215h625v-184z" />
    <glyph glyph-name="zero.onum" horiz-adv-x="1337" 
d="M668 1231q262 0 422.5 -169.5t160.5 -455.5q0 -288 -160.5 -458.5t-422.5 -170.5t-422 170.5t-160 458.5q0 286 160 455.5t422 169.5zM670 952q-120 0 -189 -92t-69 -254q0 -164 69 -256t189 -92q118 0 187 92.5t69 255.5q0 162 -69 254t-187 92z" />
    <glyph glyph-name="one.onum" horiz-adv-x="804" 
d="M649 0h-315v819l-203 -145l-131 250l418 284h231v-1208z" />
    <glyph glyph-name="two.onum" horiz-adv-x="1110" 
d="M569 1231q230 0 349.5 -115.5t119.5 -310.5q0 -131 -67.5 -229.5t-188.5 -186.5l-149 -108h414v-281h-947v242l424 295q105 72 151 126t46 136q0 73 -37.5 112t-108.5 39q-76 0 -117.5 -51t-43.5 -145l-316 16q3 216 129 338.5t342 122.5z" />
    <glyph glyph-name="three.onum" horiz-adv-x="1163" 
d="M575 1231q225 0 350.5 -121t125.5 -328q0 -117 -45 -191t-123 -124q85 -32 139.5 -121t54.5 -215q0 -221 -137.5 -349t-361.5 -128q-239 0 -369.5 124.5t-136.5 342.5l315 18q5 -98 52 -151.5t136 -53.5t137 53t48 150q0 95 -55 144t-148 49h-158v270h154
q79 0 129.5 47.5t50.5 130.5q0 85 -41 128.5t-117 43.5q-77 0 -121 -49t-48 -141l-314 16q5 213 130 334t353 121z" />
    <glyph glyph-name="four.onum" horiz-adv-x="1234" 
d="M961 225h227v-280h-227v-269h-285v269h-621v260l656 1003h250v-983zM377 225h297v453z" />
    <glyph glyph-name="five.onum" horiz-adv-x="1167" 
d="M614 649q208 0 339.5 -127t131.5 -358q0 -233 -138.5 -371.5t-373.5 -138.5q-229 0 -360 120.5t-137 325.5l315 19q5 -87 51.5 -136t132.5 -49q93 0 143 60.5t50 161.5q0 100 -49 156.5t-135 56.5q-90 0 -164 -54h-293v893h899v-278h-584v-316q72 35 172 35z" />
    <glyph glyph-name="six.onum" horiz-adv-x="1245" 
d="M1075 1532l-381 -531q208 -21 339.5 -159.5t131.5 -349.5q0 -153 -70 -271t-192 -181t-276 -63q-236 0 -389.5 142.5t-153.5 372.5q0 168 113 329l499 711h379zM625 258q99 0 160 66t61 178t-60.5 175.5t-160.5 63.5q-116 0 -176 -82q-43 -58 -43 -157q0 -112 60 -178
t159 -66z" />
    <glyph glyph-name="seven.onum" horiz-adv-x="1107" 
d="M1047 954l-598 -1278h-347l598 1254h-661v278h1008v-254z" />
    <glyph glyph-name="eight.onum" horiz-adv-x="1259" 
d="M627 1554q217 0 357 -117t140 -315q0 -195 -147 -303q88 -59 137 -151.5t49 -212.5q0 -145 -70 -254.5t-190.5 -166.5t-273.5 -57q-234 0 -384.5 130t-150.5 348q0 118 49 210.5t136 151.5q-146 107 -146 305q0 132 64.5 231t176 150t253.5 51zM629 1274
q-78 0 -129 -46.5t-51 -127.5q0 -76 51.5 -122t128.5 -46q79 0 129.5 45.5t50.5 122.5q0 81 -50 127.5t-130 46.5zM629 678q-95 0 -157 -56t-62 -153t62 -154t157 -57q96 0 157.5 56.5t61.5 154.5q0 97 -61.5 153t-157.5 56z" />
    <glyph glyph-name="nine.onum" horiz-adv-x="1245" 
d="M618 1231q236 0 389.5 -142t153.5 -372q0 -170 -112 -330l-500 -711h-379l381 531q-208 21 -339.5 160t-131.5 350q0 230 151.5 372t386.5 142zM621 467q116 0 176 82q43 58 43 158q0 112 -60 177.5t-159 65.5t-160.5 -66t-61.5 -177q0 -112 61 -176t161 -64z" />
    <glyph glyph-name="zero.slash" horiz-adv-x="1335" 
d="M668 1554q261 0 420 -207t159 -581q0 -373 -159 -581t-420 -208q-264 0 -423 207.5t-159 581.5q0 375 159 581.5t423 206.5zM668 1274q-260 0 -260 -508q0 -150 20 -250l363 719q-51 39 -123 39zM668 258q258 0 258 508q0 133 -19 244l-360 -715q52 -37 121 -37z" />
    <glyph glyph-name="zero.subs" horiz-adv-x="761" 
d="M383 692q147 0 238.5 -114.5t91.5 -319.5q0 -207 -91.5 -321.5t-238.5 -114.5q-149 0 -241.5 114.5t-92.5 321.5q0 205 92.5 319.5t241.5 114.5zM381 487q-54 0 -76 -55.5t-22 -173.5q0 -119 22 -175t76 -56t76 56t22 175q0 118 -22 173.5t-76 55.5z" />
    <glyph glyph-name="one.subs" horiz-adv-x="479" 
d="M414 -164h-230v541l-96 -64l-96 187l276 178h146v-842z" />
    <glyph glyph-name="two.subs" horiz-adv-x="653" 
d="M319 692q141 0 213 -74.5t72 -197.5q0 -80 -33.5 -147t-95.5 -136l-88 -98h221v-203h-565v158l266 287q35 36 50.5 67.5t15.5 73.5q0 31 -13 48t-36 17q-28 0 -44 -19.5t-16 -55.5l-225 12q1 124 77 196t201 72z" />
    <glyph glyph-name="three.subs" horiz-adv-x="673" 
d="M332 692q132 0 204 -68t72 -188q0 -106 -88 -166q43 -21 70.5 -68t27.5 -110q0 -125 -80 -197.5t-208 -72.5q-138 0 -212.5 71.5t-76.5 192.5l231 16q3 -75 58 -75q27 0 43 18.5t16 52.5q0 37 -19 55.5t-51 18.5h-92v184h88q29 0 49.5 18.5t20.5 49.5q0 30 -14.5 46.5
t-38.5 16.5q-56 0 -56 -67l-223 12q0 123 72 191.5t207 68.5z" />
    <glyph glyph-name="four.subs" horiz-adv-x="718" 
d="M594 168h90v-203h-90v-129h-229v129h-336v178l344 535h221v-510zM229 168h136v201z" />
    <glyph glyph-name="five.subs" horiz-adv-x="663" 
d="M358 385q116 0 190.5 -70t74.5 -202q0 -135 -80 -213t-215 -78q-131 0 -207 69t-78 181l227 14q6 -59 60 -59q30 0 46.5 21t16.5 58q0 74 -63 74q-29 0 -56 -20h-202v518h516v-203h-287v-96q24 6 57 6z" />
    <glyph glyph-name="six.subs" horiz-adv-x="720" 
d="M647 678l-201 -287q100 -24 162 -98.5t62 -179.5q0 -129 -87.5 -210t-220.5 -81q-135 0 -223 81t-88 210q0 89 64 186l254 379h278zM360 27q35 0 56.5 25.5t21.5 68.5q0 88 -78 88q-39 0 -59 -27l-2 -2q-16 -28 -16 -59q0 -43 21 -68.5t56 -25.5z" />
    <glyph glyph-name="seven.subs" horiz-adv-x="647" 
d="M600 500l-287 -664h-252l277 639h-307v203h569v-178z" />
    <glyph glyph-name="eight.subs" horiz-adv-x="724" 
d="M360 692q126 0 207.5 -67.5t81.5 -182.5q0 -90 -63 -153q88 -76 88 -193q0 -125 -88.5 -199.5t-223.5 -74.5q-136 0 -223.5 74.5t-87.5 199.5q0 114 86 191q-63 66 -63 155q0 115 80 182.5t206 67.5zM362 487q-31 0 -52 -19.5t-21 -53.5q0 -32 21 -51t52 -19
q32 0 52 18.5t20 51.5q0 34 -20 53.5t-52 19.5zM362 186q-35 0 -58 -21.5t-23 -58.5t23 -58t58 -21q36 0 58 21t22 58q0 38 -22 59t-58 21z" />
    <glyph glyph-name="nine.subs" horiz-adv-x="720" 
d="M358 692q135 0 223.5 -81t88.5 -210q0 -91 -66 -186l-252 -379h-276l200 287q-102 24 -163.5 98t-61.5 180q0 129 87 210t220 81zM360 305q39 0 62 29q16 28 16 59q0 43 -21.5 68.5t-56.5 25.5q-36 0 -57.5 -25t-21.5 -67q0 -44 21 -67t58 -23z" />
    <glyph glyph-name="zero.sups" horiz-adv-x="761" 
d="M383 1679q147 0 238.5 -114.5t91.5 -319.5q0 -207 -91.5 -321.5t-238.5 -114.5q-149 0 -241.5 114.5t-92.5 321.5q0 205 92.5 319.5t241.5 114.5zM381 1475q-54 0 -76 -56t-22 -174q0 -119 22 -175t76 -56t76 56t22 175q0 118 -22 174t-76 56z" />
    <glyph glyph-name="one.sups" horiz-adv-x="479" 
d="M414 823h-230v541l-96 -64l-96 187l276 178h146v-842z" />
    <glyph glyph-name="two.sups" horiz-adv-x="653" 
d="M319 1679q141 0 213 -74.5t72 -197.5q0 -80 -33.5 -147t-95.5 -136l-88 -98h221v-203h-565v158l266 287q35 36 50.5 67.5t15.5 73.5q0 31 -13 48.5t-36 17.5q-28 0 -44 -20t-16 -56l-225 12q1 124 77 196t201 72z" />
    <glyph glyph-name="three.sups" horiz-adv-x="673" 
d="M332 1679q132 0 204 -68t72 -188q0 -106 -88 -166q43 -21 70.5 -68t27.5 -110q0 -125 -80 -197.5t-208 -72.5q-138 0 -212.5 71.5t-76.5 192.5l231 17q3 -76 58 -76q27 0 43 18.5t16 52.5q0 37 -19 55.5t-51 18.5h-92v184h88q29 0 49.5 18.5t20.5 49.5q0 30 -14.5 47
t-38.5 17q-56 0 -56 -68l-223 12q0 123 72 191.5t207 68.5z" />
    <glyph glyph-name="four.sups" horiz-adv-x="718" 
d="M594 1155h90v-203h-90v-129h-229v129h-336v178l344 535h221v-510zM229 1155h136v201z" />
    <glyph glyph-name="five.sups" horiz-adv-x="663" 
d="M358 1372q116 0 190.5 -70t74.5 -202q0 -135 -80 -213t-215 -78q-131 0 -207 69t-78 181l227 14q6 -59 60 -59q30 0 46.5 21.5t16.5 58.5q0 73 -63 73q-29 0 -56 -20h-202v518h516v-203h-287v-96q24 6 57 6z" />
    <glyph glyph-name="six.sups" horiz-adv-x="720" 
d="M647 1665l-201 -287q100 -24 162 -98.5t62 -179.5q0 -129 -87.5 -210t-220.5 -81q-135 0 -223 81t-88 210q0 89 64 186l254 379h278zM360 1014q35 0 56.5 25.5t21.5 68.5q0 88 -78 88q-39 0 -59 -27l-2 -2q-16 -28 -16 -59q0 -43 21 -68.5t56 -25.5z" />
    <glyph glyph-name="seven.sups" horiz-adv-x="647" 
d="M600 1487l-287 -664h-252l277 639h-307v203h569v-178z" />
    <glyph glyph-name="eight.sups" horiz-adv-x="724" 
d="M360 1679q126 0 207.5 -67.5t81.5 -181.5q0 -91 -63 -154q88 -76 88 -193q0 -125 -88.5 -199.5t-223.5 -74.5q-136 0 -223.5 74.5t-87.5 199.5q0 114 86 191q-63 66 -63 156q0 115 80 182t206 67zM362 1475q-31 0 -52 -20t-21 -54q0 -32 21 -51t52 -19q32 0 52 18.5
t20 51.5q0 34 -20 54t-52 20zM362 1174q-35 0 -58 -21.5t-23 -58.5t23 -58.5t58 -21.5q36 0 58 21t22 59t-22 59t-58 21z" />
    <glyph glyph-name="nine.sups" horiz-adv-x="720" 
d="M358 1679q135 0 223.5 -80.5t88.5 -209.5q0 -92 -66 -187l-252 -379h-276l200 287q-101 24 -163 98.5t-62 180.5q0 129 87 209.5t220 80.5zM360 1292q39 0 62 29q16 28 16 59q0 43 -21.5 69t-56.5 26q-36 0 -57.5 -25.5t-21.5 -67.5q0 -44 21 -67t58 -23z" />
    <glyph glyph-name="zero.tnum" horiz-adv-x="1331" 
d="M664 1554q263 0 422 -207t159 -581q0 -373 -159.5 -581t-421.5 -208q-263 0 -422.5 208t-159.5 581q0 374 159.5 581t422.5 207zM664 1274q-258 0 -258 -508t258 -508q260 0 260 508t-260 508z" />
    <glyph glyph-name="one.tnum" horiz-adv-x="1331" 
d="M893 281h266v-281h-880v281h299v854l-205 -140l-135 246l424 291h231v-1251z" />
    <glyph glyph-name="two.tnum" horiz-adv-x="1331" 
d="M676 1554q223 0 346 -113t123 -323q0 -73 -15.5 -142t-39 -122.5t-62.5 -111t-73.5 -98.5t-84.5 -95l-252 -268h535v-281h-946v248l422 465q116 126 157 203.5t41 187.5q0 80 -38 125t-107 45q-159 0 -162 -215l-315 18q3 224 126.5 350.5t344.5 126.5z" />
    <glyph glyph-name="three.tnum" horiz-adv-x="1331" 
d="M666 1554q225 0 350 -120.5t125 -327.5q0 -117 -45 -191t-123 -124q84 -32 139 -121.5t55 -214.5q0 -221 -137.5 -349.5t-361.5 -128.5q-239 0 -369.5 124.5t-136.5 342.5l315 19q5 -97 52.5 -151t136.5 -54t136.5 53t47.5 150q0 95 -55 143.5t-148 48.5h-158v271h154
q79 0 129.5 47.5t50.5 130.5q0 85 -40.5 128.5t-116.5 43.5q-77 0 -121.5 -49.5t-48.5 -141.5l-314 17q3 213 129.5 333.5t354.5 120.5z" />
    <glyph glyph-name="four.tnum" horiz-adv-x="1331" 
d="M993 549h228v-281h-228v-268h-284v268h-621v260l655 1004h250v-983zM410 549h299v452z" />
    <glyph glyph-name="five.tnum" horiz-adv-x="1331" 
d="M696 973q208 0 339.5 -127.5t131.5 -358.5q0 -233 -138.5 -371.5t-375.5 -138.5q-227 0 -358 121t-137 326l315 18q5 -87 51 -135.5t131 -48.5q94 0 144.5 60t50.5 161q0 100 -49 156.5t-135 56.5q-92 0 -164 -53h-293v893h897v-279h-582v-315q72 35 172 35z" />
    <glyph glyph-name="six.tnum" horiz-adv-x="1331" 
d="M1114 1532l-381 -531q207 -21 339 -159.5t132 -349.5q0 -230 -152.5 -372.5t-385.5 -142.5q-236 0 -389.5 142.5t-153.5 372.5q0 168 113 329l499 711h379zM664 258q99 0 160 66t61 178t-60.5 175.5t-160.5 63.5q-117 0 -177 -82q-45 -61 -45 -157q0 -111 61.5 -177.5
t160.5 -66.5z" />
    <glyph glyph-name="seven.tnum" horiz-adv-x="1331" 
d="M1143 1278l-598 -1278h-348l598 1253h-660v279h1008v-254z" />
    <glyph glyph-name="eight.tnum" horiz-adv-x="1331" 
d="M664 1554q217 0 357 -117t140 -315q0 -195 -147 -303q88 -59 137 -151.5t49 -212.5q0 -145 -70 -254.5t-190.5 -166.5t-273.5 -57q-234 0 -384.5 130t-150.5 348q0 119 48.5 211t135.5 151q-147 108 -147 305q0 198 139.5 315t356.5 117zM666 1274q-78 0 -129.5 -46.5
t-51.5 -127.5q0 -76 52 -122t129 -46q79 0 129.5 45.5t50.5 122.5q0 81 -50 127.5t-130 46.5zM666 678q-96 0 -158 -56t-62 -153t62 -154t158 -57t157.5 56.5t61.5 154.5q0 97 -61.5 153t-157.5 56z" />
    <glyph glyph-name="nine.tnum" horiz-adv-x="1331" 
d="M666 1554q236 0 389 -142t153 -372q0 -94 -28 -171.5t-84 -157.5l-500 -711h-379l381 530q-207 21 -339 160t-132 350q0 152 70.5 270t193 181t275.5 63zM668 791q116 0 176 81q45 61 45 158q0 112 -61 178t-160 66t-160.5 -66.5t-61.5 -177.5q0 -112 61 -175.5
t161 -63.5z" />
    <glyph glyph-name="zero.dnom" horiz-adv-x="761" 
d="M383 856q147 0 238.5 -114.5t91.5 -319.5q0 -207 -91.5 -321.5t-238.5 -114.5q-149 0 -241.5 114.5t-92.5 321.5q0 205 92.5 319.5t241.5 114.5zM381 651q-54 0 -76 -55.5t-22 -173.5q0 -119 22 -175.5t76 -56.5t76 56.5t22 175.5q0 118 -22 173.5t-76 55.5z" />
    <glyph glyph-name="one.dnom" horiz-adv-x="479" 
d="M414 0h-230v541l-96 -64l-96 187l276 178h146v-842z" />
    <glyph glyph-name="two.dnom" horiz-adv-x="653" 
d="M319 856q141 0 213 -74.5t72 -197.5q0 -80 -33.5 -147t-95.5 -136l-88 -98h221v-203h-565v158l266 286q34 36 50 68t16 74q0 31 -13 48t-36 17q-28 0 -44 -20t-16 -56l-225 13q1 124 77 196t201 72z" />
    <glyph glyph-name="three.dnom" horiz-adv-x="673" 
d="M332 856q132 0 204 -68t72 -188q0 -106 -88 -166q43 -21 70.5 -68t27.5 -110q0 -125 -80 -197.5t-208 -72.5q-138 0 -212.5 71.5t-76.5 192.5l231 16q3 -76 58 -76q27 0 43 19t16 53q0 37 -19 55.5t-51 18.5h-92v184h88q29 0 49.5 18.5t20.5 49.5q0 30 -14.5 46.5
t-38.5 16.5q-56 0 -56 -67l-223 12q0 123 72 191.5t207 68.5z" />
    <glyph glyph-name="four.dnom" horiz-adv-x="718" 
d="M594 332h90v-203h-90v-129h-229v129h-336v178l344 535h221v-510zM229 332h136v200z" />
    <glyph glyph-name="five.dnom" horiz-adv-x="663" 
d="M358 549q116 0 190.5 -70.5t74.5 -202.5q0 -134 -79.5 -212t-215.5 -78q-131 0 -207 69t-78 181l227 14q6 -60 60 -60q30 0 46.5 21.5t16.5 58.5q0 74 -63 74q-29 0 -56 -20h-202v518h516v-203h-287v-96q24 6 57 6z" />
    <glyph glyph-name="six.dnom" horiz-adv-x="720" 
d="M647 842l-201 -287q100 -24 162 -99t62 -180q0 -129 -87 -209.5t-221 -80.5q-135 0 -223 80.5t-88 209.5q0 90 64 187l254 379h278zM360 190q35 0 56.5 26t21.5 69q0 88 -78 88q-39 0 -59 -27l-2 -2q-16 -28 -16 -59q0 -43 21 -69t56 -26z" />
    <glyph glyph-name="seven.dnom" horiz-adv-x="647" 
d="M600 664l-287 -664h-252l277 639h-307v203h569v-178z" />
    <glyph glyph-name="eight.dnom" horiz-adv-x="724" 
d="M360 856q126 0 207.5 -67.5t81.5 -182.5q0 -90 -63 -153q88 -76 88 -193q0 -125 -88.5 -199.5t-223.5 -74.5q-136 0 -223.5 74.5t-87.5 199.5q0 114 86 191q-63 66 -63 155q0 115 80 182.5t206 67.5zM362 651q-31 0 -52 -19.5t-21 -53.5q0 -32 21 -51t52 -19
q32 0 52 18.5t20 51.5q0 34 -20 53.5t-52 19.5zM362 350q-35 0 -58 -21.5t-23 -58.5t23 -58.5t58 -21.5q36 0 58 21t22 59t-22 59t-58 21z" />
    <glyph glyph-name="nine.dnom" horiz-adv-x="720" 
d="M358 856q135 0 223.5 -81t88.5 -210q0 -91 -66 -186l-252 -379h-276l200 287q-102 24 -163.5 98t-61.5 180q0 129 87 210t220 81zM360 469q39 0 62 29q16 28 16 59q0 43 -21.5 68.5t-56.5 25.5q-36 0 -57.5 -25t-21.5 -67q0 -44 21 -67t58 -23z" />
    <glyph glyph-name="zero.numr" horiz-adv-x="761" 
d="M383 1513q147 0 238.5 -114.5t91.5 -319.5q0 -207 -91.5 -321.5t-238.5 -114.5q-149 0 -241.5 114.5t-92.5 321.5q0 205 92.5 319.5t241.5 114.5zM381 1309q-54 0 -76 -56t-22 -174q0 -119 22 -175t76 -56t76 56t22 175q0 118 -22 174t-76 56z" />
    <glyph glyph-name="one.numr" horiz-adv-x="479" 
d="M414 659h-230v541l-96 -63l-96 186l276 178h146v-842z" />
    <glyph glyph-name="two.numr" horiz-adv-x="653" 
d="M319 1513q141 0 213 -74.5t72 -197.5q0 -80 -33.5 -147t-95.5 -136l-88 -98h221v-203h-565v158l266 287q35 36 50.5 67.5t15.5 73.5q0 31 -13 48.5t-36 17.5q-28 0 -44 -20t-16 -56l-225 12q1 124 77 196t201 72z" />
    <glyph glyph-name="three.numr" horiz-adv-x="673" 
d="M332 1513q132 0 204 -68t72 -188q0 -105 -88 -165q43 -21 70.5 -68.5t27.5 -110.5q0 -125 -80 -197.5t-208 -72.5q-138 0 -212.5 71.5t-76.5 192.5l231 17q3 -76 58 -76q27 0 43 19t16 53q0 73 -70 73h-92v185h88q29 0 49.5 18t20.5 49q0 30 -14.5 47t-38.5 17
q-56 0 -56 -68l-223 12q0 123 72 191.5t207 68.5z" />
    <glyph glyph-name="four.numr" horiz-adv-x="718" 
d="M594 989h90v-203h-90v-129h-229v129h-336v179l344 534h221v-510zM229 989h136v201z" />
    <glyph glyph-name="five.numr" horiz-adv-x="663" 
d="M358 1208q116 0 190.5 -70t74.5 -202q0 -135 -80 -213t-215 -78q-131 0 -207 69t-78 181l227 14q6 -59 60 -59q30 0 46.5 21.5t16.5 58.5q0 74 -63 74q-28 0 -56 -21h-202v518h516v-203h-287v-96q24 6 57 6z" />
    <glyph glyph-name="six.numr" horiz-adv-x="720" 
d="M647 1499l-201 -287q100 -24 162 -98.5t62 -179.5q0 -129 -87.5 -210t-220.5 -81q-135 0 -223 81t-88 210q0 89 64 186l254 379h278zM360 848q35 0 56.5 25.5t21.5 68.5q0 88 -78 88q-40 0 -59 -26l-2 -3q-16 -28 -16 -59q0 -43 21 -68.5t56 -25.5z" />
    <glyph glyph-name="seven.numr" horiz-adv-x="647" 
d="M600 1323l-287 -664h-252l277 639h-307v203h569v-178z" />
    <glyph glyph-name="eight.numr" horiz-adv-x="724" 
d="M360 1513q126 0 207.5 -67.5t81.5 -181.5q0 -91 -63 -154q88 -76 88 -192q0 -125 -88.5 -200t-223.5 -75q-136 0 -223.5 75t-87.5 200q0 113 86 190q-63 66 -63 156q0 115 80 182t206 67zM362 1309q-31 0 -52 -20t-21 -54q0 -32 21 -51t52 -19q32 0 52 18.5t20 51.5
q0 34 -20 54t-52 20zM362 1008q-35 0 -58 -21.5t-23 -58.5t23 -58.5t58 -21.5q36 0 58 21t22 59t-22 59t-58 21z" />
    <glyph glyph-name="nine.numr" horiz-adv-x="720" 
d="M358 1513q135 0 223.5 -80.5t88.5 -209.5q0 -92 -66 -187l-252 -379h-276l200 287q-101 24 -163 98.5t-62 180.5q0 129 87 209.5t220 80.5zM360 1126q39 0 62 29q16 28 16 59q0 43 -21.5 69t-56.5 26q-36 0 -57.5 -25t-21.5 -67q0 -44 21 -67.5t58 -23.5z" />
    <glyph glyph-name="periodcentered.cap" horiz-adv-x="550" 
d="M258 1083q75 0 128.5 -53t53.5 -129q0 -75 -53.5 -127.5t-128.5 -52.5t-127.5 52.5t-52.5 127.5q0 76 52.5 129t127.5 53z" />
    <glyph glyph-name="exclamdown.cap" horiz-adv-x="663" 
d="M334 1192q-75 0 -128.5 53t-53.5 129q0 75 53.5 127.5t128.5 52.5q74 0 126 -52.5t52 -127.5q0 -76 -52 -129t-126 -53zM174 1065h315l17 -1065h-348z" />
    <glyph glyph-name="questiondown.cap" horiz-adv-x="1095" 
d="M547 1192q-75 0 -128.5 53t-53.5 129q0 75 53.5 127.5t128.5 52.5t127.5 -52.5t52.5 -127.5q0 -76 -52.5 -129t-127.5 -53zM547 -25q-237 0 -375.5 125.5t-138.5 339.5q0 61 16 111.5t49 93t61.5 70t76.5 65.5q80 64 115.5 110t35.5 109v66h318v-78q0 -47 -15 -90
t-45 -82.5t-60.5 -69.5t-76.5 -69q-76 -63 -114 -115t-38 -117q0 -88 51 -139t140 -51t142 54t59 151l315 -21q-7 -210 -148.5 -336.5t-367.5 -126.5z" />
    <glyph glyph-name="braceleft.cap" horiz-adv-x="620" 
d="M578 1329h-13q-93 0 -120.5 -58t-4.5 -208q10 -79 9 -142.5t-37.5 -106t-110.5 -50.5q74 -9 110.5 -52t37.5 -106.5t-9 -142.5q-23 -150 4.5 -208t120.5 -58h13v-248h-13q-111 0 -198 29.5t-147 89.5t-79.5 151t4.5 215q12 52 16.5 80t4 56.5t-13 41.5t-36.5 21t-65 8
h-16v244h16q41 0 65 8t36.5 21t13 41.5t-4 56.5t-16.5 80q-24 124 -4.5 215t79.5 151t147 89.5t198 29.5h13v-248z" />
    <glyph glyph-name="braceright.cap" horiz-adv-x="620" 
d="M43 1577h12q111 0 198 -29.5t147 -89.5t79.5 -151t-4.5 -215q-12 -52 -16.5 -80t-4 -56.5t13 -41.5t36.5 -21t65 -8h17v-244h-17q-41 0 -65 -8t-36.5 -21t-13 -41.5t4 -56.5t16.5 -80q24 -124 4.5 -215t-79.5 -151t-147 -89.5t-198 -29.5h-12v248h12q93 0 120.5 58
t4.5 208q-10 79 -9 142.5t37 106.5t109 52q-73 8 -109 50.5t-37 106t9 142.5q23 150 -4.5 208t-120.5 58h-12v248z" />
    <glyph glyph-name="bracketleft.cap" horiz-adv-x="628" 
d="M588 1329h-182v-1132h182v-248h-479v1628h479v-248z" />
    <glyph glyph-name="bracketright.cap" horiz-adv-x="653" 
d="M522 -51h-479v248h180v1132h-180v248h479v-1628z" />
    <glyph glyph-name="parenleft.cap" horiz-adv-x="610" 
d="M319 1591l259 -90q-205 -355 -205 -760q0 -404 205 -759l-259 -91q-111 168 -177 383.5t-66 466.5t66 466.5t177 383.5z" />
    <glyph glyph-name="parenright.cap" horiz-adv-x="600" 
d="M35 1501l258 90q111 -169 177.5 -384.5t66.5 -465.5t-66.5 -465.5t-177.5 -384.5l-258 91q203 357 203 759q0 403 -203 760z" />
    <glyph glyph-name="emdash.cap" horiz-adv-x="1634" 
d="M1542 633h-1450v278h1450v-278z" />
    <glyph glyph-name="endash.cap" horiz-adv-x="1159" 
d="M1067 633h-975v278h975v-278z" />
    <glyph glyph-name="hyphen.cap" horiz-adv-x="831" 
d="M739 633h-647v278h647v-278z" />
    <glyph glyph-name="guillemotleft.cap" horiz-adv-x="1189" 
d="M602 1126l-240 -333l240 -334l-237 -148l-334 482l334 481zM1155 1126l-237 -333l237 -334l-237 -148l-334 482l334 481z" />
    <glyph glyph-name="guillemotright.cap" horiz-adv-x="1189" 
d="M606 793l-334 -482l-237 148l239 334l-239 333l237 148zM1159 793l-334 -482l-237 148l239 334l-239 333l237 148z" />
    <glyph glyph-name="guilsinglleft.cap" horiz-adv-x="692" 
d="M657 1079l-268 -286l268 -287l-213 -189l-413 476l413 475z" />
    <glyph glyph-name="guilsinglright.cap" horiz-adv-x="692" 
d="M662 793l-414 -476l-213 189l268 287l-268 286l213 189z" />
    <glyph glyph-name="emdash_guilsinglright" horiz-adv-x="1812" 
d="M1741 532l-488 -538l-211 186l215 232h-1165v245h1161l-211 224l211 188z" />
    <glyph glyph-name="endash_guilsinglright" horiz-adv-x="1259" 
d="M1188 532l-488 -538l-208 186l215 232h-615v245h608l-208 224l208 188z" />
    <glyph glyph-name="guilsinglleft_emdash" horiz-adv-x="1812" 
d="M770 881l-209 -224h1159v-245h-1165l215 -232l-211 -186l-487 538l487 537z" />
    <glyph glyph-name="guilsinglleft_endash" horiz-adv-x="1259" 
d="M770 881l-209 -224h606v-245h-614l217 -232l-211 -186l-487 538l487 537z" />
    <glyph glyph-name="at.cap" horiz-adv-x="1644" 
d="M821 1503q213 0 384 -95.5t266.5 -264t95.5 -377.5q0 -211 -87 -319.5t-241 -108.5q-157 0 -211 104q-96 -110 -260 -110q-174 0 -282.5 119t-108.5 313q0 196 108.5 315t282.5 119q83 0 145 -26.5t95 -67.5v63h217v-594q0 -79 71 -79q57 0 92 69t35 203q0 126 -46 238
t-125 191.5t-191 126t-240 46.5q-171 0 -308.5 -79t-214.5 -216.5t-77 -306.5q0 -134 48 -248t129 -190t187.5 -119t223.5 -43q212 0 367 90l47 -133q-87 -49 -183.5 -71.5t-230.5 -22.5q-202 0 -368.5 92t-264.5 261.5t-98 383.5q0 210 94.5 378t264.5 263.5t384 95.5z
M997 748v34q0 100 -52.5 156.5t-139.5 56.5q-90 0 -142.5 -60.5t-52.5 -170.5q0 -109 53 -170.5t142 -61.5q87 0 139.5 58t52.5 158z" />
    <glyph glyph-name="acute.case" horiz-adv-x="708" 
d="M291 1632h-273l263 316h407z" />
    <glyph glyph-name="breve.case" horiz-adv-x="800" 
d="M539 1972h241q0 -165 -104 -251.5t-277 -86.5q-172 0 -275.5 86.5t-103.5 251.5h242q0 -61 37.5 -96t99.5 -35q64 0 102 35t38 96z" />
    <glyph glyph-name="caron.case" horiz-adv-x="802" 
d="M547 1632h-289l-240 328h250l133 -154l131 154h252z" />
    <glyph glyph-name="circumflex.case" horiz-adv-x="802" 
d="M784 1632h-252l-131 154l-133 -154h-250l240 328h289z" />
    <glyph glyph-name="dieresis.case" horiz-adv-x="759" 
d="M182 1964q68 0 116 -47.5t48 -114.5t-48 -114.5t-116 -47.5t-115 47t-47 115t47 115t115 47zM578 1964q67 0 114 -47t47 -115t-47 -115t-114 -47q-68 0 -115 47t-47 115t47 115t115 47z" />
    <glyph glyph-name="dotaccent.case" horiz-adv-x="399" 
d="M199 1997q75 0 127.5 -52.5t52.5 -127.5t-52.5 -127t-127.5 -52q-74 0 -126.5 52t-52.5 127q0 74 53 127t126 53z" />
    <glyph glyph-name="grave.case" horiz-adv-x="708" 
d="M690 1632h-272l-398 316h408z" />
    <glyph glyph-name="hungarumlaut.case" horiz-adv-x="858" 
d="M250 1638h-232l125 347h283zM664 1638h-232l125 347h283z" />
    <glyph glyph-name="macron.case" horiz-adv-x="649" 
d="M631 1673h-615v228h615v-228z" />
    <glyph glyph-name="ring.case" horiz-adv-x="509" 
d="M258 2068q97 0 164 -62t67 -159q0 -94 -67.5 -156.5t-163.5 -62.5q-101 0 -169.5 62.5t-68.5 156.5q0 97 68.5 159t169.5 62zM258 1931q-39 0 -62.5 -23.5t-23.5 -60.5q0 -35 23.5 -57.5t62.5 -22.5q35 0 57.5 23t22.5 57q0 37 -22.5 60.5t-57.5 23.5z" />
    <glyph glyph-name="tilde.case" horiz-adv-x="786" 
d="M240 1968q44 0 85 -17t67 -37t58.5 -37t61.5 -17q83 0 86 94h168q11 -129 -50.5 -223.5t-170.5 -94.5q-44 0 -85.5 17t-67 37.5t-58 37.5t-60.5 17q-86 0 -86 -94h-168q-11 129 50 223t170 94z" />
    <glyph glyph-name="anneau" horiz-adv-x="1218" 
d="M610 1559q236 0 394.5 -150.5t158.5 -374.5t-158.5 -374t-394.5 -150q-158 0 -285.5 68.5t-198.5 188t-71 267.5q0 225 157.5 375t397.5 150zM610 1456q-194 0 -316 -118.5t-122 -303.5t122 -303.5t316 -118.5q192 0 314.5 118.5t122.5 303.5t-122.5 303.5t-314.5 118.5z
" />
    <glyph glyph-name="null" horiz-adv-x="1228" 
 />
    </font>
</defs>
</svg>
