<?xml version="1.0" standalone="no"?>
<!DOCTYPE svg PUBLIC "-//W3C//DTD SVG 1.1//EN" "http://www.w3.org/Graphics/SVG/1.1/DTD/svg11.dtd" >
<svg xmlns="http://www.w3.org/2000/svg" xmlns:xlink="http://www.w3.org/1999/xlink" version="1.1">
<metadata>
Created by FontForge 20170731 at Sat Jan 16 11:32:58 2021
 By Aleksey,,,
Copyright (c) 2014 by Type Dynamic. All rights reserved.
</metadata>
<defs>
<font id="Sailec-Light" horiz-adv-x="503" >
  <font-face 
    font-family="Sailec Light"
    font-weight="300"
    font-stretch="normal"
    units-per-em="2048"
    panose-1="0 0 4 0 0 0 0 0 0 0"
    ascent="1536"
    descent="-512"
    x-height="1036"
    cap-height="1532"
    bbox="-420 -549 2445 2161"
    underline-thickness="102"
    underline-position="-307"
    unicode-range="U+000D-FB02"
  />
<missing-glyph horiz-adv-x="1406" 
d="M1225 0h-1045v1532h1045v-1532zM336 1448l369 -604l368 604h-737zM270 147l381 619l-381 616v-1235zM760 766l377 -610v1220zM338 84h735l-368 604z" />
    <glyph glyph-name="fi" unicode="fi" horiz-adv-x="1167" 
d="M573 1599q42 0 66 -6v-100q-28 4 -53 4q-106 0 -169 -65.5t-63 -184.5v-211h281v-100h-281v-936h-112v936h-211v100h211v209q0 168 89 261t242 93zM915 1516q35 0 60.5 -25.5t25.5 -60.5q0 -34 -25.5 -59t-60.5 -25t-59.5 25t-24.5 59q0 35 25 60.5t59 25.5zM973 0h-115
v1036h115v-1036z" />
    <glyph glyph-name="f_j" unicode="fj" horiz-adv-x="1167" 
d="M573 1599q42 0 66 -6v-100q-28 4 -53 4q-106 0 -169 -65.5t-63 -184.5v-211h281v-100h-281v-936h-112v936h-211v100h211v209q0 168 89 261t242 93zM915 1516q35 0 60.5 -25.5t25.5 -60.5q0 -34 -25.5 -59t-60.5 -25t-59.5 25t-24.5 59q0 35 24.5 60.5t59.5 25.5z
M975 1036v-1216q0 -168 -84 -259t-232 -91q-21 0 -67 4v102q24 -6 55 -6q101 0 157 62.5t56 183.5v1220h115z" />
    <glyph glyph-name=".notdef" horiz-adv-x="1406" 
d="M1225 0h-1045v1532h1045v-1532zM336 1448l369 -604l368 604h-737zM270 147l381 619l-381 616v-1235zM760 766l377 -610v1220zM338 84h735l-368 604z" />
    <glyph glyph-name=".null" horiz-adv-x="0" 
 />
    <glyph glyph-name="nonmarkingreturn" horiz-adv-x="682" 
 />
    <glyph glyph-name="CR" unicode="&#xd;" horiz-adv-x="1228" 
 />
    <glyph glyph-name="space" unicode=" " horiz-adv-x="501" 
 />
    <glyph glyph-name="exclam" unicode="!" horiz-adv-x="526" 
d="M322 387h-121l-6 1145h133zM262 162q38 0 65 -26t27 -64t-27 -64t-65 -26q-37 0 -63.5 26t-26.5 64t26.5 64t63.5 26z" />
    <glyph glyph-name="quotedbl" unicode="&#x22;" horiz-adv-x="589" 
d="M213 1090h-98l-19 417h135zM475 1090h-100l-17 417h134z" />
    <glyph glyph-name="numbersign" unicode="#" horiz-adv-x="1267" 
d="M985 1087h262l-22 -94h-264l-109 -454h281l-23 -95h-279l-106 -444h-102l106 444h-348l-105 -444h-102l107 444h-263l23 95h262l109 454h-279l23 94h278l107 445h100l-106 -445h348l106 445h101zM512 993l-109 -454h349l108 454h-348z" />
    <glyph glyph-name="dollar" unicode="$" horiz-adv-x="1335" 
d="M1225 408q0 -137 -68 -233t-177.5 -142t-252.5 -51v-224h-96v226q-213 14 -353 124.5t-153 294.5l123 9q13 -148 137 -236t307 -88q184 0 297 78t113 233q0 32 -4.5 60t-16 51t-23.5 42t-35 36t-41.5 29.5t-52 25.5t-57.5 21.5t-67.5 19.5t-72.5 18t-81 19
q-49 12 -80.5 20t-74.5 20.5t-71 24t-63 27t-57.5 32.5t-48 39t-40.5 47.5t-28.5 56.5t-19.5 68t-6 79q0 83 29 155t86 128.5t147.5 91.5t206.5 40v222h96v-224q193 -14 315 -119t132 -280l-121 -8q-12 143 -115 223t-268 80q-186 0 -285.5 -86t-99.5 -219q0 -46 11 -83
t27 -64t48.5 -50.5t59.5 -38t78 -30.5t86 -24.5t99 -23.5q113 -25 186.5 -47t145 -55.5t111.5 -74.5t64 -101t24 -139z" />
    <glyph glyph-name="percent" unicode="%" horiz-adv-x="1665" 
d="M408 1550q141 0 230 -95.5t89 -258.5q0 -162 -89.5 -258t-229.5 -96t-231 96.5t-91 257.5q0 162 91 258t231 96zM330 0h-115l1118 1532h115zM406 1466q-101 0 -167.5 -73t-66.5 -197t66.5 -198t167.5 -74q102 0 168.5 73.5t66.5 198.5t-65.5 197.5t-169.5 72.5zM1255 690
q141 0 231.5 -95t90.5 -257t-90.5 -259t-231.5 -97q-138 0 -228.5 97.5t-90.5 258.5q0 162 90 257t229 95zM1255 608q-102 0 -167.5 -72.5t-65.5 -197.5t66 -198.5t167 -73.5q102 0 168 73t66 199q0 125 -66 197.5t-168 72.5z" />
    <glyph glyph-name="ampersand" unicode="&#x26;" horiz-adv-x="1402" 
d="M1313 -18l-266 247q-195 -245 -480 -245q-225 0 -351 117t-126 305q0 152 72.5 261.5t208.5 200.5q-135 152 -135 318q0 175 105.5 269.5t279.5 94.5q154 0 257 -85.5t123 -235.5l-118 -6q-13 105 -83.5 164t-178.5 59q-121 0 -193 -66.5t-72 -193.5q0 -72 35.5 -140
t73 -108.5t121.5 -119.5q13 -13 20 -19l428 -396q90 152 154 385l106 -28q-72 -257 -180 -432l275 -254zM569 88q230 0 398 215l-445 416l-80 76q-112 -74 -170.5 -164t-58.5 -215q0 -149 95 -238.5t261 -89.5z" />
    <glyph glyph-name="quotesingle" unicode="'" horiz-adv-x="327" 
d="M213 1090h-98l-19 417h135z" />
    <glyph glyph-name="parenleft" unicode="(" horiz-adv-x="479" 
d="M334 1483l100 -37q-104 -155 -168.5 -358.5t-64.5 -432.5q0 -228 64.5 -430t168.5 -358l-100 -39q-110 165 -179 376.5t-69 450.5t69 452.5t179 375.5z" />
    <glyph glyph-name="parenright" unicode=")" horiz-adv-x="479" 
d="M45 1446l98 37q111 -162 180.5 -375t69.5 -453q0 -239 -69.5 -451t-180.5 -376l-98 39q104 156 169 358t65 430t-65 431.5t-169 359.5z" />
    <glyph glyph-name="asterisk" unicode="*" horiz-adv-x="645" 
d="M354 1286l244 82l23 -65l-244 -78l151 -205l-57 -43l-149 209l-150 -211l-55 45l151 205l-243 78l20 65l244 -82v256h67z" />
    <glyph glyph-name="plus" unicode="+" horiz-adv-x="1118" 
d="M614 809h433v-104h-433v-443h-112v443h-434v104h434v428h112v-428z" />
    <glyph glyph-name="comma" unicode="," horiz-adv-x="370" 
d="M186 160q40 0 62 -28.5t22 -76.5q0 -230 -188 -346v55q101 80 108 220h-2q-36 0 -62 26t-26 62q0 37 24.5 62.5t61.5 25.5z" />
    <glyph glyph-name="hyphen" unicode="-" horiz-adv-x="821" 
d="M729 481h-637v109h637v-109z" />
    <glyph glyph-name="period" unicode="." horiz-adv-x="376" 
d="M186 162q40 0 66.5 -26t26.5 -64t-26.5 -64t-66.5 -26q-37 0 -62.5 26t-25.5 64t25.5 64t62.5 26z" />
    <glyph glyph-name="slash" unicode="/" horiz-adv-x="690" 
d="M145 -137h-120l524 1669h117z" />
    <glyph glyph-name="zero" unicode="0" horiz-adv-x="1312" 
d="M657 1550q249 0 392 -204.5t143 -579.5q0 -374 -143 -579t-392 -205q-250 0 -393 205t-143 579q0 375 143 579.5t393 204.5zM655 1442q-198 0 -304.5 -173.5t-106.5 -502.5t106.5 -502.5t304.5 -173.5q199 0 307.5 173.5t108.5 502.5t-108.5 502.5t-307.5 173.5z" />
    <glyph glyph-name="one" unicode="1" horiz-adv-x="739" 
d="M537 0h-119v1362l-316 -250l-63 92l407 328h91v-1532z" />
    <glyph glyph-name="two" unicode="2" horiz-adv-x="1091" 
d="M563 1550q201 0 311.5 -114.5t110.5 -311.5q0 -95 -21.5 -178.5t-66.5 -159.5t-96.5 -139.5t-128.5 -142.5l-385 -395h721v-109h-885v96l459 475q76 79 123.5 137.5t86 125t55.5 135.5t17 151q0 146 -78.5 234t-222.5 88q-155 0 -238.5 -93.5t-86.5 -261.5l-121 7
q5 216 120.5 336t325.5 120z" />
    <glyph glyph-name="three" unicode="3" horiz-adv-x="1128" 
d="M559 1550q195 0 309.5 -109t114.5 -296q0 -134 -68.5 -227.5t-171.5 -122.5q127 -26 205 -122.5t78 -250.5q0 -202 -125.5 -321t-335.5 -119q-211 0 -331.5 116t-139.5 324l121 6q19 -162 107 -250t243 -88q158 0 249 89.5t91 242.5q0 155 -96.5 235t-257.5 80h-148v109
h146q139 0 225 81.5t86 217.5q0 141 -81.5 219t-219.5 78q-141 0 -224.5 -84.5t-94.5 -235.5l-121 6q11 198 126.5 310t313.5 112z" />
    <glyph glyph-name="four" unicode="4" horiz-adv-x="1212" 
d="M868 520h291v-108h-291v-412h-116v412h-699v98l717 1022h98v-1012zM190 520h562v795z" />
    <glyph glyph-name="five" unicode="5" horiz-adv-x="1134" 
d="M580 924q200 0 325 -126t125 -339q0 -212 -123.5 -344.5t-341.5 -132.5q-209 0 -328.5 114.5t-138.5 317.5l121 6q19 -157 106 -243.5t240 -86.5q164 0 255 103t91 264t-94 259.5t-248 98.5q-165 0 -303 -110h-112v827h819v-107h-701v-600q136 99 308 99z" />
    <glyph glyph-name="six" unicode="6" horiz-adv-x="1196" 
d="M602 963q216 0 357 -136t141 -358q0 -220 -141 -353.5t-357 -133.5q-142 0 -255.5 58.5t-179 170.5t-65.5 258q0 178 101 313l577 750h142l-447 -584q77 15 127 15zM602 90q163 0 269 104.5t106 278.5q0 175 -105.5 278t-269.5 103q-195 0 -299 -131q-78 -97 -78 -250
q0 -174 105.5 -278.5t271.5 -104.5z" />
    <glyph glyph-name="seven" unicode="7" horiz-adv-x="1103" 
d="M1059 1434l-780 -1434h-134l779 1425h-873v107h1008v-98z" />
    <glyph glyph-name="eight" unicode="8" horiz-adv-x="1210" 
d="M604 1550q193 0 319 -107.5t126 -291.5q0 -128 -65.5 -219t-164.5 -129q114 -39 189 -141t75 -246q0 -198 -135 -316t-344 -118t-344 118t-135 316q0 144 74.5 245t189.5 142q-100 38 -164.5 128.5t-64.5 219.5q0 185 124.5 292t319.5 107zM606 1442q-142 0 -233.5 -80.5
t-91.5 -216.5q0 -134 92 -213.5t233 -79.5q139 0 230.5 80t91.5 213q0 136 -91.5 216.5t-230.5 80.5zM604 743q-156 0 -257 -87t-101 -238q0 -149 102 -238.5t256 -89.5q156 0 257.5 89.5t101.5 238.5q0 151 -101 238t-258 87z" />
    <glyph glyph-name="nine" unicode="9" horiz-adv-x="1196" 
d="M594 1550q142 0 255.5 -58.5t179 -170.5t65.5 -258q0 -178 -101 -313l-577 -750h-142l447 584q-77 -15 -127 -15q-216 0 -357 136t-141 358q0 220 141 353.5t357 133.5zM594 678q195 0 299 131q78 97 78 250q0 174 -105.5 278.5t-271.5 104.5q-163 0 -269 -104.5
t-106 -278.5q0 -175 105.5 -278t269.5 -103z" />
    <glyph glyph-name="colon" unicode=":" horiz-adv-x="376" 
d="M180 1055q38 0 65 -27t27 -65q0 -37 -27 -64t-65 -27q-36 0 -62 27t-26 64q0 38 25.5 65t62.5 27zM180 162q38 0 65 -26t27 -64t-27 -64t-65 -26q-37 0 -62.5 26t-25.5 64t25.5 64t62.5 26z" />
    <glyph glyph-name="semicolon" unicode=";" horiz-adv-x="376" 
d="M180 872q-36 0 -62 27t-26 64q0 38 25.5 65t62.5 27q38 0 65 -27t27 -65q0 -37 -27 -64t-65 -27zM186 160q40 0 62 -28.5t22 -76.5q0 -230 -188 -346v55q101 80 108 220h-2q-36 0 -62 26t-26 62q0 37 24.5 62.5t61.5 25.5z" />
    <glyph glyph-name="less" unicode="&#x3c;" horiz-adv-x="1040" 
d="M973 1067l-688 -311l688 -312l-4 -127l-914 439l914 438z" />
    <glyph glyph-name="equal" unicode="=" horiz-adv-x="1118" 
d="M1047 940h-979v109h979v-109zM1047 455h-979v108h979v-108z" />
    <glyph glyph-name="greater" unicode="&#x3e;" horiz-adv-x="1040" 
d="M985 756l-913 -439l-4 127l688 312l-688 311l4 127z" />
    <glyph glyph-name="question" unicode="?" horiz-adv-x="993" 
d="M498 1552q210 0 330 -120t120 -310q0 -67 -14.5 -120.5t-46.5 -97.5t-69 -77.5t-95 -74.5q-101 -76 -139.5 -143t-38.5 -169v-53h-121v59q0 109 43.5 187t153.5 164q70 50 110.5 90.5t66 99.5t25.5 133q0 142 -86 233t-239 91q-152 0 -237.5 -77t-100.5 -216l-123 8
q15 183 137.5 288t323.5 105zM481 162q38 0 65 -26t27 -64t-27 -64t-65 -26q-37 0 -63.5 26t-26.5 64t26.5 64t63.5 26z" />
    <glyph glyph-name="at" unicode="@" horiz-adv-x="1636" 
d="M817 1229q205 0 372 -94.5t262 -261t95 -371.5q0 -193 -72 -300.5t-198 -107.5q-75 0 -121.5 38t-56.5 108q-93 -152 -305 -152q-171 0 -277 113.5t-106 308.5q0 198 105.5 311t277.5 113q114 0 191 -43.5t114 -118.5v141h86v-610q0 -131 110 -131q79 0 125.5 87.5
t46.5 242.5q0 185 -84 334.5t-232.5 234t-332.5 84.5q-186 0 -334.5 -84.5t-231.5 -234t-83 -334.5q0 -187 85 -335.5t232 -230t328 -81.5q221 0 385 108l21 -74q-89 -57 -184 -84.5t-222 -27.5q-203 0 -368.5 93t-261 259.5t-95.5 372.5q0 154 55 289t151 231t231.5 151.5
t291.5 55.5zM805 168q132 0 210.5 80t78.5 235v56q0 155 -78 234t-211 79q-136 0 -219.5 -89.5t-83.5 -252.5q0 -162 83.5 -252t219.5 -90z" />
    <glyph glyph-name="A" unicode="A" horiz-adv-x="1447" 
d="M1409 0h-133l-180 444h-742l-182 -444h-133l633 1532h104zM397 547h654l-326 799z" />
    <glyph glyph-name="B" unicode="B" horiz-adv-x="1384" 
d="M201 1532h536q201 0 324 -102.5t123 -294.5q0 -129 -49 -214t-125 -126q101 -36 171 -133.5t70 -247.5q0 -104 -35.5 -184.5t-98.5 -130t-144.5 -74.5t-177.5 -25h-594v1532zM322 1425v-585h471q124 0 196 68.5t72 217.5q0 144 -92 221.5t-244 77.5h-403zM322 733v-624
h460q150 0 248 77t98 234q0 82 -28 144.5t-75 98t-103 53t-119 17.5h-481z" />
    <glyph glyph-name="C" unicode="C" horiz-adv-x="1636" 
d="M860 1550q270 0 461 -151.5t223 -405.5l-125 -12q-27 213 -183 337t-380 124q-133 0 -245 -46t-193 -131t-126.5 -213t-45.5 -286q0 -160 47.5 -289t131 -213t195.5 -129t242 -45q221 0 372 113.5t187 316.5l125 -10q-42 -245 -227 -386.5t-453 -141.5q-158 0 -294 53
t-236 151.5t-156.5 247.5t-56.5 332q0 184 55.5 333t154 247t233.5 151t294 53z" />
    <glyph glyph-name="D" unicode="D" horiz-adv-x="1632" 
d="M201 1532h581q155 0 288 -52t230 -148.5t152 -242t55 -323.5t-56 -323.5t-154.5 -242t-231.5 -148.5t-287 -52h-577v1532zM322 1427v-1323h456q131 0 242 44t192.5 126t127.5 208.5t46 283.5t-45 283t-126 208.5t-191 126t-242 43.5h-460z" />
    <glyph glyph-name="E" unicode="E" horiz-adv-x="1204" 
d="M1128 1425h-806v-577h716v-107h-716v-632h806v-109h-927v1532h927v-107z" />
    <glyph glyph-name="F" unicode="F" horiz-adv-x="1187" 
d="M1130 1425h-808v-591h679v-107h-679v-727h-121v1532h929v-107z" />
    <glyph glyph-name="G" unicode="G" horiz-adv-x="1667" 
d="M1550 750v-45q0 -341 -187 -532t-507 -191q-156 0 -289.5 53t-232 151.5t-155 247.5t-56.5 332q0 184 55.5 333t153.5 247t231.5 151t290.5 53q269 0 459.5 -147t226.5 -402l-125 -20q-27 213 -182 337t-379 124q-133 0 -244 -44.5t-192 -128.5t-126.5 -213t-45.5 -290
t46 -290t128 -213t193 -128.5t241 -44.5q250 0 402 140t167 411h-561v109h688z" />
    <glyph glyph-name="H" unicode="H" horiz-adv-x="1531" 
d="M1333 0h-123v743h-888v-743h-121v1532h121v-680h888v680h123v-1532z" />
    <glyph glyph-name="I" unicode="I" horiz-adv-x="522" 
d="M322 0h-121v1532h121v-1532z" />
    <glyph glyph-name="J" unicode="J" horiz-adv-x="1148" 
d="M963 1532v-1077q0 -226 -119 -349.5t-328 -123.5q-208 0 -330 122t-133 334l121 19q9 -175 100 -271t242 -96q154 0 240 93.5t86 269.5v1079h121z" />
    <glyph glyph-name="K" unicode="K" horiz-adv-x="1337" 
d="M586 870l708 -870h-151l-637 776l-184 -198v-578h-121v1532h121v-776l722 776h156z" />
    <glyph glyph-name="L" unicode="L" horiz-adv-x="1210" 
d="M322 109h819v-109h-940v1532h121v-1423z" />
    <glyph glyph-name="M" unicode="M" horiz-adv-x="2017" 
d="M1817 0h-121v1253l-645 -1247h-80l-649 1247v-1253h-121v1532h102l707 -1348l704 1348h103v-1532z" />
    <glyph glyph-name="N" unicode="N" horiz-adv-x="1521" 
d="M1321 0h-102l-897 1305v-1305h-121v1532h100l897 -1307v1307h123v-1532z" />
    <glyph glyph-name="O" unicode="O" horiz-adv-x="1763" 
d="M883 1550q158 0 296 -54t240 -153t160.5 -248t58.5 -329t-58.5 -329t-160.5 -248t-240 -153t-296 -54q-159 0 -297.5 54t-241.5 153t-162 248t-59 329t59 329t162 248t241.5 153t297.5 54zM883 1442q-133 0 -248.5 -46t-201.5 -131t-135.5 -213.5t-49.5 -285.5
q0 -156 49.5 -284.5t135.5 -213.5t201.5 -131.5t248.5 -46.5q132 0 247.5 46.5t201 131.5t135 213.5t49.5 284.5q0 157 -49.5 285.5t-135 213.5t-201 131t-247.5 46z" />
    <glyph glyph-name="P" unicode="P" horiz-adv-x="1310" 
d="M201 1532h567q199 0 329 -116.5t130 -332.5q0 -145 -63 -248.5t-165 -151.5t-231 -48h-446v-635h-121v1532zM322 1425v-684h432q70 0 132 21t110.5 62t77 107.5t28.5 151.5q0 86 -28 152.5t-77 107.5t-110.5 61.5t-132.5 20.5h-432z" />
    <glyph glyph-name="Q" unicode="Q" horiz-adv-x="1767" 
d="M1645 -156l-291 289q-196 -151 -471 -151q-159 0 -297.5 54t-241.5 153t-162 248t-59 329t59 329t162 248t241.5 153t297.5 54q158 0 296 -54t240 -153t160.5 -248t58.5 -329q0 -338 -194 -551l285 -283zM883 90q227 0 389 125l-340 340l84 86l344 -342q156 187 156 467
q0 157 -49.5 285.5t-135 213.5t-201 131t-247.5 46q-133 0 -248.5 -46t-201.5 -131t-135.5 -213.5t-49.5 -285.5q0 -156 49.5 -284.5t135.5 -213.5t201.5 -131.5t248.5 -46.5z" />
    <glyph glyph-name="R" unicode="R" horiz-adv-x="1382" 
d="M1163 0l-366 647l-37 -2h-438v-645h-121v1532h559q95 0 177 -27.5t145 -81t99 -139t36 -194.5q0 -168 -80 -275t-215 -147l376 -668h-135zM322 754h423q149 0 249 85.5t100 250.5t-100 250t-249 85h-423v-671z" />
    <glyph glyph-name="S" unicode="S" horiz-adv-x="1335" 
d="M668 1550q217 0 355.5 -106.5t150.5 -294.5l-121 -8q-12 143 -115 223t-268 80q-186 0 -285.5 -86t-99.5 -219q0 -46 11 -83t27 -64t48.5 -50.5t59.5 -38t78 -30.5t86 -24.5t99 -23.5q113 -25 186.5 -47t145 -55.5t111.5 -74.5t64 -101t24 -139q0 -86 -27.5 -157
t-76 -120.5t-115.5 -83.5t-146 -49.5t-168 -15.5q-237 0 -394.5 112t-172.5 309l123 9q13 -148 137 -236t307 -88q184 0 297 78t113 233q0 32 -4.5 60t-16 51t-23.5 42t-35 36t-41.5 29.5t-52 25.5t-57.5 21.5t-67.5 19.5t-72.5 18t-81 19q-49 12 -80.5 20t-74.5 20.5
t-71 24t-63 27t-57.5 32.5t-48 39t-40.5 47.5t-28.5 56.5t-19.5 68t-6 79q0 86 31.5 160t92.5 131.5t159 90.5t223 33z" />
    <glyph glyph-name="T" unicode="T" horiz-adv-x="1386" 
d="M1352 1425h-598v-1425h-121v1425h-598v107h1317v-107z" />
    <glyph glyph-name="U" unicode="U" horiz-adv-x="1552" 
d="M1364 1532v-981q0 -276 -158.5 -422.5t-431.5 -146.5t-430.5 146.5t-157.5 422.5v981h121v-979q0 -227 123.5 -345t343.5 -118q219 0 344 118t125 345v979h121z" />
    <glyph glyph-name="V" unicode="V" horiz-adv-x="1484" 
d="M795 0h-105l-641 1532h133l561 -1346l560 1346h133z" />
    <glyph glyph-name="W" unicode="W" horiz-adv-x="2283" 
d="M1698 0h-103l-454 1309l-453 -1309h-102l-537 1532h133l457 -1323l453 1323h100l455 -1323l456 1323h129z" />
    <glyph glyph-name="X" unicode="X" horiz-adv-x="1378" 
d="M778 780l543 -780h-143l-490 696l-489 -696h-140l543 780l-520 752h139l467 -670l469 670h141z" />
    <glyph glyph-name="Y" unicode="Y" horiz-adv-x="1363" 
d="M741 659v-659h-120v659l-580 873h141l500 -754l500 754h139z" />
    <glyph glyph-name="Z" unicode="Z" horiz-adv-x="1257" 
d="M1171 1440l-940 -1331h955v-109h-1110v92l940 1333h-903v107h1058v-92z" />
    <glyph glyph-name="bracketleft" unicode="[" horiz-adv-x="497" 
d="M451 1374h-211v-1435h211v-97h-326v1628h326v-96z" />
    <glyph glyph-name="backslash" unicode="\" horiz-adv-x="690" 
d="M666 -137h-121l-520 1669h118z" />
    <glyph glyph-name="bracketright" unicode="]" horiz-adv-x="497" 
d="M375 -158h-328v97h213v1435h-213v96h328v-1628z" />
    <glyph glyph-name="asciicircum" unicode="^" horiz-adv-x="1093" 
d="M1026 766h-129l-350 606l-352 -606h-129l481 790z" />
    <glyph glyph-name="underscore" unicode="_" horiz-adv-x="1398" 
d="M1307 -109h-1215v109h1215v-109z" />
    <glyph glyph-name="grave" unicode="`" horiz-adv-x="450" 
d="M408 1214h-93l-268 392h131z" />
    <glyph glyph-name="a" unicode="a" horiz-adv-x="1095" 
d="M532 1055q183 0 280 -103.5t97 -289.5v-662h-116v156q-56 -85 -145 -129.5t-199 -44.5q-150 0 -240 74t-90 210q0 281 379 301l295 19v73q0 139 -65 215t-193 76t-199.5 -76.5t-71.5 -181.5l-117 4q0 91 43.5 171.5t133.5 134t208 53.5zM795 487l-285 -16
q-134 -8 -205.5 -55.5t-71.5 -147.5q0 -97 62 -141.5t170 -44.5q68 0 125 19t104 59.5t74 112t27 167.5v47z" />
    <glyph glyph-name="b" unicode="b" horiz-adv-x="1320" 
d="M309 1591v-747q46 95 148 153t243 58q217 0 359.5 -145.5t142.5 -393.5q0 -124 -39 -225.5t-107 -168.5t-159 -103.5t-197 -36.5q-143 0 -246 59.5t-151 157.5v-199h-108v1591h114zM690 952q-170 0 -275.5 -102t-105.5 -297v-70q0 -195 105.5 -298t275.5 -103
q173 0 285 115.5t112 320.5t-112 319.5t-285 114.5z" />
    <glyph glyph-name="c" unicode="c" horiz-adv-x="1167" 
d="M616 1055q183 0 308 -103t147 -278l-113 -10q-15 134 -109 212t-233 78q-169 0 -274.5 -115t-105.5 -321q0 -205 107 -320.5t275 -115.5q141 0 232 71.5t111 196.5l112 -8q-29 -168 -150 -264t-305 -96q-220 0 -359.5 143t-139.5 393q0 126 37.5 228t104 169.5
t157.5 103.5t198 36z" />
    <glyph glyph-name="d" unicode="d" horiz-adv-x="1320" 
d="M1126 0h-110v199q-46 -98 -149 -157.5t-246 -59.5q-106 0 -197.5 36.5t-159.5 103.5t-106.5 168.5t-38.5 225.5q0 166 67 289.5t180 186.5t255 63q141 0 243 -58t148 -153v747h114v-1591zM631 952q-174 0 -286 -114.5t-112 -319.5q0 -206 112 -321t286 -115
q169 0 274 103t105 298v70q0 195 -105 297t-274 102z" />
    <glyph glyph-name="e" unicode="e" horiz-adv-x="1202" 
d="M1085 475h-845q4 -183 109.5 -288t268.5 -105q134 0 224 59.5t119 167.5l114 -8q-36 -145 -156 -232t-296 -87q-221 0 -362.5 143.5t-141.5 392.5q0 125 37.5 227t104.5 169.5t158 104t199 36.5q219 0 343 -138t124 -368v-74zM616 952q-162 0 -266 -100t-110 -281h733
q0 172 -92.5 276.5t-264.5 104.5z" />
    <glyph glyph-name="f" unicode="f" horiz-adv-x="663" 
d="M573 1599q42 0 66 -6v-100q-28 4 -53 4q-106 0 -169 -65.5t-63 -184.5v-211h281v-100h-281v-936h-112v936h-211v100h211v209q0 168 89 261t242 93z" />
    <glyph glyph-name="g" unicode="g" horiz-adv-x="1314" 
d="M621 1055q142 0 245.5 -60.5t149.5 -158.5v200h110v-1106q0 -219 -132.5 -344t-350.5 -125q-199 0 -325.5 96.5t-161.5 254.5l116 4q23 -118 125.5 -188t241.5 -70q168 0 270.5 95.5t102.5 268.5v271q-46 -95 -148 -153t-243 -58q-218 0 -360 144.5t-142 391.5t142 392
t360 145zM631 952q-174 0 -286 -114.5t-112 -321.5q0 -204 112 -319t286 -115q169 0 274 102.5t105 296.5v72q0 195 -105 297t-274 102z" />
    <glyph glyph-name="h" unicode="h" horiz-adv-x="1220" 
d="M309 1591v-725q36 77 126 133t214 56q175 0 287.5 -115.5t112.5 -302.5v-637h-115v623q0 146 -84.5 235.5t-218.5 89.5q-139 0 -230.5 -95.5t-91.5 -229.5v-623h-114v1591h114z" />
    <glyph glyph-name="i" unicode="i" 
d="M252 1516q35 0 60.5 -25.5t25.5 -60.5q0 -34 -25.5 -59t-60.5 -25t-59.5 25t-24.5 59q0 35 25 60.5t59 25.5zM309 0h-114v1036h114v-1036z" />
    <glyph glyph-name="j" unicode="j" 
d="M252 1516q35 0 60.5 -25.5t25.5 -60.5q0 -34 -25.5 -59t-60.5 -25t-59.5 25t-24.5 59q0 35 24.5 60.5t59.5 25.5zM311 1036v-1216q0 -168 -83.5 -259t-231.5 -91q-22 0 -68 4v102q24 -6 56 -6q101 0 157 62.5t56 183.5v1220h114z" />
    <glyph glyph-name="k" unicode="k" horiz-adv-x="1054" 
d="M309 537l518 499h146l-463 -454l520 -582h-151l-451 500l-119 -117v-383h-114v1591h114v-1054z" />
    <glyph glyph-name="l" unicode="l" 
d="M309 0h-114v1591h114v-1591z" />
    <glyph glyph-name="m" unicode="m" horiz-adv-x="1918" 
d="M1348 1055q172 0 279.5 -115.5t107.5 -300.5v-639h-115v623q0 147 -79 236t-212 89q-138 0 -222.5 -95t-84.5 -230v-623h-117v623q0 146 -79 235.5t-208 89.5q-138 0 -223.5 -95t-85.5 -230v-623h-114v1036h108v-178q38 82 124.5 139.5t209.5 57.5q122 0 213.5 -60
t136.5 -166q46 101 141.5 163.5t219.5 62.5z" />
    <glyph glyph-name="n" unicode="n" horiz-adv-x="1236" 
d="M649 1055q175 0 287.5 -115.5t112.5 -302.5v-637h-115v623q0 146 -84.5 235.5t-218.5 89.5q-139 0 -230.5 -95.5t-91.5 -229.5v-623h-114v1036h110v-176q38 80 128 137.5t216 57.5z" />
    <glyph glyph-name="o" unicode="o" horiz-adv-x="1284" 
d="M641 1055q225 0 374.5 -147t149.5 -390t-149.5 -389.5t-374.5 -146.5q-147 0 -265 64t-187.5 187t-69.5 285t69.5 285.5t187.5 187.5t265 64zM641 952q-177 0 -292.5 -117t-115.5 -317t115.5 -318t292.5 -118q176 0 292 118t116 318t-116 317t-292 117z" />
    <glyph glyph-name="p" unicode="p" horiz-adv-x="1320" 
d="M700 1055q105 0 197 -37t159.5 -104.5t106.5 -169.5t39 -226t-39 -226t-106.5 -169.5t-159.5 -104t-197 -36.5q-141 0 -243 58t-148 153v-715h-114v1558h108v-200q48 98 151.5 158.5t245.5 60.5zM690 952q-170 0 -275.5 -102t-105.5 -297v-72q0 -194 105.5 -296.5
t275.5 -102.5q172 0 284.5 115t112.5 319q0 206 -112 321t-285 115z" />
    <glyph glyph-name="q" unicode="q" horiz-adv-x="1320" 
d="M621 1055q142 0 245.5 -60.5t149.5 -158.5v200h110v-1558h-114v715q-46 -95 -148 -153t-243 -58q-218 0 -360 144.5t-142 391.5t142 392t360 145zM631 952q-174 0 -286 -114.5t-112 -321.5q0 -204 112 -319t286 -115q169 0 274 102.5t105 296.5v72q0 195 -105 297
t-274 102z" />
    <glyph glyph-name="r" unicode="r" horiz-adv-x="657" 
d="M621 1051v-111q-141 0 -226.5 -89.5t-85.5 -219.5v-631h-114v1036h110v-170q30 76 111.5 130.5t204.5 54.5z" />
    <glyph glyph-name="s" unicode="s" horiz-adv-x="1013" 
d="M494 1053q157 1 248.5 -77.5t111.5 -213.5l-115 -8q-12 94 -76 146.5t-174 51.5q-119 1 -180 -50t-61 -140q0 -22 3.5 -40.5t13 -33t18 -25t27 -20t30.5 -15.5t39 -13t42 -10.5t48.5 -11t50.5 -11.5q94 -22 153 -43t111 -54t75.5 -81t23.5 -115q0 -148 -102.5 -227.5
t-274.5 -79.5q-166 0 -269.5 76.5t-125.5 217.5l114 9q17 -100 90.5 -151.5t192.5 -51.5t189.5 50.5t70.5 148.5q0 39 -12 67.5t-31 48t-60 36t-81 27.5t-111 27q-154 36 -207 60q-104 47 -126 145q-7 31 -7 68q0 134 94 214t267 79z" />
    <glyph glyph-name="t" unicode="t" horiz-adv-x="681" 
d="M532 94q42 0 109 10v-104q-52 -10 -131 -10q-134 0 -211.5 76.5t-77.5 236.5l2 633h-196v100h196l2 367h117l-2 -367h297v-100h-297l-4 -612q0 -230 196 -230z" />
    <glyph glyph-name="u" unicode="u" horiz-adv-x="1198" 
d="M1004 0h-109v176q-34 -78 -119 -136t-211 -58q-172 0 -275.5 113.5t-103.5 297.5v643h113v-628q0 -144 77 -231t210 -87q137 0 220 95t83 229v622h115v-1036z" />
    <glyph glyph-name="v" unicode="v" horiz-adv-x="1042" 
d="M567 0h-92l-448 1036h127l368 -862l365 862h129z" />
    <glyph glyph-name="w" unicode="w" horiz-adv-x="1650" 
d="M1233 0h-92l-314 842l-317 -842h-90l-393 1036h125l317 -852l315 852h82l318 -852l315 852h125z" />
    <glyph glyph-name="x" unicode="x" horiz-adv-x="1015" 
d="M590 535l385 -535h-139l-328 457l-332 -457h-135l381 537l-359 499h138l307 -424l303 424h137z" />
    <glyph glyph-name="y" unicode="y" horiz-adv-x="1042" 
d="M350 -522h-127l236 559l-416 999h127l352 -868l352 868h127z" />
    <glyph glyph-name="z" unicode="z" horiz-adv-x="909" 
d="M819 961l-616 -867h645v-94h-782v78l618 864h-604v94h739v-75z" />
    <glyph glyph-name="braceleft" unicode="{" horiz-adv-x="460" 
d="M412 1372h-13q-214 0 -141 -364q12 -58 17.5 -98.5t7 -87.5t-7.5 -78t-31.5 -55.5t-59.5 -33.5q37 -9 59.5 -33.5t31.5 -54.5t7.5 -77.5t-7 -87.5t-17.5 -99q-73 -364 141 -364h13v-97h-13q-164 0 -233.5 118.5t-20.5 336.5q12 53 18.5 86.5t10.5 73.5t-0.5 64t-16.5 46
t-36 31.5t-60 9.5h-16v97h16q36 0 60 9.5t36 31.5t16.5 45.5t0.5 64t-10.5 73.5t-18.5 87q-49 217 20.5 334.5t233.5 117.5h13v-96z" />
    <glyph glyph-name="bar" unicode="|" horiz-adv-x="483" 
d="M297 -137h-113v1669h113v-1669z" />
    <glyph glyph-name="braceright" unicode="}" horiz-adv-x="460" 
d="M47 1468h12q165 0 234 -117t20 -335q-10 -45 -16 -75t-10.5 -65.5t-3.5 -58.5t7 -46.5t19.5 -36.5t35 -21t52.5 -8h17v-97h-17q-35 0 -59.5 -10t-36 -31.5t-16.5 -46t-0.5 -64t10.5 -73.5t18 -86q49 -218 -20 -336.5t-234 -118.5h-12v97h12q110 0 145 90.5t-1 273.5
q-12 58 -18.5 99t-7.5 87.5t7.5 77.5t31 55t58.5 33q-36 9 -58.5 33.5t-31 55.5t-7.5 77.5t7.5 88t18.5 98.5q36 183 1 273.5t-145 90.5h-12v96z" />
    <glyph glyph-name="asciitilde" unicode="~" horiz-adv-x="1089" 
d="M981 874l53 -73q-66 -83 -133 -123.5t-164 -40.5q-65 0 -122 21t-90.5 45.5t-81 45.5t-95.5 21q-79 0 -129 -28.5t-110 -96.5l-56 76q67 82 130.5 120t154.5 38q53 0 102.5 -21t83.5 -46t88 -46t115 -21q84 0 139 30t115 99z" />
    <glyph glyph-name="exclamdown" unicode="&#xa1;" horiz-adv-x="526" 
d="M264 862q-38 0 -65 26t-27 64t27 64t65 26q37 0 62.5 -26t25.5 -64t-25.5 -64t-62.5 -26zM205 637h119l6 -1145h-131z" />
    <glyph glyph-name="cent" unicode="&#xa2;" horiz-adv-x="1167" 
d="M961 350l112 -8q-28 -159 -136 -253.5t-275 -104.5v-226h-97v226q-199 18 -322.5 159.5t-123.5 374.5q0 235 123.5 376t322.5 159v231h97v-231q166 -12 277.5 -113.5t131.5 -265.5l-113 -10q-15 134 -109 212t-233 78q-169 0 -274.5 -115t-105.5 -321q0 -205 107 -320.5
t275 -115.5q141 0 232 71.5t111 196.5z" />
    <glyph glyph-name="sterling" unicode="&#xa3;" horiz-adv-x="1099" 
d="M1038 109v-109h-958v100q119 63 175 163.5t44 260.5l-12 170h-228v97h220l-19 264q-21 236 73.5 365.5t303.5 129.5q183 0 277 -96t96 -256l-119 -6q0 112 -65 182t-191 70q-288 0 -262 -367l20 -286h377v-97h-369l13 -170q8 -100 -18 -182.5t-65.5 -133t-99.5 -99.5h807
z" />
    <glyph glyph-name="currency" unicode="&#xa4;" horiz-adv-x="1189" 
d="M952 518q0 -149 -71 -256l249 -250l-73 -71l-248 247q-90 -69 -215 -69q-123 0 -213 69l-248 -247l-74 71l252 252q-73 103 -73 254t73 254l-252 252l74 72l250 -250q90 69 211 69q123 0 213 -69l250 250l73 -72l-251 -252q73 -103 73 -254zM596 203q112 0 186 85t74 230
t-74 229t-186 84q-114 0 -188 -84t-74 -229q0 -147 74 -231t188 -84z" />
    <glyph glyph-name="yen" unicode="&#xa5;" horiz-adv-x="1363" 
d="M774 709h264v-76h-297v-211h297v-76h-297v-346h-120v346h-293v76h293v211h-293v76h260l-547 823h141l500 -754l500 754h139z" />
    <glyph glyph-name="brokenbar" unicode="&#xa6;" horiz-adv-x="483" 
d="M297 879h-113v653h113v-653zM297 -137h-113v653h113v-653z" />
    <glyph glyph-name="section" unicode="&#xa7;" horiz-adv-x="1044" 
d="M770 506q80 -37 119 -94.5t39 -149.5q0 -151 -111 -235t-291 -84q-185 0 -302 83.5t-118 231.5l115 4q3 -106 87 -166.5t218 -60.5q129 0 208 56.5t79 164.5q0 38 -9.5 67.5t-32 51.5t-46 37.5t-65 29t-74.5 21.5t-88 20q-86 19 -146 40t-112.5 55t-78.5 85t-26 119
q0 85 33 139.5t102 102.5q-64 33 -95.5 87t-31.5 138q0 142 101.5 221.5t261.5 79.5q171 0 276.5 -78.5t106.5 -218.5l-113 -4q-3 98 -76 152.5t-192 54.5q-110 0 -180 -53t-70 -154q0 -41 14.5 -72.5t35.5 -51t62 -36t74.5 -25.5t92.5 -22q89 -20 149 -42t112 -55.5
t77.5 -83.5t25.5 -118q0 -85 -32 -137.5t-99 -99.5zM240 786q0 -41 15.5 -73t38.5 -52.5t66 -38t80 -27.5t99 -24q109 -23 131 -30q65 40 95 83t30 115q0 35 -9 62t-30 47.5t-43.5 35t-61.5 27.5t-70.5 21t-84.5 20q-71 14 -131 33q-63 -41 -94 -85.5t-31 -113.5z" />
    <glyph glyph-name="dieresis" unicode="&#xa8;" horiz-adv-x="520" 
d="M129 1473q33 0 56.5 -22.5t23.5 -55.5q0 -32 -23.5 -53t-56.5 -21t-55.5 21t-22.5 53q0 33 22.5 55.5t55.5 22.5zM391 1473q33 0 55.5 -22.5t22.5 -55.5q0 -32 -22.5 -53t-55.5 -21t-55.5 21t-22.5 53q0 33 22.5 55.5t55.5 22.5z" />
    <glyph glyph-name="copyright" unicode="&#xa9;" horiz-adv-x="1179" 
d="M590 1552q223 0 373.5 -148t150.5 -366q0 -217 -151 -365.5t-373 -148.5t-373 148.5t-151 365.5q0 218 150.5 366t373.5 148zM590 1505q-201 0 -337 -134.5t-136 -332.5t136 -332.5t337 -134.5t337 134.5t136 332.5t-136 332.5t-337 134.5zM592 1358q111 0 188.5 -62
t89.5 -166l-69 -4q-10 80 -68 124t-141 44q-101 0 -165.5 -68t-64.5 -188q0 -119 66 -187.5t166 -68.5q81 0 138.5 42t70.5 114l69 -4q-17 -99 -93 -157t-185 -58q-129 0 -215 87.5t-86 231.5q0 148 85 234t214 86z" />
    <glyph glyph-name="ordfeminine" unicode="&#xaa;" horiz-adv-x="886" 
d="M438 1546q151 0 227 -81t76 -238v-525h-98v138q-34 -69 -109 -110.5t-172 -41.5q-123 0 -195.5 57t-72.5 166q0 117 85.5 177.5t232.5 70.5l227 15v59q0 108 -51 166.5t-150 58.5q-103 0 -160 -60.5t-57 -144.5l-100 4q0 116 85.5 202.5t231.5 86.5zM639 1096l-217 -17
q-109 -8 -165 -44.5t-56 -116.5q0 -144 176 -144q49 -1 94 14t83.5 46t61.5 88t23 133v41z" />
    <glyph glyph-name="guillemotleft" unicode="&#xab;" horiz-adv-x="1034" 
d="M504 889l-340 -373l340 -375l-90 -59l-383 434l383 432zM989 889l-340 -373l340 -375l-90 -59l-383 434l383 432z" />
    <glyph glyph-name="logicalnot" unicode="&#xac;" horiz-adv-x="1089" 
d="M991 358h-92v361h-815v92h907v-453z" />
    <glyph glyph-name="registered" unicode="&#xae;" horiz-adv-x="1179" 
d="M590 1552q223 0 373.5 -148t150.5 -366q0 -217 -151 -365.5t-373 -148.5t-373 148.5t-151 365.5q0 218 150.5 366t373.5 148zM590 571q201 0 337 134.5t136 332.5t-136 332.5t-337 134.5t-337 -134.5t-136 -332.5t136 -332.5t337 -134.5zM809 1167q0 -69 -30 -113.5
t-83 -62.5l146 -268h-74l-139 256h-8h-170v-256h-68v627h238q83 0 135.5 -47t52.5 -136zM451 1040h153q60 0 97.5 30t37.5 97q0 65 -37.5 94t-97.5 29h-153v-250z" />
    <glyph glyph-name="macron" unicode="&#xaf;" horiz-adv-x="579" 
d="M541 1317h-502v90h502v-90z" />
    <glyph glyph-name="degree" unicode="&#xb0;" horiz-adv-x="679" 
d="M338 1548q127 0 202.5 -72t75.5 -202v-45q0 -129 -76 -202t-202 -73q-123 0 -197.5 73t-74.5 202v45q0 130 73.5 202t198.5 72zM338 1475q-89 0 -140 -53t-51 -150v-39q0 -97 51.5 -151t139.5 -54q89 0 143 54t54 151v39q0 95 -54 149t-143 54z" />
    <glyph glyph-name="plusminus" unicode="&#xb1;" horiz-adv-x="1118" 
d="M614 1004h433v-107h-433v-440h-112v440h-434v107h434v428h112v-428zM1047 207h-979v108h979v-108z" />
    <glyph glyph-name="acute" unicode="&#xb4;" horiz-adv-x="450" 
d="M137 1214h-94l231 392h129z" />
    <glyph glyph-name="paragraph" unicode="&#xb6;" horiz-adv-x="1318" 
d="M1274 1444h-141v-1581h-91v1581h-303v-1581h-92v923h-135q-185 0 -298.5 97.5t-113.5 277.5q0 178 113.5 274.5t298.5 96.5h762v-88z" />
    <glyph glyph-name="periodcentered" unicode="&#xb7;" horiz-adv-x="389" 
d="M186 666q40 0 66.5 -26.5t26.5 -64.5t-26.5 -64t-66.5 -26q-37 0 -62.5 26t-25.5 64t25.5 64.5t62.5 26.5z" />
    <glyph glyph-name="cedilla" unicode="&#xb8;" horiz-adv-x="561" 
d="M293 12l-29 -133q108 -5 171 -52t63 -134q0 -89 -69.5 -138t-168.5 -49q-116 0 -201 50l23 69q75 -45 168 -45q67 0 113.5 29t46.5 84q0 123 -181 123q-28 0 -49 -6l49 202h64z" />
    <glyph glyph-name="ordmasculine" unicode="&#xba;" horiz-adv-x="1028" 
d="M512 1546q183 0 302.5 -117.5t119.5 -312.5t-119.5 -311.5t-302.5 -116.5q-182 0 -301 116.5t-119 311.5t119.5 312.5t300.5 117.5zM514 1458q-136 0 -225.5 -92.5t-89.5 -249.5q0 -156 89.5 -247t225.5 -91q137 0 227 91t90 247q0 157 -90 249.5t-227 92.5z" />
    <glyph glyph-name="guillemotright" unicode="&#xbb;" horiz-adv-x="1034" 
d="M518 516l-383 -434l-90 59l340 375l-340 373l90 59zM1004 516l-386 -434l-90 59l340 375l-340 373l90 59z" />
    <glyph glyph-name="onequarter" unicode="&#xbc;" horiz-adv-x="1363" 
d="M154 0h-119l1100 1532h118zM330 659h-92v715l-166 -129l-43 70l241 186h60v-842zM1174 295h147v-82h-147v-213h-91v213h-381v72l388 557h84v-547zM786 295h297v418z" />
    <glyph glyph-name="onehalf" unicode="&#xbd;" horiz-adv-x="1431" 
d="M154 0h-119l1100 1532h118zM330 659h-92v715l-166 -129l-43 70l241 186h60v-842zM1116 852q119 0 181.5 -67.5t62.5 -178.5q0 -93 -40 -167.5t-122 -159.5l-190 -197h364v-82h-504v63l262 271q73 73 106.5 134t33.5 140q0 72 -40 117t-112 45q-77 0 -121 -46t-45 -130
l-88 6q2 118 68.5 185t183.5 67z" />
    <glyph glyph-name="threequarters" unicode="&#xbe;" horiz-adv-x="1564" 
d="M354 0h-118l1099 1532h119zM324 1511q112 0 175.5 -60t63.5 -165q0 -70 -36.5 -120.5t-82.5 -67.5q59 -15 100.5 -69.5t41.5 -135.5q0 -113 -71 -178.5t-189 -65.5q-120 0 -188.5 65t-74.5 179l91 8q8 -80 52 -124t120 -44q78 0 124 44t46 120q0 75 -50 115.5t-131 40.5
h-79v80h79q67 0 113.5 41t46.5 108q0 69 -41 108.5t-110 39.5q-70 0 -112.5 -41.5t-45.5 -116.5l-90 4q5 110 70 172.5t178 62.5zM1374 295h148v-82h-148v-213h-90v213h-381v72l387 557h84v-547zM987 295h297v418z" />
    <glyph glyph-name="questiondown" unicode="&#xbf;" horiz-adv-x="993" 
d="M512 872q-38 0 -65 27.5t-27 65.5q0 37 27 63.5t65 26.5q37 0 62.5 -26.5t25.5 -63.5q0 -38 -25.5 -65.5t-62.5 -27.5zM496 -516q-211 0 -331 119.5t-120 308.5q0 90 28.5 158.5t73 114.5t121.5 100q101 75 139.5 141.5t38.5 167.5v55h121v-59q0 -110 -42.5 -187.5
t-153.5 -162.5q-70 -50 -110 -90.5t-66.5 -100.5t-26.5 -135q0 -140 86.5 -231t241.5 -91q152 0 237.5 77t100.5 216l120 -8q-15 -183 -136.5 -288t-321.5 -105z" />
    <glyph glyph-name="Agrave" unicode="&#xc0;" horiz-adv-x="1447" 
d="M778 1628h-114l-375 277h164zM1409 0h-133l-180 444h-742l-182 -444h-133l633 1532h104zM397 547h654l-326 799z" />
    <glyph glyph-name="Aacute" unicode="&#xc1;" horiz-adv-x="1447" 
d="M778 1628h-112l325 277h164zM1409 0h-133l-180 444h-742l-182 -444h-133l633 1532h104zM397 547h654l-326 799z" />
    <glyph glyph-name="Acircumflex" unicode="&#xc2;" horiz-adv-x="1447" 
d="M1026 1628h-102l-199 201l-197 -201h-102l248 277h106zM1409 0h-133l-180 444h-742l-182 -444h-133l633 1532h104zM397 547h654l-326 799z" />
    <glyph glyph-name="Atilde" unicode="&#xc3;" horiz-adv-x="1447" 
d="M578 1890q43 0 83 -20.5t66.5 -45t62.5 -45t70 -20.5q51 0 79 32.5t30 84.5h69q3 -85 -43.5 -145t-122.5 -60q-43 0 -83 20.5t-66.5 45t-62.5 45t-70 20.5q-51 0 -80 -32.5t-29 -83.5h-69q-3 86 43 145t123 59zM1409 0h-133l-180 444h-742l-182 -444h-133l633 1532h104z
M397 547h654l-326 799z" />
    <glyph glyph-name="Adieresis" unicode="&#xc4;" horiz-adv-x="1447" 
d="M596 1845q32 0 56 -22.5t24 -53.5q0 -33 -23.5 -55t-56.5 -22t-55.5 22t-22.5 55q0 31 23 53.5t55 22.5zM858 1845q32 0 55 -22.5t23 -53.5q0 -33 -22.5 -55t-55.5 -22t-55.5 22t-22.5 55q0 31 23 53.5t55 22.5zM1409 0h-133l-180 444h-742l-182 -444h-133l633 1532h104z
M397 547h654l-326 799z" />
    <glyph glyph-name="Aring" unicode="&#xc5;" horiz-adv-x="1447" 
d="M725 2005q83 0 140 -54t57 -136t-57 -136.5t-140 -54.5q-85 0 -143 54t-58 137t57.5 136.5t143.5 53.5zM725 1933q-55 0 -90 -32.5t-35 -85.5q0 -54 35.5 -87.5t89.5 -33.5q53 0 88 34t35 87t-35 85.5t-88 32.5zM1409 0h-133l-180 444h-742l-182 -444h-133l633 1532h104z
M397 547h654l-326 799z" />
    <glyph glyph-name="AE" unicode="&#xc6;" horiz-adv-x="2052" 
d="M1174 1425v-577h716v-107h-716v-632h806v-109h-927v444h-588l-295 -444h-147l1015 1532h942v-107h-806zM1053 547v792l-523 -792h523z" />
    <glyph glyph-name="Ccedilla" unicode="&#xc7;" horiz-adv-x="1636" 
d="M1421 520l125 -10q-41 -237 -216 -378t-431 -150l-25 -113q108 -5 171 -52t63 -134q0 -89 -69.5 -138t-168.5 -49q-116 0 -200 49l22 70q75 -45 168 -45q67 0 113.5 29t46.5 84q0 122 -180 122q-28 0 -49 -6l45 183q-153 5 -283.5 60.5t-226 154t-149.5 245t-54 324.5
q0 184 55.5 333t154 247t233.5 151t294 53q270 0 461 -151.5t223 -405.5l-125 -12q-27 213 -183 337t-380 124q-133 0 -245 -46t-193 -131t-126.5 -213t-45.5 -286q0 -160 47.5 -289t131 -213t195.5 -129t242 -45q221 0 372 113.5t187 316.5z" />
    <glyph glyph-name="Egrave" unicode="&#xc8;" horiz-adv-x="1204" 
d="M727 1628h-115l-374 277h163zM1128 1425h-806v-577h716v-107h-716v-632h806v-109h-927v1532h927v-107z" />
    <glyph glyph-name="Eacute" unicode="&#xc9;" horiz-adv-x="1204" 
d="M727 1628h-113l326 277h164zM1128 1425h-806v-577h716v-107h-716v-632h806v-109h-927v1532h927v-107z" />
    <glyph glyph-name="Ecircumflex" unicode="&#xca;" horiz-adv-x="1204" 
d="M973 1628h-103l-198 201l-197 -201h-102l248 277h106zM1128 1425h-806v-577h716v-107h-716v-632h806v-109h-927v1532h927v-107z" />
    <glyph glyph-name="Edieresis" unicode="&#xcb;" horiz-adv-x="1204" 
d="M543 1845q32 0 56 -22.5t24 -53.5q0 -33 -23.5 -55t-56.5 -22t-55.5 22t-22.5 55q0 31 23 53.5t55 22.5zM805 1845q32 0 55 -22.5t23 -53.5q0 -33 -22.5 -55t-55.5 -22t-55.5 22t-22.5 55q0 31 23 53.5t55 22.5zM1128 1425h-806v-577h716v-107h-716v-632h806v-109h-927
v1532h927v-107z" />
    <glyph glyph-name="Igrave" unicode="&#xcc;" horiz-adv-x="522" 
d="M317 1628h-114l-375 277h164zM322 0h-121v1532h121v-1532z" />
    <glyph glyph-name="Iacute" unicode="&#xcd;" horiz-adv-x="522" 
d="M317 1628h-112l325 277h164zM322 0h-121v1532h121v-1532z" />
    <glyph glyph-name="Icircumflex" unicode="&#xce;" horiz-adv-x="522" 
d="M565 1628h-102l-199 201l-196 -201h-103l248 277h106zM322 0h-121v1532h121v-1532z" />
    <glyph glyph-name="Idieresis" unicode="&#xcf;" horiz-adv-x="522" 
d="M135 1845q32 0 56 -22.5t24 -53.5q0 -33 -23.5 -55t-56.5 -22t-55.5 22t-22.5 55q0 31 23 53.5t55 22.5zM397 1845q32 0 55 -22.5t23 -53.5q0 -33 -22.5 -55t-55.5 -22t-55.5 22t-22.5 55q0 31 23 53.5t55 22.5zM322 0h-121v1532h121v-1532z" />
    <glyph glyph-name="Eth" unicode="&#xd0;" horiz-adv-x="1611" 
d="M244 1532h581q155 0 288 -52t230 -148.5t152 -242t55 -323.5t-56 -323.5t-154.5 -242t-231.5 -148.5t-287 -52h-577v719h-242v94h242v719zM365 104h456q131 0 242 44t193 126t128 208.5t46 283.5t-45 283t-126 208.5t-191.5 126t-242.5 43.5h-460v-614h350v-94h-350v-615
z" />
    <glyph glyph-name="Ntilde" unicode="&#xd1;" horiz-adv-x="1521" 
d="M610 1890q43 0 83.5 -20.5t67 -45t62.5 -45t70 -20.5q51 0 78.5 32.5t29.5 84.5h70q3 -85 -43.5 -145t-122.5 -60q-43 0 -83 20.5t-66.5 45t-62.5 45t-70 20.5q-51 0 -80 -32.5t-29 -83.5h-70q-3 86 43 145t123 59zM1321 0h-102l-897 1305v-1305h-121v1532h100l897 -1307
v1307h123v-1532z" />
    <glyph glyph-name="Ograve" unicode="&#xd2;" horiz-adv-x="1763" 
d="M909 1628h-114l-375 277h164zM883 1550q158 0 296 -54t240 -153t160.5 -248t58.5 -329t-58.5 -329t-160.5 -248t-240 -153t-296 -54q-159 0 -297.5 54t-241.5 153t-162 248t-59 329t59 329t162 248t241.5 153t297.5 54zM883 1442q-133 0 -248.5 -46t-201.5 -131
t-135.5 -213.5t-49.5 -285.5q0 -156 49.5 -284.5t135.5 -213.5t201.5 -131.5t248.5 -46.5q132 0 247.5 46.5t201 131.5t135 213.5t49.5 284.5q0 157 -49.5 285.5t-135 213.5t-201 131t-247.5 46z" />
    <glyph glyph-name="Oacute" unicode="&#xd3;" horiz-adv-x="1763" 
d="M909 1628h-112l325 277h164zM883 1550q158 0 296 -54t240 -153t160.5 -248t58.5 -329t-58.5 -329t-160.5 -248t-240 -153t-296 -54q-159 0 -297.5 54t-241.5 153t-162 248t-59 329t59 329t162 248t241.5 153t297.5 54zM883 1442q-133 0 -248.5 -46t-201.5 -131
t-135.5 -213.5t-49.5 -285.5q0 -156 49.5 -284.5t135.5 -213.5t201.5 -131.5t248.5 -46.5q132 0 247.5 46.5t201 131.5t135 213.5t49.5 284.5q0 157 -49.5 285.5t-135 213.5t-201 131t-247.5 46z" />
    <glyph glyph-name="Ocircumflex" unicode="&#xd4;" horiz-adv-x="1763" 
d="M1155 1628h-102l-199 201l-197 -201h-102l248 277h106zM883 1550q158 0 296 -54t240 -153t160.5 -248t58.5 -329t-58.5 -329t-160.5 -248t-240 -153t-296 -54q-159 0 -297.5 54t-241.5 153t-162 248t-59 329t59 329t162 248t241.5 153t297.5 54zM883 1442
q-133 0 -248.5 -46t-201.5 -131t-135.5 -213.5t-49.5 -285.5q0 -156 49.5 -284.5t135.5 -213.5t201.5 -131.5t248.5 -46.5q132 0 247.5 46.5t201 131.5t135 213.5t49.5 284.5q0 157 -49.5 285.5t-135 213.5t-201 131t-247.5 46z" />
    <glyph glyph-name="Otilde" unicode="&#xd5;" horiz-adv-x="1763" 
d="M709 1890q43 0 83 -20.5t66.5 -45t62.5 -45t70 -20.5q51 0 79 32.5t30 84.5h69q3 -86 -43 -145.5t-122 -59.5q-43 0 -83.5 20.5t-67 45t-62.5 45t-70 20.5q-51 0 -80 -32.5t-29 -83.5h-69q-3 86 43 145t123 59zM883 1550q158 0 296 -54t240 -153t160.5 -248t58.5 -329
t-58.5 -329t-160.5 -248t-240 -153t-296 -54q-159 0 -297.5 54t-241.5 153t-162 248t-59 329t59 329t162 248t241.5 153t297.5 54zM883 1442q-133 0 -248.5 -46t-201.5 -131t-135.5 -213.5t-49.5 -285.5q0 -156 49.5 -284.5t135.5 -213.5t201.5 -131.5t248.5 -46.5
q132 0 247.5 46.5t201 131.5t135 213.5t49.5 284.5q0 157 -49.5 285.5t-135 213.5t-201 131t-247.5 46z" />
    <glyph glyph-name="Odieresis" unicode="&#xd6;" horiz-adv-x="1763" 
d="M725 1845q32 0 56 -22.5t24 -53.5q0 -33 -23.5 -55t-56.5 -22t-55.5 22t-22.5 55q0 31 23 53.5t55 22.5zM987 1845q32 0 55 -22.5t23 -53.5q0 -33 -22.5 -55t-55.5 -22t-55.5 22t-22.5 55q0 31 23 53.5t55 22.5zM883 1550q158 0 296 -54t240 -153t160.5 -248t58.5 -329
t-58.5 -329t-160.5 -248t-240 -153t-296 -54q-159 0 -297.5 54t-241.5 153t-162 248t-59 329t59 329t162 248t241.5 153t297.5 54zM883 1442q-133 0 -248.5 -46t-201.5 -131t-135.5 -213.5t-49.5 -285.5q0 -156 49.5 -284.5t135.5 -213.5t201.5 -131.5t248.5 -46.5
q132 0 247.5 46.5t201 131.5t135 213.5t49.5 284.5q0 157 -49.5 285.5t-135 213.5t-201 131t-247.5 46z" />
    <glyph glyph-name="multiply" unicode="&#xd7;" horiz-adv-x="1046" 
d="M930 1081l-328 -325l334 -336l-76 -76l-336 334l-338 -336l-75 76l338 338l-334 336l75 75l334 -338l330 330z" />
    <glyph glyph-name="Oslash" unicode="&#xd8;" horiz-adv-x="1712" 
d="M1501 1536l-121 -158q122 -104 190 -260t68 -352q0 -180 -58.5 -329t-160.5 -248t-240 -153t-296 -54q-266 0 -461 141l-139 -180l-76 57l141 184q-107 104 -166 252t-59 330q0 180 59 329t162 248t241.5 153t297.5 54q237 0 422 -116l120 159zM248 766q0 -301 174 -485
l813 1062q-157 99 -352 99q-133 0 -248.5 -46t-201.5 -131t-135.5 -213.5t-49.5 -285.5zM883 90q132 0 247.5 46.5t201 131.5t135 213.5t49.5 284.5q0 329 -207 520l-817 -1071q162 -125 391 -125z" />
    <glyph glyph-name="Ugrave" unicode="&#xd9;" horiz-adv-x="1552" 
d="M827 1628h-114l-375 277h164zM1364 1532v-981q0 -276 -158.5 -422.5t-431.5 -146.5t-430.5 146.5t-157.5 422.5v981h121v-979q0 -227 123.5 -345t343.5 -118q219 0 344 118t125 345v979h121z" />
    <glyph glyph-name="Uacute" unicode="&#xda;" horiz-adv-x="1552" 
d="M825 1628h-112l325 277h164zM1364 1532v-981q0 -276 -158.5 -422.5t-431.5 -146.5t-430.5 146.5t-157.5 422.5v981h121v-979q0 -227 123.5 -345t343.5 -118q219 0 344 118t125 345v979h121z" />
    <glyph glyph-name="Ucircumflex" unicode="&#xdb;" horiz-adv-x="1552" 
d="M1073 1628h-102l-199 201l-197 -201h-102l248 277h106zM1364 1532v-981q0 -276 -158.5 -422.5t-431.5 -146.5t-430.5 146.5t-157.5 422.5v981h121v-979q0 -227 123.5 -345t343.5 -118q219 0 344 118t125 345v979h121z" />
    <glyph glyph-name="Udieresis" unicode="&#xdc;" horiz-adv-x="1552" 
d="M643 1845q32 0 56 -22.5t24 -53.5q0 -33 -23.5 -55t-56.5 -22t-55.5 22t-22.5 55q0 31 23 53.5t55 22.5zM905 1845q32 0 55 -22.5t23 -53.5q0 -33 -22.5 -55t-55.5 -22t-55.5 22t-22.5 55q0 31 23 53.5t55 22.5zM1364 1532v-981q0 -276 -158.5 -422.5t-431.5 -146.5
t-430.5 146.5t-157.5 422.5v981h121v-979q0 -227 123.5 -345t343.5 -118q219 0 344 118t125 345v979h121z" />
    <glyph glyph-name="Yacute" unicode="&#xdd;" horiz-adv-x="1363" 
d="M735 1628h-112l325 277h164zM741 659v-659h-120v659l-580 873h141l500 -754l500 754h139z" />
    <glyph glyph-name="Thorn" unicode="&#xde;" horiz-adv-x="1277" 
d="M322 1309h411q127 0 228.5 -49t164 -151t62.5 -243q0 -107 -36 -192.5t-98 -140t-144 -83t-177 -28.5h-411v-422h-121v1532h121v-223zM322 1200v-670h397q95 0 171.5 36t125.5 114t49 186t-49 185.5t-125.5 113t-171.5 35.5h-397z" />
    <glyph glyph-name="germandbls" unicode="&#xdf;" horiz-adv-x="1271" 
d="M590 1608q178 0 282.5 -85.5t104.5 -226.5q0 -56 -19.5 -101.5t-47.5 -76.5t-55.5 -60.5t-47 -66t-19.5 -78.5q0 -38 20.5 -71.5t54 -61.5t73.5 -57t79.5 -65t73 -77.5t54 -102t20.5 -132.5q0 -170 -115.5 -266t-302.5 -96q-125 0 -200 32l24 97q93 -33 168 -33
q139 0 224.5 73t85.5 201q0 61 -20.5 113t-54 88.5t-73 69.5t-79.5 63t-73.5 61t-54 72t-20.5 88q0 52 19.5 95t47 72.5t55 57.5t47 64.5t19.5 79.5q0 107 -70.5 168t-197.5 61q-130 0 -209.5 -73t-79.5 -191v-1243h-115v1247q0 160 111 260.5t291 100.5z" />
    <glyph glyph-name="agrave" unicode="&#xe0;" horiz-adv-x="1095" 
d="M608 1214h-92l-268 392h131zM532 1055q183 0 280 -103.5t97 -289.5v-662h-116v156q-56 -85 -145 -129.5t-199 -44.5q-150 0 -240 74t-90 210q0 281 379 301l295 19v73q0 139 -65 215t-193 76t-199.5 -76.5t-71.5 -181.5l-117 4q0 91 43.5 171.5t133.5 134t208 53.5z
M795 487l-285 -16q-134 -8 -205.5 -55.5t-71.5 -147.5q0 -97 62 -141.5t170 -44.5q68 0 125 19t104 59.5t74 112t27 167.5v47z" />
    <glyph glyph-name="aacute" unicode="&#xe1;" horiz-adv-x="1095" 
d="M608 1214h-94l231 392h129zM532 1055q183 0 280 -103.5t97 -289.5v-662h-116v156q-56 -85 -145 -129.5t-199 -44.5q-150 0 -240 74t-90 210q0 281 379 301l295 19v73q0 139 -65 215t-193 76t-199.5 -76.5t-71.5 -181.5l-117 4q0 91 43.5 171.5t133.5 134t208 53.5z
M795 487l-285 -16q-134 -8 -205.5 -55.5t-71.5 -147.5q0 -97 62 -141.5t170 -44.5q68 0 125 19t104 59.5t74 112t27 167.5v47z" />
    <glyph glyph-name="acircumflex" unicode="&#xe2;" horiz-adv-x="1095" 
d="M866 1217h-100l-203 256l-201 -256h-100l248 339h106zM532 1055q183 0 280 -103.5t97 -289.5v-662h-116v156q-56 -85 -145 -129.5t-199 -44.5q-150 0 -240 74t-90 210q0 281 379 301l295 19v73q0 139 -65 215t-193 76t-199.5 -76.5t-71.5 -181.5l-117 4q0 91 43.5 171.5
t133.5 134t208 53.5zM795 487l-285 -16q-134 -8 -205.5 -55.5t-71.5 -147.5q0 -97 62 -141.5t170 -44.5q68 0 125 19t104 59.5t74 112t27 167.5v47z" />
    <glyph glyph-name="atilde" unicode="&#xe3;" horiz-adv-x="1095" 
d="M412 1481q43 0 83 -20.5t66.5 -45t62.5 -45t70 -20.5q51 0 79 32t30 84h69q3 -85 -43 -144.5t-122 -59.5q-43 0 -83.5 20.5t-67 45t-62.5 45t-70 20.5q-51 0 -80 -33t-29 -84h-69q-3 86 43 145.5t123 59.5zM532 1055q183 0 280 -103.5t97 -289.5v-662h-116v156
q-56 -85 -145 -129.5t-199 -44.5q-150 0 -240 74t-90 210q0 281 379 301l295 19v73q0 139 -65 215t-193 76t-199.5 -76.5t-71.5 -181.5l-117 4q0 91 43.5 171.5t133.5 134t208 53.5zM795 487l-285 -16q-134 -8 -205.5 -55.5t-71.5 -147.5q0 -97 62 -141.5t170 -44.5
q68 0 125 19t104 59.5t74 112t27 167.5v47z" />
    <glyph glyph-name="adieresis" unicode="&#xe4;" horiz-adv-x="1095" 
d="M424 1473q33 0 56.5 -22.5t23.5 -55.5q0 -32 -23.5 -53t-56.5 -21t-55.5 21t-22.5 53q0 33 22.5 55.5t55.5 22.5zM686 1473q33 0 55.5 -22.5t22.5 -55.5q0 -32 -22.5 -53t-55.5 -21t-55.5 21t-22.5 53q0 33 22.5 55.5t55.5 22.5zM532 1055q183 0 280 -103.5t97 -289.5
v-662h-116v156q-56 -85 -145 -129.5t-199 -44.5q-150 0 -240 74t-90 210q0 281 379 301l295 19v73q0 139 -65 215t-193 76t-199.5 -76.5t-71.5 -181.5l-117 4q0 91 43.5 171.5t133.5 134t208 53.5zM795 487l-285 -16q-134 -8 -205.5 -55.5t-71.5 -147.5q0 -97 62 -141.5
t170 -44.5q68 0 125 19t104 59.5t74 112t27 167.5v47z" />
    <glyph glyph-name="aring" unicode="&#xe5;" horiz-adv-x="1095" 
d="M563 1610q89 0 151 -58t62 -145q0 -88 -62 -145.5t-151 -57.5q-93 0 -155 57t-62 146q0 87 62 145t155 58zM561 1534q-60 0 -97.5 -35.5t-37.5 -91.5q0 -57 37.5 -92t97.5 -35q59 0 97 35t38 92q0 55 -38 91t-97 36zM532 1055q183 0 280 -103.5t97 -289.5v-662h-116v156
q-56 -85 -145 -129.5t-199 -44.5q-150 0 -240 74t-90 210q0 281 379 301l295 19v73q0 139 -65 215t-193 76t-199.5 -76.5t-71.5 -181.5l-117 4q0 91 43.5 171.5t133.5 134t208 53.5zM795 487l-285 -16q-134 -8 -205.5 -55.5t-71.5 -147.5q0 -97 62 -141.5t170 -44.5
q68 0 125 19t104 59.5t74 112t27 167.5v47z" />
    <glyph glyph-name="ae" unicode="&#xe6;" horiz-adv-x="1878" 
d="M1763 475h-848q3 -122 54 -212t135.5 -135.5t189.5 -45.5q135 0 224 59.5t120 167.5l115 -8q-36 -145 -157.5 -232t-297.5 -87q-146 0 -260.5 65t-177.5 186q-55 -121 -161.5 -186t-245.5 -65q-152 0 -243 74.5t-91 209.5q0 281 379 301l295 19v45q0 154 -65 238.5
t-193 84.5t-199.5 -78t-71.5 -184l-117 4q0 91 43.5 171.5t133.5 134t208 53.5q254 0 340 -226q64 108 174.5 167t247.5 59q220 0 344.5 -138.5t124.5 -367.5v-74zM1292 952q-161 0 -266 -100.5t-111 -280.5h734q0 172 -92 276.5t-265 104.5zM795 489l-285 -16
q-134 -10 -205.5 -57.5t-71.5 -145.5q0 -97 62.5 -142.5t169.5 -45.5q66 0 122.5 18.5t104.5 58.5t75.5 112t27.5 169v49z" />
    <glyph glyph-name="ccedilla" unicode="&#xe7;" horiz-adv-x="1167" 
d="M961 350l112 -8q-28 -160 -140 -255.5t-284 -104.5l-24 -111q108 -5 170.5 -52t62.5 -134q0 -89 -69 -138t-168 -49q-117 0 -201 49l22 70q75 -45 168 -45q67 0 113.5 29t46.5 84q0 122 -180 122q-28 0 -49 -6l43 181q-206 12 -335.5 154.5t-129.5 381.5q0 126 37.5 228
t104 169.5t157.5 103.5t198 36q183 0 308 -103t147 -278l-113 -10q-15 134 -109 212t-233 78q-169 0 -274.5 -115t-105.5 -321q0 -205 107 -320.5t275 -115.5q141 0 232 71.5t111 196.5z" />
    <glyph glyph-name="egrave" unicode="&#xe8;" horiz-adv-x="1202" 
d="M567 1214l-268 392h131l229 -392h-92zM1085 475h-845q4 -183 109.5 -288t268.5 -105q134 0 224 59.5t119 167.5l114 -8q-36 -145 -156 -232t-296 -87q-221 0 -362.5 143.5t-141.5 392.5q0 125 37.5 227t104.5 169.5t158 104t199 36.5q219 0 343 -138t124 -368v-74z
M616 952q-162 0 -266 -100t-110 -281h733q0 172 -92.5 276.5t-264.5 104.5z" />
    <glyph glyph-name="eacute" unicode="&#xe9;" horiz-adv-x="1202" 
d="M659 1214h-94l232 392h129zM1085 475h-845q4 -183 109.5 -288t268.5 -105q134 0 224 59.5t119 167.5l114 -8q-36 -145 -156 -232t-296 -87q-221 0 -362.5 143.5t-141.5 392.5q0 125 37.5 227t104.5 169.5t158 104t199 36.5q219 0 343 -138t124 -368v-74zM616 952
q-162 0 -266 -100t-110 -281h733q0 172 -92.5 276.5t-264.5 104.5z" />
    <glyph glyph-name="ecircumflex" unicode="&#xea;" horiz-adv-x="1202" 
d="M414 1217h-101l248 339h107l250 -339h-101l-203 256zM1085 475h-845q4 -183 109.5 -288t268.5 -105q134 0 224 59.5t119 167.5l114 -8q-36 -145 -156 -232t-296 -87q-221 0 -362.5 143.5t-141.5 392.5q0 125 37.5 227t104.5 169.5t158 104t199 36.5q219 0 343 -138
t124 -368v-74zM616 952q-162 0 -266 -100t-110 -281h733q0 172 -92.5 276.5t-264.5 104.5z" />
    <glyph glyph-name="edieresis" unicode="&#xeb;" horiz-adv-x="1202" 
d="M477 1321q-33 0 -55.5 21t-22.5 53q0 33 22.5 55.5t55.5 22.5t56.5 -22.5t23.5 -55.5q0 -32 -23.5 -53t-56.5 -21zM739 1321q-33 0 -55 21t-22 53q0 33 22 55.5t55 22.5t55.5 -22.5t22.5 -55.5q0 -32 -22.5 -53t-55.5 -21zM1085 475h-845q4 -183 109.5 -288t268.5 -105
q134 0 224 59.5t119 167.5l114 -8q-36 -145 -156 -232t-296 -87q-221 0 -362.5 143.5t-141.5 392.5q0 125 37.5 227t104.5 169.5t158 104t199 36.5q219 0 343 -138t124 -368v-74zM616 952q-162 0 -266 -100t-110 -281h733q0 172 -92.5 276.5t-264.5 104.5z" />
    <glyph glyph-name="igrave" unicode="&#xec;" 
d="M299 1214h-92l-268 392h131zM309 0h-114v1036h114v-1036z" />
    <glyph glyph-name="iacute" unicode="&#xed;" 
d="M299 1214h-94l231 392h129zM309 0h-114v1036h114v-1036z" />
    <glyph glyph-name="icircumflex" unicode="&#xee;" 
d="M557 1217h-100l-203 256l-201 -256h-100l248 339h106zM309 0h-114v1036h114v-1036z" />
    <glyph glyph-name="idieresis" unicode="&#xef;" 
d="M117 1473q33 0 56.5 -22.5t23.5 -55.5q0 -32 -23.5 -53t-56.5 -21t-55.5 21t-22.5 53q0 33 22.5 55.5t55.5 22.5zM379 1473q33 0 55.5 -22.5t22.5 -55.5q0 -32 -22.5 -53t-55.5 -21t-55.5 21t-22.5 53q0 33 22.5 55.5t55.5 22.5zM309 0h-114v1036h114v-1036z" />
    <glyph glyph-name="eth" unicode="&#xf0;" horiz-adv-x="1234" 
d="M997 1563l-219 -160q154 -139 233 -369t79 -522q0 -129 -38 -231t-105 -166.5t-155.5 -98.5t-191.5 -34q-209 0 -347 135t-138 366q0 228 138 367t345 139q206 0 346 -137q-61 323 -250 491l-221 -161l-53 57l213 152q-151 101 -371 104v96q267 0 457 -139l227 162z
M604 82q161 0 267 107.5t106 299.5q0 181 -103.5 290.5t-269.5 109.5q-165 0 -270 -110.5t-105 -295.5t105.5 -293t269.5 -108z" />
    <glyph glyph-name="ntilde" unicode="&#xf1;" horiz-adv-x="1236" 
d="M485 1481q43 0 83.5 -20.5t67 -45t62.5 -45t70 -20.5q51 0 79 32t30 84h69q3 -85 -43.5 -144.5t-122.5 -59.5q-43 0 -83 20.5t-66.5 45t-62.5 45t-70 20.5q-51 0 -80 -33t-29 -84h-70q-3 86 43 145.5t123 59.5zM649 1055q175 0 287.5 -115.5t112.5 -302.5v-637h-115v623
q0 146 -84.5 235.5t-218.5 89.5q-139 0 -230.5 -95.5t-91.5 -229.5v-623h-114v1036h110v-176q38 80 128 137.5t216 57.5z" />
    <glyph glyph-name="ograve" unicode="&#xf2;" horiz-adv-x="1284" 
d="M686 1214h-92l-268 392h131zM641 1055q225 0 374.5 -147t149.5 -390t-149.5 -389.5t-374.5 -146.5q-147 0 -265 64t-187.5 187t-69.5 285t69.5 285.5t187.5 187.5t265 64zM641 952q-177 0 -292.5 -117t-115.5 -317t115.5 -318t292.5 -118q176 0 292 118t116 318t-116 317
t-292 117z" />
    <glyph glyph-name="oacute" unicode="&#xf3;" horiz-adv-x="1284" 
d="M686 1214h-94l231 392h129zM641 1055q225 0 374.5 -147t149.5 -390t-149.5 -389.5t-374.5 -146.5q-147 0 -265 64t-187.5 187t-69.5 285t69.5 285.5t187.5 187.5t265 64zM641 952q-177 0 -292.5 -117t-115.5 -317t115.5 -318t292.5 -118q176 0 292 118t116 318t-116 317
t-292 117z" />
    <glyph glyph-name="ocircumflex" unicode="&#xf4;" horiz-adv-x="1284" 
d="M944 1217h-100l-203 256l-201 -256h-100l248 339h106zM641 1055q225 0 374.5 -147t149.5 -390t-149.5 -389.5t-374.5 -146.5q-147 0 -265 64t-187.5 187t-69.5 285t69.5 285.5t187.5 187.5t265 64zM641 952q-177 0 -292.5 -117t-115.5 -317t115.5 -318t292.5 -118
q176 0 292 118t116 318t-116 317t-292 117z" />
    <glyph glyph-name="otilde" unicode="&#xf5;" horiz-adv-x="1284" 
d="M489 1481q43 0 83.5 -20.5t67 -45t62.5 -45t70 -20.5q51 0 79 32t30 84h69q3 -85 -43.5 -144.5t-122.5 -59.5q-43 0 -83 20.5t-66.5 45t-62.5 45t-70 20.5q-51 0 -80 -33t-29 -84h-69q-3 86 42.5 145.5t122.5 59.5zM641 1055q225 0 374.5 -147t149.5 -390t-149.5 -389.5
t-374.5 -146.5q-147 0 -265 64t-187.5 187t-69.5 285t69.5 285.5t187.5 187.5t265 64zM641 952q-177 0 -292.5 -117t-115.5 -317t115.5 -318t292.5 -118q176 0 292 118t116 318t-116 317t-292 117z" />
    <glyph glyph-name="odieresis" unicode="&#xf6;" horiz-adv-x="1284" 
d="M502 1473q33 0 56.5 -22.5t23.5 -55.5q0 -32 -23.5 -53t-56.5 -21t-55.5 21t-22.5 53q0 33 22.5 55.5t55.5 22.5zM764 1473q33 0 55.5 -22.5t22.5 -55.5q0 -32 -22.5 -53t-55.5 -21t-55.5 21t-22.5 53q0 33 22.5 55.5t55.5 22.5zM641 1055q225 0 374.5 -147t149.5 -390
t-149.5 -389.5t-374.5 -146.5q-147 0 -265 64t-187.5 187t-69.5 285t69.5 285.5t187.5 187.5t265 64zM641 952q-177 0 -292.5 -117t-115.5 -317t115.5 -318t292.5 -118q176 0 292 118t116 318t-116 317t-292 117z" />
    <glyph glyph-name="divide" unicode="&#xf7;" horiz-adv-x="1118" 
d="M557 1253q39 0 66.5 -26.5t27.5 -63.5q0 -38 -27 -64t-67 -26q-36 0 -62 26t-26 64q0 37 26.5 63.5t61.5 26.5zM1047 705h-979v106h979v-106zM557 442q40 0 67 -26t27 -66q0 -36 -27.5 -62t-66.5 -26q-35 0 -61.5 26.5t-26.5 61.5q0 39 26 65.5t62 26.5z" />
    <glyph glyph-name="oslash" unicode="&#xf8;" horiz-adv-x="1284" 
d="M1087 1032l-83 -110q161 -151 161 -404q0 -243 -149.5 -389.5t-374.5 -146.5q-164 0 -291 79l-90 -116l-65 49l90 119q-166 150 -166 405q0 162 69.5 285.5t187.5 187.5t265 64q169 0 297 -84l84 110zM233 518q0 -199 117 -319l522 686q-98 67 -231 67
q-177 0 -292.5 -117t-115.5 -317zM641 82q176 0 292 118t116 318q0 194 -113 313l-522 -686q101 -63 227 -63z" />
    <glyph glyph-name="ugrave" unicode="&#xf9;" horiz-adv-x="1198" 
d="M649 1214h-92l-268 392h131zM1004 0h-109v176q-34 -78 -119 -136t-211 -58q-172 0 -275.5 113.5t-103.5 297.5v643h113v-628q0 -144 77 -231t210 -87q137 0 220 95t83 229v622h115v-1036z" />
    <glyph glyph-name="uacute" unicode="&#xfa;" horiz-adv-x="1198" 
d="M649 1214h-94l231 392h129zM1004 0h-109v176q-34 -78 -119 -136t-211 -58q-172 0 -275.5 113.5t-103.5 297.5v643h113v-628q0 -144 77 -231t210 -87q137 0 220 95t83 229v622h115v-1036z" />
    <glyph glyph-name="ucircumflex" unicode="&#xfb;" horiz-adv-x="1198" 
d="M907 1217h-100l-203 256l-201 -256h-100l248 339h106zM1004 0h-109v176q-34 -78 -119 -136t-211 -58q-172 0 -275.5 113.5t-103.5 297.5v643h113v-628q0 -144 77 -231t210 -87q137 0 220 95t83 229v622h115v-1036z" />
    <glyph glyph-name="udieresis" unicode="&#xfc;" horiz-adv-x="1198" 
d="M467 1473q33 0 56.5 -22.5t23.5 -55.5q0 -32 -23.5 -53t-56.5 -21t-55.5 21t-22.5 53q0 33 22.5 55.5t55.5 22.5zM729 1473q33 0 55.5 -22.5t22.5 -55.5q0 -32 -22.5 -53t-55.5 -21t-55.5 21t-22.5 53q0 33 22.5 55.5t55.5 22.5zM1004 0h-109v176q-34 -78 -119 -136
t-211 -58q-172 0 -275.5 113.5t-103.5 297.5v643h113v-628q0 -144 77 -231t210 -87q137 0 220 95t83 229v622h115v-1036z" />
    <glyph glyph-name="yacute" unicode="&#xfd;" horiz-adv-x="1042" 
d="M567 1214h-94l232 392h129zM350 -522h-127l236 559l-416 999h127l352 -868l352 868h127z" />
    <glyph glyph-name="thorn" unicode="&#xfe;" horiz-adv-x="1316" 
d="M309 1591v-755q46 99 148 159t243 60q105 0 197 -37t159.5 -104.5t106.5 -169.5t39 -226t-39 -226t-106.5 -169.5t-159.5 -104t-197 -36.5q-142 0 -243.5 59t-147.5 158v-721h-114v2113h114zM690 952q-170 0 -275.5 -102t-105.5 -297v-72q0 -194 105.5 -296.5
t275.5 -102.5q172 0 284.5 115t112.5 319q0 206 -112 321t-285 115z" />
    <glyph glyph-name="ydieresis" unicode="&#xff;" horiz-adv-x="1042" 
d="M383 1473q33 0 56.5 -22.5t23.5 -55.5q0 -32 -23.5 -53t-56.5 -21t-55.5 21t-22.5 53q0 33 22.5 55.5t55.5 22.5zM645 1473q33 0 55.5 -22.5t22.5 -55.5q0 -32 -22.5 -53t-55.5 -21t-55.5 21t-22.5 53q0 33 22.5 55.5t55.5 22.5zM350 -522h-127l236 559l-416 999h127
l352 -868l352 868h127z" />
    <glyph glyph-name="Amacron" unicode="&#x100;" horiz-adv-x="1447" 
d="M977 1729h-502v90h502v-90zM1409 0h-133l-180 444h-742l-182 -444h-133l633 1532h104zM397 547h654l-326 799z" />
    <glyph glyph-name="amacron" unicode="&#x101;" horiz-adv-x="1095" 
d="M813 1317h-502v90h502v-90zM532 1055q183 0 280 -103.5t97 -289.5v-662h-116v156q-56 -85 -145 -129.5t-199 -44.5q-150 0 -240 74t-90 210q0 281 379 301l295 19v73q0 139 -65 215t-193 76t-199.5 -76.5t-71.5 -181.5l-117 4q0 91 43.5 171.5t133.5 134t208 53.5z
M795 487l-285 -16q-134 -8 -205.5 -55.5t-71.5 -147.5q0 -97 62 -141.5t170 -44.5q68 0 125 19t104 59.5t74 112t27 167.5v47z" />
    <glyph glyph-name="Abreve" unicode="&#x102;" horiz-adv-x="1447" 
d="M920 1896h96q0 -114 -79 -176.5t-212 -62.5t-212 62.5t-79 176.5h96q0 -72 53 -114.5t142 -42.5t142 42.5t53 114.5zM1409 0h-133l-180 444h-742l-182 -444h-133l633 1532h104zM397 547h654l-326 799z" />
    <glyph glyph-name="abreve" unicode="&#x103;" horiz-adv-x="1095" 
d="M756 1470h96q0 -114 -79 -176.5t-212 -62.5t-212 62.5t-79 176.5h97q0 -72 52.5 -113.5t141.5 -41.5q90 0 142.5 41.5t52.5 113.5zM532 1055q183 0 280 -103.5t97 -289.5v-662h-116v156q-56 -85 -145 -129.5t-199 -44.5q-150 0 -240 74t-90 210q0 281 379 301l295 19v73
q0 139 -65 215t-193 76t-199.5 -76.5t-71.5 -181.5l-117 4q0 91 43.5 171.5t133.5 134t208 53.5zM795 487l-285 -16q-134 -8 -205.5 -55.5t-71.5 -147.5q0 -97 62 -141.5t170 -44.5q68 0 125 19t104 59.5t74 112t27 167.5v47z" />
    <glyph glyph-name="Aogonek" unicode="&#x104;" horiz-adv-x="1447" 
d="M1264 -313q66 0 122 24l13 -63q-78 -29 -148 -29q-90 0 -147 43t-57 119t56 133.5t165 105.5l-172 424h-742l-182 -444h-133l633 1532h104l633 -1532h-61q-107 -50 -160 -98t-53 -111q0 -51 35.5 -77.5t93.5 -26.5zM1051 547l-326 799l-328 -799h654z" />
    <glyph glyph-name="aogonek" unicode="&#x105;" horiz-adv-x="1095" 
d="M922 -287l12 -63q-78 -29 -148 -29q-90 0 -147 43t-57 119q0 73 53.5 130t157.5 105v138q-56 -85 -145 -129.5t-199 -44.5q-150 0 -240 74t-90 210q0 281 379 301l295 19v73q0 139 -65 215t-193 76t-199.5 -76.5t-71.5 -181.5l-117 4q0 91 43.5 171.5t133.5 134t208 53.5
q183 0 280 -103.5t97 -289.5v-662h-30q-106 -50 -157.5 -97t-51.5 -110q0 -51 35.5 -77.5t93.5 -26.5q67 0 123 24zM465 82q68 0 125 19t104 59.5t74 112t27 167.5v47l-285 -16q-134 -8 -205.5 -55.5t-71.5 -147.5q0 -97 62 -141.5t170 -44.5z" />
    <glyph glyph-name="Cacute" unicode="&#x106;" horiz-adv-x="1636" 
d="M893 1628h-113l326 277h164zM860 1550q270 0 461 -151.5t223 -405.5l-125 -12q-27 213 -183 337t-380 124q-133 0 -245 -46t-193 -131t-126.5 -213t-45.5 -286q0 -160 47.5 -289t131 -213t195.5 -129t242 -45q221 0 372 113.5t187 316.5l125 -10q-42 -245 -227 -386.5
t-453 -141.5q-158 0 -294 53t-236 151.5t-156.5 247.5t-56.5 332q0 184 55.5 333t154 247t233.5 151t294 53z" />
    <glyph glyph-name="cacute" unicode="&#x107;" horiz-adv-x="1167" 
d="M645 1214h-94l231 392h129zM616 1055q183 0 308 -103t147 -278l-113 -10q-15 134 -109 212t-233 78q-169 0 -274.5 -115t-105.5 -321q0 -205 107 -320.5t275 -115.5q141 0 232 71.5t111 196.5l112 -8q-29 -168 -150 -264t-305 -96q-220 0 -359.5 143t-139.5 393
q0 126 37.5 228t104 169.5t157.5 103.5t198 36z" />
    <glyph glyph-name="Ccircumflex" unicode="&#x108;" horiz-adv-x="1636" 
d="M1141 1628h-103l-198 201l-197 -201h-102l247 277h107zM860 1550q270 0 461 -151.5t223 -405.5l-125 -12q-27 213 -183 337t-380 124q-133 0 -245 -46t-193 -131t-126.5 -213t-45.5 -286q0 -160 47.5 -289t131 -213t195.5 -129t242 -45q221 0 372 113.5t187 316.5
l125 -10q-42 -245 -227 -386.5t-453 -141.5q-158 0 -294 53t-236 151.5t-156.5 247.5t-56.5 332q0 184 55.5 333t154 247t233.5 151t294 53z" />
    <glyph glyph-name="ccircumflex" unicode="&#x109;" horiz-adv-x="1167" 
d="M903 1217h-100l-203 256l-201 -256h-100l248 339h106zM616 1055q183 0 308 -103t147 -278l-113 -10q-15 134 -109 212t-233 78q-169 0 -274.5 -115t-105.5 -321q0 -205 107 -320.5t275 -115.5q141 0 232 71.5t111 196.5l112 -8q-29 -168 -150 -264t-305 -96
q-220 0 -359.5 143t-139.5 393q0 126 37.5 228t104 169.5t157.5 103.5t198 36z" />
    <glyph glyph-name="Cdotaccent" unicode="&#x10a;" horiz-adv-x="1636" 
d="M842 1843q35 0 60.5 -26.5t25.5 -61.5t-25.5 -61.5t-60.5 -26.5q-37 0 -63.5 26.5t-26.5 61.5t26.5 61.5t63.5 26.5zM860 1550q270 0 461 -151.5t223 -405.5l-125 -12q-27 213 -183 337t-380 124q-133 0 -245 -46t-193 -131t-126.5 -213t-45.5 -286q0 -160 47.5 -289
t131 -213t195.5 -129t242 -45q221 0 372 113.5t187 316.5l125 -10q-42 -245 -227 -386.5t-453 -141.5q-158 0 -294 53t-236 151.5t-156.5 247.5t-56.5 332q0 184 55.5 333t154 247t233.5 151t294 53z" />
    <glyph glyph-name="cdotaccent" unicode="&#x10b;" horiz-adv-x="1167" 
d="M602 1481q35 0 60.5 -26.5t25.5 -61.5t-25.5 -61.5t-60.5 -26.5q-37 0 -63.5 26.5t-26.5 61.5t26.5 61.5t63.5 26.5zM616 1055q183 0 308 -103t147 -278l-113 -10q-15 134 -109 212t-233 78q-169 0 -274.5 -115t-105.5 -321q0 -205 107 -320.5t275 -115.5q141 0 232 71.5
t111 196.5l112 -8q-29 -168 -150 -264t-305 -96q-220 0 -359.5 143t-139.5 393q0 126 37.5 228t104 169.5t157.5 103.5t198 36z" />
    <glyph glyph-name="Ccaron" unicode="&#x10c;" horiz-adv-x="1636" 
d="M895 1628h-107l-247 277h102l197 -201l198 201h103zM860 1550q270 0 461 -151.5t223 -405.5l-125 -12q-27 213 -183 337t-380 124q-133 0 -245 -46t-193 -131t-126.5 -213t-45.5 -286q0 -160 47.5 -289t131 -213t195.5 -129t242 -45q221 0 372 113.5t187 316.5l125 -10
q-42 -245 -227 -386.5t-453 -141.5q-158 0 -294 53t-236 151.5t-156.5 247.5t-56.5 332q0 184 55.5 333t154 247t233.5 151t294 53z" />
    <glyph glyph-name="ccaron" unicode="&#x10d;" horiz-adv-x="1167" 
d="M653 1212h-106l-248 338h100l201 -256l203 256h100zM616 1055q183 0 308 -103t147 -278l-113 -10q-15 134 -109 212t-233 78q-169 0 -274.5 -115t-105.5 -321q0 -205 107 -320.5t275 -115.5q141 0 232 71.5t111 196.5l112 -8q-29 -168 -150 -264t-305 -96
q-220 0 -359.5 143t-139.5 393q0 126 37.5 228t104 169.5t157.5 103.5t198 36z" />
    <glyph glyph-name="Dcaron" unicode="&#x10e;" horiz-adv-x="1632" 
d="M776 1628h-106l-248 277h102l197 -201l199 201h102zM201 1532h581q155 0 288 -52t230 -148.5t152 -242t55 -323.5t-56 -323.5t-154.5 -242t-231.5 -148.5t-287 -52h-577v1532zM322 1427v-1323h456q131 0 242 44t192.5 126t127.5 208.5t46 283.5t-45 283t-126 208.5
t-191 126t-242 43.5h-460z" />
    <glyph glyph-name="dcaron" unicode="&#x10f;" horiz-adv-x="1482" 
d="M1012 1591h114v-1591h-110v199q-46 -98 -149 -157.5t-246 -59.5q-106 0 -197.5 36.5t-159.5 103.5t-106.5 168.5t-38.5 225.5q0 166 67 289.5t180 186.5t255 63q141 0 243 -58t148 -153v747zM1364 1507q41 0 62.5 -28t21.5 -76q0 -230 -188 -346v55q101 80 108 219h-2
q-36 0 -62 26t-26 62q0 37 24.5 62.5t61.5 25.5zM1010 483v70q0 195 -105 297t-274 102q-174 0 -286 -114.5t-112 -319.5q0 -206 112 -321t286 -115q169 0 274 103t105 298z" />
    <glyph glyph-name="Dcroat" unicode="&#x110;" horiz-adv-x="1611" 
d="M244 1532h581q155 0 288 -52t230 -148.5t152 -242t55 -323.5t-56 -323.5t-154.5 -242t-231.5 -148.5t-287 -52h-577v719h-242v94h242v719zM365 104h456q131 0 242 44t193 126t128 208.5t46 283.5t-45 283t-126 208.5t-191.5 126t-242.5 43.5h-460v-614h350v-94h-350v-615
z" />
    <glyph glyph-name="dcroat" unicode="&#x111;" horiz-adv-x="1302" 
d="M1305 1270h-179v-1270h-110v199q-46 -98 -149 -157.5t-246 -59.5q-106 0 -197.5 36.5t-159.5 103.5t-106.5 168.5t-38.5 225.5q0 166 67 289.5t180 186.5t255 63q141 0 243 -58t148 -153v426h-209v90h209v231h114v-231h179v-90zM1010 483v70q0 195 -105 297t-274 102
q-174 0 -286 -114.5t-112 -319.5q0 -206 112 -321t286 -115q169 0 274 103t105 298z" />
    <glyph glyph-name="Emacron" unicode="&#x112;" horiz-adv-x="1204" 
d="M924 1729h-502v90h502v-90zM1128 1425h-806v-577h716v-107h-716v-632h806v-109h-927v1532h927v-107z" />
    <glyph glyph-name="emacron" unicode="&#x113;" horiz-adv-x="1202" 
d="M866 1317h-501v90h501v-90zM1085 475h-845q4 -183 109.5 -288t268.5 -105q134 0 224 59.5t119 167.5l114 -8q-36 -145 -156 -232t-296 -87q-221 0 -362.5 143.5t-141.5 392.5q0 125 37.5 227t104.5 169.5t158 104t199 36.5q219 0 343 -138t124 -368v-74zM616 952
q-162 0 -266 -100t-110 -281h733q0 172 -92.5 276.5t-264.5 104.5z" />
    <glyph glyph-name="Ebreve" unicode="&#x114;" horiz-adv-x="1204" 
d="M866 1896h97q0 -114 -79 -176.5t-212 -62.5t-212 62.5t-79 176.5h96q0 -72 53 -114.5t142 -42.5t141.5 42.5t52.5 114.5zM1128 1425h-806v-577h716v-107h-716v-632h806v-109h-927v1532h927v-107z" />
    <glyph glyph-name="ebreve" unicode="&#x115;" horiz-adv-x="1202" 
d="M614 1231q-133 0 -211.5 62.5t-78.5 176.5h96q0 -72 52.5 -113.5t141.5 -41.5q90 0 142.5 41.5t52.5 113.5h96q0 -114 -79 -176.5t-212 -62.5zM1085 475h-845q4 -183 109.5 -288t268.5 -105q134 0 224 59.5t119 167.5l114 -8q-36 -145 -156 -232t-296 -87
q-221 0 -362.5 143.5t-141.5 392.5q0 125 37.5 227t104.5 169.5t158 104t199 36.5q219 0 343 -138t124 -368v-74zM616 952q-162 0 -266 -100t-110 -281h733q0 172 -92.5 276.5t-264.5 104.5z" />
    <glyph glyph-name="Edotaccent" unicode="&#x116;" horiz-adv-x="1204" 
d="M676 1843q35 0 60.5 -26.5t25.5 -61.5t-25.5 -61.5t-60.5 -26.5q-37 0 -63.5 26.5t-26.5 61.5t26.5 61.5t63.5 26.5zM1128 1425h-806v-577h716v-107h-716v-632h806v-109h-927v1532h927v-107z" />
    <glyph glyph-name="edotaccent" unicode="&#x117;" horiz-adv-x="1202" 
d="M618 1305q-37 0 -63.5 26.5t-26.5 61.5t26.5 61.5t63.5 26.5q35 0 61 -26.5t26 -61.5t-26 -61.5t-61 -26.5zM1085 475h-845q4 -183 109.5 -288t268.5 -105q134 0 224 59.5t119 167.5l114 -8q-36 -145 -156 -232t-296 -87q-221 0 -362.5 143.5t-141.5 392.5
q0 125 37.5 227t104.5 169.5t158 104t199 36.5q219 0 343 -138t124 -368v-74zM616 952q-162 0 -266 -100t-110 -281h733q0 172 -92.5 276.5t-264.5 104.5z" />
    <glyph glyph-name="Eogonek" unicode="&#x118;" horiz-adv-x="1204" 
d="M1143 -289l12 -63q-78 -29 -147 -29q-90 0 -147.5 43t-57.5 119q0 129 178 219h-780v1532h927v-107h-806v-577h716v-107h-716v-632h806v-109h-24q-107 -50 -160 -98t-53 -111q0 -51 35.5 -77.5t93.5 -26.5q68 0 123 24z" />
    <glyph glyph-name="eogonek" unicode="&#x119;" horiz-adv-x="1202" 
d="M1085 475h-845q4 -183 109.5 -288t268.5 -105q134 0 224 59.5t119 167.5l114 -8q-29 -121 -119.5 -202.5t-224.5 -106.5q-102 -48 -152.5 -95.5t-50.5 -109.5q0 -51 35.5 -77.5t93.5 -26.5q67 0 123 24l13 -63q-78 -29 -148 -29q-90 0 -147.5 43t-57.5 119q0 122 154 205
q-210 11 -342.5 153.5t-132.5 382.5q0 125 37.5 227t104.5 169.5t158 104t199 36.5q219 0 343 -138t124 -368v-74zM616 952q-162 0 -266 -100t-110 -281h733q0 172 -92.5 276.5t-264.5 104.5z" />
    <glyph glyph-name="Ecaron" unicode="&#x11a;" horiz-adv-x="1204" 
d="M727 1628h-106l-248 277h102l197 -201l198 201h103zM1128 1425h-806v-577h716v-107h-716v-632h806v-109h-927v1532h927v-107z" />
    <glyph glyph-name="ecaron" unicode="&#x11b;" horiz-adv-x="1202" 
d="M561 1212l-248 338h101l200 -256l203 256h101l-250 -338h-107zM1085 475h-845q4 -183 109.5 -288t268.5 -105q134 0 224 59.5t119 167.5l114 -8q-36 -145 -156 -232t-296 -87q-221 0 -362.5 143.5t-141.5 392.5q0 125 37.5 227t104.5 169.5t158 104t199 36.5
q219 0 343 -138t124 -368v-74zM616 952q-162 0 -266 -100t-110 -281h733q0 172 -92.5 276.5t-264.5 104.5z" />
    <glyph glyph-name="Gcircumflex" unicode="&#x11c;" horiz-adv-x="1667" 
d="M649 1628h-102l248 277h106l246 -277h-103l-198 201zM1550 750v-45q0 -341 -187 -532t-507 -191q-156 0 -289.5 53t-232 151.5t-155 247.5t-56.5 332q0 184 55.5 333t153.5 247t231.5 151t290.5 53q269 0 459.5 -147t226.5 -402l-125 -20q-27 213 -182 337t-379 124
q-133 0 -244 -44.5t-192 -128.5t-126.5 -213t-45.5 -290t46 -290t128 -213t193 -128.5t241 -44.5q250 0 402 140t167 411h-561v109h688z" />
    <glyph glyph-name="gcircumflex" unicode="&#x11d;" horiz-adv-x="1314" 
d="M948 1217h-100l-203 256l-201 -256h-100l248 339h106zM621 1055q142 0 245.5 -60.5t149.5 -158.5v200h110v-1106q0 -219 -132.5 -344t-350.5 -125q-199 0 -325.5 96.5t-161.5 254.5l116 4q23 -118 125.5 -188t241.5 -70q168 0 270.5 95.5t102.5 268.5v271
q-46 -95 -148 -153t-243 -58q-218 0 -360 144.5t-142 391.5t142 392t360 145zM631 952q-174 0 -286 -114.5t-112 -321.5q0 -204 112 -319t286 -115q169 0 274 102.5t105 296.5v72q0 195 -105 297t-274 102z" />
    <glyph glyph-name="Gbreve" unicode="&#x11e;" horiz-adv-x="1667" 
d="M846 1657q-133 0 -212 62.5t-79 176.5h96q0 -72 53 -114.5t142 -42.5t141.5 42.5t52.5 114.5h97q0 -114 -79 -176.5t-212 -62.5zM1550 750v-45q0 -341 -187 -532t-507 -191q-156 0 -289.5 53t-232 151.5t-155 247.5t-56.5 332q0 184 55.5 333t153.5 247t231.5 151
t290.5 53q269 0 459.5 -147t226.5 -402l-125 -20q-27 213 -182 337t-379 124q-133 0 -244 -44.5t-192 -128.5t-126.5 -213t-45.5 -290t46 -290t128 -213t193 -128.5t241 -44.5q250 0 402 140t167 411h-561v109h688z" />
    <glyph glyph-name="gbreve" unicode="&#x11f;" horiz-adv-x="1314" 
d="M840 1470h96q0 -114 -79 -176.5t-212 -62.5t-212 62.5t-79 176.5h97q0 -72 52.5 -113.5t141.5 -41.5q90 0 142.5 41.5t52.5 113.5zM621 1055q142 0 245.5 -60.5t149.5 -158.5v200h110v-1106q0 -219 -132.5 -344t-350.5 -125q-199 0 -325.5 96.5t-161.5 254.5l116 4
q23 -118 125.5 -188t241.5 -70q168 0 270.5 95.5t102.5 268.5v271q-46 -95 -148 -153t-243 -58q-218 0 -360 144.5t-142 391.5t142 392t360 145zM631 952q-174 0 -286 -114.5t-112 -321.5q0 -204 112 -319t286 -115q169 0 274 102.5t105 296.5v72q0 195 -105 297t-274 102z
" />
    <glyph glyph-name="Gdotaccent" unicode="&#x120;" horiz-adv-x="1667" 
d="M850 1667q-37 0 -63.5 26.5t-26.5 61.5t26.5 61.5t63.5 26.5q35 0 60.5 -26.5t25.5 -61.5t-25.5 -61.5t-60.5 -26.5zM1550 750v-45q0 -341 -187 -532t-507 -191q-156 0 -289.5 53t-232 151.5t-155 247.5t-56.5 332q0 184 55.5 333t153.5 247t231.5 151t290.5 53
q269 0 459.5 -147t226.5 -402l-125 -20q-27 213 -182 337t-379 124q-133 0 -244 -44.5t-192 -128.5t-126.5 -213t-45.5 -290t46 -290t128 -213t193 -128.5t241 -44.5q250 0 402 140t167 411h-561v109h688z" />
    <glyph glyph-name="gdotaccent" unicode="&#x121;" horiz-adv-x="1314" 
d="M649 1481q35 0 60.5 -26.5t25.5 -61.5t-25.5 -61.5t-60.5 -26.5q-37 0 -63.5 26.5t-26.5 61.5t26.5 61.5t63.5 26.5zM621 1055q142 0 245.5 -60.5t149.5 -158.5v200h110v-1106q0 -219 -132.5 -344t-350.5 -125q-199 0 -325.5 96.5t-161.5 254.5l116 4q23 -118 125.5 -188
t241.5 -70q168 0 270.5 95.5t102.5 268.5v271q-46 -95 -148 -153t-243 -58q-218 0 -360 144.5t-142 391.5t142 392t360 145zM631 952q-174 0 -286 -114.5t-112 -321.5q0 -204 112 -319t286 -115q169 0 274 102.5t105 296.5v72q0 195 -105 297t-274 102z" />
    <glyph glyph-name="Gcommaaccent" unicode="&#x122;" horiz-adv-x="1667" 
d="M1550 750v-45q0 -341 -187 -532t-507 -191q-156 0 -289.5 53t-232 151.5t-155 247.5t-56.5 332q0 184 55.5 333t153.5 247t231.5 151t290.5 53q269 0 459.5 -147t226.5 -402l-125 -20q-27 213 -182 337t-379 124q-133 0 -244 -44.5t-192 -128.5t-126.5 -213t-45.5 -290
t46 -290t128 -213t193 -128.5t241 -44.5q250 0 402 140t167 411h-561v109h688zM850 -92q40 0 62 -28.5t22 -76.5q0 -229 -189 -346v56q102 81 109 219h-2q-36 0 -62 26t-26 62q0 37 24.5 62.5t61.5 25.5z" />
    <glyph glyph-name="gcommaaccent" unicode="&#x123;" horiz-adv-x="1314" 
d="M758 1548q0 -229 -189 -346v55q102 81 109 220h-2q-36 0 -62 26t-26 62q0 37 24.5 62.5t61.5 25.5q40 0 62 -28.5t22 -76.5zM1126 1036v-1106q0 -219 -132.5 -344t-350.5 -125q-199 0 -325.5 96.5t-161.5 254.5l116 4q23 -118 125.5 -188t241.5 -70q168 0 270.5 95.5
t102.5 268.5v271q-46 -95 -148 -153t-243 -58q-218 0 -360 144.5t-142 391.5t142 392t360 145q142 0 245.5 -60.5t149.5 -158.5v200h110zM1010 481v72q0 195 -105 297t-274 102q-174 0 -286 -114.5t-112 -321.5q0 -204 112 -319t286 -115q169 0 274 102.5t105 296.5z" />
    <glyph glyph-name="Hcircumflex" unicode="&#x124;" horiz-adv-x="1531" 
d="M1065 1628h-102l-199 201l-197 -201h-102l248 277h106zM1333 0h-123v743h-888v-743h-121v1532h121v-680h888v680h123v-1532z" />
    <glyph glyph-name="hcircumflex" unicode="&#x125;" horiz-adv-x="1220" 
d="M553 1630h-102l-197 201l-199 -201h-102l248 277h106zM309 1591v-725q36 77 126 133t214 56q175 0 287.5 -115.5t112.5 -302.5v-637h-115v623q0 146 -84.5 235.5t-218.5 89.5q-139 0 -230.5 -95.5t-91.5 -229.5v-623h-114v1591h114z" />
    <glyph glyph-name="Hbar" unicode="&#x126;" horiz-adv-x="1546" 
d="M1532 1139h-193v-1139h-120v743h-891v-743h-121v1139h-193v94h193v299h121v-299h891v299h120v-299h193v-94zM1219 1139h-891v-287h891v287z" />
    <glyph glyph-name="hbar" unicode="&#x127;" horiz-adv-x="1220" 
d="M649 1055q175 0 287.5 -115.5t112.5 -302.5v-637h-115v623q0 146 -84.5 235.5t-218.5 89.5q-139 0 -230.5 -95.5t-91.5 -229.5v-623h-114v1270h-183v90h183v231h114v-231h205v-90h-205v-404q36 77 126 133t214 56z" />
    <glyph glyph-name="Itilde" unicode="&#x128;" horiz-adv-x="522" 
d="M117 1890q43 0 83 -20.5t66.5 -45t62.5 -45t70 -20.5q51 0 79 32.5t30 84.5h70q3 -85 -43.5 -145t-122.5 -60q-43 0 -83.5 20.5t-67 45t-62.5 45t-70 20.5q-51 0 -80 -32.5t-29 -83.5h-69q-3 86 43 145t123 59zM322 0h-121v1532h121v-1532z" />
    <glyph glyph-name="itilde" unicode="&#x129;" 
d="M104 1481q43 0 83.5 -20.5t67 -45t62.5 -45t70 -20.5q51 0 79 32t30 84h69q3 -85 -43.5 -144.5t-122.5 -59.5q-43 0 -83 20.5t-66.5 45t-62.5 45t-70 20.5q-51 0 -80 -33t-29 -84h-69q-3 86 42.5 145.5t122.5 59.5zM309 0h-114v1036h114v-1036z" />
    <glyph glyph-name="Imacron" unicode="&#x12a;" horiz-adv-x="522" 
d="M516 1729h-502v90h502v-90zM322 0h-121v1532h121v-1532z" />
    <glyph glyph-name="imacron" unicode="&#x12b;" 
d="M506 1317h-502v90h502v-90zM309 0h-114v1036h114v-1036z" />
    <glyph glyph-name="Ibreve" unicode="&#x12c;" horiz-adv-x="522" 
d="M459 1896h96q0 -114 -79 -176.5t-212 -62.5t-212 62.5t-79 176.5h97q0 -72 52.5 -114.5t141.5 -42.5t142 42.5t53 114.5zM322 0h-121v1532h121v-1532z" />
    <glyph glyph-name="ibreve" unicode="&#x12d;" 
d="M449 1470h96q0 -114 -79 -176.5t-212 -62.5t-212 62.5t-79 176.5h96q0 -72 52.5 -113.5t142.5 -41.5t142.5 41.5t52.5 113.5zM309 0h-114v1036h114v-1036z" />
    <glyph glyph-name="Iogonek" unicode="&#x12e;" horiz-adv-x="522" 
d="M313 -287l13 -63q-78 -29 -148 -29q-90 0 -147.5 43t-57.5 119t58.5 135t169.5 107v1507h121v-1532h-52q-106 -50 -157.5 -97t-51.5 -110q0 -51 35.5 -77.5t93.5 -26.5q68 0 123 24z" />
    <glyph glyph-name="iogonek" unicode="&#x12f;" 
d="M258 1305q-37 0 -63.5 26.5t-26.5 61.5t26.5 61.5t63.5 26.5q35 0 60.5 -26.5t25.5 -61.5t-25.5 -61.5t-60.5 -26.5zM199 -311q67 0 123 24l12 -63q-78 -29 -148 -29q-90 0 -147 43t-57 119q0 141 213 235v1018h114v-1036h-30q-106 -50 -157.5 -97t-51.5 -110
q0 -51 35.5 -77.5t93.5 -26.5z" />
    <glyph glyph-name="Idotaccent" unicode="&#x130;" horiz-adv-x="522" 
d="M266 1843q35 0 60.5 -26.5t25.5 -61.5t-25.5 -61.5t-60.5 -26.5q-37 0 -63.5 26.5t-26.5 61.5t26.5 61.5t63.5 26.5zM322 0h-121v1532h121v-1532z" />
    <glyph glyph-name="dotlessi" unicode="&#x131;" 
d="M309 0h-114v1036h114v-1036z" />
    <glyph glyph-name="Jcircumflex" unicode="&#x134;" horiz-adv-x="1148" 
d="M1208 1628h-102l-199 201l-196 -201h-103l248 277h107zM963 1532v-1077q0 -226 -119 -349.5t-328 -123.5q-208 0 -330 122t-133 334l121 19q9 -175 100 -271t242 -96q154 0 240 93.5t86 269.5v1079h121z" />
    <glyph glyph-name="jcircumflex" unicode="&#x135;" 
d="M553 1217h-100l-203 256l-201 -256h-100l248 339h106zM311 1036v-1218q0 -176 -80 -263t-221 -87q-67 0 -125 28l41 94q3 -1 14.5 -6t17.5 -7t17 -4.5t23 -2.5q96 0 148.5 60.5t52.5 183.5v1222h112z" />
    <glyph glyph-name="Kcommaaccent" unicode="&#x136;" horiz-adv-x="1337" 
d="M1294 0h-151l-637 776l-184 -198v-578h-121v1532h121v-776l722 776h156l-614 -662zM690 -82q41 0 62.5 -28t21.5 -76q0 -230 -188 -346v55q101 80 108 219h-2q-36 0 -62 26t-26 62q0 37 24.5 62.5t61.5 25.5z" />
    <glyph glyph-name="kcommaaccent" unicode="&#x137;" horiz-adv-x="1054" 
d="M1030 0h-151l-451 500l-119 -117v-383h-114v1591h114v-1054l518 499h146l-463 -454zM571 -82q41 0 62.5 -28t21.5 -76q0 -230 -188 -346v55q101 80 108 219h-2q-36 0 -62 26t-26 62q0 37 24.5 62.5t61.5 25.5z" />
    <glyph glyph-name="Lacute" unicode="&#x139;" horiz-adv-x="1210" 
d="M319 1628h-112l325 277h164zM322 109h819v-109h-940v1532h121v-1423z" />
    <glyph glyph-name="lacute" unicode="&#x13a;" 
d="M309 1653h-112l325 276h164zM309 0h-114v1591h114v-1591z" />
    <glyph glyph-name="Lcommaaccent" unicode="&#x13b;" horiz-adv-x="1210" 
d="M1141 109v-109h-940v1532h121v-1423h819zM688 -82q41 0 62.5 -28t21.5 -76q0 -230 -188 -346v55q101 80 108 219h-2q-36 0 -62 26t-26 62q0 37 24.5 62.5t61.5 25.5z" />
    <glyph glyph-name="lcommaaccent" unicode="&#x13c;" 
d="M309 0h-114v1591h114v-1591zM252 -82q41 0 62.5 -28t21.5 -76q0 -229 -189 -346v55q102 81 109 219h-2q-36 0 -62 26t-26 62q0 37 24.5 62.5t61.5 25.5z" />
    <glyph glyph-name="Lcaron" unicode="&#x13d;" horiz-adv-x="1210" 
d="M322 109h819v-109h-940v1532h121v-1423zM1151 1403q0 -230 -188 -346v55q101 80 108 219h-2q-36 0 -62 26t-26 62q0 37 24.5 62.5t61.5 25.5q41 0 62.5 -28t21.5 -76z" />
    <glyph glyph-name="lcaron" unicode="&#x13e;" horiz-adv-x="681" 
d="M195 1591h114v-1591h-114v1591zM567 1507q41 0 62.5 -28t21.5 -76q0 -230 -188 -346v55q101 80 108 219h-2q-36 0 -62 26t-26 62q0 37 24.5 62.5t61.5 25.5z" />
    <glyph glyph-name="Ldot" unicode="&#x13f;" horiz-adv-x="1210" 
d="M322 109h819v-109h-940v1532h121v-1423zM881 850q40 0 66 -26t26 -64t-26 -64t-66 -26q-37 0 -62.5 26t-25.5 64t25.5 64t62.5 26z" />
    <glyph glyph-name="ldot" unicode="&#x140;" horiz-adv-x="718" 
d="M309 0h-114v1591h114v-1591zM575 666q40 0 66.5 -26.5t26.5 -64.5t-26.5 -64t-66.5 -26q-37 0 -62.5 26t-25.5 64t25.5 64.5t62.5 26.5z" />
    <glyph glyph-name="Lslash" unicode="&#x141;" horiz-adv-x="1230" 
d="M1167 109v-109h-940v545l-217 -82l-16 94l233 88v887h121v-842l252 96l18 -92l-270 -102v-483h819z" />
    <glyph glyph-name="lslash" unicode="&#x142;" horiz-adv-x="546" 
d="M332 578v-578h-115v530l-219 -90l-23 92l242 101v958h115v-911l219 90l22 -92z" />
    <glyph glyph-name="Nacute" unicode="&#x143;" horiz-adv-x="1521" 
d="M811 1628h-113l326 277h164zM1321 0h-102l-897 1305v-1305h-121v1532h100l897 -1307v1307h123v-1532z" />
    <glyph glyph-name="nacute" unicode="&#x144;" horiz-adv-x="1236" 
d="M680 1214h-94l231 392h129zM649 1055q175 0 287.5 -115.5t112.5 -302.5v-637h-115v623q0 146 -84.5 235.5t-218.5 89.5q-139 0 -230.5 -95.5t-91.5 -229.5v-623h-114v1036h110v-176q38 80 128 137.5t216 57.5z" />
    <glyph glyph-name="Ncommaaccent" unicode="&#x145;" horiz-adv-x="1521" 
d="M1321 1532v-1532h-102l-897 1305v-1305h-121v1532h100l897 -1307v1307h123zM770 -82q41 0 62.5 -28t21.5 -76q0 -230 -188 -346v55q101 80 108 219h-2q-36 0 -62 26t-26 62q0 37 24.5 62.5t61.5 25.5z" />
    <glyph glyph-name="ncommaaccent" unicode="&#x146;" horiz-adv-x="1236" 
d="M649 1055q175 0 287.5 -115.5t112.5 -302.5v-637h-115v623q0 146 -84.5 235.5t-218.5 89.5q-139 0 -230.5 -95.5t-91.5 -229.5v-623h-114v1036h110v-176q38 80 128 137.5t216 57.5zM633 -82q41 0 62.5 -28t21.5 -76q0 -229 -189 -346v55q102 81 109 219h-2q-36 0 -62 26
t-26 62q0 37 24.5 62.5t61.5 25.5z" />
    <glyph glyph-name="Ncaron" unicode="&#x147;" horiz-adv-x="1521" 
d="M813 1628h-106l-248 277h102l197 -201l198 201h103zM1321 0h-102l-897 1305v-1305h-121v1532h100l897 -1307v1307h123v-1532z" />
    <glyph glyph-name="ncaron" unicode="&#x148;" horiz-adv-x="1236" 
d="M688 1212h-106l-248 338h100l201 -256l203 256h100zM649 1055q175 0 287.5 -115.5t112.5 -302.5v-637h-115v623q0 146 -84.5 235.5t-218.5 89.5q-139 0 -230.5 -95.5t-91.5 -229.5v-623h-114v1036h110v-176q38 80 128 137.5t216 57.5z" />
    <glyph glyph-name="Eng" unicode="&#x14a;" horiz-adv-x="1521" 
d="M1321 1532v-1612q0 -205 -121 -323.5t-328 -118.5v106q153 0 239.5 94.5t86.5 270.5v82l-876 1274v-1305h-121v1532h100l897 -1307v1307h123z" />
    <glyph glyph-name="eng" unicode="&#x14b;" horiz-adv-x="1236" 
d="M1051 326v-506q0 -169 -85 -259.5t-237 -90.5v100q96 0 150.5 63t54.5 183v807q0 146 -84.5 235.5t-218.5 89.5q-139 0 -230.5 -95.5t-91.5 -229.5v-623h-114v1036h110v-176q38 80 128 137.5t216 57.5q175 0 287.5 -115.5t112.5 -302.5v-311h2z" />
    <glyph glyph-name="Omacron" unicode="&#x14c;" horiz-adv-x="1763" 
d="M1106 1729h-502v90h502v-90zM883 1550q158 0 296 -54t240 -153t160.5 -248t58.5 -329t-58.5 -329t-160.5 -248t-240 -153t-296 -54q-159 0 -297.5 54t-241.5 153t-162 248t-59 329t59 329t162 248t241.5 153t297.5 54zM883 1442q-133 0 -248.5 -46t-201.5 -131
t-135.5 -213.5t-49.5 -285.5q0 -156 49.5 -284.5t135.5 -213.5t201.5 -131.5t248.5 -46.5q132 0 247.5 46.5t201 131.5t135 213.5t49.5 284.5q0 157 -49.5 285.5t-135 213.5t-201 131t-247.5 46z" />
    <glyph glyph-name="omacron" unicode="&#x14d;" horiz-adv-x="1284" 
d="M891 1317h-502v90h502v-90zM641 1055q225 0 374.5 -147t149.5 -390t-149.5 -389.5t-374.5 -146.5q-147 0 -265 64t-187.5 187t-69.5 285t69.5 285.5t187.5 187.5t265 64zM641 952q-177 0 -292.5 -117t-115.5 -317t115.5 -318t292.5 -118q176 0 292 118t116 318t-116 317
t-292 117z" />
    <glyph glyph-name="Obreve" unicode="&#x14e;" horiz-adv-x="1763" 
d="M1049 1896h96q0 -114 -79 -176.5t-212 -62.5t-212 62.5t-79 176.5h96q0 -72 53 -114.5t142 -42.5t142 42.5t53 114.5zM883 1550q158 0 296 -54t240 -153t160.5 -248t58.5 -329t-58.5 -329t-160.5 -248t-240 -153t-296 -54q-159 0 -297.5 54t-241.5 153t-162 248t-59 329
t59 329t162 248t241.5 153t297.5 54zM883 1442q-133 0 -248.5 -46t-201.5 -131t-135.5 -213.5t-49.5 -285.5q0 -156 49.5 -284.5t135.5 -213.5t201.5 -131.5t248.5 -46.5q132 0 247.5 46.5t201 131.5t135 213.5t49.5 284.5q0 157 -49.5 285.5t-135 213.5t-201 131t-247.5 46
z" />
    <glyph glyph-name="obreve" unicode="&#x14f;" horiz-adv-x="1284" 
d="M834 1470h96q0 -114 -79 -176.5t-212 -62.5t-212 62.5t-79 176.5h96q0 -72 52.5 -113.5t142.5 -41.5t142.5 41.5t52.5 113.5zM641 1055q225 0 374.5 -147t149.5 -390t-149.5 -389.5t-374.5 -146.5q-147 0 -265 64t-187.5 187t-69.5 285t69.5 285.5t187.5 187.5t265 64z
M641 952q-177 0 -292.5 -117t-115.5 -317t115.5 -318t292.5 -118q176 0 292 118t116 318t-116 317t-292 117z" />
    <glyph glyph-name="Ohungarumlaut" unicode="&#x150;" horiz-adv-x="1763" 
d="M733 1634h-94l123 281h110zM1049 1634h-95l123 281h111zM883 1550q158 0 296 -54t240 -153t160.5 -248t58.5 -329t-58.5 -329t-160.5 -248t-240 -153t-296 -54q-159 0 -297.5 54t-241.5 153t-162 248t-59 329t59 329t162 248t241.5 153t297.5 54zM883 1442
q-133 0 -248.5 -46t-201.5 -131t-135.5 -213.5t-49.5 -285.5q0 -156 49.5 -284.5t135.5 -213.5t201.5 -131.5t248.5 -46.5q132 0 247.5 46.5t201 131.5t135 213.5t49.5 284.5q0 157 -49.5 285.5t-135 213.5t-201 131t-247.5 46z" />
    <glyph glyph-name="ohungarumlaut" unicode="&#x151;" horiz-adv-x="1284" 
d="M520 1243h-94l129 299h109zM836 1243h-95l129 299h111zM641 1055q225 0 374.5 -147t149.5 -390t-149.5 -389.5t-374.5 -146.5q-147 0 -265 64t-187.5 187t-69.5 285t69.5 285.5t187.5 187.5t265 64zM641 952q-177 0 -292.5 -117t-115.5 -317t115.5 -318t292.5 -118
q176 0 292 118t116 318t-116 317t-292 117z" />
    <glyph glyph-name="OE" unicode="&#x152;" horiz-adv-x="2519" 
d="M1638 1425v-577h717v-107h-717v-632h807v-109h-927v313q-99 -159 -266 -245t-369 -86q-159 0 -297.5 54t-241.5 153t-162 248t-59 329t59 329t162 248t241.5 153t297.5 54q202 0 369 -86t266 -245v313h927v-107h-807zM883 90q132 0 247.5 46.5t201 131.5t135 213.5
t49.5 284.5q0 157 -49.5 285.5t-135 213.5t-201 131t-247.5 46q-133 0 -248.5 -46t-201.5 -131t-135.5 -213.5t-49.5 -285.5q0 -156 49.5 -284.5t135.5 -213.5t201.5 -131.5t248.5 -46.5z" />
    <glyph glyph-name="oe" unicode="&#x153;" horiz-adv-x="2134" 
d="M2015 475h-846q4 -183 110 -288t269 -105q134 0 223.5 59.5t118.5 167.5l115 -8q-36 -145 -157 -232t-298 -87q-150 0 -267.5 70t-178.5 198q-66 -127 -188 -197.5t-275 -70.5q-147 0 -265 64t-187.5 187t-69.5 285t69.5 285.5t187.5 187.5t265 64q153 0 275 -71
t188 -198q61 130 177.5 199.5t266.5 69.5q219 0 343 -138t124 -368v-74zM641 82q176 0 292 118t116 318t-116 317t-292 117q-177 0 -292.5 -117t-115.5 -317t115.5 -318t292.5 -118zM1546 952q-162 0 -266.5 -100t-110.5 -281h734q0 172 -92.5 276.5t-264.5 104.5z" />
    <glyph glyph-name="Racute" unicode="&#x154;" horiz-adv-x="1382" 
d="M692 1628h-112l325 277h164zM1163 0l-366 647l-37 -2h-438v-645h-121v1532h559q95 0 177 -27.5t145 -81t99 -139t36 -194.5q0 -168 -80 -275t-215 -147l376 -668h-135zM322 754h423q149 0 249 85.5t100 250.5t-100 250t-249 85h-423v-671z" />
    <glyph glyph-name="racute" unicode="&#x155;" horiz-adv-x="657" 
d="M416 1214h-94l231 392h129zM621 1051v-111q-141 0 -226.5 -89.5t-85.5 -219.5v-631h-114v1036h110v-170q30 76 111.5 130.5t204.5 54.5z" />
    <glyph glyph-name="Rcommaaccent" unicode="&#x156;" horiz-adv-x="1382" 
d="M1298 0h-135l-366 647l-37 -2h-438v-645h-121v1532h559q95 0 177 -27.5t145 -81t99 -139t36 -194.5q0 -168 -80 -275t-215 -147zM322 754h423q149 0 249 85.5t100 250.5t-100 250t-249 85h-423v-671zM717 -82q41 0 62.5 -28t21.5 -76q0 -229 -189 -346v55q102 81 109 219
h-2q-36 0 -62 26t-26 62q0 37 24.5 62.5t61.5 25.5z" />
    <glyph glyph-name="rcommaaccent" unicode="&#x157;" horiz-adv-x="657" 
d="M305 1036v-170q30 76 111.5 130.5t204.5 54.5v-111q-141 0 -226.5 -89.5t-85.5 -219.5v-631h-114v1036h110zM256 -82q41 0 62.5 -28t21.5 -76q0 -230 -188 -346v55q101 80 108 219h-2q-36 0 -62 26t-26 62q0 37 24.5 62.5t61.5 25.5z" />
    <glyph glyph-name="Rcaron" unicode="&#x158;" horiz-adv-x="1382" 
d="M588 1628l-248 277h102l197 -201l199 201h102l-246 -277h-106zM1163 0l-366 647l-37 -2h-438v-645h-121v1532h559q95 0 177 -27.5t145 -81t99 -139t36 -194.5q0 -168 -80 -275t-215 -147l376 -668h-135zM322 754h423q149 0 249 85.5t100 250.5t-100 250t-249 85h-423
v-671z" />
    <glyph glyph-name="rcaron" unicode="&#x159;" horiz-adv-x="657" 
d="M424 1212h-107l-247 338h100l201 -256l202 256h101zM621 1051v-111q-141 0 -226.5 -89.5t-85.5 -219.5v-631h-114v1036h110v-170q30 76 111.5 130.5t204.5 54.5z" />
    <glyph glyph-name="Sacute" unicode="&#x15a;" horiz-adv-x="1335" 
d="M721 1628h-113l326 277h164zM668 1550q217 0 355.5 -106.5t150.5 -294.5l-121 -8q-12 143 -115 223t-268 80q-186 0 -285.5 -86t-99.5 -219q0 -46 11 -83t27 -64t48.5 -50.5t59.5 -38t78 -30.5t86 -24.5t99 -23.5q113 -25 186.5 -47t145 -55.5t111.5 -74.5t64 -101
t24 -139q0 -86 -27.5 -157t-76 -120.5t-115.5 -83.5t-146 -49.5t-168 -15.5q-237 0 -394.5 112t-172.5 309l123 9q13 -148 137 -236t307 -88q184 0 297 78t113 233q0 32 -4.5 60t-16 51t-23.5 42t-35 36t-41.5 29.5t-52 25.5t-57.5 21.5t-67.5 19.5t-72.5 18t-81 19
q-49 12 -80.5 20t-74.5 20.5t-71 24t-63 27t-57.5 32.5t-48 39t-40.5 47.5t-28.5 56.5t-19.5 68t-6 79q0 86 31.5 160t92.5 131.5t159 90.5t223 33z" />
    <glyph glyph-name="sacute" unicode="&#x15b;" horiz-adv-x="1013" 
d="M537 1214h-95l232 392h129zM494 1053q157 1 248.5 -77.5t111.5 -213.5l-115 -8q-12 94 -76 146.5t-174 51.5q-119 1 -180 -50t-61 -140q0 -22 3.5 -40.5t13 -33t18 -25t27 -20t30.5 -15.5t39 -13t42 -10.5t48.5 -11t50.5 -11.5q94 -22 153 -43t111 -54t75.5 -81
t23.5 -115q0 -148 -102.5 -227.5t-274.5 -79.5q-166 0 -269.5 76.5t-125.5 217.5l114 9q17 -100 90.5 -151.5t192.5 -51.5t189.5 50.5t70.5 148.5q0 39 -12 67.5t-31 48t-60 36t-81 27.5t-111 27q-154 36 -207 60q-104 47 -126 145q-7 31 -7 68q0 134 94 214t267 79z" />
    <glyph glyph-name="Scircumflex" unicode="&#x15c;" horiz-adv-x="1335" 
d="M969 1628h-103l-198 201l-197 -201h-102l247 277h107zM668 1550q217 0 355.5 -106.5t150.5 -294.5l-121 -8q-12 143 -115 223t-268 80q-186 0 -285.5 -86t-99.5 -219q0 -46 11 -83t27 -64t48.5 -50.5t59.5 -38t78 -30.5t86 -24.5t99 -23.5q113 -25 186.5 -47t145 -55.5
t111.5 -74.5t64 -101t24 -139q0 -86 -27.5 -157t-76 -120.5t-115.5 -83.5t-146 -49.5t-168 -15.5q-237 0 -394.5 112t-172.5 309l123 9q13 -148 137 -236t307 -88q184 0 297 78t113 233q0 32 -4.5 60t-16 51t-23.5 42t-35 36t-41.5 29.5t-52 25.5t-57.5 21.5t-67.5 19.5
t-72.5 18t-81 19q-49 12 -80.5 20t-74.5 20.5t-71 24t-63 27t-57.5 32.5t-48 39t-40.5 47.5t-28.5 56.5t-19.5 68t-6 79q0 86 31.5 160t92.5 131.5t159 90.5t223 33z" />
    <glyph glyph-name="scircumflex" unicode="&#x15d;" horiz-adv-x="1013" 
d="M795 1217h-101l-202 256l-201 -256h-101l248 339h107zM494 1053q157 1 248.5 -77.5t111.5 -213.5l-115 -8q-12 94 -76 146.5t-174 51.5q-119 1 -180 -50t-61 -140q0 -22 3.5 -40.5t13 -33t18 -25t27 -20t30.5 -15.5t39 -13t42 -10.5t48.5 -11t50.5 -11.5q94 -22 153 -43
t111 -54t75.5 -81t23.5 -115q0 -148 -102.5 -227.5t-274.5 -79.5q-166 0 -269.5 76.5t-125.5 217.5l114 9q17 -100 90.5 -151.5t192.5 -51.5t189.5 50.5t70.5 148.5q0 39 -12 67.5t-31 48t-60 36t-81 27.5t-111 27q-154 36 -207 60q-104 47 -126 145q-7 31 -7 68
q0 134 94 214t267 79z" />
    <glyph glyph-name="Scedilla" unicode="&#x15e;" horiz-adv-x="1335" 
d="M1225 408q0 -104 -38.5 -185t-107.5 -131.5t-158 -78t-196 -31.5l-25 -113q108 -5 171 -52t63 -134q0 -89 -69.5 -138t-168.5 -49q-116 0 -200 49l22 70q75 -45 168 -45q67 0 113.5 29t46.5 84q0 122 -180 122q-29 0 -50 -6l46 183q-226 8 -374 119.5t-163 301.5l123 9
q13 -148 137 -236t307 -88q184 0 297 78t113 233q0 32 -4.5 60t-16 51t-23.5 42t-35 36t-41.5 29.5t-52 25.5t-57.5 21.5t-67.5 19.5t-72.5 18t-81 19q-49 12 -80.5 20t-74.5 20.5t-71 24t-63 27t-57.5 32.5t-48 39t-40.5 47.5t-28.5 56.5t-19.5 68t-6 79q0 86 31.5 160
t92.5 131.5t159 90.5t223 33q217 0 355.5 -106.5t150.5 -294.5l-121 -8q-12 143 -115 223t-268 80q-186 0 -285.5 -86t-99.5 -219q0 -46 11 -83t27 -64t48.5 -50.5t59.5 -38t78 -30.5t86 -24.5t99 -23.5q113 -25 186.5 -47t145 -55.5t111.5 -74.5t64 -101t24 -139z" />
    <glyph glyph-name="scedilla" unicode="&#x15f;" horiz-adv-x="1013" 
d="M883 289q0 -141 -93 -220t-251 -87l-25 -113q108 -5 171 -52t63 -134q0 -89 -69.5 -138t-168.5 -49q-117 0 -201 49l23 70q75 -45 168 -45q67 0 113 29t46 84q0 122 -180 122q-28 0 -49 -6l45 183q-153 8 -248.5 84t-115.5 210l114 9q17 -100 90.5 -151.5t192.5 -51.5
t189.5 50.5t70.5 148.5q0 39 -12 67.5t-31 48t-60 36t-81 27.5t-111 27q-154 36 -207 60q-104 47 -126 145q-7 31 -7 68q0 134 94 214t267 79q157 1 248.5 -77.5t111.5 -213.5l-115 -8q-12 94 -76 146.5t-174 51.5q-119 1 -180 -50t-61 -140q0 -22 3.5 -40.5t13 -33t18 -25
t27 -20t30.5 -15.5t39 -13t42 -10.5t48.5 -11t50.5 -11.5q94 -22 153 -43t111 -54t75.5 -81t23.5 -115z" />
    <glyph glyph-name="Scaron" unicode="&#x160;" horiz-adv-x="1335" 
d="M723 1628h-107l-247 277h102l197 -201l198 201h103zM668 1550q217 0 355.5 -106.5t150.5 -294.5l-121 -8q-12 143 -115 223t-268 80q-186 0 -285.5 -86t-99.5 -219q0 -46 11 -83t27 -64t48.5 -50.5t59.5 -38t78 -30.5t86 -24.5t99 -23.5q113 -25 186.5 -47t145 -55.5
t111.5 -74.5t64 -101t24 -139q0 -86 -27.5 -157t-76 -120.5t-115.5 -83.5t-146 -49.5t-168 -15.5q-237 0 -394.5 112t-172.5 309l123 9q13 -148 137 -236t307 -88q184 0 297 78t113 233q0 32 -4.5 60t-16 51t-23.5 42t-35 36t-41.5 29.5t-52 25.5t-57.5 21.5t-67.5 19.5
t-72.5 18t-81 19q-49 12 -80.5 20t-74.5 20.5t-71 24t-63 27t-57.5 32.5t-48 39t-40.5 47.5t-28.5 56.5t-19.5 68t-6 79q0 86 31.5 160t92.5 131.5t159 90.5t223 33z" />
    <glyph glyph-name="scaron" unicode="&#x161;" horiz-adv-x="1013" 
d="M545 1212h-107l-248 338h101l201 -256l202 256h101zM494 1053q157 1 248.5 -77.5t111.5 -213.5l-115 -8q-12 94 -76 146.5t-174 51.5q-119 1 -180 -50t-61 -140q0 -22 3.5 -40.5t13 -33t18 -25t27 -20t30.5 -15.5t39 -13t42 -10.5t48.5 -11t50.5 -11.5q94 -22 153 -43
t111 -54t75.5 -81t23.5 -115q0 -148 -102.5 -227.5t-274.5 -79.5q-166 0 -269.5 76.5t-125.5 217.5l114 9q17 -100 90.5 -151.5t192.5 -51.5t189.5 50.5t70.5 148.5q0 39 -12 67.5t-31 48t-60 36t-81 27.5t-111 27q-154 36 -207 60q-104 47 -126 145q-7 31 -7 68
q0 134 94 214t267 79z" />
    <glyph glyph-name="Tcaron" unicode="&#x164;" horiz-adv-x="1386" 
d="M750 1628h-107l-248 277h103l196 -201l199 201h102zM1352 1425h-598v-1425h-121v1425h-598v107h1317v-107z" />
    <glyph glyph-name="tcaron" unicode="&#x165;" horiz-adv-x="972" 
d="M858 1507q41 0 62.5 -28t21.5 -76q0 -230 -188 -346v55q101 80 108 219h-2q-36 0 -62 26t-26 62q0 37 24.5 62.5t61.5 25.5zM340 936l-4 -612q0 -230 196 -230q42 0 109 10v-104q-52 -10 -131 -10q-134 0 -211.5 76.5t-77.5 236.5l2 633h-196v100h196l2 367h117l-2 -367
h297v-100h-297z" />
    <glyph glyph-name="Tbar" unicode="&#x166;" horiz-adv-x="1386" 
d="M754 1425v-608h307v-96h-307v-721h-121v721h-307v96h307v608h-598v107h1317v-107h-598z" />
    <glyph glyph-name="tbar" unicode="&#x167;" horiz-adv-x="681" 
d="M532 94q42 0 109 10v-104q-52 -10 -131 -10q-134 0 -211.5 76.5t-77.5 236.5v213h-194v84h196v336h-196v100h196l2 367h117l-2 -367h297v-100h-297l-2 -336h299v-84h-299l-2 -192q0 -230 196 -230z" />
    <glyph glyph-name="Utilde" unicode="&#x168;" horiz-adv-x="1552" 
d="M627 1890q43 0 83 -20.5t66.5 -45t62.5 -45t70 -20.5q51 0 79 32.5t30 84.5h69q3 -86 -43 -145.5t-122 -59.5q-43 0 -83.5 20.5t-67 45t-62.5 45t-70 20.5q-51 0 -80 -32.5t-29 -83.5h-69q-3 86 43 145t123 59zM1364 1532v-981q0 -276 -158.5 -422.5t-431.5 -146.5
t-430.5 146.5t-157.5 422.5v981h121v-979q0 -227 123.5 -345t343.5 -118q219 0 344 118t125 345v979h121z" />
    <glyph glyph-name="utilde" unicode="&#x169;" horiz-adv-x="1198" 
d="M455 1481q43 0 83 -20.5t66.5 -45t62.5 -45t70 -20.5q51 0 79 32t30 84h69q3 -85 -43 -144.5t-122 -59.5q-43 0 -83.5 20.5t-67 45t-62.5 45t-70 20.5q-51 0 -80 -33t-29 -84h-69q-3 86 43 145.5t123 59.5zM1004 0h-109v176q-34 -78 -119 -136t-211 -58
q-172 0 -275.5 113.5t-103.5 297.5v643h113v-628q0 -144 77 -231t210 -87q137 0 220 95t83 229v622h115v-1036z" />
    <glyph glyph-name="Umacron" unicode="&#x16a;" horiz-adv-x="1552" 
d="M1024 1729h-502v90h502v-90zM1364 1532v-981q0 -276 -158.5 -422.5t-431.5 -146.5t-430.5 146.5t-157.5 422.5v981h121v-979q0 -227 123.5 -345t343.5 -118q219 0 344 118t125 345v979h121z" />
    <glyph glyph-name="umacron" unicode="&#x16b;" horiz-adv-x="1198" 
d="M856 1317h-502v90h502v-90zM1004 0h-109v176q-34 -78 -119 -136t-211 -58q-172 0 -275.5 113.5t-103.5 297.5v643h113v-628q0 -144 77 -231t210 -87q137 0 220 95t83 229v622h115v-1036z" />
    <glyph glyph-name="Ubreve" unicode="&#x16c;" horiz-adv-x="1552" 
d="M967 1896h96q0 -114 -79 -176.5t-212 -62.5t-212 62.5t-79 176.5h97q0 -72 52.5 -114.5t141.5 -42.5t142 42.5t53 114.5zM1364 1532v-981q0 -276 -158.5 -422.5t-431.5 -146.5t-430.5 146.5t-157.5 422.5v981h121v-979q0 -227 123.5 -345t343.5 -118q219 0 344 118
t125 345v979h121z" />
    <glyph glyph-name="ubreve" unicode="&#x16d;" horiz-adv-x="1198" 
d="M799 1470h96q0 -114 -79 -176.5t-212 -62.5t-212 62.5t-79 176.5h97q0 -72 52.5 -113.5t141.5 -41.5q90 0 142.5 41.5t52.5 113.5zM1004 0h-109v176q-34 -78 -119 -136t-211 -58q-172 0 -275.5 113.5t-103.5 297.5v643h113v-628q0 -144 77 -231t210 -87q137 0 220 95
t83 229v622h115v-1036z" />
    <glyph glyph-name="Uring" unicode="&#x16e;" horiz-adv-x="1552" 
d="M772 2005q83 0 140 -54t57 -136t-57 -136.5t-140 -54.5q-85 0 -143 54t-58 137t57.5 136.5t143.5 53.5zM772 1933q-55 0 -90 -32.5t-35 -85.5q0 -54 35.5 -87.5t89.5 -33.5q53 0 88 34t35 87t-35 85.5t-88 32.5zM1364 1532v-981q0 -276 -158.5 -422.5t-431.5 -146.5
t-430.5 146.5t-157.5 422.5v981h121v-979q0 -227 123.5 -345t343.5 -118q219 0 344 118t125 345v979h121z" />
    <glyph glyph-name="uring" unicode="&#x16f;" horiz-adv-x="1198" 
d="M606 1610q89 0 151 -58t62 -145q0 -88 -62 -145.5t-151 -57.5q-93 0 -155 57t-62 146q0 87 62 145t155 58zM604 1534q-60 0 -97.5 -35.5t-37.5 -91.5q0 -57 37.5 -92t97.5 -35q59 0 97 35t38 92q0 55 -38 91t-97 36zM1004 0h-109v176q-34 -78 -119 -136t-211 -58
q-172 0 -275.5 113.5t-103.5 297.5v643h113v-628q0 -144 77 -231t210 -87q137 0 220 95t83 229v622h115v-1036z" />
    <glyph glyph-name="Uhungarumlaut" unicode="&#x170;" horiz-adv-x="1552" 
d="M651 1634h-94l123 281h111zM967 1634h-95l123 281h111zM1364 1532v-981q0 -276 -158.5 -422.5t-431.5 -146.5t-430.5 146.5t-157.5 422.5v981h121v-979q0 -227 123.5 -345t343.5 -118q219 0 344 118t125 345v979h121z" />
    <glyph glyph-name="uhungarumlaut" unicode="&#x171;" horiz-adv-x="1198" 
d="M485 1243h-94l129 299h109zM801 1243h-94l129 299h110zM1004 0h-109v176q-34 -78 -119 -136t-211 -58q-172 0 -275.5 113.5t-103.5 297.5v643h113v-628q0 -144 77 -231t210 -87q137 0 220 95t83 229v622h115v-1036z" />
    <glyph glyph-name="Uogonek" unicode="&#x172;" horiz-adv-x="1552" 
d="M1364 1532v-981q0 -226 -108.5 -366.5t-303.5 -184.5q-105 -50 -157 -97.5t-52 -109.5q0 -51 35.5 -77.5t93.5 -26.5q68 0 123 24l13 -63q-78 -29 -148 -29q-90 0 -147.5 43t-57.5 119q0 115 142 199h-23q-273 0 -430.5 146.5t-157.5 422.5v981h121v-979
q0 -227 123.5 -345t343.5 -118q219 0 344 118t125 345v979h121z" />
    <glyph glyph-name="uogonek" unicode="&#x173;" horiz-adv-x="1198" 
d="M1020 -289l12 -63q-78 -29 -147 -29q-90 0 -147.5 43t-57.5 119q0 75 55 132t160 105v158q-34 -78 -119 -136t-211 -58q-172 0 -275.5 113.5t-103.5 297.5v643h113v-628q0 -144 77 -231t210 -87q137 0 220 95t83 229v622h115v-1036h-23q-107 -50 -160 -98t-53 -111
q0 -51 35.5 -77.5t93.5 -26.5q67 0 123 24z" />
    <glyph glyph-name="Wcircumflex" unicode="&#x174;" horiz-adv-x="2283" 
d="M1442 1628h-103l-198 201l-197 -201h-102l248 277h106zM1698 0h-103l-454 1309l-453 -1309h-102l-537 1532h133l457 -1323l453 1323h100l455 -1323l456 1323h129z" />
    <glyph glyph-name="wcircumflex" unicode="&#x175;" horiz-adv-x="1650" 
d="M1128 1217h-100l-203 256l-200 -256h-101l248 339h107zM1233 0h-92l-314 842l-317 -842h-90l-393 1036h125l317 -852l315 852h82l318 -852l315 852h125z" />
    <glyph glyph-name="Ycircumflex" unicode="&#x176;" horiz-adv-x="1363" 
d="M983 1628h-102l-199 201l-197 -201h-102l248 277h106zM741 659v-659h-120v659l-580 873h141l500 -754l500 754h139z" />
    <glyph glyph-name="ycircumflex" unicode="&#x177;" horiz-adv-x="1042" 
d="M825 1217h-100l-203 256l-200 -256h-101l248 339h106zM350 -522h-127l236 559l-416 999h127l352 -868l352 868h127z" />
    <glyph glyph-name="Ydieresis" unicode="&#x178;" horiz-adv-x="1363" 
d="M553 1845q32 0 56 -22.5t24 -53.5q0 -33 -23.5 -55t-56.5 -22t-55.5 22t-22.5 55q0 31 23 53.5t55 22.5zM815 1845q32 0 55 -22.5t23 -53.5q0 -33 -22.5 -55t-55.5 -22t-55.5 22t-22.5 55q0 31 23 53.5t55 22.5zM741 659v-659h-120v659l-580 873h141l500 -754l500 754
h139z" />
    <glyph glyph-name="Zacute" unicode="&#x179;" horiz-adv-x="1257" 
d="M684 1628h-113l326 277h164zM1171 1440l-940 -1331h955v-109h-1110v92l940 1333h-903v107h1058v-92z" />
    <glyph glyph-name="zacute" unicode="&#x17a;" horiz-adv-x="909" 
d="M504 1214h-94l231 392h129zM819 961l-616 -867h645v-94h-782v78l618 864h-604v94h739v-75z" />
    <glyph glyph-name="Zdotaccent" unicode="&#x17b;" horiz-adv-x="1257" 
d="M633 1843q35 0 60.5 -26.5t25.5 -61.5t-25.5 -61.5t-60.5 -26.5q-37 0 -63.5 26.5t-26.5 61.5t26.5 61.5t63.5 26.5zM1171 1440l-940 -1331h955v-109h-1110v92l940 1333h-903v107h1058v-92z" />
    <glyph glyph-name="zdotaccent" unicode="&#x17c;" horiz-adv-x="909" 
d="M463 1481q35 0 60.5 -26.5t25.5 -61.5t-25.5 -61.5t-60.5 -26.5q-37 0 -63.5 26.5t-26.5 61.5t26.5 61.5t63.5 26.5zM819 961l-616 -867h645v-94h-782v78l618 864h-604v94h739v-75z" />
    <glyph glyph-name="Zcaron" unicode="&#x17d;" horiz-adv-x="1257" 
d="M684 1628h-106l-248 277h102l197 -201l198 201h103zM1171 1440l-940 -1331h955v-109h-1110v92l940 1333h-903v107h1058v-92z" />
    <glyph glyph-name="zcaron" unicode="&#x17e;" horiz-adv-x="909" 
d="M512 1212h-106l-248 338h100l201 -256l203 256h100zM819 961l-616 -867h645v-94h-782v78l618 864h-604v94h739v-75z" />
    <glyph glyph-name="florin" unicode="&#x192;" horiz-adv-x="870" 
d="M666 1608q154 0 260 -92l-52 -95q-80 84 -196 84q-86 0 -136.5 -49.5t-68.5 -161.5l-45 -258h336v-98h-354l-217 -1229h-117l217 1229h-238v98h254l49 279q51 293 308 293z" />
    <glyph glyph-name="Aringacute" unicode="&#x1fa;" horiz-adv-x="1447" 
d="M731 1581q-84 0 -141.5 54.5t-57.5 136.5q0 54 26.5 96.5t70.5 66.5l284 226h152l-293 -203q69 -12 113.5 -63.5t44.5 -122.5q0 -82 -57.5 -136.5t-141.5 -54.5zM854 1772q0 53 -34 85.5t-89 32.5q-54 0 -89.5 -32.5t-35.5 -85.5t36 -87t89 -34q54 0 88.5 33.5t34.5 87.5
zM1409 0h-133l-180 444h-742l-182 -444h-133l633 1532h104zM1051 547l-326 799l-328 -799h654z" />
    <glyph glyph-name="aringacute" unicode="&#x1fb;" horiz-adv-x="1095" 
d="M549 1200q-84 0 -141.5 54.5t-57.5 136.5q0 55 26.5 98t72.5 67l284 222h152l-297 -201q70 -11 115 -62t45 -124q0 -82 -57.5 -136.5t-141.5 -54.5zM674 1391q0 55 -35 87.5t-90 32.5q-54 0 -89.5 -33t-35.5 -87q0 -53 35.5 -86t89.5 -33q55 0 90 33t35 86zM532 1055
q183 0 280 -103.5t97 -289.5v-662h-116v156q-56 -85 -145 -129.5t-199 -44.5q-150 0 -240 74t-90 210q0 281 379 301l295 19v73q0 139 -65 215t-193 76t-199.5 -76.5t-71.5 -181.5l-117 4q0 91 43.5 171.5t133.5 134t208 53.5zM795 487l-285 -16q-134 -8 -205.5 -55.5
t-71.5 -147.5q0 -97 62 -141.5t170 -44.5q68 0 125 19t104 59.5t74 112t27 167.5v47z" />
    <glyph glyph-name="AEacute" unicode="&#x1fc;" horiz-adv-x="2052" 
d="M1374 1628h-112l325 277h164zM1174 1425v-577h716v-107h-716v-632h806v-109h-927v444h-588l-295 -444h-147l1015 1532h942v-107h-806zM1053 547v792l-523 -792h523z" />
    <glyph glyph-name="aeacute" unicode="&#x1fd;" horiz-adv-x="1878" 
d="M950 1214h-94l231 392h130zM1763 475h-848q3 -122 54 -212t135.5 -135.5t189.5 -45.5q135 0 224 59.5t120 167.5l115 -8q-36 -145 -157.5 -232t-297.5 -87q-146 0 -260.5 65t-177.5 186q-55 -121 -161.5 -186t-245.5 -65q-152 0 -243 74.5t-91 209.5q0 281 379 301
l295 19v45q0 154 -65 238.5t-193 84.5t-199.5 -78t-71.5 -184l-117 4q0 91 43.5 171.5t133.5 134t208 53.5q254 0 340 -226q64 108 174.5 167t247.5 59q220 0 344.5 -138.5t124.5 -367.5v-74zM1292 952q-161 0 -266 -100.5t-111 -280.5h734q0 172 -92 276.5t-265 104.5z
M795 489l-285 -16q-134 -10 -205.5 -57.5t-71.5 -145.5q0 -97 62.5 -142.5t169.5 -45.5q66 0 122.5 18.5t104.5 58.5t75.5 112t27.5 169v49z" />
    <glyph glyph-name="Oslashacute" unicode="&#x1fe;" horiz-adv-x="1712" 
d="M909 1628h-112l325 277h164zM1501 1536l-121 -158q122 -104 190 -260t68 -352q0 -180 -58.5 -329t-160.5 -248t-240 -153t-296 -54q-266 0 -461 141l-139 -180l-76 57l141 184q-107 104 -166 252t-59 330q0 180 59 329t162 248t241.5 153t297.5 54q237 0 422 -116
l120 159zM248 766q0 -301 174 -485l813 1062q-157 99 -352 99q-133 0 -248.5 -46t-201.5 -131t-135.5 -213.5t-49.5 -285.5zM883 90q132 0 247.5 46.5t201 131.5t135 213.5t49.5 284.5q0 329 -207 520l-817 -1071q162 -125 391 -125z" />
    <glyph glyph-name="oslashacute" unicode="&#x1ff;" horiz-adv-x="1284" 
d="M686 1214h-94l231 392h129zM1087 1032l-83 -110q161 -151 161 -404q0 -243 -149.5 -389.5t-374.5 -146.5q-164 0 -291 79l-90 -116l-65 49l90 119q-166 150 -166 405q0 162 69.5 285.5t187.5 187.5t265 64q169 0 297 -84l84 110zM233 518q0 -199 117 -319l522 686
q-98 67 -231 67q-177 0 -292.5 -117t-115.5 -317zM641 82q176 0 292 118t116 318q0 194 -113 313l-522 -686q101 -63 227 -63z" />
    <glyph glyph-name="Scommaaccent" unicode="&#x218;" horiz-adv-x="1335" 
d="M694 825q113 -25 186.5 -47t145 -55.5t111.5 -74.5t64 -101t24 -139q0 -86 -27.5 -157t-76 -120.5t-115.5 -83.5t-146 -49.5t-168 -15.5q-237 0 -394.5 112t-172.5 309l123 9q13 -148 137 -236t307 -88q184 0 297 78t113 233q0 32 -4.5 60t-16 51t-23.5 42t-35 36
t-41.5 29.5t-52 25.5t-57.5 21.5t-67.5 19.5t-72.5 18t-81 19q-49 12 -80.5 20t-74.5 20.5t-71 24t-63 27t-57.5 32.5t-48 39t-40.5 47.5t-28.5 56.5t-19.5 68t-6 79q0 86 31.5 160t92.5 131.5t159 90.5t223 33q217 0 355.5 -106.5t150.5 -294.5l-121 -8q-12 143 -115 223
t-268 80q-186 0 -285.5 -86t-99.5 -219q0 -46 11 -83t27 -64t48.5 -50.5t59.5 -38t78 -30.5t86 -24.5t99 -23.5zM690 -92q40 0 62 -28.5t22 -76.5q0 -230 -188 -346v56q101 80 108 219h-2q-36 0 -62 26t-26 62q0 37 24.5 62.5t61.5 25.5z" />
    <glyph glyph-name="scommaaccent" unicode="&#x219;" horiz-adv-x="1013" 
d="M520 582q94 -22 153 -43t111 -54t75.5 -81t23.5 -115q0 -148 -102.5 -227.5t-274.5 -79.5q-166 0 -269.5 76.5t-125.5 217.5l114 9q17 -100 90.5 -151.5t192.5 -51.5t189.5 50.5t70.5 148.5q0 39 -12 67.5t-31 48t-60 36t-81 27.5t-111 27q-154 36 -207 60
q-104 47 -126 145q-7 31 -7 68q0 134 94 214t267 79q157 1 248.5 -77.5t111.5 -213.5l-115 -8q-12 94 -76 146.5t-174 51.5q-119 1 -180 -50t-61 -140q0 -22 3.5 -40.5t13 -33t18 -25t27 -20t30.5 -15.5t39 -13t42 -10.5t48.5 -11t50.5 -11.5zM504 -92q40 0 62 -28.5
t22 -76.5q0 -229 -189 -346v56q102 81 109 219h-2q-36 0 -62 26t-26 62q0 37 24.5 62.5t61.5 25.5z" />
    <glyph glyph-name="uni021A" unicode="&#x21a;" horiz-adv-x="1386" 
d="M1352 1532v-107h-598v-1425h-121v1425h-598v107h1317zM694 -82q41 0 62.5 -28t21.5 -76q0 -230 -188 -346v55q101 80 108 219h-2q-36 0 -62 26t-26 62q0 37 24.5 62.5t61.5 25.5z" />
    <glyph glyph-name="uni021B" unicode="&#x21b;" horiz-adv-x="681" 
d="M532 94q42 0 109 10v-104q-52 -10 -131 -10q-134 0 -211.5 76.5t-77.5 236.5l2 633h-196v100h196l2 367h117l-2 -367h297v-100h-297l-4 -612q0 -230 196 -230zM412 -98q40 0 62 -28.5t22 -76.5q0 -229 -189 -346v55q102 81 109 220h-2q-36 0 -62 26t-26 62
q0 37 24.5 62.5t61.5 25.5z" />
    <glyph glyph-name="dotlessj" unicode="&#x237;" 
d="M311 1036v-1218q0 -176 -80 -263t-221 -87q-67 0 -125 28l41 94q3 -1 14.5 -6t17.5 -7t17 -4.5t23 -2.5q96 0 148.5 60.5t52.5 183.5v1222h112z" />
    <glyph glyph-name="circumflex" unicode="&#x2c6;" horiz-adv-x="684" 
d="M645 1217h-100l-203 256l-201 -256h-100l248 339h106z" />
    <glyph glyph-name="caron" unicode="&#x2c7;" horiz-adv-x="684" 
d="M395 1212h-106l-248 338h100l201 -256l203 256h100z" />
    <glyph glyph-name="breve" unicode="&#x2d8;" horiz-adv-x="684" 
d="M535 1470h96q0 -114 -79 -176.5t-212 -62.5t-212 62.5t-79 176.5h96q0 -72 52.5 -113.5t142.5 -41.5t142.5 41.5t52.5 113.5z" />
    <glyph glyph-name="dotaccent" unicode="&#x2d9;" horiz-adv-x="274" 
d="M139 1481q35 0 60.5 -26.5t25.5 -61.5t-25.5 -61.5t-60.5 -26.5q-37 0 -63.5 26.5t-26.5 61.5t26.5 61.5t63.5 26.5z" />
    <glyph glyph-name="ring" unicode="&#x2da;" horiz-adv-x="526" 
d="M266 1610q89 0 151 -58t62 -145q0 -88 -62 -145.5t-151 -57.5q-93 0 -155 57t-62 146q0 87 62 145t155 58zM264 1534q-60 0 -97.5 -35.5t-37.5 -91.5q0 -57 37.5 -92t97.5 -35q59 0 97 35t38 92q0 55 -38 91t-97 36z" />
    <glyph glyph-name="ogonek" unicode="&#x2db;" horiz-adv-x="471" 
d="M354 51l19 -45q-107 -50 -160 -98t-53 -111q0 -51 35.5 -77.5t93.5 -26.5q67 0 123 24l12 -63q-78 -29 -148 -29q-90 0 -147 43t-57 119q0 86 71.5 148.5t210.5 115.5z" />
    <glyph glyph-name="tilde" unicode="&#x2dc;" horiz-adv-x="714" 
d="M211 1481q43 0 83.5 -20.5t67 -45t62.5 -45t70 -20.5q51 0 78.5 32t29.5 84h70q3 -85 -43.5 -144.5t-122.5 -59.5q-43 0 -83.5 20.5t-67 45t-62.5 45t-70 20.5q-51 0 -79.5 -33t-28.5 -84h-70q-3 86 43 145.5t123 59.5z" />
    <glyph glyph-name="hungarumlaut" unicode="&#x2dd;" horiz-adv-x="638" 
d="M139 1243h-94l129 299h109zM455 1243h-95l129 299h111z" />
    <glyph glyph-name="uni0326" unicode="&#x326;" horiz-adv-x="0" 
d="M186 -82q41 0 62.5 -28t21.5 -76q0 -230 -188 -346v53q101 80 108 221h-2q-36 0 -62 26t-26 62q0 37 24.5 62.5t61.5 25.5z" />
    <glyph glyph-name="Omega" unicode="&#x3a9;" horiz-adv-x="1589" 
d="M795 1464q155 0 280 -53.5t206.5 -148t125 -222.5t43.5 -278q0 -110 -31.5 -218t-83.5 -194t-102.5 -148.5t-102.5 -109.5h410v-92h-541v82q58 42 117 109t113.5 154t88.5 196t34 217q0 132 -37 244.5t-106.5 195.5t-176 129.5t-237.5 46.5t-237.5 -46.5t-176.5 -129.5
t-107.5 -195.5t-37.5 -244.5q0 -108 34.5 -217t89 -196t113.5 -154t117 -109v-82h-543v92h412q-53 47 -104 110t-102 148t-82.5 193.5t-31.5 218.5q0 149 43.5 277t125.5 222.5t207 148.5t280 54z" />
    <glyph glyph-name="mu" unicode="&#x3bc;" horiz-adv-x="1206" 
d="M1014 1036v-1036h-109v176q-34 -77 -120 -135.5t-212 -58.5q-162 0 -264 102v-606h-114v1558h114v-628q0 -144 77 -231t210 -87q136 0 219.5 95.5t83.5 228.5v622h115z" />
    <glyph glyph-name="pi" unicode="&#x3c0;" horiz-adv-x="1288" 
d="M1133 1067l90 -53q-42 -85 -104 -134t-161 -49h-57l-74 -618q-9 -64 12 -96.5t81 -32.5q62 0 122 51l54 -72q-90 -77 -193 -77q-195 0 -172 223l78 622h-287l-59 -475q-29 -201 -103 -356h-110q47 93 73 175t44 204l55 452h-96q-108 0 -203 -83l-53 77q57 51 119 80
t157 29h559q87 0 139.5 33.5t88.5 99.5z" />
    <glyph glyph-name="Wgrave" unicode="&#x1e80;" horiz-adv-x="2283" 
d="M1194 1628h-115l-374 277h163zM1698 0h-103l-454 1309l-453 -1309h-102l-537 1532h133l457 -1323l453 1323h100l455 -1323l456 1323h129z" />
    <glyph glyph-name="wgrave" unicode="&#x1e81;" horiz-adv-x="1650" 
d="M870 1214h-92l-268 392h131zM1233 0h-92l-314 842l-317 -842h-90l-393 1036h125l317 -852l315 852h82l318 -852l315 852h125z" />
    <glyph glyph-name="Wacute" unicode="&#x1e82;" horiz-adv-x="2283" 
d="M1194 1628h-113l326 277h164zM1698 0h-103l-454 1309l-453 -1309h-102l-537 1532h133l457 -1323l453 1323h100l455 -1323l456 1323h129z" />
    <glyph glyph-name="wacute" unicode="&#x1e83;" horiz-adv-x="1650" 
d="M870 1214h-94l232 392h129zM1233 0h-92l-314 842l-317 -842h-90l-393 1036h125l317 -852l315 852h82l318 -852l315 852h125z" />
    <glyph glyph-name="Wdieresis" unicode="&#x1e84;" horiz-adv-x="2283" 
d="M1012 1845q32 0 56 -22.5t24 -53.5q0 -33 -23.5 -55t-56.5 -22t-55.5 22t-22.5 55q0 31 23 53.5t55 22.5zM1274 1845q32 0 55 -22.5t23 -53.5q0 -33 -22.5 -55t-55.5 -22t-55.5 22t-22.5 55q0 31 23 53.5t55 22.5zM1698 0h-103l-454 1309l-453 -1309h-102l-537 1532h133
l457 -1323l453 1323h100l455 -1323l456 1323h129z" />
    <glyph glyph-name="wdieresis" unicode="&#x1e85;" horiz-adv-x="1650" 
d="M688 1473q33 0 56.5 -22.5t23.5 -55.5q0 -32 -23.5 -53t-56.5 -21t-55.5 21t-22.5 53q0 33 22.5 55.5t55.5 22.5zM950 1473q33 0 55.5 -22.5t22.5 -55.5q0 -32 -22.5 -53t-55.5 -21t-55.5 21t-22.5 53q0 33 22.5 55.5t55.5 22.5zM1233 0h-92l-314 842l-317 -842h-90
l-393 1036h125l317 -852l315 852h82l318 -852l315 852h125z" />
    <glyph glyph-name="Ygrave" unicode="&#x1ef2;" horiz-adv-x="1363" 
d="M735 1628h-114l-375 277h164zM741 659v-659h-120v659l-580 873h141l500 -754l500 754h139z" />
    <glyph glyph-name="ygrave" unicode="&#x1ef3;" horiz-adv-x="1042" 
d="M567 1214h-92l-268 392h131zM350 -522h-127l236 559l-416 999h127l352 -868l352 868h127z" />
    <glyph glyph-name="endash" unicode="&#x2013;" horiz-adv-x="1148" 
d="M1057 481h-965v109h965v-109z" />
    <glyph glyph-name="emdash" unicode="&#x2014;" horiz-adv-x="1624" 
d="M1532 481h-1440v109h1440v-109z" />
    <glyph glyph-name="quoteleft" unicode="&#x2018;" horiz-adv-x="329" 
d="M274 1507v-55q-105 -83 -108 -221h2q36 0 62 -25t26 -61q0 -37 -24.5 -62.5t-61.5 -25.5q-41 0 -62.5 28t-21.5 76q0 230 188 346z" />
    <glyph glyph-name="quoteright" unicode="&#x2019;" horiz-adv-x="329" 
d="M158 1507q41 0 63.5 -28t22.5 -76q0 -229 -189 -346v53q102 81 109 221h-2q-36 0 -62 26t-26 62q0 37 24.5 62.5t59.5 25.5z" />
    <glyph glyph-name="quotesinglbase" unicode="&#x201a;" horiz-adv-x="329" 
d="M158 160q41 0 63.5 -28.5t22.5 -76.5q0 -229 -189 -346v55q102 81 109 220h-2q-36 0 -62 26t-26 62q0 37 24.5 62.5t59.5 25.5z" />
    <glyph glyph-name="quotedblleft" unicode="&#x201c;" horiz-adv-x="626" 
d="M72 1161q0 230 188 346v-55q-101 -80 -108 -219h2q36 0 62 -26t26 -62q0 -37 -24.5 -62.5t-61.5 -25.5q-41 0 -62.5 28t-21.5 76zM557 1507v-55q-101 -80 -108 -219h2q36 0 62 -26t26 -62q0 -37 -24.5 -62.5t-61.5 -25.5q-41 0 -62.5 28t-21.5 76q0 230 188 346z" />
    <glyph glyph-name="quotedblright" unicode="&#x201d;" horiz-adv-x="626" 
d="M145 1507q41 0 62.5 -28t21.5 -76q0 -230 -188 -346v55q102 81 109 219h-3q-36 0 -62 26t-26 62q0 37 24.5 62.5t61.5 25.5zM442 1507q41 0 62.5 -28t21.5 -76q0 -230 -188 -346v55q101 80 108 219h-2q-36 0 -62 26t-26 62q0 37 24.5 62.5t61.5 25.5z" />
    <glyph glyph-name="quotedblbase" unicode="&#x201e;" horiz-adv-x="626" 
d="M158 160q41 0 63.5 -28.5t22.5 -76.5q0 -229 -189 -346v55q102 81 109 220h-2q-36 0 -62 26t-26 62q0 37 24.5 62.5t59.5 25.5zM457 160q41 0 63.5 -28.5t22.5 -76.5q0 -228 -191 -346v55q104 83 111 220h-4q-35 0 -60.5 25.5t-25.5 62.5t24 62.5t60 25.5z" />
    <glyph glyph-name="dagger" unicode="&#x2020;" horiz-adv-x="966" 
d="M541 1094h379v-105h-379v-1126h-115v1126h-381v105h381v438h115v-438z" />
    <glyph glyph-name="daggerdbl" unicode="&#x2021;" horiz-adv-x="966" 
d="M541 1094h379v-105h-379v-581h379v-107h-379v-438h-115v438h-381v107h381v581h-381v105h381v438h115v-438z" />
    <glyph glyph-name="bullet" unicode="&#x2022;" horiz-adv-x="714" 
d="M358 762q98 0 168 -70t70 -170q0 -101 -69.5 -171t-168.5 -70q-101 0 -171 70t-70 171q0 100 70 170t171 70z" />
    <glyph glyph-name="ellipsis" unicode="&#x2026;" horiz-adv-x="1116" 
d="M186 162q40 0 66.5 -26t26.5 -64t-26.5 -64t-66.5 -26q-37 0 -62.5 26t-25.5 64t25.5 64t62.5 26zM551 162q38 0 65 -26t27 -64t-27 -64t-65 -26q-37 0 -62.5 26t-25.5 64t25.5 64t62.5 26zM918 162q38 0 65 -26t27 -64t-27 -64t-65 -26q-37 0 -63 26t-26 64t26 64t63 26
z" />
    <glyph glyph-name="perthousand" unicode="&#x2030;" horiz-adv-x="2445" 
d="M408 1550q141 0 230 -95.5t89 -258.5q0 -162 -89.5 -258t-229.5 -96t-231 96.5t-91 257.5q0 162 91 258t231 96zM330 0h-115l1118 1532h115zM406 1466q-101 0 -167.5 -73t-66.5 -197t66.5 -198t167.5 -74q102 0 168.5 73.5t66.5 198.5t-65.5 197.5t-169.5 72.5zM1255 690
q141 0 231.5 -95t90.5 -257t-90.5 -259t-231.5 -97q-138 0 -228.5 97.5t-90.5 258.5q0 162 90 257t229 95zM2038 690q141 0 231 -95t90 -257t-90.5 -259t-230.5 -97q-139 0 -229.5 97.5t-90.5 258.5q0 162 90 257t230 95zM1255 608q-102 0 -167.5 -72.5t-65.5 -197.5
t66 -198.5t167 -73.5q102 0 168 73t66 199q0 125 -66 197.5t-168 72.5zM2038 608q-102 0 -168 -72.5t-66 -197.5q0 -124 66.5 -198t167.5 -74q102 0 167.5 73t65.5 199q0 125 -65.5 197.5t-167.5 72.5z" />
    <glyph glyph-name="guilsinglleft" unicode="&#x2039;" horiz-adv-x="595" 
d="M551 874l-377 -358l377 -358l-84 -74l-436 432l436 430z" />
    <glyph glyph-name="guilsinglright" unicode="&#x203a;" horiz-adv-x="595" 
d="M565 516l-438 -432l-82 74l377 358l-377 358l82 72z" />
    <glyph glyph-name="fraction" unicode="&#x2044;" horiz-adv-x="376" 
d="M-301 0h-119l1100 1532h119z" />
    <glyph glyph-name="Euro" unicode="&#x20ac;" horiz-adv-x="1445" 
d="M1284 225l51 -98q-177 -145 -446 -145q-243 0 -422.5 151t-235.5 416h-217l27 74h178q-8 60 -8 141q0 83 8 143h-205l27 76h190q55 266 233.5 416.5t426.5 150.5q254 0 422 -133l-39 -100q-150 125 -377 125q-203 0 -346.5 -121.5t-194.5 -337.5h777l-29 -76h-760
q-10 -75 -10 -143q0 -66 10 -141h639l-29 -74h-598q50 -217 195.5 -338t345.5 -121q226 0 387 135z" />
    <glyph glyph-name="trademark" unicode="&#x2122;" horiz-adv-x="1792" 
d="M729 1448h-285v-651h-86v651h-282v84h653v-84zM1647 797h-88v536l-295 -532h-41l-293 532v-536h-88v735h71l330 -600l332 600h72v-735z" />
    <glyph glyph-name="estimated" unicode="&#x212e;" horiz-adv-x="1267" 
d="M664 1098q104 0 196 -35t161 -99.5t109.5 -163t40.5 -218.5h-870v-355q0 -75 45 -98q129 -115 318 -115q151 0 272.5 72.5t198.5 189.5l26 -18q-87 -131 -214.5 -204.5t-282.5 -73.5q-156 0 -284.5 69.5t-204 197.5t-75.5 288q0 123 44.5 228.5t120 178.5t179.5 114.5
t220 41.5zM662 1065q-181 0 -316 -111q-47 -23 -47 -94v-248h682v256q0 48 -9.5 70.5t-41.5 42.5q-116 84 -268 84z" />
    <glyph glyph-name="partialdiff" unicode="&#x2202;" horiz-adv-x="1255" 
d="M600 1550q96 0 174.5 -31.5t134 -84t97 -131t66.5 -163.5t40.5 -190t21 -201.5t5.5 -207.5q0 -259 -144.5 -410t-380.5 -151q-219 0 -364.5 139.5t-145.5 367.5q0 223 143.5 361.5t364.5 138.5q127 0 232 -54t170 -151q-5 93 -16 171.5t-30.5 155.5t-51.5 135.5t-75 104
t-104.5 69.5t-136.5 24q-112 0 -197.5 -40.5t-166.5 -119.5l-68 98q96 85 196.5 127.5t235.5 42.5zM623 86q171 0 283 109.5t112 289.5v11q-3 173 -115.5 284t-279.5 111q-169 0 -282.5 -113t-113.5 -291q0 -179 112.5 -290t283.5 -111z" />
    <glyph glyph-name="product" unicode="&#x220f;" horiz-adv-x="1298" 
d="M1239 1425h-217v-1761h-104v1761h-535v-1761h-104v1761h-220v107h1180v-107z" />
    <glyph glyph-name="summation" unicode="&#x2211;" horiz-adv-x="1228" 
d="M1126 1425h-882l495 -659l-495 -657h882v-109h-1026v88l512 678l-512 678v88h1026v-107z" />
    <glyph glyph-name="minus" unicode="&#x2212;" horiz-adv-x="1118" 
d="M1047 705h-979v106h979v-106z" />
    <glyph glyph-name="radical" unicode="&#x221a;" horiz-adv-x="1253" 
d="M1180 1382l-527 -1540l-284 721l-240 -157l-59 92l342 219l239 -627l434 1333z" />
    <glyph glyph-name="infinity" unicode="&#x221e;" horiz-adv-x="1622" 
d="M1204 1001q155 0 253.5 -108t98.5 -266t-98.5 -266.5t-253.5 -108.5q-207 0 -383 227l-51 68l-53 -68q-168 -194 -336 -194q-141 0 -228 97.5t-87 242.5t87 244.5t228 99.5q99 0 180 -51.5t156 -147.5l51 -68l43 56q92 118 182.5 180.5t210.5 62.5zM1204 903
q-51 0 -96.5 -15.5t-86.5 -48t-74 -68t-73 -87.5l-47 -61l54 -68q71 -90 149 -147.5t174 -57.5q112 0 183 80.5t71 196.5t-71 196t-183 80zM383 872q-100 0 -161.5 -71.5t-61.5 -175.5q0 -103 61.5 -173.5t161.5 -70.5q145 0 279 172l55 70l-53 71q-66 87 -133 132.5
t-148 45.5z" />
    <glyph glyph-name="integral" unicode="&#x222b;" horiz-adv-x="698" 
d="M541 1550q65 0 151 -22l-20 -90q-49 18 -111 18q-88 0 -120.5 -49t-32.5 -174v-1260q0 -174 -56.5 -248.5t-189.5 -74.5q-75 0 -154 22l19 88q70 -16 110 -16q94 0 131 52t37 181v1260q0 167 53.5 240t182.5 73z" />
    <glyph glyph-name="approxequal" unicode="&#x2248;" horiz-adv-x="1089" 
d="M981 1110l53 -76q-67 -82 -133.5 -122t-163.5 -40q-65 0 -122 21t-90.5 46t-81 46t-95.5 21q-79 0 -129 -28.5t-110 -96.5l-56 75q67 80 130.5 118t154.5 38q53 0 102.5 -20.5t83.5 -45t88 -45t115 -20.5q85 0 140 30t114 99zM981 641l53 -76q-67 -82 -133.5 -122
t-163.5 -40q-65 0 -122 21t-90.5 46t-81 46t-95.5 21q-79 0 -129 -28.5t-110 -96.5l-56 75q67 80 130.5 118t154.5 38q53 0 102.5 -21t83.5 -45.5t88 -45.5t115 -21q84 0 139 30.5t115 100.5z" />
    <glyph glyph-name="notequal" unicode="&#x2260;" horiz-adv-x="1118" 
d="M672 940l-146 -377h521v-108h-564l-108 -281l-101 27l99 254h-305v108h348l145 377h-493v109h536l109 280l100 -26l-98 -254h332v-109h-375z" />
    <glyph glyph-name="lessequal" unicode="&#x2264;" horiz-adv-x="1040" 
d="M973 1202l-682 -301l682 -297l-4 -117l-914 414l914 416zM973 246h-918v108h918v-108z" />
    <glyph glyph-name="greaterequal" unicode="&#x2265;" horiz-adv-x="1040" 
d="M985 901l-913 -414l-4 117l684 297l-684 301l4 115zM985 246h-917v108h917v-108z" />
    <glyph glyph-name="lozenge" unicode="&#x25ca;" horiz-adv-x="1075" 
d="M995 709l-420 -822h-73l-422 822l422 823h73zM201 709l338 -654l335 654l-335 655z" />
    <glyph glyph-name="fl" unicode="&#xfb02;" horiz-adv-x="1167" 
d="M573 1599q42 0 66 -6v-100q-28 4 -53 4q-106 0 -169 -65.5t-63 -184.5v-211h281v-100h-281v-936h-112v936h-211v100h211v209q0 168 89 261t242 93zM973 0h-115v1591h115v-1591z" />
    <glyph glyph-name="n.001" horiz-adv-x="1236" 
d="M655 1055q174 0 284 -112.5t110 -295.5v-647h-115v623q0 146 -84.5 235.5t-218.5 89.5q-139 0 -230.5 -95.5t-91.5 -229.5v-623h-114v1036h108v-217q28 96 124 166t228 70z" />
    <glyph glyph-name="germandbls.cap" horiz-adv-x="1396" 
d="M664 1548q305 0 507 -241l-268 -389q189 -41 294.5 -155.5t105.5 -305.5q0 -219 -148.5 -346t-392.5 -127q-109 0 -166 16l25 106q52 -14 137 -14q189 0 305.5 97.5t116.5 265.5q0 177 -114 272.5t-337 132.5l285 422q-141 160 -357 160q-150 0 -250 -89.5t-100 -228.5
v-1124h-121v1122q0 189 137 307.5t341 118.5z" />
    <glyph glyph-name="a.sups" horiz-adv-x="886" 
d="M438 1546q151 0 227 -81t76 -238v-525h-98v138q-34 -69 -109 -110.5t-172 -41.5q-123 0 -195.5 57t-72.5 166q0 117 85.5 177.5t232.5 70.5l227 15v59q0 108 -51 166.5t-150 58.5q-103 0 -160 -60.5t-57 -144.5l-100 4q0 116 85.5 202.5t231.5 86.5zM639 1096l-217 -17
q-109 -8 -165 -44.5t-56 -116.5q0 -144 176 -144q49 -1 94 14t83.5 46t61.5 88t23 133v41z" />
    <glyph glyph-name="b.sups" horiz-adv-x="1058" 
d="M256 1976v-587q36 72 116.5 114.5t188.5 42.5q174 0 289 -115.5t115 -312.5t-115 -313.5t-289 -116.5q-111 0 -192 44t-117 118v-148h-100v1274h104zM549 1458q-130 0 -211.5 -81t-81.5 -232v-55q0 -151 81.5 -231.5t211.5 -80.5q137 0 224 89.5t87 248.5
q0 160 -87.5 251t-223.5 91z" />
    <glyph glyph-name="c.sups" horiz-adv-x="937" 
d="M494 1546q149 0 249 -82.5t117 -222.5l-100 -8q-13 105 -85.5 165t-180.5 60q-131 0 -214 -91t-83 -251q0 -158 84.5 -248t214.5 -90q109 0 179 55.5t85 153.5l102 -10q-23 -135 -120 -212t-246 -77q-176 0 -290 114.5t-114 313.5q0 201 112 315.5t290 114.5z" />
    <glyph glyph-name="d.sups" horiz-adv-x="1058" 
d="M905 702h-98v148q-36 -74 -117.5 -118t-191.5 -44q-174 0 -290 116.5t-116 313.5t116 312.5t290 115.5q108 0 188.5 -42.5t116.5 -114.5v587h102v-1274zM510 1458q-136 0 -223.5 -91t-87.5 -251q0 -159 87 -248.5t224 -89.5q130 0 211.5 80.5t81.5 231.5v55
q0 151 -81.5 232t-211.5 81z" />
    <glyph glyph-name="e.sups" horiz-adv-x="962" 
d="M872 1081h-669q3 -144 84.5 -223.5t208.5 -79.5q105 0 173.5 47t90.5 131l104 -6q-28 -122 -126 -192t-240 -70q-177 0 -291.5 114.5t-114.5 313.5q0 201 113 315.5t291 114.5q176 0 276 -110t100 -295v-60zM496 1458q-124 0 -205.5 -78t-87.5 -215h565q-2 131 -72.5 212
t-199.5 81z" />
    <glyph glyph-name="f.sups" horiz-adv-x="534" 
d="M465 1980q27 0 55 -4v-90q-10 2 -43 2q-84 0 -132 -49.5t-48 -142.5v-164h217v-92h-217v-738h-107v738h-165v92h165v162q0 136 74 211t201 75z" />
    <glyph glyph-name="g.sups" horiz-adv-x="1056" 
d="M498 1546q110 0 191.5 -44t117.5 -118v148h98v-883q0 -176 -106.5 -276.5t-282.5 -100.5q-162 0 -264 77t-131 206l106 4q17 -92 96.5 -146.5t188.5 -54.5q132 0 211.5 74.5t79.5 208.5v207q-38 -73 -118 -116.5t-187 -43.5q-174 0 -290 116.5t-116 313.5t116 312.5
t290 115.5zM510 1458q-136 0 -223.5 -90t-87.5 -250t87.5 -250t223.5 -90q130 0 211.5 81.5t81.5 232.5v55q0 151 -81.5 231t-211.5 80z" />
    <glyph glyph-name="h.sups" horiz-adv-x="976" 
d="M256 1976v-569q33 56 101 97.5t167 41.5q140 0 230 -89.5t90 -235.5v-519h-105v496q0 113 -65 182.5t-170 69.5q-108 0 -178 -74.5t-70 -179.5v-494h-104v1274h104z" />
    <glyph glyph-name="i.sups" horiz-adv-x="411" 
d="M205 1919q30 0 52 -22t22 -52t-22 -50.5t-52 -20.5q-32 0 -53 20t-21 51t21.5 52.5t52.5 21.5zM258 702h-104v830h104v-830z" />
    <glyph glyph-name="j.sups" horiz-adv-x="411" 
d="M203 1919q31 0 53.5 -21.5t22.5 -52.5q0 -30 -22.5 -50.5t-53.5 -20.5t-51.5 20t-20.5 51t20.5 52.5t51.5 21.5zM260 1532v-969q0 -138 -69 -212.5t-191 -74.5q-17 0 -57 5v92q24 -4 45 -4q79 0 123.5 49t44.5 141v973h104z" />
    <glyph glyph-name="k.sups" horiz-adv-x="849" 
d="M256 1141l399 391h140l-371 -365l407 -465h-131l-350 392l-94 -90v-302h-104v1274h104v-835z" />
    <glyph glyph-name="l.sups" horiz-adv-x="407" 
d="M256 702h-104v1274h104v-1274z" />
    <glyph glyph-name="m.sups" horiz-adv-x="1536" 
d="M1075 1546q141 0 227.5 -89t86.5 -236v-519h-103v496q0 114 -61 183t-164 69q-107 0 -173.5 -74t-66.5 -180v-494h-104v496q0 115 -60.5 183.5t-162.5 68.5q-107 0 -172.5 -74t-65.5 -180v-494h-104v830h100v-125q28 51 95 95t163 44q99 0 172.5 -45t108.5 -127
q37 78 110 125t174 47z" />
    <glyph glyph-name="n.sups" horiz-adv-x="989" 
d="M524 1546q140 0 230 -89.5t90 -235.5v-519h-105v496q0 113 -65 182.5t-170 69.5q-108 0 -178 -74.5t-70 -179.5v-494h-104v830h100v-125q33 56 103 97.5t169 41.5z" />
    <glyph glyph-name="o.sups" horiz-adv-x="1028" 
d="M512 1546q183 0 302.5 -117.5t119.5 -312.5t-119.5 -311.5t-302.5 -116.5q-182 0 -301 116.5t-119 311.5t119.5 312.5t300.5 117.5zM514 1458q-136 0 -225.5 -92.5t-89.5 -249.5q0 -156 89.5 -247t225.5 -91q137 0 227 91t90 247q0 157 -90 249.5t-227 92.5z" />
    <glyph glyph-name="p.sups" horiz-adv-x="1058" 
d="M561 1546q174 0 289 -115.5t115 -312.5t-115 -313.5t-289 -116.5q-108 0 -188.5 44t-116.5 116v-563h-104v1247h100v-148q36 74 117 118t192 44zM549 1458q-130 0 -211.5 -80t-81.5 -231v-55q0 -151 81.5 -232.5t211.5 -81.5q136 0 223.5 90t87.5 250t-87.5 250
t-223.5 90z" />
    <glyph glyph-name="q.sups" horiz-adv-x="1058" 
d="M498 1546q110 0 191.5 -44t117.5 -118v148h98v-1247h-102v563q-36 -72 -116.5 -116t-188.5 -44q-174 0 -290 116.5t-116 313.5t116 312.5t290 115.5zM510 1458q-136 0 -223.5 -90t-87.5 -250t87.5 -250t223.5 -90q130 0 211.5 81.5t81.5 232.5v55q0 151 -81.5 231
t-211.5 80z" />
    <glyph glyph-name="r.sups" horiz-adv-x="528" 
d="M504 1544v-100q-112 0 -180 -70t-68 -172v-500h-104v830h100v-121q30 56 93.5 94.5t158.5 38.5z" />
    <glyph glyph-name="s.sups" horiz-adv-x="813" 
d="M395 1546q128 0 202.5 -64t90.5 -173l-104 -9q-9 74 -58 116t-131 42q-92 0 -140 -40t-48 -109q0 -17 2.5 -31t10.5 -25.5t14 -19.5t21.5 -15.5t24 -12t30.5 -10l32 -8t38.5 -8.5t39.5 -8q61 -14 101.5 -26.5t79.5 -31.5t61 -42t35.5 -57t13.5 -78q0 -119 -84 -183.5
t-224 -64.5q-133 0 -216.5 62.5t-100.5 177.5l102 8q12 -78 68.5 -119t146.5 -41q94 0 148.5 38.5t54.5 117.5q0 69 -48 98t-181 60q-44 10 -65.5 15t-57 16t-53 20.5t-40.5 26t-33 35.5t-18 46t-8 60q0 110 75.5 173.5t217.5 63.5z" />
    <glyph glyph-name="t.sups" horiz-adv-x="538" 
d="M420 786q45 0 90 9v-93q-36 -8 -109 -8q-110 0 -173 61.5t-62 192.5l2 492h-156v92h156l2 293h102l-2 -293h238v-92h-238l-2 -479q0 -175 152 -175z" />
    <glyph glyph-name="u.sups" horiz-adv-x="962" 
d="M809 702h-98v123q-33 -56 -98 -96.5t-160 -40.5q-141 0 -224.5 87t-83.5 235v522h105v-500q0 -114 58 -180t163 -66q106 0 171 71t65 173v502h102v-830z" />
    <glyph glyph-name="v.sups" horiz-adv-x="841" 
d="M463 702h-82l-361 830h115l287 -668l287 668h112z" />
    <glyph glyph-name="w.sups" horiz-adv-x="1329" 
d="M991 702h-78l-247 672l-250 -672h-78l-318 830h115l248 -662l246 662h73l246 -662l246 662h113z" />
    <glyph glyph-name="x.sups" horiz-adv-x="819" 
d="M483 1130l305 -428h-122l-256 351l-252 -351h-127l307 428l-291 402h127l236 -328l235 328h125z" />
    <glyph glyph-name="y.sups" horiz-adv-x="845" 
d="M287 285h-113l191 456l-332 791h114l275 -668l274 668h115z" />
    <glyph glyph-name="z.sups" horiz-adv-x="733" 
d="M657 1458l-483 -672h506v-84h-629v72l484 672h-472v86h594v-74z" />
    <glyph glyph-name="zero.onum" horiz-adv-x="1314" 
d="M657 1231q248 0 391.5 -167.5t143.5 -457.5q0 -289 -143.5 -456.5t-391.5 -167.5q-249 0 -391.5 167.5t-142.5 456.5q0 291 142.5 458t391.5 167zM657 1124q-193 0 -302 -138t-109 -380t109 -379t302 -137q192 0 302 137.5t110 378.5t-110 379.5t-302 138.5z" />
    <glyph glyph-name="one.onum" horiz-adv-x="739" 
d="M537 0h-119v1044l-320 -256l-59 93l407 327h91v-1208z" />
    <glyph glyph-name="two.onum" horiz-adv-x="1091" 
d="M563 1227q207 0 314.5 -103.5t107.5 -292.5q0 -76 -24 -142t-74 -125.5t-96 -100.5t-119 -98l-338 -256h674v-109h-881v94l457 344q56 41 85.5 64.5t73 65.5t65.5 76.5t39 83t17 101.5q0 140 -76.5 214.5t-224.5 74.5q-153 0 -237.5 -91.5t-87.5 -256.5l-121 4
q5 213 121.5 333t324.5 120z" />
    <glyph glyph-name="three.onum" horiz-adv-x="1128" 
d="M559 1227q195 0 309.5 -109.5t114.5 -296.5q0 -134 -68.5 -227.5t-171.5 -122.5q127 -26 205 -122.5t78 -250.5q0 -202 -125.5 -321t-335.5 -119q-211 0 -331.5 116t-139.5 324l121 6q19 -162 107 -249.5t243 -87.5q158 0 249 89t91 242q0 155 -96.5 235.5t-257.5 80.5
h-148v108h146q139 0 225 81.5t86 217.5q0 141 -81.5 219t-219.5 78q-141 0 -224.5 -84t-94.5 -235l-121 6q11 198 126.5 310t313.5 112z" />
    <glyph glyph-name="four.onum" horiz-adv-x="1212" 
d="M868 197h291v-109h-291v-412h-116v412h-699v98l717 1022h98v-1011zM190 197h562v794z" />
    <glyph glyph-name="five.onum" horiz-adv-x="1134" 
d="M580 600q200 0 325 -126t125 -339q0 -212 -123.5 -344.5t-341.5 -132.5q-209 0 -328.5 114.5t-138.5 317.5l121 6q19 -156 106 -242.5t240 -86.5q164 0 255 102.5t91 263.5t-94 260t-248 99q-163 0 -303 -111h-112v827h819v-106h-701v-600q135 98 308 98z" />
    <glyph glyph-name="six.onum" horiz-adv-x="1196" 
d="M602 963q216 0 357 -136t141 -358q0 -220 -141 -353.5t-357 -133.5q-142 0 -255.5 58.5t-179 170.5t-65.5 258q0 178 101 313l577 750h142l-447 -584q77 15 127 15zM602 90q163 0 269 104.5t106 278.5q0 175 -105.5 278t-269.5 103q-195 0 -299 -131q-78 -97 -78 -250
q0 -174 105.5 -278.5t271.5 -104.5z" />
    <glyph glyph-name="seven.onum" horiz-adv-x="1103" 
d="M1059 1110l-780 -1434h-134l779 1426h-873v106h1008v-98z" />
    <glyph glyph-name="eight.onum" horiz-adv-x="1210" 
d="M604 1550q193 0 319 -107.5t126 -291.5q0 -128 -65.5 -219t-164.5 -129q114 -39 189 -141t75 -246q0 -198 -135 -316t-344 -118t-344 118t-135 316q0 144 74.5 245t189.5 142q-100 38 -164.5 128.5t-64.5 219.5q0 185 124.5 292t319.5 107zM606 1442q-142 0 -233.5 -80.5
t-91.5 -216.5q0 -134 92 -213.5t233 -79.5q139 0 230.5 80t91.5 213q0 136 -91.5 216.5t-230.5 80.5zM604 743q-156 0 -257 -87t-101 -238q0 -149 102 -238.5t256 -89.5q156 0 257.5 89.5t101.5 238.5q0 151 -101 238t-258 87z" />
    <glyph glyph-name="nine.onum" horiz-adv-x="1196" 
d="M594 1227q142 0 255.5 -59t179 -171t65.5 -258q0 -178 -101 -313l-577 -750h-142l447 584q-72 -14 -127 -14q-216 0 -357 135.5t-141 357.5q0 220 141 354t357 134zM594 354q195 0 299 131q78 97 78 250q0 174 -105.5 278.5t-271.5 104.5q-163 0 -269 -104.5t-106 -278.5
q0 -175 105.5 -278t269.5 -103z" />
    <glyph glyph-name="zero.slash" horiz-adv-x="1312" 
d="M657 1550q249 0 392 -204.5t143 -579.5q0 -374 -143 -579t-392 -205q-250 0 -393 205t-143 579q0 375 143 579.5t393 204.5zM655 1442q-198 0 -304.5 -173.5t-106.5 -502.5q0 -331 106 -502l563 1069q-100 109 -258 109zM655 90q199 0 307.5 173.5t108.5 502.5
q0 323 -104 496l-564 -1069q100 -103 252 -103z" />
    <glyph glyph-name="zero.subs" horiz-adv-x="755" 
d="M379 688q138 0 218.5 -113t80.5 -317q0 -206 -80 -319t-219 -113q-140 0 -220.5 112.5t-80.5 319.5q0 205 80.5 317.5t220.5 112.5zM377 606q-100 0 -153.5 -88.5t-53.5 -259.5t53.5 -259.5t153.5 -88.5q102 0 156.5 88.5t54.5 259.5t-54.5 259.5t-156.5 88.5z" />
    <glyph glyph-name="one.subs" horiz-adv-x="442" 
d="M330 -164h-92v715l-166 -129l-43 70l241 186h60v-842z" />
    <glyph glyph-name="two.subs" horiz-adv-x="636" 
d="M322 688q119 0 181 -67t62 -179q0 -93 -40 -167.5t-122 -159.5l-190 -197h365v-82h-504v64l262 270q73 73 106 134t33 140q0 73 -39.5 117.5t-111.5 44.5q-77 0 -121 -46t-45 -130l-88 6q2 118 68.5 185t183.5 67z" />
    <glyph glyph-name="three.subs" horiz-adv-x="655" 
d="M324 688q112 0 175.5 -60t63.5 -165q0 -70 -36.5 -121t-82.5 -68q59 -15 100.5 -69t41.5 -135q0 -113 -71 -178.5t-189 -65.5q-120 0 -188.5 65t-74.5 179l91 8q8 -80 52 -124t120 -44q78 0 124 44t46 120q0 75 -50 115t-131 40h-79v80h79q67 0 113.5 41.5t46.5 108.5
q0 69 -41 108t-110 39q-70 0 -112.5 -41t-45.5 -116l-90 4q5 110 70 172.5t178 62.5z" />
    <glyph glyph-name="four.subs" horiz-adv-x="702" 
d="M512 131h147v-82h-147v-213h-90v213h-381v72l387 557h84v-547zM125 131h297v418z" />
    <glyph glyph-name="five.subs" horiz-adv-x="653" 
d="M338 350q112 0 182 -69.5t70 -188.5t-70 -192.5t-194 -73.5q-115 0 -183.5 65t-76.5 175l90 4q9 -76 53 -118t119 -42q81 0 126.5 50t45.5 130q0 81 -47.5 129.5t-124.5 48.5q-79 0 -150 -55h-82v465h461v-82h-371v-289q65 43 152 43z" />
    <glyph glyph-name="six.subs" horiz-adv-x="694" 
d="M350 371q121 0 200 -75t79 -198q0 -124 -79 -198t-200 -74q-124 0 -203 74t-79 198q0 95 57 172l307 408h111l-236 -309q14 2 43 2zM348 -90q83 0 136 51t53 139t-52 138.5t-137 50.5q-97 0 -149 -64q-39 -56 -39 -125q0 -88 52.5 -139t135.5 -51z" />
    <glyph glyph-name="seven.subs" horiz-adv-x="643" 
d="M602 610l-409 -774h-103l406 760h-453v82h559v-68z" />
    <glyph glyph-name="eight.subs" horiz-adv-x="700" 
d="M350 688q108 0 179 -60.5t71 -162.5q0 -63 -30 -111t-72 -75q52 -28 87.5 -81.5t35.5 -129.5q0 -111 -76.5 -176.5t-194.5 -65.5t-194 65t-76 177q0 76 35 129t86 82q-103 69 -103 186q0 102 71 162.5t181 60.5zM350 606q-72 0 -119 -39.5t-47 -109.5q0 -71 47 -109.5
t119 -38.5q71 0 117.5 39.5t46.5 108.5q0 70 -46 109.5t-118 39.5zM350 231q-78 0 -129 -42t-51 -119q0 -74 51 -117t129 -43q77 0 127.5 43t50.5 117q0 77 -50.5 119t-127.5 42z" />
    <glyph glyph-name="nine.subs" horiz-adv-x="694" 
d="M346 688q124 0 203.5 -74t79.5 -198q0 -94 -58 -172l-307 -408h-110l235 309q-14 -2 -43 -2q-120 0 -199 75t-79 198q0 124 78.5 198t199.5 74zM348 223q96 0 150 66q39 56 39 125q0 88 -53 140t-136 52t-135.5 -52t-52.5 -140q0 -87 52 -139t136 -52z" />
    <glyph glyph-name="zero.sups" horiz-adv-x="755" 
d="M379 1675q138 0 218.5 -113t80.5 -317q0 -206 -80 -319t-219 -113q-140 0 -220.5 112.5t-80.5 319.5q0 205 80.5 317.5t220.5 112.5zM377 1593q-100 0 -153.5 -88.5t-53.5 -259.5t53.5 -259.5t153.5 -88.5q102 0 156.5 88.5t54.5 259.5t-54.5 259.5t-156.5 88.5z" />
    <glyph glyph-name="one.sups" horiz-adv-x="442" 
d="M330 823h-92v715l-166 -129l-43 70l241 186h60v-842z" />
    <glyph glyph-name="two.sups" horiz-adv-x="636" 
d="M322 1675q119 0 181 -67t62 -178q0 -93 -40.5 -168t-121.5 -160l-190 -197h365v-82h-504v64l262 270q72 72 105.5 134t33.5 141q0 72 -39.5 116.5t-111.5 44.5q-77 0 -121 -46t-45 -130l-88 6q2 119 68.5 185.5t183.5 66.5z" />
    <glyph glyph-name="three.sups" horiz-adv-x="655" 
d="M324 1675q112 0 175.5 -60t63.5 -165q0 -70 -36.5 -120.5t-82.5 -67.5q59 -15 100.5 -69.5t41.5 -135.5q0 -113 -71 -178.5t-189 -65.5q-120 0 -188.5 65t-74.5 179l91 8q8 -80 52 -124t120 -44q78 0 124 44t46 120q0 75 -50 115.5t-131 40.5h-79v79h79q67 0 113.5 41.5
t46.5 108.5q0 69 -41 108t-110 39q-70 0 -112.5 -41t-45.5 -116l-90 4q5 110 70 172.5t178 62.5z" />
    <glyph glyph-name="four.sups" horiz-adv-x="702" 
d="M512 1118h147v-82h-147v-213h-90v213h-381v72l387 557h84v-547zM125 1118h297v418z" />
    <glyph glyph-name="five.sups" horiz-adv-x="653" 
d="M338 1337q112 0 182 -69.5t70 -188.5t-70 -192.5t-194 -73.5q-115 0 -183.5 65t-76.5 175l90 4q9 -76 53 -118t119 -42q81 0 126.5 50t45.5 130q0 81 -47.5 129.5t-124.5 48.5q-79 0 -150 -55h-82v465h461v-82h-371v-289q65 43 152 43z" />
    <glyph glyph-name="six.sups" horiz-adv-x="694" 
d="M350 1358q121 0 200 -75t79 -198q0 -124 -79 -198t-200 -74q-124 0 -203 74t-79 198q0 95 57 172l307 408h111l-236 -309q14 2 43 2zM348 897q83 0 136 51t53 139t-52 138.5t-137 50.5q-97 0 -149 -64q-39 -56 -39 -125q0 -88 52.5 -139t135.5 -51z" />
    <glyph glyph-name="seven.sups" horiz-adv-x="643" 
d="M602 1597l-409 -774h-103l406 760h-453v82h559v-68z" />
    <glyph glyph-name="eight.sups" horiz-adv-x="700" 
d="M350 1675q108 0 179 -60.5t71 -162.5q0 -63 -30 -111t-72 -75q52 -28 87.5 -81.5t35.5 -129.5q0 -111 -76.5 -176.5t-194.5 -65.5t-194 65t-76 177q0 76 35 129t86 82q-103 69 -103 186q0 102 71 162.5t181 60.5zM350 1593q-72 0 -119 -39.5t-47 -109.5q0 -71 47 -109.5
t119 -38.5q71 0 117.5 39.5t46.5 108.5q0 70 -46 109.5t-118 39.5zM350 1219q-78 0 -129 -42.5t-51 -119.5q0 -74 51 -117t129 -43q77 0 127.5 43t50.5 117q0 77 -50.5 119.5t-127.5 42.5z" />
    <glyph glyph-name="nine.sups" horiz-adv-x="694" 
d="M346 1675q124 0 203.5 -74t79.5 -198q0 -94 -58 -172l-307 -408h-110l235 310q-21 -3 -43 -3q-120 0 -199 75t-79 198q0 124 78.5 198t199.5 74zM348 1210q96 0 150 66q39 56 39 125q0 88 -53 140t-136 52t-135.5 -52t-52.5 -140q0 -87 52 -139t136 -52z" />
    <glyph glyph-name="zero.tnum" horiz-adv-x="1331" 
d="M666 1550q249 0 391.5 -204.5t142.5 -579.5q0 -374 -142.5 -579t-391.5 -205q-250 0 -393.5 205t-143.5 579q0 375 143 579.5t394 204.5zM664 1442q-198 0 -305 -173.5t-107 -502.5t107 -502.5t305 -173.5q199 0 306 173t107 503t-107 503t-306 173z" />
    <glyph glyph-name="one.tnum" horiz-adv-x="1331" 
d="M799 109h346v-109h-840v109h373v1259l-348 -281l-60 91l439 354h90v-1423z" />
    <glyph glyph-name="two.tnum" horiz-adv-x="1331" 
d="M670 1550q201 0 311.5 -114.5t110.5 -311.5q0 -95 -21.5 -178.5t-66 -159.5t-97 -140t-129.5 -142l-385 -395h723v-109h-887v96l461 475q101 106 157 181t90 168t34 200q0 146 -78 234t-221 88q-156 0 -240 -93.5t-86 -261.5l-123 7q5 215 121.5 335.5t325.5 120.5z" />
    <glyph glyph-name="three.tnum" horiz-adv-x="1331" 
d="M662 1550q195 0 308 -108.5t113 -296.5q0 -134 -67.5 -227.5t-169.5 -122.5q127 -26 204.5 -122.5t77.5 -250.5q0 -201 -126 -320.5t-334 -119.5q-212 0 -332.5 116t-138.5 324l120 6q18 -161 106.5 -249.5t244.5 -88.5t247 89.5t91 242.5q0 155 -97 235t-258 80h-145
v109h143q139 0 226.5 82t87.5 217q0 141 -81.5 219t-219.5 78q-142 0 -226.5 -84.5t-93.5 -235.5l-121 6q11 198 127 310t314 112z" />
    <glyph glyph-name="four.tnum" horiz-adv-x="1331" 
d="M922 520h290v-108h-290v-412h-117v412h-699v98l717 1022h99v-1012zM244 520h561v795z" />
    <glyph glyph-name="five.tnum" horiz-adv-x="1331" 
d="M672 924q200 0 325 -126t125 -339q0 -212 -123.5 -344.5t-341.5 -132.5q-209 0 -328.5 114.5t-138.5 317.5l121 6q18 -156 105.5 -243t240.5 -87q164 0 255.5 103t91.5 264t-94 259.5t-248 98.5q-165 0 -306 -110h-110v827h819v-107h-700v-600q136 99 307 99z" />
    <glyph glyph-name="six.tnum" horiz-adv-x="1331" 
d="M657 963q216 0 357 -136t141 -358q0 -220 -141 -353.5t-357 -133.5q-142 0 -255 58.5t-178.5 170.5t-65.5 258q0 180 100 313l578 750h141l-445 -584q58 15 125 15zM657 90q163 0 269 104.5t106 278.5q0 175 -105.5 278t-269.5 103q-196 0 -297 -131q-79 -94 -79 -250
q0 -174 105.5 -278.5t270.5 -104.5z" />
    <glyph glyph-name="seven.tnum" horiz-adv-x="1331" 
d="M1167 1432l-778 -1434h-135l780 1425h-874v107h1007v-98z" />
    <glyph glyph-name="eight.tnum" horiz-adv-x="1331" 
d="M664 1550q194 0 319 -107t125 -292q0 -128 -65 -219t-164 -129q115 -39 189.5 -141t74.5 -246q0 -198 -135 -316t-344 -118t-343.5 118t-134.5 316q0 144 74.5 245t188.5 142q-100 38 -165 128.5t-65 219.5q0 185 125 292t320 107zM666 1442q-142 0 -234 -80.5
t-92 -216.5q0 -134 92.5 -213.5t233.5 -79.5q139 0 231 80t92 213q0 136 -92 216.5t-231 80.5zM664 743q-156 0 -256.5 -87t-100.5 -238q0 -149 101.5 -238.5t255.5 -89.5q156 0 257 89.5t101 238.5q0 151 -100.5 238t-257.5 87z" />
    <glyph glyph-name="nine.tnum" horiz-adv-x="1331" 
d="M674 1550q142 0 255.5 -58.5t179 -170.5t65.5 -258q0 -178 -101 -313l-577 -750h-142l445 584q-59 -15 -125 -15q-216 0 -357 136t-141 358q0 220 141 353.5t357 133.5zM674 678q196 0 297 131q80 96 80 250q0 174 -105.5 278.5t-271.5 104.5q-163 0 -269 -104.5
t-106 -278.5q0 -175 105.5 -278t269.5 -103z" />
    <glyph glyph-name="zero.dnom" horiz-adv-x="755" 
d="M379 852q138 0 218.5 -113t80.5 -317q0 -206 -80 -319t-219 -113q-140 0 -220.5 112.5t-80.5 319.5q0 205 80.5 317.5t220.5 112.5zM377 770q-100 0 -153.5 -88.5t-53.5 -259.5t53.5 -259.5t153.5 -88.5q102 0 156.5 88.5t54.5 259.5t-54.5 259.5t-156.5 88.5z" />
    <glyph glyph-name="one.dnom" horiz-adv-x="442" 
d="M330 0h-92v715l-166 -129l-43 69l241 187h60v-842z" />
    <glyph glyph-name="two.dnom" horiz-adv-x="636" 
d="M322 852q119 0 181 -67t62 -179q0 -93 -40 -167.5t-122 -159.5l-190 -197h365v-82h-504v63l262 271q73 73 106 134t33 140q0 73 -39.5 117.5t-111.5 44.5q-77 0 -121 -46t-45 -130l-88 6q2 118 68.5 185t183.5 67z" />
    <glyph glyph-name="three.dnom" horiz-adv-x="655" 
d="M324 852q112 0 175.5 -60t63.5 -165q0 -70 -36.5 -121t-82.5 -68q59 -15 100.5 -69.5t41.5 -135.5q0 -113 -71 -178t-189 -65q-120 0 -188.5 64.5t-74.5 178.5l91 9q8 -80 52 -124t120 -44q78 0 124 44t46 120q0 75 -50 115t-131 40h-79v80h79q67 0 113.5 41.5
t46.5 108.5q0 69 -41 108t-110 39q-70 0 -112.5 -41.5t-45.5 -116.5l-90 4q5 110 70 173t178 63z" />
    <glyph glyph-name="four.dnom" horiz-adv-x="702" 
d="M512 295h147v-82h-147v-213h-90v213h-381v72l387 557h84v-547zM125 295h297v418z" />
    <glyph glyph-name="five.dnom" horiz-adv-x="653" 
d="M338 514q112 0 182 -69.5t70 -188.5t-70 -192.5t-194 -73.5q-116 0 -184 64.5t-76 174.5l90 4q9 -76 53 -117.5t119 -41.5q81 0 126.5 50t45.5 130q0 81 -47.5 129.5t-124.5 48.5q-79 0 -150 -55h-82v465h461v-82h-371v-289q65 43 152 43z" />
    <glyph glyph-name="six.dnom" horiz-adv-x="694" 
d="M350 535q121 0 200 -75t79 -198q0 -124 -79 -198t-200 -74q-124 0 -203 74t-79 198q0 95 57 172l307 408h111l-236 -310q21 3 43 3zM348 74q83 0 136 51t53 139t-52 138.5t-137 50.5q-97 0 -149 -64q-39 -56 -39 -125q0 -88 52.5 -139t135.5 -51z" />
    <glyph glyph-name="seven.dnom" horiz-adv-x="643" 
d="M602 774l-409 -774h-103l406 760h-453v82h559v-68z" />
    <glyph glyph-name="eight.dnom" horiz-adv-x="700" 
d="M350 852q108 0 179 -60.5t71 -162.5q0 -64 -30 -112t-72 -75q52 -28 87.5 -81.5t35.5 -129.5q0 -111 -76 -176t-195 -65q-118 0 -194 65t-76 176q0 76 35 129t86 82q-103 69 -103 187q0 102 71 162.5t181 60.5zM350 770q-72 0 -119 -39.5t-47 -109.5q0 -71 47 -109.5
t119 -38.5q71 0 117.5 39.5t46.5 108.5q0 70 -46 109.5t-118 39.5zM350 395q-78 0 -129 -42.5t-51 -119.5q0 -74 51 -116.5t129 -42.5t128 42.5t50 116.5q0 77 -50.5 119.5t-127.5 42.5z" />
    <glyph glyph-name="nine.dnom" horiz-adv-x="694" 
d="M346 852q124 0 203.5 -74t79.5 -198q0 -94 -58 -172l-307 -408h-110l235 309q-14 -2 -43 -2q-120 0 -199 75t-79 198q0 124 78.5 198t199.5 74zM348 387q96 0 150 66q39 56 39 125q0 88 -53 140t-136 52t-135.5 -52t-52.5 -140q0 -87 52 -139t136 -52z" />
    <glyph glyph-name="zero.numr" horiz-adv-x="755" 
d="M379 1509q138 0 218.5 -113t80.5 -317q0 -206 -80 -319t-219 -113q-140 0 -220.5 112.5t-80.5 319.5q0 205 80.5 317.5t220.5 112.5zM377 1427q-100 0 -153.5 -88.5t-53.5 -259.5t53.5 -259.5t153.5 -88.5q102 0 156.5 88.5t54.5 259.5t-54.5 259.5t-156.5 88.5z" />
    <glyph glyph-name="one.numr" horiz-adv-x="442" 
d="M330 659h-92v715l-166 -129l-43 70l241 186h60v-842z" />
    <glyph glyph-name="two.numr" horiz-adv-x="636" 
d="M322 1511q119 0 181 -67t62 -178q0 -93 -40.5 -168t-121.5 -160l-190 -197h365v-82h-504v64l262 270q72 72 105.5 134t33.5 141q0 73 -39.5 117.5t-111.5 44.5q-77 0 -121 -46.5t-45 -130.5l-88 7q1 118 68 184.5t184 66.5z" />
    <glyph glyph-name="three.numr" horiz-adv-x="655" 
d="M324 1511q112 0 175.5 -60t63.5 -165q0 -70 -36.5 -120.5t-82.5 -67.5q59 -15 100.5 -69.5t41.5 -135.5q0 -113 -71 -178.5t-189 -65.5q-120 0 -188.5 65t-74.5 179l91 8q8 -80 52 -124t120 -44q78 0 124 44t46 120q0 75 -50 115.5t-131 40.5h-79v80h79q67 0 113.5 41
t46.5 108q0 69 -41 108.5t-110 39.5q-70 0 -112.5 -41.5t-45.5 -116.5l-90 4q5 110 70 172.5t178 62.5z" />
    <glyph glyph-name="four.numr" horiz-adv-x="702" 
d="M512 954h147v-82h-147v-213h-90v213h-381v72l387 557h84v-547zM125 954h297v418z" />
    <glyph glyph-name="five.numr" horiz-adv-x="653" 
d="M338 1174q112 0 182 -69.5t70 -189.5q0 -119 -70 -192.5t-194 -73.5q-115 0 -183.5 65t-76.5 175l90 4q9 -76 53 -118t119 -42q81 0 126.5 50t45.5 130q0 81 -47.5 130t-124.5 49q-78 0 -150 -56h-82v465h461v-82h-371v-289q67 44 152 44z" />
    <glyph glyph-name="six.numr" horiz-adv-x="694" 
d="M350 1194q121 0 200 -75t79 -197q0 -124 -79 -198.5t-200 -74.5q-124 0 -203 74.5t-79 198.5q0 95 57 172l307 407h111l-236 -309q14 2 43 2zM348 733q83 0 136 51.5t53 139.5t-52 138t-137 50q-98 0 -149 -63q-39 -56 -39 -125q0 -88 52.5 -139.5t135.5 -51.5z" />
    <glyph glyph-name="seven.numr" horiz-adv-x="643" 
d="M602 1434l-409 -775h-103l406 760h-453v82h559v-67z" />
    <glyph glyph-name="eight.numr" horiz-adv-x="700" 
d="M350 1511q108 0 179 -60.5t71 -162.5q0 -63 -30 -111t-72 -75q52 -28 87.5 -81.5t35.5 -129.5q0 -111 -76.5 -176.5t-194.5 -65.5t-194 65t-76 177q0 76 35 129t86 82q-103 69 -103 186q0 102 71 162.5t181 60.5zM350 1430q-72 0 -119 -40t-47 -110q0 -71 47 -109
t119 -38q71 0 117.5 39.5t46.5 107.5q0 70 -46.5 110t-117.5 40zM350 1055q-78 0 -129 -42.5t-51 -119.5q0 -74 51 -117t129 -43q77 0 127.5 43t50.5 117q0 77 -50.5 119.5t-127.5 42.5z" />
    <glyph glyph-name="nine.numr" horiz-adv-x="694" 
d="M346 1511q124 0 203.5 -74t79.5 -198q0 -94 -58 -172l-307 -408h-110l235 310q-14 -2 -43 -2q-121 0 -199.5 74.5t-78.5 197.5q0 124 78.5 198t199.5 74zM348 1047q97 0 150 65q39 56 39 125q0 88 -53 140.5t-136 52.5t-135.5 -52.5t-52.5 -140.5q0 -87 52 -138.5
t136 -51.5z" />
    <glyph glyph-name="periodcentered.cap" horiz-adv-x="389" 
d="M186 905q40 0 66.5 -26t26.5 -64t-26.5 -64t-66.5 -26q-37 0 -62.5 26t-25.5 64t25.5 64t62.5 26z" />
    <glyph glyph-name="exclamdown.cap" horiz-adv-x="526" 
d="M264 1370q-38 0 -65 26t-27 64t27 64t65 26q37 0 62.5 -26t25.5 -64t-25.5 -64t-62.5 -26zM205 1145h119l6 -1145h-131z" />
    <glyph glyph-name="questiondown.cap" horiz-adv-x="993" 
d="M512 1370q-38 0 -65 26t-27 64t27 64t65 26q37 0 62.5 -26t25.5 -64t-25.5 -64t-62.5 -26zM496 -20q-211 0 -331 120t-120 310q0 89 28.5 157t73 113.5t121.5 99.5q101 75 139.5 142t38.5 170v53h121v-60q0 -110 -42.5 -187.5t-153.5 -162.5q-70 -50 -110 -90.5
t-66.5 -99.5t-26.5 -133q0 -142 86.5 -233t241.5 -91q152 0 237.5 77t100.5 216l120 -8q-15 -183 -136.5 -288t-321.5 -105z" />
    <glyph glyph-name="braceleft.cap" horiz-adv-x="460" 
d="M412 1479h-13q-214 0 -141 -365q12 -58 17.5 -98t7 -87.5t-7.5 -78t-31.5 -55t-59.5 -33.5q37 -9 59.5 -33.5t31.5 -54.5t7.5 -77.5t-7 -87.5t-17.5 -99q-73 -365 141 -365h13v-96h-13q-164 0 -233.5 118t-20.5 336q10 45 16 74.5t11 65.5t3.5 59t-7 46.5t-19 36.5
t-35.5 21.5t-53 8.5h-16v96h16q36 0 60 9.5t36 31.5t16.5 45.5t0.5 64t-10.5 73.5t-18.5 87q-49 218 20.5 335.5t233.5 117.5h13v-96z" />
    <glyph glyph-name="braceright.cap" horiz-adv-x="460" 
d="M47 1575h12q165 0 234 -117.5t20 -335.5q-10 -45 -16 -75t-10.5 -65.5t-3.5 -58.5t7 -46.5t19.5 -36.5t35 -21t52.5 -8h17v-96h-17q-35 0 -59.5 -10t-36 -31.5t-16.5 -46t-0.5 -64t10.5 -74t18 -86.5q49 -218 -20 -336t-234 -118h-12v96h12q110 0 145 91t-1 274
q-12 58 -18.5 99t-7.5 87.5t7.5 77.5t31 55t58.5 33q-36 9 -58.5 33.5t-31 55.5t-7.5 77.5t7.5 87.5t18.5 98q36 183 1 274t-145 91h-12v96z" />
    <glyph glyph-name="bracketleft.cap" horiz-adv-x="497" 
d="M451 1481h-211v-1436h211v-96h-326v1628h326v-96z" />
    <glyph glyph-name="bracketright.cap" horiz-adv-x="505" 
d="M375 -51h-328v96h213v1436h-213v96h328v-1628z" />
    <glyph glyph-name="parenleft.cap" horiz-adv-x="479" 
d="M334 1569l100 -37q-104 -155 -168.5 -358.5t-64.5 -432.5q0 -228 64.5 -430t168.5 -358l-100 -39q-110 165 -179 376.5t-69 450.5t69 452.5t179 375.5z" />
    <glyph glyph-name="parenright.cap" horiz-adv-x="475" 
d="M45 1532l98 37q111 -162 180.5 -375t69.5 -453q0 -239 -69.5 -451t-180.5 -376l-98 39q104 156 169 358t65 430t-65 431.5t-169 359.5z" />
    <glyph glyph-name="emdash.cap" horiz-adv-x="1624" 
d="M1532 717h-1440v108h1440v-108z" />
    <glyph glyph-name="endash.cap" horiz-adv-x="1148" 
d="M1057 717h-965v108h965v-108z" />
    <glyph glyph-name="hyphen.cap" horiz-adv-x="821" 
d="M729 717h-637v108h637v-108z" />
    <glyph glyph-name="guillemotleft.cap" horiz-adv-x="1034" 
d="M504 1153l-340 -373l340 -374l-90 -60l-383 434l383 432zM989 1153l-340 -373l340 -374l-90 -60l-383 434l383 432z" />
    <glyph glyph-name="guillemotright.cap" horiz-adv-x="1034" 
d="M518 780l-383 -434l-90 60l340 374l-340 373l90 59zM1004 780l-386 -434l-90 60l340 374l-340 373l90 59z" />
    <glyph glyph-name="guilsinglleft.cap" horiz-adv-x="595" 
d="M551 1139l-377 -359l377 -358l-84 -74l-436 432l436 430z" />
    <glyph glyph-name="guilsinglright.cap" horiz-adv-x="595" 
d="M565 780l-438 -432l-82 74l377 358l-377 359l82 71z" />
    <glyph glyph-name="emdash_guilsinglright" horiz-adv-x="1712" 
d="M1640 528l-464 -454l-82 73l350 332h-1352v96h1350l-348 330l82 74z" />
    <glyph glyph-name="endash_guilsinglright" horiz-adv-x="1185" 
d="M1114 528l-463 -454l-82 73l351 332h-828v96h823l-346 330l82 74z" />
    <glyph glyph-name="guilsinglleft_emdash" horiz-adv-x="1712" 
d="M616 905l-348 -330h1352v-96h-1354l350 -332l-79 -73l-465 454l465 451z" />
    <glyph glyph-name="guilsinglleft_endash" horiz-adv-x="1185" 
d="M616 905l-348 -330h826v-96h-828l350 -332l-79 -73l-465 454l465 451z" />
    <glyph glyph-name="at.cap" horiz-adv-x="1636" 
d="M817 1489q205 0 372 -94.5t262 -261t95 -371.5q0 -193 -72 -300.5t-198 -107.5q-75 0 -121.5 38t-56.5 108q-93 -152 -305 -152q-171 0 -277 113.5t-106 308.5q0 198 105.5 311t277.5 113q114 0 191 -43.5t114 -118.5v142h86v-611q0 -131 110 -131q79 0 125.5 87.5
t46.5 242.5q0 185 -84 334.5t-232.5 234t-332.5 84.5q-186 0 -334.5 -84.5t-231.5 -234t-83 -334.5q0 -187 85 -335.5t232 -230t328 -81.5q221 0 385 108l21 -73q-90 -57 -185 -85t-221 -28q-203 0 -368.5 93t-261 259.5t-95.5 372.5q0 154 55 289t151 231t231.5 151.5
t291.5 55.5zM805 428q132 0 210.5 80t78.5 235v56q0 155 -78 234t-211 79q-136 0 -219.5 -89.5t-83.5 -252.5q0 -162 83.5 -252t219.5 -90z" />
    <glyph glyph-name="acute.case" horiz-adv-x="583" 
d="M156 1632h-113l326 277h163z" />
    <glyph glyph-name="breve.case" horiz-adv-x="684" 
d="M535 1901h96q0 -114 -79 -177t-212 -63t-212 63t-79 177h96q0 -72 53 -115t142 -43t142 43t53 115z" />
    <glyph glyph-name="caron.case" horiz-adv-x="692" 
d="M399 1632h-106l-248 277h102l197 -201l199 201h102z" />
    <glyph glyph-name="circumflex.case" horiz-adv-x="692" 
d="M645 1632h-102l-199 201l-197 -201h-102l248 277h106z" />
    <glyph glyph-name="dieresis.case" horiz-adv-x="520" 
d="M129 1849q32 0 56 -22t24 -53q0 -33 -23.5 -55.5t-56.5 -22.5t-55.5 22.5t-22.5 55.5q0 31 23 53t55 22zM391 1849q32 0 55 -22t23 -53q0 -33 -22.5 -55.5t-55.5 -22.5t-55.5 22.5t-22.5 55.5q0 31 23 53t55 22z" />
    <glyph glyph-name="dotaccent.case" horiz-adv-x="274" 
d="M139 1847q35 0 60.5 -26.5t25.5 -61.5t-25.5 -61.5t-60.5 -26.5q-37 0 -63.5 26.5t-26.5 61.5t26.5 61.5t63.5 26.5z" />
    <glyph glyph-name="grave.case" horiz-adv-x="583" 
d="M539 1632h-115l-375 277h164z" />
    <glyph glyph-name="hungarumlaut.case" horiz-adv-x="632" 
d="M135 1638h-94l123 281h110zM451 1638h-95l123 281h111z" />
    <glyph glyph-name="macron.case" horiz-adv-x="579" 
d="M541 1733h-502v90h502v-90z" />
    <glyph glyph-name="ring.case" 
d="M254 2009q83 0 140 -54t57 -136t-57 -136.5t-140 -54.5q-85 0 -143 54t-58 137t57.5 136.5t143.5 53.5zM254 1937q-55 0 -90 -32.5t-35 -85.5q0 -54 35.5 -87.5t89.5 -33.5q53 0 88 34t35 87t-35 85.5t-88 32.5z" />
    <glyph glyph-name="tilde.case" horiz-adv-x="714" 
d="M211 1894q43 0 83.5 -20.5t67 -45t62.5 -45t70 -20.5q51 0 78.5 32.5t29.5 84.5h70q3 -85 -43.5 -145t-122.5 -60q-43 0 -83.5 20.5t-67 45t-62.5 45t-70 20.5q-51 0 -79.5 -32.5t-28.5 -83.5h-70q-3 86 43 145t123 59z" />
    <glyph glyph-name="anneau" horiz-adv-x="1179" 
d="M590 1552q223 0 373.5 -148t150.5 -366q0 -217 -151 -365.5t-373 -148.5t-373 148.5t-151 365.5q0 218 150.5 366t373.5 148zM590 1505q-201 0 -337 -134.5t-136 -332.5t136 -332.5t337 -134.5t337 134.5t136 332.5t-136 332.5t-337 134.5z" />
    <glyph glyph-name="null" horiz-adv-x="1228" 
 />
    </font>
</defs>
</svg>
