<?xml version="1.0" standalone="no"?>
<!DOCTYPE svg PUBLIC "-//W3C//DTD SVG 1.1//EN" "http://www.w3.org/Graphics/SVG/1.1/DTD/svg11.dtd" >
<svg xmlns="http://www.w3.org/2000/svg" xmlns:xlink="http://www.w3.org/1999/xlink" version="1.1">
<metadata>
Created by FontForge 20170731 at Sat Jan 16 11:32:55 2021
 By Aleksey,,,
Copyright (c) 2014 by Type Dynamic. All rights reserved.
</metadata>
<defs>
<font id="Sailec-BlackItalic" horiz-adv-x="632" >
  <font-face 
    font-family="Sailec Black"
    font-weight="900"
    font-style="italic"
    font-stretch="normal"
    units-per-em="2048"
    panose-1="0 0 10 0 0 0 0 0 0 0"
    ascent="1536"
    descent="-512"
    x-height="1067"
    cap-height="1532"
    bbox="-551 -870 2642.61 2230"
    underline-thickness="102"
    underline-position="-307"
    slope="-10"
    unicode-range="U+000D-FB02"
  />
<missing-glyph horiz-adv-x="1546" 
d="M1333 0h-1308l270 1532h1309zM737 1268l111 -269l221 269h-332zM383 457l264 305l-145 305zM991 762l139 -289l111 578zM575 264h320l-109 258z" />
    <glyph glyph-name="fi" unicode="fi" horiz-adv-x="1456" 
d="M1305 1614q101 0 160 -72t40 -172q-13 -81 -79 -136.5t-146 -55.5q-101 0 -160.5 70.5t-40.5 168.5q15 82 82 139.5t144 57.5zM846 1606q72 0 133 -11l-57 -317q-18 4 -60 4q-75 0 -131 -44.5t-67 -104.5l-11 -66h234l-60 -319h-231l-131 -748h-375l131 748h-182l57 319
h183l16 82q36 209 188.5 333t362.5 124zM1233 0h-373l189 1067h374z" />
    <glyph glyph-name="f_j" unicode="fj" horiz-adv-x="1456" 
d="M1305 1614q101 0 160 -72t40 -172q-13 -81 -79 -136.5t-146 -55.5q-101 0 -160.5 70.5t-40.5 168.5q15 83 80.5 140t145.5 57zM846 1606q72 0 133 -11l-57 -317q-18 4 -60 4q-75 0 -131 -44.5t-67 -104.5l-11 -66h234l-60 -319h-231l-131 -748h-375l131 748h-182l57 319
h183l16 82q36 209 188.5 333t362.5 124zM1421 1067l-200 -1149q-38 -209 -191.5 -333t-363.5 -124q-74 0 -131 11l55 317q20 -4 61 -4q75 0 131.5 45t65.5 104l201 1133h372z" />
    <glyph glyph-name=".notdef" horiz-adv-x="1546" 
d="M1333 0h-1308l270 1532h1309zM737 1268l111 -269l221 269h-332zM383 457l264 305l-145 305zM991 762l139 -289l111 578zM575 264h320l-109 258z" />
    <glyph glyph-name=".null" horiz-adv-x="0" 
 />
    <glyph glyph-name="nonmarkingreturn" horiz-adv-x="682" 
 />
    <glyph glyph-name="CR" unicode="&#xd;" horiz-adv-x="1228" 
 />
    <glyph glyph-name="space" unicode=" " horiz-adv-x="446" 
 />
    <glyph glyph-name="exclam" unicode="!" horiz-adv-x="716" 
d="M551 500h-395l159 1032h439zM307 412q101 0 161.5 -72t43.5 -170q-15 -83 -80 -138t-145 -55q-101 0 -160.5 71t-40.5 169q13 83 77.5 139t143.5 56z" />
    <glyph glyph-name="quotedbl" unicode="&#x22;" horiz-adv-x="968" 
d="M461 920h-281l80 643h348zM924 920h-281l78 643h350z" />
    <glyph glyph-name="numbersign" unicode="#" horiz-adv-x="1411" 
d="M1317 1180h201l-123 -297h-201l-102 -248h198l-121 -297h-200l-142 -338h-307l139 338h-180l-141 -338h-309l141 338h-197l121 297h199l102 248h-194l121 297h194l148 352h309l-148 -352h183l147 352h307zM705 883l-105 -248h182l103 248h-180z" />
    <glyph glyph-name="dollar" unicode="$" horiz-adv-x="1368" 
d="M1346 1065l-404 -16q10 78 -26 120.5t-113 42.5q-86 0 -140 -38.5t-63 -104.5q-8 -56 34 -87.5t177 -66.5q98 -25 171.5 -52t138 -67t103 -89t55 -117t5.5 -152q-31 -211 -175.5 -324t-356.5 -132l-41 -224h-310l45 244q-196 45 -293.5 171t-68.5 316l403 15
q-12 -87 36 -136t143 -49q94 0 151 33.5t64 100.5q7 55 -43 93.5t-168 67.5q-96 24 -162.5 46.5t-136 60.5t-108 85t-58 119t-6.5 162q28 186 162 314t358 149l39 222h309l-43 -246q174 -48 260.5 -169.5t61.5 -291.5z" />
    <glyph glyph-name="percent" unicode="%" horiz-adv-x="1892" 
d="M586 1554q176 0 269 -116.5t60 -302.5q-29 -169 -143.5 -271t-269.5 -102q-176 0 -270 117.5t-62 302.5q30 170 145 271t271 101zM553 0h-367l1235 1532h369zM571 1296q-113 0 -135 -151q-6 -59 15 -92t65 -33q54 0 88.5 39.5t44.5 114.5q6 59 -14 90.5t-64 31.5z
M1477 770q176 0 269 -116.5t58 -301.5q-29 -170 -143.5 -272.5t-269.5 -102.5q-176 0 -270 118t-62 304q30 168 146 269.5t272 101.5zM1460 512q-114 0 -133 -152q-10 -57 14 -90.5t68 -33.5q110 0 129 153q7 58 -14 90.5t-64 32.5z" />
    <glyph glyph-name="ampersand" unicode="&#x26;" horiz-adv-x="1503" 
d="M1272 -23l-197 183q-206 -183 -475 -183q-145 0 -255 38.5t-172.5 104.5t-88 151t-12.5 182q19 131 88 223.5t190 171.5q-96 134 -76 278q30 210 177 319t370 109q215 0 345 -115.5t134 -312.5l-378 -6q-3 60 -26.5 87.5t-74.5 27.5q-66 0 -107 -36.5t-50 -100.5
q-7 -55 22.5 -99.5t93.5 -103.5l254 -223q47 92 88 211l342 -117q-71 -176 -164 -330l211 -184zM604 311q115 0 221 80l-247 230q-92 -75 -105 -179q-10 -64 25.5 -97.5t105.5 -33.5z" />
    <glyph glyph-name="quotesingle" unicode="'" horiz-adv-x="505" 
d="M461 920h-281l80 643h348z" />
    <glyph glyph-name="parenleft" unicode="(" horiz-adv-x="663" 
d="M477 1526l314 -133q-121 -174 -205.5 -358t-122.5 -402q-71 -398 53 -735l-323 -93q-184 391 -95 873q42 250 141.5 464.5t237.5 383.5z" />
    <glyph glyph-name="parenright" unicode=")" horiz-adv-x="663" 
d="M188 1413l328 92q177 -385 94 -872q-44 -250 -144 -465t-237 -383l-313 133q121 174 206 358t124 402q69 400 -58 735z" />
    <glyph glyph-name="asterisk" unicode="*" horiz-adv-x="798" 
d="M635 1327l242 82l30 -192l-250 -74l117 -191l-176 -123l-98 203l-178 -205l-154 123l180 193l-221 74l96 192l217 -82l39 246h205z" />
    <glyph glyph-name="plus" unicode="+" horiz-adv-x="1122" 
d="M811 926h319l-59 -336h-319l-58 -332h-362l57 332h-319l59 336h320l59 334h362z" />
    <glyph glyph-name="comma" unicode="," horiz-adv-x="552" 
d="M231 412q105 0 155.5 -73.5t29.5 -186.5q-59 -331 -439 -504l5 166q122 66 180 170q-79 19 -121 84t-27 149q14 84 74.5 139.5t142.5 55.5z" />
    <glyph glyph-name="hyphen" unicode="-" horiz-adv-x="835" 
d="M715 362h-654l62 351h653z" />
    <glyph glyph-name="period" unicode="." horiz-adv-x="575" 
d="M236 412q102 0 161.5 -71.5t42.5 -170.5q-13 -82 -79 -137.5t-146 -55.5q-101 0 -160.5 71t-40.5 169q13 82 78 138.5t144 56.5z" />
    <glyph glyph-name="slash" unicode="/" horiz-adv-x="931" 
d="M285 -137h-400l817 1669h400z" />
    <glyph glyph-name="zero" unicode="0" horiz-adv-x="1341" 
d="M797 1554q135 0 242 -53.5t176.5 -157t94.5 -254.5t-3 -346q-26 -184 -89 -330t-153 -241t-201.5 -145t-236.5 -50q-136 0 -243 53.5t-176 157t-94 254.5t3 346q50 365 236 565.5t444 200.5zM784 1204q-116 0 -177.5 -108.5t-96.5 -343.5q-30 -212 0.5 -318t126.5 -106
q116 0 179 109.5t95 342.5q31 209 0.5 316.5t-127.5 107.5z" />
    <glyph glyph-name="one" unicode="1" horiz-adv-x="831" 
d="M600 0h-393l180 1028l-131 -78l-141 316l467 266h288z" />
    <glyph glyph-name="two" unicode="2" horiz-adv-x="1118" 
d="M737 1554q229 0 345 -129.5t81 -343.5q-10 -61 -26.5 -113.5t-44.5 -99.5t-50.5 -80t-65.5 -76.5t-66.5 -65t-75.5 -68.5l-250 -228h448l-63 -350h-973l53 301l498 471q107 101 157.5 177.5t59.5 148.5q12 106 -66 106q-54 0 -79.5 -37.5t-40.5 -117.5l-392 20
q43 239 183 362t368 123z" />
    <glyph glyph-name="three" unicode="3" horiz-adv-x="1177" 
d="M735 1554q247 0 361.5 -133t74.5 -356q-18 -104 -60.5 -167t-121.5 -120q53 -36 83.5 -126.5t8.5 -207.5q-39 -221 -194 -344t-375 -123q-260 0 -380.5 134t-82.5 356l395 -2q-24 -137 91 -137q131 0 155 153q12 64 -15 103t-87 39h-176l59 329h145q61 0 106 33t58 100
q8 55 -10 87t-59 32q-113 0 -146 -151l-385 47q42 220 183.5 337t371.5 117z" />
    <glyph glyph-name="four" unicode="4" horiz-adv-x="1245" 
d="M993 561h211l-61 -350h-211l-37 -211h-336l37 211h-596l57 326l807 995h301zM459 561h198l60 322z" />
    <glyph glyph-name="five" unicode="5" horiz-adv-x="1181" 
d="M625 1182l-31 -195q30 6 70 6q107 0 195.5 -33.5t149.5 -96.5t85.5 -163t3.5 -225q-34 -232 -187.5 -365t-386.5 -133q-247 0 -373.5 125t-99.5 330l395 12q-7 -56 20 -86t81 -30q71 0 109.5 42.5t50.5 127.5q10 67 -15.5 105t-77.5 38q-9 0 -17 -0.5t-16 -2t-13.5 -2
t-13 -3l-10.5 -3.5t-11 -4.5t-9.5 -4t-10 -5t-9.5 -4.5l-375 -2l164 922h930l-62 -350h-536z" />
    <glyph glyph-name="six" unicode="6" horiz-adv-x="1263" 
d="M1315 1532l-465 -537q179 -49 276 -188.5t68 -331.5q-32 -226 -192 -362t-390 -136q-167 0 -295.5 68t-192 193.5t-40.5 283.5q28 191 149 328l601 682h481zM795 516q10 95 -25 138.5t-100 43.5q-78 0 -129 -57q-49 -61 -58 -133q-9 -93 26 -136.5t101 -43.5q80 0 129 56
t56 132z" />
    <glyph glyph-name="seven" unicode="7" horiz-adv-x="1110" 
d="M1165 1214l-737 -1214h-457l736 1182h-555l63 350h1008z" />
    <glyph glyph-name="eight" unicode="8" horiz-adv-x="1277" 
d="M774 1554q156 0 271 -56t170 -163.5t32 -249.5q-25 -164 -145 -278q53 -63 77.5 -155t6.5 -206q-23 -145 -109.5 -252.5t-214.5 -162t-280 -54.5q-166 0 -288.5 62.5t-181 181t-34.5 273.5q37 218 196 346q-80 122 -53 293q32 198 184.5 309.5t368.5 111.5zM754 1204
q-60 0 -101 -38t-47 -99q-6 -113 96 -113q59 0 100.5 37t47.5 99q4 55 -21 84.5t-75 29.5zM672 659q-86 0 -139.5 -48.5t-61.5 -133.5q-6 -71 29 -110t102 -39q85 0 138.5 48.5t60.5 133.5q5 72 -28.5 110.5t-100.5 38.5z" />
    <glyph glyph-name="nine" unicode="9" horiz-adv-x="1263" 
d="M735 1554q125 0 231 -40t177.5 -110t104.5 -172.5t16 -221.5q-28 -189 -150 -328l-598 -682h-483l465 537q-179 49 -276 188.5t-68 331.5q32 226 191.5 361.5t389.5 135.5zM678 834q78 0 129 57q25 32 38 61t19 72q9 93 -26 136.5t-101 43.5q-80 0 -128.5 -55.5
t-55.5 -132.5q-10 -95 25 -138.5t100 -43.5z" />
    <glyph glyph-name="colon" unicode=":" horiz-adv-x="575" 
d="M354 1090q102 0 162 -71.5t43 -170.5q-15 -83 -80 -138t-145 -55q-101 0 -160.5 71t-40.5 169q13 83 77.5 139t143.5 56zM233 412q102 0 162 -71.5t43 -170.5q-13 -82 -79 -137.5t-146 -55.5q-101 0 -160.5 71t-40.5 169q13 83 77.5 139t143.5 56z" />
    <glyph glyph-name="semicolon" unicode=";" horiz-adv-x="575" 
d="M354 1090q102 0 162 -71.5t43 -170.5q-15 -83 -80 -138t-145 -55q-101 0 -160.5 71t-40.5 169q13 83 77.5 139t143.5 56zM252 412q104 0 153.5 -73.5t30.5 -186.5q-31 -162 -136 -287.5t-304 -216.5l4 166q119 64 182 170q-80 19 -121 83.5t-28 149.5q14 84 75.5 139.5
t143.5 55.5z" />
    <glyph glyph-name="less" unicode="&#x3c;" horiz-adv-x="1126" 
d="M1137 920l-310 -164l246 -164l-69 -426l-904 590l1106 587z" />
    <glyph glyph-name="equal" unicode="=" horiz-adv-x="1122" 
d="M1116 840h-1001l61 350h1002zM1026 332h-1001l61 348h1001z" />
    <glyph glyph-name="greater" unicode="&#x3e;" horiz-adv-x="1126" 
d="M1104 756l-1106 -590l70 426l309 164l-246 164l70 423z" />
    <glyph glyph-name="question" unicode="?" horiz-adv-x="1136" 
d="M717 1559q260 0 391.5 -136t89.5 -368q-10 -55 -32 -103.5t-55 -87.5t-65 -68t-75 -61q-22 -16 -65 -44.5t-63 -43.5t-40.5 -41.5t-26.5 -56.5l-8 -49h-395l12 80q8 49 31.5 96t59.5 88t68 70.5t74 62.5q15 11 58.5 42.5t61 46t38 42.5t25.5 57q10 59 -21 91t-86 32
q-72 0 -119.5 -45.5t-62.5 -126.5l-387 37q44 222 205.5 354t386.5 132zM524 412q101 0 161.5 -72t43.5 -170q-15 -83 -80 -138t-145 -55q-101 0 -160.5 71t-40.5 169q13 83 77.5 139t143.5 56z" />
    <glyph glyph-name="at" unicode="@" horiz-adv-x="1628" 
d="M907 1241q218 0 375.5 -99.5t226.5 -272t39 -386.5q-30 -211 -126.5 -312t-247.5 -101t-222 80q-93 -84 -223 -84q-189 0 -297.5 129.5t-79.5 328.5q26 187 142.5 300.5t281.5 113.5q150 0 232 -82l14 49h268l-106 -616q-5 -26 7 -41t38 -15q54 0 106 77.5t72 217.5
q17 121 -11 227.5t-91.5 182t-162 119t-218.5 43.5q-132 0 -255 -48t-217 -130t-157.5 -196t-81.5 -243q-19 -130 12 -238.5t101 -180t171 -111t222 -39.5q176 0 342 88l67 -139q-172 -88 -401 -88q-219 0 -379.5 94t-234 266t-41.5 393q21 152 96 285t186 226.5
t254.5 147.5t298.5 54zM760 315q71 0 118.5 45.5t59.5 122.5l4 27q11 80 -24.5 128t-104.5 48q-68 0 -113.5 -45t-58.5 -129q-15 -89 19.5 -143t99.5 -54z" />
    <glyph glyph-name="A" unicode="A" horiz-adv-x="1687" 
d="M1585 0h-434l-64 242h-589l-148 -242h-434l938 1532h334zM686 549h322l-97 371z" />
    <glyph glyph-name="B" unicode="B" horiz-adv-x="1470" 
d="M311 1532h670q107 0 193 -32t143.5 -91.5t80 -150t3.5 -201.5q-14 -87 -56.5 -144t-117.5 -116q68 -37 108 -132t17 -227q-38 -212 -189.5 -325t-386.5 -113h-735zM645 1182l-43 -232h232q144 0 163 117q12 57 -17.5 86t-92.5 29h-242zM545 614l-47 -264h272
q166 0 188 133q9 64 -25.5 97.5t-109.5 33.5h-278z" />
    <glyph glyph-name="C" unicode="C" horiz-adv-x="1714" 
d="M1012 1554q299 0 488.5 -161.5t195.5 -434.5l-412 -30q-10 138 -87 207t-204 69q-185 0 -309 -127t-154 -334q-29 -201 59 -308t247 -107q144 0 248 73.5t151 212.5l407 -45q-54 -182 -175 -317t-282.5 -205t-342.5 -70q-178 0 -321 56.5t-238 159.5t-135 256t-13 339
q33 236 158.5 411.5t311 265t407.5 89.5z" />
    <glyph glyph-name="D" unicode="D" horiz-adv-x="1648" 
d="M311 1532h611q167 0 305.5 -55t232 -154.5t131 -249t4.5 -328.5q-65 -360 -295 -552.5t-571 -192.5h-688zM647 1192l-151 -852h262q182 0 301.5 111t152.5 331q57 410 -309 410h-256z" />
    <glyph glyph-name="E" unicode="E" horiz-adv-x="1245" 
d="M1253 1182h-608l-41 -230h522l-61 -342h-522l-45 -260h612l-63 -350h-1006l270 1532h1004z" />
    <glyph glyph-name="F" unicode="F" horiz-adv-x="1212" 
d="M1253 1182h-608l-39 -224h486l-62 -350h-487l-107 -608h-395l270 1532h1004z" />
    <glyph glyph-name="G" unicode="G" horiz-adv-x="1726" 
d="M938 872h750l-21 -139q-50 -342 -272 -549t-553 -207q-178 0 -321 56.5t-238 159.5t-135 256t-13 339q33 236 158.5 411.5t311.5 265t409 89.5q279 0 459 -140.5t215 -387.5l-408 -45q-39 223 -279 223q-195 0 -316.5 -116t-154.5 -345q-30 -210 53.5 -312.5
t260.5 -102.5q110 0 198.5 48t143.5 146h-297z" />
    <glyph glyph-name="H" unicode="H" horiz-adv-x="1572" 
d="M1343 0h-395l109 606h-514l-107 -606h-395l270 1532h396l-103 -576h514l101 576h395z" />
    <glyph glyph-name="I" unicode="I" horiz-adv-x="665" 
d="M436 0h-395l270 1532h396z" />
    <glyph glyph-name="J" unicode="J" horiz-adv-x="1300" 
d="M1352 1532l-168 -963q-52 -283 -224 -437.5t-432 -154.5q-257 0 -390.5 154.5t-104.5 413.5l399 16q-12 -122 15 -177.5t108 -55.5q87 0 149 65.5t84 179.5l168 959h396z" />
    <glyph glyph-name="K" unicode="K" horiz-adv-x="1533" 
d="M1051 909l362 -909h-422l-239 608l-248 -246l-68 -362h-395l270 1532h396l-105 -574l539 574h514z" />
    <glyph glyph-name="L" unicode="L" horiz-adv-x="1210" 
d="M498 350h608l-62 -350h-1003l270 1532h396z" />
    <glyph glyph-name="M" unicode="M" horiz-adv-x="1984" 
d="M1755 0h-395l113 645l-439 -625h-260l-221 644l-117 -664h-395l270 1532h336l342 -932l668 932h368z" />
    <glyph glyph-name="N" unicode="N" horiz-adv-x="1583" 
d="M1354 0h-338l-438 803l-142 -803h-395l270 1532h336l438 -807l144 807h395z" />
    <glyph glyph-name="O" unicode="O" horiz-adv-x="1802" 
d="M995 1554q180 0 329.5 -58.5t249.5 -163.5t147.5 -257t27.5 -332q-24 -231 -141.5 -405.5t-303 -267.5t-413.5 -93q-181 0 -330.5 58.5t-250 163.5t-148 257t-27.5 332q24 231 141 405.5t303.5 267.5t415.5 93zM989 1204q-197 0 -320 -125t-137 -336q-12 -194 87 -304.5
t276 -110.5q197 0 320 124.5t137 335.5q12 194 -87 305t-276 111z" />
    <glyph glyph-name="P" unicode="P" horiz-adv-x="1388" 
d="M311 1532h647q115 0 210 -38t158.5 -107t91 -171t9.5 -223q-30 -231 -180.5 -357t-384.5 -126h-336l-90 -510h-395zM645 1182l-57 -324h256q75 0 124.5 41.5t61.5 122.5q11 70 -23 115t-106 45h-256z" />
    <glyph glyph-name="Q" unicode="Q" horiz-adv-x="1814" 
d="M995 1554q180 0 329.5 -58.5t249.5 -163.5t147.5 -257t27.5 -332q-26 -266 -182 -458l149 -176l-291 -259l-168 199q-170 -72 -366 -72q-181 0 -330.5 58.5t-250 163.5t-148 257t-27.5 332q24 231 141 405.5t303.5 267.5t415.5 93zM1143 784l164 -192q39 89 45 196
q12 194 -87 305t-276 111q-197 0 -320 -125t-137 -336q-12 -194 87 -304.5t276 -110.5q63 0 115 12l-158 186z" />
    <glyph glyph-name="R" unicode="R" horiz-adv-x="1474" 
d="M1421 993q-59 -324 -311 -432l201 -561h-414l-180 512h-191l-90 -512h-395l270 1532h639q115 0 210 -38t159 -107t91.5 -171t10.5 -223zM588 862h250q74 0 122.5 41t61.5 121q11 69 -22.5 113.5t-104.5 44.5h-250z" />
    <glyph glyph-name="S" unicode="S" horiz-adv-x="1368" 
d="M799 1554q278 0 428 -133.5t119 -355.5l-404 -16q10 78 -26 120.5t-113 42.5q-86 0 -140 -38.5t-63 -104.5q-8 -56 34 -87.5t177 -66.5q98 -25 171.5 -52t138 -67t103 -89t55 -117t5.5 -152q-17 -119 -73.5 -209.5t-141 -144.5t-185 -80.5t-216.5 -26.5
q-194 0 -333.5 59.5t-207 176t-43.5 276.5l403 15q-12 -87 36 -136t143 -49q94 0 151 33.5t64 100.5q7 55 -43 93.5t-168 67.5q-96 24 -162.5 46.5t-136 60.5t-108 85t-58 119t-6.5 162q14 97 59.5 180.5t119 148t182 101.5t239.5 37z" />
    <glyph glyph-name="T" unicode="T" horiz-adv-x="1433" 
d="M1507 1182h-479l-209 -1182h-393l209 1182h-479l61 350h1352z" />
    <glyph glyph-name="U" unicode="U" horiz-adv-x="1607" 
d="M1657 1532l-156 -893q-59 -318 -257.5 -490t-510.5 -172q-323 0 -481.5 185.5t-101.5 501.5l151 868h395l-157 -881q-55 -323 221 -323q149 0 236 88t114 246l152 870h395z" />
    <glyph glyph-name="V" unicode="V" horiz-adv-x="1652" 
d="M899 0h-334l-375 1532h412l217 -920l541 920h455z" />
    <glyph glyph-name="W" unicode="W" horiz-adv-x="2312" 
d="M1669 0h-334l-125 844l-424 -844h-331l-265 1532h412l117 -877l430 877h324l118 -877l428 877h455z" />
    <glyph glyph-name="X" unicode="X" horiz-adv-x="1533" 
d="M1081 760l326 -760h-440l-201 492l-363 -492h-473l602 809l-296 723h438l174 -471l336 471h475z" />
    <glyph glyph-name="Y" unicode="Y" horiz-adv-x="1589" 
d="M1004 561l-105 -561h-395l104 561l-411 971h442l211 -580l430 580h473z" />
    <glyph glyph-name="Z" unicode="Z" horiz-adv-x="1292" 
d="M1325 1233l-760 -883h627l-62 -350h-1146l53 299l758 883h-602l61 350h1124z" />
    <glyph glyph-name="bracketleft" unicode="[" horiz-adv-x="681" 
d="M752 1161h-168l-176 -1009h165l-53 -310h-540l286 1628h541z" />
    <glyph glyph-name="backslash" unicode="\" horiz-adv-x="931" 
d="M799 -137h-381l-228 1669h381z" />
    <glyph glyph-name="bracketright" unicode="]" horiz-adv-x="681" 
d="M461 -158h-541l53 310h166l178 1009h-165l55 309h541z" />
    <glyph glyph-name="asciicircum" unicode="^" horiz-adv-x="1271" 
d="M1257 760h-415l-113 235l-209 -235h-434l723 813z" />
    <glyph glyph-name="underscore" unicode="_" horiz-adv-x="1413" 
d="M1165 -350h-1228l61 350h1229z" />
    <glyph glyph-name="grave" unicode="`" horiz-adv-x="587" 
d="M698 1229h-282l-211 391h413z" />
    <glyph glyph-name="a" unicode="a" horiz-adv-x="1159" 
d="M668 1090q208 0 318.5 -118.5t74.5 -320.5l-115 -651h-346l12 66q-106 -89 -276 -89q-154 0 -237.5 92.5t-55.5 252.5q12 71 45.5 124t78 84.5t108 52t122.5 29t135 11.5l148 4l14 61q8 38 -11 65t-60 27q-57 0 -82.5 -27.5t-34.5 -72.5l-365 27q26 153 173 268t354 115z
M645 410l-88 -4q-63 -3 -101 -26.5t-44 -64.5q-6 -65 71 -65q58 0 101 34t55 95z" />
    <glyph glyph-name="b" unicode="b" horiz-adv-x="1355" 
d="M688 1591l-113 -577q90 76 238 76q159 0 272 -74t162 -206t25 -300q-33 -243 -182.5 -388t-380.5 -145q-101 0 -180 30t-115 71l-27 -78h-352l280 1591h373zM727 770q-93 0 -151 -57.5t-72 -159.5l-6 -33q-10 -102 38 -162.5t138 -60.5q92 0 152 57.5t73 163.5
q15 117 -34.5 184.5t-137.5 67.5z" />
    <glyph glyph-name="c" unicode="c" horiz-adv-x="1230" 
d="M682 1090q212 0 348.5 -117t143.5 -311l-363 -27q0 65 -35 100t-96 35q-91 0 -149.5 -68.5t-77.5 -191.5q-12 -101 29 -157t114 -56q72 0 121 37t67 94l361 -39q-54 -193 -204 -302.5t-343 -109.5q-258 0 -402.5 157.5t-111.5 422.5q30 248 195.5 390.5t402.5 142.5z" />
    <glyph glyph-name="d" unicode="d" horiz-adv-x="1355" 
d="M1135 0h-349l7 63q-100 -86 -250 -86q-159 0 -272 74t-162 206t-25 300q33 242 182.5 387.5t380.5 145.5q102 0 177 -25t102 -57l112 583h375zM682 770q-92 0 -152 -57.5t-73 -163.5q-15 -117 34.5 -184.5t137.5 -67.5q93 0 152 57.5t71 159.5l6 33q10 102 -38 162.5
t-138 60.5z" />
    <glyph glyph-name="e" unicode="e" horiz-adv-x="1234" 
d="M682 1090q246 0 377 -147t98 -402l-16 -109h-680q-8 -76 27.5 -122t111.5 -46q100 0 141 84l375 -24q-48 -163 -193 -255t-329 -92q-265 0 -406 158.5t-104 421.5q35 247 198 390t400 143zM676 815q-73 0 -119.5 -45t-62.5 -119h301q9 81 -22.5 122.5t-96.5 41.5z" />
    <glyph glyph-name="f" unicode="f" horiz-adv-x="825" 
d="M846 1606q72 0 133 -11l-57 -317q-18 4 -60 4q-75 0 -131 -44.5t-67 -104.5l-11 -66h234l-60 -319h-231l-131 -748h-375l131 748h-182l57 319h183l16 82q36 209 188.5 333t362.5 124z" />
    <glyph glyph-name="g" unicode="g" horiz-adv-x="1331" 
d="M647 1090q100 0 179 -30.5t116 -70.5l27 78h352l-195 -1106q-40 -232 -209 -368t-419 -136q-133 0 -233.5 31.5t-160.5 88.5t-88 132t-24 166l364 10q-4 -57 33 -84.5t113 -27.5q99 0 166 49.5t86 136.5l16 86q-76 -68 -227 -68q-159 0 -272 74t-162 206t-25 300
q33 242 182.5 387.5t380.5 145.5zM682 770q-92 0 -152 -57.5t-73 -163.5q-15 -117 34.5 -184.5t137.5 -67.5q93 0 151 57.5t72 159.5l4 33q12 102 -36 162.5t-138 60.5z" />
    <glyph glyph-name="h" unicode="h" horiz-adv-x="1280" 
d="M688 1591l-110 -575q97 74 235 74q202 0 302.5 -117.5t64.5 -319.5l-115 -653h-373l103 580q13 80 -16.5 120.5t-86.5 40.5q-151 0 -182 -174l-102 -567h-373l280 1591h373z" />
    <glyph glyph-name="i" unicode="i" 
d="M479 1614q101 0 160.5 -72t40.5 -172q-13 -81 -79 -136.5t-146 -55.5q-101 0 -160.5 70.5t-40.5 168.5q15 82 81.5 139.5t143.5 57.5zM408 0h-373l188 1067h375z" />
    <glyph glyph-name="j" unicode="j" 
d="M479 1614q101 0 160.5 -72t40.5 -172q-13 -81 -79 -136.5t-146 -55.5q-101 0 -160.5 70.5t-40.5 168.5q15 83 80 140t145 57zM596 1067l-201 -1149q-38 -209 -191.5 -333t-363.5 -124q-74 0 -131 11l55 317q20 -4 62 -4q75 0 131.5 45t65.5 104l200 1133h373z" />
    <glyph glyph-name="k" unicode="k" horiz-adv-x="1247" 
d="M535 739l327 328h459l-469 -453l274 -614h-401l-152 348l-118 -106l-47 -242h-373l280 1591h373z" />
    <glyph glyph-name="l" unicode="l" 
d="M408 0h-373l280 1591h373z" />
    <glyph glyph-name="m" unicode="m" horiz-adv-x="1898" 
d="M1442 1090q200 0 298 -118t60 -323l-114 -649h-373l102 580q26 161 -94 161q-76 0 -119.5 -47t-54.5 -133v4l-100 -565h-373l102 580q26 161 -94 161q-76 0 -117 -44t-57 -130l-100 -567h-373l188 1067h344l-10 -61q87 84 246 84q225 0 317 -146q129 146 322 146z" />
    <glyph glyph-name="n" unicode="n" horiz-adv-x="1277" 
d="M813 1090q202 0 302.5 -117.5t64.5 -319.5l-115 -653h-373l103 580q13 80 -16.5 120.5t-86.5 40.5q-151 0 -182 -174l-102 -567h-373l188 1067h344l-12 -63q86 86 258 86z" />
    <glyph glyph-name="o" unicode="o" horiz-adv-x="1316" 
d="M692 1090q130 0 237.5 -42.5t179.5 -118t105.5 -184t18.5 -235.5q-16 -159 -99.5 -281t-216 -187t-292.5 -65q-130 0 -237.5 42.5t-179.5 118t-105.5 184t-18.5 235.5q16 159 99.5 281t216 187t292.5 65zM696 770q-104 0 -169.5 -70t-71.5 -190q-3 -102 40.5 -157.5
t125.5 -55.5q103 0 168.5 70t72.5 190q3 102 -40.5 157.5t-125.5 55.5z" />
    <glyph glyph-name="p" unicode="p" horiz-adv-x="1355" 
d="M813 1090q159 0 272 -74t162 -206t25 -300q-33 -243 -182.5 -388t-380.5 -145q-102 0 -177 25t-102 57l-115 -581h-372l278 1589h348l-6 -63q100 86 250 86zM727 770q-93 0 -152 -57.5t-71 -159.5l-6 -33q-10 -102 38 -162.5t138 -60.5q92 0 152 57.5t73 163.5
q15 117 -34.5 184.5t-137.5 67.5z" />
    <glyph glyph-name="q" unicode="q" horiz-adv-x="1355" 
d="M647 1090q100 0 179 -30.5t116 -70.5l27 78h352l-281 -1589h-374l114 575q-90 -76 -237 -76q-159 0 -272 74t-162 206t-25 300q33 242 182.5 387.5t380.5 145.5zM682 770q-92 0 -152 -57.5t-73 -163.5q-15 -117 34.5 -184.5t137.5 -67.5q93 0 151 57.5t72 159.5l4 33
q12 102 -36 162.5t-138 60.5z" />
    <glyph glyph-name="r" unicode="r" horiz-adv-x="823" 
d="M862 1077l-59 -360q-122 0 -206 -64.5t-101 -167.5l-88 -485h-373l188 1067h350l-12 -82q99 92 301 92z" />
    <glyph glyph-name="s" unicode="s" horiz-adv-x="1044" 
d="M567 1090q217 0 327.5 -102t104.5 -253l-370 -8q7 45 -13.5 72.5t-60.5 27.5q-76 0 -86 -67q-4 -37 31.5 -57t120.5 -41q84 -21 143.5 -46t108.5 -64t69 -96t10 -132q-24 -160 -148.5 -253.5t-332.5 -93.5q-227 0 -341 92.5t-103 256.5l368 12q-9 -46 12.5 -72t75.5 -26
q42 0 67 17.5t30 47.5q3 31 -23.5 57t-99.5 46q-105 28 -164.5 50.5t-115 61.5t-73.5 98.5t-6 145.5q22 153 147 239.5t322 86.5z" />
    <glyph glyph-name="t" unicode="t" horiz-adv-x="886" 
d="M623 748l-58 -314q-10 -64 23.5 -93.5t85.5 -29.5q39 0 102 11l-55 -334q-90 -11 -168 -11q-206 0 -307 100t-66 288l70 383h-193l58 319h194l64 344h372l-63 -344h227l-57 -319h-229z" />
    <glyph glyph-name="u" unicode="u" horiz-adv-x="1247" 
d="M1024 0h-338l6 61q-87 -84 -248 -84q-198 0 -291 111t-59 309l119 670h373l-103 -596q-13 -76 9 -110.5t79 -34.5q139 0 164 151l105 590h372z" />
    <glyph glyph-name="v" unicode="v" horiz-adv-x="1226" 
d="M668 0h-297l-275 1067h396l102 -532l293 532h432z" />
    <glyph glyph-name="w" unicode="w" horiz-adv-x="1765" 
d="M1257 0h-296l-93 449l-252 -449h-297l-223 1067h396l65 -526l270 526h263l81 -526l254 526h433z" />
    <glyph glyph-name="x" unicode="x" horiz-adv-x="1181" 
d="M834 524l229 -524h-401l-111 270l-199 -270h-432l424 545l-227 522h395l109 -272l208 272h431z" />
    <glyph glyph-name="y" unicode="y" horiz-adv-x="1224" 
d="M352 -522h-415l399 653l-240 936h412l106 -532l289 532h416z" />
    <glyph glyph-name="z" unicode="z" horiz-adv-x="942" 
d="M911 821l-442 -520h360l-51 -301h-801l43 246l445 520h-346l53 301h782z" />
    <glyph glyph-name="braceleft" unicode="{" horiz-adv-x="684" 
d="M809 1470l-55 -309q-87 0 -128 -53.5t-51 -194.5q-1 -48 -5 -79.5t-16 -67t-33 -56.5t-58 -36t-90 -19q196 -13 110 -301q-16 -55 -23 -87.5t-7.5 -57.5t11.5 -36t31.5 -16t55.5 -5h24l-53 -310q-123 0 -218.5 32t-157 97t-72.5 163t35 231q41 87 44 103q3 26 -28 32
q-22 4 -72 4h-28l53 305h4q95 0 124 37t27 149q-7 121 32.5 213.5t116 149t177.5 84.5t225 28h25z" />
    <glyph glyph-name="bar" unicode="|" 
d="M385 -137h-375l295 1669h375z" />
    <glyph glyph-name="braceright" unicode="}" horiz-adv-x="684" 
d="M152 1161l55 309q123 0 218 -32t156.5 -96.5t72 -162.5t-35.5 -231q-41 -87 -44 -103q-3 -26 28 -32q21 -4 72 -4h28l-53 -305h-4q-95 0 -124 -37.5t-27 -149.5q7 -121 -32.5 -213.5t-115 -149t-176.5 -84.5t-225 -28h-25l53 310q87 0 128 53.5t53 195.5q1 47 4.5 79
t16 66.5t33.5 56t59 37t91 19.5q-200 11 -114 299q17 56 24 88.5t7.5 57.5t-11.5 36t-32 16t-56 5h-24z" />
    <glyph glyph-name="asciitilde" unicode="~" horiz-adv-x="1124" 
d="M1018 989l141 -268q-176 -191 -358 -191q-59 0 -113 17.5t-88.5 38t-79 38t-84.5 17.5q-78 0 -137 -26t-115 -85l-137 269q172 190 356 190q60 0 115 -17t89 -38t77.5 -38t83.5 -17q78 0 137 26t113 84z" />
    <glyph glyph-name="exclamdown" unicode="&#xa1;" horiz-adv-x="716" 
d="M406 612q-101 0 -161.5 72t-41.5 170q13 82 78.5 137.5t144.5 55.5q102 0 161 -70.5t42 -169.5q-15 -83 -79 -139t-144 -56zM162 524h395l-160 -1032h-438z" />
    <glyph glyph-name="cent" unicode="&#xa2;" horiz-adv-x="1230" 
d="M596 297q72 0 121 37t67 94l361 -39q-49 -170 -171.5 -275.5t-287.5 -129.5l-41 -226h-309l47 254q-162 58 -243.5 200.5t-55.5 344.5q26 216 157 353.5t328 170.5l37 203h309l-41 -225q134 -45 214 -149t86 -248l-363 -27q0 65 -35 100t-96 35q-91 0 -149.5 -68.5
t-77.5 -191.5q-12 -101 29 -157t114 -56z" />
    <glyph glyph-name="sterling" unicode="&#xa3;" horiz-adv-x="1181" 
d="M1235 1102l-393 -12q9 56 -10 85t-58 29q-52 0 -84 -39t-37 -108l-10 -150h279l-56 -309h-248q-10 -91 -38 -151t-80 -105l614 8l-61 -350h-1098l45 324q114 12 170 78t76 196h-180l55 309h151l7 88q21 278 149 418.5t383 140.5q221 0 337.5 -120.5t86.5 -331.5z" />
    <glyph glyph-name="currency" unicode="&#xa4;" horiz-adv-x="1249" 
d="M1016 494q-14 -73 -47 -148l180 -211l-264 -235l-191 221q-56 -15 -119 -15q-80 0 -147 25l-264 -231l-205 235l270 236q-15 78 0 168q10 67 50 145l-187 217l268 234l191 -224q63 17 115 17q74 0 147 -27l268 234l203 -234l-270 -239q18 -75 2 -168zM524 502
q-21 -133 62 -133q104 0 133 161q9 63 -6.5 98.5t-57.5 35.5q-102 0 -131 -162z" />
    <glyph glyph-name="yen" unicode="&#xa5;" horiz-adv-x="1589" 
d="M1137 733h155l-41 -231h-258l-20 -105h262l-43 -229h-262l-31 -168h-395l31 168h-267l43 229h267l20 105h-268l39 231h166l-338 799h442l211 -580l430 580h473z" />
    <glyph glyph-name="brokenbar" unicode="&#xa6;" 
d="M565 879h-375l115 653h375zM385 -137h-375l117 653h375z" />
    <glyph glyph-name="section" unicode="&#xa7;" horiz-adv-x="1101" 
d="M711 1108q88 -19 145.5 -36t114.5 -44t87 -60t44.5 -82.5t5.5 -113.5q-11 -83 -56.5 -140.5t-123.5 -103.5q100 -81 78 -243q-21 -151 -155 -246.5t-347 -95.5q-247 0 -369.5 98t-95.5 262l371 6q-7 -47 14 -77.5t74 -30.5q63 0 98.5 25t40.5 69q1 16 -2 25.5t-17.5 23
t-50 26t-94.5 25.5q-109 25 -176.5 47.5t-129 60t-85 94.5t-12.5 136q13 85 59.5 142.5t126.5 101.5q-100 81 -78 244q22 150 150 241.5t331 91.5q238 0 355 -93t96 -249l-371 -6q5 39 -14 64.5t-63 25.5q-109 0 -115 -82q-2 -17 1.5 -27.5t18 -25t50.5 -27.5t94 -26z
M635 631q57 30 89.5 60.5t39.5 78.5q7 36 -32 53.5t-163 45.5q-14 3 -22 5q-30 -16 -48 -27.5t-38.5 -28.5t-31 -37.5t-13.5 -45.5q-6 -37 36.5 -55t182.5 -49z" />
    <glyph glyph-name="dieresis" unicode="&#xa8;" horiz-adv-x="856" 
d="M360 1583q94 0 149 -65t38 -154q-13 -73 -71 -122.5t-130 -49.5q-92 0 -145.5 64t-36.5 155q12 73 68.5 122.5t127.5 49.5zM809 1583q93 0 148 -64.5t40 -154.5q-15 -74 -72.5 -123t-129.5 -49q-92 0 -145 64t-38 155q12 73 69.5 122.5t127.5 49.5z" />
    <glyph glyph-name="copyright" unicode="&#xa9;" horiz-adv-x="1234" 
d="M754 1561q167 0 293 -73t184.5 -200t36.5 -282q-31 -219 -203 -360.5t-406 -141.5q-127 0 -232.5 43.5t-173.5 118.5t-99 178t-15 219q34 219 206 358.5t409 139.5zM758 1436q-183 0 -315.5 -110t-157.5 -284q-26 -180 77.5 -295.5t292.5 -115.5q180 0 312 110t157 287
q26 179 -76.5 293.5t-289.5 114.5zM725 1358q127 0 208.5 -66.5t84.5 -177.5l-205 -10q-3 38 -26 57t-56 19q-57 0 -92.5 -42t-46.5 -122q-8 -60 18 -90.5t70 -30.5q85 0 113 82l208 -21q-33 -112 -118.5 -175.5t-192.5 -63.5q-152 0 -238 94.5t-63 249.5q20 139 112.5 218
t223.5 79z" />
    <glyph glyph-name="ordfeminine" unicode="&#xaa;" horiz-adv-x="956" 
d="M627 1550q199 0 294.5 -91.5t63.5 -262.5l-92 -522h-313l8 45q-87 -64 -211 -64q-140 0 -210.5 65.5t-53.5 190.5q9 59 37.5 103.5t67.5 72t95.5 46.5t112 27.5t127.5 13.5l98 8l6 41q3 32 -10 50.5t-41 18.5q-36 0 -58.5 -20t-27.5 -53l-325 10q10 59 45 115.5
t88.5 102.5t131.5 74.5t167 28.5zM616 999l-71 -10q-78 -10 -86 -57q-4 -23 10.5 -34t42.5 -11q36 0 63 17.5t33 49.5z" />
    <glyph glyph-name="guillemotleft" unicode="&#xab;" horiz-adv-x="1253" 
d="M705 836l-267 -332l133 -299l-301 -172l-241 510l387 493zM1288 836l-266 -332l133 -299l-301 -172l-242 510l387 493z" />
    <glyph glyph-name="logicalnot" unicode="&#xac;" horiz-adv-x="1292" 
d="M1176 279h-291l73 399h-872l51 289h1161z" />
    <glyph glyph-name="registered" unicode="&#xae;" horiz-adv-x="1234" 
d="M754 1561q167 0 293 -73t184.5 -200t36.5 -282q-31 -219 -203 -360.5t-406 -141.5q-127 0 -232.5 43.5t-173.5 118.5t-99 178t-15 219q34 219 206 358.5t409 139.5zM1124 1028q26 179 -76.5 293.5t-289.5 114.5q-183 0 -315.5 -110t-157.5 -284q-26 -180 77.5 -295.5
t292.5 -115.5q180 0 312 110t157 287zM506 1350h295q96 0 147.5 -65.5t32.5 -170.5q-18 -117 -111 -166l64 -225h-215l-51 199h-33l-37 -199h-203zM662 1083h43q66 0 77 52q5 23 -7 37t-40 14h-53z" />
    <glyph glyph-name="macron" unicode="&#xaf;" horiz-adv-x="677" 
d="M795 1247h-660l51 287h660z" />
    <glyph glyph-name="degree" unicode="&#xb0;" horiz-adv-x="808" 
d="M555 1552q168 0 259.5 -91t64.5 -240l-7 -45q-27 -148 -131.5 -228t-251.5 -80q-168 0 -258 91t-63 241l8 45q27 149 128.5 228t250.5 79zM547 1327q-98 0 -119 -100l-6 -31q-10 -48 11.5 -75t64.5 -27q48 0 82 28t41 78l4 27q14 100 -78 100z" />
    <glyph glyph-name="plusminus" unicode="&#xb1;" horiz-adv-x="1122" 
d="M854 1169h320l-60 -338h-319l-58 -331h-362l57 331h-319l61 338h318l59 332h362zM979 59h-1002l62 351h1001z" />
    <glyph glyph-name="acute" unicode="&#xb4;" horiz-adv-x="587" 
d="M426 1229h-299l219 391h430z" />
    <glyph glyph-name="paragraph" unicode="&#xb6;" horiz-adv-x="1509" 
d="M1608 1257h-144l-245 -1394h-289l246 1394h-152l-248 -1394h-287l156 878h-94q-204 0 -310.5 110t-70.5 310q33 185 163 278t335 93h989z" />
    <glyph glyph-name="periodcentered" unicode="&#xb7;" horiz-adv-x="616" 
d="M342 915q101 0 161.5 -71.5t41.5 -169.5q-13 -82 -78.5 -137.5t-144.5 -55.5q-102 0 -161 70.5t-42 169.5q13 83 78 138.5t145 55.5z" />
    <glyph glyph-name="cedilla" unicode="&#xb8;" horiz-adv-x="561" 
d="M248 29l-70 -113q100 -3 166 -66t47 -172q-18 -98 -108 -150t-201 -52q-137 0 -221 43l63 166q21 -15 76 -15q111 0 123 62q4 25 -11 44t-36 19q-40 0 -101 -18l119 252h154z" />
    <glyph glyph-name="ordmasculine" unicode="&#xba;" horiz-adv-x="1058" 
d="M666 1550q217 0 339 -132.5t91 -338.5q-26 -192 -164.5 -308t-335.5 -116q-219 0 -341 131.5t-91 339.5q26 191 166 307.5t336 116.5zM662 1268q-69 0 -114.5 -50t-53.5 -133q-4 -70 23.5 -107.5t82.5 -37.5q70 0 116 48.5t52 129.5q6 72 -22 111t-84 39z" />
    <glyph glyph-name="guillemotright" unicode="&#xbb;" horiz-adv-x="1253" 
d="M647 526l-389 -493l-287 200l267 332l-134 299l299 172zM1229 526l-387 -493l-287 200l264 332l-133 299l301 172z" />
    <glyph glyph-name="onequarter" unicode="&#xbc;" horiz-adv-x="1581" 
d="M373 0h-389l1280 1532h389zM465 659h-285l76 449l-66 -33l-88 244l332 182h178zM1450 346h68l-45 -252h-66l-16 -94h-285l14 94h-317l41 221l420 527h274zM1098 346h67l23 113z" />
    <glyph glyph-name="onehalf" unicode="&#xbd;" horiz-adv-x="1665" 
d="M373 0h-389l1280 1532h389zM465 659h-285l76 449l-66 -33l-88 244l332 182h178zM1380 856q147 0 209.5 -86t42.5 -215q-9 -74 -44.5 -125.5t-104.5 -118.5l-58 -57h150l-45 -254h-590l33 197l321 290q44 41 54 91q3 24 -7 24q-14 0 -22 -35l-277 17q25 126 116.5 199
t221.5 73z" />
    <glyph glyph-name="threequarters" unicode="&#xbe;" horiz-adv-x="1726" 
d="M520 0h-389l1280 1532h389zM485 1513q152 0 222 -78t45 -212q-7 -49 -28 -80.5t-67 -65.5q25 -22 39.5 -70t3.5 -110q-21 -121 -107 -187.5t-208 -66.5q-156 0 -229.5 78.5t-49.5 198.5l287 10q-9 -33 4 -33q10 0 18.5 17.5t8.5 41.5q-3 17 -14 17h-103l39 221h76
q18 0 39 21t20 49q0 4 -8 4t-18 -13t-11 -30l-268 24q40 264 309 264zM1597 346h68l-45 -252h-66l-16 -94h-285l15 94h-318l41 221l420 527h275zM1245 346h68l22 113z" />
    <glyph glyph-name="questiondown" unicode="&#xbf;" horiz-adv-x="1136" 
d="M614 655q-101 0 -161 72t-41 170q13 83 78 138t145 55q101 0 160.5 -71t42.5 -169q-15 -83 -79.5 -139t-144.5 -56zM422 -492q-259 0 -390.5 135.5t-90.5 366.5q10 56 32 104.5t55 88t65 68.5t75 61q22 16 65 44.5t63 43.5t40.5 41.5t25.5 56.5l9 49h395l-12 -80
q-8 -49 -31.5 -96t-60 -88t-68.5 -70.5t-74 -62.5q-14 -11 -58.5 -42.5t-61 -46t-37 -42.5t-25.5 -57q-10 -59 20.5 -92t85.5 -33q72 0 120 46.5t63 127.5l387 -37q-44 -222 -205.5 -354t-386.5 -132z" />
    <glyph glyph-name="Agrave" unicode="&#xc0;" horiz-adv-x="1687" 
d="M1202 1628h-328l-350 332h500zM1585 0h-434l-64 242h-589l-148 -242h-434l938 1532h334zM686 549h322l-97 371z" />
    <glyph glyph-name="Aacute" unicode="&#xc1;" horiz-adv-x="1687" 
d="M1225 1628h-344l295 332h516zM1585 0h-434l-64 242h-589l-148 -242h-434l938 1532h334zM686 549h322l-97 371z" />
    <glyph glyph-name="Acircumflex" unicode="&#xc2;" horiz-adv-x="1687" 
d="M1466 1628h-301l-75 135l-136 -135h-319l295 348h362zM1585 0h-434l-64 242h-589l-148 -242h-434l938 1532h334zM686 549h322l-97 371z" />
    <glyph glyph-name="Atilde" unicode="&#xc3;" horiz-adv-x="1687" 
d="M954 1995q49 0 86 -16t55 -34.5t43.5 -34.5t53.5 -16q98 0 111 84h202q6 -153 -84.5 -258.5t-210.5 -105.5q-50 0 -87 16t-55 35t-43 35t-52 16q-101 0 -111 -90h-203q-6 154 85 261.5t210 107.5zM1585 0h-434l-64 242h-589l-148 -242h-434l938 1532h334zM686 549h322
l-97 371z" />
    <glyph glyph-name="Adieresis" unicode="&#xc4;" horiz-adv-x="1687" 
d="M866 2007q94 0 149 -65t38 -154q-12 -74 -69 -123t-130 -49q-92 0 -145.5 64t-38.5 155q12 72 69.5 122t126.5 50zM1317 2007q93 0 147 -64.5t39 -154.5q-12 -74 -69.5 -123t-130.5 -49q-92 0 -146 64t-39 155q14 72 71.5 122t127.5 50zM1585 0h-434l-64 242h-589
l-148 -242h-434l938 1532h334zM686 549h322l-97 371z" />
    <glyph glyph-name="Aring" unicode="&#xc5;" horiz-adv-x="1687" 
d="M1108 2087q115 0 182 -72.5t47 -181.5q-15 -92 -89.5 -150.5t-168.5 -58.5q-117 0 -183.5 73.5t-47.5 182.5q17 92 91 149.5t169 57.5zM1100 1927q-29 0 -49.5 -16.5t-26.5 -46.5q-6 -33 12 -55.5t51 -22.5q30 0 51 17t25 46q6 35 -11.5 56.5t-51.5 21.5zM1585 0h-434
l-64 242h-589l-148 -242h-434l938 1532h334zM686 549h322l-97 371z" />
    <glyph glyph-name="AE" unicode="&#xc6;" horiz-adv-x="2154" 
d="M1554 1182l-41 -230h523l-62 -342h-522l-45 -260h612l-63 -350h-1006l27 154h-447l-133 -154h-491l1311 1532h1007l-61 -350h-609zM1032 459l66 370l-314 -370h248z" />
    <glyph glyph-name="Ccedilla" unicode="&#xc7;" horiz-adv-x="1714" 
d="M836 328q144 0 248 73.5t151 212.5l407 -45q-54 -182 -175 -317t-282.5 -205t-342.5 -70h-15l-45 -71q100 -3 166 -66t47 -172q-18 -98 -108 -150.5t-201 -52.5q-137 0 -221 43l63 166q20 -14 76 -14q111 0 123 61q4 25 -11 44.5t-36 19.5q-39 0 -100 -18l104 223
q-293 47 -444 258.5t-105 539.5q33 236 158.5 411.5t311 265t407.5 89.5q299 0 488.5 -161.5t195.5 -434.5l-412 -30q-10 138 -87 207t-204 69q-185 0 -309 -127t-154 -334q-29 -201 59 -308t247 -107z" />
    <glyph glyph-name="Egrave" unicode="&#xc8;" horiz-adv-x="1245" 
d="M989 1628h-327l-351 332h500zM1253 1182h-608l-41 -230h522l-61 -342h-522l-45 -260h612l-63 -350h-1006l270 1532h1004z" />
    <glyph glyph-name="Eacute" unicode="&#xc9;" horiz-adv-x="1245" 
d="M1010 1628h-344l295 332h516zM1253 1182h-608l-41 -230h522l-61 -342h-522l-45 -260h612l-63 -350h-1006l270 1532h1004z" />
    <glyph glyph-name="Ecircumflex" unicode="&#xca;" horiz-adv-x="1245" 
d="M1251 1628h-301l-76 135l-135 -135h-319l295 348h362zM1253 1182h-608l-41 -230h522l-61 -342h-522l-45 -260h612l-63 -350h-1006l270 1532h1004z" />
    <glyph glyph-name="Edieresis" unicode="&#xcb;" horiz-adv-x="1245" 
d="M651 2007q94 0 149 -65t38 -154q-12 -74 -69 -123t-130 -49q-92 0 -145.5 64t-38.5 155q12 72 69.5 122t126.5 50zM1102 2007q93 0 147 -64.5t39 -154.5q-12 -74 -70 -123t-131 -49q-92 0 -145.5 64t-38.5 155q14 72 71.5 122t127.5 50zM1253 1182h-608l-41 -230h522
l-61 -342h-522l-45 -260h612l-63 -350h-1006l270 1532h1004z" />
    <glyph glyph-name="Igrave" unicode="&#xcc;" horiz-adv-x="665" 
d="M688 1628h-328l-350 332h500zM436 0h-395l270 1532h396z" />
    <glyph glyph-name="Iacute" unicode="&#xcd;" horiz-adv-x="665" 
d="M709 1628h-344l294 332h517zM436 0h-395l270 1532h396z" />
    <glyph glyph-name="Icircumflex" unicode="&#xce;" horiz-adv-x="665" 
d="M950 1628h-301l-76 135l-135 -135h-319l295 348h362zM436 0h-395l270 1532h396z" />
    <glyph glyph-name="Idieresis" unicode="&#xcf;" horiz-adv-x="665" 
d="M352 2007q94 0 149 -65t38 -154q-12 -74 -69 -123t-130 -49q-92 0 -145.5 64t-38.5 155q12 72 69.5 122t126.5 50zM803 2007q93 0 147 -64.5t39 -154.5q-12 -74 -70 -123t-131 -49q-92 0 -145.5 64t-38.5 155q14 72 71.5 122t127.5 50zM436 0h-395l270 1532h396z" />
    <glyph glyph-name="Eth" unicode="&#xd0;" horiz-adv-x="1662" 
d="M311 1532h611q167 0 305.5 -55t232 -154.5t131 -249t4.5 -328.5q-65 -360 -295 -552.5t-571 -192.5h-688l109 614h-113l51 301h115zM1212 782q57 410 -309 410h-256l-49 -277h203l-51 -301h-205l-49 -274h262q182 0 301.5 111t152.5 331z" />
    <glyph glyph-name="Ntilde" unicode="&#xd1;" horiz-adv-x="1583" 
d="M889 1995q49 0 86 -16t55 -34.5t43 -34.5t53 -16q98 0 111 84h203q6 -153 -84.5 -258.5t-210.5 -105.5q-50 0 -87.5 16t-55.5 35t-43 35t-52 16q-100 0 -110 -90h-203q-6 154 85 261.5t210 107.5zM1354 0h-338l-438 803l-142 -803h-395l270 1532h336l438 -807l144 807
h395z" />
    <glyph glyph-name="Ograve" unicode="&#xd2;" horiz-adv-x="1802" 
d="M1247 1628h-327l-351 332h500zM995 1554q180 0 329.5 -58.5t249.5 -163.5t147.5 -257t27.5 -332q-24 -231 -141.5 -405.5t-303 -267.5t-413.5 -93q-181 0 -330.5 58.5t-250 163.5t-148 257t-27.5 332q24 231 141 405.5t303.5 267.5t415.5 93zM989 1204q-197 0 -320 -125
t-137 -336q-12 -194 87 -304.5t276 -110.5q197 0 320 124.5t137 335.5q12 194 -87 305t-276 111z" />
    <glyph glyph-name="Oacute" unicode="&#xd3;" horiz-adv-x="1802" 
d="M1268 1628h-344l295 332h516zM995 1554q180 0 329.5 -58.5t249.5 -163.5t147.5 -257t27.5 -332q-24 -231 -141.5 -405.5t-303 -267.5t-413.5 -93q-181 0 -330.5 58.5t-250 163.5t-148 257t-27.5 332q24 231 141 405.5t303.5 267.5t415.5 93zM989 1204q-197 0 -320 -125
t-137 -336q-12 -194 87 -304.5t276 -110.5q197 0 320 124.5t137 335.5q12 194 -87 305t-276 111z" />
    <glyph glyph-name="Ocircumflex" unicode="&#xd4;" horiz-adv-x="1802" 
d="M1509 1628h-301l-75 135l-136 -135h-319l295 348h362zM995 1554q180 0 329.5 -58.5t249.5 -163.5t147.5 -257t27.5 -332q-24 -231 -141.5 -405.5t-303 -267.5t-413.5 -93q-181 0 -330.5 58.5t-250 163.5t-148 257t-27.5 332q24 231 141 405.5t303.5 267.5t415.5 93z
M989 1204q-197 0 -320 -125t-137 -336q-12 -194 87 -304.5t276 -110.5q197 0 320 124.5t137 335.5q12 194 -87 305t-276 111z" />
    <glyph glyph-name="Otilde" unicode="&#xd5;" horiz-adv-x="1802" 
d="M999 1995q49 0 86 -16t55 -34.5t43.5 -34.5t53.5 -16q98 0 111 84h202q6 -153 -84.5 -258.5t-210.5 -105.5q-50 0 -87 16t-55 35t-43 35t-52 16q-101 0 -111 -90h-202q-6 154 84.5 261.5t209.5 107.5zM995 1554q180 0 329.5 -58.5t249.5 -163.5t147.5 -257t27.5 -332
q-24 -231 -141.5 -405.5t-303 -267.5t-413.5 -93q-181 0 -330.5 58.5t-250 163.5t-148 257t-27.5 332q24 231 141 405.5t303.5 267.5t415.5 93zM989 1204q-197 0 -320 -125t-137 -336q-12 -194 87 -304.5t276 -110.5q197 0 320 124.5t137 335.5q12 194 -87 305t-276 111z
" />
    <glyph glyph-name="Odieresis" unicode="&#xd6;" horiz-adv-x="1802" 
d="M911 2007q94 0 149 -65t38 -154q-12 -74 -69 -123t-130 -49q-92 0 -145.5 64t-38.5 155q12 72 69.5 122t126.5 50zM1362 2007q93 0 147 -64.5t39 -154.5q-12 -74 -69.5 -123t-130.5 -49q-92 0 -146 64t-39 155q14 72 71.5 122t127.5 50zM995 1554q180 0 329.5 -58.5
t249.5 -163.5t147.5 -257t27.5 -332q-24 -231 -141.5 -405.5t-303 -267.5t-413.5 -93q-181 0 -330.5 58.5t-250 163.5t-148 257t-27.5 332q24 231 141 405.5t303.5 267.5t415.5 93zM989 1204q-197 0 -320 -125t-137 -336q-12 -194 87 -304.5t276 -110.5q197 0 320 124.5
t137 335.5q12 194 -87 305t-276 111z" />
    <glyph glyph-name="multiply" unicode="&#xd7;" horiz-adv-x="1157" 
d="M1165 1008l-301 -256l209 -252l-272 -236l-209 250l-299 -256l-223 256l301 256l-209 254l272 238l207 -254l299 256z" />
    <glyph glyph-name="Oslash" unicode="&#xd8;" horiz-adv-x="1802" 
d="M1798 1473l-180 -193q165 -218 131 -537q-24 -231 -141.5 -405.5t-303 -267.5t-413.5 -93q-227 0 -408 93l-176 -189l-221 185l178 188q-163 218 -129 534q24 231 141 405.5t303.5 267.5t415.5 93q225 0 404 -92l180 193zM532 743q-6 -100 19 -182l584 621
q-68 22 -146 22q-197 0 -320 -125t-137 -336zM1352 788q6 99 -21 187l-583 -623q64 -24 147 -24q197 0 320 124.5t137 335.5z" />
    <glyph glyph-name="Ugrave" unicode="&#xd9;" horiz-adv-x="1607" 
d="M1149 1628h-328l-350 332h500zM1657 1532l-156 -893q-59 -318 -257.5 -490t-510.5 -172q-323 0 -481.5 185.5t-101.5 501.5l151 868h395l-157 -881q-55 -323 221 -323q149 0 236 88t114 246l152 870h395z" />
    <glyph glyph-name="Uacute" unicode="&#xda;" horiz-adv-x="1607" 
d="M1169 1628h-344l295 332h516zM1657 1532l-156 -893q-59 -318 -257.5 -490t-510.5 -172q-323 0 -481.5 185.5t-101.5 501.5l151 868h395l-157 -881q-55 -323 221 -323q149 0 236 88t114 246l152 870h395z" />
    <glyph glyph-name="Ucircumflex" unicode="&#xdb;" horiz-adv-x="1607" 
d="M1411 1628h-301l-76 135l-135 -135h-319l294 348h363zM1657 1532l-156 -893q-59 -318 -257.5 -490t-510.5 -172q-323 0 -481.5 185.5t-101.5 501.5l151 868h395l-157 -881q-55 -323 221 -323q149 0 236 88t114 246l152 870h395z" />
    <glyph glyph-name="Udieresis" unicode="&#xdc;" horiz-adv-x="1607" 
d="M811 2007q94 0 148.5 -65t37.5 -154q-12 -74 -68.5 -123t-129.5 -49q-92 0 -146 64t-39 155q12 72 70 122t127 50zM1262 2007q93 0 147 -64.5t39 -154.5q-12 -74 -70 -123t-131 -49q-92 0 -145.5 64t-38.5 155q14 72 71.5 122t127.5 50zM1657 1532l-156 -893
q-59 -318 -257.5 -490t-510.5 -172q-323 0 -481.5 185.5t-101.5 501.5l151 868h395l-157 -881q-55 -323 221 -323q149 0 236 88t114 246l152 870h395z" />
    <glyph glyph-name="Yacute" unicode="&#xdd;" horiz-adv-x="1589" 
d="M1159 1628h-344l295 332h516zM1004 561l-105 -561h-395l104 561l-411 971h442l211 -580l430 580h473z" />
    <glyph glyph-name="Thorn" unicode="&#xde;" horiz-adv-x="1370" 
d="M674 1350h272q235 0 354.5 -144.5t77.5 -390.5q-41 -232 -196.5 -360.5t-388.5 -128.5h-299l-58 -326h-395l270 1532h396zM612 999l-55 -323h223q73 0 129.5 51t71.5 135q24 137 -121 137h-248z" />
    <glyph glyph-name="germandbls" unicode="&#xdf;" horiz-adv-x="1380" 
d="M811 1608q252 0 386.5 -111.5t100.5 -290.5q-8 -48 -27.5 -86.5t-42.5 -62t-49.5 -47t-49 -42t-40.5 -46.5t-24 -62q-6 -35 10.5 -66.5t45 -55.5t61.5 -57t59.5 -70.5t38 -95t-1.5 -130.5q-23 -129 -103.5 -221t-193 -136t-246.5 -44q-136 0 -239 36l98 302
q66 -27 125 -27q72 0 127 34t69 111q6 36 -10 73t-44 67t-60.5 66.5t-60 71t-41 82t-3.5 97.5q9 50 33 86t53 56.5t58 38.5t51.5 43.5t28.5 60.5q9 51 -21.5 83.5t-93.5 32.5q-82 0 -135 -52.5t-68 -143.5l-194 -1102h-375l203 1137q38 221 192.5 346t382.5 125z" />
    <glyph glyph-name="agrave" unicode="&#xe0;" horiz-adv-x="1159" 
d="M834 1229h-283l-211 391h414zM668 1090q208 0 318.5 -118.5t74.5 -320.5l-115 -651h-346l12 66q-106 -89 -276 -89q-154 0 -237.5 92.5t-55.5 252.5q12 71 45.5 124t78 84.5t108 52t122.5 29t135 11.5l148 4l14 61q8 38 -11 65t-60 27q-57 0 -82.5 -27.5t-34.5 -72.5
l-365 27q26 153 173 268t354 115zM645 410l-88 -4q-63 -3 -101 -26.5t-44 -64.5q-6 -65 71 -65q58 0 101 34t55 95z" />
    <glyph glyph-name="aacute" unicode="&#xe1;" horiz-adv-x="1159" 
d="M848 1229h-299l219 391h430zM668 1090q208 0 318.5 -118.5t74.5 -320.5l-115 -651h-346l12 66q-106 -89 -276 -89q-154 0 -237.5 92.5t-55.5 252.5q12 71 45.5 124t78 84.5t108 52t122.5 29t135 11.5l148 4l14 61q8 38 -11 65t-60 27q-57 0 -82.5 -27.5t-34.5 -72.5
l-365 27q26 153 173 268t354 115zM645 410l-88 -4q-63 -3 -101 -26.5t-44 -64.5q-6 -65 71 -65q58 0 101 34t55 95z" />
    <glyph glyph-name="acircumflex" unicode="&#xe2;" horiz-adv-x="1159" 
d="M1114 1229h-301l-76 133l-135 -133h-319l301 373h362zM668 1090q208 0 318.5 -118.5t74.5 -320.5l-115 -651h-346l12 66q-106 -89 -276 -89q-154 0 -237.5 92.5t-55.5 252.5q12 71 45.5 124t78 84.5t108 52t122.5 29t135 11.5l148 4l14 61q8 38 -11 65t-60 27
q-57 0 -82.5 -27.5t-34.5 -72.5l-365 27q26 153 173 268t354 115zM645 410l-88 -4q-63 -3 -101 -26.5t-44 -64.5q-6 -65 71 -65q58 0 101 34t55 95z" />
    <glyph glyph-name="atilde" unicode="&#xe3;" horiz-adv-x="1159" 
d="M606 1589q40 0 71.5 -10.5t51 -25t36 -29t36.5 -25t43 -10.5q97 0 110 84h203q6 -153 -84.5 -258t-210.5 -105q-50 0 -87 16t-55 34.5t-43 34.5t-52 16q-101 0 -111 -90h-203q-3 77 21 146t65.5 117.5t96.5 76.5t112 28zM668 1090q208 0 318.5 -118.5t74.5 -320.5
l-115 -651h-346l12 66q-106 -89 -276 -89q-154 0 -237.5 92.5t-55.5 252.5q12 71 45.5 124t78 84.5t108 52t122.5 29t135 11.5l148 4l14 61q8 38 -11 65t-60 27q-57 0 -82.5 -27.5t-34.5 -72.5l-365 27q26 153 173 268t354 115zM645 410l-88 -4q-63 -3 -101 -26.5t-44 -64.5
q-6 -65 71 -65q58 0 101 34t55 95z" />
    <glyph glyph-name="adieresis" unicode="&#xe4;" horiz-adv-x="1159" 
d="M512 1583q94 0 148.5 -65t37.5 -154q-14 -74 -71 -123t-129 -49q-92 0 -146 64t-37 155q12 73 69 122.5t128 49.5zM961 1583q93 0 148 -64.5t40 -154.5q-15 -74 -73 -123t-130 -49q-92 0 -144.5 64t-37.5 155q12 73 69.5 122.5t127.5 49.5zM668 1090q208 0 318.5 -118.5
t74.5 -320.5l-115 -651h-346l12 66q-106 -89 -276 -89q-154 0 -237.5 92.5t-55.5 252.5q12 71 45.5 124t78 84.5t108 52t122.5 29t135 11.5l148 4l14 61q8 38 -11 65t-60 27q-57 0 -82.5 -27.5t-34.5 -72.5l-365 27q26 153 173 268t354 115zM645 410l-88 -4
q-63 -3 -101 -26.5t-44 -64.5q-6 -65 71 -65q58 0 101 34t55 95z" />
    <glyph glyph-name="aring" unicode="&#xe5;" horiz-adv-x="1159" 
d="M762 1716q132 0 210 -84t56 -207q-20 -109 -107.5 -178t-197.5 -69q-133 0 -211 84.5t-55 210.5q19 106 106 174.5t199 68.5zM752 1526q-30 0 -53 -20.5t-31 -51.5q-8 -36 12.5 -61t58.5 -25q30 0 52 20t30 52q8 38 -11.5 62t-57.5 24zM668 1090q208 0 318.5 -118.5
t74.5 -320.5l-115 -651h-346l12 66q-106 -89 -276 -89q-154 0 -237.5 92.5t-55.5 252.5q12 71 45.5 124t78 84.5t108 52t122.5 29t135 11.5l148 4l14 61q8 38 -11 65t-60 27q-57 0 -82.5 -27.5t-34.5 -72.5l-365 27q26 153 173 268t354 115zM645 410l-88 -4
q-63 -3 -101 -26.5t-44 -64.5q-6 -65 71 -65q58 0 101 34t55 95z" />
    <glyph glyph-name="ae" unicode="&#xe6;" horiz-adv-x="1806" 
d="M1264 1090q247 0 378.5 -147.5t96.5 -401.5l-17 -109h-678q-9 -75 27 -121.5t111 -46.5q100 0 141 84l375 -24q-46 -162 -191.5 -254.5t-330.5 -92.5q-254 0 -394 146q-177 -146 -379 -146q-199 0 -294 90t-66 255q12 71 45.5 124t78 84.5t108 52t122.5 29t135 11.5
l146 4l10 39l6 22q8 38 -11 65t-60 27q-57 0 -82.5 -27t-34.5 -73l-365 27q12 73 54 141.5t105.5 122.5t153 86.5t189.5 32.5q182 0 293 -91q142 91 328 91zM1257 815q-140 0 -180 -164h301q10 80 -22 122t-99 42zM645 410l-86 -4q-132 -6 -147 -93q-4 -31 14.5 -47
t56.5 -16q47 0 97 38t57 83z" />
    <glyph glyph-name="ccedilla" unicode="&#xe7;" horiz-adv-x="1230" 
d="M596 297q72 0 121 37t67 94l361 -39q-54 -193 -204 -302.5t-343 -109.5h-10l-43 -69q100 -3 166 -66t47 -172q-18 -98 -108 -150t-201 -52q-138 0 -222 43l64 165q20 -14 76 -14q110 0 122 62q4 25 -11 44t-36 19q-39 0 -100 -18l104 225q-192 42 -291.5 191t-70.5 372
q30 248 195.5 390.5t402.5 142.5q212 0 348.5 -117t143.5 -311l-363 -27q0 65 -35 100t-96 35q-91 0 -149.5 -68.5t-77.5 -191.5q-12 -101 29 -157t114 -56z" />
    <glyph glyph-name="egrave" unicode="&#xe8;" horiz-adv-x="1234" 
d="M596 1229l-211 391h414l80 -391h-283zM682 1090q246 0 377 -147t98 -402l-16 -109h-680q-8 -76 27.5 -122t111.5 -46q100 0 141 84l375 -24q-48 -163 -193 -255t-329 -92q-265 0 -406 158.5t-104 421.5q35 247 198 390t400 143zM676 815q-73 0 -119.5 -45t-62.5 -119h301
q9 81 -22.5 122.5t-96.5 41.5z" />
    <glyph glyph-name="eacute" unicode="&#xe9;" horiz-adv-x="1234" 
d="M893 1229h-299l219 391h430zM682 1090q246 0 377 -147t98 -402l-16 -109h-680q-8 -76 27.5 -122t111.5 -46q100 0 141 84l375 -24q-48 -163 -193 -255t-329 -92q-265 0 -406 158.5t-104 421.5q35 247 198 390t400 143zM676 815q-73 0 -119.5 -45t-62.5 -119h301
q9 81 -22.5 122.5t-96.5 41.5z" />
    <glyph glyph-name="ecircumflex" unicode="&#xea;" horiz-adv-x="1234" 
d="M647 1229h-319l301 373h362l168 -373h-301l-76 133zM682 1090q246 0 377 -147t98 -402l-16 -109h-680q-8 -76 27.5 -122t111.5 -46q100 0 141 84l375 -24q-48 -163 -193 -255t-329 -92q-265 0 -406 158.5t-104 421.5q35 247 198 390t400 143zM676 815q-73 0 -119.5 -45
t-62.5 -119h301q9 81 -22.5 122.5t-96.5 41.5z" />
    <glyph glyph-name="edieresis" unicode="&#xeb;" horiz-adv-x="1234" 
d="M543 1192q-92 0 -146 64t-37 155q12 73 69 122.5t128 49.5q94 0 148.5 -65t37.5 -154q-14 -74 -71 -123t-129 -49zM1006 1583q93 0 148 -64.5t40 -154.5q-15 -74 -73 -123t-130 -49q-92 0 -144.5 64t-37.5 155q12 73 69.5 122.5t127.5 49.5zM682 1090q246 0 377 -147
t98 -402l-16 -109h-680q-8 -76 27.5 -122t111.5 -46q100 0 141 84l375 -24q-48 -163 -193 -255t-329 -92q-265 0 -406 158.5t-104 421.5q35 247 198 390t400 143zM676 815q-73 0 -119.5 -45t-62.5 -119h301q9 81 -22.5 122.5t-96.5 41.5z" />
    <glyph glyph-name="igrave" unicode="&#xec;" 
d="M578 1229h-283l-211 391h414zM408 0h-373l188 1067h375z" />
    <glyph glyph-name="iacute" unicode="&#xed;" 
d="M590 1229h-299l219 391h430zM408 0h-373l188 1067h375z" />
    <glyph glyph-name="icircumflex" unicode="&#xee;" 
d="M858 1229h-301l-76 133l-135 -133h-319l301 373h362zM408 0h-373l188 1067h375z" />
    <glyph glyph-name="idieresis" unicode="&#xef;" 
d="M254 1583q94 0 148.5 -65t37.5 -154q-14 -74 -71 -123t-129 -49q-92 0 -146 64t-37 155q12 73 69 122.5t128 49.5zM702 1583q93 0 148.5 -64.5t40.5 -154.5q-15 -74 -73 -123t-130 -49q-92 0 -144.5 64t-37.5 155q12 73 69 122.5t127 49.5zM408 0h-373l188 1067h375z" />
    <glyph glyph-name="eth" unicode="&#xf0;" horiz-adv-x="1249" 
d="M1178 565l-2 -12l-2 -10q-50 -276 -203 -421t-400 -145q-113 0 -212 36.5t-170.5 102.5t-103.5 168.5t-11 225.5q26 148 110 257t201.5 162.5t253.5 53.5q95 0 197 -31q-12 113 -56 191l-131 -117l-149 164l104 94q-73 29 -184 35l22 272q238 0 408 -86l166 150l155 -160
l-143 -129q117 -134 155 -340.5t-5 -460.5zM588 279q89 0 145 59t72 151q15 96 -27 149.5t-125 53.5q-87 0 -149.5 -64.5t-69.5 -166.5q-7 -87 34 -134.5t120 -47.5z" />
    <glyph glyph-name="ntilde" unicode="&#xf1;" horiz-adv-x="1277" 
d="M690 1589q40 0 71.5 -10.5t51 -25t36 -29t36.5 -25t43 -10.5q97 0 110 84h203q6 -153 -84.5 -258t-210.5 -105q-50 0 -87 16t-55 34.5t-43 34.5t-52 16q-101 0 -111 -90h-203q-3 77 21 146t65.5 117.5t96.5 76.5t112 28zM813 1090q202 0 302.5 -117.5t64.5 -319.5
l-115 -653h-373l103 580q13 80 -16.5 120.5t-86.5 40.5q-151 0 -182 -174l-102 -567h-373l188 1067h344l-12 -63q86 86 258 86z" />
    <glyph glyph-name="ograve" unicode="&#xf2;" horiz-adv-x="1316" 
d="M893 1229h-283l-211 391h414zM692 1090q130 0 237.5 -42.5t179.5 -118t105.5 -184t18.5 -235.5q-16 -159 -99.5 -281t-216 -187t-292.5 -65q-130 0 -237.5 42.5t-179.5 118t-105.5 184t-18.5 235.5q16 159 99.5 281t216 187t292.5 65zM696 770q-104 0 -169.5 -70
t-71.5 -190q-3 -102 40.5 -157.5t125.5 -55.5q103 0 168.5 70t72.5 190q3 102 -40.5 157.5t-125.5 55.5z" />
    <glyph glyph-name="oacute" unicode="&#xf3;" horiz-adv-x="1316" 
d="M907 1229h-299l219 391h430zM692 1090q130 0 237.5 -42.5t179.5 -118t105.5 -184t18.5 -235.5q-16 -159 -99.5 -281t-216 -187t-292.5 -65q-130 0 -237.5 42.5t-179.5 118t-105.5 184t-18.5 235.5q16 159 99.5 281t216 187t292.5 65zM696 770q-104 0 -169.5 -70
t-71.5 -190q-3 -102 40.5 -157.5t125.5 -55.5q103 0 168.5 70t72.5 190q3 102 -40.5 157.5t-125.5 55.5z" />
    <glyph glyph-name="ocircumflex" unicode="&#xf4;" horiz-adv-x="1316" 
d="M1174 1229h-302l-75 133l-135 -133h-320l301 373h363zM692 1090q130 0 237.5 -42.5t179.5 -118t105.5 -184t18.5 -235.5q-16 -159 -99.5 -281t-216 -187t-292.5 -65q-130 0 -237.5 42.5t-179.5 118t-105.5 184t-18.5 235.5q16 159 99.5 281t216 187t292.5 65zM696 770
q-104 0 -169.5 -70t-71.5 -190q-3 -102 40.5 -157.5t125.5 -55.5q103 0 168.5 70t72.5 190q3 102 -40.5 157.5t-125.5 55.5z" />
    <glyph glyph-name="otilde" unicode="&#xf5;" horiz-adv-x="1316" 
d="M664 1589q40 0 71.5 -10.5t50.5 -25t35.5 -29t36.5 -25t43 -10.5q98 0 111 84h202q6 -153 -84 -258t-210 -105q-50 0 -87.5 16t-55.5 34.5t-43 34.5t-52 16q-101 0 -111 -90h-202q-3 77 21 146t65.5 117.5t96.5 76.5t112 28zM692 1090q130 0 237.5 -42.5t179.5 -118
t105.5 -184t18.5 -235.5q-16 -159 -99.5 -281t-216 -187t-292.5 -65q-130 0 -237.5 42.5t-179.5 118t-105.5 184t-18.5 235.5q16 159 99.5 281t216 187t292.5 65zM696 770q-104 0 -169.5 -70t-71.5 -190q-3 -102 40.5 -157.5t125.5 -55.5q103 0 168.5 70t72.5 190
q3 102 -40.5 157.5t-125.5 55.5z" />
    <glyph glyph-name="odieresis" unicode="&#xf6;" horiz-adv-x="1316" 
d="M571 1583q94 0 149 -65t38 -154q-13 -73 -71 -122.5t-130 -49.5q-92 0 -145.5 64t-36.5 155q12 73 68.5 122.5t127.5 49.5zM1020 1583q93 0 148 -64.5t40 -154.5q-15 -74 -72.5 -123t-129.5 -49q-92 0 -145 64t-38 155q12 73 69.5 122.5t127.5 49.5zM692 1090
q130 0 237.5 -42.5t179.5 -118t105.5 -184t18.5 -235.5q-16 -159 -99.5 -281t-216 -187t-292.5 -65q-130 0 -237.5 42.5t-179.5 118t-105.5 184t-18.5 235.5q16 159 99.5 281t216 187t292.5 65zM696 770q-104 0 -169.5 -70t-71.5 -190q-3 -102 40.5 -157.5t125.5 -55.5
q103 0 168.5 70t72.5 190q3 102 -40.5 157.5t-125.5 55.5z" />
    <glyph glyph-name="divide" unicode="&#xf7;" horiz-adv-x="1122" 
d="M707 1511q101 0 161 -71.5t41 -169.5q-13 -82 -78.5 -137.5t-144.5 -55.5q-102 0 -161 70.5t-42 169.5q13 83 78.5 138.5t145.5 55.5zM1071 588h-1001l61 350h1002zM520 446q101 0 160.5 -70.5t42.5 -168.5q-13 -82 -80 -138.5t-147 -56.5q-101 0 -158.5 71.5
t-40.5 170.5q13 82 78 137t145 55z" />
    <glyph glyph-name="oslash" unicode="&#xf8;" horiz-adv-x="1316" 
d="M1253 997l-106 -114q113 -154 86 -373q-16 -159 -99.5 -281t-216 -187t-292.5 -65q-146 0 -263 54l-129 -142l-188 152l127 139q-115 156 -88 377q16 159 99.5 281t216 187t292.5 65q151 0 269 -56l104 115zM455 510v-25l260 285h-19q-104 0 -169.5 -70t-71.5 -190z
M862 557v16l-254 -276h13q103 0 168.5 70t72.5 190z" />
    <glyph glyph-name="ugrave" unicode="&#xf9;" horiz-adv-x="1247" 
d="M877 1229h-283l-211 391h414zM1024 0h-338l6 61q-87 -84 -248 -84q-198 0 -291 111t-59 309l119 670h373l-103 -596q-13 -76 9 -110.5t79 -34.5q139 0 164 151l105 590h372z" />
    <glyph glyph-name="uacute" unicode="&#xfa;" horiz-adv-x="1247" 
d="M891 1229h-299l219 391h430zM1024 0h-338l6 61q-87 -84 -248 -84q-198 0 -291 111t-59 309l119 670h373l-103 -596q-13 -76 9 -110.5t79 -34.5q139 0 164 151l105 590h372z" />
    <glyph glyph-name="ucircumflex" unicode="&#xfb;" horiz-adv-x="1247" 
d="M1157 1229h-301l-76 133l-135 -133h-319l301 373h362zM1024 0h-338l6 61q-87 -84 -248 -84q-198 0 -291 111t-59 309l119 670h373l-103 -596q-13 -76 9 -110.5t79 -34.5q139 0 164 151l105 590h372z" />
    <glyph glyph-name="udieresis" unicode="&#xfc;" horiz-adv-x="1247" 
d="M555 1583q94 0 148.5 -65t37.5 -154q-14 -74 -71 -123t-129 -49q-92 0 -146 64t-37 155q12 73 69 122.5t128 49.5zM1004 1583q93 0 148 -64.5t40 -154.5q-15 -74 -73 -123t-130 -49q-92 0 -144.5 64t-37.5 155q12 73 69.5 122.5t127.5 49.5zM1024 0h-338l6 61
q-87 -84 -248 -84q-198 0 -291 111t-59 309l119 670h373l-103 -596q-13 -76 9 -110.5t79 -34.5q139 0 164 151l105 590h372z" />
    <glyph glyph-name="yacute" unicode="&#xfd;" horiz-adv-x="1224" 
d="M874 1229h-299l220 391h430zM352 -522h-415l399 653l-240 936h412l106 -532l289 532h416z" />
    <glyph glyph-name="thorn" unicode="&#xfe;" horiz-adv-x="1355" 
d="M688 1591l-110 -569q46 31 114.5 49.5t141.5 18.5q240 0 362 -164t76 -420q-43 -240 -200.5 -384.5t-379.5 -144.5q-172 0 -262 82l-115 -581h-372l372 2113h373zM737 770q-94 0 -154 -57t-79 -158l-6 -33q-15 -104 31 -164.5t137 -60.5q92 0 153 57.5t80 163.5
q20 116 -27 184t-135 68z" />
    <glyph glyph-name="ydieresis" unicode="&#xff;" horiz-adv-x="1224" 
d="M539 1583q94 0 148.5 -65t37.5 -154q-13 -73 -71 -122.5t-130 -49.5q-92 0 -145.5 64t-36.5 155q12 73 69 122.5t128 49.5zM987 1583q93 0 148.5 -64.5t40.5 -154.5q-15 -74 -73 -123t-130 -49q-92 0 -144.5 64t-37.5 155q12 73 69 122.5t127 49.5zM352 -522h-415
l399 653l-240 936h412l106 -532l289 532h416z" />
    <glyph glyph-name="Amacron" unicode="&#x100;" horiz-adv-x="1687" 
d="M1384 1645h-659l51 284h660zM1585 0h-434l-64 242h-589l-148 -242h-434l938 1532h334zM686 549h322l-97 371z" />
    <glyph glyph-name="amacron" unicode="&#x101;" horiz-adv-x="1159" 
d="M1036 1247h-659l51 287h659zM668 1090q208 0 318.5 -118.5t74.5 -320.5l-115 -651h-346l12 66q-106 -89 -276 -89q-154 0 -237.5 92.5t-55.5 252.5q12 71 45.5 124t78 84.5t108 52t122.5 29t135 11.5l148 4l14 61q8 38 -11 65t-60 27q-57 0 -82.5 -27.5t-34.5 -72.5
l-365 27q26 153 173 268t354 115zM645 410l-88 -4q-63 -3 -101 -26.5t-44 -64.5q-6 -65 71 -65q58 0 101 34t55 95z" />
    <glyph glyph-name="Abreve" unicode="&#x102;" horiz-adv-x="1687" 
d="M1235 1999h297q-32 -193 -153 -286t-300 -93q-199 0 -304.5 99.5t-72.5 279.5h299q-10 -64 17 -93.5t78 -29.5q54 0 91 36t48 87zM1585 0h-434l-64 242h-589l-148 -242h-434l938 1532h334zM686 549h322l-97 371z" />
    <glyph glyph-name="abreve" unicode="&#x103;" horiz-adv-x="1159" 
d="M883 1585h297q-22 -132 -88 -218.5t-157 -123.5t-208 -37q-197 0 -303.5 101t-73.5 278h299q-10 -63 17 -93t75 -30q56 0 93 36t49 87zM668 1090q208 0 318.5 -118.5t74.5 -320.5l-115 -651h-346l12 66q-106 -89 -276 -89q-154 0 -237.5 92.5t-55.5 252.5q12 71 45.5 124
t78 84.5t108 52t122.5 29t135 11.5l148 4l14 61q8 38 -11 65t-60 27q-57 0 -82.5 -27.5t-34.5 -72.5l-365 27q26 153 173 268t354 115zM645 410l-88 -4q-63 -3 -101 -26.5t-44 -64.5q-6 -65 71 -65q58 0 101 34t55 95z" />
    <glyph glyph-name="Aogonek" unicode="&#x104;" horiz-adv-x="1687" 
d="M1331 -203q41 0 101 29l28 -188q-84 -35 -182 -35q-135 0 -210 59t-56 172q16 104 137 174l-62 234h-589l-148 -242h-434l938 1532h334l397 -1532h-131q-77 -44 -116.5 -79t-47.5 -81q-6 -43 41 -43zM1008 549l-97 371l-225 -371h322z" />
    <glyph glyph-name="aogonek" unicode="&#x105;" horiz-adv-x="1159" 
d="M668 1090q208 0 318.5 -118.5t74.5 -320.5l-115 -651h-43q-72 -40 -112 -76t-48 -82q-6 -43 41 -43q41 0 101 29l28 -188q-84 -35 -182 -35q-135 0 -210 59t-56 172q17 105 137 172l10 58q-106 -89 -276 -89q-154 0 -237.5 92.5t-55.5 252.5q12 71 45.5 124t78 84.5
t108 52t122.5 29t135 11.5l148 4l14 61q8 38 -11 65t-60 27q-57 0 -82.5 -27.5t-34.5 -72.5l-365 27q26 153 173 268t354 115zM483 250q58 0 101 34t55 95l6 31l-88 -4q-63 -3 -101 -26.5t-44 -64.5q-6 -65 71 -65z" />
    <glyph glyph-name="Cacute" unicode="&#x106;" horiz-adv-x="1714" 
d="M1237 1628h-344l295 332h516zM1012 1554q299 0 488.5 -161.5t195.5 -434.5l-412 -30q-10 138 -87 207t-204 69q-185 0 -309 -127t-154 -334q-29 -201 59 -308t247 -107q144 0 248 73.5t151 212.5l407 -45q-54 -182 -175 -317t-282.5 -205t-342.5 -70q-178 0 -321 56.5
t-238 159.5t-135 256t-13 339q33 236 158.5 411.5t311 265t407.5 89.5z" />
    <glyph glyph-name="cacute" unicode="&#x107;" horiz-adv-x="1230" 
d="M885 1229h-299l219 391h430zM682 1090q212 0 348.5 -117t143.5 -311l-363 -27q0 65 -35 100t-96 35q-91 0 -149.5 -68.5t-77.5 -191.5q-12 -101 29 -157t114 -56q72 0 121 37t67 94l361 -39q-54 -193 -204 -302.5t-343 -109.5q-258 0 -402.5 157.5t-111.5 422.5
q30 248 195.5 390.5t402.5 142.5z" />
    <glyph glyph-name="Ccircumflex" unicode="&#x108;" horiz-adv-x="1714" 
d="M1479 1628h-301l-76 135l-135 -135h-320l295 348h363zM1012 1554q299 0 488.5 -161.5t195.5 -434.5l-412 -30q-10 138 -87 207t-204 69q-185 0 -309 -127t-154 -334q-29 -201 59 -308t247 -107q144 0 248 73.5t151 212.5l407 -45q-54 -182 -175 -317t-282.5 -205
t-342.5 -70q-178 0 -321 56.5t-238 159.5t-135 256t-13 339q33 236 158.5 411.5t311 265t407.5 89.5z" />
    <glyph glyph-name="ccircumflex" unicode="&#x109;" horiz-adv-x="1230" 
d="M1153 1229h-301l-76 133l-135 -133h-319l301 373h362zM682 1090q212 0 348.5 -117t143.5 -311l-363 -27q0 65 -35 100t-96 35q-91 0 -149.5 -68.5t-77.5 -191.5q-12 -101 29 -157t114 -56q72 0 121 37t67 94l361 -39q-54 -193 -204 -302.5t-343 -109.5
q-258 0 -402.5 157.5t-111.5 422.5q30 248 195.5 390.5t402.5 142.5z" />
    <glyph glyph-name="Cdotaccent" unicode="&#x10a;" horiz-adv-x="1714" 
d="M1112 2054q101 0 161.5 -72t41.5 -170q-13 -82 -78.5 -137t-144.5 -55q-102 0 -161 70t-42 170q15 82 80.5 138t142.5 56zM1012 1554q299 0 488.5 -161.5t195.5 -434.5l-412 -30q-10 138 -87 207t-204 69q-185 0 -309 -127t-154 -334q-29 -201 59 -308t247 -107
q144 0 248 73.5t151 212.5l407 -45q-54 -182 -175 -317t-282.5 -205t-342.5 -70q-178 0 -321 56.5t-238 159.5t-135 256t-13 339q33 236 158.5 411.5t311 265t407.5 89.5z" />
    <glyph glyph-name="cdotaccent" unicode="&#x10b;" horiz-adv-x="1230" 
d="M782 1616q101 0 159.5 -71.5t41.5 -170.5q-13 -82 -78.5 -137t-146.5 -55q-102 0 -161 70t-40 169q15 81 81.5 138t143.5 57zM682 1090q212 0 348.5 -117t143.5 -311l-363 -27q0 65 -35 100t-96 35q-91 0 -149.5 -68.5t-77.5 -191.5q-12 -101 29 -157t114 -56
q72 0 121 37t67 94l361 -39q-54 -193 -204 -302.5t-343 -109.5q-258 0 -402.5 157.5t-111.5 422.5q30 248 195.5 390.5t402.5 142.5z" />
    <glyph glyph-name="Ccaron" unicode="&#x10c;" horiz-adv-x="1714" 
d="M1253 1628h-362l-176 348h303l76 -135l135 135h319zM1012 1554q299 0 488.5 -161.5t195.5 -434.5l-412 -30q-10 138 -87 207t-204 69q-185 0 -309 -127t-154 -334q-29 -201 59 -308t247 -107q144 0 248 73.5t151 212.5l407 -45q-54 -182 -175 -317t-282.5 -205
t-342.5 -70q-178 0 -321 56.5t-238 159.5t-135 256t-13 339q33 236 158.5 411.5t311 265t407.5 89.5z" />
    <glyph glyph-name="ccaron" unicode="&#x10d;" horiz-adv-x="1230" 
d="M928 1225h-363l-170 372h303l76 -131l135 131h320zM682 1090q212 0 348.5 -117t143.5 -311l-363 -27q0 65 -35 100t-96 35q-91 0 -149.5 -68.5t-77.5 -191.5q-12 -101 29 -157t114 -56q72 0 121 37t67 94l361 -39q-54 -193 -204 -302.5t-343 -109.5q-258 0 -402.5 157.5
t-111.5 422.5q30 248 195.5 390.5t402.5 142.5z" />
    <glyph glyph-name="Dcaron" unicode="&#x10e;" horiz-adv-x="1648" 
d="M1092 1628h-363l-176 348h303l76 -135l135 135h319zM311 1532h611q167 0 305.5 -55t232 -154.5t131 -249t4.5 -328.5q-65 -360 -295 -552.5t-571 -192.5h-688zM647 1192l-151 -852h262q182 0 301.5 111t152.5 331q57 410 -309 410h-256z" />
    <glyph glyph-name="dcaron" unicode="&#x10f;" horiz-adv-x="1746" 
d="M1688 1620q105 0 155 -73.5t29 -186.5q-59 -331 -438 -504l4 166q122 66 180 170q-79 19 -121 84t-27 149q14 84 75 139.5t143 55.5zM1038 1591h375l-278 -1591h-349l7 63q-100 -86 -250 -86q-159 0 -272 74t-162 206t-25 300q33 242 182.5 387.5t380.5 145.5
q102 0 177 -25t102 -57zM852 514l6 33q10 102 -38 162.5t-138 60.5q-92 0 -152 -57.5t-73 -163.5q-15 -117 34.5 -184.5t137.5 -67.5q93 0 152 57.5t71 159.5z" />
    <glyph glyph-name="Dcroat" unicode="&#x110;" horiz-adv-x="1662" 
d="M311 1532h611q167 0 305.5 -55t232 -154.5t131 -249t4.5 -328.5q-65 -360 -295 -552.5t-571 -192.5h-688l109 614h-113l51 301h115zM1212 782q57 410 -309 410h-256l-49 -277h203l-51 -301h-205l-49 -274h262q182 0 301.5 111t152.5 331z" />
    <glyph glyph-name="dcroat" unicode="&#x111;" horiz-adv-x="1357" 
d="M1475 1200h-129l-211 -1200h-349l7 63q-100 -86 -250 -86q-159 0 -272 74t-162 206t-25 300q33 242 182.5 387.5t380.5 145.5q102 0 177 -25t102 -57l37 192h-148l51 287h152l20 104h375l-18 -104h131zM852 514l6 33q10 102 -38 162.5t-138 60.5q-92 0 -152 -57.5
t-73 -163.5q-15 -117 34.5 -184.5t137.5 -67.5q93 0 152 57.5t71 159.5z" />
    <glyph glyph-name="Emacron" unicode="&#x112;" horiz-adv-x="1245" 
d="M1171 1645h-659l51 284h660zM1253 1182h-608l-41 -230h522l-61 -342h-522l-45 -260h612l-63 -350h-1006l270 1532h1004z" />
    <glyph glyph-name="emacron" unicode="&#x113;" horiz-adv-x="1234" 
d="M1081 1247h-659l51 287h660zM682 1090q246 0 377 -147t98 -402l-16 -109h-680q-8 -76 27.5 -122t111.5 -46q100 0 141 84l375 -24q-48 -163 -193 -255t-329 -92q-265 0 -406 158.5t-104 421.5q35 247 198 390t400 143zM676 815q-73 0 -119.5 -45t-62.5 -119h301
q9 81 -22.5 122.5t-96.5 41.5z" />
    <glyph glyph-name="Ebreve" unicode="&#x114;" horiz-adv-x="1245" 
d="M1022 1999h297q-32 -193 -153 -286t-300 -93q-199 0 -304.5 99.5t-72.5 279.5h299q-10 -64 17 -93.5t78 -29.5q54 0 91 36t48 87zM1253 1182h-608l-41 -230h522l-61 -342h-522l-45 -260h612l-63 -350h-1006l270 1532h1004z" />
    <glyph glyph-name="ebreve" unicode="&#x115;" horiz-adv-x="1234" 
d="M772 1206q-197 0 -303.5 101t-73.5 278h299q-10 -63 17 -93t75 -30q56 0 93 36t49 87h297q-22 -132 -88 -218.5t-157 -123.5t-208 -37zM682 1090q246 0 377 -147t98 -402l-16 -109h-680q-8 -76 27.5 -122t111.5 -46q100 0 141 84l375 -24q-48 -163 -193 -255t-329 -92
q-265 0 -406 158.5t-104 421.5q35 247 198 390t400 143zM676 815q-73 0 -119.5 -45t-62.5 -119h301q9 81 -22.5 122.5t-96.5 41.5z" />
    <glyph glyph-name="Edotaccent" unicode="&#x116;" horiz-adv-x="1245" 
d="M887 2054q101 0 161.5 -72t41.5 -170q-13 -82 -79 -137t-145 -55q-102 0 -160.5 70t-41.5 170q15 82 80.5 138t142.5 56zM1253 1182h-608l-41 -230h522l-61 -342h-522l-45 -260h612l-63 -350h-1006l270 1532h1004z" />
    <glyph glyph-name="edotaccent" unicode="&#x117;" horiz-adv-x="1234" 
d="M766 1182q-102 0 -161 70t-40 169q15 81 82 138t144 57q101 0 159 -71.5t41 -170.5q-13 -82 -78.5 -137t-146.5 -55zM682 1090q246 0 377 -147t98 -402l-16 -109h-680q-8 -76 27.5 -122t111.5 -46q100 0 141 84l375 -24q-48 -163 -193 -255t-329 -92q-265 0 -406 158.5
t-104 421.5q35 247 198 390t400 143zM676 815q-73 0 -119.5 -45t-62.5 -119h301q9 81 -22.5 122.5t-96.5 41.5z" />
    <glyph glyph-name="Eogonek" unicode="&#x118;" horiz-adv-x="1245" 
d="M645 1182l-41 -230h522l-61 -342h-522l-45 -260h612l-61 -336l10 -12q-77 -43 -118.5 -79t-49.5 -83q-6 -43 41 -43q40 0 100 29l29 -188q-84 -35 -182 -35q-135 0 -210.5 59t-56.5 172q17 101 125 166h-696l270 1532h1004l-62 -350h-608z" />
    <glyph glyph-name="eogonek" unicode="&#x119;" horiz-adv-x="1234" 
d="M682 1090q246 0 377 -147t98 -402l-16 -109h-678q-8 -76 26.5 -122t110.5 -46q100 0 141 84l375 -24q-39 -137 -150 -224.5t-261 -113.5q-62 -36 -98 -70.5t-44 -75.5q-6 -43 41 -43q41 0 101 29l28 -188q-84 -35 -182 -35q-135 0 -210 59t-56 172q20 101 127 166
q-181 52 -269 198t-59 359q35 247 198 390t400 143zM676 815q-73 0 -119.5 -45t-62.5 -119h301q9 81 -22.5 122.5t-96.5 41.5z" />
    <glyph glyph-name="Ecaron" unicode="&#x11a;" horiz-adv-x="1245" 
d="M1026 1628h-362l-177 348h304l75 -135l135 135h320zM1253 1182h-608l-41 -230h522l-61 -342h-522l-45 -260h612l-63 -350h-1006l270 1532h1004z" />
    <glyph glyph-name="ecaron" unicode="&#x11b;" horiz-adv-x="1234" 
d="M571 1225l-170 372h304l75 -131l135 131h320l-301 -372h-363zM682 1090q246 0 377 -147t98 -402l-16 -109h-680q-8 -76 27.5 -122t111.5 -46q100 0 141 84l375 -24q-48 -163 -193 -255t-329 -92q-265 0 -406 158.5t-104 421.5q35 247 198 390t400 143zM676 815
q-73 0 -119.5 -45t-62.5 -119h301q9 81 -22.5 122.5t-96.5 41.5z" />
    <glyph glyph-name="Gcircumflex" unicode="&#x11c;" horiz-adv-x="1726" 
d="M967 1628h-320l295 348h363l174 -348h-301l-76 135zM938 872h750l-21 -139q-50 -342 -272 -549t-553 -207q-178 0 -321 56.5t-238 159.5t-135 256t-13 339q33 236 158.5 411.5t311.5 265t409 89.5q279 0 459 -140.5t215 -387.5l-408 -45q-39 223 -279 223
q-195 0 -316.5 -116t-154.5 -345q-30 -210 53.5 -312.5t260.5 -102.5q110 0 198.5 48t143.5 146h-297z" />
    <glyph glyph-name="gcircumflex" unicode="&#x11d;" horiz-adv-x="1331" 
d="M1188 1229h-301l-76 133l-135 -133h-320l301 373h363zM647 1090q100 0 179 -30.5t116 -70.5l27 78h352l-195 -1106q-40 -232 -209 -368t-419 -136q-133 0 -233.5 31.5t-160.5 88.5t-88 132t-24 166l364 10q-4 -57 33 -84.5t113 -27.5q99 0 166 49.5t86 136.5l16 86
q-76 -68 -227 -68q-159 0 -272 74t-162 206t-25 300q33 242 182.5 387.5t380.5 145.5zM682 770q-92 0 -152 -57.5t-73 -163.5q-15 -117 34.5 -184.5t137.5 -67.5q93 0 151 57.5t72 159.5l4 33q12 102 -36 162.5t-138 60.5z" />
    <glyph glyph-name="Gbreve" unicode="&#x11e;" horiz-adv-x="1726" 
d="M1094 1620q-199 0 -304.5 99.5t-72.5 279.5h299q-10 -64 16.5 -93.5t77.5 -29.5q54 0 91 36t48 87h297q-22 -131 -87.5 -217.5t-156.5 -124t-208 -37.5zM938 872h750l-21 -139q-50 -342 -272 -549t-553 -207q-178 0 -321 56.5t-238 159.5t-135 256t-13 339
q33 236 158.5 411.5t311.5 265t409 89.5q279 0 459 -140.5t215 -387.5l-408 -45q-39 223 -279 223q-195 0 -316.5 -116t-154.5 -345q-30 -210 53.5 -312.5t260.5 -102.5q110 0 198.5 48t143.5 146h-297z" />
    <glyph glyph-name="gbreve" unicode="&#x11f;" horiz-adv-x="1331" 
d="M956 1585h297q-16 -99 -57.5 -173.5t-101.5 -118.5t-133 -65.5t-160 -21.5q-197 0 -303.5 101t-73.5 278h299q-10 -63 17 -93t75 -30q56 0 92.5 36t48.5 87zM647 1090q100 0 179 -30.5t116 -70.5l27 78h352l-195 -1106q-40 -232 -209 -368t-419 -136q-133 0 -233.5 31.5
t-160.5 88.5t-88 132t-24 166l364 10q-4 -57 33 -84.5t113 -27.5q99 0 166 49.5t86 136.5l16 86q-76 -68 -227 -68q-159 0 -272 74t-162 206t-25 300q33 242 182.5 387.5t380.5 145.5zM682 770q-92 0 -152 -57.5t-73 -163.5q-15 -117 34.5 -184.5t137.5 -67.5q93 0 151 57.5
t72 159.5l4 33q12 102 -36 162.5t-138 60.5z" />
    <glyph glyph-name="Gdotaccent" unicode="&#x120;" horiz-adv-x="1726" 
d="M1094 1620q-102 0 -161 70t-42 170q15 82 80.5 138t142.5 56q101 0 161.5 -72t41.5 -170q-13 -82 -78.5 -137t-144.5 -55zM938 872h750l-21 -139q-50 -342 -272 -549t-553 -207q-178 0 -321 56.5t-238 159.5t-135 256t-13 339q33 236 158.5 411.5t311.5 265t409 89.5
q279 0 459 -140.5t215 -387.5l-408 -45q-39 223 -279 223q-195 0 -316.5 -116t-154.5 -345q-30 -210 53.5 -312.5t260.5 -102.5q110 0 198.5 48t143.5 146h-297z" />
    <glyph glyph-name="gdotaccent" unicode="&#x121;" horiz-adv-x="1331" 
d="M819 1616q101 0 159.5 -71.5t41.5 -170.5q-13 -82 -78.5 -137t-146.5 -55q-102 0 -161 70t-40 169q15 81 81.5 138t143.5 57zM647 1090q100 0 179 -30.5t116 -70.5l27 78h352l-195 -1106q-40 -232 -209 -368t-419 -136q-133 0 -233.5 31.5t-160.5 88.5t-88 132t-24 166
l364 10q-4 -57 33 -84.5t113 -27.5q99 0 166 49.5t86 136.5l16 86q-76 -68 -227 -68q-159 0 -272 74t-162 206t-25 300q33 242 182.5 387.5t380.5 145.5zM682 770q-92 0 -152 -57.5t-73 -163.5q-15 -117 34.5 -184.5t137.5 -67.5q93 0 151 57.5t72 159.5l4 33
q12 102 -36 162.5t-138 60.5z" />
    <glyph glyph-name="Gcommaaccent" unicode="&#x122;" horiz-adv-x="1726" 
d="M938 872h750l-21 -139q-50 -342 -272 -549t-553 -207q-178 0 -321 56.5t-238 159.5t-135 256t-13 339q33 236 158.5 411.5t311.5 265t409 89.5q279 0 459 -140.5t215 -387.5l-408 -45q-39 223 -279 223q-195 0 -316.5 -116t-154.5 -345q-30 -210 53.5 -312.5
t260.5 -102.5q110 0 198.5 48t143.5 146h-297zM727 -100q105 0 155 -73.5t29 -186.5q-59 -331 -438 -504l4 166q122 66 180 170q-79 19 -120.5 84t-26.5 149q14 84 74.5 139.5t142.5 55.5z" />
    <glyph glyph-name="gcommaaccent" unicode="&#x123;" horiz-adv-x="1331" 
d="M1102 1661q-59 -331 -438 -504l4 166q122 66 180 170q-79 19 -121 84t-27 149q14 84 75 139.5t143 55.5q105 0 155 -73.5t29 -186.5zM1321 1067l-195 -1106q-40 -232 -209 -368t-419 -136q-133 0 -233.5 31.5t-160.5 88.5t-88 132t-24 166l364 10q-4 -57 33 -84.5
t113 -27.5q99 0 166 49.5t86 136.5l16 86q-76 -68 -227 -68q-159 0 -272 74t-162 206t-25 300q33 242 182.5 387.5t380.5 145.5q100 0 179 -30.5t116 -70.5l27 78h352zM852 514l4 33q12 102 -36 162.5t-138 60.5q-92 0 -152 -57.5t-73 -163.5q-15 -117 34.5 -184.5
t137.5 -67.5q93 0 151 57.5t72 159.5z" />
    <glyph glyph-name="Hcircumflex" unicode="&#x124;" horiz-adv-x="1572" 
d="M1393 1628h-301l-76 135l-135 -135h-320l295 348h363zM1343 0h-395l109 606h-514l-107 -606h-395l270 1532h396l-103 -576h514l101 576h395z" />
    <glyph glyph-name="hcircumflex" unicode="&#x125;" horiz-adv-x="1280" 
d="M930 1645h-303l-74 137l-135 -137h-320l295 350h363zM688 1591l-110 -575q97 74 235 74q202 0 302.5 -117.5t64.5 -319.5l-115 -653h-373l103 580q13 80 -16.5 120.5t-86.5 40.5q-151 0 -182 -174l-102 -567h-373l280 1591h373z" />
    <glyph glyph-name="Hbar" unicode="&#x126;" horiz-adv-x="1615" 
d="M1692 1090h-138l-192 -1090h-393l106 606h-514l-106 -606h-396l193 1090h-133l53 299h133l25 143h395l-25 -143h514l25 143h393l-24 -143h137zM1161 1090h-514l-22 -134h512z" />
    <glyph glyph-name="hbar" unicode="&#x127;" horiz-adv-x="1280" 
d="M813 1090q202 0 302.5 -117.5t64.5 -319.5l-115 -653h-373l103 580q13 80 -16.5 120.5t-86.5 40.5q-151 0 -182 -174l-102 -567h-373l211 1200h-123l51 287h123l18 104h373l-20 -104h168l-52 -287h-172l-34 -184q97 74 235 74z" />
    <glyph glyph-name="Itilde" unicode="&#x128;" horiz-adv-x="665" 
d="M440 1995q49 0 86 -16t55 -34.5t43.5 -34.5t53.5 -16q97 0 110 84h203q6 -153 -84.5 -258.5t-210.5 -105.5q-50 0 -87 16t-55 35t-43 35t-52 16q-101 0 -111 -90h-203q-6 154 85 261.5t210 107.5zM436 0h-395l270 1532h396z" />
    <glyph glyph-name="itilde" unicode="&#x129;" 
d="M348 1589q40 0 71.5 -10.5t51 -25t36 -29t36.5 -25t43 -10.5q97 0 110 84h203q6 -153 -84.5 -258t-210.5 -105q-50 0 -87 16t-55 34.5t-43 34.5t-52 16q-101 0 -111 -90h-203q-3 77 21 146t65.5 117.5t96.5 76.5t112 28zM408 0h-373l188 1067h375z" />
    <glyph glyph-name="Imacron" unicode="&#x12a;" horiz-adv-x="665" 
d="M870 1645h-659l51 284h660zM436 0h-395l270 1532h396z" />
    <glyph glyph-name="imacron" unicode="&#x12b;" 
d="M780 1247h-659l51 287h659zM408 0h-373l188 1067h375z" />
    <glyph glyph-name="Ibreve" unicode="&#x12c;" horiz-adv-x="665" 
d="M721 1999h297q-32 -193 -153 -286t-300 -93q-199 0 -304.5 99.5t-72.5 279.5h299q-10 -64 17 -93.5t78 -29.5q54 0 91 36t48 87zM436 0h-395l270 1532h396z" />
    <glyph glyph-name="ibreve" unicode="&#x12d;" 
d="M627 1585h297q-22 -132 -88 -218.5t-157 -123.5t-208 -37q-197 0 -303.5 101t-73.5 278h299q-10 -63 17 -93t75 -30q56 0 93 36t49 87zM408 0h-373l188 1067h375z" />
    <glyph glyph-name="Iogonek" unicode="&#x12e;" horiz-adv-x="665" 
d="M436 0h-147q-72 -40 -112 -76t-48 -82q-6 -43 41 -43q40 0 100 29l29 -188q-84 -35 -182 -35q-135 0 -210.5 59t-56.5 172q22 129 197 203l264 1493h396z" />
    <glyph glyph-name="iogonek" unicode="&#x12f;" 
d="M489 1616q101 0 159.5 -71.5t41.5 -170.5q-13 -82 -78.5 -137t-146.5 -55q-102 0 -161 70t-40 169q15 81 81.5 138t143.5 57zM223 1067h375l-190 -1067h-84q-72 -40 -112 -76t-48 -82q-6 -43 41 -43q40 0 100 29l29 -188q-84 -35 -182 -35q-135 0 -210.5 59t-56.5 172
q19 110 154 182z" />
    <glyph glyph-name="Idotaccent" unicode="&#x130;" horiz-adv-x="665" 
d="M586 2054q101 0 161 -72t41 -170q-13 -82 -78.5 -137t-144.5 -55q-102 0 -161 70t-42 170q15 82 80.5 138t143.5 56zM436 0h-395l270 1532h396z" />
    <glyph glyph-name="dotlessi" unicode="&#x131;" 
d="M408 0h-373l188 1067h375z" />
    <glyph glyph-name="Jcircumflex" unicode="&#x134;" horiz-adv-x="1300" 
d="M1604 1628h-301l-76 135l-135 -135h-320l295 348h363zM1352 1532l-168 -963q-52 -283 -224 -437.5t-432 -154.5q-257 0 -390.5 154.5t-104.5 413.5l399 16q-12 -122 15 -177.5t108 -55.5q87 0 149 65.5t84 179.5l168 959h396z" />
    <glyph glyph-name="jcircumflex" unicode="&#x135;" 
d="M846 1229h-301l-76 133l-135 -133h-320l301 373h363zM596 1067l-203 -1151q-22 -122 -69 -212.5t-113.5 -144t-144.5 -79t-168 -25.5q-203 0 -324 90l184 291q49 -53 101 -53q65 0 108 36.5t53 100.5l203 1147h373z" />
    <glyph glyph-name="Kcommaaccent" unicode="&#x136;" horiz-adv-x="1533" 
d="M1051 909l362 -909h-422l-239 608l-248 -246l-68 -362h-395l270 1532h396l-105 -574l539 574h514zM639 -90q105 0 155 -73.5t29 -186.5q-59 -331 -438 -504l4 166q122 66 180 170q-79 19 -120.5 84t-26.5 149q14 84 74.5 139.5t142.5 55.5z" />
    <glyph glyph-name="kcommaaccent" unicode="&#x137;" horiz-adv-x="1247" 
d="M852 614l274 -614h-401l-152 348l-118 -106l-47 -242h-373l280 1591h373l-153 -852l327 328h459zM492 -90q105 0 155 -73.5t29 -186.5q-59 -331 -438 -504l4 166q122 66 180 170q-79 19 -121 84t-27 149q14 84 75 139.5t143 55.5z" />
    <glyph glyph-name="Lacute" unicode="&#x139;" horiz-adv-x="1210" 
d="M713 1628h-344l295 332h516zM498 350h608l-62 -350h-1003l270 1532h396z" />
    <glyph glyph-name="lacute" unicode="&#x13a;" 
d="M702 1667h-344l295 332h516zM408 0h-373l280 1591h373z" />
    <glyph glyph-name="Lcommaaccent" unicode="&#x13b;" horiz-adv-x="1210" 
d="M1106 350l-62 -350h-1003l270 1532h396l-209 -1182h608zM508 -90q105 0 155 -73.5t29 -186.5q-59 -331 -438 -504l4 166q122 66 180 170q-79 19 -120.5 84t-26.5 149q14 84 74.5 139.5t142.5 55.5z" />
    <glyph glyph-name="lcommaaccent" unicode="&#x13c;" 
d="M688 1591l-280 -1591h-373l280 1591h373zM174 -90q105 0 155 -73.5t29 -186.5q-59 -331 -438 -504l4 166q122 66 180 170q-79 19 -120.5 84t-26.5 149q14 84 74.5 139.5t142.5 55.5z" />
    <glyph glyph-name="Lcaron" unicode="&#x13d;" horiz-adv-x="1210" 
d="M1239 1620q105 0 155 -73.5t29 -186.5q-59 -331 -438 -504l4 166q122 66 180 170q-79 19 -120.5 84t-26.5 149q14 84 74.5 139.5t142.5 55.5zM498 350h608l-62 -350h-1003l270 1532h396z" />
    <glyph glyph-name="lcaron" unicode="&#x13e;" horiz-adv-x="1024" 
d="M954 1620q105 0 155.5 -73.5t29.5 -186.5q-59 -331 -439 -504l5 166q122 66 180 170q-79 19 -121 84t-27 149q14 84 74.5 139.5t142.5 55.5zM315 1591h373l-280 -1591h-373z" />
    <glyph glyph-name="Ldot" unicode="&#x13f;" horiz-adv-x="1210" 
d="M498 350h608l-62 -350h-1003l270 1532h396zM1075 1100q102 0 162 -71.5t43 -170.5q-13 -82 -78.5 -137t-146.5 -55q-101 0 -160.5 70.5t-40.5 168.5q13 83 77.5 139t143.5 56z" />
    <glyph glyph-name="ldot" unicode="&#x140;" horiz-adv-x="1058" 
d="M408 0h-373l280 1591h373zM836 915q102 0 161.5 -71t42.5 -170q-13 -82 -79 -137.5t-146 -55.5q-101 0 -160.5 71t-40.5 169q13 82 78 138t144 56z" />
    <glyph glyph-name="Lslash" unicode="&#x141;" horiz-adv-x="1230" 
d="M1106 350l-62 -350h-1003l102 575l-106 -14l10 299l150 19l114 653h396l-107 -602l172 22l-10 -299l-215 -26l-49 -277h608z" />
    <glyph glyph-name="lslash" unicode="&#x142;" horiz-adv-x="684" 
d="M524 514l-90 -514h-375l76 430l-129 -27l-18 295l202 43l150 850h375l-135 -770l133 29l18 -293z" />
    <glyph glyph-name="Nacute" unicode="&#x143;" horiz-adv-x="1583" 
d="M1159 1628h-344l295 332h516zM1354 0h-338l-438 803l-142 -803h-395l270 1532h336l438 -807l144 807h395z" />
    <glyph glyph-name="nacute" unicode="&#x144;" horiz-adv-x="1277" 
d="M932 1229h-299l219 391h430zM813 1090q202 0 302.5 -117.5t64.5 -319.5l-115 -653h-373l103 580q13 80 -16.5 120.5t-86.5 40.5q-151 0 -182 -174l-102 -567h-373l188 1067h344l-12 -63q86 86 258 86z" />
    <glyph glyph-name="Ncommaaccent" unicode="&#x145;" horiz-adv-x="1583" 
d="M1624 1532l-270 -1532h-338l-438 803l-142 -803h-395l270 1532h336l438 -807l144 807h395zM709 -90q105 0 155 -73.5t29 -186.5q-59 -331 -438 -504l4 166q122 66 180 170q-79 19 -120.5 84t-26.5 149q14 84 74.5 139.5t142.5 55.5z" />
    <glyph glyph-name="ncommaaccent" unicode="&#x146;" horiz-adv-x="1277" 
d="M813 1090q202 0 302.5 -117.5t64.5 -319.5l-115 -653h-373l103 580q13 80 -16.5 120.5t-86.5 40.5q-151 0 -182 -174l-102 -567h-373l188 1067h344l-12 -63q86 86 258 86zM500 -90q105 0 155 -73.5t29 -186.5q-59 -331 -438 -504l4 166q122 66 180 170q-79 19 -120.5 84
t-26.5 149q14 84 74.5 139.5t142.5 55.5z" />
    <glyph glyph-name="Ncaron" unicode="&#x147;" horiz-adv-x="1583" 
d="M1176 1628h-363l-176 348h303l76 -135l135 135h319zM1354 0h-338l-438 803l-142 -803h-395l270 1532h336l438 -807l144 807h395z" />
    <glyph glyph-name="ncaron" unicode="&#x148;" horiz-adv-x="1277" 
d="M973 1225h-363l-170 372h303l76 -131l135 131h320zM813 1090q202 0 302.5 -117.5t64.5 -319.5l-115 -653h-373l103 580q13 80 -16.5 120.5t-86.5 40.5q-151 0 -182 -174l-102 -567h-373l188 1067h344l-12 -63q86 86 258 86z" />
    <glyph glyph-name="Eng" unicode="&#x14a;" horiz-adv-x="1583" 
d="M1536 1032l-184 -1075q-35 -207 -213.5 -343t-440.5 -136l35 350q86 0 153 64t93 178l-401 733l-142 -803h-395l270 1532h336l438 -807l144 807h395z" />
    <glyph glyph-name="eng" unicode="&#x14b;" horiz-adv-x="1277" 
d="M813 1090q202 0 302.5 -117.5t64.5 -319.5l-68 -381l-59 -354q-38 -212 -196 -334.5t-392 -122.5l53 324q51 0 102 46t60 103l74 412l41 234q13 80 -16.5 120.5t-86.5 40.5q-151 0 -182 -174l-102 -567h-373l188 1067h344l-12 -63q86 86 258 86z" />
    <glyph glyph-name="Omacron" unicode="&#x14c;" horiz-adv-x="1802" 
d="M1430 1645h-660l51 284h660zM995 1554q180 0 329.5 -58.5t249.5 -163.5t147.5 -257t27.5 -332q-24 -231 -141.5 -405.5t-303 -267.5t-413.5 -93q-181 0 -330.5 58.5t-250 163.5t-148 257t-27.5 332q24 231 141 405.5t303.5 267.5t415.5 93zM989 1204q-197 0 -320 -125
t-137 -336q-12 -194 87 -304.5t276 -110.5q197 0 320 124.5t137 335.5q12 194 -87 305t-276 111z" />
    <glyph glyph-name="omacron" unicode="&#x14d;" horiz-adv-x="1316" 
d="M1096 1247h-660l51 287h660zM692 1090q130 0 237.5 -42.5t179.5 -118t105.5 -184t18.5 -235.5q-16 -159 -99.5 -281t-216 -187t-292.5 -65q-130 0 -237.5 42.5t-179.5 118t-105.5 184t-18.5 235.5q16 159 99.5 281t216 187t292.5 65zM696 770q-104 0 -169.5 -70
t-71.5 -190q-3 -102 40.5 -157.5t125.5 -55.5q103 0 168.5 70t72.5 190q3 102 -40.5 157.5t-125.5 55.5z" />
    <glyph glyph-name="Obreve" unicode="&#x14e;" horiz-adv-x="1802" 
d="M1280 1999h297q-32 -193 -153 -286t-300 -93q-199 0 -304 99.5t-72 279.5h299q-10 -64 16.5 -93.5t77.5 -29.5q54 0 91 36t48 87zM995 1554q180 0 329.5 -58.5t249.5 -163.5t147.5 -257t27.5 -332q-24 -231 -141.5 -405.5t-303 -267.5t-413.5 -93q-181 0 -330.5 58.5
t-250 163.5t-148 257t-27.5 332q24 231 141 405.5t303.5 267.5t415.5 93zM989 1204q-197 0 -320 -125t-137 -336q-12 -194 87 -304.5t276 -110.5q197 0 320 124.5t137 335.5q12 194 -87 305t-276 111z" />
    <glyph glyph-name="obreve" unicode="&#x14f;" horiz-adv-x="1316" 
d="M942 1585h297q-22 -132 -88 -218.5t-157 -123.5t-208 -37q-197 0 -303 101t-73 278h299q-10 -63 17 -93t75 -30q56 0 92.5 36t48.5 87zM692 1090q130 0 237.5 -42.5t179.5 -118t105.5 -184t18.5 -235.5q-16 -159 -99.5 -281t-216 -187t-292.5 -65q-130 0 -237.5 42.5
t-179.5 118t-105.5 184t-18.5 235.5q16 159 99.5 281t216 187t292.5 65zM696 770q-104 0 -169.5 -70t-71.5 -190q-3 -102 40.5 -157.5t125.5 -55.5q103 0 168.5 70t72.5 190q3 102 -40.5 157.5t-125.5 55.5z" />
    <glyph glyph-name="Ohungarumlaut" unicode="&#x150;" horiz-adv-x="1802" 
d="M1008 1634h-299l194 373h359zM1462 1634h-299l195 373h358zM995 1554q180 0 329.5 -58.5t249.5 -163.5t147.5 -257t27.5 -332q-24 -231 -141.5 -405.5t-303 -267.5t-413.5 -93q-181 0 -330.5 58.5t-250 163.5t-148 257t-27.5 332q24 231 141 405.5t303.5 267.5t415.5 93z
M989 1204q-197 0 -320 -125t-137 -336q-12 -194 87 -304.5t276 -110.5q197 0 320 124.5t137 335.5q12 194 -87 305t-276 111z" />
    <glyph glyph-name="ohungarumlaut" unicode="&#x151;" horiz-adv-x="1316" 
d="M680 1229h-297l197 395h360zM1135 1229h-297l196 395h361zM692 1090q130 0 237.5 -42.5t179.5 -118t105.5 -184t18.5 -235.5q-16 -159 -99.5 -281t-216 -187t-292.5 -65q-130 0 -237.5 42.5t-179.5 118t-105.5 184t-18.5 235.5q16 159 99.5 281t216 187t292.5 65z
M696 770q-104 0 -169.5 -70t-71.5 -190q-3 -102 40.5 -157.5t125.5 -55.5q103 0 168.5 70t72.5 190q3 102 -40.5 157.5t-125.5 55.5z" />
    <glyph glyph-name="OE" unicode="&#x152;" horiz-adv-x="2418" 
d="M1819 1182l-41 -230h522l-62 -342h-512q-23 -76 -24 -80l-31 -180h610l-61 -350h-1006l7 35q-157 -58 -330 -58q-181 0 -330.5 58.5t-250 163.5t-148 257t-27.5 332q24 231 141 405.5t303.5 267.5t415.5 93q273 0 471 -131l19 109h1003l-61 -350h-608zM895 328
q166 0 280 89t156 247l19 104l2 20q12 194 -87 305t-276 111q-197 0 -320 -125t-137 -336q-12 -194 87 -304.5t276 -110.5z" />
    <glyph glyph-name="oe" unicode="&#x153;" horiz-adv-x="2015" 
d="M1462 1090q246 0 377 -147t98 -402l-16 -109h-680q-8 -76 27.5 -122t111.5 -46q99 0 140 84l376 -24q-48 -163 -193 -255t-329 -92q-228 0 -368 121q-158 -121 -381 -121q-130 0 -237.5 42.5t-179.5 118t-105.5 184t-18.5 235.5q16 159 99.5 281t216 187t292.5 65
q234 0 385 -132q157 132 385 132zM1456 815q-73 0 -119.5 -45t-62.5 -119h301q9 81 -22.5 122.5t-96.5 41.5zM621 297q103 0 168.5 70t72.5 190q3 102 -40.5 157.5t-125.5 55.5q-104 0 -169.5 -70t-71.5 -190q-3 -102 40.5 -157.5t125.5 -55.5z" />
    <glyph glyph-name="Racute" unicode="&#x154;" horiz-adv-x="1474" 
d="M1020 1628h-344l295 332h516zM311 1532h639q115 0 210 -38t159 -107t91.5 -171t10.5 -223q-59 -324 -311 -432l201 -561h-414l-180 512h-191l-90 -512h-395zM588 862h250q74 0 122.5 41t61.5 121q11 69 -22.5 113.5t-104.5 44.5h-250z" />
    <glyph glyph-name="racute" unicode="&#x155;" horiz-adv-x="823" 
d="M760 1229h-299l219 391h430zM862 1077l-59 -360q-122 0 -206 -64.5t-101 -167.5l-88 -485h-373l188 1067h350l-12 -82q99 92 301 92z" />
    <glyph glyph-name="Rcommaaccent" unicode="&#x156;" horiz-adv-x="1474" 
d="M1421 993q-59 -324 -311 -432l201 -561h-414l-180 512h-191l-90 -512h-395l270 1532h639q115 0 210 -38t159 -107t91.5 -171t10.5 -223zM588 862h250q74 0 122.5 41t61.5 121q11 69 -22.5 113.5t-104.5 44.5h-250zM600 -90q105 0 155 -73.5t29 -186.5q-59 -331 -438 -504
l4 166q122 66 180 170q-79 19 -120.5 84t-26.5 149q14 84 74.5 139.5t142.5 55.5z" />
    <glyph glyph-name="rcommaaccent" unicode="&#x157;" horiz-adv-x="823" 
d="M573 1067l-12 -82q99 92 301 92l-59 -360q-122 0 -206 -64.5t-101 -167.5l-88 -485h-373l188 1067h350zM172 -90q105 0 155 -73.5t29 -186.5q-59 -331 -438 -504l4 166q122 66 180 170q-79 19 -120.5 84t-26.5 149q14 84 74.5 139.5t142.5 55.5z" />
    <glyph glyph-name="Rcaron" unicode="&#x158;" horiz-adv-x="1474" 
d="M674 1628l-176 348h303l76 -135l135 135h319l-295 -348h-362zM1421 993q-59 -324 -311 -432l201 -561h-414l-180 512h-191l-90 -512h-395l270 1532h639q115 0 210 -38t159 -107t91.5 -171t10.5 -223zM588 862h250q74 0 122.5 41t61.5 121q11 69 -22.5 113.5t-104.5 44.5
h-250z" />
    <glyph glyph-name="rcaron" unicode="&#x159;" horiz-adv-x="823" 
d="M801 1225h-363l-170 372h303l76 -131l135 131h320zM862 1077l-59 -360q-122 0 -206 -64.5t-101 -167.5l-88 -485h-373l188 1067h350l-12 -82q99 92 301 92z" />
    <glyph glyph-name="Sacute" unicode="&#x15a;" horiz-adv-x="1368" 
d="M1018 1628h-344l295 332h516zM799 1554q278 0 428 -133.5t119 -355.5l-404 -16q10 78 -26 120.5t-113 42.5q-86 0 -140 -38.5t-63 -104.5q-8 -56 34 -87.5t177 -66.5q98 -25 171.5 -52t138 -67t103 -89t55 -117t5.5 -152q-17 -119 -73.5 -209.5t-141 -144.5t-185 -80.5
t-216.5 -26.5q-194 0 -333.5 59.5t-207 176t-43.5 276.5l403 15q-12 -87 36 -136t143 -49q94 0 151 33.5t64 100.5q7 55 -43 93.5t-168 67.5q-96 24 -162.5 46.5t-136 60.5t-108 85t-58 119t-6.5 162q14 97 59.5 180.5t119 148t182 101.5t239.5 37z" />
    <glyph glyph-name="sacute" unicode="&#x15b;" horiz-adv-x="1044" 
d="M756 1229h-299l219 391h430zM567 1090q217 0 327.5 -102t104.5 -253l-370 -8q7 45 -13.5 72.5t-60.5 27.5q-76 0 -86 -67q-4 -37 31.5 -57t120.5 -41q84 -21 143.5 -46t108.5 -64t69 -96t10 -132q-24 -160 -148.5 -253.5t-332.5 -93.5q-227 0 -341 92.5t-103 256.5
l368 12q-9 -46 12.5 -72t75.5 -26q42 0 67 17.5t30 47.5q3 31 -23.5 57t-99.5 46q-105 28 -164.5 50.5t-115 61.5t-73.5 98.5t-6 145.5q22 153 147 239.5t322 86.5z" />
    <glyph glyph-name="Scircumflex" unicode="&#x15c;" horiz-adv-x="1368" 
d="M1260 1628h-302l-75 135l-135 -135h-320l295 348h362zM799 1554q278 0 428 -133.5t119 -355.5l-404 -16q10 78 -26 120.5t-113 42.5q-86 0 -140 -38.5t-63 -104.5q-8 -56 34 -87.5t177 -66.5q98 -25 171.5 -52t138 -67t103 -89t55 -117t5.5 -152q-17 -119 -73.5 -209.5
t-141 -144.5t-185 -80.5t-216.5 -26.5q-194 0 -333.5 59.5t-207 176t-43.5 276.5l403 15q-12 -87 36 -136t143 -49q94 0 151 33.5t64 100.5q7 55 -43 93.5t-168 67.5q-96 24 -162.5 46.5t-136 60.5t-108 85t-58 119t-6.5 162q14 97 59.5 180.5t119 148t182 101.5t239.5 37z
" />
    <glyph glyph-name="scircumflex" unicode="&#x15d;" horiz-adv-x="1044" 
d="M1024 1229h-301l-76 133l-135 -133h-319l301 373h362zM567 1090q217 0 327.5 -102t104.5 -253l-370 -8q7 45 -13.5 72.5t-60.5 27.5q-76 0 -86 -67q-4 -37 31.5 -57t120.5 -41q84 -21 143.5 -46t108.5 -64t69 -96t10 -132q-24 -160 -148.5 -253.5t-332.5 -93.5
q-227 0 -341 92.5t-103 256.5l368 12q-9 -46 12.5 -72t75.5 -26q42 0 67 17.5t30 47.5q3 31 -23.5 57t-99.5 46q-105 28 -164.5 50.5t-115 61.5t-73.5 98.5t-6 145.5q22 153 147 239.5t322 86.5z" />
    <glyph glyph-name="Scedilla" unicode="&#x15e;" horiz-adv-x="1368" 
d="M1346 1065l-404 -16q10 78 -26 120.5t-113 42.5q-86 0 -140 -38.5t-63 -104.5q-8 -56 34 -87.5t177 -66.5q98 -25 171.5 -52t138 -67t103 -89t55 -117t5.5 -152q-13 -93 -51 -169t-93.5 -129t-127.5 -89t-151.5 -54t-168.5 -20l-45 -71q100 -3 166 -66t47 -172
q-18 -98 -108 -150.5t-201 -52.5q-137 0 -221 43l63 166q20 -14 76 -14q111 0 123 61q4 25 -11 44.5t-36 19.5q-40 0 -101 -18l103 217q-242 28 -368.5 160t-94.5 345l403 15q-12 -87 36 -136t143 -49q94 0 151 33.5t64 100.5q7 55 -43 93.5t-168 67.5q-96 24 -162.5 46.5
t-136 60.5t-108 85t-58 119t-6.5 162q14 97 59.5 180.5t119 148t182 101.5t239.5 37q278 0 428 -133.5t119 -355.5z" />
    <glyph glyph-name="scedilla" unicode="&#x15f;" horiz-adv-x="1044" 
d="M999 735l-370 -8q7 45 -13.5 72.5t-60.5 27.5q-76 0 -86 -67q-4 -37 31.5 -57t120.5 -41q84 -21 143.5 -46t108.5 -64t69 -96t10 -132q-22 -154 -137.5 -246t-308.5 -101l-45 -71q100 -3 166 -66t47 -172q-18 -98 -108 -150.5t-201 -52.5q-138 0 -222 43l64 166
q20 -14 76 -14q111 0 123 61q4 25 -11.5 44.5t-36.5 19.5q-39 0 -100 -18l102 217q-173 21 -257.5 110t-75.5 232l368 12q-9 -46 12.5 -72t75.5 -26q42 0 67 17.5t30 47.5q3 31 -23.5 57t-99.5 46q-105 28 -164.5 50.5t-115 61.5t-73.5 98.5t-6 145.5q22 153 147 239.5
t322 86.5q217 0 327.5 -102t104.5 -253z" />
    <glyph glyph-name="Scaron" unicode="&#x160;" horiz-adv-x="1368" 
d="M1034 1628h-362l-176 348h303l75 -135l136 135h319zM799 1554q278 0 428 -133.5t119 -355.5l-404 -16q10 78 -26 120.5t-113 42.5q-86 0 -140 -38.5t-63 -104.5q-8 -56 34 -87.5t177 -66.5q98 -25 171.5 -52t138 -67t103 -89t55 -117t5.5 -152q-17 -119 -73.5 -209.5
t-141 -144.5t-185 -80.5t-216.5 -26.5q-194 0 -333.5 59.5t-207 176t-43.5 276.5l403 15q-12 -87 36 -136t143 -49q94 0 151 33.5t64 100.5q7 55 -43 93.5t-168 67.5q-96 24 -162.5 46.5t-136 60.5t-108 85t-58 119t-6.5 162q14 97 59.5 180.5t119 148t182 101.5t239.5 37z
" />
    <glyph glyph-name="scaron" unicode="&#x161;" horiz-adv-x="1044" 
d="M799 1225h-363l-170 372h303l76 -131l135 131h320zM567 1090q217 0 327.5 -102t104.5 -253l-370 -8q7 45 -13.5 72.5t-60.5 27.5q-76 0 -86 -67q-4 -37 31.5 -57t120.5 -41q84 -21 143.5 -46t108.5 -64t69 -96t10 -132q-24 -160 -148.5 -253.5t-332.5 -93.5
q-227 0 -341 92.5t-103 256.5l368 12q-9 -46 12.5 -72t75.5 -26q42 0 67 17.5t30 47.5q3 31 -23.5 57t-99.5 46q-105 28 -164.5 50.5t-115 61.5t-73.5 98.5t-6 145.5q22 153 147 239.5t322 86.5z" />
    <glyph glyph-name="Tcaron" unicode="&#x164;" horiz-adv-x="1433" 
d="M1106 1628h-363l-176 348h303l76 -135l135 135h320zM1507 1182h-479l-209 -1182h-393l209 1182h-479l61 350h1352z" />
    <glyph glyph-name="tcaron" unicode="&#x165;" horiz-adv-x="1288" 
d="M1219 1620q105 0 155 -73.5t29 -186.5q-59 -331 -438 -504l4 166q122 66 180 170q-79 19 -121 84t-27 149q14 84 75 139.5t143 55.5zM682 1067h227l-57 -319h-229l-58 -314q-10 -64 23.5 -93.5t85.5 -29.5q39 0 102 11l-55 -334q-90 -11 -168 -11q-206 0 -307 100
t-66 288l70 383h-193l58 319h194l64 344h372z" />
    <glyph glyph-name="Tbar" unicode="&#x166;" horiz-adv-x="1433" 
d="M1028 1182l-57 -322h233l-53 -301h-233l-99 -559h-393l98 559h-231l53 301h232l57 322h-479l61 350h1352l-62 -350h-479z" />
    <glyph glyph-name="tbar" unicode="&#x167;" horiz-adv-x="886" 
d="M631 748l-17 -84h224l-47 -267h-220q3 -45 34.5 -65.5t74.5 -20.5q39 0 102 11l-55 -334q-90 -11 -168 -11q-206 0 -307 100t-66 288l7 32h-197l47 267h199l14 84h-193l58 319h194l64 344h373l-64 -344h227l-57 -319h-227z" />
    <glyph glyph-name="Utilde" unicode="&#x168;" horiz-adv-x="1607" 
d="M901 1995q49 0 86 -16t55 -34.5t43.5 -34.5t53.5 -16q97 0 110 84h203q6 -153 -84.5 -258.5t-210.5 -105.5q-50 0 -87 16t-55 35t-43 35t-52 16q-101 0 -111 -90h-203q-6 154 85 261.5t210 107.5zM1657 1532l-156 -893q-59 -318 -257.5 -490t-510.5 -172
q-323 0 -481.5 185.5t-101.5 501.5l151 868h395l-157 -881q-55 -323 221 -323q149 0 236 88t114 246l152 870h395z" />
    <glyph glyph-name="utilde" unicode="&#x169;" horiz-adv-x="1247" 
d="M647 1589q40 0 71.5 -10.5t51 -25t36 -29t36.5 -25t43 -10.5q97 0 110 84h203q6 -153 -84.5 -258t-210.5 -105q-50 0 -87 16t-55 34.5t-43 34.5t-52 16q-101 0 -111 -90h-203q-3 77 21 146t65.5 117.5t96.5 76.5t112 28zM1024 0h-338l6 61q-87 -84 -248 -84
q-198 0 -291 111t-59 309l119 670h373l-103 -596q-13 -76 9 -110.5t79 -34.5q139 0 164 151l105 590h372z" />
    <glyph glyph-name="Umacron" unicode="&#x16a;" horiz-adv-x="1607" 
d="M1331 1645h-659l51 284h659zM1657 1532l-156 -893q-59 -318 -257.5 -490t-510.5 -172q-323 0 -481.5 185.5t-101.5 501.5l151 868h395l-157 -881q-55 -323 221 -323q149 0 236 88t114 246l152 870h395z" />
    <glyph glyph-name="umacron" unicode="&#x16b;" horiz-adv-x="1247" 
d="M1079 1247h-659l51 287h659zM1024 0h-338l6 61q-87 -84 -248 -84q-198 0 -291 111t-59 309l119 670h373l-103 -596q-13 -76 9 -110.5t79 -34.5q139 0 164 151l105 590h372z" />
    <glyph glyph-name="Ubreve" unicode="&#x16c;" horiz-adv-x="1607" 
d="M1182 1999h297q-32 -193 -153 -286t-300 -93q-199 0 -304.5 99.5t-72.5 279.5h299q-10 -64 16.5 -93.5t77.5 -29.5q54 0 91.5 36t48.5 87zM1657 1532l-156 -893q-59 -318 -257.5 -490t-510.5 -172q-323 0 -481.5 185.5t-101.5 501.5l151 868h395l-157 -881
q-55 -323 221 -323q149 0 236 88t114 246l152 870h395z" />
    <glyph glyph-name="ubreve" unicode="&#x16d;" horiz-adv-x="1247" 
d="M926 1585h297q-22 -132 -88 -218.5t-157 -123.5t-208 -37q-197 0 -303.5 101t-73.5 278h299q-10 -63 17 -93t75 -30q56 0 93 36t49 87zM1024 0h-338l6 61q-87 -84 -248 -84q-198 0 -291 111t-59 309l119 670h373l-103 -596q-13 -76 9 -110.5t79 -34.5q139 0 164 151
l105 590h372z" />
    <glyph glyph-name="Uring" unicode="&#x16e;" horiz-adv-x="1607" 
d="M1053 2087q115 0 182 -72.5t47 -181.5q-15 -92 -89.5 -150.5t-168.5 -58.5q-117 0 -183.5 73.5t-47.5 182.5q17 92 91 149.5t169 57.5zM1044 1927q-28 0 -48.5 -16.5t-26.5 -46.5q-6 -33 12 -55.5t51 -22.5q30 0 51 17t25 46q6 35 -12 56.5t-52 21.5zM1657 1532
l-156 -893q-59 -318 -257.5 -490t-510.5 -172q-323 0 -481.5 185.5t-101.5 501.5l151 868h395l-157 -881q-55 -323 221 -323q149 0 236 88t114 246l152 870h395z" />
    <glyph glyph-name="uring" unicode="&#x16f;" horiz-adv-x="1247" 
d="M805 1716q132 0 210 -84t56 -207q-20 -109 -107.5 -178t-197.5 -69q-133 0 -211 84.5t-55 210.5q19 106 106 174.5t199 68.5zM795 1526q-30 0 -53 -20.5t-31 -51.5q-8 -36 12.5 -61t58.5 -25q30 0 52 20t30 52q8 38 -11.5 62t-57.5 24zM1024 0h-338l6 61
q-87 -84 -248 -84q-198 0 -291 111t-59 309l119 670h373l-103 -596q-13 -76 9 -110.5t79 -34.5q139 0 164 151l105 590h372z" />
    <glyph glyph-name="Uhungarumlaut" unicode="&#x170;" horiz-adv-x="1607" 
d="M907 1634h-299l195 373h358zM1362 1634h-299l194 373h359zM1657 1532l-156 -893q-59 -318 -257.5 -490t-510.5 -172q-323 0 -481.5 185.5t-101.5 501.5l151 868h395l-157 -881q-55 -323 221 -323q149 0 236 88t114 246l152 870h395z" />
    <glyph glyph-name="uhungarumlaut" unicode="&#x171;" horiz-adv-x="1247" 
d="M664 1229h-297l196 395h361zM1118 1229h-297l197 395h360zM1024 0h-338l6 61q-87 -84 -248 -84q-198 0 -291 111t-59 309l119 670h373l-103 -596q-13 -76 9 -110.5t79 -34.5q139 0 164 151l105 590h372z" />
    <glyph glyph-name="Uogonek" unicode="&#x172;" horiz-adv-x="1607" 
d="M1657 1532l-156 -893q-51 -270 -202.5 -435.5t-389.5 -209.5q-67 -38 -103.5 -73t-43.5 -79q-6 -43 41 -43q40 0 100 29l29 -188q-84 -35 -182 -35q-135 0 -210.5 59t-56.5 172q14 90 105 152q-254 42 -371.5 220.5t-66.5 455.5l151 868h395l-157 -881q-55 -323 221 -323
q149 0 236 88t114 246l152 870h395z" />
    <glyph glyph-name="uogonek" unicode="&#x173;" horiz-adv-x="1247" 
d="M1024 0h-63q-77 -44 -116.5 -79t-47.5 -81q-6 -43 41 -43q40 0 100 29l29 -188q-84 -35 -183 -35q-135 0 -210 59t-56 172q19 117 170 191l4 36q-87 -84 -248 -84q-198 0 -291 111t-59 309l119 670h373l-103 -596q-13 -76 9 -110.5t79 -34.5q139 0 164 151l105 590h372z
" />
    <glyph glyph-name="Wcircumflex" unicode="&#x174;" horiz-adv-x="2312" 
d="M1747 1628h-301l-76 135l-135 -135h-320l295 348h363zM1669 0h-334l-125 844l-424 -844h-331l-265 1532h412l117 -877l430 877h324l118 -877l428 877h455z" />
    <glyph glyph-name="wcircumflex" unicode="&#x175;" horiz-adv-x="1765" 
d="M1409 1229h-301l-76 133l-135 -133h-319l301 373h362zM1257 0h-296l-93 449l-252 -449h-297l-223 1067h396l65 -526l270 526h263l81 -526l254 526h433z" />
    <glyph glyph-name="Ycircumflex" unicode="&#x176;" horiz-adv-x="1589" 
d="M1401 1628h-301l-76 135l-135 -135h-320l295 348h363zM1004 561l-105 -561h-395l104 561l-411 971h442l211 -580l430 580h473z" />
    <glyph glyph-name="ycircumflex" unicode="&#x177;" horiz-adv-x="1224" 
d="M1141 1229h-301l-76 133l-135 -133h-320l301 373h363zM352 -522h-415l399 653l-240 936h412l106 -532l289 532h416z" />
    <glyph glyph-name="Ydieresis" unicode="&#x178;" horiz-adv-x="1589" 
d="M801 2007q94 0 148.5 -65t37.5 -154q-12 -74 -69 -123t-130 -49q-92 0 -145.5 64t-38.5 155q12 72 70 122t127 50zM1251 2007q93 0 147.5 -64.5t39.5 -154.5q-12 -74 -70 -123t-131 -49q-92 0 -145.5 64t-38.5 155q14 72 71 122t127 50zM1004 561l-105 -561h-395l104 561
l-411 971h442l211 -580l430 580h473z" />
    <glyph glyph-name="Zacute" unicode="&#x179;" horiz-adv-x="1292" 
d="M1018 1628h-344l295 332h516zM1325 1233l-760 -883h627l-62 -350h-1146l53 299l758 883h-602l61 350h1124z" />
    <glyph glyph-name="zacute" unicode="&#x17a;" horiz-adv-x="942" 
d="M737 1229h-299l219 391h430zM911 821l-442 -520h360l-51 -301h-801l43 246l445 520h-346l53 301h782z" />
    <glyph glyph-name="Zdotaccent" unicode="&#x17b;" horiz-adv-x="1292" 
d="M895 2054q101 0 161.5 -72t41.5 -170q-13 -82 -79 -137t-145 -55q-102 0 -160.5 70t-41.5 170q15 82 80.5 138t142.5 56zM1325 1233l-760 -883h627l-62 -350h-1146l53 299l758 883h-602l61 350h1124z" />
    <glyph glyph-name="zdotaccent" unicode="&#x17c;" horiz-adv-x="942" 
d="M637 1616q101 0 159.5 -71.5t41.5 -170.5q-13 -82 -79 -137t-147 -55q-101 0 -160 69.5t-40 169.5q15 81 81.5 138t143.5 57zM911 821l-442 -520h360l-51 -301h-801l43 246l445 520h-346l53 301h782z" />
    <glyph glyph-name="Zcaron" unicode="&#x17d;" horiz-adv-x="1292" 
d="M1034 1628h-362l-176 348h303l75 -135l136 135h319zM1325 1233l-760 -883h627l-62 -350h-1146l53 299l758 883h-602l61 350h1124z" />
    <glyph glyph-name="zcaron" unicode="&#x17e;" horiz-adv-x="942" 
d="M780 1225h-362l-170 372h303l76 -131l135 131h319zM911 821l-442 -520h360l-51 -301h-801l43 246l445 520h-346l53 301h782z" />
    <glyph glyph-name="florin" unicode="&#x192;" horiz-adv-x="925" 
d="M944 1610q187 0 324 -88l-187 -289q-14 22 -41 35.5t-59 13.5q-64 0 -108.5 -31.5t-63.5 -89.5l-33 -94h215l-55 -309h-272l-375 -1049h-385l368 1049h-172l56 309h227l63 182q66 184 196.5 272.5t301.5 88.5z" />
    <glyph glyph-name="Aringacute" unicode="&#x1fa;" horiz-adv-x="1687" 
d="M1044 1581q-117 0 -184.5 73.5t-48.5 182.5q18 94 94 154l275 239h473l-420 -239q88 -72 67 -201q-15 -92 -89 -150.5t-167 -58.5zM1126 1806q6 35 -11 56.5t-52 21.5q-29 0 -49.5 -16.5t-26.5 -46.5q-6 -32 13 -55t51 -23q30 0 51 17t24 46zM1188 1532l397 -1532h-434
l-64 242h-589l-148 -242h-434l938 1532h334zM1008 549l-97 371l-225 -371h322z" />
    <glyph glyph-name="aringacute" unicode="&#x1fb;" horiz-adv-x="1159" 
d="M727 1169q-117 0 -183.5 73.5t-47.5 182.5q21 112 120 172l252 222h473l-421 -240q87 -74 63 -201q-15 -92 -88.5 -150.5t-167.5 -58.5zM811 1395q6 35 -11.5 56.5t-51.5 21.5q-28 0 -50 -16.5t-28 -45.5q-6 -34 12.5 -56t50.5 -22q30 0 52 16.5t26 45.5zM668 1090
q208 0 318.5 -118.5t74.5 -320.5l-115 -651h-346l12 66q-106 -89 -276 -89q-154 0 -237.5 92.5t-55.5 252.5q12 71 45.5 124t78 84.5t108 52t122.5 29t135 11.5l148 4l14 61q8 38 -11 65t-60 27q-57 0 -82.5 -27.5t-34.5 -72.5l-365 27q26 153 173 268t354 115zM645 410
l-88 -4q-63 -3 -101 -26.5t-44 -64.5q-6 -65 71 -65q58 0 101 34t55 95z" />
    <glyph glyph-name="AEacute" unicode="&#x1fc;" horiz-adv-x="2154" 
d="M1741 1628h-344l295 332h516zM1554 1182l-41 -230h523l-62 -342h-522l-45 -260h612l-63 -350h-1006l27 154h-447l-133 -154h-491l1311 1532h1007l-61 -350h-609zM1032 459l66 370l-314 -370h248z" />
    <glyph glyph-name="aeacute" unicode="&#x1fd;" horiz-adv-x="1806" 
d="M1149 1229h-299l219 391h430zM1264 1090q247 0 378.5 -147.5t96.5 -401.5l-17 -109h-678q-9 -75 27 -121.5t111 -46.5q100 0 141 84l375 -24q-46 -162 -191.5 -254.5t-330.5 -92.5q-254 0 -394 146q-177 -146 -379 -146q-199 0 -294 90t-66 255q12 71 45.5 124t78 84.5
t108 52t122.5 29t135 11.5l146 4l10 39l6 22q8 38 -11 65t-60 27q-57 0 -82.5 -27t-34.5 -73l-365 27q12 73 54 141.5t105.5 122.5t153 86.5t189.5 32.5q182 0 293 -91q142 91 328 91zM1257 815q-140 0 -180 -164h301q10 80 -22 122t-99 42zM645 410l-86 -4
q-132 -6 -147 -93q-4 -31 14.5 -47t56.5 -16q47 0 97 38t57 83z" />
    <glyph glyph-name="Oslashacute" unicode="&#x1fe;" horiz-adv-x="1802" 
d="M1268 1628h-344l295 332h516zM1798 1473l-180 -193q165 -218 131 -537q-24 -231 -141.5 -405.5t-303 -267.5t-413.5 -93q-227 0 -408 93l-176 -189l-221 185l178 188q-163 218 -129 534q24 231 141 405.5t303.5 267.5t415.5 93q225 0 404 -92l180 193zM532 743
q-6 -100 19 -182l584 621q-68 22 -146 22q-197 0 -320 -125t-137 -336zM1352 788q6 99 -21 187l-583 -623q64 -24 147 -24q197 0 320 124.5t137 335.5z" />
    <glyph glyph-name="oslashacute" unicode="&#x1ff;" horiz-adv-x="1316" 
d="M907 1229h-299l219 391h430zM1253 997l-106 -114q113 -154 86 -373q-16 -159 -99.5 -281t-216 -187t-292.5 -65q-146 0 -263 54l-129 -142l-188 152l127 139q-115 156 -88 377q16 159 99.5 281t216 187t292.5 65q151 0 269 -56l104 115zM455 510v-25l260 285h-19
q-104 0 -169.5 -70t-71.5 -190zM862 557v16l-254 -276h13q103 0 168.5 70t72.5 190z" />
    <glyph glyph-name="Scommaaccent" unicode="&#x218;" horiz-adv-x="1368" 
d="M1346 1065l-404 -16q10 78 -26 120.5t-113 42.5q-86 0 -140 -38.5t-63 -104.5q-8 -56 34 -87.5t177 -66.5q98 -25 171.5 -52t138 -67t103 -89t55 -117t5.5 -152q-17 -119 -73.5 -209.5t-141 -144.5t-185 -80.5t-216.5 -26.5q-194 0 -333.5 59.5t-207 176t-43.5 276.5
l403 15q-12 -87 36 -136t143 -49q94 0 151 33.5t64 100.5q7 55 -43 93.5t-168 67.5q-96 24 -162.5 46.5t-136 60.5t-108 85t-58 119t-6.5 162q14 97 59.5 180.5t119 148t182 101.5t239.5 37q278 0 428 -133.5t119 -355.5zM575 -100q105 0 155.5 -73.5t29.5 -186.5
q-59 -331 -438 -504l4 166q122 66 180 170q-79 19 -121 84t-27 149q14 84 74.5 139.5t142.5 55.5z" />
    <glyph glyph-name="scommaaccent" unicode="&#x219;" horiz-adv-x="1044" 
d="M999 735l-370 -8q7 45 -13.5 72.5t-60.5 27.5q-76 0 -86 -67q-4 -37 31.5 -57t120.5 -41q84 -21 143.5 -46t108.5 -64t69 -96t10 -132q-24 -160 -148.5 -253.5t-332.5 -93.5q-227 0 -341 92.5t-103 256.5l368 12q-9 -46 12.5 -72t75.5 -26q42 0 67 17.5t30 47.5
q3 31 -23.5 57t-99.5 46q-105 28 -164.5 50.5t-115 61.5t-73.5 98.5t-6 145.5q22 153 147 239.5t322 86.5q217 0 327.5 -102t104.5 -253zM389 -100q105 0 155 -73.5t29 -186.5q-59 -331 -438 -504l4 166q122 66 180 170q-79 19 -120.5 84t-26.5 149q14 84 74.5 139.5
t142.5 55.5z" />
    <glyph glyph-name="uni021A" unicode="&#x21a;" horiz-adv-x="1433" 
d="M1569 1532l-62 -350h-479l-209 -1182h-393l209 1182h-479l61 350h1352zM575 -90q105 0 155.5 -73.5t29.5 -186.5q-59 -331 -438 -504l4 166q122 66 180 170q-79 19 -121 84t-27 149q14 84 74.5 139.5t142.5 55.5z" />
    <glyph glyph-name="uni021B" unicode="&#x21b;" horiz-adv-x="886" 
d="M623 748l-58 -314q-10 -64 23.5 -93.5t85.5 -29.5q39 0 102 11l-55 -334q-90 -11 -168 -11q-206 0 -307 100t-66 288l70 383h-193l58 319h194l64 344h372l-63 -344h227l-57 -319h-229zM358 -106q105 0 155.5 -74t29.5 -187q-59 -330 -439 -503l5 165q122 66 180 170
q-79 19 -121 84.5t-27 149.5q14 84 74.5 139.5t142.5 55.5z" />
    <glyph glyph-name="dotlessj" unicode="&#x237;" 
d="M596 1067l-203 -1151q-22 -122 -69 -212.5t-113.5 -144t-144.5 -79t-168 -25.5q-203 0 -324 90l184 291q49 -53 101 -53q65 0 108 36.5t53 100.5l203 1147h373z" />
    <glyph glyph-name="circumflex" unicode="&#x2c6;" horiz-adv-x="849" 
d="M958 1229h-301l-75 133l-136 -133h-319l301 373h363z" />
    <glyph glyph-name="caron" unicode="&#x2c7;" horiz-adv-x="849" 
d="M733 1225h-362l-170 372h303l76 -131l135 131h319z" />
    <glyph glyph-name="breve" unicode="&#x2d8;" horiz-adv-x="849" 
d="M727 1585h297q-22 -132 -88 -218.5t-157 -123.5t-208 -37q-197 0 -303 101t-73 278h299q-10 -63 17 -93t75 -30q56 0 92.5 36t48.5 87z" />
    <glyph glyph-name="dotaccent" unicode="&#x2d9;" horiz-adv-x="450" 
d="M389 1616q101 0 159.5 -71.5t41.5 -170.5q-13 -82 -78.5 -137t-146.5 -55q-102 0 -161 70t-40 169q15 81 81.5 138t143.5 57z" />
    <glyph glyph-name="ring" unicode="&#x2da;" horiz-adv-x="595" 
d="M479 1716q132 0 210 -84t56 -207q-20 -109 -107.5 -178t-197.5 -69q-133 0 -211 84.5t-55 210.5q19 106 106 174.5t199 68.5zM469 1526q-30 0 -53 -20.5t-31 -51.5q-8 -36 13 -61t59 -25q30 0 52 20t30 52q7 38 -12.5 62t-57.5 24z" />
    <glyph glyph-name="ogonek" unicode="&#x2db;" horiz-adv-x="483" 
d="M256 100l74 -92q-77 -43 -118.5 -79t-49.5 -83q-6 -43 41 -43q40 0 100 29l29 -188q-84 -35 -182 -35q-135 0 -210.5 59t-56.5 172q9 51 40 92.5t83 72t111 52.5t139 43z" />
    <glyph glyph-name="tilde" unicode="&#x2dc;" horiz-adv-x="815" 
d="M432 1589q40 0 71.5 -10.5t51 -25t36 -29t36.5 -25t43 -10.5q97 0 110 84h203q6 -153 -84.5 -258t-210.5 -105q-50 0 -87 16t-55 34.5t-43 34.5t-52 16q-101 0 -111 -90h-203q-3 77 21 146t65.5 117.5t96.5 76.5t112 28z" />
    <glyph glyph-name="hungarumlaut" unicode="&#x2dd;" horiz-adv-x="950" 
d="M424 1229h-297l197 395h360zM879 1229h-297l196 395h361z" />
    <glyph glyph-name="uni0326" unicode="&#x326;" horiz-adv-x="0" 
d="M137 -90q104 0 154 -73.5t31 -186.5q-59 -332 -439 -504l4 166q122 67 179 168q-77 19 -119 84.5t-29 150.5q15 83 76 139t143 56z" />
    <glyph glyph-name="Omega" unicode="&#x3a9;" horiz-adv-x="1652" 
d="M969 1495q215 0 362 -99.5t203 -266t20 -371.5q-27 -149 -96.5 -278t-157.5 -204l269 9l-51 -285h-670l39 270q130 73 231 220t129 303q33 189 -39.5 302t-234.5 113q-184 0 -317 -129.5t-169 -333.5q-26 -144 16.5 -280t145.5 -207l-35 -258h-667l51 285l287 10
q-64 79 -95 216t-4 294q26 145 94 271t168 219t234.5 146.5t286.5 53.5z" />
    <glyph glyph-name="mu" unicode="&#x3bc;" horiz-adv-x="1257" 
d="M1223 1067l-189 -1067h-338l6 61q-87 -84 -247 -84q-28 0 -52 3l-88 -502h-372l157 889l4 30l119 670h373l-102 -596q-13 -76 9 -110.5t79 -34.5q72 0 111.5 38t51.5 113l105 590h373z" />
    <glyph glyph-name="pi" unicode="&#x3c0;" horiz-adv-x="1552" 
d="M1169 621l-82 -283q-15 -43 -13 -46q1 -1 5 -1q39 0 82 37l148 -234q-118 -112 -281 -112t-226 99.5t-16 258.5l84 281h-149l-113 -377q-49 -156 -121 -254l-356 20q15 23 54 81.5t54.5 83.5t36.5 68.5t33 82.5l97 295q-54 -1 -105 -35.5t-84 -81.5l-143 274
q72 63 124 96t132 54.5t188 21.5h504q83 0 142 21.5t91 53t60 81.5l270 -191q-128 -294 -403 -294h-13z" />
    <glyph glyph-name="Wgrave" unicode="&#x1e80;" horiz-adv-x="2312" 
d="M1485 1628h-328l-350 332h500zM1669 0h-334l-125 844l-424 -844h-331l-265 1532h412l117 -877l430 877h324l118 -877l428 877h455z" />
    <glyph glyph-name="wgrave" unicode="&#x1e81;" horiz-adv-x="1765" 
d="M1128 1229h-282l-211 391h414zM1257 0h-296l-93 449l-252 -449h-297l-223 1067h396l65 -526l270 526h263l81 -526l254 526h433z" />
    <glyph glyph-name="Wacute" unicode="&#x1e82;" horiz-adv-x="2312" 
d="M1505 1628h-344l295 332h516zM1669 0h-334l-125 844l-424 -844h-331l-265 1532h412l117 -877l430 877h324l118 -877l428 877h455z" />
    <glyph glyph-name="wacute" unicode="&#x1e83;" horiz-adv-x="1765" 
d="M1141 1229h-299l219 391h430zM1257 0h-296l-93 449l-252 -449h-297l-223 1067h396l65 -526l270 526h263l81 -526l254 526h433z" />
    <glyph glyph-name="Wdieresis" unicode="&#x1e84;" horiz-adv-x="2312" 
d="M1147 2007q94 0 148.5 -65t37.5 -154q-12 -74 -68.5 -123t-129.5 -49q-92 0 -146 64t-39 155q12 72 70 122t127 50zM1597 2007q93 0 147.5 -64.5t39.5 -154.5q-12 -74 -70 -123t-131 -49q-92 0 -145.5 64t-38.5 155q14 72 71 122t127 50zM1669 0h-334l-125 844l-424 -844
h-331l-265 1532h412l117 -877l430 877h324l118 -877l428 877h455z" />
    <glyph glyph-name="wdieresis" unicode="&#x1e85;" horiz-adv-x="1765" 
d="M807 1583q94 0 148.5 -65t37.5 -154q-14 -74 -71 -123t-129 -49q-92 0 -146 64t-37 155q12 73 69 122.5t128 49.5zM1255 1583q93 0 148.5 -64.5t40.5 -154.5q-15 -74 -73 -123t-130 -49q-92 0 -144.5 64t-37.5 155q12 73 69 122.5t127 49.5zM1257 0h-296l-93 449
l-252 -449h-297l-223 1067h396l65 -526l270 526h263l81 -526l254 526h433z" />
    <glyph glyph-name="Ygrave" unicode="&#x1ef2;" horiz-adv-x="1589" 
d="M1139 1628h-328l-350 332h500zM1004 561l-105 -561h-395l104 561l-411 971h442l211 -580l430 580h473z" />
    <glyph glyph-name="ygrave" unicode="&#x1ef3;" horiz-adv-x="1224" 
d="M860 1229h-282l-211 391h413zM352 -522h-415l399 653l-240 936h412l106 -532l289 532h416z" />
    <glyph glyph-name="endash" unicode="&#x2013;" horiz-adv-x="1163" 
d="M1042 362h-981l62 351h981z" />
    <glyph glyph-name="emdash" unicode="&#x2014;" horiz-adv-x="1638" 
d="M1518 362h-1457l62 351h1456z" />
    <glyph glyph-name="quoteleft" unicode="&#x2018;" horiz-adv-x="512" 
d="M598 1626l-4 -166q-122 -66 -180 -168q78 -19 119 -83.5t28 -149.5q-14 -84 -75.5 -139.5t-143.5 -55.5q-104 0 -153.5 72.5t-30.5 187.5q63 333 440 502z" />
    <glyph glyph-name="quoteright" unicode="&#x2019;" horiz-adv-x="512" 
d="M420 1620q105 0 155 -73.5t29 -186.5q-59 -331 -438 -504l4 166q122 66 180 170q-79 19 -120.5 84t-26.5 149q14 84 74.5 139.5t142.5 55.5z" />
    <glyph glyph-name="quotesinglbase" unicode="&#x201a;" horiz-adv-x="512" 
d="M207 412q104 0 154.5 -74t29.5 -186q-59 -330 -438 -504l4 166q118 64 180 170q-78 19 -120 84t-29 149q15 84 76 139.5t143 55.5z" />
    <glyph glyph-name="quotedblleft" unicode="&#x201c;" horiz-adv-x="993" 
d="M150 1124q59 331 438 504l-4 -166q-124 -67 -181 -170q79 -19 121 -84t27 -149q-14 -84 -74.5 -139.5t-142.5 -55.5q-105 0 -155 73.5t-29 186.5zM1071 1628l-4 -166q-122 -66 -180 -170q79 -19 120.5 -84t26.5 -149q-14 -84 -74.5 -139.5t-142.5 -55.5q-105 0 -155 73.5
t-29 186.5q59 331 438 504z" />
    <glyph glyph-name="quotedblright" unicode="&#x201d;" horiz-adv-x="993" 
d="M418 1620q105 0 155 -73.5t29 -186.5q-59 -331 -438 -504l4 166q122 66 180 170q-79 19 -120.5 84t-26.5 149q14 84 74.5 139.5t142.5 55.5zM899 1620q105 0 155 -73.5t29 -186.5q-59 -331 -438 -504l4 166q122 66 180 170q-79 19 -120.5 84t-26.5 149q14 84 74.5 139.5
t142.5 55.5z" />
    <glyph glyph-name="quotedblbase" unicode="&#x201e;" horiz-adv-x="993" 
d="M213 412q104 0 153.5 -73.5t30.5 -186.5q-31 -162 -136 -287.5t-304 -216.5l4 166q122 66 180 170q-79 19 -120.5 84t-26.5 149q14 84 75.5 139.5t143.5 55.5zM694 412q104 0 154 -73.5t31 -186.5q-62 -331 -441 -504l4 166q124 67 181 170q-79 19 -121 84t-27 149
q14 84 75.5 139.5t143.5 55.5z" />
    <glyph glyph-name="dagger" unicode="&#x2020;" horiz-adv-x="1146" 
d="M868 1157h359l-58 -336h-358l-170 -958h-373l170 958h-356l57 336h357l67 375h373z" />
    <glyph glyph-name="daggerdbl" unicode="&#x2021;" horiz-adv-x="1146" 
d="M868 1157h359l-58 -336h-358l-43 -248h356l-59 -335h-356l-68 -375h-373l66 375h-357l60 335h358l43 248h-358l59 336h357l67 375h373z" />
    <glyph glyph-name="bullet" unicode="&#x2022;" horiz-adv-x="714" 
d="M377 788q120 0 191.5 -85.5t49.5 -202.5q-19 -104 -101 -175t-181 -71q-121 0 -193.5 86t-50.5 205q19 103 101.5 173t183.5 70z" />
    <glyph glyph-name="ellipsis" unicode="&#x2026;" horiz-adv-x="1789" 
d="M236 412q102 0 161.5 -71.5t42.5 -170.5q-13 -82 -79 -137.5t-146 -55.5q-101 0 -160.5 71t-40.5 169q13 82 78 138.5t144 56.5zM823 412q101 0 161.5 -72t41.5 -170q-13 -82 -79 -137.5t-146 -55.5q-101 0 -159.5 70.5t-41.5 169.5q13 83 78 139t145 56zM1409 412
q101 0 161.5 -72t41.5 -170q-13 -82 -78.5 -137.5t-144.5 -55.5q-102 0 -161 70.5t-42 169.5q15 83 79 139t144 56z" />
    <glyph glyph-name="perthousand" unicode="&#x2030;" horiz-adv-x="2721" 
d="M586 1554q176 0 269 -116.5t60 -302.5q-29 -169 -143.5 -271t-269.5 -102q-176 0 -270 117.5t-62 302.5q30 170 145 271t271 101zM553 0h-367l1235 1532h369zM571 1296q-113 0 -135 -151q-6 -59 15 -92t65 -33q54 0 88.5 39.5t44.5 114.5q6 59 -14 90.5t-64 31.5z
M1477 770q176 0 269 -116.5t58 -301.5q-29 -170 -143.5 -272.5t-269.5 -102.5q-176 0 -270 118t-62 304q30 168 146 269.5t272 101.5zM2304 770q176 0 269.5 -116.5t60.5 -301.5q-29 -170 -144.5 -272.5t-271.5 -102.5q-176 0 -269 118t-61 304q30 169 145.5 270t270.5 101z
M1460 512q-114 0 -133 -152q-10 -57 14 -90.5t68 -33.5q110 0 129 153q7 58 -14 90.5t-64 32.5zM2290 512q-117 0 -136 -152q-10 -57 14 -90.5t68 -33.5q109 0 131 153q6 59 -14 91t-63 32z" />
    <glyph glyph-name="guilsinglleft" unicode="&#x2039;" horiz-adv-x="731" 
d="M745 770l-268 -258l176 -258l-288 -215l-336 504l471 485z" />
    <glyph glyph-name="guilsinglright" unicode="&#x203a;" horiz-adv-x="731" 
d="M705 522l-472 -485l-245 258l268 258l-176 258l289 215z" />
    <glyph glyph-name="fraction" unicode="&#x2044;" horiz-adv-x="485" 
d="M-162 0h-389l1280 1532h389z" />
    <glyph glyph-name="Euro" unicode="&#x20ac;" horiz-adv-x="1445" 
d="M920 328q158 0 290 106l144 -344q-111 -61 -212 -87t-243 -26q-234 0 -401.5 132t-210.5 370h-267l117 230h139q3 36 9 79l2 21h-221l116 231h168q65 166 182.5 284.5t255 174t285.5 55.5q146 0 241 -32.5t189 -100.5l-157 -311q-94 94 -250 94q-195 0 -310 -164h521
l-119 -231h-496q-1 -4 -12 -66l-4 -34h465l-117 -230h-330q54 -151 226 -151z" />
    <glyph glyph-name="trademark" unicode="&#x2122;" horiz-adv-x="1849" 
d="M874 1268h-223l-84 -471h-272l84 471h-219l47 264h713zM1786 797h-275l43 231l-153 -221h-123l-72 221l-43 -231h-272l131 735h223l144 -404l286 404h242z" />
    <glyph glyph-name="estimated" unicode="&#x212e;" horiz-adv-x="1224" 
d="M637 1110q111 0 204.5 -34t164 -100t110 -170.5t39.5 -236.5h-756v-368q0 -31 4 -51.5t23 -44.5t55 -39q51 -19 156 -19q140 0 253 67t189 191l66 -43q-88 -138 -219 -214.5t-289 -76.5q-161 0 -290 69.5t-203 199.5t-74 299q0 258 160 414.5t407 156.5zM637 1034
q-100 0 -162 -24q-76 -31 -76 -133v-234h455v229q0 63 -14 93.5t-60 48.5q-72 20 -143 20z" />
    <glyph glyph-name="partialdiff" unicode="&#x2202;" horiz-adv-x="1259" 
d="M690 1554q164 0 279 -60.5t175 -174t77.5 -276.5t-13.5 -369q-49 -342 -214.5 -519.5t-418.5 -177.5t-393.5 151t-107.5 400q32 216 186 340.5t377 124.5q122 0 213 -51q6 57 7.5 98.5t-8 70.5t-21 47t-32.5 28.5t-42 14t-49 3.5q-160 0 -287 -117l-185 340
q212 127 457 127zM580 328q83 0 142.5 54.5t68.5 131.5l2 18q9 73 -20 113.5t-89 40.5q-80 0 -139.5 -55.5t-71.5 -145.5q-9 -75 18 -116t89 -41z" />
    <glyph glyph-name="product" unicode="&#x220f;" horiz-adv-x="1376" 
d="M1462 1182h-186l-268 -1518h-338l268 1518h-270l-269 -1518h-338l269 1518h-187l62 350h1319z" />
    <glyph glyph-name="summation" unicode="&#x2211;" horiz-adv-x="1228" 
d="M1264 1182h-609l242 -416l-379 -416h600l-63 -350h-1055l47 291l440 475l-264 475l47 291h1055z" />
    <glyph glyph-name="minus" unicode="&#x2212;" horiz-adv-x="1122" 
d="M1071 586h-1001l61 350h1002z" />
    <glyph glyph-name="radical" unicode="&#x221a;" horiz-adv-x="1437" 
d="M1546 1288l-913 -1446l-219 629l-228 -125l-137 293l572 319l116 -360l516 821z" />
    <glyph glyph-name="infinity" unicode="&#x221e;" horiz-adv-x="1579" 
d="M1161 1051q187 0 291.5 -133t77.5 -322q-25 -173 -147 -291.5t-287 -118.5q-61 0 -112.5 13t-92 38.5t-67.5 49.5t-58 59l-18 21l-25 -25q-133 -127 -305 -127q-175 0 -269 123t-69 303q24 164 133 274.5t262 110.5q56 0 100.5 -10t81 -32.5t59 -42.5t56.5 -54l21 -19
l24 21q50 43 80.5 66.5t74 48.5t89.5 36t100 11zM1155 735q-14 0 -26.5 -2t-21.5 -4t-21.5 -9t-18.5 -9.5t-19.5 -13.5t-17 -14t-19.5 -18t-20 -18l-37 -37l19 -24q63 -84 129 -84q55 0 86 31t39 85q5 45 -17 81t-55 36zM477 723q-49 0 -78 -33.5t-37 -81.5
q-4 -39 15.5 -65.5t50.5 -26.5q80 0 141 72l25 28l-10 17q-59 90 -107 90z" />
    <glyph glyph-name="integral" unicode="&#x222b;" horiz-adv-x="686" 
d="M627 1554q142 0 254 -47l-84 -272q-45 18 -90 18q-29 0 -56.5 -19.5t-32.5 -41.5l-212 -1219q-28 -158 -111 -240.5t-211 -82.5q-63 0 -115 8t-78 16t-63 23l86 272q50 -18 76 -18q34 0 64.5 20t35.5 39l213 1221q28 159 111 241t213 82z" />
    <glyph glyph-name="approxequal" unicode="&#x2248;" horiz-adv-x="1124" 
d="M1065 1249l139 -268q-175 -190 -356 -190q-59 0 -113.5 17t-89.5 38t-79.5 38t-84.5 17q-77 0 -136 -26.5t-112 -83.5l-141 268q172 190 357 190q60 0 115 -17.5t89 -38.5t77 -38.5t83 -17.5q78 0 137 26.5t115 85.5zM973 731l141 -268q-182 -191 -358 -191
q-59 0 -113 17.5t-88.5 39t-79 39t-84.5 17.5q-77 0 -136.5 -27t-115.5 -86l-137 271q173 188 356 188q60 0 115 -17t89 -38t77.5 -38t83.5 -17q77 0 136.5 26.5t113.5 83.5z" />
    <glyph glyph-name="notequal" unicode="&#x2260;" horiz-adv-x="1122" 
d="M803 840l-64 -160h348l-61 -348h-422l-90 -230l-311 74l61 156h-239l61 348h313l62 160h-346l61 350h422l86 221l313 -72l-59 -149h240l-62 -350h-313z" />
    <glyph glyph-name="lessequal" unicode="&#x2264;" horiz-adv-x="1126" 
d="M1169 1114l-282 -121l237 -121l-63 -385l-918 506l1092 502zM985 63h-1005l59 351h1005z" />
    <glyph glyph-name="greaterequal" unicode="&#x2265;" horiz-adv-x="1126" 
d="M1147 993l-1092 -506l64 385l282 121l-237 121l63 381zM983 63h-1003l59 351h1003z" />
    <glyph glyph-name="lozenge" unicode="&#x25ca;" horiz-adv-x="1171" 
d="M1153 709l-557 -822h-240l-276 822l559 823h240zM469 709l86 -293l211 293l-86 290z" />
    <glyph glyph-name="fl" unicode="&#xfb02;" horiz-adv-x="1456" 
d="M846 1606q72 0 133 -11l-57 -317q-18 4 -60 4q-75 0 -131 -44.5t-67 -104.5l-11 -66h234l-60 -319h-231l-131 -748h-375l131 748h-182l57 319h183l16 82q36 209 188.5 333t362.5 124zM1233 0h-373l281 1591h372z" />
    <glyph glyph-name="n.001" horiz-adv-x="1277" 
d="M741 1090q191 0 304.5 -112.5t113.5 -315.5v-662h-373v575q0 166 -139 166q-67 0 -106 -44t-39 -124v-573h-373v1067h352v-72q35 42 101.5 68.5t158.5 26.5z" />
    <glyph glyph-name="germandbls.cap" horiz-adv-x="1458" 
d="M856 1548q386 0 567 -256l-293 -360q51 -24 91 -52.5t76.5 -68.5t55 -87.5t27 -110.5t-7.5 -136q-39 -227 -214 -360t-423 -133q-129 0 -237 24l112 342q42 -16 113 -16q94 0 164 49t88 141q19 114 -52.5 173t-232.5 96l262 364q-38 41 -118 41q-87 0 -154 -52.5
t-84 -139.5l-176 -1006h-395l182 1026q42 243 222.5 382.5t426.5 139.5z" />
    <glyph glyph-name="a.sups" horiz-adv-x="956" 
d="M627 1550q199 0 294.5 -91.5t63.5 -262.5l-92 -522h-313l8 45q-87 -64 -211 -64q-140 0 -210.5 65.5t-53.5 190.5q9 59 37.5 103.5t67.5 72t95.5 46.5t112 27.5t127.5 13.5l98 8l6 41q3 32 -10 50.5t-41 18.5q-36 0 -58.5 -20t-27.5 -53l-325 10q10 59 45 115.5
t88.5 102.5t131.5 74.5t167 28.5zM616 999l-71 -10q-78 -10 -86 -57q-4 -23 10.5 -34t42.5 -11q36 0 63 17.5t33 49.5z" />
    <glyph glyph-name="b.sups" horiz-adv-x="1089" 
d="M678 1948l-78 -432q70 34 164 34q192 0 291 -128.5t73 -334.5q-23 -187 -155 -309.5t-309 -122.5q-122 0 -211 60l-11 -41h-323l225 1274h334zM678 1268q-62 0 -99.5 -40t-48.5 -112l-2 -12q-12 -72 21 -118t96 -46q59 0 98 39.5t48 112.5q12 81 -20.5 128.5t-92.5 47.5z
" />
    <glyph glyph-name="c.sups" horiz-adv-x="995" 
d="M637 1550q174 0 288 -93.5t124 -252.5l-320 -18q-3 37 -25.5 59.5t-58.5 22.5q-64 0 -102 -50t-49 -139q-6 -66 22.5 -102.5t73.5 -36.5q97 0 121 92l319 -35q-41 -158 -160.5 -250t-273.5 -92q-213 0 -335 128.5t-99 342.5q21 197 153 310.5t322 113.5z" />
    <glyph glyph-name="d.sups" horiz-adv-x="1091" 
d="M1020 674h-303l4 31q-86 -50 -195 -50q-192 0 -291 128.5t-73 334.5q23 187 155.5 309.5t307.5 122.5q97 0 206 -47l80 445h332zM643 1268q-59 0 -97 -39.5t-48 -114.5q-10 -81 21.5 -127.5t90.5 -46.5q63 0 101 39t49 111l2 12q11 74 -22 120t-97 46z" />
    <glyph glyph-name="e.sups" horiz-adv-x="993" 
d="M647 1550q200 0 308.5 -119t78.5 -327l-12 -92h-518l-2 -11q-8 -41 14 -65.5t70 -24.5q65 0 82 50l336 -21q-37 -128 -156.5 -206.5t-263.5 -78.5q-220 0 -335.5 129t-84.5 342q28 196 159.5 310t323.5 114zM641 1303q-93 0 -111 -97h181q11 97 -70 97z" />
    <glyph glyph-name="f.sups" horiz-adv-x="669" 
d="M793 1960q66 0 114 -10l-51 -285q-24 6 -57 6q-58 0 -96 -31t-46 -77l-4 -31h181l-52 -285h-180l-100 -573h-334l102 573h-143l51 285h144l8 51q30 171 159.5 274t303.5 103z" />
    <glyph glyph-name="g.sups" horiz-adv-x="1081" 
d="M627 1550q118 0 213 -59l10 41h319l-155 -887q-34 -188 -168.5 -296.5t-339.5 -108.5q-220 0 -322 91.5t-94 256.5l326 10q-6 -38 16.5 -58t75.5 -20q71 0 117 33t55 94l6 43q-91 -35 -164 -35q-130 0 -220.5 61t-126 168t-11.5 242q35 190 162 307t301 117zM651 1268
q-60 0 -100 -39.5t-53 -114.5q-13 -81 17 -127.5t89 -46.5q64 0 104 38.5t52 108.5l4 27q10 70 -21 112t-92 42z" />
    <glyph glyph-name="h.sups" horiz-adv-x="1028" 
d="M678 1948l-88 -437q66 39 168 39q165 0 247.5 -94.5t53.5 -261.5l-94 -520h-332l82 459q17 108 -56 108q-108 0 -129 -119l-77 -448h-334l225 1274h334z" />
    <glyph glyph-name="i.sups" horiz-adv-x="522" 
d="M487 1978q91 0 144.5 -64t36.5 -153q-12 -71 -67.5 -118.5t-125.5 -47.5q-90 0 -142.5 62.5t-37.5 150.5q12 71 68.5 120.5t123.5 49.5zM453 674h-334l151 858h334z" />
    <glyph glyph-name="j.sups" horiz-adv-x="522" 
d="M485 1978q92 0 146 -64t37 -153q-12 -72 -68 -119t-127 -47q-90 0 -141.5 62.5t-36.5 150.5q12 72 67 121t123 49zM604 1532l-162 -911q-30 -173 -158.5 -276t-303.5 -103q-65 0 -115 8l49 285q20 -5 49 -5q58 0 101 34t51 75l155 893h334z" />
    <glyph glyph-name="k.sups" horiz-adv-x="1024" 
d="M557 1292l223 240h412l-365 -367l205 -491h-360l-99 252l-86 -78l-34 -174h-334l225 1274h334z" />
    <glyph glyph-name="l.sups" horiz-adv-x="522" 
d="M453 674h-334l225 1274h334z" />
    <glyph glyph-name="m.sups" horiz-adv-x="1515" 
d="M1251 1550q164 0 244 -94.5t51 -261.5l-92 -520h-332l80 459q10 58 -2 83t-49 25q-90 0 -111 -86l-6 -31l-80 -450h-333l81 459q10 58 -2 83t-51 25q-98 0 -119 -117l-77 -450h-334l151 858h305l-8 -31q64 49 185 49q177 0 254 -106q99 106 245 106z" />
    <glyph glyph-name="n.sups" horiz-adv-x="1028" 
d="M758 1550q165 0 247.5 -94.5t53.5 -261.5l-94 -520h-332l84 456q17 111 -60 111q-51 0 -84 -30.5t-43 -88.5l-77 -448h-334l151 858h305l-6 -31q58 49 189 49z" />
    <glyph glyph-name="o.sups" horiz-adv-x="1058" 
d="M666 1550q217 0 339 -132.5t91 -338.5q-26 -192 -164.5 -308t-335.5 -116q-219 0 -341 131.5t-91 339.5q26 191 166 307.5t336 116.5zM662 1268q-69 0 -114.5 -50t-53.5 -133q-4 -70 23.5 -107.5t82.5 -37.5q70 0 116 48.5t52 129.5q6 72 -22 111t-84 39z" />
    <glyph glyph-name="p.sups" horiz-adv-x="1089" 
d="M766 1550q192 0 291 -128.5t73 -334.5q-23 -187 -155 -309.5t-309 -122.5q-102 0 -205 50l-80 -449h-334l223 1276h303l-2 -31q80 49 195 49zM680 1268q-62 0 -99.5 -40t-48.5 -112l-2 -12q-12 -72 21 -118t96 -46q59 0 98 39.5t48 112.5q12 81 -20.5 128.5t-92.5 47.5z
" />
    <glyph glyph-name="q.sups" horiz-adv-x="1089" 
d="M625 1550q128 0 211 -59l12 41h321l-225 -1276h-332l76 434q-68 -35 -164 -35q-191 0 -289.5 128.5t-72.5 334.5q23 187 155.5 309.5t307.5 122.5zM643 1268q-59 0 -97 -39.5t-48 -114.5q-10 -81 21.5 -127.5t90.5 -46.5q124 0 150 150l2 12q11 74 -22 120t-97 46z" />
    <glyph glyph-name="r.sups" horiz-adv-x="665" 
d="M815 1540l-59 -321q-94 0 -159 -49t-79 -128l-65 -368h-334l151 858h314l-4 -53q77 61 235 61z" />
    <glyph glyph-name="s.sups" horiz-adv-x="839" 
d="M567 1550q186 0 275 -81.5t78 -213.5l-332 -2q16 64 -27 64q-50 0 -53 -45q-3 -17 20.5 -33t75.5 -31q28 -9 49 -16t45 -16.5t42 -18.5t37.5 -20.5t32.5 -23.5t26 -26.5t20 -31.5t12 -36t5 -41.5t-5 -47.5q-24 -129 -125.5 -202t-271.5 -73q-193 0 -286.5 77t-78.5 220
l334 2q-7 -28 1.5 -46.5t37.5 -18.5q51 0 60 45q3 16 -12 29.5t-62 29.5q-155 50 -204 79q-85 51 -90 139q-2 33 5 73q22 125 126 195.5t265 70.5z" />
    <glyph glyph-name="t.sups" horiz-adv-x="722" 
d="M631 1247l-39 -213q-8 -45 16 -63.5t60 -18.5q21 0 84 9l-54 -299q-92 -9 -135 -9q-174 0 -259 83.5t-56 238.5l51 272h-156l52 285h155l51 272h332l-49 -272h172l-51 -285h-174z" />
    <glyph glyph-name="u.sups" horiz-adv-x="1005" 
d="M936 674h-299l4 33q-64 -52 -184 -52q-163 0 -240 88.5t-49 249.5l94 539h334l-84 -467q-9 -51 2 -75.5t47 -24.5q94 0 111 98l82 469h333z" />
    <glyph glyph-name="v.sups" horiz-adv-x="1005" 
d="M657 674h-262l-219 858h342l78 -342l199 342h385z" />
    <glyph glyph-name="w.sups" horiz-adv-x="1435" 
d="M1128 674h-260l-57 393l-195 -393h-260l-180 858h342l53 -363l185 363h231l53 -363l187 363h385z" />
    <glyph glyph-name="x.sups" horiz-adv-x="964" 
d="M803 1073l170 -399h-357l-67 194l-131 -194h-385l329 454l-174 404h357l67 -201l144 201h381z" />
    <glyph glyph-name="y.sups" horiz-adv-x="1005" 
d="M401 256h-372l338 543l-191 733h352l80 -342l199 342h373z" />
    <glyph glyph-name="z.sups" horiz-adv-x="768" 
d="M838 1303l-320 -363h264l-47 -266h-653l41 229l317 361h-247l47 268h639z" />
    <glyph glyph-name="zero.onum" horiz-adv-x="1345" 
d="M729 1231q137 0 248 -46t185 -129t106.5 -204.5t15.5 -267.5q-33 -279 -210.5 -443t-432.5 -164q-278 0 -434 178.5t-123 473.5q36 278 213 440t432 162zM727 881q-97 0 -162.5 -79.5t-77.5 -217.5q-10 -123 32 -189.5t122 -66.5q98 0 163 80.5t77 220.5
q10 122 -31.5 187t-122.5 65z" />
    <glyph glyph-name="one.onum" horiz-adv-x="831" 
d="M600 0h-393l123 705l-131 -78l-142 315l467 266h289z" />
    <glyph glyph-name="two.onum" horiz-adv-x="1118" 
d="M670 1231q161 0 266 -63t142.5 -166.5t13.5 -233.5q-12 -64 -36 -116.5t-62 -94.5t-81 -75.5t-104 -69.5l-100 -62h307l-62 -350h-972l57 319l455 263q103 59 146 98t54 102q8 45 -9.5 72t-57.5 27q-93 0 -121 -136l-389 23q41 218 188.5 340.5t364.5 122.5z" />
    <glyph glyph-name="three.onum" horiz-adv-x="1177" 
d="M674 1231q247 0 361.5 -133.5t74.5 -356.5q-12 -72 -37.5 -124.5t-58.5 -88t-86 -73.5q53 -36 83.5 -126.5t8.5 -207.5q-39 -221 -194 -344t-375 -123q-260 0 -380.5 133.5t-82.5 355.5l395 -2q-24 -137 90 -137q131 0 156 154q12 64 -15 102.5t-88 38.5h-176l60 330h145
q61 0 106 33t58 100q8 55 -10.5 87t-59.5 32q-112 0 -145 -152l-385 47q42 220 183.5 337.5t371.5 117.5z" />
    <glyph glyph-name="four.onum" horiz-adv-x="1245" 
d="M928 238h211l-62 -351h-211l-37 -211h-335l36 211h-596l58 326l807 995h301zM393 238h199l59 321z" />
    <glyph glyph-name="five.onum" horiz-adv-x="1181" 
d="M584 858l-31 -194q30 6 70 6q107 0 195.5 -33.5t149.5 -96.5t85.5 -163t3.5 -225q-34 -232 -187.5 -365t-386.5 -133q-247 0 -373.5 125t-99.5 330l396 12q-7 -56 20 -86.5t80 -30.5q71 0 109.5 42.5t50.5 127.5q10 67 -15.5 105t-77.5 38t-110 -28l-375 -2l164 921h930
l-62 -350h-536z" />
    <glyph glyph-name="six.onum" horiz-adv-x="1263" 
d="M1317 1532l-465 -537q179 -49 276 -188.5t68 -331.5q-32 -226 -192 -362t-390 -136q-167 0 -295.5 68t-192 193.5t-40.5 283.5q28 189 150 328l600 682h481zM797 516q10 95 -25 138.5t-100 43.5q-78 0 -129 -57q-49 -61 -58 -133q-9 -93 26 -136.5t101 -43.5q80 0 129 56
t56 132z" />
    <glyph glyph-name="seven.onum" horiz-adv-x="1110" 
d="M1112 891l-737 -1215h-457l735 1182h-555l64 350h1007z" />
    <glyph glyph-name="eight.onum" horiz-adv-x="1277" 
d="M774 1554q156 0 271 -56t170 -163.5t32 -249.5q-25 -164 -145 -278q53 -63 77.5 -155t6.5 -206q-23 -145 -109.5 -252.5t-214.5 -162t-280 -54.5q-166 0 -288.5 62.5t-181 181t-34.5 273.5q37 218 196 346q-80 122 -53 293q32 198 184.5 309.5t368.5 111.5zM754 1204
q-60 0 -101 -38t-47 -99q-6 -113 96 -113q59 0 100.5 37t47.5 99q4 55 -21 84.5t-75 29.5zM672 659q-86 0 -139.5 -48.5t-61.5 -133.5q-6 -71 29 -110t102 -39q85 0 138.5 48.5t60.5 133.5q5 72 -28.5 110.5t-100.5 38.5z" />
    <glyph glyph-name="nine.onum" horiz-adv-x="1263" 
d="M668 1231q167 0 295.5 -68t192 -193.5t40.5 -283.5q-28 -191 -149 -328l-598 -682h-484l465 537q-179 49 -276 188.5t-68 331.5q32 226 192 362t390 136zM610 510q78 0 129 57q49 61 58 133q9 93 -26 137t-101 44q-80 0 -129 -56t-56 -133q-10 -95 25 -138.5t100 -43.5z
" />
    <glyph glyph-name="zero.slash" horiz-adv-x="1343" 
d="M797 1554q135 0 242 -53.5t176.5 -157t94.5 -254.5t-3 -346q-26 -184 -89 -330t-153 -241t-201.5 -145t-236.5 -50q-136 0 -243 53.5t-176 157t-94 254.5t3 346q50 365 236 565.5t444 200.5zM784 1204q-116 0 -177.5 -108.5t-96.5 -343.5q-9 -68 -10 -86l348 524
q-25 14 -64 14zM637 328q116 0 179 109.5t95 342.5l9 78l-342 -518q24 -12 59 -12z" />
    <glyph glyph-name="zero.subs" horiz-adv-x="763" 
d="M383 692q162 0 245 -122t46 -334q-36 -198 -143 -306t-248 -108q-162 0 -246 122.5t-47 336.5q36 196 143.5 303.5t249.5 107.5zM367 438q-33 0 -53 -41.5t-38 -140.5q-16 -83 -13 -131.5t36 -48.5q32 0 50 40.5t36 143.5q16 82 14.5 130t-32.5 48z" />
    <glyph glyph-name="one.subs" horiz-adv-x="493" 
d="M315 -164h-284l75 449l-65 -33l-88 244l332 182h178z" />
    <glyph glyph-name="two.subs" horiz-adv-x="663" 
d="M352 692q147 0 209.5 -86t42.5 -215q-9 -74 -44.5 -125.5t-104.5 -118.5l-58 -57h150l-45 -254h-590l33 197l321 291q43 40 53 90q3 24 -6 24q-14 0 -22 -35l-277 17q25 126 116.5 199t221.5 73z" />
    <glyph glyph-name="three.subs" horiz-adv-x="681" 
d="M338 692q152 0 221.5 -78.5t44.5 -212.5q-7 -49 -27.5 -80t-66.5 -65q25 -22 39.5 -70t3.5 -110q-21 -121 -107 -187.5t-208 -66.5q-156 0 -229.5 78t-49.5 198l287 11q-9 -33 4 -33q9 0 17.5 17.5t8.5 41.5q-3 17 -14 17h-102l39 221h75q18 0 39.5 20.5t20.5 48.5
q0 4 -8 4t-18 -13t-11 -30l-268 25q41 264 309 264z" />
    <glyph glyph-name="four.subs" horiz-adv-x="724" 
d="M555 182h68l-45 -252h-66l-16 -94h-285l14 94h-317l41 222l420 526h274zM203 182h67l23 113z" />
    <glyph glyph-name="five.subs" horiz-adv-x="665" 
d="M326 424l-4 -25q125 -5 191.5 -82.5t41.5 -220.5q-24 -132 -112.5 -203t-219.5 -71q-149 0 -221.5 71t-50.5 185l282 8q-5 -10 9 -10q17 0 26 39q7 30 -4 30q-10 0 -14 -12l-260 6l94 539h539l-45 -254h-252z" />
    <glyph glyph-name="six.subs" horiz-adv-x="731" 
d="M715 678l-252 -295q83 -37 122 -114t21 -175q-21 -123 -116.5 -197.5t-223.5 -74.5q-152 0 -237 90t-60 229q15 85 90 181l301 356h355zM324 131q4 18 -0.5 33.5t-20.5 15.5q-6 0 -10.5 -2t-6.5 -3.5t-5.5 -5.5t-4.5 -5q-13 -13 -18 -39q-5 -20 1.5 -34.5t19.5 -14.5
q15 0 28 13t17 42z" />
    <glyph glyph-name="seven.subs" horiz-adv-x="647" 
d="M600 455l-344 -619h-332l332 588h-231l45 254h571z" />
    <glyph glyph-name="eight.subs" horiz-adv-x="735" 
d="M362 692q144 0 225 -77.5t58 -202.5q-4 -24 -8.5 -40.5t-21.5 -43.5t-44 -54q60 -76 39 -190q-21 -123 -116 -192.5t-228 -69.5q-153 0 -239 85t-62 224q18 98 105 178q-38 64 -23 150q20 110 106.5 171.5t208.5 61.5zM350 438q-19 0 -31.5 -13.5t-15.5 -35.5
q-3 -18 3.5 -29.5t21.5 -11.5q17 0 29.5 14.5t17.5 36.5q3 39 -25 39zM305 176q-20 0 -34 -15t-17 -40q-7 -45 27 -45q41 0 51 55q4 21 -3.5 33t-23.5 12z" />
    <glyph glyph-name="nine.subs" horiz-adv-x="731" 
d="M365 692q152 0 237 -90t60 -229q-17 -81 -91 -180l-301 -357h-354l252 295q-83 38 -122 114t-21 175q21 123 116.5 197.5t223.5 74.5zM328 334q6 0 10.5 2t6.5 3.5t5 5.5t4 5q14 14 19 39q3 21 -2.5 35t-18.5 14q-15 0 -28 -13t-17 -42q-10 -49 21 -49z" />
    <glyph glyph-name="zero.sups" horiz-adv-x="763" 
d="M559 1679q162 0 245 -122t46 -334q-36 -198 -143 -306t-248 -108q-162 0 -246 122.5t-47 336.5q36 196 143.5 303.5t249.5 107.5zM543 1425q-33 0 -52.5 -41.5t-37.5 -140.5q-16 -83 -13 -131.5t35 -48.5t50 40.5t36 143.5q16 82 14.5 130t-32.5 48z" />
    <glyph glyph-name="one.sups" horiz-adv-x="493" 
d="M483 823h-284l75 449l-65 -33l-88 244l332 182h178z" />
    <glyph glyph-name="two.sups" horiz-adv-x="663" 
d="M524 1679q147 0 209.5 -86t42.5 -215q-7 -51 -30.5 -97t-48 -73.5t-70.5 -72.5l-58 -58h150l-45 -254h-590l33 197l321 291q44 41 54 90q3 24 -7 24q-14 0 -22 -34l-277 16q25 126 116.5 199t221.5 73z" />
    <glyph glyph-name="three.sups" horiz-adv-x="681" 
d="M510 1679q152 0 221.5 -78t44.5 -212q-7 -49 -27.5 -80.5t-66.5 -65.5q25 -22 39.5 -70t3.5 -110q-21 -121 -107 -187.5t-208 -66.5q-156 0 -229.5 78t-49.5 198l287 11q-9 -33 4 -33q10 0 18.5 17.5t8.5 41.5q-3 17 -15 17h-102l39 221h75q18 0 39.5 21t20.5 49
q0 4 -8 4t-18 -13t-11 -30l-268 24q41 264 309 264z" />
    <glyph glyph-name="four.sups" horiz-adv-x="724" 
d="M731 1169h68l-45 -251h-66l-16 -95h-285l14 95h-317l41 221l420 526h274zM379 1169h67l23 113z" />
    <glyph glyph-name="five.sups" horiz-adv-x="665" 
d="M502 1411l-4 -25q125 -5 191.5 -82.5t41.5 -220.5q-24 -132 -112.5 -203t-219.5 -71q-149 0 -221.5 71t-50.5 185l283 8q-5 -10 8 -10q17 0 26 39q7 31 -4 31q-10 0 -14 -13l-260 6l94 539h539l-45 -254h-252z" />
    <glyph glyph-name="six.sups" horiz-adv-x="731" 
d="M891 1665l-252 -295q83 -37 122 -114t21 -175q-21 -123 -116.5 -197.5t-223.5 -74.5q-152 0 -237 90t-60 229q15 84 91 181l301 356h354zM500 1118q4 18 -0.5 33.5t-20.5 15.5q-6 0 -10.5 -2t-6.5 -3.5t-5 -5.5t-4 -5q-14 -14 -19 -39q-5 -20 1.5 -34.5t19.5 -14.5
q15 0 28 13t17 42z" />
    <glyph glyph-name="seven.sups" horiz-adv-x="647" 
d="M768 1442l-344 -619h-332l332 588h-231l45 254h571z" />
    <glyph glyph-name="eight.sups" horiz-adv-x="735" 
d="M539 1679q144 0 224.5 -77.5t57.5 -202.5q-4 -25 -8.5 -40.5t-21 -42.5t-43.5 -54q59 -75 38 -191q-21 -123 -116 -192.5t-228 -69.5q-153 0 -239 85t-62 224q18 98 105 178q-38 64 -23 150q20 110 107 171.5t209 61.5zM526 1425q-19 0 -31.5 -13.5t-15.5 -35.5
q-3 -18 3.5 -29.5t21.5 -11.5q17 0 29.5 14.5t17.5 36.5q3 39 -25 39zM481 1163q-20 0 -34 -15t-17 -40q-7 -45 27 -45q41 0 51 55q4 21 -3.5 33t-23.5 12z" />
    <glyph glyph-name="nine.sups" horiz-adv-x="731" 
d="M537 1679q152 0 237 -90t60 -229q-17 -81 -91 -180l-301 -357h-354l252 295q-83 38 -122 114t-21 175q21 123 116.5 197.5t223.5 74.5zM500 1321q6 0 10.5 2t6.5 3.5t5 5.5t4 5q14 14 19 39q3 21 -2.5 35t-18.5 14q-15 0 -28 -13t-17 -42q-10 -49 21 -49z" />
    <glyph glyph-name="zero.tnum" horiz-adv-x="1331" 
d="M786 1554q136 0 243.5 -53.5t177 -157t94.5 -254.5t-3 -346q-26 -184 -89 -330t-153 -241t-201.5 -145t-236.5 -50q-136 0 -243.5 53.5t-177 157t-94.5 254.5t3 346q26 184 89 330t153 241t201.5 145t236.5 50zM776 1204q-116 0 -178 -109t-96 -343q-30 -212 0.5 -318
t126.5 -106q116 0 179 109.5t95 342.5q30 212 -0.5 318t-126.5 106z" />
    <glyph glyph-name="one.tnum" horiz-adv-x="1331" 
d="M899 350h234l-62 -350h-899l61 350h271l123 680l-129 -78l-146 314l465 266h291z" />
    <glyph glyph-name="two.tnum" horiz-adv-x="1331" 
d="M831 1554q227 0 344 -129.5t82 -343.5q-10 -61 -26.5 -113.5t-44.5 -99.5t-50.5 -80t-65.5 -76.5t-66.5 -65t-75.5 -68.5l-250 -228h446l-61 -350h-973l53 301l496 471q107 101 157.5 177.5t61.5 148.5q12 106 -65 106q-54 0 -80.5 -37.5t-42.5 -117.5l-389 20
q43 239 182.5 362t367.5 123z" />
    <glyph glyph-name="three.tnum" horiz-adv-x="1331" 
d="M805 1554q247 0 361.5 -133t74.5 -356q-19 -105 -61.5 -168t-120.5 -119q53 -36 83.5 -126.5t8.5 -207.5q-39 -221 -194 -344t-377 -123q-258 0 -378.5 134t-82.5 356l395 -2q-24 -137 90 -137q132 0 156 153q12 64 -15 103t-88 39h-176l60 329h145q61 0 106 33t58 100
q8 55 -10.5 87t-59.5 32q-115 0 -145 -151l-385 47q42 220 183.5 337t371.5 117z" />
    <glyph glyph-name="four.tnum" horiz-adv-x="1331" 
d="M1030 561h213l-61 -350h-213l-37 -211h-336l37 211h-594l57 326l805 995h301zM496 561h200l60 322z" />
    <glyph glyph-name="five.tnum" horiz-adv-x="1331" 
d="M702 1182l-30 -195q30 6 69 6q107 0 195.5 -33.5t150 -96.5t86 -163t3.5 -225q-34 -232 -187.5 -365t-386.5 -133q-249 0 -375 125t-98 330l395 12q-7 -56 20 -86t81 -30q135 0 157 170q10 67 -14.5 105t-77.5 38q-9 0 -17 -0.5t-16 -2t-13.5 -2t-13 -3l-10.5 -3.5
t-11 -4.5t-9.5 -4t-10 -5t-9.5 -4.5l-373 -2l162 922h931l-63 -350h-535z" />
    <glyph glyph-name="six.tnum" horiz-adv-x="1331" 
d="M1339 1532l-465 -537q180 -49 277 -188.5t68 -331.5q-32 -226 -192 -362t-390 -136q-167 0 -295.5 68t-192 193.5t-40.5 283.5q27 187 149 328l600 682h481zM819 516q10 95 -25 138.5t-100 43.5q-78 0 -129 -57q-48 -60 -55 -133q-10 -93 24.5 -136.5t100.5 -43.5
q80 0 128.5 55.5t55.5 132.5z" />
    <glyph glyph-name="seven.tnum" horiz-adv-x="1331" 
d="M1245 1214l-737 -1214h-457l733 1182h-553l62 350h1007z" />
    <glyph glyph-name="eight.tnum" horiz-adv-x="1331" 
d="M788 1554q156 0 271 -56t170.5 -163.5t32.5 -249.5q-25 -163 -146 -278q53 -63 77.5 -155t6.5 -206q-23 -145 -109.5 -252.5t-214.5 -162t-280 -54.5q-166 0 -288.5 62.5t-181 181t-34.5 273.5q37 217 195 346q-78 124 -51 293q32 198 184 309.5t368 111.5zM768 1204
q-60 0 -100.5 -37.5t-46.5 -99.5q-6 -113 96 -113q59 0 100 37t47 99q4 54 -22 84t-74 30zM686 659q-86 0 -139.5 -48.5t-61.5 -133.5q-6 -71 29 -110t102 -39q85 0 138.5 48.5t60.5 133.5q5 72 -28.5 110.5t-100.5 38.5z" />
    <glyph glyph-name="nine.tnum" horiz-adv-x="1331" 
d="M772 1554q168 0 297 -67.5t193 -193t41 -283.5q-27 -186 -150 -328l-600 -682h-481l465 535q-180 51 -276.5 190.5t-67.5 331.5q32 226 191 361.5t388 135.5zM715 834q77 0 131 57q45 57 55 133q10 93 -25 136.5t-102 43.5q-79 0 -127 -56t-55 -132q-11 -95 24 -138.5
t99 -43.5z" />
    <glyph glyph-name="zero.dnom" horiz-adv-x="763" 
d="M414 856q162 0 245 -122.5t46 -334.5q-36 -198 -143 -305.5t-249 -107.5q-162 0 -246 122.5t-47 335.5q36 196 144 304t250 108zM397 602q-33 0 -52.5 -41.5t-37.5 -140.5q-16 -83 -13 -131.5t36 -48.5q32 0 50 40.5t36 143.5q16 82 14 130t-33 48z" />
    <glyph glyph-name="one.dnom" horiz-adv-x="493" 
d="M352 0h-284l75 449l-65 -33l-88 243l332 183h178z" />
    <glyph glyph-name="two.dnom" horiz-adv-x="663" 
d="M379 856q147 0 209.5 -86t42.5 -215q-7 -51 -31 -97.5t-48.5 -74t-70.5 -72.5l-57 -57h149l-45 -254h-589l32 197l322 290q42 40 53 91q3 24 -6 24q-15 0 -23 -35l-276 17q25 126 116.5 199t221.5 73z" />
    <glyph glyph-name="three.dnom" horiz-adv-x="681" 
d="M365 856q152 0 221.5 -78.5t44.5 -212.5q-7 -49 -27.5 -80t-66.5 -65q25 -22 39.5 -70t3.5 -110q-21 -121 -107.5 -187.5t-208.5 -66.5q-156 0 -229 78t-49 198l286 10q-9 -32 4 -32q10 0 18.5 17.5t8.5 41.5q-3 16 -14 16h-103l39 222h76q18 0 39 20.5t20 48.5q0 4 -8 4
t-17.5 -12.5t-10.5 -30.5l-269 25q41 264 310 264z" />
    <glyph glyph-name="four.dnom" horiz-adv-x="724" 
d="M594 346h68l-46 -252h-65l-16 -94h-285l14 94h-317l41 221l420 527h274zM242 346h67l23 113z" />
    <glyph glyph-name="five.dnom" horiz-adv-x="665" 
d="M360 588l-4 -25q125 -5 192 -82.5t42 -220.5q-24 -132 -112.5 -203t-219.5 -71q-149 0 -221.5 71t-50.5 185l282 8q-5 -10 8 -10q18 0 27 39q7 30 -4 30q-10 0 -14 -12l-260 6l94 539h538l-45 -254h-252z" />
    <glyph glyph-name="six.dnom" horiz-adv-x="731" 
d="M748 842l-252 -295q83 -37 122 -114t21 -175q-21 -123 -116.5 -197.5t-223.5 -74.5q-152 0 -237 90t-60 229q15 84 90 180l301 357h355zM356 295q5 15 0.5 32t-20.5 17q-6 0 -10.5 -2t-6.5 -3.5t-5.5 -5.5t-4.5 -5q-13 -13 -18 -39q-5 -21 1 -35t19 -14q15 0 28 13t17 42
z" />
    <glyph glyph-name="seven.dnom" horiz-adv-x="647" 
d="M614 618l-344 -618h-331l331 588h-231l45 254h571z" />
    <glyph glyph-name="eight.dnom" horiz-adv-x="735" 
d="M395 856q144 0 225 -78t58 -203q-4 -24 -8.5 -40.5t-21.5 -43t-44 -53.5q60 -76 39 -190q-21 -123 -116 -192.5t-228 -69.5q-153 0 -239 85t-62 224q18 99 104 178q-37 63 -22 150q20 110 106.5 171.5t208.5 61.5zM383 602q-19 0 -31.5 -13.5t-15.5 -35.5q-3 -18 3 -29.5
t21 -11.5q17 0 30 14.5t18 36.5q3 39 -25 39zM338 340q-20 0 -34 -15t-17 -40q-7 -45 26 -45q20 0 33.5 15t18.5 40q4 21 -3.5 33t-23.5 12z" />
    <glyph glyph-name="nine.dnom" horiz-adv-x="731" 
d="M393 856q152 0 237 -90t60 -229q-18 -84 -90 -181l-301 -356h-354l252 295q-84 38 -123 114t-21 175q21 123 116.5 197.5t223.5 74.5zM356 498q6 0 10.5 2t6.5 3.5t5.5 5.5t4.5 5q13 13 18 39q7 49 -20 49q-15 0 -28 -13t-17 -42q-10 -49 20 -49z" />
    <glyph glyph-name="zero.numr" horiz-adv-x="763" 
d="M526 1513q162 0 245 -122t46 -334q-36 -198 -143 -306t-248 -108q-162 0 -246 122.5t-47 336.5q36 196 143.5 303.5t249.5 107.5zM510 1260q-33 0 -52.5 -41.5t-37.5 -141.5q-16 -83 -13 -131.5t35 -48.5t50 40.5t36 143.5q16 82 14.5 130.5t-32.5 48.5z" />
    <glyph glyph-name="one.numr" horiz-adv-x="493" 
d="M465 659h-285l76 449l-66 -33l-88 244l332 182h178z" />
    <glyph glyph-name="two.numr" horiz-adv-x="663" 
d="M494 1513q147 0 209 -86t42 -215q-7 -51 -30.5 -97t-48 -73.5t-70.5 -72.5l-57 -58h149l-45 -254h-590l33 197l322 291q43 40 53 90q3 25 -6 25q-15 0 -23 -35l-276 16q25 126 116.5 199t221.5 73z" />
    <glyph glyph-name="three.numr" horiz-adv-x="681" 
d="M485 1513q152 0 222 -78t45 -212q-7 -49 -28 -80.5t-67 -65.5q25 -22 39.5 -70t3.5 -110q-21 -121 -107 -187.5t-208 -66.5q-156 0 -229.5 78.5t-49.5 198.5l287 10q-9 -33 4 -33q10 0 18.5 17.5t8.5 41.5q-3 17 -14 17h-103l39 221h76q18 0 39 21t20 49q0 4 -8 4
t-18 -13t-11 -30l-268 24q40 264 309 264z" />
    <glyph glyph-name="four.numr" horiz-adv-x="724" 
d="M707 1004h67l-45 -252h-65l-17 -95h-285l15 95h-318l41 221l420 526h275zM354 1004h68l22 112z" />
    <glyph glyph-name="five.numr" horiz-adv-x="665" 
d="M469 1247l-4 -24q125 -5 191.5 -82.5t41.5 -220.5q-24 -132 -112 -203.5t-219 -71.5q-149 0 -222 71t-51 185l283 8q-5 -10 8 -10q18 0 27 39q7 31 -4 31t-15 -13l-260 7l94 538h539l-45 -254h-252z" />
    <glyph glyph-name="six.numr" horiz-adv-x="731" 
d="M860 1499l-252 -295q83 -37 122.5 -114t21.5 -175q-21 -123 -116.5 -197.5t-223.5 -74.5q-152 0 -237 90.5t-60 229.5q15 84 90 180l301 356h354zM469 952q5 15 0.5 32t-20.5 17q-6 0 -10.5 -2t-6.5 -3.5t-5.5 -5.5t-4.5 -5q-14 -14 -19 -39q-5 -20 1.5 -34.5t19.5 -14.5
q15 0 28 13t17 42z" />
    <glyph glyph-name="seven.numr" horiz-adv-x="647" 
d="M739 1278l-344 -619h-332l332 588h-231l45 254h571z" />
    <glyph glyph-name="eight.numr" horiz-adv-x="735" 
d="M508 1513q144 0 225 -77.5t58 -202.5q-4 -24 -8.5 -40.5t-21.5 -43t-44 -53.5q60 -76 39 -191q-21 -123 -116 -192.5t-228 -69.5q-153 0 -239 85t-62 224q18 99 104 178q-37 63 -22 150q20 110 106.5 171.5t208.5 61.5zM496 1260q-18 0 -31 -14t-16 -36q-3 -18 3 -29.5
t21 -11.5q17 0 29.5 15t17.5 37q3 39 -24 39zM451 997q-20 0 -34.5 -15t-17.5 -40q-7 -45 27 -45q41 0 51 55q4 21 -3 33t-23 12z" />
    <glyph glyph-name="nine.numr" horiz-adv-x="731" 
d="M504 1513q152 0 237 -90t60 -229q-18 -83 -90 -180l-301 -357h-355l252 295q-83 38 -122 114t-21 175q21 123 116.5 197.5t223.5 74.5zM467 1155q6 0 10.5 2t6.5 3.5t5.5 5.5t4.5 5q13 13 18 39q7 50 -20 50q-15 0 -28.5 -13.5t-17.5 -42.5q-10 -49 21 -49z" />
    <glyph glyph-name="periodcentered.cap" horiz-adv-x="616" 
d="M383 1155q101 0 161.5 -72t41.5 -170q-13 -82 -79 -137t-145 -55q-102 0 -160.5 70.5t-41.5 169.5q13 83 78 138.5t145 55.5z" />
    <glyph glyph-name="exclamdown.cap" horiz-adv-x="716" 
d="M500 1120q-101 0 -161.5 72t-41.5 170q13 82 78.5 137t144.5 55q102 0 161 -70t42 -169q-15 -83 -79 -139t-144 -56zM256 1032h395l-159 -1032h-437z" />
    <glyph glyph-name="questiondown.cap" horiz-adv-x="1136" 
d="M696 1120q-102 0 -161.5 71.5t-42.5 170.5q15 83 80 137.5t145 54.5q101 0 160.5 -70.5t40.5 -168.5q-13 -82 -78 -138.5t-144 -56.5zM504 -27q-260 0 -391.5 136t-89.5 368q10 55 32 103.5t55 87.5t65 68t75 61q21 15 53 36.5t51 35t40 31.5t33 38.5t17 44.5l9 49h395
l-12 -80q-8 -49 -32 -96t-59.5 -87.5t-68 -70.5t-74.5 -63q-16 -12 -48 -35t-48.5 -36t-37.5 -33t-32.5 -40.5t-15.5 -44.5q-10 -59 20.5 -90.5t85.5 -31.5q73 0 120.5 45.5t62.5 126.5l387 -37q-44 -222 -205.5 -354t-386.5 -132z" />
    <glyph glyph-name="braceleft.cap" horiz-adv-x="684" 
d="M823 1577l-55 -309q-87 0 -127.5 -53.5t-50.5 -194.5q-1 -48 -5 -80t-16.5 -67t-33.5 -56t-58 -36t-90 -19q197 -13 111 -301q-16 -56 -23 -88t-8 -57.5t11 -36.5t31.5 -16t55.5 -5h25l-53 -309q-123 0 -218.5 32t-157.5 96.5t-73 162.5t35 231q41 87 44 102q4 26 -27 33
q-20 4 -72 4h-29l53 305h4q95 0 124.5 37.5t27.5 149.5q-7 121 32.5 213.5t116 149t177.5 84.5t225 28h24z" />
    <glyph glyph-name="braceright.cap" horiz-adv-x="684" 
d="M166 1268l55 309q123 0 218.5 -32t157 -96.5t72 -162.5t-35.5 -231q-41 -88 -44 -103q-4 -26 27 -33q20 -4 72 -4h29l-53 -305h-5q-95 0 -124 -37t-27 -149q7 -121 -32.5 -213.5t-115 -149t-176.5 -84.5t-225 -28h-25l54 309q87 0 127.5 53.5t52.5 196.5q1 47 4.5 79
t16 66.5t34 56t59.5 37t91 19.5q-73 4 -108 46t-32 107t25 146q17 56 24 88.5t7.5 57.5t-11.5 36t-32 16t-56 5h-24z" />
    <glyph glyph-name="bracketleft.cap" horiz-adv-x="681" 
d="M766 1268h-168l-176 -1010h166l-53 -309h-541l287 1628h540z" />
    <glyph glyph-name="bracketright.cap" horiz-adv-x="712" 
d="M475 -51h-541l54 309h166l178 1010h-166l55 309h541z" />
    <glyph glyph-name="parenleft.cap" horiz-adv-x="663" 
d="M475 1612l313 -133q-263 -378 -327 -760q-71 -396 51 -735l-322 -93q-183 389 -96 873q81 480 381 848z" />
    <glyph glyph-name="parenright.cap" horiz-adv-x="651" 
d="M203 1499l327 92q179 -390 97 -872q-87 -485 -383 -848l-314 133q121 174 206 358t124 402q69 402 -57 735z" />
    <glyph glyph-name="emdash.cap" horiz-adv-x="1638" 
d="M1559 598h-1457l62 350h1456z" />
    <glyph glyph-name="endash.cap" horiz-adv-x="1163" 
d="M1079 598h-981l62 350h981z" />
    <glyph glyph-name="hyphen.cap" horiz-adv-x="835" 
d="M756 598h-654l62 350h653z" />
    <glyph glyph-name="guillemotleft.cap" horiz-adv-x="1253" 
d="M745 1100l-266 -332l133 -299l-301 -172l-241 510l387 493zM1329 1100l-266 -332l133 -299l-301 -172l-242 510l387 493z" />
    <glyph glyph-name="guillemotright.cap" horiz-adv-x="1253" 
d="M688 791l-389 -494l-287 201l267 331l-134 299l299 172zM1270 791l-387 -494l-287 201l264 331l-133 299l301 172z" />
    <glyph glyph-name="guilsinglleft.cap" horiz-adv-x="731" 
d="M786 1034l-268 -258l176 -258l-288 -215l-336 504l471 485z" />
    <glyph glyph-name="guilsinglright.cap" horiz-adv-x="731" 
d="M745 786l-471 -485l-245 258l268 258l-176 258l289 215z" />
    <glyph glyph-name="emdash_guilsinglright" horiz-adv-x="1853" 
d="M1782 532l-588 -571l-240 248l185 174h-1071l53 307h1112l-137 193l280 223z" />
    <glyph glyph-name="endash_guilsinglright" horiz-adv-x="1290" 
d="M1219 532l-588 -571l-240 248l184 174h-507l53 307h549l-138 193l279 223z" />
    <glyph glyph-name="guilsinglleft_emdash" horiz-adv-x="1853" 
d="M897 858l-182 -176h1073l-53 -307h-1114l139 -193l-281 -221l-407 571l587 574z" />
    <glyph glyph-name="guilsinglleft_endash" horiz-adv-x="1290" 
d="M897 858l-182 -176h510l-56 -307h-548l139 -193l-281 -221l-407 571l587 574z" />
    <glyph glyph-name="at.cap" horiz-adv-x="1628" 
d="M948 1501q218 0 375.5 -99.5t226.5 -272t39 -386.5q-30 -211 -127 -312t-248 -101q-150 0 -221 80q-93 -84 -223 -84q-189 0 -297.5 129.5t-79.5 328.5q26 187 142.5 300.5t281.5 113.5q150 0 232 -82l14 49h268l-106 -616q-9 -55 45 -55t106 77t72 217q17 121 -11 227.5
t-91.5 182t-162 119t-218.5 43.5q-132 0 -255 -48t-217 -130t-157.5 -196t-81.5 -243q-19 -130 12 -238.5t101 -180t171 -111t222 -39.5q176 0 342 88l67 -139q-172 -88 -401 -88q-219 0 -379.5 94t-234 266t-41.5 393q21 152 96 285t186 226.5t254.5 147.5t298.5 54z
M801 575q71 0 118.5 45.5t59.5 122.5l4 27q11 80 -24.5 128t-104.5 48q-68 0 -113.5 -45t-58.5 -129q-15 -89 19.5 -143t99.5 -54z" />
    <glyph glyph-name="acute.case" horiz-adv-x="759" 
d="M543 1632h-344l295 332h516z" />
    <glyph glyph-name="breve.case" horiz-adv-x="849" 
d="M801 2003h297q-32 -193 -153 -286t-300 -93q-199 0 -304.5 99.5t-72.5 279.5h299q-10 -64 17 -93.5t78 -29.5q54 0 91 36t48 87z" />
    <glyph glyph-name="caron.case" horiz-adv-x="847" 
d="M805 1632h-363l-176 348h303l76 -135l135 135h320z" />
    <glyph glyph-name="circumflex.case" horiz-adv-x="847" 
d="M1030 1632h-301l-76 135l-135 -135h-319l295 348h362z" />
    <glyph glyph-name="dieresis.case" horiz-adv-x="856" 
d="M434 2011q94 0 149 -65t38 -154q-12 -74 -69 -123t-130 -49q-92 0 -145.5 64t-38.5 155q12 72 69.5 122t126.5 50zM885 2011q93 0 147 -64.5t39 -154.5q-12 -74 -70 -123t-131 -49q-92 0 -145.5 64t-38.5 155q14 72 71.5 122t127.5 50z" />
    <glyph glyph-name="dotaccent.case" horiz-adv-x="450" 
d="M465 2058q101 0 161.5 -71.5t41.5 -169.5q-13 -82 -79 -137.5t-145 -55.5q-102 0 -160.5 70t-41.5 170q15 82 80.5 138t142.5 56z" />
    <glyph glyph-name="grave.case" horiz-adv-x="759" 
d="M942 1632h-328l-350 332h500z" />
    <glyph glyph-name="hungarumlaut.case" horiz-adv-x="950" 
d="M498 1638h-299l194 373h359zM952 1638h-299l195 373h358z" />
    <glyph glyph-name="macron.case" horiz-adv-x="677" 
d="M864 1649h-659l51 284h659z" />
    <glyph glyph-name="ring.case" horiz-adv-x="512" 
d="M506 2091q115 0 182 -72.5t47 -181.5q-15 -92 -89.5 -150.5t-168.5 -58.5q-117 0 -183.5 73.5t-47.5 182.5q17 92 91 149.5t169 57.5zM498 1931q-29 0 -49.5 -16.5t-26.5 -46.5q-6 -33 12 -55.5t51 -22.5q30 0 51 17t25 46q6 35 -11.5 56.5t-51.5 21.5z" />
    <glyph glyph-name="tilde.case" horiz-adv-x="815" 
d="M504 1999q49 0 86 -16t55 -34.5t43 -34.5t53 -16q98 0 111 84h203q6 -153 -84.5 -258.5t-210.5 -105.5q-50 0 -87.5 16t-55.5 35t-43 35t-52 16q-100 0 -110 -90h-203q-6 154 85 261.5t210 107.5z" />
    <glyph glyph-name="anneau" horiz-adv-x="1234" 
d="M754 1561q167 0 293 -73t184.5 -200t36.5 -282q-31 -219 -203 -360.5t-406 -141.5q-127 0 -232.5 43.5t-173.5 118.5t-99 178t-15 219q34 219 206 358.5t409 139.5zM758 1436q-183 0 -315.5 -110t-157.5 -284q-26 -180 77.5 -295.5t292.5 -115.5q180 0 312 110t157 287
q26 179 -76.5 293.5t-289.5 114.5z" />
    <glyph glyph-name="null" horiz-adv-x="1228" 
 />
    </font>
</defs>
</svg>
