<?xml version="1.0" standalone="no"?>
<!DOCTYPE svg PUBLIC "-//W3C//DTD SVG 1.1//EN" "http://www.w3.org/Graphics/SVG/1.1/DTD/svg11.dtd" >
<svg xmlns="http://www.w3.org/2000/svg" xmlns:xlink="http://www.w3.org/1999/xlink" version="1.1">
<metadata>
Created by FontForge 20170731 at Sat Jan 16 11:32:55 2021
 By Aleksey,,,
Copyright (c) 2014 by Type Dynamic. All rights reserved.
</metadata>
<defs>
<font id="Sailec-Black" horiz-adv-x="632" >
  <font-face 
    font-family="Sailec Black"
    font-weight="900"
    font-stretch="normal"
    units-per-em="2048"
    panose-1="0 0 10 0 0 0 0 0 0 0"
    ascent="1536"
    descent="-512"
    x-height="1067"
    cap-height="1532"
    bbox="-453 -864 2666 2230"
    underline-thickness="102"
    underline-position="-307"
    unicode-range="U+000D-FB02"
  />
<missing-glyph horiz-adv-x="1546" 
d="M1427 0h-1308v1532h1308v-1532zM612 1268l166 -269l166 269h-332zM401 457l205 305l-205 305v-610zM950 762l195 -289v578zM618 264h320l-160 258z" />
    <glyph glyph-name="fi" unicode="fi" horiz-adv-x="1456" 
d="M1141 1614q91 0 154 -64t63 -155t-63 -154t-154 -63t-154 63t-63 154q0 90 64.5 154.5t152.5 64.5zM672 1606q66 0 119 -9v-321q-30 6 -76 6q-67 0 -111.5 -39t-44.5 -98v-78h232v-319h-232v-748h-375v748h-182v319h182v70q0 211 134 340t354 129zM1327 0h-373v1067h373
v-1067z" />
    <glyph glyph-name="f_j" unicode="fj" horiz-adv-x="1456" 
d="M1141 1614q91 0 154 -64t63 -155t-63 -154t-154 -63t-154 63t-63 154t63 155t154 64zM672 1606q66 0 119 -9v-321q-30 6 -76 6q-67 0 -111.5 -39t-44.5 -98v-78h232v-319h-232v-748h-375v748h-182v319h182v70q0 211 134 340t354 129zM1327 1067v-1137q0 -211 -133.5 -340
t-353.5 -129q-66 0 -119 9v321q30 -6 78 -6q66 0 110.5 39.5t44.5 97.5v1145h373z" />
    <glyph glyph-name=".notdef" horiz-adv-x="1546" 
d="M1427 0h-1308v1532h1308v-1532zM612 1268l166 -269l166 269h-332zM401 457l205 305l-205 305v-610zM950 762l195 -289v578zM618 264h320l-160 258z" />
    <glyph glyph-name=".null" horiz-adv-x="0" 
 />
    <glyph glyph-name="nonmarkingreturn" horiz-adv-x="682" 
 />
    <glyph glyph-name="CR" unicode="&#xd;" horiz-adv-x="1228" 
 />
    <glyph glyph-name="space" unicode=" " horiz-adv-x="446" 
 />
    <glyph glyph-name="exclam" unicode="!" horiz-adv-x="716" 
d="M557 500h-395l-23 1032h439zM358 412q90 0 153.5 -63.5t63.5 -153.5q0 -92 -63 -155t-154 -63t-154 63t-63 155q0 90 63.5 153.5t153.5 63.5z" />
    <glyph glyph-name="quotedbl" unicode="&#x22;" horiz-adv-x="968" 
d="M393 920h-280l-33 643h348zM856 920h-281l-34 643h348z" />
    <glyph glyph-name="numbersign" unicode="#" horiz-adv-x="1411" 
d="M1200 1180h201l-70 -297h-201l-59 -248h201l-70 -297h-201l-81 -338h-304l80 338h-186l-80 -338h-303l80 338h-197l70 297h199l57 248h-197l72 297h197l84 352h303l-84 -352h186l84 352h303zM639 883l-57 -248h186l57 248h-186z" />
    <glyph glyph-name="dollar" unicode="$" horiz-adv-x="1368" 
d="M1288 463q0 -106 -33 -190.5t-93.5 -142t-139 -93t-174.5 -49.5v-230h-309v234q-214 38 -337 168t-122 336l403 20q-1 -87 63.5 -142t166.5 -55q172 0 172 123q0 55 -61.5 93t-198.5 73q-68 18 -117 32.5t-105.5 37t-96 46t-78 58t-61.5 74t-37.5 93t-14.5 116.5
q0 182 109 313.5t315 165.5v228h309v-234q193 -40 304 -165.5t114 -315.5l-404 -21q0 80 -47.5 128t-134.5 48q-74 0 -118 -36t-44 -99q0 -58 51.5 -88.5t202.5 -64.5q99 -27 171 -53.5t140.5 -65.5t111 -85.5t68 -111.5t25.5 -145z" />
    <glyph glyph-name="percent" unicode="%" horiz-adv-x="1892" 
d="M434 1554q165 0 270 -109t105 -286q0 -179 -104.5 -288t-270.5 -109t-272.5 109.5t-106.5 287.5q0 177 106.5 286t272.5 109zM643 0h-358l966 1532h359zM434 1296q-51 0 -78.5 -35.5t-27.5 -101.5t28 -102.5t78 -36.5t76.5 36t26.5 103q0 66 -26.5 101.5t-76.5 35.5z
M1462 770q166 0 270.5 -108.5t104.5 -286.5q0 -179 -104.5 -288.5t-270.5 -109.5t-272.5 110t-106.5 288t106.5 286.5t272.5 108.5zM1462 512q-51 0 -78.5 -35.5t-27.5 -101.5t28 -102.5t78 -36.5t76.5 36t26.5 103q0 66 -26.5 101.5t-76.5 35.5z" />
    <glyph glyph-name="ampersand" unicode="&#x26;" horiz-adv-x="1503" 
d="M1333 -23l-227 185q-188 -185 -463 -185q-113 0 -206.5 23.5t-159.5 65.5t-112 99t-67.5 124t-21.5 141q0 131 56.5 225.5t164.5 173.5q-113 133 -113 275q0 217 139.5 333.5t372.5 116.5q205 0 343.5 -109.5t170.5 -303.5l-383 -33q-16 129 -131 129q-56 0 -87 -34
t-31 -93q0 -39 24 -77.5t44 -56.5t73 -61q9 -8 14 -12l283 -229q27 77 53 194l350 -88q-53 -197 -119 -334l240 -194zM649 311q103 0 189 68l-299 242q-64 -61 -64 -156q0 -73 47 -113.5t127 -40.5z" />
    <glyph glyph-name="quotesingle" unicode="'" horiz-adv-x="505" 
d="M393 920h-280l-33 643h348z" />
    <glyph glyph-name="parenleft" unicode="(" horiz-adv-x="663" 
d="M311 1516l324 -113q-191 -356 -191 -748q0 -395 191 -747l-324 -113q-239 368 -239 860q0 489 239 861z" />
    <glyph glyph-name="parenright" unicode=")" horiz-adv-x="663" 
d="M31 1403l321 113q242 -376 242 -861q0 -487 -242 -860l-321 113q188 356 188 747q0 388 -188 748z" />
    <glyph glyph-name="asterisk" unicode="*" horiz-adv-x="798" 
d="M496 1327l231 82l64 -192l-236 -74l150 -191l-166 -123l-140 203l-139 -205l-164 123l148 193l-234 74l64 192l229 -82l-6 246h205z" />
    <glyph glyph-name="plus" unicode="+" horiz-adv-x="1122" 
d="M743 926h318v-336h-318v-332h-362v332h-320v336h320v334h362v-334z" />
    <glyph glyph-name="comma" unicode="," horiz-adv-x="552" 
d="M483 172v-2q-3 -335 -362 -516v153q106 63 143 173q-84 8 -139 68.5t-55 146.5q0 91 60.5 154t152.5 63q93 0 146.5 -66.5t53.5 -173.5z" />
    <glyph glyph-name="hyphen" unicode="-" horiz-adv-x="835" 
d="M743 362h-651v351h651v-351z" />
    <glyph glyph-name="period" unicode="." horiz-adv-x="575" 
d="M287 412q90 0 153.5 -63.5t63.5 -153.5q0 -92 -63 -155t-154 -63t-154 63t-63 155q0 90 63.5 153.5t153.5 63.5z" />
    <glyph glyph-name="slash" unicode="/" horiz-adv-x="931" 
d="M399 -137h-389l522 1669h390z" />
    <glyph glyph-name="zero" unicode="0" horiz-adv-x="1341" 
d="M670 1554q268 0 434 -207.5t166 -580.5t-166 -581t-434 -208q-130 0 -239.5 52t-189.5 150.5t-124.5 249t-44.5 337.5t44.5 337.5t124.5 248.5t189.5 150t239.5 52zM670 1204q-105 0 -150 -107.5t-45 -330.5t45 -330.5t150 -107.5q106 0 151 107t45 331t-45 331t-151 107
z" />
    <glyph glyph-name="one" unicode="1" horiz-adv-x="831" 
d="M696 0h-395v1051l-154 -99l-163 314l422 266h290v-1532z" />
    <glyph glyph-name="two" unicode="2" horiz-adv-x="1118" 
d="M571 1554q233 0 361.5 -111.5t128.5 -326.5q0 -72 -16 -139.5t-38 -117t-61 -105t-68.5 -90t-76.5 -84.5l-217 -230h481v-350h-975v299l404 457q101 116 135.5 183.5t34.5 158.5q0 106 -84 106q-54 0 -73.5 -37.5t-21.5 -117.5l-395 20q3 229 129.5 357t351.5 128z" />
    <glyph glyph-name="three" unicode="3" horiz-adv-x="1177" 
d="M584 1554q235 0 365 -126t130 -341q0 -108 -33 -171.5t-98 -124.5q65 -39 107.5 -124t42.5 -200q0 -229 -142 -359.5t-374 -130.5q-249 0 -384 128t-137 350l396 22q0 -71 30.5 -110t92.5 -39q120 0 120 151q0 69 -38.5 106.5t-102.5 37.5h-162v329h158q57 0 92 34.5
t35 96.5q0 121 -100 121q-52 0 -79.5 -35.5t-27.5 -103.5l-395 22q3 221 132.5 344t371.5 123z" />
    <glyph glyph-name="four" unicode="4" horiz-adv-x="1245" 
d="M985 561h213v-350h-213v-211h-334v211h-596v326l631 995h299v-971zM434 561h217v342z" />
    <glyph glyph-name="five" unicode="5" horiz-adv-x="1181" 
d="M629 993q138 0 244.5 -53.5t170.5 -167t64 -274.5q0 -241 -144 -381t-389 -140q-237 0 -372 122t-137 327l395 25q0 -57 30 -90t87 -33q66 0 99.5 42t33.5 117t-31 114.5t-90 39.5q-64 0 -109 -31h-364v922h930v-350h-535v-205q53 16 117 16z" />
    <glyph glyph-name="six" unicode="6" horiz-adv-x="1263" 
d="M1137 1532l-369 -526q191 -37 308.5 -173t117.5 -333q0 -155 -72.5 -274.5t-199 -184t-285.5 -64.5q-160 0 -287.5 64.5t-200.5 184t-73 274.5q0 93 29.5 171t89.5 169l469 692h473zM635 328q73 0 115.5 50t42.5 136q0 89 -42 137.5t-116 48.5q-80 0 -127 -63
q-31 -53 -31 -123q0 -86 42.5 -136t115.5 -50z" />
    <glyph glyph-name="seven" unicode="7" horiz-adv-x="1107" 
d="M1044 1214l-524 -1214h-436l526 1182h-573v350h1007v-318z" />
    <glyph glyph-name="eight" unicode="8" horiz-adv-x="1277" 
d="M637 1554q227 0 372.5 -119t145.5 -325q0 -171 -102 -285q143 -137 143 -354q0 -151 -73.5 -264.5t-199 -171.5t-284.5 -58t-284.5 58t-199 171.5t-73.5 264.5q0 216 139 352q-100 117 -100 287q0 206 144.5 325t371.5 119zM639 1204q-53 0 -87 -33.5t-34 -91.5
q0 -56 34.5 -90.5t86.5 -34.5q54 0 87.5 34t33.5 91q0 59 -33 92t-88 33zM639 659q-71 0 -116.5 -44.5t-45.5 -122.5q0 -75 45.5 -119.5t116.5 -44.5q72 0 117 44.5t45 119.5q0 78 -45 122.5t-117 44.5z" />
    <glyph glyph-name="nine" unicode="9" horiz-adv-x="1263" 
d="M627 1554q160 0 287.5 -64t200.5 -183.5t73 -274.5q0 -93 -29.5 -171t-89.5 -169l-469 -692h-473l369 526q-191 37 -308.5 173t-117.5 333q0 233 157.5 377.5t399.5 144.5zM629 831q79 0 127 64q30 52 30 123q0 86 -42 136t-115 50t-115.5 -50t-42.5 -136q0 -89 42 -138
t116 -49z" />
    <glyph glyph-name="colon" unicode=":" horiz-adv-x="575" 
d="M264 1090q91 0 155 -64.5t64 -155.5q0 -90 -64 -152.5t-155 -62.5t-153 62t-62 153t62.5 155.5t152.5 64.5zM264 412q91 0 155 -64t64 -153q0 -92 -64 -155t-155 -63t-153 63t-62 155q0 90 62.5 153.5t152.5 63.5z" />
    <glyph glyph-name="semicolon" unicode=";" horiz-adv-x="575" 
d="M264 655q-91 0 -153 62t-62 153t62.5 155.5t152.5 64.5q91 0 155 -64.5t64 -155.5q0 -90 -64 -152.5t-155 -62.5zM283 412q93 0 146.5 -66.5t53.5 -171.5v-2v-2q-3 -335 -362 -516v153q106 63 143 173q-84 8 -139 68.5t-55 146.5q0 91 60.5 154t152.5 63z" />
    <glyph glyph-name="less" unicode="&#x3c;" horiz-adv-x="1126" 
d="M1067 920l-279 -164l279 -164v-426l-1006 590l1006 587v-423z" />
    <glyph glyph-name="equal" unicode="=" horiz-adv-x="1122" 
d="M1061 840h-1000v350h1000v-350zM1061 332h-1000v348h1000v-348z" />
    <glyph glyph-name="greater" unicode="&#x3e;" horiz-adv-x="1126" 
d="M1065 756l-1004 -590v426l277 164l-277 164v423z" />
    <glyph glyph-name="question" unicode="?" horiz-adv-x="1136" 
d="M569 1559q247 0 392 -128.5t145 -351.5q0 -48 -12.5 -91.5t-28.5 -73.5t-46 -63.5t-50.5 -51.5t-55.5 -47q-80 -66 -101 -90q-40 -47 -40 -93v-69h-393v84q0 37 13 73.5t27.5 61t48 60t49 50t56.5 50.5q76 74 97 102q35 48 35 92q0 67 -37 101t-99 34q-64 0 -104 -44
t-41 -122l-393 23q3 223 152.5 358.5t385.5 135.5zM575 412q91 0 154.5 -64t63.5 -153q0 -92 -63.5 -155t-154.5 -63t-154 63t-63 155q0 90 63.5 153.5t153.5 63.5z" />
    <glyph glyph-name="at" unicode="@" horiz-adv-x="1624" 
d="M1227 905v-612q0 -60 59 -60q51 0 85 68t34 205q0 255 -169 424.5t-425 169.5q-127 0 -237.5 -45.5t-188 -124t-122 -188.5t-44.5 -236q0 -133 48 -246.5t128.5 -188t184 -116t215.5 -41.5q206 0 360 82l57 -133q-85 -47 -180.5 -67.5t-236.5 -20.5q-147 0 -279.5 53.5
t-231 147.5t-156.5 232t-58 298q0 209 94.5 376.5t264 263t382.5 95.5q159 0 297 -56t236 -153t154 -233.5t56 -292.5q0 -217 -90.5 -326.5t-253.5 -109.5q-159 0 -223 98q-91 -102 -242 -102q-175 0 -285 121.5t-110 314.5q0 195 110 315.5t285 120.5q135 0 213 -74v41h269
zM944 487v29q0 77 -41 123.5t-110 46.5q-70 0 -111 -48t-41 -136q0 -87 41 -137t111 -50q69 0 110 47.5t41 124.5z" />
    <glyph glyph-name="A" unicode="A" horiz-adv-x="1685" 
d="M1677 0h-434l-106 244h-588l-107 -244h-434l668 1532h334zM682 547h322l-162 373z" />
    <glyph glyph-name="B" unicode="B" horiz-adv-x="1470" 
d="M135 1532h682q146 0 254.5 -45.5t173 -145.5t64.5 -245q0 -168 -125 -287q79 -40 131.5 -130.5t52.5 -217.5q0 -219 -138 -340t-372 -121h-723v1532zM530 1182v-232h238q137 0 137 115q0 117 -133 117h-242zM530 614v-264h281q154 0 154 131q0 133 -156 133h-279z" />
    <glyph glyph-name="C" unicode="C" horiz-adv-x="1714" 
d="M887 1554q288 0 493.5 -159.5t249.5 -431.5l-413 -39q-32 140 -120.5 210t-224.5 70q-174 0 -276 -120t-102 -318q0 -211 105.5 -324.5t272.5 -113.5q135 0 226.5 71.5t118.5 208.5l413 -35q-44 -274 -249.5 -435t-493.5 -161q-230 0 -409.5 93t-283.5 273.5t-104 422.5
t104 422t283.5 273t409.5 93z" />
    <glyph glyph-name="D" unicode="D" horiz-adv-x="1648" 
d="M135 1532h649q167 0 309 -53t245.5 -150t162 -242t58.5 -321t-58.5 -321t-162 -242t-245.5 -150t-309 -53h-649v1532zM530 1192v-852h258q181 0 280 106t99 320t-99 320t-280 106h-258z" />
    <glyph glyph-name="E" unicode="E" horiz-adv-x="1245" 
d="M1139 1182h-609v-230h521v-342h-521v-260h611v-350h-1006v1532h1004v-350z" />
    <glyph glyph-name="F" unicode="F" horiz-adv-x="1212" 
d="M1139 1182h-609v-224h486v-350h-486v-608h-395v1532h1004v-350z" />
    <glyph glyph-name="G" unicode="G" horiz-adv-x="1726" 
d="M1630 872v-127q0 -168 -51.5 -310t-146.5 -243.5t-235 -158t-310 -56.5q-230 0 -409.5 93t-283.5 273.5t-104 422.5t104 422t283.5 273t409.5 93q270 0 463.5 -135t263.5 -381l-410 -67q-73 233 -321 233q-186 0 -287.5 -109.5t-101.5 -328.5t101.5 -328.5t287.5 -109.5
q230 0 305 194h-305v350h747z" />
    <glyph glyph-name="H" unicode="H" horiz-adv-x="1572" 
d="M1438 0h-396v606h-512v-606h-395v1532h395v-576h512v576h396v-1532z" />
    <glyph glyph-name="I" unicode="I" horiz-adv-x="665" 
d="M530 0h-395v1532h395v-1532z" />
    <glyph glyph-name="J" unicode="J" horiz-adv-x="1300" 
d="M1176 1532v-948q0 -284 -153.5 -445.5t-424.5 -161.5q-248 0 -399 141.5t-168 397.5l395 66q8 -121 52 -187.5t124 -66.5q178 0 178 241v963h396z" />
    <glyph glyph-name="K" unicode="K" horiz-adv-x="1533" 
d="M983 922l537 -922h-453l-346 600l-191 -238v-362h-395v1532h395v-574l439 574h508z" />
    <glyph glyph-name="L" unicode="L" horiz-adv-x="1210" 
d="M530 350h609v-350h-1004v1532h395v-1182z" />
    <glyph glyph-name="M" unicode="M" horiz-adv-x="1984" 
d="M1849 0h-395v653l-330 -633h-260l-334 633v-653h-395v1532h352l508 -932l502 932h352v-1532z" />
    <glyph glyph-name="N" unicode="N" horiz-adv-x="1583" 
d="M1448 0h-338l-580 803v-803h-395v1532h336l582 -807v807h395v-1532z" />
    <glyph glyph-name="O" unicode="O" horiz-adv-x="1802" 
d="M903 1554q234 0 417.5 -96t287.5 -276t104 -416t-104 -416t-287.5 -276.5t-417.5 -96.5q-236 0 -420.5 96.5t-288.5 276.5t-104 416q0 177 60.5 325t167.5 249.5t257.5 157.5t327.5 56zM903 1204q-188 0 -298.5 -117.5t-110.5 -320.5t110.5 -320.5t298.5 -117.5
q187 0 296.5 117.5t109.5 320.5t-109.5 320.5t-296.5 117.5z" />
    <glyph glyph-name="P" unicode="P" horiz-adv-x="1388" 
d="M135 1532h701q234 0 372 -136.5t138 -375.5q0 -237 -138 -373.5t-372 -136.5h-306v-510h-395v1532zM530 1182v-324h256q72 0 115 43.5t43 118.5t-43 118.5t-115 43.5h-256z" />
    <glyph glyph-name="Q" unicode="Q" horiz-adv-x="1814" 
d="M1524 -160l-226 223q-180 -86 -395 -86q-236 0 -420.5 96.5t-288.5 276.5t-104 416q0 177 60.5 325t167.5 249.5t257.5 157.5t327.5 56q234 0 417.5 -96t287.5 -276t104 -416q0 -254 -121 -442l209 -205zM903 328q61 0 113 12l-176 174l278 277l174 -170q17 73 17 145
q0 203 -109.5 320.5t-296.5 117.5q-188 0 -298.5 -117.5t-110.5 -320.5t110.5 -320.5t298.5 -117.5z" />
    <glyph glyph-name="R" unicode="R" horiz-adv-x="1474" 
d="M971 0l-273 512h-168v-512h-395v1532h692q234 0 372 -135.5t138 -374.5q0 -154 -59.5 -267t-169.5 -175l309 -580h-446zM530 862h250q73 0 114.5 43t41.5 117t-41.5 117t-114.5 43h-250v-320z" />
    <glyph glyph-name="S" unicode="S" horiz-adv-x="1368" 
d="M672 1554q268 0 429.5 -133t164.5 -364l-404 -21q0 80 -47.5 128t-134.5 48q-74 0 -118 -36t-44 -99q0 -58 51.5 -88.5t202.5 -64.5q99 -27 171 -53.5t140.5 -65.5t111 -85.5t68 -111.5t25.5 -145q0 -124 -45.5 -219t-125.5 -152t-182 -86t-222 -29q-287 0 -460.5 136.5
t-172.5 382.5l403 20q-1 -87 63.5 -142t166.5 -55q172 0 172 123q0 55 -61.5 93t-198.5 73q-68 18 -117 32.5t-105.5 37t-96 46t-78 58t-61.5 74t-37.5 93t-14.5 116.5q0 101 35 188t102 155t175 107t245 39z" />
    <glyph glyph-name="T" unicode="T" horiz-adv-x="1433" 
d="M1393 1182h-478v-1182h-395v1182h-479v350h1352v-350z" />
    <glyph glyph-name="U" unicode="U" horiz-adv-x="1607" 
d="M1481 1532v-881q0 -317 -179.5 -495.5t-496.5 -178.5q-319 0 -499.5 178.5t-180.5 495.5v881h395v-875q0 -160 71 -244.5t214 -84.5q141 0 211.5 84.5t70.5 244.5v875h394z" />
    <glyph glyph-name="V" unicode="V" horiz-adv-x="1652" 
d="M993 0h-334l-645 1532h432l379 -920l379 920h434z" />
    <glyph glyph-name="W" unicode="W" horiz-adv-x="2312" 
d="M1763 0h-333l-275 846l-274 -846h-332l-535 1532h435l270 -881l274 881h326l272 -881l273 881h434z" />
    <glyph glyph-name="X" unicode="X" horiz-adv-x="1533" 
d="M1061 778l444 -778h-456l-281 516l-283 -516h-456l444 778l-418 754h457l256 -490l254 490h457z" />
    <glyph glyph-name="Y" unicode="Y" horiz-adv-x="1589" 
d="M993 561v-561h-395v561l-582 971h459l320 -578l319 578h459z" />
    <glyph glyph-name="Z" unicode="Z" horiz-adv-x="1292" 
d="M1202 1233l-618 -883h641v-350h-1147v299l616 883h-616v350h1124v-299z" />
    <glyph glyph-name="bracketleft" unicode="[" horiz-adv-x="681" 
d="M641 1161h-166v-1009h166v-310h-541v1628h541v-309z" />
    <glyph glyph-name="backslash" unicode="\" horiz-adv-x="931" 
d="M922 -137h-390l-522 1669h389z" />
    <glyph glyph-name="bracketright" unicode="]" horiz-adv-x="681" 
d="M582 -158h-541v310h166v1009h-166v309h541v-1628z" />
    <glyph glyph-name="asciicircum" unicode="^" horiz-adv-x="1271" 
d="M1221 760h-424l-162 235l-160 -235h-424l584 813z" />
    <glyph glyph-name="underscore" unicode="_" horiz-adv-x="1413" 
d="M1321 -350h-1229v350h1229v-350z" />
    <glyph glyph-name="grave" unicode="`" horiz-adv-x="587" 
d="M580 1229h-291l-281 391h422z" />
    <glyph glyph-name="a" unicode="a" horiz-adv-x="1159" 
d="M578 1090q227 0 344.5 -110t117.5 -327v-653h-350v76q-91 -99 -258 -99q-166 0 -259 81t-93 235q0 311 467 330l121 4v55q0 100 -84 100q-48 0 -75.5 -29.5t-27.5 -64.5l-372 12q0 72 33.5 141.5t92.5 125t149 89.5t194 34zM666 410l-95 -4q-118 -7 -118 -82
q0 -37 23 -55.5t61 -18.5q51 0 90 31t39 77v52z" />
    <glyph glyph-name="b" unicode="b" horiz-adv-x="1355" 
d="M502 1591v-575q96 74 260 74q229 0 371.5 -155t142.5 -403q0 -246 -142.5 -400.5t-371.5 -154.5q-176 0 -281 93v-70h-352v1591h373zM698 770q-89 0 -142.5 -60t-53.5 -157v-39q0 -97 53.5 -157t142.5 -60q92 0 146.5 62t54.5 173q0 112 -54.5 175t-146.5 63z" />
    <glyph glyph-name="c" unicode="c" horiz-adv-x="1230" 
d="M641 1090q201 0 344.5 -113t175.5 -307l-366 -33q-8 61 -49 97t-105 36q-83 0 -133.5 -63t-50.5 -175q0 -111 50.5 -173t133.5 -62q64 0 105 36t49 97l364 -31q-30 -195 -173.5 -308.5t-344.5 -113.5q-248 0 -404.5 149.5t-156.5 405.5q0 171 73 299t199.5 193.5
t288.5 65.5z" />
    <glyph glyph-name="d" unicode="d" horiz-adv-x="1355" 
d="M1227 0h-353v70q-105 -93 -280 -93q-229 0 -371.5 154.5t-142.5 400.5q0 248 142.5 403t371.5 155q164 0 260 -74v575h373v-1591zM657 770q-92 0 -146 -62.5t-54 -175.5q0 -111 54 -173t146 -62q89 0 143 60t54 157v39q0 97 -54 157t-143 60z" />
    <glyph glyph-name="e" unicode="e" horiz-adv-x="1234" 
d="M1155 432h-678q0 -77 38.5 -122.5t117.5 -45.5q108 0 137 82l375 -18q-26 -160 -167.5 -255.5t-334.5 -95.5q-255 0 -409 150t-154 405t152.5 406.5t400.5 151.5q236 0 379 -142t143 -395v-121zM629 815q-68 0 -107.5 -44t-44.5 -120h301q-3 77 -40.5 120.5t-108.5 43.5z
" />
    <glyph glyph-name="f" unicode="f" horiz-adv-x="825" 
d="M672 1606q66 0 119 -9v-321q-30 6 -76 6q-67 0 -111.5 -39t-44.5 -98v-78h232v-319h-232v-748h-375v748h-182v319h182v70q0 211 134 340t354 129z" />
    <glyph glyph-name="g" unicode="g" horiz-adv-x="1331" 
d="M594 1090q175 0 280 -93v70h353v-1094q0 -233 -151.5 -374.5t-405.5 -141.5q-259 0 -400 113.5t-170 314.5l373 13q5 -58 51.5 -91.5t130.5 -33.5q94 0 146.5 43.5t52.5 130.5v104q-99 -74 -260 -74q-229 0 -371.5 154.5t-142.5 400.5q0 248 142.5 403t371.5 155z
M657 770q-92 0 -146 -62.5t-54 -175.5q0 -111 54 -173t146 -62q89 0 143 60t54 157v39q0 97 -54 157t-143 60z" />
    <glyph glyph-name="h" unicode="h" horiz-adv-x="1280" 
d="M502 1591v-583q90 82 241 82q190 0 303 -111t113 -313v-666h-373v575q0 166 -139 166q-67 0 -106 -44t-39 -124v-573h-373v1591h373z" />
    <glyph glyph-name="i" unicode="i" 
d="M315 1614q91 0 154 -64t63 -155t-63 -154t-154 -63t-154 63t-63 154q0 90 64.5 154.5t152.5 64.5zM502 0h-373v1067h373v-1067z" />
    <glyph glyph-name="j" unicode="j" 
d="M315 1614q91 0 154 -64t63 -155t-63 -154t-154 -63t-154 63t-63 154t63 155t154 64zM502 1067v-1137q0 -211 -134 -340t-354 -129q-66 0 -118 9v321q30 -6 77 -6q66 0 111 39.5t45 97.5v1145h373z" />
    <glyph glyph-name="k" unicode="k" horiz-adv-x="1247" 
d="M502 741l268 326h455l-375 -451l389 -616h-440l-213 336l-84 -96v-240h-373v1591h373v-850z" />
    <glyph glyph-name="l" unicode="l" 
d="M502 0h-373v1591h373v-1591z" />
    <glyph glyph-name="m" unicode="m" horiz-adv-x="1898" 
d="M1370 1090q190 0 300 -111t110 -315v-664h-373v575q0 166 -129 166q-67 0 -102 -43t-35 -125v-573h-373v575q0 166 -131 166q-66 0 -100.5 -43t-34.5 -125v-573h-373v1067h352v-74q78 97 250 97q221 0 330 -146q106 146 309 146z" />
    <glyph glyph-name="n" unicode="n" horiz-adv-x="1277" 
d="M743 1090q190 0 303 -111t113 -313v-666h-373v575q0 166 -139 166q-67 0 -106 -44t-39 -124v-573h-373v1067h352v-74q34 42 101 69.5t161 27.5z" />
    <glyph glyph-name="o" unicode="o" horiz-adv-x="1316" 
d="M657 1090q255 0 417.5 -154.5t162.5 -403.5t-162.5 -402t-417.5 -153q-167 0 -298 68.5t-205 195.5t-74 291q0 249 161.5 403.5t415.5 154.5zM657 770q-92 0 -146 -63.5t-54 -174.5q0 -109 54.5 -172t145.5 -63q94 0 148.5 62.5t54.5 172.5q0 112 -54.5 175t-148.5 63z
" />
    <glyph glyph-name="p" unicode="p" horiz-adv-x="1355" 
d="M762 1090q229 0 371.5 -155t142.5 -403q0 -246 -142.5 -400.5t-371.5 -154.5q-164 0 -260 74v-573h-373v1589h352v-70q105 93 281 93zM698 770q-89 0 -142.5 -60t-53.5 -157v-39q0 -97 53.5 -157t142.5 -60q92 0 146.5 62t54.5 173q0 112 -54.5 175t-146.5 63z" />
    <glyph glyph-name="q" unicode="q" horiz-adv-x="1355" 
d="M594 1090q175 0 280 -93v70h353v-1589h-373v573q-96 -74 -260 -74q-229 0 -371.5 154.5t-142.5 400.5q0 248 142.5 403t371.5 155zM657 770q-92 0 -146 -62.5t-54 -175.5q0 -111 54 -173t146 -62q89 0 143 60t54 157v39q0 97 -54 157t-143 60z" />
    <glyph glyph-name="r" unicode="r" horiz-adv-x="823" 
d="M770 1077v-360q-123 0 -195.5 -59t-72.5 -160v-498h-373v1067h360v-90q92 100 281 100z" />
    <glyph glyph-name="s" unicode="s" horiz-adv-x="1044" 
d="M516 1090q212 0 328.5 -95t128.5 -256l-373 -20q2 48 -18.5 78t-65.5 30q-78 0 -78 -63q0 -35 34.5 -52t124.5 -41q17 -5 26 -7q69 -18 117 -35t96.5 -43.5t78 -58t48 -77t18.5 -102.5q0 -170 -119.5 -270.5t-339.5 -100.5q-443 0 -473 351l375 20q-4 -108 98 -108
q84 0 84 69q0 31 -29 50t-124 44q-58 14 -97 25.5t-83 28t-72.5 33.5t-56.5 41.5t-43.5 53.5t-25 68t-9.5 86q0 163 120.5 257t329.5 94z" />
    <glyph glyph-name="t" unicode="t" horiz-adv-x="886" 
d="M586 748l-2 -299q0 -66 42 -102t101 -36q42 0 88 8v-329q-106 -13 -180 -13q-198 0 -311.5 93.5t-112.5 279.5l2 398h-193v319h195l2 344h373l-2 -344h227v-319h-229z" />
    <glyph glyph-name="u" unicode="u" horiz-adv-x="1247" 
d="M1118 0h-352v74q-79 -97 -250 -97q-189 0 -293 104t-104 302v684h373v-592q0 -79 27.5 -114t94.5 -35q131 0 131 145v596h373v-1067z" />
    <glyph glyph-name="v" unicode="v" horiz-adv-x="1226" 
d="M762 0h-297l-463 1067h416l196 -535l197 535h414z" />
    <glyph glyph-name="w" unicode="w" horiz-adv-x="1765" 
d="M1352 0h-297l-170 446l-172 -446h-299l-412 1067h416l157 -528l177 528h262l176 -528l158 528h415z" />
    <glyph glyph-name="x" unicode="x" horiz-adv-x="1181" 
d="M844 535l317 -535h-416l-157 279l-152 -279h-418l318 532l-318 535h414l156 -283l162 283h411z" />
    <glyph glyph-name="y" unicode="y" horiz-adv-x="1226" 
d="M537 -522h-408l285 639l-412 950h414l198 -532l197 532h414z" />
    <glyph glyph-name="z" unicode="z" horiz-adv-x="940" 
d="M860 821l-356 -520h366v-301h-800v246l360 520h-352v301h782v-246z" />
    <glyph glyph-name="braceleft" unicode="{" horiz-adv-x="684" 
d="M645 1161h-12q-87 0 -111.5 -44.5t-9.5 -180.5q10 -56 6.5 -105t-18 -86t-52.5 -60.5t-98 -27.5q60 -4 98 -27.5t52.5 -60.5t18 -86.5t-6.5 -105.5q-15 -136 9.5 -180.5t111.5 -44.5h12v-310h-12q-123 0 -222.5 30.5t-169 90t-96 156.5t-0.5 221q28 103 12 133.5
t-110 30.5h-16v305h16q94 0 110 30.5t-12 133.5q-26 124 0.5 221t96 156.5t169 89.5t222.5 30h12v-309z" />
    <glyph glyph-name="bar" unicode="|" 
d="M504 -137h-375v1669h375v-1669z" />
    <glyph glyph-name="braceright" unicode="}" horiz-adv-x="684" 
d="M41 1470h12q123 0 222 -29.5t169.5 -90.5t95 -155t-0.5 -222q-27 -103 -11 -133.5t111 -30.5h16v-305h-16q-95 0 -111 -30.5t11 -133.5q25 -128 0.5 -222t-95 -155.5t-169.5 -91t-222 -29.5h-12v310h12q58 0 85.5 18t37 68t-3.5 139q-9 56 -5.5 105.5t18.5 86.5t53 60.5
t98 27.5q-60 4 -98 27.5t-53 60.5t-18.5 86t5.5 105q13 89 3.5 139t-37 68t-85.5 18h-12v309z" />
    <glyph glyph-name="asciitilde" unicode="~" horiz-adv-x="1124" 
d="M950 979l166 -248q-148 -201 -342 -201q-54 0 -108.5 17.5t-92 38t-88 38t-96.5 17.5q-69 0 -119.5 -22t-95.5 -78l-166 247q148 201 342 201q68 0 136 -27.5t130.5 -55t118.5 -27.5q69 0 119.5 22t95.5 78z" />
    <glyph glyph-name="exclamdown" unicode="&#xa1;" horiz-adv-x="716" 
d="M360 612q-91 0 -155 64t-64 155q0 90 64 153t155 63t153 -62.5t62 -153.5t-62.5 -155t-152.5 -64zM162 524h393l23 -1032h-439z" />
    <glyph glyph-name="cent" unicode="&#xa2;" horiz-adv-x="1230" 
d="M641 297q64 0 105 36t49 97l364 -31q-24 -158 -125 -264.5t-252 -140.5v-236h-309v240q-181 45 -287 184.5t-106 349.5q0 211 106 351.5t287 185.5v215h309v-211q150 -34 251.5 -140t127.5 -263l-366 -33q-8 61 -49 97t-105 36q-83 0 -133.5 -63t-50.5 -175
q0 -111 50.5 -173t133.5 -62z" />
    <glyph glyph-name="sterling" unicode="&#xa3;" horiz-adv-x="1181" 
d="M1147 350v-350h-1098v322q115 11 152.5 75t29.5 201h-176v309h148l-8 76q-28 273 93 422t376 149q222 0 343.5 -116.5t129.5 -331.5l-394 -21q-1 57 -25 88t-63 31q-106 0 -94 -151l17 -146h276v-309h-246q5 -154 -82 -248h621z" />
    <glyph glyph-name="currency" unicode="&#xa4;" horiz-adv-x="1249" 
d="M1022 516q0 -83 -25 -160l222 -221l-234 -235l-225 225q-65 -19 -135 -19q-61 0 -133 21l-228 -227l-235 235l225 225q-27 79 -27 156q0 75 27 158l-225 227l235 234l228 -228q72 21 133 21t133 -21l227 228l234 -234l-226 -225q29 -79 29 -160zM530 516q0 -147 95 -147
q45 0 69.5 39.5t24.5 107.5q0 70 -24.5 109t-69.5 39q-47 0 -71 -39t-24 -109z" />
    <glyph glyph-name="yen" unicode="&#xa5;" horiz-adv-x="1589" 
d="M1096 733h161v-231h-264v-105h264v-229h-264v-168h-395v168h-264v229h264v105h-264v231h162l-480 799h459l320 -578l319 578h459z" />
    <glyph glyph-name="brokenbar" unicode="&#xa6;" 
d="M504 879h-375v653h375v-653zM504 -137h-375v653h375v-653z" />
    <glyph glyph-name="section" unicode="&#xa7;" horiz-adv-x="1101" 
d="M918 545q116 -74 116 -238q0 -158 -129 -261t-352 -103q-237 0 -365.5 96t-126.5 260l373 14q0 -49 28.5 -81.5t92.5 -32.5q51 0 79 24t28 62q0 33 -32 55.5t-132 46.5q-98 20 -160 36t-125.5 42t-98.5 57t-57 77.5t-22 107.5q0 158 151 256q-112 73 -112 235
q0 157 124 256.5t339 99.5q226 0 347.5 -90.5t123.5 -246.5l-373 -15q0 96 -94 96q-95 0 -95 -75q0 -34 31.5 -57t126.5 -48q73 -15 120 -26.5t101 -28t87 -32.5t65.5 -39.5t50 -50.5t28.5 -63.5t11 -80.5q0 -159 -149 -252zM379 758q0 -45 58.5 -71t205.5 -54
q40 25 60 49.5t20 62.5q0 48 -56 72t-206 53q-41 -25 -61.5 -49.5t-20.5 -62.5z" />
    <glyph glyph-name="dieresis" unicode="&#xa8;" horiz-adv-x="856" 
d="M203 1583q83 0 139.5 -56t56.5 -138q0 -83 -56.5 -140t-139.5 -57q-82 0 -138.5 57t-56.5 140q0 82 56.5 138t138.5 56zM651 1583q83 0 141 -56t58 -138q0 -83 -58 -140t-141 -57q-82 0 -138 57t-56 140q0 82 56 138t138 56z" />
    <glyph glyph-name="copyright" unicode="&#xa9;" horiz-adv-x="1234" 
d="M618 1561q244 0 405 -150.5t161 -376.5q0 -229 -161 -379.5t-405 -150.5q-248 0 -407.5 150t-159.5 380q0 149 72 269.5t202 189t293 68.5zM618 1436q-191 0 -307 -111.5t-116 -290.5q0 -181 116 -292t307 -111q188 0 305 111.5t117 291.5q0 179 -117.5 290.5
t-304.5 111.5zM621 1358q117 0 200 -64.5t103 -175.5l-213 -16q-15 78 -95 78q-52 0 -81 -38t-29 -104q0 -69 31.5 -106t78.5 -37q38 0 63.5 20.5t31.5 59.5l211 -14q-19 -113 -101.5 -178.5t-199.5 -65.5q-143 0 -233.5 86.5t-90.5 234.5t90.5 234t233.5 86z" />
    <glyph glyph-name="ordfeminine" unicode="&#xaa;" horiz-adv-x="954" 
d="M469 1550q399 0 399 -350v-526h-315v43q-73 -62 -203 -62q-141 0 -220 65.5t-79 190.5q0 58 21.5 103t56.5 73t87 47t104 27.5t118 12.5l97 6v45q0 31 -17.5 50t-46.5 19q-36 0 -55 -20t-19 -55l-325 10q0 58 28 115t77.5 103t126 74.5t165.5 28.5zM535 993l-70 -4
q-78 -7 -78 -57q0 -45 59 -45q36 0 62.5 19t26.5 48v39z" />
    <glyph glyph-name="guillemotleft" unicode="&#xab;" horiz-adv-x="1253" 
d="M643 852l-199 -320l199 -317l-299 -182l-313 499l313 502zM1225 852l-199 -320l199 -317l-299 -182l-314 499l314 502z" />
    <glyph glyph-name="logicalnot" unicode="&#xac;" horiz-adv-x="1292" 
d="M1223 279h-291v399h-873v289h1164v-688z" />
    <glyph glyph-name="registered" unicode="&#xae;" horiz-adv-x="1234" 
d="M618 1561q244 0 405 -150.5t161 -376.5q0 -229 -161 -379.5t-405 -150.5q-248 0 -407.5 150t-159.5 380q0 149 72 269.5t202 189t293 68.5zM799 961l104 -236q137 115 137 309q0 179 -117.5 290.5t-304.5 111.5q-191 0 -307 -111.5t-116 -290.5q0 -181 116 -292t307 -111
q168 0 283 92h-219l-86 199h-31v-199h-203v627h308q96 0 152.5 -57.5t56.5 -155.5q0 -121 -80 -176zM565 1083h49q58 0 58 52q0 51 -58 51h-49v-103z" />
    <glyph glyph-name="macron" unicode="&#xaf;" horiz-adv-x="677" 
d="M670 1247h-662v287h662v-287z" />
    <glyph glyph-name="degree" unicode="&#xb0;" horiz-adv-x="808" 
d="M403 1552q158 0 256.5 -85t98.5 -234v-45q0 -149 -99 -234.5t-256 -85.5t-254.5 85.5t-97.5 234.5v45q0 150 97 234.5t255 84.5zM403 1327q-46 0 -73 -28t-27 -78v-21q0 -50 27 -78t73 -28q45 0 73 28t28 78v21q0 50 -28 78t-73 28z" />
    <glyph glyph-name="plusminus" unicode="&#xb1;" horiz-adv-x="1122" 
d="M743 1169h318v-338h-318v-331h-362v331h-320v338h320v332h362v-332zM1061 59h-1000v351h1000v-351z" />
    <glyph glyph-name="acute" unicode="&#xb4;" horiz-adv-x="587" 
d="M299 1229h-291l150 391h422z" />
    <glyph glyph-name="paragraph" unicode="&#xb6;" horiz-adv-x="1509" 
d="M1481 1257h-144v-1394h-288v1394h-154v-1394h-287v878h-104q-205 0 -325 102t-120 294q0 193 120 294t325 101h977v-275z" />
    <glyph glyph-name="periodcentered" unicode="&#xb7;" horiz-adv-x="616" 
d="M287 915q90 0 153.5 -63.5t63.5 -153.5q0 -92 -63 -154.5t-154 -62.5t-154 62.5t-63 154.5q0 90 63.5 153.5t153.5 63.5z" />
    <glyph glyph-name="cedilla" unicode="&#xb8;" horiz-adv-x="561" 
d="M332 29l-31 -113q95 -5 167.5 -65t72.5 -162q0 -105 -87.5 -159t-211.5 -54q-135 0 -211 39l55 176q44 -21 90 -21q33 0 59.5 14t26.5 46t-25 48.5t-59 16.5q-50 0 -78 -14l86 248h146z" />
    <glyph glyph-name="ordmasculine" unicode="&#xba;" horiz-adv-x="1058" 
d="M528 1550q208 0 339.5 -123.5t131.5 -322.5q0 -200 -131.5 -324.5t-339.5 -124.5q-207 0 -338 124.5t-131 324.5q0 199 131 322.5t338 123.5zM528 1268q-63 0 -97 -43.5t-34 -120.5t34 -120.5t97 -43.5q64 0 100 43.5t36 120.5t-36 120.5t-100 43.5z" />
    <glyph glyph-name="guillemotright" unicode="&#xbb;" horiz-adv-x="1253" 
d="M643 532l-315 -499l-297 182l198 317l-198 320l297 182zM1223 532l-314 -499l-299 182l199 317l-199 320l299 182z" />
    <glyph glyph-name="onequarter" unicode="&#xbc;" horiz-adv-x="1558" 
d="M461 0h-379l1012 1532h379zM446 659h-284v469l-66 -34l-121 231l293 176h178v-842zM1460 346h68v-252h-68v-94h-284v94h-318v221l328 527h274v-496zM1104 346h72v115z" />
    <glyph glyph-name="onehalf" unicode="&#xbd;" horiz-adv-x="1662" 
d="M461 0h-379l1012 1532h379zM446 659h-284v469l-66 -34l-121 231l293 176h178v-842zM1321 856q149 0 226 -78t77 -205q0 -124 -117 -262l-47 -57h162v-254h-590v197l268 290q37 43 37 91q0 24 -10 24q-16 0 -16 -35l-279 17q1 126 80.5 199t208.5 73z" />
    <glyph glyph-name="threequarters" unicode="&#xbe;" horiz-adv-x="1703" 
d="M608 0h-379l1012 1532h379zM334 1513q143 0 218 -70t75 -196q0 -53 -17 -87.5t-51 -67.5q32 -24 52 -69t20 -101q0 -131 -82.5 -205t-216.5 -74q-146 0 -223.5 73t-75.5 199l289 19q-6 -37 8 -37q16 0 16 35q0 41 -27 41h-94v221h90q13 0 24 9.5t11 25.5q0 31 -16 31
q-14 0 -12 -31l-279 16q-2 127 73 197.5t218 70.5zM1608 346h67v-252h-67v-94h-285v94h-317v221l327 527h275v-496zM1251 346h72v115z" />
    <glyph glyph-name="questiondown" unicode="&#xbf;" horiz-adv-x="1136" 
d="M561 655q-91 0 -154 63t-63 154t63 154.5t154 63.5t154 -63.5t63 -154.5t-63 -154t-154 -63zM567 -492q-247 0 -391.5 128t-144.5 352q0 59 15.5 108.5t48.5 91.5t58.5 66.5t69.5 60.5q4 3 23.5 19t24 20t20.5 18t21 20t17 18.5t16 21t10 20t8 23t2 23.5v69h393v-84
q0 -43 -14.5 -82.5t-43.5 -75.5t-54.5 -61.5t-64.5 -61.5q-12 -11 -18 -16q-46 -43 -67 -64.5t-42.5 -57.5t-21.5 -70q0 -67 36.5 -102t98.5 -35q64 0 104.5 45t41.5 123l393 -23q-3 -223 -153 -358.5t-386 -135.5z" />
    <glyph glyph-name="Agrave" unicode="&#xc0;" horiz-adv-x="1685" 
d="M995 1628h-336l-407 332h508zM1677 0h-434l-106 244h-588l-107 -244h-434l668 1532h334zM682 547h322l-162 373z" />
    <glyph glyph-name="Aacute" unicode="&#xc1;" horiz-adv-x="1685" 
d="M1008 1628h-336l237 332h506zM1677 0h-434l-106 244h-588l-107 -244h-434l668 1532h334zM682 547h322l-162 373z" />
    <glyph glyph-name="Acircumflex" unicode="&#xc2;" horiz-adv-x="1685" 
d="M1257 1628h-309l-106 135l-105 -135h-311l236 348h362zM1677 0h-434l-106 244h-588l-107 -244h-434l668 1532h334zM682 547h322l-162 373z" />
    <glyph glyph-name="Atilde" unicode="&#xc3;" horiz-adv-x="1685" 
d="M686 1995q44 0 85.5 -16t67 -34.5t57 -34.5t58.5 -16q76 0 76 86h209q9 -95 -17 -178t-85.5 -135.5t-139.5 -52.5q-46 0 -88 16t-67.5 35t-56.5 35t-56 16q-76 0 -76 -88h-209q-9 96 16.5 179t85 135.5t140.5 52.5zM1677 0h-434l-106 244h-588l-107 -244h-434l668 1532
h334zM682 547h322l-162 373z" />
    <glyph glyph-name="Adieresis" unicode="&#xc4;" horiz-adv-x="1685" 
d="M616 2007q83 0 140 -57.5t57 -139.5q0 -83 -56.5 -138.5t-140.5 -55.5q-82 0 -138 55.5t-56 138.5q0 82 56.5 139.5t137.5 57.5zM1065 2007q83 0 141 -57.5t58 -139.5q0 -83 -57.5 -138.5t-141.5 -55.5q-82 0 -138.5 55.5t-56.5 138.5q0 82 56.5 139.5t138.5 57.5z
M1677 0h-434l-106 244h-588l-107 -244h-434l668 1532h334zM682 547h322l-162 373z" />
    <glyph glyph-name="Aring" unicode="&#xc5;" horiz-adv-x="1685" 
d="M842 2087q104 0 176 -65.5t72 -166.5q0 -100 -72 -165.5t-176 -65.5q-107 0 -178.5 65.5t-71.5 165.5q0 102 71.5 167t178.5 65zM842 1927q-33 0 -52.5 -20.5t-19.5 -51.5q0 -30 19.5 -49.5t52.5 -19.5q32 0 50.5 19.5t18.5 49.5q0 31 -18.5 51.5t-50.5 20.5zM1677 0
h-434l-106 244h-588l-107 -244h-434l668 1532h334zM682 547h322l-162 373z" />
    <glyph glyph-name="AE" unicode="&#xc6;" horiz-adv-x="2197" 
d="M2093 350v-350h-1006v244h-432l-168 -244h-481l1038 1532h1047v-350h-608v-230h520v-342h-520v-260h610zM1087 547v350l-231 -350h231z" />
    <glyph glyph-name="Ccedilla" unicode="&#xc7;" horiz-adv-x="1714" 
d="M872 328q135 0 226.5 71.5t118.5 208.5l413 -35q-28 -175 -127 -308t-247 -206.5t-326 -81.5l-21 -71q95 -5 167.5 -65.5t72.5 -162.5q0 -105 -87.5 -159t-211.5 -54q-135 0 -211 39l55 177q44 -21 90 -21q33 0 59.5 13.5t26.5 45.5t-25 49t-59 17q-49 0 -77 -14l73 213
q-152 15 -279.5 76t-219 159.5t-142.5 238.5t-51 308q0 242 104 422t283.5 273t409.5 93q288 0 493.5 -159.5t249.5 -431.5l-413 -39q-32 140 -120.5 210t-224.5 70q-174 0 -276 -120t-102 -318q0 -211 105.5 -324.5t272.5 -113.5z" />
    <glyph glyph-name="Egrave" unicode="&#xc8;" horiz-adv-x="1245" 
d="M799 1628h-336l-408 332h508zM1139 1182h-609v-230h521v-342h-521v-260h611v-350h-1006v1532h1004v-350z" />
    <glyph glyph-name="Eacute" unicode="&#xc9;" horiz-adv-x="1245" 
d="M811 1628h-336l238 332h506zM1139 1182h-609v-230h521v-342h-521v-260h611v-350h-1006v1532h1004v-350z" />
    <glyph glyph-name="Ecircumflex" unicode="&#xca;" horiz-adv-x="1245" 
d="M1061 1628h-309l-107 135l-104 -135h-312l236 348h362zM1139 1182h-609v-230h521v-342h-521v-260h611v-350h-1006v1532h1004v-350z" />
    <glyph glyph-name="Edieresis" unicode="&#xcb;" horiz-adv-x="1245" 
d="M420 2007q83 0 139.5 -57.5t56.5 -139.5q0 -83 -56.5 -138.5t-139.5 -55.5q-82 0 -138.5 55.5t-56.5 138.5q0 82 56.5 139.5t138.5 57.5zM868 2007q83 0 141 -57.5t58 -139.5q0 -83 -57.5 -138.5t-141.5 -55.5q-82 0 -138 55.5t-56 138.5q0 82 56.5 139.5t137.5 57.5z
M1139 1182h-609v-230h521v-342h-521v-260h611v-350h-1006v1532h1004v-350z" />
    <glyph glyph-name="Igrave" unicode="&#xcc;" horiz-adv-x="665" 
d="M498 1628h-336l-408 332h508zM530 0h-395v1532h395v-1532z" />
    <glyph glyph-name="Iacute" unicode="&#xcd;" horiz-adv-x="665" 
d="M510 1628h-336l238 332h506zM530 0h-395v1532h395v-1532z" />
    <glyph glyph-name="Icircumflex" unicode="&#xce;" horiz-adv-x="665" 
d="M760 1628h-309l-107 135l-104 -135h-312l236 348h362zM530 0h-395v1532h395v-1532z" />
    <glyph glyph-name="Idieresis" unicode="&#xcf;" horiz-adv-x="665" 
d="M119 2007q83 0 139.5 -57.5t56.5 -139.5q0 -83 -56.5 -138.5t-139.5 -55.5q-82 0 -138.5 55.5t-56.5 138.5q0 82 56.5 139.5t138.5 57.5zM567 2007q83 0 141 -57.5t58 -139.5q0 -83 -57.5 -138.5t-141.5 -55.5q-82 0 -138 55.5t-56 138.5q0 82 56.5 139.5t137.5 57.5z
M530 0h-395v1532h395v-1532z" />
    <glyph glyph-name="Eth" unicode="&#xd0;" horiz-adv-x="1662" 
d="M168 1532h649q167 0 309 -53t245 -150t161.5 -242t58.5 -321t-58.5 -321t-161.5 -242t-245 -150t-309 -53h-649v614h-145v301h145v617zM563 340h258q181 0 280 106t99 320t-99 320t-280 106h-258v-277h172v-301h-172v-274z" />
    <glyph glyph-name="Ntilde" unicode="&#xd1;" horiz-adv-x="1583" 
d="M614 1995q56 0 106 -25.5t90 -50.5t73 -25q75 0 75 86h209q14 -147 -53.5 -256.5t-187.5 -109.5q-46 0 -88 16t-68 35t-57 35t-56 16q-75 0 -75 -88h-209q-9 96 16.5 179t84.5 135.5t140 52.5zM1448 0h-338l-580 803v-803h-395v1532h336l582 -807v807h395v-1532z" />
    <glyph glyph-name="Ograve" unicode="&#xd2;" horiz-adv-x="1802" 
d="M1057 1628h-336l-408 332h508zM903 1554q234 0 417.5 -96t287.5 -276t104 -416t-104 -416t-287.5 -276.5t-417.5 -96.5q-236 0 -420.5 96.5t-288.5 276.5t-104 416q0 177 60.5 325t167.5 249.5t257.5 157.5t327.5 56zM903 1204q-188 0 -298.5 -117.5t-110.5 -320.5
t110.5 -320.5t298.5 -117.5q187 0 296.5 117.5t109.5 320.5t-109.5 320.5t-296.5 117.5z" />
    <glyph glyph-name="Oacute" unicode="&#xd3;" horiz-adv-x="1802" 
d="M1069 1628h-336l238 332h506zM903 1554q234 0 417.5 -96t287.5 -276t104 -416t-104 -416t-287.5 -276.5t-417.5 -96.5q-236 0 -420.5 96.5t-288.5 276.5t-104 416q0 177 60.5 325t167.5 249.5t257.5 157.5t327.5 56zM903 1204q-188 0 -298.5 -117.5t-110.5 -320.5
t110.5 -320.5t298.5 -117.5q187 0 296.5 117.5t109.5 320.5t-109.5 320.5t-296.5 117.5z" />
    <glyph glyph-name="Ocircumflex" unicode="&#xd4;" horiz-adv-x="1802" 
d="M1319 1628h-309l-107 135l-104 -135h-312l236 348h362zM903 1554q234 0 417.5 -96t287.5 -276t104 -416t-104 -416t-287.5 -276.5t-417.5 -96.5q-236 0 -420.5 96.5t-288.5 276.5t-104 416q0 177 60.5 325t167.5 249.5t257.5 157.5t327.5 56zM903 1204
q-188 0 -298.5 -117.5t-110.5 -320.5t110.5 -320.5t298.5 -117.5q187 0 296.5 117.5t109.5 320.5t-109.5 320.5t-296.5 117.5z" />
    <glyph glyph-name="Otilde" unicode="&#xd5;" horiz-adv-x="1802" 
d="M748 1995q44 0 85.5 -16t67 -34.5t57 -34.5t58.5 -16q76 0 76 86h208q14 -147 -53.5 -256.5t-187.5 -109.5q-46 0 -88 16t-67.5 35t-56.5 35t-56 16q-76 0 -76 -88h-209q-9 96 16.5 179t85 135.5t140.5 52.5zM903 1554q234 0 417.5 -96t287.5 -276t104 -416t-104 -416
t-287.5 -276.5t-417.5 -96.5q-236 0 -420.5 96.5t-288.5 276.5t-104 416q0 177 60.5 325t167.5 249.5t257.5 157.5t327.5 56zM903 1204q-188 0 -298.5 -117.5t-110.5 -320.5t110.5 -320.5t298.5 -117.5q187 0 296.5 117.5t109.5 320.5t-109.5 320.5t-296.5 117.5z" />
    <glyph glyph-name="Odieresis" unicode="&#xd6;" horiz-adv-x="1802" 
d="M680 2007q83 0 140 -57.5t57 -139.5q0 -83 -56.5 -138.5t-140.5 -55.5q-82 0 -138.5 55.5t-56.5 138.5q0 82 56.5 139.5t138.5 57.5zM1128 2007q83 0 141 -57.5t58 -139.5q0 -83 -57.5 -138.5t-141.5 -55.5q-82 0 -138 55.5t-56 138.5q0 82 56.5 139.5t137.5 57.5z
M903 1554q234 0 417.5 -96t287.5 -276t104 -416t-104 -416t-287.5 -276.5t-417.5 -96.5q-236 0 -420.5 96.5t-288.5 276.5t-104 416q0 177 60.5 325t167.5 249.5t257.5 157.5t327.5 56zM903 1204q-188 0 -298.5 -117.5t-110.5 -320.5t110.5 -320.5t298.5 -117.5
q187 0 296.5 117.5t109.5 320.5t-109.5 320.5t-296.5 117.5z" />
    <glyph glyph-name="multiply" unicode="&#xd7;" horiz-adv-x="1157" 
d="M1077 1012l-252 -252l252 -252l-248 -246l-249 250l-252 -250l-248 248l252 250l-252 252l248 248l252 -252l249 252z" />
    <glyph glyph-name="Oslash" unicode="&#xd8;" horiz-adv-x="1806" 
d="M1632 1473l-121 -160q201 -214 201 -547q0 -236 -104 -416t-287.5 -276.5t-417.5 -96.5q-197 0 -362 70l-127 -166l-242 185l119 153q-201 217 -201 547q0 177 60.5 325t167.5 249.5t257.5 157.5t327.5 56q196 0 359 -69l129 170zM494 766q0 -125 45 -223l493 645
q-62 16 -129 16q-188 0 -298.5 -117.5t-110.5 -320.5zM903 328q187 0 296.5 117.5t109.5 320.5q0 134 -45 225l-494 -645q62 -18 133 -18z" />
    <glyph glyph-name="Ugrave" unicode="&#xd9;" horiz-adv-x="1607" 
d="M958 1628h-335l-408 332h508zM1481 1532v-881q0 -317 -179.5 -495.5t-496.5 -178.5q-319 0 -499.5 178.5t-180.5 495.5v881h395v-875q0 -160 71 -244.5t214 -84.5q141 0 211.5 84.5t70.5 244.5v875h394z" />
    <glyph glyph-name="Uacute" unicode="&#xda;" horiz-adv-x="1607" 
d="M971 1628h-336l237 332h506zM1481 1532v-881q0 -317 -179.5 -495.5t-496.5 -178.5q-319 0 -499.5 178.5t-180.5 495.5v881h395v-875q0 -160 71 -244.5t214 -84.5q141 0 211.5 84.5t70.5 244.5v875h394z" />
    <glyph glyph-name="Ucircumflex" unicode="&#xdb;" horiz-adv-x="1607" 
d="M1221 1628h-310l-106 135l-105 -135h-311l236 348h362zM1481 1532v-881q0 -317 -179.5 -495.5t-496.5 -178.5q-319 0 -499.5 178.5t-180.5 495.5v881h395v-875q0 -160 71 -244.5t214 -84.5q141 0 211.5 84.5t70.5 244.5v875h394z" />
    <glyph glyph-name="Udieresis" unicode="&#xdc;" horiz-adv-x="1607" 
d="M580 2007q83 0 139.5 -57.5t56.5 -139.5q0 -83 -56.5 -138.5t-139.5 -55.5q-82 0 -138.5 55.5t-56.5 138.5q0 82 56.5 139.5t138.5 57.5zM1028 2007q83 0 141 -57.5t58 -139.5q0 -83 -57.5 -138.5t-141.5 -55.5q-82 0 -138 55.5t-56 138.5q0 82 56.5 139.5t137.5 57.5z
M1481 1532v-881q0 -317 -179.5 -495.5t-496.5 -178.5q-319 0 -499.5 178.5t-180.5 495.5v881h395v-875q0 -160 71 -244.5t214 -84.5q141 0 211.5 84.5t70.5 244.5v875h394z" />
    <glyph glyph-name="Yacute" unicode="&#xdd;" horiz-adv-x="1589" 
d="M961 1628h-336l237 332h506zM993 561v-561h-395v561l-582 971h459l320 -578l319 578h459z" />
    <glyph glyph-name="Thorn" unicode="&#xde;" horiz-adv-x="1370" 
d="M530 1350h285q234 0 373 -136.5t139 -375.5t-139 -375.5t-373 -136.5h-285v-326h-395v1532h395v-182zM530 999v-323h236q73 0 115.5 43.5t42.5 118.5q0 76 -42 118.5t-116 42.5h-236z" />
    <glyph glyph-name="germandbls" unicode="&#xdf;" horiz-adv-x="1380" 
d="M649 1608q239 0 386 -104.5t147 -274.5q0 -60 -18 -104.5t-43.5 -71t-51 -49.5t-43.5 -53t-18 -68q0 -33 16.5 -62t42.5 -52.5t57.5 -48t63.5 -54t58 -63.5t42.5 -84t16.5 -109q0 -135 -68 -233t-179.5 -145.5t-252.5 -47.5q-119 0 -230 39l70 299q69 -27 123 -27
q66 0 113 40t47 111q0 39 -22 75.5t-55 64t-71.5 60.5t-71.5 63.5t-55 74t-22 90.5q0 45 12.5 79.5t32 53.5t41.5 38t41.5 32.5t32 35.5t12.5 50q0 63 -37.5 99t-110.5 36t-113 -47t-40 -137v-1114h-375v1124q0 222 142.5 353t379.5 131z" />
    <glyph glyph-name="agrave" unicode="&#xe0;" horiz-adv-x="1159" 
d="M735 1229h-291l-280 391h422zM578 1090q227 0 344.5 -110t117.5 -327v-653h-350v76q-91 -99 -258 -99q-166 0 -259 81t-93 235q0 311 467 330l121 4v55q0 100 -84 100q-48 0 -75.5 -29.5t-27.5 -64.5l-372 12q0 72 33.5 141.5t92.5 125t149 89.5t194 34zM666 410l-95 -4
q-118 -7 -118 -82q0 -37 23 -55.5t61 -18.5q51 0 90 31t39 77v52z" />
    <glyph glyph-name="aacute" unicode="&#xe1;" horiz-adv-x="1159" 
d="M741 1229h-290l149 391h422zM578 1090q227 0 344.5 -110t117.5 -327v-653h-350v76q-91 -99 -258 -99q-166 0 -259 81t-93 235q0 311 467 330l121 4v55q0 100 -84 100q-48 0 -75.5 -29.5t-27.5 -64.5l-372 12q0 72 33.5 141.5t92.5 125t149 89.5t194 34zM666 410l-95 -4
q-118 -7 -118 -82q0 -37 23 -55.5t61 -18.5q51 0 90 31t39 77v52z" />
    <glyph glyph-name="acircumflex" unicode="&#xe2;" horiz-adv-x="1159" 
d="M1016 1229h-309l-107 133l-104 -133h-312l236 373h362zM578 1090q227 0 344.5 -110t117.5 -327v-653h-350v76q-91 -99 -258 -99q-166 0 -259 81t-93 235q0 311 467 330l121 4v55q0 100 -84 100q-48 0 -75.5 -29.5t-27.5 -64.5l-372 12q0 72 33.5 141.5t92.5 125t149 89.5
t194 34zM666 410l-95 -4q-118 -7 -118 -82q0 -37 23 -55.5t61 -18.5q51 0 90 31t39 77v52z" />
    <glyph glyph-name="atilde" unicode="&#xe3;" horiz-adv-x="1159" 
d="M444 1589q44 0 85.5 -15.5t67.5 -34.5t57.5 -34.5t58.5 -15.5q75 0 75 86h209q14 -147 -53.5 -256t-187.5 -109q-46 0 -88 16t-68 34.5t-57 34.5t-56 16q-75 0 -75 -86h-209q-9 95 16.5 177.5t84.5 134.5t140 52zM578 1090q227 0 344.5 -110t117.5 -327v-653h-350v76
q-91 -99 -258 -99q-166 0 -259 81t-93 235q0 311 467 330l121 4v55q0 100 -84 100q-48 0 -75.5 -29.5t-27.5 -64.5l-372 12q0 72 33.5 141.5t92.5 125t149 89.5t194 34zM666 410l-95 -4q-118 -7 -118 -82q0 -37 23 -55.5t61 -18.5q51 0 90 31t39 77v52z" />
    <glyph glyph-name="adieresis" unicode="&#xe4;" horiz-adv-x="1159" 
d="M375 1583q83 0 139.5 -56t56.5 -138q0 -83 -56.5 -140t-139.5 -57q-82 0 -138.5 57t-56.5 140q0 82 56.5 138t138.5 56zM823 1583q83 0 141 -56t58 -138q0 -83 -58 -140t-141 -57q-82 0 -138 57t-56 140q0 82 56 138t138 56zM578 1090q227 0 344.5 -110t117.5 -327v-653
h-350v76q-91 -99 -258 -99q-166 0 -259 81t-93 235q0 311 467 330l121 4v55q0 100 -84 100q-48 0 -75.5 -29.5t-27.5 -64.5l-372 12q0 72 33.5 141.5t92.5 125t149 89.5t194 34zM666 410l-95 -4q-118 -7 -118 -82q0 -37 23 -55.5t61 -18.5q51 0 90 31t39 77v52z" />
    <glyph glyph-name="aring" unicode="&#xe5;" horiz-adv-x="1159" 
d="M602 1716q121 0 205 -76t84 -192q0 -117 -83.5 -193.5t-205.5 -76.5q-123 0 -207 76.5t-84 193.5q0 116 84 192t207 76zM602 1526q-37 0 -58.5 -21.5t-21.5 -56.5q0 -36 22 -58t58 -22q35 0 56.5 22.5t21.5 57.5t-21.5 56.5t-56.5 21.5zM578 1090q227 0 344.5 -110
t117.5 -327v-653h-350v76q-91 -99 -258 -99q-166 0 -259 81t-93 235q0 311 467 330l121 4v55q0 100 -84 100q-48 0 -75.5 -29.5t-27.5 -64.5l-372 12q0 72 33.5 141.5t92.5 125t149 89.5t194 34zM666 410l-95 -4q-118 -7 -118 -82q0 -37 23 -55.5t61 -18.5q51 0 90 31t39 77
v52z" />
    <glyph glyph-name="ae" unicode="&#xe6;" horiz-adv-x="1824" 
d="M1747 432h-680q0 -76 39 -122t119 -46q109 0 135 82l377 -18q-26 -160 -167.5 -255.5t-336.5 -95.5q-245 0 -397 140q-160 -140 -361 -140q-189 0 -292 83t-103 237q0 74 26 130.5t68.5 91.5t105 58t126 33t141.5 13l121 4v47q0 106 -88 106q-48 0 -73.5 -28.5
t-25.5 -63.5l-372 12q0 72 32 141.5t88.5 125t144.5 89.5t191 34q202 0 318 -101q141 101 342 101q235 0 378.5 -142t143.5 -395v-121zM1221 815q-69 0 -109 -44t-45 -120h301q-3 77 -40 120.5t-107 43.5zM666 410l-95 -4q-118 -7 -118 -84q0 -72 84 -72q53 0 91 31.5
t38 76.5v52z" />
    <glyph glyph-name="ccedilla" unicode="&#xe7;" horiz-adv-x="1230" 
d="M641 297q64 0 105 36t49 97l364 -31q-29 -186 -160 -297t-321 -122l-19 -72q95 -5 167.5 -65t72.5 -162q0 -105 -87.5 -159t-211.5 -54q-137 0 -211 38l55 177q44 -21 91 -21q33 0 59.5 13.5t26.5 45.5t-25 49t-59 17q-50 0 -78 -14l73 213q-204 31 -328 175.5
t-124 370.5q0 171 73 299t199.5 193.5t288.5 65.5q201 0 344.5 -113t175.5 -307l-366 -33q-8 61 -49 97t-105 36q-83 0 -133.5 -63t-50.5 -175q0 -111 50.5 -173t133.5 -62z" />
    <glyph glyph-name="egrave" unicode="&#xe8;" horiz-adv-x="1234" 
d="M469 1229l-281 391h422l150 -391h-291zM1155 432h-678q0 -77 38.5 -122.5t117.5 -45.5q108 0 137 82l375 -18q-26 -160 -167.5 -255.5t-334.5 -95.5q-255 0 -409 150t-154 405t152.5 406.5t400.5 151.5q236 0 379 -142t143 -395v-121zM629 815q-68 0 -107.5 -44
t-44.5 -120h301q-3 77 -40.5 120.5t-108.5 43.5z" />
    <glyph glyph-name="eacute" unicode="&#xe9;" horiz-adv-x="1234" 
d="M764 1229h-291l150 391h421zM1155 432h-678q0 -77 38.5 -122.5t117.5 -45.5q108 0 137 82l375 -18q-26 -160 -167.5 -255.5t-334.5 -95.5q-255 0 -409 150t-154 405t152.5 406.5t400.5 151.5q236 0 379 -142t143 -395v-121zM629 815q-68 0 -107.5 -44t-44.5 -120h301
q-3 77 -40.5 120.5t-108.5 43.5z" />
    <glyph glyph-name="ecircumflex" unicode="&#xea;" horiz-adv-x="1234" 
d="M520 1229h-311l235 373h363l233 -373h-309l-106 133zM1155 432h-678q0 -77 38.5 -122.5t117.5 -45.5q108 0 137 82l375 -18q-26 -160 -167.5 -255.5t-334.5 -95.5q-255 0 -409 150t-154 405t152.5 406.5t400.5 151.5q236 0 379 -142t143 -395v-121zM629 815
q-68 0 -107.5 -44t-44.5 -120h301q-3 77 -40.5 120.5t-108.5 43.5z" />
    <glyph glyph-name="edieresis" unicode="&#xeb;" horiz-adv-x="1234" 
d="M399 1192q-82 0 -138 57t-56 140q0 82 56 138t138 56q83 0 140 -56t57 -138q0 -83 -57 -140t-140 -57zM848 1192q-82 0 -138.5 57t-56.5 140q0 82 56.5 138t138.5 56q83 0 141 -56t58 -138q0 -83 -58 -140t-141 -57zM1155 432h-678q0 -77 38.5 -122.5t117.5 -45.5
q108 0 137 82l375 -18q-26 -160 -167.5 -255.5t-334.5 -95.5q-255 0 -409 150t-154 405t152.5 406.5t400.5 151.5q236 0 379 -142t143 -395v-121zM629 815q-68 0 -107.5 -44t-44.5 -120h301q-3 77 -40.5 120.5t-108.5 43.5z" />
    <glyph glyph-name="igrave" unicode="&#xec;" 
d="M459 1229h-291l-281 391h422zM502 0h-373v1067h373v-1067z" />
    <glyph glyph-name="iacute" unicode="&#xed;" 
d="M463 1229h-291l150 391h421zM502 0h-373v1067h373v-1067z" />
    <glyph glyph-name="icircumflex" unicode="&#xee;" 
d="M739 1229h-309l-106 133l-105 -133h-311l235 373h363zM502 0h-373v1067h373v-1067z" />
    <glyph glyph-name="idieresis" unicode="&#xef;" 
d="M96 1583q83 0 140 -56t57 -138q0 -83 -57 -140t-140 -57q-82 0 -138 57t-56 140q0 82 56 138t138 56zM545 1583q83 0 140.5 -56t57.5 -138q0 -83 -57.5 -140t-140.5 -57q-82 0 -138.5 57t-56.5 140q0 82 56.5 138t138.5 56zM502 0h-373v1067h373v-1067z" />
    <glyph glyph-name="eth" unicode="&#xf0;" horiz-adv-x="1249" 
d="M1001 1495l-114 -119q143 -133 215 -339.5t72 -469.5q0 -281 -149.5 -435.5t-410.5 -154.5q-107 0 -203 34t-170 97t-117.5 161.5t-43.5 217.5q0 115 43 209.5t117 156t169.5 95t202.5 33.5q80 0 154 -18q-40 121 -96 188l-119 -125l-168 164l90 94q-95 31 -205 37v270
q241 0 420 -84l141 148zM631 276q86 0 132 60.5t46 146.5q0 99 -46 155t-132 56q-83 0 -135 -57.5t-52 -151.5q0 -95 52 -152t135 -57z" />
    <glyph glyph-name="ntilde" unicode="&#xf1;" horiz-adv-x="1277" 
d="M510 1589q44 0 85.5 -15.5t67 -34.5t57 -34.5t58.5 -15.5q76 0 76 86h209q9 -95 -17 -178t-85.5 -135t-139.5 -52q-46 0 -88 16t-67.5 34.5t-56.5 34.5t-56 16q-76 0 -76 -86h-209q-9 95 16.5 177.5t85 134.5t140.5 52zM743 1090q190 0 303 -111t113 -313v-666h-373v575
q0 166 -139 166q-67 0 -106 -44t-39 -124v-573h-373v1067h352v-74q34 42 101 69.5t161 27.5z" />
    <glyph glyph-name="ograve" unicode="&#xf2;" horiz-adv-x="1316" 
d="M791 1229h-291l-281 391h422zM657 1090q255 0 417.5 -154.5t162.5 -403.5t-162.5 -402t-417.5 -153q-167 0 -298 68.5t-205 195.5t-74 291q0 249 161.5 403.5t415.5 154.5zM657 770q-92 0 -146 -63.5t-54 -174.5q0 -109 54.5 -172t145.5 -63q94 0 148.5 62.5t54.5 172.5
q0 112 -54.5 175t-148.5 63z" />
    <glyph glyph-name="oacute" unicode="&#xf3;" horiz-adv-x="1316" 
d="M797 1229h-291l149 391h422zM657 1090q255 0 417.5 -154.5t162.5 -403.5t-162.5 -402t-417.5 -153q-167 0 -298 68.5t-205 195.5t-74 291q0 249 161.5 403.5t415.5 154.5zM657 770q-92 0 -146 -63.5t-54 -174.5q0 -109 54.5 -172t145.5 -63q94 0 148.5 62.5t54.5 172.5
q0 112 -54.5 175t-148.5 63z" />
    <glyph glyph-name="ocircumflex" unicode="&#xf4;" horiz-adv-x="1316" 
d="M1071 1229h-309l-107 133l-104 -133h-311l235 373h363zM657 1090q255 0 417.5 -154.5t162.5 -403.5t-162.5 -402t-417.5 -153q-167 0 -298 68.5t-205 195.5t-74 291q0 249 161.5 403.5t415.5 154.5zM657 770q-92 0 -146 -63.5t-54 -174.5q0 -109 54.5 -172t145.5 -63
q94 0 148.5 62.5t54.5 172.5q0 112 -54.5 175t-148.5 63z" />
    <glyph glyph-name="otilde" unicode="&#xf5;" horiz-adv-x="1316" 
d="M500 1589q44 0 85.5 -15.5t67 -34.5t57 -34.5t58.5 -15.5q76 0 76 86h209q9 -95 -17 -178t-85.5 -135t-139.5 -52q-46 0 -88 16t-67.5 34.5t-56.5 34.5t-56 16q-76 0 -76 -86h-209q-9 95 16.5 177.5t85 134.5t140.5 52zM657 1090q255 0 417.5 -154.5t162.5 -403.5
t-162.5 -402t-417.5 -153q-167 0 -298 68.5t-205 195.5t-74 291q0 249 161.5 403.5t415.5 154.5zM657 770q-92 0 -146 -63.5t-54 -174.5q0 -109 54.5 -172t145.5 -63q94 0 148.5 62.5t54.5 172.5q0 112 -54.5 175t-148.5 63z" />
    <glyph glyph-name="odieresis" unicode="&#xf6;" horiz-adv-x="1316" 
d="M430 1583q83 0 140 -56t57 -138q0 -83 -57 -140t-140 -57q-82 0 -138 57t-56 140q0 82 56 138t138 56zM879 1583q83 0 140.5 -56t57.5 -138q0 -83 -57.5 -140t-140.5 -57q-82 0 -138.5 57t-56.5 140q0 82 56.5 138t138.5 56zM657 1090q255 0 417.5 -154.5t162.5 -403.5
t-162.5 -402t-417.5 -153q-167 0 -298 68.5t-205 195.5t-74 291q0 249 161.5 403.5t415.5 154.5zM657 770q-92 0 -146 -63.5t-54 -174.5q0 -109 54.5 -172t145.5 -63q94 0 148.5 62.5t54.5 172.5q0 112 -54.5 175t-148.5 63z" />
    <glyph glyph-name="divide" unicode="&#xf7;" horiz-adv-x="1122" 
d="M561 1511q91 0 155 -63t64 -154t-64 -154t-155 -63t-153 63t-62 154t62 154t153 63zM1061 588h-1000v350h1000v-350zM561 446q91 0 155 -62.5t64 -152.5q0 -91 -64 -155t-155 -64q-90 0 -152.5 64t-62.5 155t62 153t153 62z" />
    <glyph glyph-name="oslash" unicode="&#xf8;" horiz-adv-x="1316" 
d="M1169 997l-67 -90q135 -148 135 -375q0 -249 -162.5 -402t-417.5 -153q-124 0 -225 37l-94 -125l-205 152l86 113q-139 152 -139 378q0 249 161.5 403.5t415.5 154.5q122 0 234 -39l74 98zM457 532q0 -19 4 -55l219 293h-23q-92 0 -146 -63.5t-54 -174.5zM643 297h14
q94 0 148.5 62.5t54.5 172.5q0 18 -4 50z" />
    <glyph glyph-name="ugrave" unicode="&#xf9;" horiz-adv-x="1247" 
d="M758 1229h-291l-281 391h422zM1118 0h-352v74q-79 -97 -250 -97q-189 0 -293 104t-104 302v684h373v-592q0 -79 27.5 -114t94.5 -35q131 0 131 145v596h373v-1067z" />
    <glyph glyph-name="uacute" unicode="&#xfa;" horiz-adv-x="1247" 
d="M764 1229h-291l150 391h421zM1118 0h-352v74q-79 -97 -250 -97q-189 0 -293 104t-104 302v684h373v-592q0 -79 27.5 -114t94.5 -35q131 0 131 145v596h373v-1067z" />
    <glyph glyph-name="ucircumflex" unicode="&#xfb;" horiz-adv-x="1247" 
d="M1038 1229h-309l-106 133l-105 -133h-311l235 373h363zM1118 0h-352v74q-79 -97 -250 -97q-189 0 -293 104t-104 302v684h373v-592q0 -79 27.5 -114t94.5 -35q131 0 131 145v596h373v-1067z" />
    <glyph glyph-name="udieresis" unicode="&#xfc;" horiz-adv-x="1247" 
d="M397 1583q83 0 140 -56t57 -138q0 -83 -57 -140t-140 -57q-82 0 -138 57t-56 140q0 82 56 138t138 56zM846 1583q83 0 140.5 -56t57.5 -138q0 -83 -57.5 -140t-140.5 -57q-82 0 -138.5 57t-56.5 140q0 82 56.5 138t138.5 56zM1118 0h-352v74q-79 -97 -250 -97
q-189 0 -293 104t-104 302v684h373v-592q0 -79 27.5 -114t94.5 -35q131 0 131 145v596h373v-1067z" />
    <glyph glyph-name="yacute" unicode="&#xfd;" horiz-adv-x="1226" 
d="M754 1229h-291l149 391h422zM537 -522h-408l285 639l-412 950h414l198 -532l197 532h414z" />
    <glyph glyph-name="thorn" unicode="&#xfe;" horiz-adv-x="1355" 
d="M502 1591v-575q96 74 260 74q229 0 371.5 -155t142.5 -403q0 -246 -142.5 -400.5t-371.5 -154.5q-164 0 -260 74v-573h-373v2113h373zM698 770q-89 0 -142.5 -60t-53.5 -157v-39q0 -97 53.5 -157t142.5 -60q92 0 146.5 62t54.5 173q0 112 -54.5 175t-146.5 63z" />
    <glyph glyph-name="ydieresis" unicode="&#xff;" horiz-adv-x="1226" 
d="M387 1583q83 0 140 -56t57 -138q0 -83 -57 -140t-140 -57q-82 0 -138 57t-56 140q0 82 56 138t138 56zM836 1583q83 0 140.5 -56t57.5 -138q0 -83 -57.5 -140t-140.5 -57q-82 0 -138.5 57t-56.5 140q0 82 56.5 138t138.5 56zM537 -522h-408l285 639l-412 950h414
l198 -532l197 532h414z" />
    <glyph glyph-name="Amacron" unicode="&#x100;" horiz-adv-x="1685" 
d="M1174 1645h-662v284h662v-284zM1677 0h-434l-106 244h-588l-107 -244h-434l668 1532h334zM682 547h322l-162 373z" />
    <glyph glyph-name="amacron" unicode="&#x101;" horiz-adv-x="1159" 
d="M932 1247h-662v287h662v-287zM578 1090q227 0 344.5 -110t117.5 -327v-653h-350v76q-91 -99 -258 -99q-166 0 -259 81t-93 235q0 311 467 330l121 4v55q0 100 -84 100q-48 0 -75.5 -29.5t-27.5 -64.5l-372 12q0 72 33.5 141.5t92.5 125t149 89.5t194 34zM666 410l-95 -4
q-118 -7 -118 -82q0 -37 23 -55.5t61 -18.5q51 0 90 31t39 77v52z" />
    <glyph glyph-name="Abreve" unicode="&#x102;" horiz-adv-x="1685" 
d="M956 1999h304q0 -187 -114 -283t-304 -96q-189 0 -302.5 96t-113.5 283h303q0 -58 30.5 -90.5t82.5 -32.5q53 0 83.5 32.5t30.5 90.5zM1677 0h-434l-106 244h-588l-107 -244h-434l668 1532h334zM682 547h322l-162 373z" />
    <glyph glyph-name="abreve" unicode="&#x103;" horiz-adv-x="1159" 
d="M715 1585h303q0 -187 -114 -283t-304 -96q-189 0 -302.5 96t-113.5 283h303q0 -57 31 -90t82 -33q53 0 84 33t31 90zM578 1090q227 0 344.5 -110t117.5 -327v-653h-350v76q-91 -99 -258 -99q-166 0 -259 81t-93 235q0 311 467 330l121 4v55q0 100 -84 100
q-48 0 -75.5 -29.5t-27.5 -64.5l-372 12q0 72 33.5 141.5t92.5 125t149 89.5t194 34zM666 410l-95 -4q-118 -7 -118 -82q0 -37 23 -55.5t61 -18.5q51 0 90 31t39 77v52z" />
    <glyph glyph-name="Aogonek" unicode="&#x104;" horiz-adv-x="1685" 
d="M1366 -203q44 0 92 23l33 -178q-86 -39 -191 -39q-124 0 -201 52t-77 157q0 149 205 227l-90 205h-588l-107 -244h-434l668 1532h334l667 -1532h-254q-66 -39 -94.5 -69.5t-28.5 -73.5q0 -28 17.5 -44t48.5 -16zM1004 547l-162 373l-160 -373h322z" />
    <glyph glyph-name="aogonek" unicode="&#x105;" horiz-adv-x="1159" 
d="M1040 0h-73q-64 -39 -92.5 -69.5t-28.5 -71.5q0 -28 17 -44t48 -16q45 0 93 23l32 -178q-86 -39 -190 -39q-124 0 -201.5 52t-77.5 157q0 115 123 188v74q-91 -99 -258 -99q-166 0 -259 81t-93 235q0 311 467 330l121 4v55q0 100 -84 100q-48 0 -75.5 -29.5t-27.5 -64.5
l-372 12q0 72 33.5 141.5t92.5 125t149 89.5t194 34q227 0 344.5 -110t117.5 -327v-653zM666 410l-95 -4q-118 -7 -118 -82q0 -37 23 -55.5t61 -18.5q51 0 90 31t39 77v52z" />
    <glyph glyph-name="Cacute" unicode="&#x106;" horiz-adv-x="1714" 
d="M1036 1628h-336l238 332h506zM887 1554q288 0 493.5 -159.5t249.5 -431.5l-413 -39q-32 140 -120.5 210t-224.5 70q-174 0 -276 -120t-102 -318q0 -211 105.5 -324.5t272.5 -113.5q135 0 226.5 71.5t118.5 208.5l413 -35q-44 -274 -249.5 -435t-493.5 -161
q-230 0 -409.5 93t-283.5 273.5t-104 422.5t104 422t283.5 273t409.5 93z" />
    <glyph glyph-name="cacute" unicode="&#x107;" horiz-adv-x="1230" 
d="M766 1229h-291l150 391h422zM641 1090q201 0 344.5 -113t175.5 -307l-366 -33q-8 61 -49 97t-105 36q-83 0 -133.5 -63t-50.5 -175q0 -111 50.5 -173t133.5 -62q64 0 105 36t49 97l364 -31q-30 -195 -173.5 -308.5t-344.5 -113.5q-248 0 -404.5 149.5t-156.5 405.5
q0 171 73 299t199.5 193.5t288.5 65.5z" />
    <glyph glyph-name="Ccircumflex" unicode="&#x108;" horiz-adv-x="1714" 
d="M1286 1628h-309l-107 135l-104 -135h-311l235 348h363zM887 1554q288 0 493.5 -159.5t249.5 -431.5l-413 -39q-32 140 -120.5 210t-224.5 70q-174 0 -276 -120t-102 -318q0 -211 105.5 -324.5t272.5 -113.5q135 0 226.5 71.5t118.5 208.5l413 -35q-44 -274 -249.5 -435
t-493.5 -161q-230 0 -409.5 93t-283.5 273.5t-104 422.5t104 422t283.5 273t409.5 93z" />
    <glyph glyph-name="ccircumflex" unicode="&#x109;" horiz-adv-x="1230" 
d="M1040 1229h-309l-106 133l-105 -133h-311l235 373h363zM641 1090q201 0 344.5 -113t175.5 -307l-366 -33q-8 61 -49 97t-105 36q-83 0 -133.5 -63t-50.5 -175q0 -111 50.5 -173t133.5 -62q64 0 105 36t49 97l364 -31q-30 -195 -173.5 -308.5t-344.5 -113.5
q-248 0 -404.5 149.5t-156.5 405.5q0 171 73 299t199.5 193.5t288.5 65.5z" />
    <glyph glyph-name="Cdotaccent" unicode="&#x10a;" horiz-adv-x="1714" 
d="M868 2054q92 0 155.5 -64t63.5 -155t-63.5 -153t-155.5 -62q-91 0 -153 62t-62 153q0 90 63.5 154.5t151.5 64.5zM887 1554q288 0 493.5 -159.5t249.5 -431.5l-413 -39q-32 140 -120.5 210t-224.5 70q-174 0 -276 -120t-102 -318q0 -211 105.5 -324.5t272.5 -113.5
q135 0 226.5 71.5t118.5 208.5l413 -35q-44 -274 -249.5 -435t-493.5 -161q-230 0 -409.5 93t-283.5 273.5t-104 422.5t104 422t283.5 273t409.5 93z" />
    <glyph glyph-name="cdotaccent" unicode="&#x10b;" horiz-adv-x="1230" 
d="M625 1616q92 0 155.5 -64t63.5 -155t-63.5 -153t-155.5 -62q-91 0 -153 62t-62 153q0 90 63.5 154.5t151.5 64.5zM641 1090q201 0 344.5 -113t175.5 -307l-366 -33q-8 61 -49 97t-105 36q-83 0 -133.5 -63t-50.5 -175q0 -111 50.5 -173t133.5 -62q64 0 105 36t49 97
l364 -31q-30 -195 -173.5 -308.5t-344.5 -113.5q-248 0 -404.5 149.5t-156.5 405.5q0 171 73 299t199.5 193.5t288.5 65.5z" />
    <glyph glyph-name="Ccaron" unicode="&#x10c;" horiz-adv-x="1714" 
d="M1053 1628h-363l-235 348h311l104 -135l107 135h309zM887 1554q288 0 493.5 -159.5t249.5 -431.5l-413 -39q-32 140 -120.5 210t-224.5 70q-174 0 -276 -120t-102 -318q0 -211 105.5 -324.5t272.5 -113.5q135 0 226.5 71.5t118.5 208.5l413 -35q-44 -274 -249.5 -435
t-493.5 -161q-230 0 -409.5 93t-283.5 273.5t-104 422.5t104 422t283.5 273t409.5 93z" />
    <glyph glyph-name="ccaron" unicode="&#x10d;" horiz-adv-x="1230" 
d="M807 1225h-363l-235 372h311l105 -131l106 131h309zM641 1090q201 0 344.5 -113t175.5 -307l-366 -33q-8 61 -49 97t-105 36q-83 0 -133.5 -63t-50.5 -175q0 -111 50.5 -173t133.5 -62q64 0 105 36t49 97l364 -31q-30 -195 -173.5 -308.5t-344.5 -113.5
q-248 0 -404.5 149.5t-156.5 405.5q0 171 73 299t199.5 193.5t288.5 65.5z" />
    <glyph glyph-name="Dcaron" unicode="&#x10e;" horiz-adv-x="1648" 
d="M891 1628h-363l-235 348h311l105 -135l106 135h309zM135 1532h649q167 0 309 -53t245.5 -150t162 -242t58.5 -321t-58.5 -321t-162 -242t-245.5 -150t-309 -53h-649v1532zM530 1192v-852h258q181 0 280 106t99 320t-99 320t-280 106h-258z" />
    <glyph glyph-name="dcaron" unicode="&#x10f;" horiz-adv-x="1746" 
d="M1712 1380v-2q-3 -335 -362 -516v154q106 64 143 172q-84 8 -139.5 68.5t-55.5 146.5q0 91 60.5 154t152.5 63q93 0 147 -66.5t54 -173.5zM854 1591h373v-1591h-353v70q-105 -93 -280 -93q-229 0 -371.5 154.5t-142.5 400.5q0 248 142.5 403t371.5 155q164 0 260 -74v575
zM854 514v39q0 97 -54 157t-143 60q-92 0 -146 -62.5t-54 -175.5q0 -111 54 -173t146 -62q89 0 143 60t54 157z" />
    <glyph glyph-name="Dcroat" unicode="&#x110;" horiz-adv-x="1662" 
d="M168 1532h649q167 0 309 -53t245 -150t161.5 -242t58.5 -321t-58.5 -321t-161.5 -242t-245 -150t-309 -53h-649v614h-145v301h145v617zM563 340h258q181 0 279 106t98 320t-98 320t-279 106h-258v-277h172v-301h-172v-274z" />
    <glyph glyph-name="dcroat" unicode="&#x111;" horiz-adv-x="1357" 
d="M1358 1200h-131v-1200h-353v70q-105 -93 -280 -93q-229 0 -371.5 154.5t-142.5 400.5q0 248 142.5 403t371.5 155q164 0 260 -74v184h-158v287h158v104h373v-104h131v-287zM854 514v39q0 97 -54 157t-143 60q-92 0 -146 -62.5t-54 -175.5q0 -111 54 -173t146 -62
q89 0 143 60t54 157z" />
    <glyph glyph-name="Emacron" unicode="&#x112;" horiz-adv-x="1245" 
d="M977 1645h-662v284h662v-284zM1139 1182h-609v-230h521v-342h-521v-260h611v-350h-1006v1532h1004v-350z" />
    <glyph glyph-name="emacron" unicode="&#x113;" horiz-adv-x="1234" 
d="M956 1247h-661v287h661v-287zM1155 432h-678q0 -77 38.5 -122.5t117.5 -45.5q108 0 137 82l375 -18q-26 -160 -167.5 -255.5t-334.5 -95.5q-255 0 -409 150t-154 405t152.5 406.5t400.5 151.5q236 0 379 -142t143 -395v-121zM629 815q-68 0 -107.5 -44t-44.5 -120h301
q-3 77 -40.5 120.5t-108.5 43.5z" />
    <glyph glyph-name="Ebreve" unicode="&#x114;" horiz-adv-x="1245" 
d="M760 1999h303q0 -187 -114 -283t-304 -96q-189 0 -302.5 96t-113.5 283h303q0 -58 30.5 -90.5t82.5 -32.5q53 0 84 32.5t31 90.5zM1139 1182h-609v-230h521v-342h-521v-260h611v-350h-1006v1532h1004v-350z" />
    <glyph glyph-name="ebreve" unicode="&#x115;" horiz-adv-x="1234" 
d="M625 1206q-189 0 -302.5 96t-113.5 283h303q0 -57 31 -90t82 -33q53 0 83.5 33t30.5 90h303q0 -187 -114 -283t-303 -96zM1155 432h-678q0 -77 38.5 -122.5t117.5 -45.5q108 0 137 82l375 -18q-26 -160 -167.5 -255.5t-334.5 -95.5q-255 0 -409 150t-154 405t152.5 406.5
t400.5 151.5q236 0 379 -142t143 -395v-121zM629 815q-68 0 -107.5 -44t-44.5 -120h301q-3 77 -40.5 120.5t-108.5 43.5z" />
    <glyph glyph-name="Edotaccent" unicode="&#x116;" horiz-adv-x="1245" 
d="M645 2054q92 0 155.5 -64t63.5 -155t-63.5 -153t-155.5 -62q-91 0 -153 62t-62 153q0 90 63.5 154.5t151.5 64.5zM1139 1182h-609v-230h521v-342h-521v-260h611v-350h-1006v1532h1004v-350z" />
    <glyph glyph-name="edotaccent" unicode="&#x117;" horiz-adv-x="1234" 
d="M625 1182q-91 0 -153 62t-62 153q0 90 63.5 154.5t151.5 64.5q92 0 155.5 -64t63.5 -155t-63.5 -153t-155.5 -62zM1155 432h-678q0 -77 38.5 -122.5t117.5 -45.5q108 0 137 82l375 -18q-26 -160 -167.5 -255.5t-334.5 -95.5q-255 0 -409 150t-154 405t152.5 406.5
t400.5 151.5q236 0 379 -142t143 -395v-121zM629 815q-68 0 -107.5 -44t-44.5 -120h301q-3 77 -40.5 120.5t-108.5 43.5z" />
    <glyph glyph-name="Eogonek" unicode="&#x118;" horiz-adv-x="1245" 
d="M1174 -180l32 -178q-86 -39 -190 -39q-124 0 -201.5 52t-77.5 157q0 115 123 188h-725v1532h1004v-350h-609v-230h521v-342h-521v-260h611v-346l2 -2l-2 -2h-2q-66 -39 -94.5 -69.5t-28.5 -73.5q0 -28 17 -44t48 -16q45 0 93 23z" />
    <glyph glyph-name="eogonek" unicode="&#x119;" horiz-adv-x="1234" 
d="M1155 432h-678q0 -77 38.5 -122.5t117.5 -45.5q108 0 137 82l375 -18q-20 -123 -111 -209t-227 -121q-63 -39 -91 -69.5t-28 -71.5q0 -28 17.5 -44t48.5 -16q44 0 92 23l33 -178q-86 -39 -191 -39q-124 0 -201 52t-77 157t104 176q-201 37 -317.5 180.5t-116.5 363.5
q0 255 152.5 406.5t400.5 151.5q236 0 379 -142t143 -395v-121zM629 815q-68 0 -107.5 -44t-44.5 -120h301q-3 77 -40.5 120.5t-108.5 43.5z" />
    <glyph glyph-name="Ecaron" unicode="&#x11a;" horiz-adv-x="1245" 
d="M827 1628h-362l-236 348h312l104 -135l107 135h309zM1139 1182h-609v-230h521v-342h-521v-260h611v-350h-1006v1532h1004v-350z" />
    <glyph glyph-name="ecaron" unicode="&#x11b;" horiz-adv-x="1234" 
d="M444 1225l-235 372h311l105 -131l106 131h309l-233 -372h-363zM1155 432h-678q0 -77 38.5 -122.5t117.5 -45.5q108 0 137 82l375 -18q-26 -160 -167.5 -255.5t-334.5 -95.5q-255 0 -409 150t-154 405t152.5 406.5t400.5 151.5q236 0 379 -142t143 -395v-121zM629 815
q-68 0 -107.5 -44t-44.5 -120h301q-3 77 -40.5 120.5t-108.5 43.5z" />
    <glyph glyph-name="Gcircumflex" unicode="&#x11c;" horiz-adv-x="1726" 
d="M766 1628h-311l235 348h363l233 -348h-309l-107 135zM1630 872v-127q0 -168 -51.5 -310t-146.5 -243.5t-235 -158t-310 -56.5q-230 0 -409.5 93t-283.5 273.5t-104 422.5t104 422t283.5 273t409.5 93q270 0 463.5 -135t263.5 -381l-410 -67q-73 233 -321 233
q-186 0 -287.5 -109.5t-101.5 -328.5t101.5 -328.5t287.5 -109.5q230 0 305 194h-305v350h747z" />
    <glyph glyph-name="gcircumflex" unicode="&#x11d;" horiz-adv-x="1331" 
d="M1069 1229h-309l-107 133l-104 -133h-311l235 373h363zM594 1090q175 0 280 -93v70h353v-1094q0 -233 -151.5 -374.5t-405.5 -141.5q-259 0 -400 113.5t-170 314.5l373 13q5 -58 51.5 -91.5t130.5 -33.5q94 0 146.5 43.5t52.5 130.5v104q-99 -74 -260 -74
q-229 0 -371.5 154.5t-142.5 400.5q0 248 142.5 403t371.5 155zM657 770q-92 0 -146 -62.5t-54 -175.5q0 -111 54 -173t146 -62q89 0 143 60t54 157v39q0 97 -54 157t-143 60z" />
    <glyph glyph-name="Gbreve" unicode="&#x11e;" horiz-adv-x="1726" 
d="M870 1620q-189 0 -302 96t-113 283h303q0 -58 30 -90.5t82 -32.5q53 0 84 32.5t31 90.5h303q0 -187 -114 -283t-304 -96zM1630 872v-127q0 -168 -51.5 -310t-146.5 -243.5t-235 -158t-310 -56.5q-230 0 -409.5 93t-283.5 273.5t-104 422.5t104 422t283.5 273t409.5 93
q270 0 463.5 -135t263.5 -381l-410 -67q-73 233 -321 233q-186 0 -287.5 -109.5t-101.5 -328.5t101.5 -328.5t287.5 -109.5q230 0 305 194h-305v350h747z" />
    <glyph glyph-name="gbreve" unicode="&#x11f;" horiz-adv-x="1331" 
d="M768 1585h303q0 -187 -114 -283t-304 -96q-189 0 -302 96t-113 283h303q0 -57 30.5 -90t81.5 -33q53 0 84 33t31 90zM594 1090q175 0 280 -93v70h353v-1094q0 -233 -151.5 -374.5t-405.5 -141.5q-259 0 -400 113.5t-170 314.5l373 13q5 -58 51.5 -91.5t130.5 -33.5
q94 0 146.5 43.5t52.5 130.5v104q-99 -74 -260 -74q-229 0 -371.5 154.5t-142.5 400.5q0 248 142.5 403t371.5 155zM657 770q-92 0 -146 -62.5t-54 -175.5q0 -111 54 -173t146 -62q89 0 143 60t54 157v39q0 97 -54 157t-143 60z" />
    <glyph glyph-name="Gdotaccent" unicode="&#x120;" horiz-adv-x="1726" 
d="M870 1620q-91 0 -153 62t-62 153q0 90 63.5 154.5t151.5 64.5q92 0 156 -64t64 -155t-64 -153t-156 -62zM1630 872v-127q0 -168 -51.5 -310t-146.5 -243.5t-235 -158t-310 -56.5q-230 0 -409.5 93t-283.5 273.5t-104 422.5t104 422t283.5 273t409.5 93q270 0 463.5 -135
t263.5 -381l-410 -67q-73 233 -321 233q-186 0 -287.5 -109.5t-101.5 -328.5t101.5 -328.5t287.5 -109.5q230 0 305 194h-305v350h747z" />
    <glyph glyph-name="gdotaccent" unicode="&#x121;" horiz-adv-x="1331" 
d="M653 1616q92 0 155.5 -64t63.5 -155t-63.5 -153t-155.5 -62q-91 0 -153 62t-62 153q0 90 63.5 154.5t151.5 64.5zM594 1090q175 0 280 -93v70h353v-1094q0 -233 -151.5 -374.5t-405.5 -141.5q-259 0 -400 113.5t-170 314.5l373 13q5 -58 51.5 -91.5t130.5 -33.5
q94 0 146.5 43.5t52.5 130.5v104q-99 -74 -260 -74q-229 0 -371.5 154.5t-142.5 400.5q0 248 142.5 403t371.5 155zM657 770q-92 0 -146 -62.5t-54 -175.5q0 -111 54 -173t146 -62q89 0 143 60t54 157v39q0 97 -54 157t-143 60z" />
    <glyph glyph-name="Gcommaaccent" unicode="&#x122;" horiz-adv-x="1726" 
d="M1630 872v-127q0 -168 -51.5 -310t-146.5 -243.5t-235 -158t-310 -56.5q-230 0 -409.5 93t-283.5 273.5t-104 422.5t104 422t283.5 273t409.5 93q270 0 463.5 -135t263.5 -381l-410 -67q-73 233 -321 233q-186 0 -287.5 -109.5t-101.5 -328.5t101.5 -328.5t287.5 -109.5
q230 0 305 194h-305v350h747zM877 -100q93 0 146.5 -66.5t53.5 -171.5v-2v-2q-3 -335 -362 -516v153q106 63 143 173q-83 8 -138.5 68t-55.5 145q0 92 60.5 155.5t152.5 63.5z" />
    <glyph glyph-name="gcommaaccent" unicode="&#x123;" horiz-adv-x="1331" 
d="M664 1489q-84 8 -139.5 68.5t-55.5 146.5q0 91 60.5 154t152.5 63q93 0 147 -66.5t54 -171.5v-2v-2q-3 -335 -363 -516v154q108 64 144 172zM1227 1067v-1094q0 -233 -151.5 -374.5t-405.5 -141.5q-259 0 -400 113.5t-170 314.5l373 13q5 -58 51.5 -91.5t130.5 -33.5
q94 0 146.5 43.5t52.5 130.5v104q-99 -74 -260 -74q-229 0 -371.5 154.5t-142.5 400.5q0 248 142.5 403t371.5 155q175 0 280 -93v70h353zM854 514v39q0 97 -54 157t-143 60q-92 0 -146 -62.5t-54 -175.5q0 -111 54 -173t146 -62q89 0 143 60t54 157z" />
    <glyph glyph-name="Hcircumflex" unicode="&#x124;" horiz-adv-x="1572" 
d="M1202 1628h-309l-107 135l-104 -135h-311l235 348h363zM1438 0h-396v606h-512v-606h-395v1532h395v-576h512v576h396v-1532z" />
    <glyph glyph-name="hcircumflex" unicode="&#x125;" horiz-adv-x="1280" 
d="M737 1645h-311l-104 137l-105 -137h-311l233 350h363zM502 1591v-583q90 82 241 82q190 0 303 -111t113 -313v-666h-373v575q0 166 -139 166q-67 0 -106 -44t-39 -124v-573h-373v1591h373z" />
    <glyph glyph-name="Hbar" unicode="&#x126;" horiz-adv-x="1615" 
d="M1595 1090h-137v-1090h-393v606h-514v-606h-393v1090h-138v299h138v143h393v-143h514v143h393v-143h137v-299zM1065 1090h-514v-134h514v134z" />
    <glyph glyph-name="hbar" unicode="&#x127;" horiz-adv-x="1280" 
d="M743 1090q190 0 303 -111t113 -313v-666h-373v575q0 166 -139 166q-67 0 -106 -44t-39 -124v-573h-373v1200h-123v287h123v104h373v-104h164v-287h-164v-192q90 82 241 82z" />
    <glyph glyph-name="Itilde" unicode="&#x128;" horiz-adv-x="665" 
d="M188 1995q56 0 106 -25.5t90 -50.5t73 -25q75 0 75 86h209q14 -147 -53.5 -256.5t-187.5 -109.5q-46 0 -88 16t-68 35t-57 35t-56 16q-75 0 -75 -88h-209q-9 96 16.5 179t84.5 135.5t140 52.5zM530 0h-395v1532h395v-1532z" />
    <glyph glyph-name="itilde" unicode="&#x129;" 
d="M168 1589q44 0 85.5 -15.5t67 -34.5t57 -34.5t58.5 -15.5q76 0 76 86h209q9 -95 -17 -178t-85.5 -135t-139.5 -52q-46 0 -88 16t-67.5 34.5t-56.5 34.5t-56 16q-76 0 -76 -86h-209q-9 95 16.5 177.5t85 134.5t140.5 52zM502 0h-373v1067h373v-1067z" />
    <glyph glyph-name="Imacron" unicode="&#x12a;" horiz-adv-x="665" 
d="M676 1645h-662v284h662v-284zM530 0h-395v1532h395v-1532z" />
    <glyph glyph-name="imacron" unicode="&#x12b;" 
d="M653 1247h-661v287h661v-287zM502 0h-373v1067h373v-1067z" />
    <glyph glyph-name="Ibreve" unicode="&#x12c;" horiz-adv-x="665" 
d="M459 1999h303q0 -187 -114 -283t-304 -96q-189 0 -302.5 96t-113.5 283h303q0 -58 30.5 -90.5t82.5 -32.5q53 0 84 32.5t31 90.5zM530 0h-395v1532h395v-1532z" />
    <glyph glyph-name="ibreve" unicode="&#x12d;" 
d="M438 1585h303q0 -187 -114 -283t-303 -96t-302.5 96t-113.5 283h303q0 -57 31 -90t82 -33q53 0 83.5 33t30.5 90zM502 0h-373v1067h373v-1067z" />
    <glyph glyph-name="Iogonek" unicode="&#x12e;" horiz-adv-x="665" 
d="M530 0h-157q-64 -39 -92.5 -69.5t-28.5 -71.5q0 -28 17 -44t48 -16q45 0 93 23l32 -178q-86 -39 -190 -39q-124 0 -201.5 52t-77.5 157q0 131 162 209v1509h395v-1532z" />
    <glyph glyph-name="iogonek" unicode="&#x12f;" 
d="M322 1182q-91 0 -153.5 62t-62.5 153q0 90 64 154.5t152 64.5q92 0 155.5 -64t63.5 -155t-63.5 -153t-155.5 -62zM129 1067h373v-1067h-94q-64 -39 -92.5 -69.5t-28.5 -71.5q0 -28 17 -44t48 -16q44 0 92 23l33 -178q-86 -39 -190 -39q-124 0 -201.5 52t-77.5 157
q0 116 121 186v1067z" />
    <glyph glyph-name="Idotaccent" unicode="&#x130;" horiz-adv-x="665" 
d="M344 2054q92 0 155.5 -64t63.5 -155t-63.5 -153t-155.5 -62q-91 0 -153 62t-62 153q0 90 63.5 154.5t151.5 64.5zM530 0h-395v1532h395v-1532z" />
    <glyph glyph-name="dotlessi" unicode="&#x131;" 
d="M502 0h-373v1067h373v-1067z" />
    <glyph glyph-name="Jcircumflex" unicode="&#x134;" horiz-adv-x="1300" 
d="M1413 1628h-309l-107 135l-104 -135h-311l235 348h363zM1176 1532v-948q0 -284 -153.5 -445.5t-424.5 -161.5q-248 0 -399 141.5t-168 397.5l395 66q8 -121 52 -187.5t124 -66.5q178 0 178 241v963h396z" />
    <glyph glyph-name="jcircumflex" unicode="&#x135;" 
d="M727 1229h-309l-107 133l-104 -133h-311l235 373h363zM502 1067v-1139q0 -121 -33.5 -213.5t-94.5 -148t-140 -83.5t-175 -28q-197 0 -317 84l149 305q66 -61 129 -61q109 0 109 125v1159h373z" />
    <glyph glyph-name="Kcommaaccent" unicode="&#x136;" horiz-adv-x="1533" 
d="M1520 0h-453l-346 600l-191 -238v-362h-395v1532h395v-574l439 574h508l-494 -610zM784 -90q93 0 147 -66.5t54 -171.5v-2v-2q-3 -335 -362 -516v154q106 64 143 172q-84 8 -139.5 68.5t-55.5 144.5q0 92 60.5 155.5t152.5 63.5z" />
    <glyph glyph-name="kcommaaccent" unicode="&#x137;" horiz-adv-x="1247" 
d="M502 0h-373v1591h373v-850l268 326h455l-375 -451l389 -616h-440l-213 336l-84 -96v-240zM637 -90q93 0 147 -66.5t54 -171.5v-2v-2q-3 -335 -363 -516v154q106 64 143 172q-83 8 -138.5 68t-55.5 145q0 92 60.5 155.5t152.5 63.5z" />
    <glyph glyph-name="Lacute" unicode="&#x139;" horiz-adv-x="1210" 
d="M514 1628h-336l238 332h506zM530 350h609v-350h-1004v1532h395v-1182z" />
    <glyph glyph-name="lacute" unicode="&#x13a;" 
d="M498 1667h-336l237 332h506zM502 0h-373v1591h373v-1591z" />
    <glyph glyph-name="Lcommaaccent" unicode="&#x13b;" horiz-adv-x="1210" 
d="M1139 350v-350h-1004v1532h395v-1182h609zM653 -90q93 0 147 -66.5t54 -171.5v-2v-2q-3 -335 -362 -516v154q106 64 143 172q-84 8 -139.5 68.5t-55.5 144.5q0 92 60.5 155.5t152.5 63.5z" />
    <glyph glyph-name="lcommaaccent" unicode="&#x13c;" 
d="M502 0h-373v1591h373v-1591zM520 -330v-2q-3 -335 -362 -516v154q106 64 143 172q-84 8 -139.5 68.5t-55.5 144.5q0 92 60.5 155.5t152.5 63.5q93 0 147 -66.5t54 -173.5z" />
    <glyph glyph-name="Lcaron" unicode="&#x13d;" horiz-adv-x="1210" 
d="M1255 1380v-2q-3 -335 -362 -516v154q106 64 143 172q-84 8 -139 68.5t-55 146.5q0 91 60.5 154t152.5 63q93 0 146.5 -66.5t53.5 -173.5zM530 350h609v-350h-1004v1532h395v-1182z" />
    <glyph glyph-name="lcaron" unicode="&#x13e;" horiz-adv-x="1024" 
d="M1004 1380v-2q-3 -335 -363 -516v154q106 64 143 172q-84 8 -139 68.5t-55 146.5q0 91 60.5 154t152.5 63q93 0 147 -66.5t54 -173.5zM129 1591h373v-1591h-373v1591z" />
    <glyph glyph-name="Ldot" unicode="&#x13f;" horiz-adv-x="1210" 
d="M530 350h609v-350h-1004v1532h395v-1182zM967 1100q90 0 153.5 -63.5t63.5 -153.5q0 -92 -63 -154.5t-154 -62.5t-154 62.5t-63 154.5q0 90 63.5 153.5t153.5 63.5z" />
    <glyph glyph-name="ldot" unicode="&#x140;" horiz-adv-x="1058" 
d="M502 0h-373v1591h373v-1591zM793 915q90 0 153.5 -63.5t63.5 -153.5q0 -92 -63 -154.5t-154 -62.5t-154.5 62.5t-63.5 154.5q0 90 63.5 153.5t154.5 63.5z" />
    <glyph glyph-name="Lslash" unicode="&#x141;" horiz-adv-x="1230" 
d="M1159 350v-350h-1003v578l-127 -17l-41 299l168 23v649h395v-598l149 18l41 -299l-190 -24v-279h608z" />
    <glyph glyph-name="lslash" unicode="&#x142;" horiz-adv-x="684" 
d="M535 514v-514h-375v432l-135 -29l-66 295l201 43v850h375v-768l127 27l65 -293z" />
    <glyph glyph-name="Nacute" unicode="&#x143;" horiz-adv-x="1583" 
d="M936 1628h-336l238 332h505zM1448 0h-338l-580 803v-803h-395v1532h336l582 -807v807h395v-1532z" />
    <glyph glyph-name="nacute" unicode="&#x144;" horiz-adv-x="1277" 
d="M805 1229h-291l150 391h421zM743 1090q190 0 303 -111t113 -313v-666h-373v575q0 166 -139 166q-67 0 -106 -44t-39 -124v-573h-373v1067h352v-74q34 42 101 69.5t161 27.5z" />
    <glyph glyph-name="Ncommaaccent" unicode="&#x145;" horiz-adv-x="1583" 
d="M1448 1532v-1532h-338l-580 803v-803h-395v1532h336l582 -807v807h395zM831 -90q93 0 147 -66.5t54 -171.5v-2v-2q-3 -335 -362 -516v154q106 64 143 172q-84 8 -139.5 68.5t-55.5 144.5q0 92 60.5 155.5t152.5 63.5z" />
    <glyph glyph-name="ncommaaccent" unicode="&#x146;" horiz-adv-x="1277" 
d="M743 1090q190 0 303 -111t113 -313v-666h-373v575q0 166 -139 166q-67 0 -106 -44t-39 -124v-573h-373v1067h352v-74q34 42 101 69.5t161 27.5zM645 -90q93 0 147 -66.5t54 -171.5v-2v-2q-3 -335 -363 -516v154q108 64 144 172q-84 8 -139.5 68.5t-55.5 144.5
q0 92 60.5 155.5t152.5 63.5z" />
    <glyph glyph-name="Ncaron" unicode="&#x147;" horiz-adv-x="1583" 
d="M952 1628h-362l-236 348h312l104 -135l107 135h309zM1448 0h-338l-580 803v-803h-395v1532h336l582 -807v807h395v-1532z" />
    <glyph glyph-name="ncaron" unicode="&#x148;" horiz-adv-x="1277" 
d="M846 1225h-363l-235 372h311l105 -131l106 131h309zM743 1090q190 0 303 -111t113 -313v-666h-373v575q0 166 -139 166q-67 0 -106 -44t-39 -124v-573h-373v1067h352v-74q34 42 101 69.5t161 27.5z" />
    <glyph glyph-name="Eng" unicode="&#x14a;" horiz-adv-x="1583" 
d="M1448 1532v-1561q0 -100 -40.5 -189.5t-113 -157t-183 -107t-241.5 -39.5v350q90 0 136.5 61.5t46.5 182.5v8l-523 723v-803h-395v1532h336l582 -807v807h395z" />
    <glyph glyph-name="eng" unicode="&#x14b;" horiz-adv-x="1277" 
d="M743 1090q190 0 303 -111t113 -313v-736q0 -212 -137.5 -340.5t-370.5 -128.5v324q53 0 94 40t41 97v653q0 166 -139 166q-67 0 -106 -44t-39 -124v-573h-373v1067h352v-74q34 42 101 69.5t161 27.5z" />
    <glyph glyph-name="Omacron" unicode="&#x14c;" horiz-adv-x="1802" 
d="M1235 1645h-662v284h662v-284zM903 1554q234 0 417.5 -96t287.5 -276t104 -416t-104 -416t-287.5 -276.5t-417.5 -96.5q-236 0 -420.5 96.5t-288.5 276.5t-104 416q0 177 60.5 325t167.5 249.5t257.5 157.5t327.5 56zM903 1204q-188 0 -298.5 -117.5t-110.5 -320.5
t110.5 -320.5t298.5 -117.5q187 0 296.5 117.5t109.5 320.5t-109.5 320.5t-296.5 117.5z" />
    <glyph glyph-name="omacron" unicode="&#x14d;" horiz-adv-x="1316" 
d="M987 1247h-661v287h661v-287zM657 1090q255 0 417.5 -154.5t162.5 -403.5t-162.5 -402t-417.5 -153q-167 0 -298 68.5t-205 195.5t-74 291q0 249 161.5 403.5t415.5 154.5zM657 770q-92 0 -146 -63.5t-54 -174.5q0 -109 54.5 -172t145.5 -63q94 0 148.5 62.5t54.5 172.5
q0 112 -54.5 175t-148.5 63z" />
    <glyph glyph-name="Obreve" unicode="&#x14e;" horiz-adv-x="1802" 
d="M1018 1999h303q0 -187 -114 -283t-304 -96q-189 0 -302.5 96t-113.5 283h304q0 -58 30 -90.5t82 -32.5q53 0 84 32.5t31 90.5zM903 1554q234 0 417.5 -96t287.5 -276t104 -416t-104 -416t-287.5 -276.5t-417.5 -96.5q-236 0 -420.5 96.5t-288.5 276.5t-104 416
q0 177 60.5 325t167.5 249.5t257.5 157.5t327.5 56zM903 1204q-188 0 -298.5 -117.5t-110.5 -320.5t110.5 -320.5t298.5 -117.5q187 0 296.5 117.5t109.5 320.5t-109.5 320.5t-296.5 117.5z" />
    <glyph glyph-name="obreve" unicode="&#x14f;" horiz-adv-x="1316" 
d="M770 1585h303q0 -187 -114 -283t-304 -96q-189 0 -302 96t-113 283h303q0 -57 30.5 -90t81.5 -33q53 0 84 33t31 90zM657 1090q255 0 417.5 -154.5t162.5 -403.5t-162.5 -402t-417.5 -153q-167 0 -298 68.5t-205 195.5t-74 291q0 249 161.5 403.5t415.5 154.5zM657 770
q-92 0 -146 -63.5t-54 -174.5q0 -109 54.5 -172t145.5 -63q94 0 148.5 62.5t54.5 172.5q0 112 -54.5 175t-148.5 63z" />
    <glyph glyph-name="Ohungarumlaut" unicode="&#x150;" horiz-adv-x="1802" 
d="M809 1634h-291l127 373h352zM1264 1634h-291l127 373h352zM903 1554q234 0 417.5 -96t287.5 -276t104 -416t-104 -416t-287.5 -276.5t-417.5 -96.5q-236 0 -420.5 96.5t-288.5 276.5t-104 416q0 177 60.5 325t167.5 249.5t257.5 157.5t327.5 56zM903 1204
q-188 0 -298.5 -117.5t-110.5 -320.5t110.5 -320.5t298.5 -117.5q187 0 296.5 117.5t109.5 320.5t-109.5 320.5t-296.5 117.5z" />
    <glyph glyph-name="ohungarumlaut" unicode="&#x151;" horiz-adv-x="1316" 
d="M571 1229h-290l127 395h352zM1026 1229h-291l127 395h352zM657 1090q255 0 417.5 -154.5t162.5 -403.5t-162.5 -402t-417.5 -153q-167 0 -298 68.5t-205 195.5t-74 291q0 249 161.5 403.5t415.5 154.5zM657 770q-92 0 -146 -63.5t-54 -174.5q0 -109 54.5 -172t145.5 -63
q94 0 148.5 62.5t54.5 172.5q0 112 -54.5 175t-148.5 63z" />
    <glyph glyph-name="OE" unicode="&#x152;" horiz-adv-x="2418" 
d="M2314 350v-350h-1005v68q-187 -91 -406 -91q-236 0 -420.5 96.5t-288.5 276.5t-104 416q0 177 60.5 325t167.5 249.5t257.5 157.5t327.5 56q221 0 406 -90v68h1003v-350h-608v-230h520v-342h-520v-260h610zM903 328q187 0 296.5 117.5t109.5 320.5t-109.5 320.5
t-296.5 117.5q-188 0 -298.5 -117.5t-110.5 -320.5t110.5 -320.5t298.5 -117.5z" />
    <glyph glyph-name="oe" unicode="&#x153;" horiz-adv-x="2015" 
d="M1935 432h-678q0 -77 38.5 -122.5t117.5 -45.5q109 0 135 82l377 -18q-26 -160 -167.5 -255.5t-336.5 -95.5q-229 0 -379 125q-156 -125 -385 -125q-167 0 -298 68.5t-205 195.5t-74 291q0 249 161.5 403.5t415.5 154.5q230 0 383 -125q150 125 373 125q236 0 379 -142
t143 -395v-121zM1409 815q-68 0 -107.5 -44t-44.5 -120h299q-3 77 -40 120.5t-107 43.5zM657 297q94 0 148.5 62.5t54.5 172.5q0 112 -54.5 175t-148.5 63q-92 0 -146 -63.5t-54 -174.5q0 -109 54.5 -172t145.5 -63z" />
    <glyph glyph-name="Racute" unicode="&#x154;" horiz-adv-x="1474" 
d="M821 1628h-336l238 332h506zM971 0l-273 512h-168v-512h-395v1532h692q234 0 372 -135.5t138 -374.5q0 -154 -59.5 -267t-169.5 -175l309 -580h-446zM530 862h250q73 0 114.5 43t41.5 117t-41.5 117t-114.5 43h-250v-320z" />
    <glyph glyph-name="racute" unicode="&#x155;" horiz-adv-x="823" 
d="M633 1229h-291l150 391h421zM770 1077v-360q-123 0 -195.5 -59t-72.5 -160v-498h-373v1067h360v-90q92 100 281 100z" />
    <glyph glyph-name="Rcommaaccent" unicode="&#x156;" horiz-adv-x="1474" 
d="M1417 0h-446l-273 512h-168v-512h-395v1532h692q234 0 372 -135.5t138 -374.5q0 -154 -59.5 -267t-169.5 -175zM530 862h250q73 0 114.5 43t41.5 117t-41.5 117t-114.5 43h-250v-320zM745 -90q93 0 147 -66.5t54 -171.5v-2v-2q-3 -335 -362 -516v154q106 64 143 172
q-84 8 -139.5 68.5t-55.5 144.5q0 92 60.5 155.5t152.5 63.5z" />
    <glyph glyph-name="rcommaaccent" unicode="&#x157;" horiz-adv-x="823" 
d="M489 1067v-90q92 100 281 100v-360q-123 0 -195.5 -59t-72.5 -160v-498h-373v1067h360zM317 -90q93 0 147 -66.5t54 -171.5v-2v-2q-3 -335 -362 -516v154q106 64 143 172q-84 8 -139.5 68.5t-55.5 144.5q0 92 60.5 155.5t152.5 63.5z" />
    <glyph glyph-name="Rcaron" unicode="&#x158;" horiz-adv-x="1474" 
d="M475 1628l-235 348h311l104 -135l107 135h309l-233 -348h-363zM971 0l-273 512h-168v-512h-395v1532h692q234 0 372 -135.5t138 -374.5q0 -154 -59.5 -267t-169.5 -175l309 -580h-446zM530 862h250q73 0 114.5 43t41.5 117t-41.5 117t-114.5 43h-250v-320z" />
    <glyph glyph-name="rcaron" unicode="&#x159;" horiz-adv-x="823" 
d="M674 1225h-363l-235 372h311l105 -131l106 131h309zM770 1077v-360q-123 0 -195.5 -59t-72.5 -160v-498h-373v1067h360v-90q92 100 281 100z" />
    <glyph glyph-name="Sacute" unicode="&#x15a;" horiz-adv-x="1368" 
d="M846 1628h-336l238 332h505zM672 1554q268 0 429.5 -133t164.5 -364l-404 -21q0 80 -47.5 128t-134.5 48q-74 0 -118 -36t-44 -99q0 -58 51.5 -88.5t202.5 -64.5q99 -27 171 -53.5t140.5 -65.5t111 -85.5t68 -111.5t25.5 -145q0 -124 -45.5 -219t-125.5 -152t-182 -86
t-222 -29q-287 0 -460.5 136.5t-172.5 382.5l403 20q-1 -87 63.5 -142t166.5 -55q172 0 172 123q0 55 -61.5 93t-198.5 73q-68 18 -117 32.5t-105.5 37t-96 46t-78 58t-61.5 74t-37.5 93t-14.5 116.5q0 101 35 188t102 155t175 107t245 39z" />
    <glyph glyph-name="sacute" unicode="&#x15b;" horiz-adv-x="1044" 
d="M647 1229h-291l150 391h422zM516 1090q212 0 328.5 -95t128.5 -256l-373 -20q2 48 -18.5 78t-65.5 30q-78 0 -78 -63q0 -35 34.5 -52t124.5 -41q17 -5 26 -7q69 -18 117 -35t96.5 -43.5t78 -58t48 -77t18.5 -102.5q0 -170 -119.5 -270.5t-339.5 -100.5q-443 0 -473 351
l375 20q-4 -108 98 -108q84 0 84 69q0 31 -29 50t-124 44q-58 14 -97 25.5t-83 28t-72.5 33.5t-56.5 41.5t-43.5 53.5t-25 68t-9.5 86q0 163 120.5 257t329.5 94z" />
    <glyph glyph-name="Scircumflex" unicode="&#x15c;" horiz-adv-x="1368" 
d="M1096 1628h-310l-106 135l-105 -135h-311l236 348h362zM672 1554q268 0 429.5 -133t164.5 -364l-404 -21q0 80 -47.5 128t-134.5 48q-74 0 -118 -36t-44 -99q0 -58 51.5 -88.5t202.5 -64.5q99 -27 171 -53.5t140.5 -65.5t111 -85.5t68 -111.5t25.5 -145
q0 -124 -45.5 -219t-125.5 -152t-182 -86t-222 -29q-287 0 -460.5 136.5t-172.5 382.5l403 20q-1 -87 63.5 -142t166.5 -55q172 0 172 123q0 55 -61.5 93t-198.5 73q-68 18 -117 32.5t-105.5 37t-96 46t-78 58t-61.5 74t-37.5 93t-14.5 116.5q0 101 35 188t102 155t175 107
t245 39z" />
    <glyph glyph-name="scircumflex" unicode="&#x15d;" horiz-adv-x="1044" 
d="M922 1229h-310l-106 133l-105 -133h-311l236 373h362zM516 1090q212 0 328.5 -95t128.5 -256l-373 -20q2 48 -18.5 78t-65.5 30q-78 0 -78 -63q0 -35 34.5 -52t124.5 -41q17 -5 26 -7q69 -18 117 -35t96.5 -43.5t78 -58t48 -77t18.5 -102.5q0 -170 -119.5 -270.5
t-339.5 -100.5q-443 0 -473 351l375 20q-4 -108 98 -108q84 0 84 69q0 31 -29 50t-124 44q-58 14 -97 25.5t-83 28t-72.5 33.5t-56.5 41.5t-43.5 53.5t-25 68t-9.5 86q0 163 120.5 257t329.5 94z" />
    <glyph glyph-name="Scedilla" unicode="&#x15e;" horiz-adv-x="1368" 
d="M1288 463q0 -117 -40.5 -208.5t-112.5 -149t-165 -89t-204 -36.5l-21 -74q95 -5 167.5 -65.5t72.5 -162.5q0 -105 -87.5 -159t-211.5 -54q-135 0 -211 39l55 177q44 -21 91 -21q33 0 59.5 13.5t26.5 45.5t-25 49t-59 17q-50 0 -78 -14l73 211q-248 22 -393.5 155.5
t-144.5 358.5l403 20q-1 -87 63.5 -142t166.5 -55q172 0 172 123q0 55 -61.5 93t-198.5 73q-68 18 -117 32.5t-105.5 37t-96 46t-78 58t-61.5 74t-37.5 93t-14.5 116.5q0 101 35 188t102 155t175 107t245 39q268 0 429.5 -133t164.5 -364l-404 -21q0 80 -47.5 128t-134.5 48
q-74 0 -118 -36t-44 -99q0 -58 51.5 -88.5t202.5 -64.5q99 -27 171 -53.5t140.5 -65.5t111 -85.5t68 -111.5t25.5 -145z" />
    <glyph glyph-name="scedilla" unicode="&#x15f;" horiz-adv-x="1044" 
d="M981 348q0 -157 -102.5 -255t-292.5 -113l-21 -74q95 -5 167.5 -65.5t72.5 -162.5q0 -105 -87.5 -159t-211.5 -54q-135 0 -211 39l55 177q44 -21 90 -21q33 0 59.5 13.5t26.5 45.5t-25 49t-59 17q-49 0 -77 -14l73 211q-362 30 -389 346l375 20q-4 -108 98 -108
q84 0 84 69q0 31 -29 50t-124 44q-58 14 -97 25.5t-83 28t-72.5 33.5t-56.5 41.5t-43.5 53.5t-25 68t-9.5 86q0 163 120.5 257t329.5 94q212 0 328.5 -95t128.5 -256l-373 -20q2 48 -18.5 78t-65.5 30q-78 0 -78 -63q0 -35 34.5 -52t124.5 -41q17 -5 26 -7q69 -18 117 -35
t96.5 -43.5t78 -58t48 -77t18.5 -102.5z" />
    <glyph glyph-name="Scaron" unicode="&#x160;" horiz-adv-x="1368" 
d="M862 1628h-362l-236 348h311l105 -135l106 135h310zM672 1554q268 0 429.5 -133t164.5 -364l-404 -21q0 80 -47.5 128t-134.5 48q-74 0 -118 -36t-44 -99q0 -58 51.5 -88.5t202.5 -64.5q99 -27 171 -53.5t140.5 -65.5t111 -85.5t68 -111.5t25.5 -145q0 -124 -45.5 -219
t-125.5 -152t-182 -86t-222 -29q-287 0 -460.5 136.5t-172.5 382.5l403 20q-1 -87 63.5 -142t166.5 -55q172 0 172 123q0 55 -61.5 93t-198.5 73q-68 18 -117 32.5t-105.5 37t-96 46t-78 58t-61.5 74t-37.5 93t-14.5 116.5q0 101 35 188t102 155t175 107t245 39z" />
    <glyph glyph-name="scaron" unicode="&#x161;" horiz-adv-x="1044" 
d="M688 1225h-362l-236 372h311l105 -131l106 131h310zM516 1090q212 0 328.5 -95t128.5 -256l-373 -20q2 48 -18.5 78t-65.5 30q-78 0 -78 -63q0 -35 34.5 -52t124.5 -41q17 -5 26 -7q69 -18 117 -35t96.5 -43.5t78 -58t48 -77t18.5 -102.5q0 -170 -119.5 -270.5
t-339.5 -100.5q-443 0 -473 351l375 20q-4 -108 98 -108q84 0 84 69q0 31 -29 50t-124 44q-58 14 -97 25.5t-83 28t-72.5 33.5t-56.5 41.5t-43.5 53.5t-25 68t-9.5 86q0 163 120.5 257t329.5 94z" />
    <glyph glyph-name="Tcaron" unicode="&#x164;" horiz-adv-x="1433" 
d="M907 1628h-362l-236 348h312l104 -135l106 135h310zM1393 1182h-478v-1182h-395v1182h-479v350h1352v-350z" />
    <glyph glyph-name="tcaron" unicode="&#x165;" horiz-adv-x="1288" 
d="M1266 1380v-2q-3 -335 -363 -516v154q108 64 144 172q-84 8 -139.5 68.5t-55.5 146.5q0 91 60.5 154t152.5 63q93 0 147 -66.5t54 -173.5zM588 1067h227v-319h-229l-2 -299q0 -66 42 -102t101 -36q42 0 88 8v-329q-106 -13 -180 -13q-198 0 -311.5 93.5t-112.5 279.5
l2 398h-193v319h195l2 344h373z" />
    <glyph glyph-name="Tbar" unicode="&#x166;" horiz-adv-x="1433" 
d="M915 1182v-322h230v-301h-230v-559h-395v559h-231v301h231v322h-479v350h1352v-350h-478z" />
    <glyph glyph-name="tbar" unicode="&#x167;" horiz-adv-x="886" 
d="M586 748v-84h229v-267h-223q14 -42 51.5 -64t83.5 -22q42 0 88 8v-329q-106 -13 -180 -13q-198 0 -311.5 93.5t-112.5 279.5v47h-191v267h193v84h-193v319h195l2 344h373l-2 -344h227v-319h-229z" />
    <glyph glyph-name="Utilde" unicode="&#x168;" horiz-adv-x="1607" 
d="M647 1995q44 0 85.5 -16t67 -34.5t57 -34.5t58.5 -16q76 0 76 86h209q9 -95 -17 -178t-85.5 -135.5t-139.5 -52.5q-46 0 -88 16t-67.5 35t-56.5 35t-56 16q-76 0 -76 -88h-208q-9 96 16.5 179t84.5 135.5t140 52.5zM1481 1532v-881q0 -317 -179.5 -495.5t-496.5 -178.5
q-319 0 -499.5 178.5t-180.5 495.5v881h395v-875q0 -160 71 -244.5t214 -84.5q141 0 211.5 84.5t70.5 244.5v875h394z" />
    <glyph glyph-name="utilde" unicode="&#x169;" horiz-adv-x="1247" 
d="M467 1589q44 0 85.5 -15.5t67 -34.5t57 -34.5t58.5 -15.5q76 0 76 86h209q9 -95 -17 -178t-85.5 -135t-139.5 -52q-46 0 -88 16t-67.5 34.5t-56.5 34.5t-56 16q-76 0 -76 -86h-209q-9 95 16.5 177.5t85 134.5t140.5 52zM1118 0h-352v74q-79 -97 -250 -97q-189 0 -293 104
t-104 302v684h373v-592q0 -79 27.5 -114t94.5 -35q131 0 131 145v596h373v-1067z" />
    <glyph glyph-name="Umacron" unicode="&#x16a;" horiz-adv-x="1607" 
d="M1135 1645h-662v284h662v-284zM1481 1532v-881q0 -317 -179.5 -495.5t-496.5 -178.5q-319 0 -499.5 178.5t-180.5 495.5v881h395v-875q0 -160 71 -244.5t214 -84.5q141 0 211.5 84.5t70.5 244.5v875h394z" />
    <glyph glyph-name="umacron" unicode="&#x16b;" horiz-adv-x="1247" 
d="M954 1247h-661v287h661v-287zM1118 0h-352v74q-79 -97 -250 -97q-189 0 -293 104t-104 302v684h373v-592q0 -79 27.5 -114t94.5 -35q131 0 131 145v596h373v-1067z" />
    <glyph glyph-name="Ubreve" unicode="&#x16c;" horiz-adv-x="1607" 
d="M918 1999h303q0 -187 -114 -283t-304 -96q-189 0 -302.5 96t-113.5 283h303q0 -58 30.5 -90.5t82.5 -32.5q53 0 84 32.5t31 90.5zM1481 1532v-881q0 -317 -179.5 -495.5t-496.5 -178.5q-319 0 -499.5 178.5t-180.5 495.5v881h395v-875q0 -160 71 -244.5t214 -84.5
q141 0 211.5 84.5t70.5 244.5v875h394z" />
    <glyph glyph-name="ubreve" unicode="&#x16d;" horiz-adv-x="1247" 
d="M737 1585h303q0 -187 -114 -283t-303 -96t-302.5 96t-113.5 283h303q0 -57 31 -90t82 -33q53 0 83.5 33t30.5 90zM1118 0h-352v74q-79 -97 -250 -97q-189 0 -293 104t-104 302v684h373v-592q0 -79 27.5 -114t94.5 -35q131 0 131 145v596h373v-1067z" />
    <glyph glyph-name="Uring" unicode="&#x16e;" horiz-adv-x="1607" 
d="M805 2087q104 0 176 -65.5t72 -166.5q0 -100 -72 -165.5t-176 -65.5q-107 0 -178.5 65.5t-71.5 165.5q0 102 71.5 167t178.5 65zM805 1927q-33 0 -52.5 -20.5t-19.5 -51.5q0 -30 19.5 -49.5t52.5 -19.5q32 0 50.5 19.5t18.5 49.5q0 31 -18.5 51.5t-50.5 20.5zM1481 1532
v-881q0 -317 -179.5 -495.5t-496.5 -178.5q-319 0 -499.5 178.5t-180.5 495.5v881h395v-875q0 -160 71 -244.5t214 -84.5q141 0 211.5 84.5t70.5 244.5v875h394z" />
    <glyph glyph-name="uring" unicode="&#x16f;" horiz-adv-x="1247" 
d="M625 1716q121 0 204.5 -76t83.5 -192q0 -117 -83 -193.5t-205 -76.5q-123 0 -207 76.5t-84 193.5q0 116 84 192t207 76zM625 1526q-37 0 -58.5 -21.5t-21.5 -56.5q0 -36 22 -58t58 -22q35 0 56 22t21 58q0 35 -21 56.5t-56 21.5zM1118 0h-352v74q-79 -97 -250 -97
q-189 0 -293 104t-104 302v684h373v-592q0 -79 27.5 -114t94.5 -35q131 0 131 145v596h373v-1067z" />
    <glyph glyph-name="Uhungarumlaut" unicode="&#x170;" horiz-adv-x="1607" 
d="M709 1634h-291l127 373h352zM1163 1634h-291l127 373h353zM1481 1532v-881q0 -317 -179.5 -495.5t-496.5 -178.5q-319 0 -499.5 178.5t-180.5 495.5v881h395v-875q0 -160 71 -244.5t214 -84.5q141 0 211.5 84.5t70.5 244.5v875h394z" />
    <glyph glyph-name="uhungarumlaut" unicode="&#x171;" horiz-adv-x="1247" 
d="M539 1229h-291l127 395h352zM993 1229h-291l127 395h353zM1118 0h-352v74q-79 -97 -250 -97q-189 0 -293 104t-104 302v684h373v-592q0 -79 27.5 -114t94.5 -35q131 0 131 145v596h373v-1067z" />
    <glyph glyph-name="Uogonek" unicode="&#x172;" horiz-adv-x="1607" 
d="M1481 1532v-881q0 -263 -125.5 -432.5t-354.5 -220.5q-62 -36 -89 -66.5t-27 -72.5q0 -28 17 -44t48 -16q44 0 92 23l33 -178q-86 -39 -190 -39q-124 0 -201.5 52t-77.5 157q0 101 94 170q-271 28 -423 203t-152 464v881h395v-875q0 -160 71 -244.5t214 -84.5
q141 0 211.5 84.5t70.5 244.5v875h394z" />
    <glyph glyph-name="uogonek" unicode="&#x173;" horiz-adv-x="1247" 
d="M1118 0h-74q-65 -38 -93.5 -69t-28.5 -74q0 -28 17 -44t48 -16q44 0 92 23l33 -178q-86 -39 -190 -39q-124 0 -201.5 52t-77.5 157q0 115 123 188v74q-79 -97 -250 -97q-189 0 -293 104t-104 302v684h373v-592q0 -79 27.5 -114t94.5 -35q131 0 131 145v596h373v-1067z
" />
    <glyph glyph-name="Wcircumflex" unicode="&#x174;" horiz-adv-x="2312" 
d="M1573 1628h-309l-107 135l-104 -135h-312l236 348h362zM1763 0h-333l-275 846l-274 -846h-332l-535 1532h435l270 -881l274 881h326l272 -881l273 881h434z" />
    <glyph glyph-name="wcircumflex" unicode="&#x175;" horiz-adv-x="1765" 
d="M1305 1229h-310l-106 133l-105 -133h-311l236 373h362zM1352 0h-297l-170 446l-172 -446h-299l-412 1067h416l157 -528l177 528h262l176 -528l158 528h415z" />
    <glyph glyph-name="Ycircumflex" unicode="&#x176;" horiz-adv-x="1589" 
d="M1210 1628h-309l-106 135l-105 -135h-311l235 348h363zM993 561v-561h-395v561l-582 971h459l320 -578l319 578h459z" />
    <glyph glyph-name="ycircumflex" unicode="&#x177;" horiz-adv-x="1226" 
d="M1028 1229h-309l-107 133l-104 -133h-311l235 373h363zM537 -522h-408l285 639l-412 950h414l198 -532l197 532h414z" />
    <glyph glyph-name="Ydieresis" unicode="&#x178;" horiz-adv-x="1589" 
d="M569 2007q83 0 140 -57.5t57 -139.5q0 -83 -56.5 -138.5t-140.5 -55.5q-82 0 -138 55.5t-56 138.5q0 82 56.5 139.5t137.5 57.5zM1018 2007q83 0 141 -57.5t58 -139.5q0 -83 -57.5 -138.5t-141.5 -55.5q-82 0 -138.5 55.5t-56.5 138.5q0 82 56.5 139.5t138.5 57.5z
M993 561v-561h-395v561l-582 971h459l320 -578l319 578h459z" />
    <glyph glyph-name="Zacute" unicode="&#x179;" horiz-adv-x="1292" 
d="M805 1628h-336l238 332h505zM1202 1233l-618 -883h641v-350h-1147v299l616 883h-616v350h1124v-299z" />
    <glyph glyph-name="zacute" unicode="&#x17a;" horiz-adv-x="940" 
d="M614 1229h-290l149 391h422zM860 821l-356 -520h366v-301h-800v246l360 520h-352v301h782v-246z" />
    <glyph glyph-name="Zdotaccent" unicode="&#x17b;" horiz-adv-x="1292" 
d="M639 2054q92 0 155.5 -64t63.5 -155t-63.5 -153t-155.5 -62q-91 0 -153 62t-62 153q0 90 63.5 154.5t151.5 64.5zM1202 1233l-618 -883h641v-350h-1147v299l616 883h-616v350h1124v-299z" />
    <glyph glyph-name="zdotaccent" unicode="&#x17c;" horiz-adv-x="940" 
d="M475 1616q92 0 155.5 -64t63.5 -155t-63.5 -153t-155.5 -62q-91 0 -153 62t-62 153q0 90 63.5 154.5t151.5 64.5zM860 821l-356 -520h366v-301h-800v246l360 520h-352v301h782v-246z" />
    <glyph glyph-name="Zcaron" unicode="&#x17d;" horiz-adv-x="1292" 
d="M821 1628h-362l-236 348h312l104 -135l106 135h310zM1202 1233l-618 -883h641v-350h-1147v299l616 883h-616v350h1124v-299z" />
    <glyph glyph-name="zcaron" unicode="&#x17e;" horiz-adv-x="940" 
d="M657 1225h-362l-236 372h312l104 -131l107 131h309zM860 821l-356 -520h366v-301h-800v246l360 520h-352v301h782v-246z" />
    <glyph glyph-name="florin" unicode="&#x192;" horiz-adv-x="925" 
d="M780 1610q192 0 320 -82l-150 -305q-48 59 -129 59q-109 0 -129 -106l-18 -109h223v-309h-279l-186 -1049h-381l187 1049h-177v309h232l31 170q33 186 154.5 279.5t301.5 93.5z" />
    <glyph glyph-name="Aringacute" unicode="&#x1fa;" horiz-adv-x="1685" 
d="M866 1581q-107 0 -179.5 65.5t-72.5 165.5q0 104 72 166l242 252h465l-371 -235q90 -67 90 -183q0 -100 -71 -165.5t-175 -65.5zM866 1743q30 0 50 19.5t20 49.5q0 31 -19.5 51.5t-50.5 20.5q-34 0 -52.5 -20t-18.5 -52q0 -30 18.5 -49.5t52.5 -19.5zM1677 0h-434
l-106 244h-588l-107 -244h-434l668 1532h334zM1004 547l-162 373l-160 -373h322z" />
    <glyph glyph-name="aringacute" unicode="&#x1fb;" horiz-adv-x="1159" 
d="M586 1169q-106 0 -178 66.5t-72 165.5q0 113 84 178l229 240h463l-371 -234q90 -70 90 -184q0 -99 -71 -165.5t-174 -66.5zM586 1333q30 0 49.5 19.5t19.5 48.5q0 32 -19 52t-50 20q-33 0 -52.5 -19.5t-19.5 -52.5q0 -30 19.5 -49t52.5 -19zM578 1090q227 0 344.5 -110
t117.5 -327v-653h-350v76q-91 -99 -258 -99q-166 0 -259 81t-93 235q0 311 467 330l121 4v55q0 100 -84 100q-48 0 -75.5 -29.5t-27.5 -64.5l-372 12q0 72 33.5 141.5t92.5 125t149 89.5t194 34zM666 410l-95 -4q-118 -7 -118 -82q0 -37 23 -55.5t61 -18.5q51 0 90 31t39 77
v52z" />
    <glyph glyph-name="AEacute" unicode="&#x1fc;" horiz-adv-x="2197" 
d="M1589 1628h-336l238 332h506zM2093 350v-350h-1006v244h-432l-168 -244h-481l1038 1532h1047v-350h-608v-230h520v-342h-520v-260h610zM1087 547v350l-231 -350h231z" />
    <glyph glyph-name="aeacute" unicode="&#x1fd;" horiz-adv-x="1824" 
d="M1020 1229h-291l150 391h421zM1747 432h-680q0 -76 39 -122t119 -46q109 0 135 82l377 -18q-26 -160 -167.5 -255.5t-336.5 -95.5q-245 0 -397 140q-160 -140 -361 -140q-189 0 -292 83t-103 237q0 74 26 130.5t68.5 91.5t105 58t126 33t141.5 13l121 4v47q0 106 -88 106
q-48 0 -73.5 -28.5t-25.5 -63.5l-372 12q0 72 32 141.5t88.5 125t144.5 89.5t191 34q202 0 318 -101q141 101 342 101q235 0 378.5 -142t143.5 -395v-121zM1221 815q-69 0 -109 -44t-45 -120h301q-3 77 -40 120.5t-107 43.5zM666 410l-95 -4q-118 -7 -118 -84q0 -72 84 -72
q53 0 91 31.5t38 76.5v52z" />
    <glyph glyph-name="Oslashacute" unicode="&#x1fe;" horiz-adv-x="1806" 
d="M1069 1628h-336l238 332h506zM1632 1473l-121 -160q201 -214 201 -547q0 -236 -104 -416t-287.5 -276.5t-417.5 -96.5q-197 0 -362 70l-127 -166l-242 185l119 153q-201 217 -201 547q0 177 60.5 325t167.5 249.5t257.5 157.5t327.5 56q196 0 359 -69l129 170zM494 766
q0 -125 45 -223l493 645q-62 16 -129 16q-188 0 -298.5 -117.5t-110.5 -320.5zM903 328q187 0 296.5 117.5t109.5 320.5q0 134 -45 225l-494 -645q62 -18 133 -18z" />
    <glyph glyph-name="oslashacute" unicode="&#x1ff;" horiz-adv-x="1316" 
d="M797 1229h-291l149 391h422zM1169 997l-67 -90q135 -148 135 -375q0 -249 -162.5 -402t-417.5 -153q-124 0 -225 37l-94 -125l-205 152l86 113q-139 152 -139 378q0 249 161.5 403.5t415.5 154.5q122 0 234 -39l74 98zM457 532q0 -19 4 -55l219 293h-23q-92 0 -146 -63.5
t-54 -174.5zM643 297h14q94 0 148.5 62.5t54.5 172.5q0 18 -4 50z" />
    <glyph glyph-name="Scommaaccent" unicode="&#x218;" horiz-adv-x="1368" 
d="M772 924q99 -27 171 -53.5t140.5 -65.5t111 -85.5t68 -111.5t25.5 -145q0 -124 -45.5 -219t-125.5 -152t-182 -86t-222 -29q-287 0 -460.5 136.5t-172.5 382.5l403 20q-1 -87 63.5 -142t166.5 -55q172 0 172 123q0 55 -61.5 93t-198.5 73q-68 18 -117 32.5t-105.5 37
t-96 46t-78 58t-61.5 74t-37.5 93t-14.5 116.5q0 101 35 188t102 155t175 107t245 39q268 0 429.5 -133t164.5 -364l-404 -21q0 80 -47.5 128t-134.5 48q-74 0 -118 -36t-44 -99q0 -58 51.5 -88.5t202.5 -64.5zM696 -100q93 0 147 -66.5t54 -171.5v-2v-2q-3 -335 -362 -516
v153q106 63 143 173q-84 8 -139.5 68.5t-55.5 144.5q0 92 60.5 155.5t152.5 63.5z" />
    <glyph glyph-name="scommaaccent" unicode="&#x219;" horiz-adv-x="1044" 
d="M623 664q69 -18 117 -35t96.5 -43.5t78 -58t48 -77t18.5 -102.5q0 -170 -119.5 -270.5t-339.5 -100.5q-443 0 -473 351l375 20q-4 -108 98 -108q84 0 84 69q0 31 -29 50t-124 44q-58 14 -97 25.5t-83 28t-72.5 33.5t-56.5 41.5t-43.5 53.5t-25 68t-9.5 86
q0 163 120.5 257t329.5 94q212 0 328.5 -95t128.5 -256l-373 -20q2 48 -18.5 78t-65.5 30q-78 0 -78 -63q0 -35 34.5 -52t124.5 -41q17 -5 26 -7zM518 -100q93 0 147 -66.5t54 -171.5v-2v-2q-3 -335 -363 -516v153q107 64 144 173q-84 8 -139.5 68.5t-55.5 144.5
q0 92 60.5 155.5t152.5 63.5z" />
    <glyph glyph-name="uni021A" unicode="&#x21a;" horiz-adv-x="1433" 
d="M1393 1532v-350h-478v-1182h-395v1182h-479v350h1352zM721 -90q93 0 147 -66.5t54 -171.5v-2v-2q-3 -335 -363 -516v154q106 64 143 172q-83 8 -138.5 68t-55.5 145q0 92 60.5 155.5t152.5 63.5z" />
    <glyph glyph-name="uni021B" unicode="&#x21b;" horiz-adv-x="886" 
d="M586 748l-2 -299q0 -66 42 -102t101 -36q42 0 88 8v-329q-106 -13 -180 -13q-198 0 -311.5 93.5t-112.5 279.5l2 398h-193v319h195l2 344h373l-2 -344h227v-319h-229zM506 -106q93 0 147 -66.5t54 -171.5v-2v-2q-3 -335 -363 -516v153q106 64 143 172q-83 8 -138.5 68
t-55.5 145q0 92 60.5 156t152.5 64z" />
    <glyph glyph-name="dotlessj" unicode="&#x237;" 
d="M502 1067v-1139q0 -121 -33.5 -213.5t-94.5 -148t-140 -83.5t-175 -28q-197 0 -317 84l149 305q66 -61 129 -61q109 0 109 125v1159h373z" />
    <glyph glyph-name="circumflex" unicode="&#x2c6;" horiz-adv-x="849" 
d="M840 1229h-310l-106 133l-105 -133h-311l236 373h362z" />
    <glyph glyph-name="caron" unicode="&#x2c7;" horiz-adv-x="849" 
d="M606 1225h-362l-236 372h311l105 -131l106 131h310z" />
    <glyph glyph-name="breve" unicode="&#x2d8;" horiz-adv-x="849" 
d="M539 1585h303q0 -187 -114 -283t-304 -96q-189 0 -302.5 96t-113.5 283h303q0 -57 31 -90t82 -33q53 0 84 33t31 90z" />
    <glyph glyph-name="dotaccent" unicode="&#x2d9;" horiz-adv-x="450" 
d="M223 1616q92 0 155.5 -64t63.5 -155t-63.5 -153t-155.5 -62q-91 0 -153 62t-62 153q0 90 63.5 154.5t151.5 64.5z" />
    <glyph glyph-name="ring" unicode="&#x2da;" horiz-adv-x="595" 
d="M299 1716q121 0 205 -76t84 -192q0 -117 -83.5 -193.5t-205.5 -76.5q-123 0 -207 76.5t-84 193.5q0 116 84 192t207 76zM299 1526q-37 0 -58.5 -21.5t-21.5 -56.5q0 -36 22 -58t58 -22q35 0 56.5 22.5t21.5 57.5t-21.5 56.5t-56.5 21.5z" />
    <glyph glyph-name="ogonek" unicode="&#x2db;" horiz-adv-x="483" 
d="M352 88l60 -80q-68 -41 -97.5 -71.5t-29.5 -73.5q0 -28 17 -44t48 -16q44 0 92 23l33 -178q-86 -39 -190 -39q-124 0 -201.5 52t-77.5 157q0 44 17.5 81.5t47.5 65t75.5 51t94 40t111.5 32.5z" />
    <glyph glyph-name="tilde" unicode="&#x2dc;" horiz-adv-x="815" 
d="M252 1589q44 0 85.5 -15.5t67 -34.5t57 -34.5t58.5 -15.5q76 0 76 86h209q9 -95 -17 -178t-85.5 -135t-139.5 -52q-46 0 -88 16t-67.5 34.5t-56.5 34.5t-56 16q-76 0 -76 -86h-209q-9 95 16.5 177.5t85 134.5t140.5 52z" />
    <glyph glyph-name="hungarumlaut" unicode="&#x2dd;" horiz-adv-x="950" 
d="M299 1229h-291l127 395h352zM754 1229h-291l127 395h352z" />
    <glyph glyph-name="uni0326" unicode="&#x326;" horiz-adv-x="0" 
d="M483 -330v-2q-3 -338 -362 -516v154q107 64 143 170q-83 7 -138.5 68.5t-55.5 146.5q0 92 60.5 155.5t152.5 63.5q93 0 146.5 -66.5t53.5 -171.5v-2z" />
    <glyph glyph-name="Omega" unicode="&#x3a9;" horiz-adv-x="1652" 
d="M827 1495q156 0 286.5 -56t218 -152.5t136 -226.5t48.5 -278q0 -153 -52 -285.5t-129 -211.5h277v-285h-670v264q118 72 189 213t71 291q0 197 -101.5 318.5t-273.5 121.5q-175 0 -275.5 -121t-100.5 -319q0 -150 70.5 -291t187.5 -213v-264h-668v285h276
q-77 78 -127.5 210.5t-50.5 286.5q0 149 48 279t135 226.5t217.5 152t287.5 55.5z" />
    <glyph glyph-name="mu" unicode="&#x3bc;" horiz-adv-x="1257" 
d="M1128 1067v-1067h-352v74q-79 -97 -250 -97h-24v-499h-373v1589h373v-592q0 -79 28 -114t95 -35q131 0 131 145v596h372z" />
    <glyph glyph-name="pi" unicode="&#x3c0;" horiz-adv-x="1552" 
d="M1225 1096l286 -166q-15 -62 -41.5 -114t-68 -97.5t-106 -71.5t-144.5 -26l-33 -271q-9 -59 33 -59q21 0 63 28l164 -217q-108 -120 -282 -120q-152 0 -222 92.5t-51 251.5l33 295h-154l-47 -365q-16 -140 -77 -256h-349q10 22 32 66.5t31.5 66t23.5 55.5t21.5 63.5
t12.5 61.5l39 308h-6q-105 0 -174 -107l-170 254q45 48 80.5 77t84.5 55.5t110.5 38t142.5 11.5h506q83 0 135.5 19t78 48t48.5 79z" />
    <glyph glyph-name="Wgrave" unicode="&#x1e80;" horiz-adv-x="2312" 
d="M1311 1628h-336l-408 332h508zM1763 0h-333l-275 846l-274 -846h-332l-535 1532h435l270 -881l274 881h326l272 -881l273 881h434z" />
    <glyph glyph-name="wgrave" unicode="&#x1e81;" horiz-adv-x="1765" 
d="M1024 1229h-291l-280 391h421zM1352 0h-297l-170 446l-172 -446h-299l-412 1067h416l157 -528l177 528h262l176 -528l158 528h415z" />
    <glyph glyph-name="Wacute" unicode="&#x1e82;" horiz-adv-x="2312" 
d="M1323 1628h-336l238 332h506zM1763 0h-333l-275 846l-274 -846h-332l-535 1532h435l270 -881l274 881h326l272 -881l273 881h434z" />
    <glyph glyph-name="wacute" unicode="&#x1e83;" horiz-adv-x="1765" 
d="M1028 1229h-291l150 391h422zM1352 0h-297l-170 446l-172 -446h-299l-412 1067h416l157 -528l177 528h262l176 -528l158 528h415z" />
    <glyph glyph-name="Wdieresis" unicode="&#x1e84;" horiz-adv-x="2312" 
d="M934 2007q83 0 139.5 -57.5t56.5 -139.5q0 -83 -56.5 -138.5t-139.5 -55.5q-82 0 -138.5 55.5t-56.5 138.5q0 82 56.5 139.5t138.5 57.5zM1382 2007q83 0 141 -57.5t58 -139.5q0 -83 -57.5 -138.5t-141.5 -55.5q-82 0 -138 55.5t-56 138.5q0 82 56.5 139.5t137.5 57.5z
M1763 0h-333l-275 846l-274 -846h-332l-535 1532h435l270 -881l274 881h326l272 -881l273 881h434z" />
    <glyph glyph-name="wdieresis" unicode="&#x1e85;" horiz-adv-x="1765" 
d="M662 1583q83 0 139.5 -56t56.5 -138q0 -83 -56.5 -140t-139.5 -57q-82 0 -138.5 57t-56.5 140q0 82 56.5 138t138.5 56zM1110 1583q83 0 141 -56t58 -138q0 -83 -58 -140t-141 -57q-82 0 -138.5 57t-56.5 140q0 82 56.5 138t138.5 56zM1352 0h-297l-170 446l-172 -446
h-299l-412 1067h416l157 -528l177 528h262l176 -528l158 528h415z" />
    <glyph glyph-name="Ygrave" unicode="&#x1ef2;" horiz-adv-x="1589" 
d="M948 1628h-336l-407 332h508zM993 561v-561h-395v561l-582 971h459l320 -578l319 578h459z" />
    <glyph glyph-name="ygrave" unicode="&#x1ef3;" horiz-adv-x="1226" 
d="M748 1229h-291l-281 391h422zM537 -522h-408l285 639l-412 950h414l198 -532l197 532h414z" />
    <glyph glyph-name="endash" unicode="&#x2013;" horiz-adv-x="1163" 
d="M1071 362h-979v351h979v-351z" />
    <glyph glyph-name="emdash" unicode="&#x2014;" horiz-adv-x="1638" 
d="M1546 362h-1454v351h1454v-351z" />
    <glyph glyph-name="quoteleft" unicode="&#x2018;" horiz-adv-x="512" 
d="M291 1296q82 -8 137 -69t55 -146q0 -92 -59.5 -154.5t-151.5 -62.5q-93 0 -146.5 65.5t-53.5 170.5v2v2q3 339 360 516v-154q-109 -67 -141 -170z" />
    <glyph glyph-name="quoteright" unicode="&#x2019;" horiz-adv-x="512" 
d="M442 1380v-2q-3 -336 -362 -514v152q108 66 141 172q-82 8 -137 68.5t-55 146.5q0 92 59.5 154.5t151.5 62.5q94 0 148 -66t54 -172v-2z" />
    <glyph glyph-name="quotesinglbase" unicode="&#x201a;" horiz-adv-x="512" 
d="M442 172v-2q-3 -335 -362 -516v153q108 66 141 173q-82 8 -137 68.5t-55 146.5q0 91 59.5 154t151.5 63q93 0 147.5 -66.5t54.5 -171.5v-2z" />
    <glyph glyph-name="quotedblleft" unicode="&#x201c;" horiz-adv-x="993" 
d="M291 1296q83 -8 138.5 -68t55.5 -145q0 -92 -60.5 -155.5t-152.5 -63.5q-93 0 -146.5 66.5t-53.5 171.5v2v2q3 335 362 516v-154q-106 -64 -143 -172zM772 1296q84 -8 139.5 -68.5t55.5 -144.5q0 -92 -60.5 -155.5t-152.5 -63.5q-93 0 -147 66.5t-54 171.5v2v2
q3 335 362 516v-154q-106 -64 -143 -172z" />
    <glyph glyph-name="quotedblright" unicode="&#x201d;" horiz-adv-x="993" 
d="M242 1620q93 0 146.5 -66.5t53.5 -171.5v-2v-2q-3 -335 -362 -516v154q106 64 143 172q-84 8 -139 68.5t-55 146.5q0 91 60.5 154t152.5 63zM924 1380v-2q-3 -335 -363 -516v154q108 64 144 172q-84 8 -139.5 68.5t-55.5 146.5q0 91 60.5 154t152.5 63q93 0 147 -66.5
t54 -173.5z" />
    <glyph glyph-name="quotedblbase" unicode="&#x201e;" horiz-adv-x="993" 
d="M240 412q93 0 147.5 -66.5t54.5 -171.5v-2v-2q-3 -335 -362 -516v153q108 66 141 173q-82 8 -137 68.5t-55 146.5q0 91 59.5 154t151.5 63zM924 172v-2q-3 -335 -363 -516v153q107 64 144 173q-85 8 -140 68.5t-55 146.5q0 91 60 154t153 63t147 -66.5t54 -173.5z" />
    <glyph glyph-name="dagger" unicode="&#x2020;" horiz-adv-x="1146" 
d="M760 1157h356v-336h-356v-958h-373v958h-356v336h356v375h373v-375z" />
    <glyph glyph-name="daggerdbl" unicode="&#x2021;" horiz-adv-x="1146" 
d="M760 1157h356v-336h-356v-248h356v-335h-356v-375h-373v375h-356v335h356v248h-356v336h356v375h373v-375z" />
    <glyph glyph-name="bullet" unicode="&#x2022;" horiz-adv-x="714" 
d="M358 788q109 0 188 -78.5t79 -187.5q0 -110 -79 -189t-188 -79q-110 0 -189 79t-79 189q0 109 79 187.5t189 78.5z" />
    <glyph glyph-name="ellipsis" unicode="&#x2026;" horiz-adv-x="1789" 
d="M287 412q90 0 153.5 -63.5t63.5 -153.5q0 -92 -63 -155t-154 -63t-154 63t-63 155q0 90 63.5 153.5t153.5 63.5zM872 412q91 0 155.5 -64t64.5 -153q0 -92 -64.5 -155t-155.5 -63t-154 63t-63 155q0 90 63.5 153.5t153.5 63.5zM1458 412q91 0 155 -64t64 -153
q0 -92 -64 -155t-155 -63t-153 63t-62 155q0 90 62.5 153.5t152.5 63.5z" />
    <glyph glyph-name="perthousand" unicode="&#x2030;" horiz-adv-x="2721" 
d="M434 1554q165 0 270 -109t105 -286q0 -179 -104.5 -288t-270.5 -109t-272.5 109.5t-106.5 287.5q0 177 106.5 286t272.5 109zM643 0h-358l966 1532h359zM434 1296q-51 0 -78.5 -35.5t-27.5 -101.5t28 -102.5t78 -36.5t76.5 36t26.5 103q0 66 -26.5 101.5t-76.5 35.5z
M1462 770q166 0 270.5 -108.5t104.5 -286.5q0 -179 -104.5 -288.5t-270.5 -109.5t-272.5 110t-106.5 288t106.5 286.5t272.5 108.5zM2290 770q166 0 271 -108.5t105 -286.5q0 -179 -105 -288.5t-271 -109.5t-272.5 110t-106.5 288t106.5 286.5t272.5 108.5zM1462 512
q-51 0 -78.5 -35.5t-27.5 -101.5t28 -102.5t78 -36.5t76.5 36t26.5 103q0 66 -26.5 101.5t-76.5 35.5zM2290 512q-51 0 -78 -35.5t-27 -101.5t27.5 -102.5t77.5 -36.5t76 36t26 103q0 66 -26.5 101.5t-75.5 35.5z" />
    <glyph glyph-name="guilsinglleft" unicode="&#x2039;" horiz-adv-x="731" 
d="M700 793l-221 -261l221 -258l-266 -233l-403 491l403 494z" />
    <glyph glyph-name="guilsinglright" unicode="&#x203a;" horiz-adv-x="731" 
d="M700 532l-403 -491l-266 233l221 258l-221 261l266 233z" />
    <glyph glyph-name="fraction" unicode="&#x2044;" horiz-adv-x="485" 
d="M-74 0h-379l1012 1532h379z" />
    <glyph glyph-name="Euro" unicode="&#x20ac;" horiz-adv-x="1445" 
d="M1233 426l164 -330q-111 -63 -209.5 -91t-243.5 -28q-150 0 -281.5 56t-233 171t-150.5 275h-256l86 230h133l-2 57v43h-217l86 231h167q47 165 151 283t238 174.5t285 56.5q137 0 228.5 -30t189.5 -97l-123 -325q-121 102 -278 102q-90 0 -159.5 -41t-109.5 -123h527
l-86 -231h-496v-43q0 -39 2 -57h457l-84 -230h-313q84 -151 262 -151q144 0 266 98z" />
    <glyph glyph-name="trademark" unicode="&#x2122;" horiz-adv-x="1849" 
d="M741 1268h-221v-471h-272v471h-219v264h712v-264zM1739 797h-275v231l-112 -221h-123l-113 221v-231h-272v735h233l213 -404l215 404h234v-735z" />
    <glyph glyph-name="estimated" unicode="&#x212e;" horiz-adv-x="1224" 
d="M637 1110q111 0 204.5 -34t164 -100t110 -170.5t39.5 -236.5h-756v-368q0 -31 4 -51.5t23 -44.5t55 -39q51 -19 156 -19q140 0 253 67t189 191l66 -43q-88 -138 -219 -214.5t-289 -76.5q-161 0 -290 69.5t-203 199.5t-74 299q0 258 160 414.5t407 156.5zM637 1034
q-100 0 -162 -24q-76 -31 -76 -133v-234h455v229q0 63 -14 93.5t-60 48.5q-72 20 -143 20z" />
    <glyph glyph-name="partialdiff" unicode="&#x2202;" horiz-adv-x="1259" 
d="M571 1554q615 0 615 -858q0 -349 -148.5 -534t-410.5 -185q-245 0 -399 143.5t-154 383.5q0 223 145.5 356t378.5 133q108 0 195 -41q-4 75 -20.5 126t-45.5 78t-63 37.5t-80 10.5q-147 0 -258 -108l-209 325q105 66 210 99.5t244 33.5zM633 328q72 0 116 48.5t44 123.5
v20q-3 75 -46.5 120.5t-113.5 45.5q-69 0 -112.5 -48t-43.5 -128q0 -84 41.5 -133t114.5 -49z" />
    <glyph glyph-name="product" unicode="&#x220f;" horiz-adv-x="1376" 
d="M1348 1182h-187v-1518h-338v1518h-270v-1518h-338v1518h-186v350h1319v-350z" />
    <glyph glyph-name="summation" unicode="&#x2211;" horiz-adv-x="1228" 
d="M1151 1182h-604l309 -416l-309 -416h604v-350h-1057v291l352 475l-352 475v291h1057v-350z" />
    <glyph glyph-name="minus" unicode="&#x2212;" horiz-adv-x="1122" 
d="M1061 586h-1000v350h1000v-350z" />
    <glyph glyph-name="radical" unicode="&#x221a;" horiz-adv-x="1437" 
d="M1411 1288l-668 -1446l-327 629l-205 -125l-182 293l526 319l178 -360l373 821z" />
    <glyph glyph-name="infinity" unicode="&#x221e;" horiz-adv-x="1579" 
d="M1112 1051q177 0 291.5 -124.5t114.5 -305.5q0 -183 -114.5 -309t-291.5 -126q-188 0 -338 162l-16 19l-19 -17q-75 -66 -145.5 -100.5t-163.5 -34.5q-163 0 -266 115.5t-103 287.5q0 171 103.5 289.5t265.5 118.5q96 0 165 -37t142 -108l15 -13l12 13q42 41 73 66.5
t74 52t93 39t108 12.5zM1112 735q-40 0 -74 -22.5t-77 -69.5l-19 -25l19 -22q49 -49 82 -71.5t69 -22.5q44 0 69 33.5t25 85.5q0 48 -25 81t-69 33zM438 723q-40 0 -63 -30t-23 -75q0 -43 23 -72.5t63 -29.5q77 0 129 78l15 22l-15 15q-41 48 -70.5 70t-58.5 22z" />
    <glyph glyph-name="integral" unicode="&#x222b;" horiz-adv-x="686" 
d="M473 1554q127 0 248 -41l-62 -282q-61 22 -106 22q-21 0 -35 -14t-14 -35v-1218q0 -159 -77 -247.5t-216 -88.5t-246 43l62 280q64 -22 92 -22q25 0 43 14.5t18 32.5v1219q0 160 77.5 248.5t215.5 88.5z" />
    <glyph glyph-name="approxequal" unicode="&#x2248;" horiz-adv-x="1124" 
d="M950 1239l166 -248q-147 -200 -342 -200q-54 0 -108.5 17t-92 38t-88 38t-96.5 17q-69 0 -119.5 -22t-95.5 -78l-166 248q150 200 342 200q68 0 136 -28t130.5 -56t118.5 -28q69 0 119 22.5t96 79.5zM950 721l166 -248q-150 -201 -342 -201q-54 0 -108.5 17.5t-92 39
t-88 39t-96.5 17.5q-69 0 -119 -22.5t-96 -79.5l-166 247q148 201 342 201q68 0 136 -27.5t130.5 -55t118.5 -27.5q69 0 119.5 22t95.5 78z" />
    <glyph glyph-name="notequal" unicode="&#x2260;" horiz-adv-x="1122" 
d="M745 840l-34 -160h350v-348h-426l-49 -230l-318 74l33 156h-240v348h316l35 160h-351v350h426l48 221l319 -72l-33 -149h240v-350h-316z" />
    <glyph glyph-name="lessequal" unicode="&#x2264;" horiz-adv-x="1126" 
d="M1067 1114l-260 -121l260 -121v-385l-1006 506l1006 502v-381zM1067 63h-1006v351h1006v-351z" />
    <glyph glyph-name="greaterequal" unicode="&#x2265;" horiz-adv-x="1126" 
d="M1065 993l-1004 -506v385l261 121l-261 121v381zM1065 63h-1004v351h1004v-351z" />
    <glyph glyph-name="lozenge" unicode="&#x25ca;" horiz-adv-x="1171" 
d="M1122 709l-415 -822h-240l-418 822l418 823h240zM438 709l148 -293l149 293l-149 290z" />
    <glyph glyph-name="fl" unicode="&#xfb02;" horiz-adv-x="1456" 
d="M672 1606q66 0 119 -9v-321q-30 6 -76 6q-67 0 -111.5 -39t-44.5 -98v-78h232v-319h-232v-748h-375v748h-182v319h182v70q0 211 134 340t354 129zM1327 0h-373v1591h373v-1591z" />
    <glyph glyph-name="n.001" horiz-adv-x="1277" 
d="M741 1090q191 0 304.5 -112.5t113.5 -315.5v-662h-373v575q0 166 -139 166q-67 0 -106 -44t-39 -124v-573h-373v1067h352v-72q35 42 101.5 68.5t158.5 26.5z" />
    <glyph glyph-name="germandbls.cap" horiz-adv-x="1458" 
d="M705 1548q371 0 589 -248l-219 -366q69 -31 120.5 -67t95.5 -87.5t67.5 -122t23.5 -157.5q0 -236 -160 -376t-419 -140q-124 0 -223 22l75 348q56 -20 131 -20q79 0 134 51.5t55 136.5q0 50 -17 89.5t-44.5 66.5t-74 48.5t-92 35.5t-112.5 29l196 358q-53 49 -143 49
q-77 0 -125.5 -47t-48.5 -133v-1018h-395v1014q0 162 77 284.5t209.5 186t299.5 63.5z" />
    <glyph glyph-name="a.sups" horiz-adv-x="954" 
d="M469 1550q399 0 399 -350v-526h-315v43q-73 -62 -203 -62q-141 0 -220 65.5t-79 190.5q0 58 21.5 103t56.5 73t87 47t104 27.5t118 12.5l97 6v45q0 31 -17.5 50t-46.5 19q-36 0 -55 -20t-19 -55l-325 10q0 58 28 115t77.5 103t126 74.5t165.5 28.5zM535 993l-70 -4
q-78 -7 -78 -57q0 -45 59 -45q36 0 62.5 19t26.5 48v39z" />
    <glyph glyph-name="b.sups" horiz-adv-x="1089" 
d="M428 1948v-432q104 34 186 34q186 0 301 -125t115 -321q0 -198 -115 -323.5t-301 -125.5q-105 0 -206 54v-35h-314v1274h334zM559 1268q-59 0 -95 -43t-36 -109v-26q0 -64 36 -107t95 -43q64 0 99.5 43t35.5 121q0 76 -35.5 120t-99.5 44z" />
    <glyph glyph-name="c.sups" horiz-adv-x="995" 
d="M516 1550q164 0 281 -91.5t143 -250.5l-324 -26q-6 38 -32.5 62t-67.5 24q-56 0 -87.5 -44t-31.5 -120q0 -78 31.5 -121t87.5 -43q41 0 67.5 24t32.5 64l324 -27q-24 -159 -142 -252.5t-282 -93.5q-202 0 -329.5 121t-127.5 328q0 205 128 325.5t329 120.5z" />
    <glyph glyph-name="d.sups" horiz-adv-x="1091" 
d="M995 674h-315v35q-96 -54 -205 -54q-186 0 -301 125.5t-115 323.5q0 196 115 321t301 125q87 0 187 -34v432h333v-1274zM530 1268q-62 0 -97.5 -44t-35.5 -120q0 -78 35 -121t98 -43q60 0 96 42.5t36 107.5v26q0 66 -36 109t-96 43z" />
    <glyph glyph-name="e.sups" horiz-adv-x="993" 
d="M934 1012h-520q0 -101 94 -101q68 0 82 50l336 -17q-20 -129 -136 -209t-272 -80q-209 0 -334 122t-125 327q0 204 124 325t327 121q191 0 307.5 -113.5t116.5 -320.5v-104zM506 1307q-44 0 -67 -27t-25 -74h182q-6 101 -90 101z" />
    <glyph glyph-name="f.sups" horiz-adv-x="669" 
d="M555 1960q58 0 102 -8v-285q-16 4 -65 4q-47 0 -81 -28t-34 -66v-45h180v-285h-180v-573h-332v573h-143v285h143v39q0 174 113 281.5t297 107.5z" />
    <glyph glyph-name="g.sups" horiz-adv-x="1081" 
d="M475 1550q111 0 205 -53v35h315v-875q0 -187 -123 -302t-331 -115q-215 0 -329.5 93t-135.5 259l330 12q0 -84 120 -84q136 0 136 115v57q-99 -37 -187 -37q-186 0 -301 125.5t-115 323.5q0 196 115 321t301 125zM530 1268q-62 0 -97.5 -44t-35.5 -120q0 -78 35 -121
t98 -43q60 0 96 42.5t36 107.5v26q0 66 -36 109t-96 43z" />
    <glyph glyph-name="h.sups" horiz-adv-x="1028" 
d="M428 1948v-443q68 45 176 45q155 0 246.5 -90t91.5 -254v-532h-334v454q0 113 -88 113q-92 0 -92 -115v-452h-334v1274h334z" />
    <glyph glyph-name="i.sups" horiz-adv-x="522" 
d="M262 1978q80 0 135.5 -56t55.5 -138q0 -78 -56 -133.5t-135 -55.5t-135.5 55.5t-56.5 133.5q0 81 56.5 137.5t135.5 56.5zM428 674h-334v858h334v-858z" />
    <glyph glyph-name="j.sups" horiz-adv-x="522" 
d="M260 1978q82 0 137.5 -56t55.5 -138q0 -78 -56 -133.5t-137 -55.5q-79 0 -134.5 55.5t-55.5 133.5q0 82 55 138t135 56zM428 1532v-899q0 -174 -114.5 -282.5t-299.5 -108.5q-56 0 -102 6v289q28 -7 65 -7q49 0 83 29t34 68v905h334z" />
    <glyph glyph-name="k.sups" horiz-adv-x="1024" 
d="M428 1292l182 240h402l-287 -361l293 -497h-391l-138 248l-61 -74v-174h-334v1274h334v-656z" />
    <glyph glyph-name="l.sups" horiz-adv-x="522" 
d="M428 674h-334v1274h334v-1274z" />
    <glyph glyph-name="m.sups" horiz-adv-x="1515" 
d="M1098 1550q155 0 243.5 -89.5t88.5 -254.5v-532h-332v454q0 59 -19 86t-63 27q-86 0 -86 -115v-452h-332v454q0 59 -20 86t-64 27q-86 0 -86 -115v-452h-334v858h314v-41q62 59 190 59q171 0 260 -106q85 106 240 106z" />
    <glyph glyph-name="n.sups" horiz-adv-x="1028" 
d="M604 1550q155 0 246.5 -90t91.5 -254v-532h-334v454q0 113 -88 113q-92 0 -92 -115v-452h-334v858h314v-41q62 59 196 59z" />
    <glyph glyph-name="o.sups" horiz-adv-x="1058" 
d="M528 1550q208 0 339.5 -123.5t131.5 -322.5q0 -200 -131.5 -324.5t-339.5 -124.5q-207 0 -338 124.5t-131 324.5q0 199 131 322.5t338 123.5zM528 1268q-63 0 -97 -43.5t-34 -120.5t34 -120.5t97 -43.5q64 0 100 43.5t36 120.5t-36 120.5t-100 43.5z" />
    <glyph glyph-name="p.sups" horiz-adv-x="1089" 
d="M614 1550q186 0 301 -125t115 -321q0 -198 -115 -323.5t-301 -125.5q-87 0 -186 37v-436h-334v1276h314v-35q99 53 206 53zM559 1268q-59 0 -95 -43t-36 -109v-26q0 -64 36 -107t95 -43q64 0 99.5 43t35.5 121q0 76 -35.5 120t-99.5 44z" />
    <glyph glyph-name="q.sups" horiz-adv-x="1089" 
d="M475 1550q111 0 205 -53v35h315v-1276h-333v436q-95 -37 -187 -37q-186 0 -301 125.5t-115 323.5q0 196 115 321t301 125zM530 1268q-62 0 -97.5 -44t-35.5 -120q0 -78 35 -121t98 -43q60 0 96 42.5t36 107.5v26q0 66 -36 109t-96 43z" />
    <glyph glyph-name="r.sups" horiz-adv-x="665" 
d="M637 1540v-321q-97 0 -153 -43.5t-56 -120.5v-381h-334v858h322v-64q35 35 84.5 53.5t136.5 18.5z" />
    <glyph glyph-name="s.sups" horiz-adv-x="839" 
d="M416 1550q176 0 272 -77.5t107 -208.5l-332 -21q4 74 -47 74q-39 0 -39 -31q0 -21 24.5 -32.5t89.5 -30.5q4 -1 6.5 -2t7 -2t7.5 -2q69 -19 113.5 -37.5t87.5 -47.5t63.5 -71.5t20.5 -99.5q0 -139 -98 -222.5t-279 -83.5t-279.5 73t-109.5 216l334 19q-12 -74 55 -74
q23 0 34 10.5t11 24.5q0 18 -20.5 31.5t-84.5 29.5q-69 18 -110 32t-85.5 36.5t-68 49t-38.5 67t-15 94.5q0 133 101 209.5t272 76.5z" />
    <glyph glyph-name="t.sups" horiz-adv-x="722" 
d="M506 1247l-2 -198q0 -47 31.5 -72t74.5 -25q16 0 70 6v-294q-118 -11 -152 -11q-165 0 -262 78.5t-96 229.5l2 286h-154v285h156l2 272h334l-2 -272h172v-285h-174z" />
    <glyph glyph-name="u.sups" horiz-adv-x="1005" 
d="M911 674h-313v41q-67 -60 -190 -60q-154 0 -238 84t-84 242v551h334v-469q0 -55 16 -76.5t60 -21.5q82 0 82 96v471h333v-858z" />
    <glyph glyph-name="v.sups" horiz-adv-x="1005" 
d="M633 674h-260l-373 858h362l140 -342l139 342h363z" />
    <glyph glyph-name="w.sups" horiz-adv-x="1435" 
d="M1104 674h-260l-125 391l-127 -391h-260l-332 858h362l121 -361l119 361h232l118 -361l121 361h363z" />
    <glyph glyph-name="x.sups" horiz-adv-x="964" 
d="M709 1102l243 -428h-368l-103 200l-98 -200h-369l242 426l-248 432h367l106 -209l109 209h366z" />
    <glyph glyph-name="y.sups" horiz-adv-x="1005" 
d="M453 256h-363l232 535l-322 741h362l140 -342l139 342h363z" />
    <glyph glyph-name="z.sups" horiz-adv-x="768" 
d="M702 1303l-262 -363h271v-266h-654v229l262 361h-256v268h639v-229z" />
    <glyph glyph-name="zero.onum" horiz-adv-x="1345" 
d="M672 1231q267 0 434.5 -170t167.5 -455q0 -287 -167.5 -458t-434.5 -171q-175 0 -310.5 76t-212.5 219.5t-77 333.5q0 285 167 455t433 170zM672 881q-89 0 -141 -72.5t-52 -202.5q0 -132 52 -205t141 -73q90 0 142 73t52 205q0 131 -52 203t-142 72z" />
    <glyph glyph-name="one.onum" horiz-adv-x="831" 
d="M696 0h-395v725l-151 -96l-166 313l422 266h290v-1208z" />
    <glyph glyph-name="two.onum" horiz-adv-x="1118" 
d="M571 1231q241 0 365.5 -119t124.5 -317q0 -125 -60.5 -216.5t-169.5 -166.5l-94 -62h328v-350h-975v301l412 268q86 57 124 104.5t38 112.5q0 95 -84 95q-44 0 -69 -35t-26 -101l-395 23q3 217 133 340t348 123z" />
    <glyph glyph-name="three.onum" horiz-adv-x="1177" 
d="M584 1231q235 0 365 -126t130 -341q0 -108 -33 -172t-98 -125q65 -39 107.5 -124t42.5 -200q0 -229 -142 -359t-374 -130q-250 0 -384.5 127.5t-136.5 349.5l396 23q0 -71 31 -110.5t92 -39.5q120 0 120 152q0 69 -38 106t-103 37h-162v330h158q57 0 92 34.5t35 96.5
q0 121 -100 121q-51 0 -79 -36t-28 -104l-395 23q3 221 132.5 344t371.5 123z" />
    <glyph glyph-name="four.onum" horiz-adv-x="1245" 
d="M985 238h213v-351h-213v-211h-334v211h-596v326l631 995h299v-970zM434 238h217v342z" />
    <glyph glyph-name="five.onum" horiz-adv-x="1181" 
d="M629 670q102 0 188.5 -31.5t152 -91.5t102 -156t36.5 -217q0 -241 -144 -380.5t-389 -139.5q-237 0 -372 121.5t-137 326.5l395 25q0 -57 30 -90t87 -33q66 0 99.5 42.5t33.5 117.5t-31 114t-90 39q-66 0 -109 -30h-364v921h930v-350h-535v-205q56 17 117 17z" />
    <glyph glyph-name="six.onum" horiz-adv-x="1263" 
d="M1137 1532l-369 -526q191 -37 308.5 -173t117.5 -333q0 -155 -72.5 -274.5t-199 -184t-285.5 -64.5q-160 0 -287.5 64.5t-200.5 184t-73 274.5q0 93 29.5 171t89.5 169l469 692h473zM635 328q73 0 115.5 50t42.5 136q0 89 -42 137.5t-116 48.5q-80 0 -127 -63
q-31 -53 -31 -123q0 -86 42.5 -136t115.5 -50z" />
    <glyph glyph-name="seven.onum" horiz-adv-x="1107" 
d="M1044 891l-524 -1215h-436l526 1182h-573v350h1007v-317z" />
    <glyph glyph-name="eight.onum" horiz-adv-x="1277" 
d="M637 1554q227 0 372.5 -119t145.5 -325q0 -171 -102 -285q143 -137 143 -354q0 -151 -73.5 -264.5t-199 -171.5t-284.5 -58t-284.5 58t-199 171.5t-73.5 264.5q0 216 139 352q-100 117 -100 287q0 206 144.5 325t371.5 119zM639 1204q-53 0 -87 -33.5t-34 -91.5
q0 -56 34.5 -90.5t86.5 -34.5q54 0 87.5 34t33.5 91q0 59 -33 92t-88 33zM639 659q-71 0 -116.5 -44.5t-45.5 -122.5q0 -75 45.5 -119.5t116.5 -44.5q72 0 117 44.5t45 119.5q0 78 -45 122.5t-117 44.5z" />
    <glyph glyph-name="nine.onum" horiz-adv-x="1263" 
d="M627 1231q160 0 287.5 -64t200.5 -183.5t73 -274.5q0 -93 -29.5 -171t-89.5 -169l-469 -693h-473l369 527q-191 37 -308.5 173t-117.5 333q0 233 157.5 377.5t399.5 144.5zM629 508q80 0 127 63q30 52 30 123q0 87 -42 137t-115 50t-115.5 -50.5t-42.5 -136.5
q0 -89 42 -137.5t116 -48.5z" />
    <glyph glyph-name="zero.slash" horiz-adv-x="1343" 
d="M670 1554q268 0 434 -207.5t166 -580.5t-166 -581t-434 -208q-130 0 -239.5 52t-189.5 150.5t-124.5 249t-44.5 337.5t44.5 337.5t124.5 248.5t189.5 150t239.5 52zM670 1204q-105 0 -150 -107.5t-45 -330.5q0 -74 2 -107l262 531q-28 14 -69 14zM670 328q106 0 151 107
t45 331q0 18 -1 51.5t-1 48.5l-260 -526q27 -12 66 -12z" />
    <glyph glyph-name="zero.subs" horiz-adv-x="763" 
d="M383 692q151 0 247.5 -114.5t96.5 -319.5q0 -206 -96.5 -321t-247.5 -115q-152 0 -249 115t-97 321q0 204 97 319t249 115zM383 438q-34 0 -43.5 -40t-9.5 -140q0 -102 9.5 -142t43.5 -40t43.5 40t9.5 142q0 100 -9.5 140t-43.5 40z" />
    <glyph glyph-name="one.subs" horiz-adv-x="493" 
d="M446 -164h-284v469l-66 -35l-121 232l293 176h178v-842z" />
    <glyph glyph-name="two.subs" horiz-adv-x="661" 
d="M319 692q150 0 227 -77.5t77 -204.5q0 -125 -117 -263l-47 -57h162v-254h-590v197l268 291q37 43 37 90q0 24 -10 24q-17 0 -17 -35l-278 17q1 126 80 199t208 73z" />
    <glyph glyph-name="three.subs" horiz-adv-x="681" 
d="M334 692q143 0 218 -70t75 -196q0 -53 -17 -88.5t-51 -67.5q32 -24 52 -69t20 -101q0 -131 -82.5 -204.5t-216.5 -73.5q-146 0 -223.5 73t-75.5 199l289 19q-6 -37 8 -37q16 0 16 35q0 41 -27 41h-94v221h90q13 0 24 9.5t11 25.5q0 30 -16 30q-14 0 -12 -30l-279 16
q-2 127 73 197.5t218 70.5z" />
    <glyph glyph-name="four.subs" horiz-adv-x="724" 
d="M627 182h67v-252h-67v-94h-285v94h-317v222l327 526h275v-496zM270 182h72v115z" />
    <glyph glyph-name="five.subs" horiz-adv-x="665" 
d="M350 399h17q120 0 195 -69.5t75 -208.5q0 -141 -84 -220t-225 -79q-138 0 -216.5 69t-76.5 183l284 18q-3 -16 11 -16q20 0 20 37q0 32 -18 32q-5 0 -17 -6h-252v539h539v-254h-252v-25z" />
    <glyph glyph-name="six.subs" horiz-adv-x="731" 
d="M688 678l-194 -287q90 -33 142 -104.5t52 -167.5q0 -132 -91 -214.5t-230 -82.5q-140 0 -232 82.5t-92 214.5q0 53 17 96.5t53 95.5l229 367h346zM365 76q34 0 34 53q0 51 -34 51q-11 0 -17 -6l-8 -12q-6 -18 -6 -33q0 -53 31 -53z" />
    <glyph glyph-name="seven.subs" horiz-adv-x="647" 
d="M600 455l-235 -619h-316l225 588h-245v254h571v-223z" />
    <glyph glyph-name="eight.subs" horiz-adv-x="735" 
d="M365 692q134 0 219.5 -69.5t85.5 -188.5q0 -81 -47 -143q71 -77 71 -185q0 -131 -92 -207.5t-235 -76.5q-142 0 -234 77t-92 207q0 104 70 183q-48 67 -48 145q0 119 85.5 188.5t216.5 69.5zM367 438q-13 0 -24 -12.5t-11 -32.5q0 -19 11 -32t24 -13q15 0 24.5 12.5
t9.5 32.5q0 21 -9.5 33t-24.5 12zM367 176q-16 0 -28.5 -14t-12.5 -37q0 -22 12.5 -35.5t28.5 -13.5q19 0 30 13t11 36q0 51 -41 51z" />
    <glyph glyph-name="nine.subs" horiz-adv-x="731" 
d="M362 692q141 0 233.5 -82.5t92.5 -214.5q0 -53 -17 -96.5t-53 -95.5l-229 -367h-346l195 287q-89 31 -142 103t-53 169q0 132 90.5 214.5t228.5 82.5zM365 334q12 0 18 6l8 12q6 18 6 33q0 53 -32 53q-33 0 -33 -53q0 -51 33 -51z" />
    <glyph glyph-name="zero.sups" horiz-adv-x="763" 
d="M383 1679q151 0 247.5 -114.5t96.5 -319.5q0 -206 -96.5 -321t-247.5 -115q-152 0 -249 115t-97 321q0 204 97 319t249 115zM383 1425q-34 0 -43.5 -40t-9.5 -140q0 -102 9.5 -142t43.5 -40t43.5 40t9.5 142q0 100 -9.5 140t-43.5 40z" />
    <glyph glyph-name="one.sups" horiz-adv-x="493" 
d="M446 823h-284v469l-66 -35l-121 232l293 176h178v-842z" />
    <glyph glyph-name="two.sups" horiz-adv-x="661" 
d="M319 1679q150 0 227 -77.5t77 -204.5q0 -124 -117 -262l-47 -58h162v-254h-590v197l268 291q37 43 37 90q0 24 -10 24q-17 0 -17 -34l-278 16q1 126 80 199t208 73z" />
    <glyph glyph-name="three.sups" horiz-adv-x="681" 
d="M334 1679q143 0 218 -70t75 -196q0 -53 -17 -88.5t-51 -67.5q32 -24 52 -69t20 -101q0 -131 -82.5 -204.5t-216.5 -73.5q-146 0 -223.5 73t-75.5 199l289 19q-6 -37 8 -37q16 0 16 35q0 41 -27 41h-94v221h90q13 0 24 9.5t11 25.5q0 30 -16 30q-14 0 -12 -30l-279 16
q-2 127 73 197.5t218 70.5z" />
    <glyph glyph-name="four.sups" horiz-adv-x="724" 
d="M627 1169h67v-251h-67v-95h-285v95h-317v221l327 526h275v-496zM270 1169h72v115z" />
    <glyph glyph-name="five.sups" horiz-adv-x="665" 
d="M350 1386h17q120 0 195 -69.5t75 -208.5q0 -141 -84 -220t-225 -79q-138 0 -216.5 69t-76.5 183l284 18q-3 -16 11 -16q20 0 20 37q0 33 -18 33q-3 0 -17 -7h-252v539h539v-254h-252v-25z" />
    <glyph glyph-name="six.sups" horiz-adv-x="731" 
d="M688 1665l-194 -287q90 -33 142 -104.5t52 -167.5q0 -132 -91 -214.5t-230 -82.5q-140 0 -232 82.5t-92 214.5q0 53 17 96.5t53 95.5l229 367h346zM365 1063q34 0 34 53q0 51 -34 51q-11 0 -17 -6l-8 -12q-6 -18 -6 -33q0 -53 31 -53z" />
    <glyph glyph-name="seven.sups" horiz-adv-x="647" 
d="M600 1442l-235 -619h-316l225 588h-245v254h571v-223z" />
    <glyph glyph-name="eight.sups" horiz-adv-x="735" 
d="M365 1679q134 0 219.5 -69.5t85.5 -188.5q0 -81 -47 -143q71 -77 71 -184q0 -131 -92 -208t-235 -77q-142 0 -234 77t-92 208q0 103 70 182q-48 67 -48 145q0 119 85.5 188.5t216.5 69.5zM367 1425q-13 0 -24 -12.5t-11 -32.5q0 -19 11 -32t24 -13q15 0 24.5 12.5
t9.5 32.5q0 21 -9.5 33t-24.5 12zM367 1163q-16 0 -28.5 -14t-12.5 -37q0 -22 12.5 -35.5t28.5 -13.5q19 0 30 13t11 36q0 51 -41 51z" />
    <glyph glyph-name="nine.sups" horiz-adv-x="731" 
d="M362 1679q141 0 233.5 -82.5t92.5 -214.5q0 -53 -17 -96.5t-53 -95.5l-229 -367h-346l195 287q-89 31 -142 103t-53 169q0 132 90.5 214.5t228.5 82.5zM365 1321q12 0 18 6l8 12q6 18 6 33q0 53 -32 53q-33 0 -33 -53q0 -51 33 -51z" />
    <glyph glyph-name="zero.tnum" horiz-adv-x="1331" 
d="M664 1554q130 0 239.5 -52t190 -150t125.5 -248.5t45 -337.5t-45 -337.5t-125.5 -249t-190 -150.5t-239.5 -52q-268 0 -434.5 208t-166.5 581q0 187 45 337.5t125 248.5t190 150t241 52zM664 1204q-106 0 -151.5 -107.5t-45.5 -330.5t45.5 -330.5t151.5 -107.5t151 107
t45 331t-45 331t-151 107z" />
    <glyph glyph-name="one.tnum" horiz-adv-x="1331" 
d="M932 350h233v-350h-899v350h271v701l-152 -99l-164 314l420 266h291v-1182z" />
    <glyph glyph-name="two.tnum" horiz-adv-x="1331" 
d="M678 1554q232 0 360.5 -111.5t128.5 -326.5q0 -72 -16 -139.5t-38 -117t-61 -105t-68.5 -90t-76.5 -84.5l-217 -230h481v-350h-974v299l403 457q101 116 135.5 183.5t34.5 158.5q0 106 -84 106q-54 0 -73 -37.5t-21 -117.5l-395 20q3 229 129.5 357t351.5 128z" />
    <glyph glyph-name="three.tnum" horiz-adv-x="1331" 
d="M668 1554q236 0 365.5 -125.5t129.5 -341.5q0 -57 -9.5 -102.5t-29 -80.5t-39.5 -59.5t-51 -53.5q64 -39 107 -124.5t43 -199.5q0 -229 -142 -359.5t-374 -130.5q-249 0 -384 128t-137 350l394 22q3 -149 125 -149q120 0 120 151q0 69 -39 106.5t-102 37.5h-164v329h160
q57 0 92 34.5t35 96.5q0 121 -102 121q-50 0 -78 -35.5t-29 -103.5l-395 22q3 221 133.5 344t370.5 123z" />
    <glyph glyph-name="four.tnum" horiz-adv-x="1331" 
d="M1012 561h211v-350h-211v-211h-336v211h-596v326l631 995h301v-971zM459 561h217v342z" />
    <glyph glyph-name="five.tnum" horiz-adv-x="1331" 
d="M707 993q211 0 345 -128t134 -367q0 -241 -144 -381t-389 -140q-237 0 -372.5 122t-137.5 327l394 25q2 -57 31.5 -90t86.5 -33q65 0 99 42t34 117t-31 114.5t-91 39.5q-62 0 -107 -31h-366v922h931v-350h-536v-205q53 16 119 16z" />
    <glyph glyph-name="six.tnum" horiz-adv-x="1331" 
d="M1167 1532l-368 -526q191 -37 308.5 -173t117.5 -333q0 -155 -72.5 -274.5t-199 -184t-285.5 -64.5q-244 0 -401.5 144.5t-157.5 378.5q0 94 28.5 172.5t87.5 167.5l469 692h473zM666 328q73 0 115 50t42 136q0 89 -41.5 137.5t-115.5 48.5q-80 0 -127 -63
q-31 -53 -31 -123q0 -86 43 -136t115 -50z" />
    <glyph glyph-name="seven.tnum" horiz-adv-x="1331" 
d="M1133 1214l-525 -1214h-434l526 1182h-575v350h1008v-318z" />
    <glyph glyph-name="eight.tnum" horiz-adv-x="1331" 
d="M664 1554q227 0 372.5 -119t145.5 -325q0 -166 -101 -285q142 -139 142 -354q0 -151 -73.5 -264.5t-199 -171.5t-284.5 -58t-284.5 58t-199 171.5t-73.5 264.5q0 216 139 352q-101 119 -101 287q0 206 145 325t372 119zM666 1204q-53 0 -87 -33.5t-34 -91.5
q0 -56 34.5 -90.5t86.5 -34.5q54 0 87 34t33 91q0 59 -32.5 92t-87.5 33zM666 659q-71 0 -116.5 -44.5t-45.5 -122.5q0 -75 45.5 -119.5t116.5 -44.5q72 0 117.5 44.5t45.5 119.5q0 78 -45.5 122.5t-117.5 44.5z" />
    <glyph glyph-name="nine.tnum" horiz-adv-x="1331" 
d="M664 1554q244 0 401.5 -144t157.5 -378q0 -94 -29 -172.5t-88 -167.5l-469 -692h-473l368 526q-191 37 -308.5 173t-117.5 333q0 233 158 377.5t400 144.5zM666 831q79 0 127 64q30 52 30 123q0 86 -42.5 136t-114.5 50q-73 0 -115.5 -50t-42.5 -136q0 -89 42 -138
t116 -49z" />
    <glyph glyph-name="zero.dnom" horiz-adv-x="763" 
d="M383 856q151 0 247.5 -114.5t96.5 -319.5q0 -206 -96.5 -321t-247.5 -115q-152 0 -249 115t-97 321q0 204 97 319t249 115zM383 602q-34 0 -43.5 -40t-9.5 -140q0 -102 9.5 -142t43.5 -40t43.5 40t9.5 142q0 100 -9.5 140t-43.5 40z" />
    <glyph glyph-name="one.dnom" horiz-adv-x="493" 
d="M446 0h-284v469l-66 -35l-121 232l293 176h178v-842z" />
    <glyph glyph-name="two.dnom" horiz-adv-x="661" 
d="M319 856q149 0 226.5 -78t77.5 -205q0 -124 -117 -262l-47 -57h162v-254h-590v197l268 290q37 43 37 91q0 24 -10 24q-17 0 -17 -35l-278 17q1 126 80 199t208 73z" />
    <glyph glyph-name="three.dnom" horiz-adv-x="681" 
d="M334 856q143 0 218 -70t75 -196q0 -53 -17 -88.5t-51 -67.5q32 -24 52 -69t20 -101q0 -131 -82.5 -204.5t-216.5 -73.5q-146 0 -223.5 73t-75.5 199l289 18q-6 -36 8 -36q16 0 16 34q0 41 -27 41h-94v222h90q13 0 24 9t11 25q0 31 -16 31q-14 0 -12 -31l-279 17
q-2 127 73 197.5t218 70.5z" />
    <glyph glyph-name="four.dnom" horiz-adv-x="724" 
d="M627 346h67v-252h-67v-94h-285v94h-317v221l327 527h275v-496zM270 346h72v115z" />
    <glyph glyph-name="five.dnom" horiz-adv-x="665" 
d="M350 563h17q120 0 195 -69.5t75 -208.5q0 -141 -84 -220t-225 -79q-138 0 -216.5 69t-76.5 183l284 18q-3 -16 11 -16q20 0 20 36q0 33 -18 33q-5 0 -17 -6h-252v539h539v-254h-252v-25z" />
    <glyph glyph-name="six.dnom" horiz-adv-x="731" 
d="M688 842l-194 -287q90 -33 142 -104.5t52 -167.5q0 -132 -91 -214.5t-230 -82.5q-140 0 -232 82.5t-92 214.5q0 53 17 96.5t53 95.5l229 367h346zM365 240q34 0 34 53q0 51 -34 51q-11 0 -17 -6l-8 -12q-6 -18 -6 -33q0 -53 31 -53z" />
    <glyph glyph-name="seven.dnom" horiz-adv-x="647" 
d="M600 618l-235 -618h-316l225 588h-245v254h571v-224z" />
    <glyph glyph-name="eight.dnom" horiz-adv-x="735" 
d="M365 856q134 0 219.5 -69.5t85.5 -188.5q0 -81 -47 -143q71 -77 71 -185q0 -131 -92 -207.5t-235 -76.5q-142 0 -234 77t-92 207q0 104 70 183q-48 67 -48 145q0 119 85.5 188.5t216.5 69.5zM367 602q-13 0 -24 -12.5t-11 -32.5q0 -19 11 -32t24 -13q15 0 24.5 12.5
t9.5 32.5q0 21 -9.5 33t-24.5 12zM367 340q-16 0 -28.5 -14t-12.5 -37q0 -22 12.5 -35.5t28.5 -13.5q19 0 30 13t11 36q0 51 -41 51z" />
    <glyph glyph-name="nine.dnom" horiz-adv-x="731" 
d="M362 856q141 0 233.5 -82.5t92.5 -214.5q0 -53 -17 -96.5t-53 -95.5l-229 -367h-346l195 287q-89 31 -142 103t-53 169q0 132 90.5 214.5t228.5 82.5zM365 498q12 0 18 6l8 12q6 18 6 33q0 53 -32 53q-33 0 -33 -53q0 -51 33 -51z" />
    <glyph glyph-name="zero.numr" horiz-adv-x="763" 
d="M383 1513q151 0 247.5 -114.5t96.5 -319.5q0 -206 -96.5 -321t-247.5 -115q-152 0 -249 115t-97 321q0 204 97 319t249 115zM383 1260q-34 0 -43.5 -40.5t-9.5 -140.5q0 -102 9.5 -142t43.5 -40t43.5 40t9.5 142q0 100 -9.5 140.5t-43.5 40.5z" />
    <glyph glyph-name="one.numr" horiz-adv-x="493" 
d="M446 659h-284v469l-66 -34l-121 231l293 176h178v-842z" />
    <glyph glyph-name="two.numr" horiz-adv-x="661" 
d="M319 1513q150 0 227 -77.5t77 -204.5q0 -124 -117 -262l-47 -58h162v-254h-590v197l268 291q37 43 37 90q0 25 -10 25q-17 0 -17 -35l-278 16q1 126 80 199t208 73z" />
    <glyph glyph-name="three.numr" horiz-adv-x="681" 
d="M334 1513q143 0 218 -70t75 -196q0 -53 -17 -87.5t-51 -67.5q32 -24 52 -69t20 -101q0 -131 -82.5 -205t-216.5 -74q-146 0 -223.5 73t-75.5 199l289 19q-6 -37 8 -37q16 0 16 35q0 41 -27 41h-94v221h90q13 0 24 9.5t11 25.5q0 31 -16 31q-14 0 -12 -31l-279 16
q-2 127 73 197.5t218 70.5z" />
    <glyph glyph-name="four.numr" horiz-adv-x="724" 
d="M627 1004h67v-252h-67v-95h-285v95h-317v221l327 526h275v-495zM270 1004h72v114z" />
    <glyph glyph-name="five.numr" horiz-adv-x="665" 
d="M350 1223h17q120 0 195 -70t75 -209q0 -141 -84 -220t-225 -79q-138 0 -216.5 69t-76.5 183l284 18q-3 -16 11 -16q20 0 20 37q0 33 -18 33q-5 0 -17 -6h-252v538h539v-254h-252v-24z" />
    <glyph glyph-name="six.numr" horiz-adv-x="731" 
d="M688 1499l-194 -287q90 -33 142 -104.5t52 -167.5q0 -132 -91 -214.5t-230 -82.5q-140 0 -232 82.5t-92 214.5q0 53 17 97t53 96l229 366h346zM365 897q34 0 34 53q0 51 -34 51q-11 0 -17 -6l-8 -12q-6 -18 -6 -33q0 -53 31 -53z" />
    <glyph glyph-name="seven.numr" horiz-adv-x="647" 
d="M600 1278l-235 -619h-316l225 588h-245v254h571v-223z" />
    <glyph glyph-name="eight.numr" horiz-adv-x="735" 
d="M365 1513q134 0 219.5 -69.5t85.5 -188.5q0 -81 -47 -143q71 -77 71 -184q0 -131 -92 -208t-235 -77q-142 0 -234 77t-92 208q0 103 70 182q-48 67 -48 145q0 119 85.5 188.5t216.5 69.5zM367 1260q-13 0 -24 -13t-11 -33q0 -19 11 -32t24 -13q15 0 24.5 12.5t9.5 32.5
q0 21 -9.5 33.5t-24.5 12.5zM367 997q-16 0 -28.5 -14t-12.5 -37q0 -22 12.5 -35.5t28.5 -13.5q19 0 30 13t11 36q0 51 -41 51z" />
    <glyph glyph-name="nine.numr" horiz-adv-x="731" 
d="M362 1513q141 0 233.5 -82t92.5 -214q0 -53 -17 -97t-53 -96l-229 -367h-346l195 287q-89 31 -142 103.5t-53 169.5q0 132 90.5 214t228.5 82zM365 1155q12 0 18 6l8 13q6 18 6 32q0 54 -32 54q-33 0 -33 -54q0 -51 33 -51z" />
    <glyph glyph-name="periodcentered.cap" horiz-adv-x="616" 
d="M287 1155q90 0 153.5 -63.5t63.5 -153.5q0 -92 -63 -154.5t-154 -62.5t-154 62.5t-63 154.5q0 90 63.5 153.5t153.5 63.5z" />
    <glyph glyph-name="exclamdown.cap" horiz-adv-x="716" 
d="M360 1120q-91 0 -155 64t-64 155q0 90 64 152.5t155 62.5t153 -62t62 -153t-62.5 -155t-152.5 -64zM162 1032h393l23 -1032h-439z" />
    <glyph glyph-name="questiondown.cap" horiz-adv-x="1136" 
d="M561 1120q-91 0 -154 64t-63 155t63 153t154 62t154 -62t63 -153t-63 -155t-154 -64zM567 -27q-247 0 -391.5 128.5t-144.5 351.5q0 59 15.5 108.5t48.5 91.5t58.5 66.5t69.5 60.5q4 3 23.5 19t24 20t20.5 18t21 20t17 18.5t16 21t10 20t8 23t2 23.5v69h393v-84
q0 -37 -13.5 -73.5t-27.5 -60.5t-48.5 -60.5t-49 -49.5t-56.5 -51q-51 -49 -68.5 -67t-40 -55.5t-22.5 -71.5q0 -67 36.5 -101t98.5 -34q64 0 104.5 43.5t41.5 121.5l393 -22q-3 -223 -153 -358.5t-386 -135.5z" />
    <glyph glyph-name="braceleft.cap" horiz-adv-x="684" 
d="M645 1268h-12q-87 0 -111.5 -45t-9.5 -181q10 -56 6.5 -105t-18 -86t-52.5 -60t-98 -27q60 -4 98 -27.5t52.5 -61t18 -87t-6.5 -105.5q-15 -136 9.5 -180.5t111.5 -44.5h12v-309h-12q-123 0 -222.5 30t-169 89.5t-96 156.5t-0.5 221q28 103 12 133.5t-110 30.5h-16v305
h16q94 0 110 30.5t-12 133.5q-26 124 0.5 221t96 156.5t169 90t222.5 30.5h12v-309z" />
    <glyph glyph-name="braceright.cap" horiz-adv-x="684" 
d="M41 1577h12q123 0 222 -29.5t169.5 -91t95 -155.5t-0.5 -222q-27 -103 -11 -133.5t111 -30.5h16v-305h-16q-95 0 -111 -30.5t11 -133.5q25 -128 0.5 -222t-95 -155t-169.5 -90.5t-222 -29.5h-12v309h12q58 0 85.5 18t37 68t-3.5 139q-9 56 -5.5 105.5t18.5 87t53 61
t98 27.5q-60 4 -98 27t-53 60t-18.5 86t5.5 105q15 136 -9.5 181t-109.5 45h-12v309z" />
    <glyph glyph-name="bracketleft.cap" horiz-adv-x="681" 
d="M641 1268h-166v-1010h166v-309h-541v1628h541v-309z" />
    <glyph glyph-name="bracketright.cap" horiz-adv-x="712" 
d="M582 -51h-541v309h166v1010h-166v309h541v-1628z" />
    <glyph glyph-name="parenleft.cap" horiz-adv-x="663" 
d="M311 1602l324 -113q-191 -356 -191 -748q0 -395 191 -747l-324 -113q-239 368 -239 860q0 489 239 861z" />
    <glyph glyph-name="parenright.cap" horiz-adv-x="651" 
d="M31 1489l321 113q242 -376 242 -861q0 -487 -242 -860l-321 113q188 356 188 747q0 388 -188 748z" />
    <glyph glyph-name="emdash.cap" horiz-adv-x="1638" 
d="M1546 598h-1454v350h1454v-350z" />
    <glyph glyph-name="endash.cap" horiz-adv-x="1163" 
d="M1071 598h-979v350h979v-350z" />
    <glyph glyph-name="hyphen.cap" horiz-adv-x="835" 
d="M743 598h-651v350h651v-350z" />
    <glyph glyph-name="guillemotleft.cap" horiz-adv-x="1253" 
d="M643 1116l-199 -319l199 -318l-299 -182l-313 500l313 501zM1225 1116l-199 -319l199 -318l-299 -182l-314 500l314 501z" />
    <glyph glyph-name="guillemotright.cap" horiz-adv-x="1253" 
d="M643 797l-315 -500l-297 182l198 318l-198 319l297 182zM1223 797l-314 -500l-299 182l199 318l-199 319l299 182z" />
    <glyph glyph-name="guilsinglleft.cap" horiz-adv-x="731" 
d="M700 1057l-221 -260l221 -258l-266 -234l-403 492l403 493z" />
    <glyph glyph-name="guilsinglright.cap" horiz-adv-x="731" 
d="M700 797l-403 -492l-266 234l221 258l-221 260l266 233z" />
    <glyph glyph-name="emdash_guilsinglright" horiz-adv-x="1853" 
d="M1782 532l-498 -571l-262 234l168 188h-1098v307h1090l-160 180l262 236z" />
    <glyph glyph-name="endash_guilsinglright" horiz-adv-x="1290" 
d="M1219 532l-498 -571l-262 234l168 188h-535v307h526l-159 180l262 236z" />
    <glyph glyph-name="guilsinglleft_emdash" horiz-adv-x="1853" 
d="M831 870l-159 -180h1089v-307h-1097l167 -188l-262 -234l-497 571l497 574z" />
    <glyph glyph-name="guilsinglleft_endash" horiz-adv-x="1290" 
d="M831 870l-159 -180h526v-307h-534l167 -188l-262 -234l-497 571l497 574z" />
    <glyph glyph-name="at.cap" horiz-adv-x="1624" 
d="M1227 1165v-612q0 -59 59 -59q51 0 85 68t34 204q0 255 -169 424.5t-425 169.5q-127 0 -237.5 -45.5t-188 -124t-122 -188.5t-44.5 -236q0 -133 48 -246.5t128.5 -188t184 -116t215.5 -41.5q206 0 360 82l57 -133q-85 -47 -180.5 -67.5t-236.5 -20.5q-147 0 -279.5 53.5
t-231 147.5t-156.5 232t-58 298q0 209 94.5 376.5t264 263t382.5 95.5q159 0 297 -56t236 -153t154 -233.5t56 -292.5q0 -217 -90.5 -326.5t-253.5 -109.5q-159 0 -223 98q-91 -102 -242 -102q-175 0 -285 121.5t-110 314.5q0 195 110 315.5t285 120.5q135 0 213 -74v41h269
zM944 748v28q0 77 -41 123.5t-110 46.5q-70 0 -111 -48t-41 -136q0 -87 41 -137t111 -50q68 0 109.5 48t41.5 125z" />
    <glyph glyph-name="acute.case" horiz-adv-x="759" 
d="M344 1632h-336l236 332h508z" />
    <glyph glyph-name="breve.case" horiz-adv-x="849" 
d="M539 2003h303q0 -187 -114 -283t-304 -96q-189 0 -302.5 96t-113.5 283h303q0 -58 30.5 -90.5t82.5 -32.5q53 0 84 32.5t31 90.5z" />
    <glyph glyph-name="caron.case" horiz-adv-x="847" 
d="M606 1632h-362l-236 348h311l105 -135l106 135h310z" />
    <glyph glyph-name="circumflex.case" horiz-adv-x="847" 
d="M840 1632h-310l-106 135l-105 -135h-311l236 348h362z" />
    <glyph glyph-name="dieresis.case" horiz-adv-x="856" 
d="M203 2011q83 0 139.5 -57t56.5 -139q0 -83 -56.5 -139t-139.5 -56q-82 0 -138.5 56t-56.5 139q0 82 56.5 139t138.5 57zM651 2011q83 0 141 -57t58 -139q0 -83 -57.5 -139t-141.5 -56q-82 0 -138 56t-56 139q0 82 56 139t138 57z" />
    <glyph glyph-name="dotaccent.case" horiz-adv-x="450" 
d="M223 2058q92 0 155.5 -64t63.5 -155t-63.5 -153t-155.5 -62q-91 0 -153 62t-62 153q0 90 63.5 154.5t151.5 64.5z" />
    <glyph glyph-name="grave.case" horiz-adv-x="759" 
d="M752 1632h-336l-408 332h508z" />
    <glyph glyph-name="hungarumlaut.case" horiz-adv-x="950" 
d="M299 1638h-291l127 373h352zM754 1638h-291l127 373h352z" />
    <glyph glyph-name="macron.case" horiz-adv-x="677" 
d="M670 1649h-662v284h662v-284z" />
    <glyph glyph-name="ring.case" horiz-adv-x="512" 
d="M258 2091q105 0 176.5 -65t71.5 -166q0 -100 -72 -166t-176 -66q-107 0 -178.5 65.5t-71.5 166.5q0 102 71.5 166.5t178.5 64.5zM258 1931q-33 0 -52.5 -20t-19.5 -51q0 -30 19.5 -50t52.5 -20q32 0 51 20t19 50q0 31 -19 51t-51 20z" />
    <glyph glyph-name="tilde.case" horiz-adv-x="815" 
d="M252 1999q44 0 85.5 -16t67 -34.5t57 -34.5t58.5 -16q76 0 76 87h209q14 -147 -54 -257t-188 -110q-46 0 -88 16t-67.5 35t-56.5 35t-56 16q-76 0 -76 -88h-209q-9 96 16.5 179t85 135.5t140.5 52.5z" />
    <glyph glyph-name="anneau" horiz-adv-x="1234" 
d="M618 1561q244 0 405 -150.5t161 -376.5q0 -229 -161 -379.5t-405 -150.5q-248 0 -407.5 150t-159.5 380q0 149 72 269.5t202 189t293 68.5zM618 1436q-191 0 -307 -111.5t-116 -290.5q0 -181 116 -292t307 -111q188 0 305 111.5t117 291.5q0 179 -117.5 290.5
t-304.5 111.5z" />
    <glyph glyph-name="null" horiz-adv-x="1228" 
 />
    </font>
</defs>
</svg>
