<?xml version="1.0" standalone="no"?>
<!DOCTYPE svg PUBLIC "-//W3C//DTD SVG 1.1//EN" "http://www.w3.org/Graphics/SVG/1.1/DTD/svg11.dtd" >
<svg xmlns="http://www.w3.org/2000/svg" xmlns:xlink="http://www.w3.org/1999/xlink" version="1.1">
<metadata>
Created by FontForge 20170731 at Sat Jan 16 11:33:00 2021
 By Aleksey,,,
Copyright (c) 2014 by Type Dynamic. All rights reserved.
</metadata>
<defs>
<font id="Sailec-Regular" horiz-adv-x="1210" >
  <font-face 
    font-family="Sailec"
    font-weight="400"
    font-stretch="normal"
    units-per-em="2048"
    panose-1="0 0 5 0 0 0 0 0 0 0"
    ascent="1536"
    descent="-512"
    x-height="1044"
    cap-height="1532"
    bbox="-428 -627 2433 2177"
    underline-thickness="102"
    underline-position="-307"
    unicode-range="U+000D-FB02"
  />
<missing-glyph horiz-adv-x="1439" 
d="M1274 0h-1108v1532h1108v-1532zM401 1405l322 -524l319 524h-641zM301 221l340 543l-340 543v-1086zM807 764l332 -533v1067zM406 127h636l-319 522z" />
    <glyph glyph-name="fi" unicode="fi" horiz-adv-x="1236" 
d="M598 1599q32 0 78 -4v-153q-32 4 -60 4q-97 0 -155 -59.5t-58 -163.5v-179h269v-153h-269v-891h-176v891h-202v153h202v175q0 178 100.5 279t270.5 101zM971 1538q48 0 82 -34t34 -83q0 -47 -34.5 -80.5t-81.5 -33.5q-49 0 -83 33.5t-34 80.5q0 49 34.5 83t82.5 34z
M1057 0h-176v1044h176v-1044z" />
    <glyph glyph-name="f_j" unicode="fj" horiz-adv-x="1236" 
d="M598 1599q32 0 78 -4v-153q-32 4 -60 4q-97 0 -155 -59.5t-58 -163.5v-179h269v-153h-269v-891h-176v891h-202v153h202v175q0 178 100.5 279t270.5 101zM971 1538q48 0 82 -34t34 -83q0 -47 -34.5 -80.5t-81.5 -33.5q-49 0 -83 33.5t-34 80.5q0 49 34 83t83 34z
M1059 1044v-1198q0 -180 -94.5 -279t-259.5 -99q-41 0 -82 6v153q27 -6 61 -6q92 0 145.5 57.5t53.5 163.5v1202h176z" />
    <glyph glyph-name=".notdef" horiz-adv-x="1439" 
d="M1274 0h-1108v1532h1108v-1532zM401 1405l322 -524l319 524h-641zM301 221l340 543l-340 543v-1086zM807 764l332 -533v1067zM406 127h636l-319 522z" />
    <glyph glyph-name=".null" horiz-adv-x="0" 
 />
    <glyph glyph-name="nonmarkingreturn" horiz-adv-x="682" 
 />
    <glyph glyph-name="CR" unicode="&#xd;" horiz-adv-x="1228" 
 />
    <glyph glyph-name="space" unicode=" " horiz-adv-x="487" 
 />
    <glyph glyph-name="exclam" unicode="!" horiz-adv-x="571" 
d="M377 416h-187l-8 1116h205zM285 223q51 0 87 -36t36 -87q0 -50 -36 -85t-87 -35q-50 0 -85.5 35.5t-35.5 84.5q0 51 35.5 87t85.5 36z" />
    <glyph glyph-name="quotedbl" unicode="&#x22;" horiz-adv-x="679" 
d="M256 1049h-143l-21 471h184zM565 1049h-143l-21 471h185z" />
    <glyph glyph-name="numbersign" unicode="#" horiz-adv-x="1300" 
d="M1038 1110h246l-33 -143h-247l-97 -406h258l-32 -141h-259l-100 -420h-156l101 420h-303l-101 -420h-155l100 420h-244l33 141h246l96 406h-256l35 143h254l102 422h154l-100 -422h303l102 422h154zM545 967l-96 -406h305l96 406h-305z" />
    <glyph glyph-name="dollar" unicode="$" horiz-adv-x="1343" 
d="M1241 422q0 -105 -37 -187t-103.5 -134.5t-152.5 -82t-190 -36.5v-224h-150v226q-214 21 -349 136.5t-144 305.5l188 10q10 -133 120.5 -213t272.5 -80q161 0 258 66t97 199q0 34 -6.5 62t-22 51t-32 40.5t-48 34t-57 27.5t-71 24.5t-78.5 22t-91 22.5
q-69 17 -114.5 29.5t-102.5 33t-93.5 41.5t-75 53t-60 69t-35.5 88t-14 112q0 173 118.5 294t339.5 138v222h150v-224q194 -22 312.5 -133t125.5 -289l-190 -12q-7 128 -97.5 201.5t-236.5 73.5q-159 0 -245.5 -74t-86.5 -191q0 -34 6 -62t20.5 -50.5t30.5 -40t44 -33
t52.5 -26t65 -22t72 -19.5t82.5 -19q109 -26 183 -49.5t144.5 -58.5t111 -77.5t65 -104t24.5 -140.5z" />
    <glyph glyph-name="percent" unicode="%" horiz-adv-x="1720" 
d="M414 1552q147 0 240.5 -99t93.5 -265t-93.5 -266.5t-240.5 -100.5t-241.5 100.5t-94.5 266.5t94.5 265t241.5 99zM406 0h-175l1082 1532h174zM412 1425q-89 0 -146 -63.5t-57 -173.5q0 -111 57 -176.5t146 -65.5q90 0 146 65t56 177q0 111 -55.5 174t-146.5 63zM1305 711
q148 0 241.5 -99t93.5 -266q0 -165 -93.5 -265.5t-241.5 -100.5q-145 0 -239.5 100.5t-94.5 265.5q0 166 94.5 265.5t239.5 99.5zM1305 586q-90 0 -146.5 -64t-56.5 -176q0 -110 57.5 -175t145.5 -65q91 0 146.5 64t55.5 176t-55.5 176t-146.5 64z" />
    <glyph glyph-name="ampersand" unicode="&#x26;" horiz-adv-x="1427" 
d="M1317 -18l-256 229q-191 -227 -475 -227q-237 0 -368.5 119t-131.5 309q0 146 69 251.5t197 192.5q-131 148 -131 309q0 186 114.5 286.5t303.5 100.5q166 0 278 -92.5t134 -253.5l-181 -12q-14 94 -74 145.5t-157 51.5q-106 0 -167.5 -57t-61.5 -167q0 -48 15 -90.5
t48.5 -83.5t64 -70.5t83.5 -76.5l24 -21l391 -350q69 132 123 334l166 -45q-66 -238 -162 -404l269 -239zM590 141q201 0 348 181l-426 380l-53 48q-89 -62 -136 -139.5t-47 -182.5q0 -131 84.5 -209t229.5 -78z" />
    <glyph glyph-name="quotesingle" unicode="'" horiz-adv-x="370" 
d="M256 1049h-143l-21 471h184z" />
    <glyph glyph-name="parenleft" unicode="(" horiz-adv-x="522" 
d="M330 1491l153 -55q-225 -357 -225 -781q0 -421 225 -778l-153 -57q-111 167 -179.5 380t-68.5 455q0 243 68.5 457t179.5 379z" />
    <glyph glyph-name="parenright" unicode=")" horiz-adv-x="522" 
d="M41 1436l154 55q110 -164 178.5 -378.5t68.5 -457.5q0 -242 -68 -455t-179 -380l-154 57q225 357 225 778q0 424 -225 781z" />
    <glyph glyph-name="asterisk" unicode="*" horiz-adv-x="681" 
d="M387 1296l242 82l33 -96l-242 -78l151 -200l-84 -62l-145 207l-147 -209l-82 64l149 200l-242 78l33 96l240 -82l-2 254h100z" />
    <glyph glyph-name="plus" unicode="+" horiz-adv-x="1118" 
d="M645 838h406v-162h-406v-416h-172v416h-405v162h405v405h172v-405z" />
    <glyph glyph-name="comma" unicode="," horiz-adv-x="413" 
d="M209 221q53 0 83 -38t30 -99q0 -257 -232 -389v80q105 78 121 209q-48 0 -83.5 33.5t-35.5 82.5q0 50 33.5 85.5t83.5 35.5z" />
    <glyph glyph-name="hyphen" unicode="-" horiz-adv-x="825" 
d="M733 453h-641v165h641v-165z" />
    <glyph glyph-name="period" unicode="." horiz-adv-x="423" 
d="M211 223q51 0 87 -36t36 -87q0 -50 -36 -85t-87 -35q-49 0 -84 35t-35 85q0 51 35 87t84 36z" />
    <glyph glyph-name="slash" unicode="/" horiz-adv-x="749" 
d="M207 -137h-187l525 1669h182z" />
    <glyph glyph-name="zero" unicode="0" horiz-adv-x="1318" 
d="M662 1552q253 0 400.5 -206t147.5 -580t-147.5 -580t-400.5 -206q-256 0 -404.5 206t-148.5 580t148.5 580t404.5 206zM659 1384q-177 0 -268.5 -157t-91.5 -461t91.5 -461.5t268.5 -157.5q176 0 269.5 158t93.5 461t-93.5 460.5t-269.5 157.5z" />
    <glyph glyph-name="one" unicode="1" horiz-adv-x="761" 
d="M573 0h-184v1280l-270 -207l-92 146l409 313h137v-1532z" />
    <glyph glyph-name="two" unicode="2" horiz-adv-x="1097" 
d="M563 1550q211 0 326 -113.5t115 -314.5q0 -93 -21.5 -176t-66 -158.5t-93.5 -136.5t-121 -137l-331 -348h651v-166h-907v152l448 473q141 147 196.5 248t55.5 241q0 124 -64.5 197t-183.5 73q-132 0 -200 -80t-70 -227l-186 10q3 219 121 341t331 122z" />
    <glyph glyph-name="three" unicode="3" horiz-adv-x="1140" 
d="M565 1552q205 0 323 -113t118 -306q0 -128 -62 -216t-158 -124q114 -28 186 -122t72 -239q0 -208 -130 -330t-345 -122q-221 0 -345 119.5t-138 330.5l188 10q12 -140 87 -216.5t208 -76.5q134 0 210.5 77t76.5 212q0 132 -83 202.5t-220 70.5h-150v165h146
q119 0 193.5 70.5t74.5 188.5q0 121 -67.5 186t-184.5 65q-121 0 -191 -72t-79 -204l-184 10q8 203 126.5 318.5t327.5 115.5z" />
    <glyph glyph-name="four" unicode="4" horiz-adv-x="1220" 
d="M905 530h264v-168h-264v-362h-182v362h-668v154l695 1016h155v-1002zM262 530h461v666z" />
    <glyph glyph-name="five" unicode="5" horiz-adv-x="1144" 
d="M592 940q204 0 330.5 -126t126.5 -345t-129 -354t-353 -135q-215 0 -339 117t-138 321l189 10q12 -134 85 -207.5t205 -73.5q140 0 216.5 88t76.5 230q0 140 -79.5 224.5t-209.5 84.5q-141 0 -256 -92h-172v850h846v-166h-661v-500q118 74 262 74z" />
    <glyph glyph-name="six" unicode="6" horiz-adv-x="1212" 
d="M610 979q221 0 366.5 -139t145.5 -363q0 -148 -67.5 -262t-183.5 -174.5t-261 -60.5q-225 0 -369.5 136.5t-144.5 360.5q0 178 105 318l551 737h221l-414 -555q16 2 51 2zM610 147q141 0 232.5 92t91.5 244t-91.5 242t-232.5 90q-169 0 -258 -115q-67 -86 -67 -217
q0 -153 91 -244.5t234 -91.5z" />
    <glyph glyph-name="seven" unicode="7" horiz-adv-x="1103" 
d="M1055 1380l-719 -1380h-207l719 1366h-801v166h1008v-152z" />
    <glyph glyph-name="eight" unicode="8" horiz-adv-x="1226" 
d="M612 1552q200 0 330.5 -111t130.5 -300q0 -118 -57 -204t-150 -128q110 -47 178 -145.5t68 -235.5q0 -205 -140.5 -326.5t-359.5 -121.5q-217 0 -357 121.5t-140 326.5q0 136 67 234.5t176 144.5q-94 41 -150 128t-56 206q0 190 128.5 300.5t331.5 110.5zM614 1384
q-121 0 -198.5 -68t-77.5 -186q0 -114 78 -180.5t198 -66.5q119 0 197 66.5t78 180.5q0 118 -78 186t-197 68zM612 719q-136 0 -223.5 -76.5t-87.5 -208.5t88 -209.5t223 -77.5q136 0 224 77.5t88 209.5t-88 208.5t-224 76.5z" />
    <glyph glyph-name="nine" unicode="9" horiz-adv-x="1212" 
d="M602 1552q225 0 369.5 -136.5t144.5 -360.5q0 -179 -104 -318l-551 -737h-221l413 555q-16 -2 -51 -2q-221 0 -366.5 139t-145.5 363q0 148 67.5 262t183.5 174.5t261 60.5zM602 717q170 0 258 114q68 87 68 218q0 153 -91.5 244t-234.5 91q-141 0 -232 -91.5t-91 -243.5
t91 -242t232 -90z" />
    <glyph glyph-name="colon" unicode=":" horiz-adv-x="423" 
d="M201 1063q51 0 87 -35.5t36 -87.5q0 -49 -36 -84t-87 -35q-49 0 -84 34.5t-35 84.5q0 52 34.5 87.5t84.5 35.5zM201 223q51 0 87 -36t36 -87q0 -50 -36 -85t-87 -35q-49 0 -84 35t-35 85q0 51 35 87t84 36z" />
    <glyph glyph-name="semicolon" unicode=";" horiz-adv-x="423" 
d="M201 821q-49 0 -84 34.5t-35 84.5q0 52 34.5 87.5t84.5 35.5q51 0 87 -35.5t36 -87.5q0 -49 -36 -84t-87 -35zM209 221q53 0 83 -38t30 -99q0 -257 -232 -389v80q105 78 121 209q-48 0 -83.5 33.5t-35.5 82.5q0 50 33.5 85.5t83.5 35.5z" />
    <glyph glyph-name="less" unicode="&#x3c;" horiz-adv-x="1060" 
d="M995 1032l-589 -276l589 -277l-4 -198l-936 475l936 475z" />
    <glyph glyph-name="equal" unicode="=" horiz-adv-x="1118" 
d="M1051 915h-983v168h983v-168zM1051 426h-983v166h983v-166z" />
    <glyph glyph-name="greater" unicode="&#x3e;" horiz-adv-x="1060" 
d="M1006 756l-936 -475l-2 198l587 277l-587 276l2 199z" />
    <glyph glyph-name="question" unicode="?" horiz-adv-x="1026" 
d="M516 1552q219 0 345 -121.5t126 -318.5q0 -65 -15 -118t-47 -96t-66.5 -75t-88.5 -71q-94 -70 -132 -130.5t-38 -150.5v-55h-186v63q0 102 46 178.5t150 159.5q94 69 139.5 134t45.5 159q0 123 -74.5 201t-204.5 78q-131 0 -206 -70t-87 -195l-186 13q12 193 139.5 304
t339.5 111zM504 223q51 0 87 -36t36 -87q0 -50 -36 -85t-87 -35q-50 0 -85.5 35.5t-35.5 84.5q0 51 35.5 87t85.5 36z" />
    <glyph glyph-name="at" unicode="@" horiz-adv-x="1650" 
d="M825 1239q157 0 294.5 -56t235 -153t154 -233.5t56.5 -292.5q0 -200 -79 -308t-216 -108q-76 0 -125 33t-66 94q-92 -133 -288 -133q-172 0 -278.5 115t-106.5 311q0 197 106.5 312.5t278.5 115.5q103 0 174.5 -36.5t107.5 -98.5v110h131v-592q0 -116 96 -116
q69 0 110.5 79.5t41.5 221.5q0 177 -81.5 321t-225.5 226t-320 82q-135 0 -251.5 -48t-198.5 -132t-129 -200t-47 -249q0 -182 83 -326.5t224 -222.5t311 -78q217 0 379 103l31 -103q-89 -55 -184.5 -81.5t-225.5 -26.5q-153 0 -288 55t-232.5 151t-154 233.5t-56.5 295.5
q0 156 55.5 292.5t152.5 233.5t234.5 153t296.5 56zM1067 485v47q0 137 -69 209t-187 72q-120 0 -193 -80t-73 -225t73 -225t193 -80q117 0 186.5 73t69.5 209z" />
    <glyph glyph-name="A" unicode="A" horiz-adv-x="1505" 
d="M1473 0h-205l-160 389h-711l-161 -389h-205l641 1532h159zM467 553h571l-284 690z" />
    <glyph glyph-name="B" unicode="B" horiz-adv-x="1404" 
d="M184 1532h574q204 0 330 -105.5t126 -302.5q0 -121 -47.5 -203.5t-126.5 -121.5q104 -35 172 -131t68 -244q0 -139 -63 -236.5t-167 -142.5t-239 -45h-627v1532zM371 1366v-500h415q110 0 174 59.5t64 186.5q0 124 -78.5 189t-210.5 65h-364zM371 705v-539h417
q133 0 217.5 65.5t84.5 202.5q0 94 -42 157t-104 88.5t-139 25.5h-434z" />
    <glyph glyph-name="C" unicode="C" horiz-adv-x="1654" 
d="M866 1552q180 0 330 -67.5t248 -197.5t121 -302l-195 -18q-29 196 -168 306.5t-342 110.5q-249 0 -402 -165.5t-153 -452.5q0 -147 43 -265.5t118.5 -195t177 -117.5t220.5 -41q200 0 336.5 104t171.5 292l195 -17q-42 -252 -233 -399t-464 -147q-216 0 -386 91.5
t-269.5 271.5t-99.5 423q0 183 56.5 332t157 248t238 152.5t299.5 53.5z" />
    <glyph glyph-name="D" unicode="D" horiz-adv-x="1636" 
d="M184 1532h598q158 0 293 -52t234 -148.5t155 -242t56 -323.5t-57 -323.5t-156.5 -242t-235 -148.5t-293.5 -52h-594v1532zM371 1372v-1212h409q247 0 400 159t153 447q0 289 -150.5 447.5t-398.5 158.5h-413z" />
    <glyph glyph-name="E" unicode="E" horiz-adv-x="1214" 
d="M1133 1366h-760v-494h669v-161h-669v-545h760v-166h-949v1532h949v-166z" />
    <glyph glyph-name="F" unicode="F" horiz-adv-x="1193" 
d="M1133 1366h-760v-502h633v-166h-633v-698h-189v1532h949v-166z" />
    <glyph glyph-name="G" unicode="G" horiz-adv-x="1681" 
d="M1571 778v-63q0 -341 -191.5 -538t-515.5 -197q-160 0 -297 53.5t-237.5 152t-157.5 248t-57 332.5t56.5 332.5t156.5 248t236.5 152t297.5 53.5q268 0 460 -144.5t237 -397.5l-195 -31q-29 189 -165.5 297t-338.5 108q-252 0 -403.5 -160.5t-151.5 -457.5
q0 -296 153 -457.5t402 -161.5q216 0 351.5 117t158.5 348h-504v166h705z" />
    <glyph glyph-name="H" unicode="H" horiz-adv-x="1542" 
d="M1358 0h-187v711h-798v-711h-189v1532h189v-653h798v653h187v-1532z" />
    <glyph glyph-name="I" unicode="I" horiz-adv-x="555" 
d="M373 0h-189v1532h189v-1532z" />
    <glyph glyph-name="J" unicode="J" horiz-adv-x="1185" 
d="M1014 1532v-1047q0 -240 -127 -372.5t-350 -132.5q-218 0 -348 127.5t-142 349.5l189 30q7 -162 87 -251t214 -89q138 0 213 85t75 249v1051h189z" />
    <glyph glyph-name="K" unicode="K" horiz-adv-x="1382" 
d="M682 881l670 -881h-230l-565 733l-184 -207v-526h-189v1532h189v-727l653 727h242z" />
    <glyph glyph-name="L" unicode="L" 
d="M373 166h768v-166h-957v1532h189v-1366z" />
    <glyph glyph-name="M" unicode="M" horiz-adv-x="2009" 
d="M1825 0h-187v1108l-569 -1098h-125l-571 1098v-1108h-189v1532h164l658 -1249l657 1249h162v-1532z" />
    <glyph glyph-name="N" unicode="N" horiz-adv-x="1536" 
d="M1352 0h-160l-819 1184v-1184h-189v1532h158l823 -1186v1186h187v-1532z" />
    <glyph glyph-name="O" unicode="O" horiz-adv-x="1773" 
d="M887 1552q162 0 303 -55t244.5 -155t163 -248.5t59.5 -327.5t-59.5 -327.5t-163 -248.5t-244.5 -155t-303 -55q-163 0 -304.5 55t-245 155t-163 248.5t-59.5 327.5t59.5 327.5t163 248.5t245 155t304.5 55zM887 1384q-123 0 -229.5 -42t-184.5 -119.5t-123 -195.5
t-45 -261t45 -260.5t123 -195.5t184.5 -120.5t229.5 -42.5t229 42.5t183.5 120.5t122 195.5t44.5 260.5t-44.5 260.5t-122 195.5t-183.5 120t-229 42z" />
    <glyph glyph-name="P" unicode="P" horiz-adv-x="1329" 
d="M184 1532h600q135 0 240 -51t168 -158t63 -256q0 -221 -131.5 -342t-339.5 -121h-411v-604h-189v1532zM371 1366v-596h391q131 0 216 76.5t85 220.5q0 147 -85 223t-216 76h-391z" />
    <glyph glyph-name="Q" unicode="Q" horiz-adv-x="1777" 
d="M1616 -156l-273 271q-195 -135 -456 -135q-163 0 -304.5 55t-245 155t-163 248.5t-59.5 327.5t59.5 327.5t163 248.5t245 155t304.5 55q162 0 303 -55t244.5 -155t163 -248.5t59.5 -327.5q0 -315 -176 -526l264 -263zM887 147q184 0 327 95l-305 303l131 133l310 -307
q116 157 116 395q0 143 -44.5 260.5t-122 195.5t-183.5 120t-229 42t-229.5 -42t-184.5 -119.5t-123 -195.5t-45 -261t45 -260.5t123 -195.5t184.5 -120.5t229.5 -42.5z" />
    <glyph glyph-name="R" unicode="R" horiz-adv-x="1404" 
d="M1116 0l-344 614h-399v-614h-189v1532h592q207 0 339 -119.5t132 -339.5q0 -164 -75 -273t-205 -155l360 -645h-211zM371 780h383q130 0 215.5 75t85.5 218t-85.5 218t-215.5 75h-383v-586z" />
    <glyph glyph-name="S" unicode="S" horiz-adv-x="1343" 
d="M668 1552q230 0 374.5 -113.5t153.5 -312.5l-190 -12q-7 128 -97.5 201.5t-236.5 73.5q-159 0 -245.5 -74t-86.5 -191q0 -34 6 -62t20.5 -50.5t30.5 -40t44 -33t52.5 -26t65 -22t72 -19.5t82.5 -19q109 -26 183 -49.5t144.5 -58.5t111 -77.5t65 -104t24.5 -140.5
q0 -112 -42.5 -198t-118 -138.5t-172.5 -79t-212 -26.5q-162 0 -290 51t-206 153t-85 242l188 10q10 -133 120.5 -213t272.5 -80q161 0 258 66t97 199q0 34 -6.5 62t-22 51t-32 40.5t-48 34t-57 27.5t-71 24.5t-78.5 22t-91 22.5q-69 17 -114.5 29.5t-102.5 33t-93.5 41.5
t-75 53t-60 69t-35.5 88t-14 112q0 89 32.5 166.5t95 137.5t163 95t227.5 35z" />
    <glyph glyph-name="T" unicode="T" horiz-adv-x="1396" 
d="M1362 1366h-569v-1366h-189v1366h-569v166h1327v-166z" />
    <glyph glyph-name="U" unicode="U" horiz-adv-x="1564" 
d="M1393 1532v-957q0 -284 -164 -439.5t-447 -155.5q-284 0 -447 155t-163 440v957h186v-954q0 -211 111.5 -321t312.5 -110q199 0 311.5 110.5t112.5 320.5v954h187z" />
    <glyph glyph-name="V" unicode="V" horiz-adv-x="1525" 
d="M842 0h-158l-643 1532h205l518 -1241l516 1241h205z" />
    <glyph glyph-name="W" unicode="W" horiz-adv-x="2289" 
d="M1714 0h-158l-411 1188l-410 -1188h-157l-537 1532h203l415 -1202l410 1202h154l411 -1202l414 1202h201z" />
    <glyph glyph-name="X" unicode="X" horiz-adv-x="1415" 
d="M846 778l518 -778h-217l-438 653l-441 -653h-217l520 778l-495 754h215l418 -627l417 627h215z" />
    <glyph glyph-name="Y" unicode="Y" horiz-adv-x="1417" 
d="M803 637v-637h-187v637l-581 895h217l459 -711l454 711h217z" />
    <glyph glyph-name="Z" unicode="Z" horiz-adv-x="1265" 
d="M1178 1391l-865 -1225h881v-166h-1120v141l862 1225h-834v166h1076v-141z" />
    <glyph glyph-name="bracketleft" unicode="[" horiz-adv-x="540" 
d="M498 1323h-203v-1333h203v-148h-379v1628h379v-147z" />
    <glyph glyph-name="backslash" unicode="\" horiz-adv-x="749" 
d="M727 -137h-184l-523 1669h185z" />
    <glyph glyph-name="bracketright" unicode="]" horiz-adv-x="540" 
d="M424 -158h-377v148h201v1333h-201v147h377v-1628z" />
    <glyph glyph-name="asciicircum" unicode="^" horiz-adv-x="1136" 
d="M1073 766h-199l-305 516l-307 -516h-201l508 795z" />
    <glyph glyph-name="underscore" unicode="_" horiz-adv-x="1402" 
d="M1311 -166h-1219v166h1219v-166z" />
    <glyph glyph-name="grave" unicode="`" horiz-adv-x="483" 
d="M449 1219h-140l-272 391h203z" />
    <glyph glyph-name="a" unicode="a" horiz-adv-x="1110" 
d="M541 1063q193 0 296 -106t103 -300v-657h-178v123q-121 -143 -311 -143q-155 0 -248.5 78t-93.5 218q0 291 383 312l270 16v49q0 122 -54.5 188t-164.5 66t-169 -63.5t-59 -153.5l-178 8q0 68 28 133t78 117t128 83.5t170 31.5zM764 463l-250 -17q-227 -13 -227 -165
q0 -150 190 -150q128 0 207.5 70.5t79.5 218.5v43z" />
    <glyph glyph-name="b" unicode="b" horiz-adv-x="1329" 
d="M354 1591v-704q46 79 141 127.5t222 48.5q220 0 362 -147.5t142 -395.5q0 -247 -142 -393.5t-362 -146.5q-130 0 -227.5 52.5t-143.5 137.5v-170h-168v1591h176zM690 909q-148 0 -241 -92.5t-93 -263.5v-61q0 -173 93 -266t241 -93q154 0 252 102.5t98 286.5
q0 182 -98 284.5t-252 102.5z" />
    <glyph glyph-name="c" unicode="c" horiz-adv-x="1183" 
d="M623 1063q187 0 316.5 -105.5t152.5 -285.5l-172 -15q-13 117 -95 185.5t-202 68.5q-150 0 -242 -103.5t-92 -285.5t93.5 -285.5t240.5 -103.5q122 0 201 63.5t98 174.5l172 -17q-29 -173 -155.5 -273.5t-315.5 -100.5q-110 0 -204 37t-163 105t-108 171t-39 229
q0 252 143.5 396.5t370.5 144.5z" />
    <glyph glyph-name="d" unicode="d" horiz-adv-x="1329" 
d="M1149 0h-166v170q-46 -85 -144 -137.5t-227 -52.5q-220 0 -361.5 146.5t-141.5 393.5q0 124 38.5 227t105.5 172t159.5 106.5t199.5 37.5q126 0 221 -49t140 -127v704h176v-1591zM637 909q-154 0 -252 -102.5t-98 -284.5q0 -184 98 -286.5t252 -102.5q150 0 243 93
t93 266v61q0 171 -93 263.5t-243 92.5z" />
    <glyph glyph-name="e" unicode="e" 
d="M1102 455h-807q7 -149 97.5 -235.5t230.5 -86.5q115 0 190.5 48.5t101.5 137.5l177 -10q-33 -144 -160 -236.5t-305 -92.5q-229 0 -373.5 146t-144.5 396t143.5 395.5t370.5 145.5q222 0 350.5 -139t128.5 -373v-96zM621 909q-139 0 -228 -81t-98 -230h631
q-3 141 -81.5 226t-223.5 85z" />
    <glyph glyph-name="f" unicode="f" horiz-adv-x="702" 
d="M598 1599q32 0 78 -4v-153q-32 4 -60 4q-97 0 -155 -59.5t-58 -163.5v-179h269v-153h-269v-891h-176v891h-202v153h202v175q0 178 100.5 279t270.5 101z" />
    <glyph glyph-name="g" unicode="g" horiz-adv-x="1318" 
d="M612 1063q129 0 227 -53t144 -138v172h166v-1103q0 -222 -137 -352t-363 -130q-213 0 -343.5 101t-162.5 270l176 6q18 -104 108 -165.5t216 -61.5q150 0 240 83.5t90 235.5v228q-45 -78 -140 -127t-221 -49q-220 0 -361.5 147t-141.5 395q0 247 141.5 394t361.5 147z
M637 909q-154 0 -252 -102.5t-98 -286.5q0 -182 98 -284.5t252 -102.5q150 0 243 92.5t93 263.5v62q0 173 -93 265.5t-243 92.5z" />
    <glyph glyph-name="h" unicode="h" horiz-adv-x="1234" 
d="M354 1591v-690q39 68 122 115t196 47q179 0 292 -117t113 -311v-635h-178v612q0 130 -72.5 208.5t-191.5 78.5q-122 0 -201.5 -84t-79.5 -205v-610h-176v1591h176z" />
    <glyph glyph-name="i" unicode="i" horiz-adv-x="534" 
d="M268 1538q48 0 82.5 -34t34.5 -83q0 -47 -34.5 -80.5t-82.5 -33.5q-49 0 -82.5 33t-33.5 81q0 49 34 83t82 34zM354 0h-176v1044h176v-1044z" />
    <glyph glyph-name="j" unicode="j" horiz-adv-x="534" 
d="M268 1538q48 0 82.5 -34t34.5 -83q0 -47 -34.5 -80.5t-82.5 -33.5q-49 0 -82.5 33t-33.5 81q0 50 33.5 83.5t82.5 33.5zM356 1044v-1198q0 -180 -94.5 -279t-259.5 -99q-42 0 -82 6v153q27 -6 62 -6q92 0 145 57.5t53 163.5v1202h176z" />
    <glyph glyph-name="k" unicode="k" horiz-adv-x="1099" 
d="M354 586l459 458h219l-440 -454l489 -590h-225l-389 461l-113 -111v-350h-176v1591h176v-1005z" />
    <glyph glyph-name="l" unicode="l" horiz-adv-x="534" 
d="M354 0h-176v1591h176v-1591z" />
    <glyph glyph-name="m" unicode="m" horiz-adv-x="1914" 
d="M1356 1063q173 0 281 -118t108 -308v-637h-176v612q0 131 -68 209t-186 78q-111 0 -181 -71t-81 -181v-12v-635h-179v612q0 130 -68 208.5t-179 78.5q-122 0 -197.5 -83.5t-75.5 -205.5v-610h-176v1044h168v-157q40 78 121 127t197 49q115 0 205 -54.5t137 -152.5
q48 95 138 151t212 56z" />
    <glyph glyph-name="n" unicode="n" horiz-adv-x="1247" 
d="M672 1063q179 0 292 -117t113 -311v-635h-178v612q0 130 -72.5 208.5t-191.5 78.5q-122 0 -201.5 -84t-79.5 -205v-610h-176v1044h168v-155q41 76 125 125t201 49z" />
    <glyph glyph-name="o" unicode="o" horiz-adv-x="1292" 
d="M645 1063q232 0 384.5 -148.5t152.5 -392.5t-152.5 -393t-384.5 -149q-152 0 -273 65.5t-192 190t-71 286.5q0 244 152 392.5t384 148.5zM645 909q-156 0 -257 -104t-101 -283t101 -284t257 -105t257.5 105t101.5 284t-101 283t-258 104z" />
    <glyph glyph-name="p" unicode="p" horiz-adv-x="1329" 
d="M717 1063q220 0 362 -147t142 -394q0 -248 -142 -395t-362 -147q-127 0 -222 48.5t-141 127.5v-678h-176v1566h168v-172q46 85 143.5 138t227.5 53zM690 909q-148 0 -241 -92.5t-93 -265.5v-62q0 -171 93 -263.5t241 -92.5q154 0 252 102.5t98 284.5q0 184 -98 286.5
t-252 102.5z" />
    <glyph glyph-name="q" unicode="q" horiz-adv-x="1329" 
d="M612 1063q129 0 227 -53t144 -138v172h166v-1566h-176v678q-45 -78 -140 -127t-221 -49q-220 0 -361.5 147t-141.5 395q0 247 141.5 394t361.5 147zM637 909q-154 0 -252 -102.5t-98 -286.5q0 -182 98 -284.5t252 -102.5q150 0 243 92.5t93 263.5v62q0 173 -93 265.5
t-243 92.5z" />
    <glyph glyph-name="r" unicode="r" horiz-adv-x="696" 
d="M657 1057v-170q-137 0 -220 -82t-83 -205v-600h-176v1044h172v-157q31 72 109 121t198 49z" />
    <glyph glyph-name="s" unicode="s" horiz-adv-x="1021" 
d="M500 1061q168 1 266.5 -85t116.5 -228l-176 -11q-9 81 -63 127t-150 45q-97 1 -148 -39.5t-51 -111.5q0 -18 3 -33t11.5 -27t16 -21t24 -17.5t27.5 -13.5t35.5 -11.5t38.5 -9.5t44.5 -10t47.5 -11q72 -17 123 -33.5t99 -41.5t77 -55t46 -73t17 -98q0 -154 -105.5 -238.5
t-289.5 -84.5q-177 0 -285.5 83t-128.5 234l176 12q12 -86 74.5 -131t167.5 -45q97 0 156 40t59 116q0 40 -12.5 65.5t-47.5 45.5t-76.5 33t-121.5 32q-54 12 -84.5 20t-73.5 22t-67 27.5t-52.5 35.5t-42.5 47t-24 60.5t-10 78.5q0 139 101 222.5t282 82.5z" />
    <glyph glyph-name="t" unicode="t" horiz-adv-x="731" 
d="M580 145q33 0 102 11v-158q-70 -12 -141 -12q-150 0 -236.5 81t-85.5 246l2 578h-194v153h194l2 361h178l-2 -361h281v-153h-281l-4 -543q0 -107 50.5 -155t134.5 -48z" />
    <glyph glyph-name="u" unicode="u" 
d="M1032 0h-168v156q-34 -73 -113.5 -124.5t-199.5 -51.5q-174 0 -277.5 115t-103.5 304v645h176v-620q0 -129 64.5 -204t181.5 -75q120 0 192 84t72 205v610h176v-1044z" />
    <glyph glyph-name="v" unicode="v" horiz-adv-x="1085" 
d="M614 0h-141l-453 1044h195l330 -778l323 778h197z" />
    <glyph glyph-name="w" unicode="w" horiz-adv-x="1679" 
d="M1262 0h-142l-280 748l-281 -748h-141l-398 1044h193l281 -757l282 757h125l285 -757l282 757h191z" />
    <glyph glyph-name="x" unicode="x" horiz-adv-x="1054" 
d="M655 535l367 -535h-211l-283 414l-286 -414h-207l358 539l-342 505h209l268 -391l263 391h210z" />
    <glyph glyph-name="y" unicode="y" horiz-adv-x="1085" 
d="M395 -522h-194l248 579l-416 987h196l316 -788l313 788h197z" />
    <glyph glyph-name="z" unicode="z" horiz-adv-x="917" 
d="M829 926l-555 -783h580v-143h-786v117l557 782h-545v145h749v-118z" />
    <glyph glyph-name="braceleft" unicode="{" horiz-adv-x="514" 
d="M467 1321h-12q-103 0 -135.5 -79t-0.5 -251q10 -55 15 -96t3.5 -84.5t-12.5 -73t-36.5 -51.5t-65.5 -29q40 -8 65.5 -31t36.5 -52t12.5 -73t-3.5 -84t-15 -95q-32 -173 0.5 -252.5t135.5 -79.5h12v-148h-12q-186 0 -272 120.5t-38 344.5q14 58 20.5 94.5t7 75t-11 59
t-37 33.5t-67.5 13h-16v147h16q35 0 59 8t36.5 26.5t17.5 39.5t2 56t-9 67t-18 80q-48 223 38 343.5t272 120.5h12v-149z" />
    <glyph glyph-name="bar" unicode="|" horiz-adv-x="520" 
d="M346 -137h-176v1669h176v-1669z" />
    <glyph glyph-name="braceright" unicode="}" horiz-adv-x="514" 
d="M47 1470h12q187 0 272.5 -120.5t37.5 -343.5q-11 -49 -17 -80t-9.5 -66.5t2 -56.5t17.5 -39.5t36 -26.5t59 -8h16v-147h-16q-35 0 -59 -8t-36 -26.5t-17.5 -38.5t-2 -55.5t9.5 -66t17 -80.5q48 -224 -37.5 -344.5t-272.5 -120.5h-12v148h12q103 0 135.5 79.5t0.5 252.5
q-10 55 -15 95t-3.5 84t12.5 73t36.5 52t65.5 31q-40 7 -65.5 29t-36.5 51.5t-12.5 73t3.5 84.5t15 96q32 172 -0.5 251t-135.5 79h-12v149z" />
    <glyph glyph-name="asciitilde" unicode="~" horiz-adv-x="1097" 
d="M973 901l82 -117q-68 -86 -140 -129t-170 -43q-62 0 -117.5 20t-90.5 43.5t-83 43.5t-96 20q-75 0 -126 -27.5t-107 -93.5l-82 119q68 85 136 126.5t163 41.5q44 0 84.5 -13.5t73 -32t65 -37.5t75 -32.5t89.5 -13.5q80 0 134.5 29.5t109.5 95.5z" />
    <glyph glyph-name="exclamdown" unicode="&#xa1;" horiz-adv-x="571" 
d="M289 801q-51 0 -87 36t-36 87q0 50 36 85t87 35q49 0 84 -35t35 -85q0 -51 -35 -87t-84 -36zM195 608h186l10 -1116h-207z" />
    <glyph glyph-name="cent" unicode="&#xa2;" horiz-adv-x="1183" 
d="M922 371l172 -17q-26 -156 -133 -253.5t-269 -116.5v-226h-149v228q-194 25 -314 167t-120 369q0 228 119.5 370t314.5 167v225h149v-225q161 -19 270 -121.5t130 -265.5l-172 -15q-13 117 -95 185.5t-202 68.5q-150 0 -242 -103.5t-92 -285.5t93.5 -285.5t240.5 -103.5
q122 0 201 63.5t98 174.5z" />
    <glyph glyph-name="sterling" unicode="&#xa3;" horiz-adv-x="1120" 
d="M1063 166v-166h-991v154q121 48 171.5 143.5t37.5 259.5l-9 115h-215v147h203l-16 219q-22 244 78.5 379t320.5 135q191 0 292.5 -101.5t104.5 -274.5l-186 -11q0 100 -54.5 160.5t-160.5 60.5q-243 0 -221 -315l20 -252h353v-147h-342l10 -117q11 -136 -32 -227
t-126 -162h762z" />
    <glyph glyph-name="currency" unicode="&#xa4;" horiz-adv-x="1204" 
d="M969 516q0 -134 -58 -233l242 -242l-113 -111l-239 238q-83 -53 -199 -53q-111 0 -196 57l-242 -242l-113 111l244 244q-59 97 -59 231q0 135 61 234l-246 245l113 111l242 -242q91 56 196 56q106 0 197 -56l241 242l113 -111l-246 -245q62 -100 62 -234zM379 516
q0 -127 62.5 -200.5t160.5 -73.5q97 0 159 74.5t62 199.5q0 128 -62 202.5t-159 74.5q-98 0 -160.5 -74.5t-62.5 -202.5z" />
    <glyph glyph-name="yen" unicode="&#xa5;" horiz-adv-x="1417" 
d="M854 715h238v-113h-289v-186h289v-113h-289v-303h-187v303h-288v113h288v186h-288v113h237l-530 817h217l459 -711l454 711h217z" />
    <glyph glyph-name="brokenbar" unicode="&#xa6;" horiz-adv-x="520" 
d="M346 879h-176v653h176v-653zM346 -137h-176v653h176v-653z" />
    <glyph glyph-name="section" unicode="&#xa7;" horiz-adv-x="1056" 
d="M815 514q137 -73 137 -242q0 -153 -115 -241t-305 -88q-198 0 -317 86t-119 239l176 8q1 -92 71 -142t189 -50q111 0 177.5 45.5t66.5 134.5q0 36 -13 63.5t-33.5 46t-59.5 34t-75.5 25t-96.5 22.5q-93 20 -157.5 43t-119.5 59t-82.5 89.5t-27.5 125.5q0 83 33.5 138.5
t99.5 99.5q-117 72 -117 225q0 147 106.5 232t280.5 85q184 0 293.5 -81.5t110.5 -225.5l-177 -6q-1 83 -61.5 127.5t-163.5 44.5q-96 0 -154.5 -43t-58.5 -129q0 -34 12 -59.5t30 -42t53.5 -30.5t67.5 -22t87 -20q96 -21 161.5 -44.5t119.5 -59.5t80 -89t26 -124
q0 -84 -30.5 -136.5t-94.5 -97.5zM272 780q0 -26 7.5 -47.5t18.5 -37t33.5 -29.5t42.5 -23t55 -19t62 -16l72 -16q25 -5 107 -25q55 35 80.5 73t25.5 99q0 31 -8 54.5t-28 42t-40.5 31t-59 24t-69 19t-84.5 18.5q-63 13 -106 26q-55 -38 -82 -76.5t-27 -97.5z" />
    <glyph glyph-name="dieresis" unicode="&#xa8;" horiz-adv-x="602" 
d="M147 1499q44 0 75.5 -30.5t31.5 -73.5q0 -45 -31 -75t-76 -30t-75.5 30t-30.5 75q0 43 31 73.5t75 30.5zM455 1499q44 0 74 -30.5t30 -73.5q0 -45 -29.5 -75t-74.5 -30t-77 30t-32 75q0 43 32.5 73.5t76.5 30.5z" />
    <glyph glyph-name="copyright" unicode="&#xa9;" horiz-adv-x="1193" 
d="M598 1554q148 0 270.5 -68t192 -187t69.5 -263q0 -143 -69.5 -261.5t-192 -186.5t-270.5 -68q-151 0 -274.5 68t-193 186t-69.5 262q0 220 153.5 369t383.5 149zM596 1489q-198 0 -329.5 -129.5t-131.5 -323.5q0 -193 131.5 -321.5t329.5 -128.5t329.5 128.5t131.5 321.5
q0 194 -131.5 323.5t-329.5 129.5zM598 1358q112 0 192 -63t93 -169l-103 -6q-10 70 -60.5 109t-121.5 39q-90 0 -145.5 -61.5t-55.5 -168.5t57.5 -168t145.5 -61q70 0 119 36.5t61 100.5l105 -6q-19 -102 -96.5 -162.5t-188.5 -60.5q-132 0 -218.5 87.5t-86.5 233.5
q0 147 86 233.5t217 86.5z" />
    <glyph glyph-name="ordfeminine" unicode="&#xaa;" horiz-adv-x="903" 
d="M446 1548q162 0 244 -83t82 -244v-525h-149v107q-35 -54 -106 -88.5t-159 -34.5q-126 0 -200 60.5t-74 174.5q0 84 46 140t118.5 82t171.5 32l192 13v49q0 87 -42.5 133.5t-123.5 46.5q-87 0 -134.5 -49t-47.5 -117l-155 6q0 118 92 207.5t245 89.5zM614 1069l-182 -12
q-186 -13 -186 -133q0 -119 143 -119q58 -1 107 20t83.5 74.5t34.5 132.5v37z" />
    <glyph glyph-name="guillemotleft" unicode="&#xab;" horiz-adv-x="1087" 
d="M537 881l-306 -361l306 -360l-140 -90l-366 450l366 449zM1044 881l-305 -361l305 -360l-139 -90l-366 450l366 449z" />
    <glyph glyph-name="logicalnot" unicode="&#xac;" horiz-adv-x="1138" 
d="M1047 338h-140v371h-829v139h969v-510z" />
    <glyph glyph-name="registered" unicode="&#xae;" horiz-adv-x="1193" 
d="M598 1554q148 0 270.5 -68t192 -187t69.5 -263q0 -143 -69.5 -261.5t-192 -186.5t-270.5 -68q-151 0 -274.5 68t-193 186t-69.5 262q0 220 153.5 369t383.5 149zM596 586q198 0 329.5 128.5t131.5 321.5q0 194 -131.5 323.5t-329.5 129.5t-329.5 -129.5t-131.5 -323.5
q0 -193 131.5 -321.5t329.5 -128.5zM825 1159q0 -128 -102 -176l135 -260h-110l-127 244h-142v-244h-100v627h254q86 0 139 -50t53 -141zM479 1051h127q52 0 84.5 26t32.5 82q0 55 -32.5 81t-84.5 26h-127v-215z" />
    <glyph glyph-name="macron" unicode="&#xaf;" horiz-adv-x="602" 
d="M571 1300h-540v138h540v-138z" />
    <glyph glyph-name="degree" unicode="&#xb0;" horiz-adv-x="710" 
d="M354 1550q133 0 214 -76t81 -210v-45q0 -133 -81 -209t-214 -76q-131 0 -212 76t-81 209v45q0 134 80 210t213 76zM354 1440q-78 0 -124 -48.5t-46 -134.5v-32q0 -85 46 -133t124 -48t125 48t47 133v32q0 85 -47 134t-125 49z" />
    <glyph glyph-name="plusminus" unicode="&#xb1;" horiz-adv-x="1118" 
d="M645 1042h406v-161h-406v-414h-172v414h-405v161h405v406h172v-406zM1051 172h-983v166h983v-166z" />
    <glyph glyph-name="acute" unicode="&#xb4;" horiz-adv-x="483" 
d="M176 1219h-141l211 391h200z" />
    <glyph glyph-name="paragraph" unicode="&#xb6;" horiz-adv-x="1363" 
d="M1323 1399h-141v-1536h-140v1536h-266v-1536h-137v913h-127q-191 0 -306.5 97.5t-115.5 281.5q0 181 116 279t306 98h811v-133z" />
    <glyph glyph-name="periodcentered" unicode="&#xb7;" horiz-adv-x="444" 
d="M211 727q51 0 87 -36t36 -87q0 -50 -36 -85.5t-87 -35.5q-49 0 -84 35.5t-35 85.5q0 51 35 87t84 36z" />
    <glyph glyph-name="cedilla" unicode="&#xb8;" horiz-adv-x="561" 
d="M307 16l-26 -116q103 -8 165 -57t62 -138q0 -99 -75.5 -153t-182.5 -54q-115 0 -199 43l33 109q64 -41 149 -41q59 0 100.5 24.5t41.5 73.5q0 103 -160 103q-19 0 -59 -9l57 215h94z" />
    <glyph glyph-name="ordmasculine" unicode="&#xba;" horiz-adv-x="1036" 
d="M516 1548q189 0 311.5 -119.5t122.5 -316.5q0 -196 -122.5 -314t-311.5 -118q-188 0 -310 118t-122 314t122 316t310 120zM518 1411q-120 0 -196 -80.5t-76 -218.5q0 -137 76 -216t196 -79t197.5 79.5t77.5 215.5q0 138 -77.5 218.5t-197.5 80.5z" />
    <glyph glyph-name="guillemotright" unicode="&#xbb;" horiz-adv-x="1087" 
d="M549 520l-369 -450l-139 90l307 360l-307 361l139 88zM1055 520l-367 -450l-139 90l305 360l-305 361l139 88z" />
    <glyph glyph-name="onequarter" unicode="&#xbc;" horiz-adv-x="1413" 
d="M231 0h-182l1079 1532h183zM358 659h-139v658l-141 -109l-62 109l254 184h88v-842zM1247 309h127v-125h-127v-184h-139v184h-365v109l373 549h131v-533zM866 309h244v342z" />
    <glyph glyph-name="onehalf" unicode="&#xbd;" horiz-adv-x="1490" 
d="M231 0h-182l1079 1532h183zM358 659h-139v658l-141 -109l-62 109l254 184h88v-842zM1169 854q126 0 192 -70.5t66 -185.5q0 -89 -37.5 -159.5t-113.5 -151.5l-158 -164h318v-123h-525v94l265 277q58 62 85 113t27 116q0 60 -30.5 95.5t-86.5 35.5q-60 0 -94.5 -38
t-34.5 -105l-135 8q1 121 71.5 189.5t190.5 68.5z" />
    <glyph glyph-name="threequarters" unicode="&#xbe;" horiz-adv-x="1599" 
d="M416 0h-183l1080 1532h182zM326 1511q119 0 186.5 -63t67.5 -172q0 -67 -32.5 -113t-80.5 -69q55 -16 92 -68t37 -127q0 -117 -73.5 -185.5t-194.5 -68.5q-127 0 -197.5 67.5t-75.5 184.5l138 10q6 -66 40 -101.5t95 -35.5q60 0 95.5 35t35.5 98q0 62 -39 94.5t-103 32.5
h-84v119h82q55 0 92 33t37 88q0 56 -32.5 87.5t-85.5 31.5q-55 0 -87.5 -33.5t-35.5 -95.5l-135 8q3 115 70 179t188 64zM1432 309h127v-125h-127v-184h-140v184h-364v109l372 549h132v-533zM1051 309h243v342z" />
    <glyph glyph-name="questiondown" unicode="&#xbf;" horiz-adv-x="1026" 
d="M524 821q-51 0 -87 35.5t-36 87.5q0 49 36 84t87 35q50 0 84.5 -34.5t34.5 -84.5q0 -52 -34.5 -87.5t-84.5 -35.5zM512 -510q-219 0 -345 122t-126 318q0 65 15 118t47 96.5t66.5 76t88.5 72.5q93 70 130.5 130t37.5 148v58h188v-66q0 -101 -46 -177t-150 -159
q-96 -71 -141.5 -135t-45.5 -158q0 -123 74.5 -200.5t206.5 -77.5q130 0 204.5 69t88.5 193l186 -10q-14 -193 -141.5 -305.5t-337.5 -112.5z" />
    <glyph glyph-name="Agrave" unicode="&#xc0;" horiz-adv-x="1505" 
d="M831 1628h-167l-383 289h247zM1473 0h-205l-160 389h-711l-161 -389h-205l641 1532h159zM467 553h571l-284 690z" />
    <glyph glyph-name="Aacute" unicode="&#xc1;" horiz-adv-x="1505" 
d="M836 1628h-168l305 289h246zM1473 0h-205l-160 389h-711l-161 -389h-205l641 1532h159zM467 553h571l-284 690z" />
    <glyph glyph-name="Acircumflex" unicode="&#xc2;" horiz-adv-x="1505" 
d="M1081 1628h-153l-174 184l-176 -184h-152l244 293h168zM1473 0h-205l-160 389h-711l-161 -389h-205l641 1532h159zM467 553h571l-284 690z" />
    <glyph glyph-name="Atilde" unicode="&#xc3;" horiz-adv-x="1505" 
d="M604 1917q43 0 83.5 -20t67 -43.5t61.5 -43.5t67 -20q49 0 74.5 31.5t27.5 81.5h100q6 -102 -45 -174t-139 -72q-43 0 -83.5 19.5t-66.5 43t-61 43t-67 19.5q-48 0 -73.5 -30.5t-27.5 -80.5h-102q-6 102 45 174t139 72zM1473 0h-205l-160 389h-711l-161 -389h-205
l641 1532h159zM467 553h571l-284 690z" />
    <glyph glyph-name="Adieresis" unicode="&#xc4;" horiz-adv-x="1505" 
d="M602 1884q44 0 75.5 -30.5t31.5 -73.5q0 -45 -31 -76t-76 -31q-44 0 -75 30.5t-31 76.5q0 43 31 73.5t75 30.5zM909 1884q44 0 74.5 -30.5t30.5 -73.5q0 -46 -30.5 -76.5t-74.5 -30.5q-45 0 -76.5 31t-31.5 76q0 43 32 73.5t76 30.5zM1473 0h-205l-160 389h-711
l-161 -389h-205l641 1532h159zM467 553h571l-284 690z" />
    <glyph glyph-name="Aring" unicode="&#xc5;" horiz-adv-x="1505" 
d="M754 2025q89 0 150 -56.5t61 -143.5t-61 -144t-150 -57q-90 0 -150.5 57t-60.5 144t60.5 143.5t150.5 56.5zM754 1929q-48 0 -78.5 -28.5t-30.5 -75.5q0 -46 31 -75.5t78 -29.5q46 0 76 29.5t30 75.5q0 47 -30 75.5t-76 28.5zM1473 0h-205l-160 389h-711l-161 -389h-205
l641 1532h159zM467 553h571l-284 690z" />
    <glyph glyph-name="AE" unicode="&#xc6;" horiz-adv-x="2086" 
d="M1249 1366v-494h670v-161h-670v-545h760v-166h-948v389h-557l-258 -389h-228l1022 1532h969v-166h-760zM1061 553v680l-449 -680h449z" />
    <glyph glyph-name="Ccedilla" unicode="&#xc7;" horiz-adv-x="1654" 
d="M1372 543l195 -17q-41 -243 -220 -389t-438 -157l-20 -91q103 -8 165 -56.5t62 -137.5q0 -99 -75.5 -153t-182.5 -54q-115 0 -199 43l33 109q64 -41 150 -41q58 0 99.5 24.5t41.5 73.5q0 102 -160 102q-23 0 -59 -8l51 191q-151 9 -279 66.5t-222 156t-146.5 242.5
t-52.5 319q0 183 56.5 332t157 248t238 152.5t299.5 53.5q180 0 330 -67.5t248 -197.5t121 -302l-195 -18q-29 196 -168 306.5t-342 110.5q-249 0 -402 -165.5t-153 -452.5q0 -147 43 -265.5t118.5 -195t177 -117.5t220.5 -41q200 0 336.5 104t171.5 292z" />
    <glyph glyph-name="Egrave" unicode="&#xc8;" horiz-adv-x="1214" 
d="M743 1628h-168l-382 289h247zM1133 1366h-760v-494h669v-161h-669v-545h760v-166h-949v1532h949v-166z" />
    <glyph glyph-name="Eacute" unicode="&#xc9;" horiz-adv-x="1214" 
d="M748 1628h-168l305 289h245zM1133 1366h-760v-494h669v-161h-669v-545h760v-166h-949v1532h949v-166z" />
    <glyph glyph-name="Ecircumflex" unicode="&#xca;" horiz-adv-x="1214" 
d="M995 1628h-153l-174 184l-176 -184h-152l244 293h168zM1133 1366h-760v-494h669v-161h-669v-545h760v-166h-949v1532h949v-166z" />
    <glyph glyph-name="Edieresis" unicode="&#xcb;" horiz-adv-x="1214" 
d="M516 1884q44 0 75.5 -30.5t31.5 -73.5q0 -45 -31 -76t-76 -31q-44 0 -75 30.5t-31 76.5q0 43 31 73.5t75 30.5zM823 1884q44 0 74.5 -30.5t30.5 -73.5q0 -46 -30.5 -76.5t-74.5 -30.5q-45 0 -76.5 31t-31.5 76q0 43 32 73.5t76 30.5zM1133 1366h-760v-494h669v-161h-669
v-545h760v-166h-949v1532h949v-166z" />
    <glyph glyph-name="Igrave" unicode="&#xcc;" horiz-adv-x="555" 
d="M360 1628h-167l-383 289h247zM373 0h-189v1532h189v-1532z" />
    <glyph glyph-name="Iacute" unicode="&#xcd;" horiz-adv-x="555" 
d="M367 1628h-168l305 289h246zM373 0h-189v1532h189v-1532z" />
    <glyph glyph-name="Icircumflex" unicode="&#xce;" horiz-adv-x="555" 
d="M612 1628h-153l-174 184l-176 -184h-152l244 293h168zM373 0h-189v1532h189v-1532z" />
    <glyph glyph-name="Idieresis" unicode="&#xcf;" horiz-adv-x="555" 
d="M133 1884q44 0 75.5 -30.5t31.5 -73.5q0 -45 -31 -76t-76 -31t-75.5 30.5t-30.5 76.5q0 43 31 73.5t75 30.5zM440 1884q44 0 74.5 -30.5t30.5 -73.5q0 -46 -30.5 -76.5t-74.5 -30.5q-45 0 -76.5 31t-31.5 76q0 43 32 73.5t76 30.5zM373 0h-189v1532h189v-1532z" />
    <glyph glyph-name="Eth" unicode="&#xd0;" horiz-adv-x="1626" 
d="M225 1532h598q158 0 293 -52t234 -148.5t155 -242t56 -323.5t-57 -323.5t-156.5 -242t-235 -148.5t-293.5 -52h-594v692h-219v146h219v694zM412 160h409q247 0 400 159t153 447q0 289 -150.5 447.5t-398.5 158.5h-413v-534h307v-146h-307v-532z" />
    <glyph glyph-name="Ntilde" unicode="&#xd1;" horiz-adv-x="1536" 
d="M612 1917q43 0 83.5 -20t67 -43.5t61.5 -43.5t67 -20q49 0 74.5 31.5t27.5 81.5h101q6 -101 -45.5 -173.5t-139.5 -72.5q-43 0 -83.5 19.5t-66.5 43t-61 43t-67 19.5q-48 0 -73.5 -30.5t-27.5 -80.5h-102q-6 102 45 174t139 72zM1352 0h-160l-819 1184v-1184h-189v1532
h158l823 -1186v1186h187v-1532z" />
    <glyph glyph-name="Ograve" unicode="&#xd2;" horiz-adv-x="1773" 
d="M944 1628h-168l-383 289h248zM887 1552q162 0 303 -55t244.5 -155t163 -248.5t59.5 -327.5t-59.5 -327.5t-163 -248.5t-244.5 -155t-303 -55q-163 0 -304.5 55t-245 155t-163 248.5t-59.5 327.5t59.5 327.5t163 248.5t245 155t304.5 55zM887 1384q-123 0 -229.5 -42
t-184.5 -119.5t-123 -195.5t-45 -261t45 -260.5t123 -195.5t184.5 -120.5t229.5 -42.5t229 42.5t183.5 120.5t122 195.5t44.5 260.5t-44.5 260.5t-122 195.5t-183.5 120t-229 42z" />
    <glyph glyph-name="Oacute" unicode="&#xd3;" horiz-adv-x="1773" 
d="M948 1628h-168l305 289h246zM887 1552q162 0 303 -55t244.5 -155t163 -248.5t59.5 -327.5t-59.5 -327.5t-163 -248.5t-244.5 -155t-303 -55q-163 0 -304.5 55t-245 155t-163 248.5t-59.5 327.5t59.5 327.5t163 248.5t245 155t304.5 55zM887 1384q-123 0 -229.5 -42
t-184.5 -119.5t-123 -195.5t-45 -261t45 -260.5t123 -195.5t184.5 -120.5t229.5 -42.5t229 42.5t183.5 120.5t122 195.5t44.5 260.5t-44.5 260.5t-122 195.5t-183.5 120t-229 42z" />
    <glyph glyph-name="Ocircumflex" unicode="&#xd4;" horiz-adv-x="1773" 
d="M1194 1628h-154l-174 184l-176 -184h-151l243 293h168zM887 1552q162 0 303 -55t244.5 -155t163 -248.5t59.5 -327.5t-59.5 -327.5t-163 -248.5t-244.5 -155t-303 -55q-163 0 -304.5 55t-245 155t-163 248.5t-59.5 327.5t59.5 327.5t163 248.5t245 155t304.5 55z
M887 1384q-123 0 -229.5 -42t-184.5 -119.5t-123 -195.5t-45 -261t45 -260.5t123 -195.5t184.5 -120.5t229.5 -42.5t229 42.5t183.5 120.5t122 195.5t44.5 260.5t-44.5 260.5t-122 195.5t-183.5 120t-229 42z" />
    <glyph glyph-name="Otilde" unicode="&#xd5;" horiz-adv-x="1773" 
d="M717 1917q43 0 83.5 -20t66.5 -43.5t61 -43.5t67 -20q49 0 75 31.5t28 81.5h100q6 -102 -45 -174t-139 -72q-43 0 -83.5 19.5t-67 43t-61.5 43t-67 19.5q-48 0 -73 -30.5t-27 -80.5h-103q-6 101 45.5 173.5t139.5 72.5zM887 1552q162 0 303 -55t244.5 -155t163 -248.5
t59.5 -327.5t-59.5 -327.5t-163 -248.5t-244.5 -155t-303 -55q-163 0 -304.5 55t-245 155t-163 248.5t-59.5 327.5t59.5 327.5t163 248.5t245 155t304.5 55zM887 1384q-123 0 -229.5 -42t-184.5 -119.5t-123 -195.5t-45 -261t45 -260.5t123 -195.5t184.5 -120.5t229.5 -42.5
t229 42.5t183.5 120.5t122 195.5t44.5 260.5t-44.5 260.5t-122 195.5t-183.5 120t-229 42z" />
    <glyph glyph-name="Odieresis" unicode="&#xd6;" horiz-adv-x="1773" 
d="M715 1884q44 0 75 -30.5t31 -73.5q0 -46 -30.5 -76.5t-75.5 -30.5t-76 31t-31 76q0 43 31.5 73.5t75.5 30.5zM1022 1884q44 0 74 -30.5t30 -73.5q0 -46 -30 -76.5t-74 -30.5q-45 0 -77 31t-32 76q0 43 32.5 73.5t76.5 30.5zM887 1552q162 0 303 -55t244.5 -155
t163 -248.5t59.5 -327.5t-59.5 -327.5t-163 -248.5t-244.5 -155t-303 -55q-163 0 -304.5 55t-245 155t-163 248.5t-59.5 327.5t59.5 327.5t163 248.5t245 155t304.5 55zM887 1384q-123 0 -229.5 -42t-184.5 -119.5t-123 -195.5t-45 -261t45 -260.5t123 -195.5t184.5 -120.5
t229.5 -42.5t229 42.5t183.5 120.5t122 195.5t44.5 260.5t-44.5 260.5t-122 195.5t-183.5 120t-229 42z" />
    <glyph glyph-name="multiply" unicode="&#xd7;" horiz-adv-x="1073" 
d="M965 1065l-310 -307l314 -316l-117 -118l-315 315l-318 -317l-117 118l318 318l-314 313l115 119l316 -318l311 312z" />
    <glyph glyph-name="Oslash" unicode="&#xd8;" horiz-adv-x="1734" 
d="M1532 1520l-121 -156q118 -105 182 -257t64 -341q0 -179 -59.5 -327.5t-163 -248.5t-244.5 -155t-303 -55q-250 0 -441 122l-133 -174l-114 88l135 177q-219 216 -219 573q0 179 59.5 327.5t163 248.5t245 155t304.5 55q228 0 407 -104l123 160zM305 766q0 -259 141 -426
l742 969q-132 75 -301 75q-123 0 -229.5 -42t-184.5 -119.5t-123 -195.5t-45 -261zM887 147q123 0 229 42.5t183.5 120.5t122 195.5t44.5 260.5q0 287 -163 453l-748 -975q145 -97 332 -97z" />
    <glyph glyph-name="Ugrave" unicode="&#xd9;" horiz-adv-x="1564" 
d="M858 1628h-168l-383 289h248zM1393 1532v-957q0 -284 -164 -439.5t-447 -155.5q-284 0 -447 155t-163 440v957h186v-954q0 -211 111.5 -321t312.5 -110q199 0 311.5 110.5t112.5 320.5v954h187z" />
    <glyph glyph-name="Uacute" unicode="&#xda;" horiz-adv-x="1564" 
d="M862 1628h-168l305 289h246zM1393 1532v-957q0 -284 -164 -439.5t-447 -155.5q-284 0 -447 155t-163 440v957h186v-954q0 -211 111.5 -321t312.5 -110q199 0 311.5 110.5t112.5 320.5v954h187z" />
    <glyph glyph-name="Ucircumflex" unicode="&#xdb;" horiz-adv-x="1564" 
d="M1110 1628h-154l-174 184l-176 -184h-151l243 293h168zM1393 1532v-957q0 -284 -164 -439.5t-447 -155.5q-284 0 -447 155t-163 440v957h186v-954q0 -211 111.5 -321t312.5 -110q199 0 311.5 110.5t112.5 320.5v954h187z" />
    <glyph glyph-name="Udieresis" unicode="&#xdc;" horiz-adv-x="1564" 
d="M631 1884q44 0 75 -30.5t31 -73.5q0 -46 -30.5 -76.5t-75.5 -30.5t-76 31t-31 76q0 43 31.5 73.5t75.5 30.5zM938 1884q44 0 74 -30.5t30 -73.5q0 -46 -30 -76.5t-74 -30.5q-45 0 -77 31t-32 76q0 43 32.5 73.5t76.5 30.5zM1393 1532v-957q0 -284 -164 -439.5
t-447 -155.5q-284 0 -447 155t-163 440v957h186v-954q0 -211 111.5 -321t312.5 -110q199 0 311.5 110.5t112.5 320.5v954h187z" />
    <glyph glyph-name="Yacute" unicode="&#xdd;" horiz-adv-x="1417" 
d="M791 1628h-168l305 289h246zM803 637v-637h-187v637l-581 895h217l459 -711l454 711h217z" />
    <glyph glyph-name="Thorn" unicode="&#xde;" horiz-adv-x="1300" 
d="M373 1319h381q206 0 337.5 -121t131.5 -338t-132 -339t-337 -122h-381v-399h-189v1532h189v-213zM371 1151v-586h358q130 0 216.5 77t86.5 218q0 140 -86.5 215.5t-216.5 75.5h-358z" />
    <glyph glyph-name="germandbls" unicode="&#xdf;" horiz-adv-x="1298" 
d="M604 1608q194 0 308 -89.5t114 -238.5q0 -56 -19 -102.5t-46 -77.5t-54 -59.5t-46 -63t-19 -72.5q0 -35 19.5 -66t50.5 -57t69 -53.5t76 -62t69 -75t50.5 -100t19.5 -129.5q0 -179 -121 -278.5t-315 -99.5q-124 0 -207 34l35 144q87 -31 157 -31q122 0 197.5 65t75.5 181
q0 63 -26.5 116t-66 87.5t-85.5 71.5t-85.5 69t-66 79t-26.5 101q0 53 19 95t46.5 70.5t55 54t46.5 58t19 70.5q0 96 -63 151.5t-177 55.5q-117 0 -187.5 -67t-70.5 -177v-1212h-176v1219q0 174 118.5 281.5t311.5 107.5z" />
    <glyph glyph-name="agrave" unicode="&#xe0;" horiz-adv-x="1110" 
d="M633 1219h-139l-273 391h203zM541 1063q193 0 296 -106t103 -300v-657h-178v123q-121 -143 -311 -143q-155 0 -248.5 78t-93.5 218q0 291 383 312l270 16v49q0 122 -54.5 188t-164.5 66t-169 -63.5t-59 -153.5l-178 8q0 68 28 133t78 117t128 83.5t170 31.5zM764 463
l-250 -17q-227 -13 -227 -165q0 -150 190 -150q128 0 207.5 70.5t79.5 218.5v43z" />
    <glyph glyph-name="aacute" unicode="&#xe1;" horiz-adv-x="1110" 
d="M633 1219h-141l210 391h201zM541 1063q193 0 296 -106t103 -300v-657h-178v123q-121 -143 -311 -143q-155 0 -248.5 78t-93.5 218q0 291 383 312l270 16v49q0 122 -54.5 188t-164.5 66t-169 -63.5t-59 -153.5l-178 8q0 68 28 133t78 117t128 83.5t170 31.5zM764 463
l-250 -17q-227 -13 -227 -165q0 -150 190 -150q128 0 207.5 70.5t79.5 218.5v43z" />
    <glyph glyph-name="acircumflex" unicode="&#xe2;" horiz-adv-x="1110" 
d="M897 1221h-152l-178 225l-178 -225h-151l245 346h168zM541 1063q193 0 296 -106t103 -300v-657h-178v123q-121 -143 -311 -143q-155 0 -248.5 78t-93.5 218q0 291 383 312l270 16v49q0 122 -54.5 188t-164.5 66t-169 -63.5t-59 -153.5l-178 8q0 68 28 133t78 117
t128 83.5t170 31.5zM764 463l-250 -17q-227 -13 -227 -165q0 -150 190 -150q128 0 207.5 70.5t79.5 218.5v43z" />
    <glyph glyph-name="atilde" unicode="&#xe3;" horiz-adv-x="1110" 
d="M414 1507q43 0 83.5 -19.5t66.5 -43t61 -43t67 -19.5q49 0 75 30.5t28 80.5h100q6 -100 -45 -173t-139 -73q-43 0 -83.5 19.5t-67 43t-61.5 43t-67 19.5q-48 0 -73 -30t-27 -80h-103q-6 101 45.5 173t139.5 72zM541 1063q193 0 296 -106t103 -300v-657h-178v123
q-121 -143 -311 -143q-155 0 -248.5 78t-93.5 218q0 291 383 312l270 16v49q0 122 -54.5 188t-164.5 66t-169 -63.5t-59 -153.5l-178 8q0 68 28 133t78 117t128 83.5t170 31.5zM764 463l-250 -17q-227 -13 -227 -165q0 -150 190 -150q128 0 207.5 70.5t79.5 218.5v43z" />
    <glyph glyph-name="adieresis" unicode="&#xe4;" horiz-adv-x="1110" 
d="M408 1499q44 0 75 -30.5t31 -73.5q0 -45 -30.5 -75t-75.5 -30t-76 30t-31 75q0 43 31.5 73.5t75.5 30.5zM715 1499q44 0 74 -30.5t30 -73.5q0 -45 -29.5 -75t-74.5 -30t-77 30t-32 75q0 43 32.5 73.5t76.5 30.5zM541 1063q193 0 296 -106t103 -300v-657h-178v123
q-121 -143 -311 -143q-155 0 -248.5 78t-93.5 218q0 291 383 312l270 16v49q0 122 -54.5 188t-164.5 66t-169 -63.5t-59 -153.5l-178 8q0 68 28 133t78 117t128 83.5t170 31.5zM764 463l-250 -17q-227 -13 -227 -165q0 -150 190 -150q128 0 207.5 70.5t79.5 218.5v43z" />
    <glyph glyph-name="aring" unicode="&#xe5;" horiz-adv-x="1110" 
d="M567 1634q97 0 164.5 -61.5t67.5 -155.5t-67.5 -156.5t-164.5 -62.5q-99 0 -167 62.5t-68 156.5t68 155.5t167 61.5zM565 1528q-53 0 -86 -31t-33 -80q0 -51 33 -81.5t86 -30.5t86 30.5t33 81.5q0 49 -33 80t-86 31zM541 1063q193 0 296 -106t103 -300v-657h-178v123
q-121 -143 -311 -143q-155 0 -248.5 78t-93.5 218q0 291 383 312l270 16v49q0 122 -54.5 188t-164.5 66t-169 -63.5t-59 -153.5l-178 8q0 68 28 133t78 117t128 83.5t170 31.5zM764 463l-250 -17q-227 -13 -227 -165q0 -150 190 -150q128 0 207.5 70.5t79.5 218.5v43z" />
    <glyph glyph-name="ae" unicode="&#xe6;" horiz-adv-x="1865" 
d="M1759 455h-807q7 -149 97 -235.5t229 -86.5q116 0 192 49t101 137l178 -10q-34 -144 -161.5 -236.5t-305.5 -92.5q-135 0 -245 54.5t-179 155.5q-63 -99 -165.5 -154.5t-235.5 -55.5q-159 0 -253.5 80t-94.5 221q0 286 383 307l270 16v37q0 128 -54.5 199t-164.5 71
t-169 -64.5t-59 -156.5l-178 8q0 68 28 133t78 117t128 83.5t170 31.5q237 0 336 -182q141 182 401 182q223 0 352 -139.5t129 -372.5v-96zM1276 909q-137 0 -226 -81.5t-98 -229.5h629q-3 142 -81 226.5t-224 84.5zM764 463l-250 -17q-109 -6 -168 -43.5t-59 -119.5
q0 -150 190 -150q45 0 85 8.5t77.5 29.5t64.5 53t43.5 82t16.5 114v43z" />
    <glyph glyph-name="ccedilla" unicode="&#xe7;" horiz-adv-x="1183" 
d="M922 371l172 -17q-28 -164 -144 -263.5t-291 -108.5l-20 -91q103 -8 165 -56.5t62 -137.5q0 -99 -75.5 -153t-182.5 -54q-114 0 -198 43l32 109q64 -41 150 -41q58 0 99.5 24.5t41.5 73.5q0 102 -160 102q-23 0 -59 -8l51 189q-204 19 -330 162t-126 378
q0 252 143.5 396.5t370.5 144.5q187 0 316.5 -105.5t152.5 -285.5l-172 -15q-13 117 -95 185.5t-202 68.5q-150 0 -242 -103.5t-92 -285.5t93.5 -285.5t240.5 -103.5q122 0 201 63.5t98 174.5z" />
    <glyph glyph-name="egrave" unicode="&#xe8;" 
d="M545 1219l-273 391h203l209 -391h-139zM1102 455h-807q7 -149 97.5 -235.5t230.5 -86.5q115 0 190.5 48.5t101.5 137.5l177 -10q-33 -144 -160 -236.5t-305 -92.5q-229 0 -373.5 146t-144.5 396t143.5 395.5t370.5 145.5q222 0 350.5 -139t128.5 -373v-96zM621 909
q-139 0 -228 -81t-98 -230h631q-3 141 -81.5 226t-223.5 85z" />
    <glyph glyph-name="eacute" unicode="&#xe9;" 
d="M686 1219h-141l211 391h200zM1102 455h-807q7 -149 97.5 -235.5t230.5 -86.5q115 0 190.5 48.5t101.5 137.5l177 -10q-33 -144 -160 -236.5t-305 -92.5q-229 0 -373.5 146t-144.5 396t143.5 395.5t370.5 145.5q222 0 350.5 -139t128.5 -373v-96zM621 909q-139 0 -228 -81
t-98 -230h631q-3 141 -81.5 226t-223.5 85z" />
    <glyph glyph-name="ecircumflex" unicode="&#xea;" 
d="M440 1221h-151l246 346h167l246 -346h-151l-179 225zM1102 455h-807q7 -149 97.5 -235.5t230.5 -86.5q115 0 190.5 48.5t101.5 137.5l177 -10q-33 -144 -160 -236.5t-305 -92.5q-229 0 -373.5 146t-144.5 396t143.5 395.5t370.5 145.5q222 0 350.5 -139t128.5 -373v-96z
M621 909q-139 0 -228 -81t-98 -230h631q-3 141 -81.5 226t-223.5 85z" />
    <glyph glyph-name="edieresis" unicode="&#xeb;" 
d="M459 1290q-45 0 -76 30t-31 75q0 43 31.5 73.5t75.5 30.5t75 -30.5t31 -73.5q0 -45 -30.5 -75t-75.5 -30zM766 1290q-45 0 -77 30t-32 75q0 43 32.5 73.5t76.5 30.5t74 -30.5t30 -73.5q0 -45 -30 -75t-74 -30zM1102 455h-807q7 -149 97.5 -235.5t230.5 -86.5
q115 0 190.5 48.5t101.5 137.5l177 -10q-33 -144 -160 -236.5t-305 -92.5q-229 0 -373.5 146t-144.5 396t143.5 395.5t370.5 145.5q222 0 350.5 -139t128.5 -373v-96zM621 909q-139 0 -228 -81t-98 -230h631q-3 141 -81.5 226t-223.5 85z" />
    <glyph glyph-name="igrave" unicode="&#xec;" horiz-adv-x="534" 
d="M338 1219h-139l-273 391h203zM354 0h-176v1044h176v-1044z" />
    <glyph glyph-name="iacute" unicode="&#xed;" horiz-adv-x="534" 
d="M340 1219h-141l211 391h200zM354 0h-176v1044h176v-1044z" />
    <glyph glyph-name="icircumflex" unicode="&#xee;" horiz-adv-x="534" 
d="M602 1221h-151l-179 225l-178 -225h-151l245 346h168zM354 0h-176v1044h176v-1044z" />
    <glyph glyph-name="idieresis" unicode="&#xef;" horiz-adv-x="534" 
d="M113 1499q44 0 75 -30.5t31 -73.5q0 -45 -30.5 -75t-75.5 -30t-76 30t-31 75q0 43 31.5 73.5t75.5 30.5zM420 1499q44 0 74 -30.5t30 -73.5q0 -45 -30 -75t-74 -30q-45 0 -77 30t-32 75q0 43 32.5 73.5t76.5 30.5zM354 0h-176v1044h176v-1044z" />
    <glyph glyph-name="eth" unicode="&#xf0;" horiz-adv-x="1239" 
d="M999 1546l-192 -151q150 -138 226.5 -361.5t76.5 -507.5q0 -132 -38.5 -236.5t-106.5 -172t-160 -102.5t-201 -35q-102 0 -192.5 34.5t-158.5 98t-107.5 159.5t-39.5 213q0 227 143 366.5t353 139.5q164 0 295 -88q-61 257 -211 395l-194 -153l-80 82l176 139
q-138 75 -324 78v147q261 0 453 -125l201 158zM610 133q144 0 236 94.5t92 259.5q0 160 -90.5 255.5t-237.5 95.5q-145 0 -237 -96.5t-92 -256.5q0 -162 92.5 -257t236.5 -95z" />
    <glyph glyph-name="ntilde" unicode="&#xf1;" horiz-adv-x="1247" 
d="M492 1507q43 0 83.5 -19.5t66.5 -43t61 -43t67 -19.5q49 0 74.5 30.5t27.5 80.5h101q6 -100 -45.5 -173t-139.5 -73q-43 0 -83.5 19.5t-66.5 43t-61 43t-67 19.5q-48 0 -73 -30t-27 -80h-103q-6 101 45.5 173t139.5 72zM672 1063q179 0 292 -117t113 -311v-635h-178v612
q0 130 -72.5 208.5t-191.5 78.5q-122 0 -201.5 -84t-79.5 -205v-610h-176v1044h168v-155q41 76 125 125t201 49z" />
    <glyph glyph-name="ograve" unicode="&#xf2;" horiz-adv-x="1292" 
d="M711 1219h-140l-272 391h203zM645 1063q232 0 384.5 -148.5t152.5 -392.5t-152.5 -393t-384.5 -149q-152 0 -273 65.5t-192 190t-71 286.5q0 244 152 392.5t384 148.5zM645 909q-156 0 -257 -104t-101 -283t101 -284t257 -105t257.5 105t101.5 284t-101 283t-258 104z
" />
    <glyph glyph-name="oacute" unicode="&#xf3;" horiz-adv-x="1292" 
d="M711 1219h-142l211 391h201zM645 1063q232 0 384.5 -148.5t152.5 -392.5t-152.5 -393t-384.5 -149q-152 0 -273 65.5t-192 190t-71 286.5q0 244 152 392.5t384 148.5zM645 909q-156 0 -257 -104t-101 -283t101 -284t257 -105t257.5 105t101.5 284t-101 283t-258 104z" />
    <glyph glyph-name="ocircumflex" unicode="&#xf4;" horiz-adv-x="1292" 
d="M975 1221h-152l-178 225l-178 -225h-152l246 346h168zM645 1063q232 0 384.5 -148.5t152.5 -392.5t-152.5 -393t-384.5 -149q-152 0 -273 65.5t-192 190t-71 286.5q0 244 152 392.5t384 148.5zM645 909q-156 0 -257 -104t-101 -283t101 -284t257 -105t257.5 105
t101.5 284t-101 283t-258 104z" />
    <glyph glyph-name="otilde" unicode="&#xf5;" horiz-adv-x="1292" 
d="M492 1507q43 0 83.5 -19.5t66.5 -43t61 -43t67 -19.5q49 0 74.5 30.5t27.5 80.5h101q6 -100 -45.5 -173t-139.5 -73q-43 0 -83.5 19.5t-66.5 43t-61 43t-67 19.5q-48 0 -73 -30t-27 -80h-103q-6 101 45.5 173t139.5 72zM645 1063q232 0 384.5 -148.5t152.5 -392.5
t-152.5 -393t-384.5 -149q-152 0 -273 65.5t-192 190t-71 286.5q0 244 152 392.5t384 148.5zM645 909q-156 0 -257 -104t-101 -283t101 -284t257 -105t257.5 105t101.5 284t-101 283t-258 104z" />
    <glyph glyph-name="odieresis" unicode="&#xf6;" horiz-adv-x="1292" 
d="M485 1499q44 0 75.5 -30.5t31.5 -73.5q0 -45 -31 -75t-76 -30t-75.5 30t-30.5 75q0 43 31 73.5t75 30.5zM793 1499q44 0 74 -30.5t30 -73.5q0 -45 -29.5 -75t-74.5 -30t-77 30t-32 75q0 43 32.5 73.5t76.5 30.5zM645 1063q232 0 384.5 -148.5t152.5 -392.5t-152.5 -393
t-384.5 -149q-152 0 -273 65.5t-192 190t-71 286.5q0 244 152 392.5t384 148.5zM645 909q-156 0 -257 -104t-101 -283t101 -284t257 -105t257.5 105t101.5 284t-101 283t-258 104z" />
    <glyph glyph-name="divide" unicode="&#xf7;" horiz-adv-x="1118" 
d="M559 1315q51 0 87 -35t36 -86t-36 -85t-87 -34q-50 0 -84.5 34t-34.5 85t34.5 86t84.5 35zM1051 676h-983v166h983v-166zM559 444q51 0 87 -35.5t36 -86.5q0 -50 -36 -85.5t-87 -35.5q-49 0 -84 35.5t-35 85.5q0 51 34.5 86.5t84.5 35.5z" />
    <glyph glyph-name="oslash" unicode="&#xf8;" horiz-adv-x="1292" 
d="M1108 1024l-82 -106q156 -153 156 -396q0 -244 -152.5 -393t-384.5 -149q-153 0 -276 69l-90 -119l-99 74l88 117q-159 153 -159 401q0 244 152 392.5t384 148.5q160 0 283 -72l82 107zM287 522q0 -163 86 -266l458 606q-83 47 -186 47q-156 0 -257 -104t-101 -283z
M645 133q156 0 257.5 105t101.5 284q0 159 -80 258l-457 -602q82 -45 178 -45z" />
    <glyph glyph-name="ugrave" unicode="&#xf9;" 
d="M676 1219h-139l-273 391h203zM1032 0h-168v156q-34 -73 -113.5 -124.5t-199.5 -51.5q-174 0 -277.5 115t-103.5 304v645h176v-620q0 -129 64.5 -204t181.5 -75q120 0 192 84t72 205v610h176v-1044z" />
    <glyph glyph-name="uacute" unicode="&#xfa;" 
d="M678 1219h-141l211 391h200zM1032 0h-168v156q-34 -73 -113.5 -124.5t-199.5 -51.5q-174 0 -277.5 115t-103.5 304v645h176v-620q0 -129 64.5 -204t181.5 -75q120 0 192 84t72 205v610h176v-1044z" />
    <glyph glyph-name="ucircumflex" unicode="&#xfb;" 
d="M940 1221h-152l-178 225l-178 -225h-151l245 346h168zM1032 0h-168v156q-34 -73 -113.5 -124.5t-199.5 -51.5q-174 0 -277.5 115t-103.5 304v645h176v-620q0 -129 64.5 -204t181.5 -75q120 0 192 84t72 205v610h176v-1044z" />
    <glyph glyph-name="udieresis" unicode="&#xfc;" 
d="M451 1499q44 0 75 -30.5t31 -73.5q0 -45 -30.5 -75t-75.5 -30t-76 30t-31 75q0 43 31.5 73.5t75.5 30.5zM758 1499q44 0 74 -30.5t30 -73.5q0 -45 -30 -75t-74 -30q-45 0 -77 30t-32 75q0 43 32.5 73.5t76.5 30.5zM1032 0h-168v156q-34 -73 -113.5 -124.5t-199.5 -51.5
q-174 0 -277.5 115t-103.5 304v645h176v-620q0 -129 64.5 -204t181.5 -75q120 0 192 84t72 205v610h176v-1044z" />
    <glyph glyph-name="yacute" unicode="&#xfd;" horiz-adv-x="1085" 
d="M612 1219h-141l211 391h201zM395 -522h-194l248 579l-416 987h196l316 -788l313 788h197z" />
    <glyph glyph-name="thorn" unicode="&#xfe;" horiz-adv-x="1327" 
d="M354 1591v-708q46 80 141 130t222 50q220 0 362 -147t142 -394q0 -248 -142 -395t-362 -147q-128 0 -222.5 49.5t-140.5 130.5v-682h-176v2113h176zM690 909q-148 0 -241 -92.5t-93 -265.5v-62q0 -171 93 -263.5t241 -92.5q154 0 252 102.5t98 284.5q0 184 -98 286.5
t-252 102.5z" />
    <glyph glyph-name="ydieresis" unicode="&#xff;" horiz-adv-x="1085" 
d="M385 1499q44 0 75.5 -30.5t31.5 -73.5q0 -45 -31 -75t-76 -30t-75.5 30t-30.5 75q0 43 31 73.5t75 30.5zM692 1499q44 0 74.5 -30.5t30.5 -73.5q0 -45 -30 -75t-75 -30t-76.5 30t-31.5 75q0 43 32 73.5t76 30.5zM395 -522h-194l248 579l-416 987h196l316 -788l313 788
h197z" />
    <glyph glyph-name="Amacron" unicode="&#x100;" horiz-adv-x="1505" 
d="M1024 1708h-541v137h541v-137zM1473 0h-205l-160 389h-711l-161 -389h-205l641 1532h159zM467 553h571l-284 690z" />
    <glyph glyph-name="amacron" unicode="&#x101;" horiz-adv-x="1110" 
d="M836 1300h-541v138h541v-138zM541 1063q193 0 296 -106t103 -300v-657h-178v123q-121 -143 -311 -143q-155 0 -248.5 78t-93.5 218q0 291 383 312l270 16v49q0 122 -54.5 188t-164.5 66t-169 -63.5t-59 -153.5l-178 8q0 68 28 133t78 117t128 83.5t170 31.5zM764 463
l-250 -17q-227 -13 -227 -165q0 -150 190 -150q128 0 207.5 70.5t79.5 218.5v43z" />
    <glyph glyph-name="Abreve" unicode="&#x102;" horiz-adv-x="1505" 
d="M930 1921h145q0 -132 -87 -202t-234 -70t-234.5 70t-87.5 202h146q0 -69 47 -109t129 -40q80 0 128 40t48 109zM1473 0h-205l-160 389h-711l-161 -389h-205l641 1532h159zM467 553h571l-284 690z" />
    <glyph glyph-name="abreve" unicode="&#x103;" horiz-adv-x="1110" 
d="M741 1499h146q0 -132 -87.5 -203t-234.5 -71q-146 0 -233.5 71t-87.5 203h145q0 -70 47 -109.5t129 -39.5q80 0 128 39.5t48 109.5zM541 1063q193 0 296 -106t103 -300v-657h-178v123q-121 -143 -311 -143q-155 0 -248.5 78t-93.5 218q0 291 383 312l270 16v49
q0 122 -54.5 188t-164.5 66t-169 -63.5t-59 -153.5l-178 8q0 68 28 133t78 117t128 83.5t170 31.5zM764 463l-250 -17q-227 -13 -227 -165q0 -150 190 -150q128 0 207.5 70.5t79.5 218.5v43z" />
    <glyph glyph-name="Aogonek" unicode="&#x104;" horiz-adv-x="1505" 
d="M1315 -287q60 0 115 25l18 -90q-78 -33 -162 -33q-97 0 -159 44.5t-62 127.5q0 136 199 225l-156 377h-711l-161 -389h-205l641 1532h159l642 -1532h-84q-97 -49 -143 -92t-46 -101q0 -46 31 -70t84 -24zM1038 553l-284 690l-287 -690h571z" />
    <glyph glyph-name="aogonek" unicode="&#x105;" horiz-adv-x="1110" 
d="M934 -260l18 -90q-78 -33 -161 -33q-97 0 -159.5 44.5t-62.5 127.5q0 135 193 221v113q-121 -143 -311 -143q-155 0 -248.5 78t-93.5 218q0 291 383 312l270 16v49q0 122 -54.5 188t-164.5 66t-169 -63.5t-59 -153.5l-178 8q0 68 28 133t78 117t128 83.5t170 31.5
q193 0 296 -106t103 -300v-657h-51q-93 -46 -138.5 -89.5t-45.5 -100.5q0 -46 31 -70.5t83 -24.5q60 0 115 25zM477 131q128 0 207.5 70.5t79.5 218.5v43l-250 -17q-227 -13 -227 -165q0 -150 190 -150z" />
    <glyph glyph-name="Cacute" unicode="&#x106;" horiz-adv-x="1654" 
d="M930 1628h-168l305 289h246zM866 1552q180 0 330 -67.5t248 -197.5t121 -302l-195 -18q-29 196 -168 306.5t-342 110.5q-249 0 -402 -165.5t-153 -452.5q0 -147 43 -265.5t118.5 -195t177 -117.5t220.5 -41q200 0 336.5 104t171.5 292l195 -17q-42 -252 -233 -399
t-464 -147q-216 0 -386 91.5t-269.5 271.5t-99.5 423q0 183 56.5 332t157 248t238 152.5t299.5 53.5z" />
    <glyph glyph-name="cacute" unicode="&#x107;" horiz-adv-x="1183" 
d="M674 1219h-142l211 391h201zM623 1063q187 0 316.5 -105.5t152.5 -285.5l-172 -15q-13 117 -95 185.5t-202 68.5q-150 0 -242 -103.5t-92 -285.5t93.5 -285.5t240.5 -103.5q122 0 201 63.5t98 174.5l172 -17q-29 -173 -155.5 -273.5t-315.5 -100.5q-110 0 -204 37
t-163 105t-108 171t-39 229q0 252 143.5 396.5t370.5 144.5z" />
    <glyph glyph-name="Ccircumflex" unicode="&#x108;" horiz-adv-x="1654" 
d="M1176 1628h-154l-174 184l-176 -184h-152l244 293h168zM866 1552q180 0 330 -67.5t248 -197.5t121 -302l-195 -18q-29 196 -168 306.5t-342 110.5q-249 0 -402 -165.5t-153 -452.5q0 -147 43 -265.5t118.5 -195t177 -117.5t220.5 -41q200 0 336.5 104t171.5 292l195 -17
q-42 -252 -233 -399t-464 -147q-216 0 -386 91.5t-269.5 271.5t-99.5 423q0 183 56.5 332t157 248t238 152.5t299.5 53.5z" />
    <glyph glyph-name="ccircumflex" unicode="&#x109;" horiz-adv-x="1183" 
d="M936 1221h-152l-178 225l-178 -225h-152l246 346h168zM623 1063q187 0 316.5 -105.5t152.5 -285.5l-172 -15q-13 117 -95 185.5t-202 68.5q-150 0 -242 -103.5t-92 -285.5t93.5 -285.5t240.5 -103.5q122 0 201 63.5t98 174.5l172 -17q-29 -173 -155.5 -273.5
t-315.5 -100.5q-110 0 -204 37t-163 105t-108 171t-39 229q0 252 143.5 396.5t370.5 144.5z" />
    <glyph glyph-name="Cdotaccent" unicode="&#x10a;" horiz-adv-x="1654" 
d="M850 1894q47 0 82 -35.5t35 -82.5q0 -50 -34.5 -84.5t-82.5 -34.5q-50 0 -85.5 34.5t-35.5 84.5q0 47 36 82.5t85 35.5zM866 1552q180 0 330 -67.5t248 -197.5t121 -302l-195 -18q-29 196 -168 306.5t-342 110.5q-249 0 -402 -165.5t-153 -452.5q0 -147 43 -265.5
t118.5 -195t177 -117.5t220.5 -41q200 0 336.5 104t171.5 292l195 -17q-42 -252 -233 -399t-464 -147q-216 0 -386 91.5t-269.5 271.5t-99.5 423q0 183 56.5 332t157 248t238 152.5t299.5 53.5z" />
    <glyph glyph-name="cdotaccent" unicode="&#x10b;" horiz-adv-x="1183" 
d="M608 1511q47 0 82 -34.5t35 -81.5q0 -49 -34.5 -84t-82.5 -35q-50 0 -85.5 35t-35.5 84q0 47 36 81.5t85 34.5zM623 1063q187 0 316.5 -105.5t152.5 -285.5l-172 -15q-13 117 -95 185.5t-202 68.5q-150 0 -242 -103.5t-92 -285.5t93.5 -285.5t240.5 -103.5
q122 0 201 63.5t98 174.5l172 -17q-29 -173 -155.5 -273.5t-315.5 -100.5q-110 0 -204 37t-163 105t-108 171t-39 229q0 252 143.5 396.5t370.5 144.5z" />
    <glyph glyph-name="Ccaron" unicode="&#x10c;" horiz-adv-x="1654" 
d="M932 1628h-168l-244 293h152l176 -184l174 184h154zM866 1552q180 0 330 -67.5t248 -197.5t121 -302l-195 -18q-29 196 -168 306.5t-342 110.5q-249 0 -402 -165.5t-153 -452.5q0 -147 43 -265.5t118.5 -195t177 -117.5t220.5 -41q200 0 336.5 104t171.5 292l195 -17
q-42 -252 -233 -399t-464 -147q-216 0 -386 91.5t-269.5 271.5t-99.5 423q0 183 56.5 332t157 248t238 152.5t299.5 53.5z" />
    <glyph glyph-name="ccaron" unicode="&#x10d;" horiz-adv-x="1183" 
d="M690 1217h-168l-246 344h152l178 -226l178 226h152zM623 1063q187 0 316.5 -105.5t152.5 -285.5l-172 -15q-13 117 -95 185.5t-202 68.5q-150 0 -242 -103.5t-92 -285.5t93.5 -285.5t240.5 -103.5q122 0 201 63.5t98 174.5l172 -17q-29 -173 -155.5 -273.5t-315.5 -100.5
q-110 0 -204 37t-163 105t-108 171t-39 229q0 252 143.5 396.5t370.5 144.5z" />
    <glyph glyph-name="Dcaron" unicode="&#x10e;" horiz-adv-x="1636" 
d="M803 1628h-168l-244 293h152l176 -184l174 184h154zM184 1532h598q158 0 293 -52t234 -148.5t155 -242t56 -323.5t-57 -323.5t-156.5 -242t-235 -148.5t-293.5 -52h-594v1532zM371 1372v-1212h409q247 0 400 159t153 447q0 289 -150.5 447.5t-398.5 158.5h-413z" />
    <glyph glyph-name="dcaron" unicode="&#x10f;" horiz-adv-x="1546" 
d="M973 1591h176v-1591h-166v170q-46 -85 -144 -137.5t-227 -52.5q-220 0 -361.5 146.5t-141.5 393.5q0 124 38.5 227t105.5 172t159.5 106.5t199.5 37.5q126 0 221 -49t140 -127v704zM1401 1536q53 0 82.5 -38t29.5 -99q0 -258 -231 -389v80q105 78 121 208q-48 0 -83.5 34
t-35.5 83q0 50 33.5 85.5t83.5 35.5zM973 492v61q0 171 -93 263.5t-243 92.5q-154 0 -252 -102.5t-98 -284.5q0 -184 98 -286.5t252 -102.5q150 0 243 93t93 266z" />
    <glyph glyph-name="Dcroat" unicode="&#x110;" horiz-adv-x="1626" 
d="M225 1532h598q158 0 293 -52t234 -148.5t155 -242t56 -323.5t-57 -323.5t-156.5 -242t-235 -148.5t-293.5 -52h-594v692h-219v146h219v694zM412 160h409q247 0 400 159t153 447q0 289 -150.5 447.5t-398.5 158.5h-413v-534h307v-146h-307v-532z" />
    <glyph glyph-name="dcroat" unicode="&#x111;" horiz-adv-x="1316" 
d="M1315 1253h-166v-1253h-166v170q-46 -85 -144 -137.5t-227 -52.5q-220 0 -361.5 146.5t-141.5 393.5q0 124 38.5 227t105.5 172t159.5 106.5t199.5 37.5q126 0 221 -49t140 -127v366h-197v138h197v200h176v-200h166v-138zM973 492v61q0 171 -93 263.5t-243 92.5
q-154 0 -252 -102.5t-98 -284.5q0 -184 98 -286.5t252 -102.5q150 0 243 93t93 266z" />
    <glyph glyph-name="Emacron" unicode="&#x112;" horiz-adv-x="1214" 
d="M936 1708h-541v137h541v-137zM1133 1366h-760v-494h669v-161h-669v-545h760v-166h-949v1532h949v-166z" />
    <glyph glyph-name="emacron" unicode="&#x113;" 
d="M889 1300h-541v138h541v-138zM1102 455h-807q7 -149 97.5 -235.5t230.5 -86.5q115 0 190.5 48.5t101.5 137.5l177 -10q-33 -144 -160 -236.5t-305 -92.5q-229 0 -373.5 146t-144.5 396t143.5 395.5t370.5 145.5q222 0 350.5 -139t128.5 -373v-96zM621 909
q-139 0 -228 -81t-98 -230h631q-3 141 -81.5 226t-223.5 85z" />
    <glyph glyph-name="Ebreve" unicode="&#x114;" horiz-adv-x="1214" 
d="M842 1921h145q0 -132 -87 -202t-234 -70t-234.5 70t-87.5 202h145q0 -69 47.5 -109t129.5 -40q80 0 128 40t48 109zM1133 1366h-760v-494h669v-161h-669v-545h760v-166h-949v1532h949v-166z" />
    <glyph glyph-name="ebreve" unicode="&#x115;" 
d="M616 1225q-146 0 -233.5 71t-87.5 203h145q0 -70 47 -109.5t129 -39.5q81 0 129 39.5t48 109.5h145q0 -132 -87.5 -203t-234.5 -71zM1102 455h-807q7 -149 97.5 -235.5t230.5 -86.5q115 0 190.5 48.5t101.5 137.5l177 -10q-33 -144 -160 -236.5t-305 -92.5
q-229 0 -373.5 146t-144.5 396t143.5 395.5t370.5 145.5q222 0 350.5 -139t128.5 -373v-96zM621 909q-139 0 -228 -81t-98 -230h631q-3 141 -81.5 226t-223.5 85z" />
    <glyph glyph-name="Edotaccent" unicode="&#x116;" horiz-adv-x="1214" 
d="M668 1894q47 0 81.5 -35.5t34.5 -82.5q0 -50 -34 -84.5t-82 -34.5q-50 0 -85.5 34.5t-35.5 84.5q0 47 36 82.5t85 35.5zM1133 1366h-760v-494h669v-161h-669v-545h760v-166h-949v1532h949v-166z" />
    <glyph glyph-name="edotaccent" unicode="&#x117;" 
d="M621 1276q-50 0 -85.5 35t-35.5 84q0 47 36 81.5t85 34.5q47 0 81.5 -34.5t34.5 -81.5q0 -49 -34.5 -84t-81.5 -35zM1102 455h-807q7 -149 97.5 -235.5t230.5 -86.5q115 0 190.5 48.5t101.5 137.5l177 -10q-33 -144 -160 -236.5t-305 -92.5q-229 0 -373.5 146t-144.5 396
t143.5 395.5t370.5 145.5q222 0 350.5 -139t128.5 -373v-96zM621 909q-139 0 -228 -81t-98 -230h631q-3 141 -81.5 226t-223.5 85z" />
    <glyph glyph-name="Eogonek" unicode="&#x118;" horiz-adv-x="1214" 
d="M1151 -262l18 -90q-78 -33 -161 -33q-97 0 -159.5 44.5t-62.5 127.5q0 128 175 213h-777v1532h949v-166h-760v-494h669v-161h-669v-545h760v-166h-23q-96 -49 -142 -92t-46 -101q0 -46 30.5 -70t83.5 -24q60 0 115 25z" />
    <glyph glyph-name="eogonek" unicode="&#x119;" 
d="M1102 455h-807q7 -149 97.5 -235.5t230.5 -86.5q115 0 190.5 48.5t101.5 137.5l177 -10q-26 -118 -118 -203t-226 -114q-92 -47 -136.5 -90t-44.5 -99q0 -46 31 -70t84 -24q60 0 115 25l18 -90q-78 -33 -162 -33q-97 0 -159 44.5t-62 127.5q0 116 146 199
q-210 15 -339.5 159t-129.5 381q0 250 143.5 395.5t370.5 145.5q222 0 350.5 -139t128.5 -373v-96zM621 909q-139 0 -228 -81t-98 -230h631q-3 141 -81.5 226t-223.5 85z" />
    <glyph glyph-name="Ecaron" unicode="&#x11a;" horiz-adv-x="1214" 
d="M752 1628h-168l-244 293h152l176 -184l174 184h153zM1133 1366h-760v-494h669v-161h-669v-545h760v-166h-949v1532h949v-166z" />
    <glyph glyph-name="ecaron" unicode="&#x11b;" 
d="M535 1217l-246 344h151l178 -226l179 226h151l-246 -344h-167zM1102 455h-807q7 -149 97.5 -235.5t230.5 -86.5q115 0 190.5 48.5t101.5 137.5l177 -10q-33 -144 -160 -236.5t-305 -92.5q-229 0 -373.5 146t-144.5 396t143.5 395.5t370.5 145.5q222 0 350.5 -139
t128.5 -373v-96zM621 909q-139 0 -228 -81t-98 -230h631q-3 141 -81.5 226t-223.5 85z" />
    <glyph glyph-name="Gcircumflex" unicode="&#x11c;" horiz-adv-x="1681" 
d="M678 1628h-152l244 293h168l244 -293h-154l-174 184zM1571 778v-63q0 -341 -191.5 -538t-515.5 -197q-160 0 -297 53.5t-237.5 152t-157.5 248t-57 332.5t56.5 332.5t156.5 248t236.5 152t297.5 53.5q268 0 460 -144.5t237 -397.5l-195 -31q-29 189 -165.5 297
t-338.5 108q-252 0 -403.5 -160.5t-151.5 -457.5q0 -296 153 -457.5t402 -161.5q216 0 351.5 117t158.5 348h-504v166h705z" />
    <glyph glyph-name="gcircumflex" unicode="&#x11d;" horiz-adv-x="1318" 
d="M977 1221h-152l-178 225l-178 -225h-152l246 346h168zM612 1063q129 0 227 -53t144 -138v172h166v-1103q0 -222 -137 -352t-363 -130q-213 0 -343.5 101t-162.5 270l176 6q18 -104 108 -165.5t216 -61.5q150 0 240 83.5t90 235.5v228q-45 -78 -140 -127t-221 -49
q-220 0 -361.5 147t-141.5 395q0 247 141.5 394t361.5 147zM637 909q-154 0 -252 -102.5t-98 -286.5q0 -182 98 -284.5t252 -102.5q150 0 243 92.5t93 263.5v62q0 173 -93 265.5t-243 92.5z" />
    <glyph glyph-name="Gbreve" unicode="&#x11e;" horiz-adv-x="1681" 
d="M852 1649q-147 0 -234.5 70t-87.5 202h146q0 -69 47 -109t129 -40q80 0 128 40t48 109h146q0 -132 -87.5 -202t-234.5 -70zM1571 778v-63q0 -341 -191.5 -538t-515.5 -197q-160 0 -297 53.5t-237.5 152t-157.5 248t-57 332.5t56.5 332.5t156.5 248t236.5 152t297.5 53.5
q268 0 460 -144.5t237 -397.5l-195 -31q-29 189 -165.5 297t-338.5 108q-252 0 -403.5 -160.5t-151.5 -457.5q0 -296 153 -457.5t402 -161.5q216 0 351.5 117t158.5 348h-504v166h705z" />
    <glyph glyph-name="gbreve" unicode="&#x11f;" horiz-adv-x="1318" 
d="M823 1499h146q0 -132 -87.5 -203t-234.5 -71q-146 0 -233.5 71t-87.5 203h145q0 -70 47 -109.5t129 -39.5q80 0 128 39.5t48 109.5zM612 1063q129 0 227 -53t144 -138v172h166v-1103q0 -222 -137 -352t-363 -130q-213 0 -343.5 101t-162.5 270l176 6q18 -104 108 -165.5
t216 -61.5q150 0 240 83.5t90 235.5v228q-45 -78 -140 -127t-221 -49q-220 0 -361.5 147t-141.5 395q0 247 141.5 394t361.5 147zM637 909q-154 0 -252 -102.5t-98 -286.5q0 -182 98 -284.5t252 -102.5q150 0 243 92.5t93 263.5v62q0 173 -93 265.5t-243 92.5z" />
    <glyph glyph-name="Gdotaccent" unicode="&#x120;" horiz-adv-x="1681" 
d="M854 1657q-50 0 -85.5 34.5t-35.5 84.5q0 47 36 82.5t85 35.5q47 0 82 -35.5t35 -82.5q0 -50 -34.5 -84.5t-82.5 -34.5zM1571 778v-63q0 -341 -191.5 -538t-515.5 -197q-160 0 -297 53.5t-237.5 152t-157.5 248t-57 332.5t56.5 332.5t156.5 248t236.5 152t297.5 53.5
q268 0 460 -144.5t237 -397.5l-195 -31q-29 189 -165.5 297t-338.5 108q-252 0 -403.5 -160.5t-151.5 -457.5q0 -296 153 -457.5t402 -161.5q216 0 351.5 117t158.5 348h-504v166h705z" />
    <glyph glyph-name="gdotaccent" unicode="&#x121;" horiz-adv-x="1318" 
d="M649 1511q47 0 82 -34.5t35 -81.5q0 -49 -34.5 -84t-82.5 -35q-50 0 -85.5 35t-35.5 84q0 47 36 81.5t85 34.5zM612 1063q129 0 227 -53t144 -138v172h166v-1103q0 -222 -137 -352t-363 -130q-213 0 -343.5 101t-162.5 270l176 6q18 -104 108 -165.5t216 -61.5
q150 0 240 83.5t90 235.5v228q-45 -78 -140 -127t-221 -49q-220 0 -361.5 147t-141.5 395q0 247 141.5 394t361.5 147zM637 909q-154 0 -252 -102.5t-98 -286.5q0 -182 98 -284.5t252 -102.5q150 0 243 92.5t93 263.5v62q0 173 -93 265.5t-243 92.5z" />
    <glyph glyph-name="Gcommaaccent" unicode="&#x122;" horiz-adv-x="1681" 
d="M1571 778v-63q0 -341 -191.5 -538t-515.5 -197q-160 0 -297 53.5t-237.5 152t-157.5 248t-57 332.5t56.5 332.5t156.5 248t236.5 152t297.5 53.5q268 0 460 -144.5t237 -397.5l-195 -31q-29 189 -165.5 297t-338.5 108q-252 0 -403.5 -160.5t-151.5 -457.5
q0 -296 153 -457.5t402 -161.5q216 0 351.5 117t158.5 348h-504v166h705zM856 -94q53 0 83 -38t30 -99q0 -258 -232 -390v80q105 78 121 209q-48 0 -83.5 34t-35.5 83q0 50 33.5 85.5t83.5 35.5z" />
    <glyph glyph-name="gcommaaccent" unicode="&#x123;" horiz-adv-x="1318" 
d="M786 1579q0 -258 -231 -389v80q105 78 121 209q-48 0 -83.5 33.5t-35.5 82.5q0 50 33.5 85.5t83.5 35.5q53 0 82.5 -38t29.5 -99zM1149 1044v-1103q0 -222 -137 -352t-363 -130q-213 0 -343.5 101t-162.5 270l176 6q18 -104 108 -165.5t216 -61.5q150 0 240 83.5
t90 235.5v228q-45 -78 -140 -127t-221 -49q-220 0 -361.5 147t-141.5 395q0 247 141.5 394t361.5 147q129 0 227 -53t144 -138v172h166zM973 489v62q0 173 -93 265.5t-243 92.5q-154 0 -252 -102.5t-98 -286.5q0 -182 98 -284.5t252 -102.5q150 0 243 92.5t93 263.5z" />
    <glyph glyph-name="Hcircumflex" unicode="&#x124;" horiz-adv-x="1542" 
d="M1100 1628h-154l-174 184l-176 -184h-152l244 293h168zM1358 0h-187v711h-798v-711h-189v1532h189v-653h798v653h187v-1532z" />
    <glyph glyph-name="hcircumflex" unicode="&#x125;" horiz-adv-x="1234" 
d="M598 1634h-154l-174 185l-176 -185h-151l243 293h168zM354 1591v-690q39 68 122 115t196 47q179 0 292 -117t113 -311v-635h-178v612q0 130 -72.5 208.5t-191.5 78.5q-122 0 -201.5 -84t-79.5 -205v-610h-176v1591h176z" />
    <glyph glyph-name="Hbar" unicode="&#x126;" horiz-adv-x="1562" 
d="M1548 1126h-180v-1126h-186v711h-801v-711h-186v1126h-181v144h181v262h186v-262h801v262h186v-262h180v-144zM1182 1126h-801v-247h801v247z" />
    <glyph glyph-name="hbar" unicode="&#x127;" horiz-adv-x="1234" 
d="M672 1063q179 0 292 -117t113 -311v-635h-178v612q0 130 -72.5 208.5t-191.5 78.5q-122 0 -201.5 -84t-79.5 -205v-610h-176v1253h-168v138h168v200h176v-200h195v-138h-195v-352q39 68 122 115t196 47z" />
    <glyph glyph-name="Itilde" unicode="&#x128;" horiz-adv-x="555" 
d="M135 1917q43 0 83.5 -20t67 -43.5t61.5 -43.5t67 -20q49 0 74.5 31.5t27.5 81.5h100q6 -102 -45 -174t-139 -72q-43 0 -83.5 19.5t-66.5 43t-61 43t-67 19.5q-48 0 -73.5 -30.5t-27.5 -80.5h-102q-6 102 45 174t139 72zM373 0h-189v1532h189v-1532z" />
    <glyph glyph-name="itilde" unicode="&#x129;" horiz-adv-x="534" 
d="M121 1507q43 0 83.5 -19.5t66.5 -43t61 -43t67 -19.5q49 0 75 30.5t28 80.5h100q6 -100 -45 -173t-139 -73q-43 0 -83.5 19.5t-67 43t-61.5 43t-67 19.5q-48 0 -73 -30t-27 -80h-102q-6 101 45 173t139 72zM354 0h-176v1044h176v-1044z" />
    <glyph glyph-name="Imacron" unicode="&#x12a;" horiz-adv-x="555" 
d="M555 1708h-541v137h541v-137zM373 0h-189v1532h189v-1532z" />
    <glyph glyph-name="imacron" unicode="&#x12b;" horiz-adv-x="534" 
d="M543 1300h-541v138h541v-138zM354 0h-176v1044h176v-1044z" />
    <glyph glyph-name="Ibreve" unicode="&#x12c;" horiz-adv-x="555" 
d="M459 1921h145q0 -132 -87 -202t-234 -70t-234.5 70t-87.5 202h145q0 -69 47.5 -109t129.5 -40q80 0 128 40t48 109zM373 0h-189v1532h189v-1532z" />
    <glyph glyph-name="ibreve" unicode="&#x12d;" horiz-adv-x="534" 
d="M446 1499h146q0 -132 -87.5 -203t-234.5 -71q-146 0 -233.5 71t-87.5 203h145q0 -70 47 -109.5t129 -39.5q80 0 128 39.5t48 109.5zM354 0h-176v1044h176v-1044z" />
    <glyph glyph-name="Iogonek" unicode="&#x12e;" horiz-adv-x="555" 
d="M373 0h-80q-93 -46 -138.5 -89.5t-45.5 -100.5q0 -46 31 -70.5t83 -24.5q60 0 115 25l18 -90q-78 -33 -161 -33q-97 0 -159.5 44.5t-62.5 127.5q0 139 211 229v1514h189v-1532z" />
    <glyph glyph-name="iogonek" unicode="&#x12f;" horiz-adv-x="534" 
d="M274 1276q-50 0 -85 35t-35 84q0 47 35.5 81.5t84.5 34.5q47 0 82 -34.5t35 -81.5q0 -49 -34.5 -84t-82.5 -35zM238 -285q59 0 114 25l19 -90q-78 -33 -162 -33q-97 0 -159 44.5t-62 127.5q0 135 190 221v1034h176v-1044h-47q-93 -46 -138.5 -89.5t-45.5 -100.5
q0 -46 31 -70.5t84 -24.5z" />
    <glyph glyph-name="Idotaccent" unicode="&#x130;" horiz-adv-x="555" 
d="M287 1894q47 0 81.5 -35.5t34.5 -82.5q0 -50 -34 -84.5t-82 -34.5q-50 0 -85.5 34.5t-35.5 84.5q0 47 36 82.5t85 35.5zM373 0h-189v1532h189v-1532z" />
    <glyph glyph-name="dotlessi" unicode="&#x131;" horiz-adv-x="534" 
d="M354 0h-176v1044h176v-1044z" />
    <glyph glyph-name="Jcircumflex" unicode="&#x134;" horiz-adv-x="1185" 
d="M1257 1628h-153l-174 184l-176 -184h-152l244 293h168zM1014 1532v-1047q0 -240 -127 -372.5t-350 -132.5q-218 0 -348 127.5t-142 349.5l189 30q7 -162 87 -251t214 -89q138 0 213 85t75 249v1051h189z" />
    <glyph glyph-name="jcircumflex" unicode="&#x135;" horiz-adv-x="534" 
d="M596 1221h-152l-178 225l-178 -225h-151l245 346h168zM358 1044v-1200q0 -191 -89.5 -286t-245.5 -95q-103 0 -170 43l65 146q51 -31 86 -31q85 0 131.5 53.5t46.5 161.5v1208h176z" />
    <glyph glyph-name="Kcommaaccent" unicode="&#x136;" horiz-adv-x="1382" 
d="M1352 0h-230l-565 733l-184 -207v-526h-189v1532h189v-727l653 727h242l-586 -651zM713 -84q53 0 82.5 -38t29.5 -99q0 -258 -231 -389v80q105 78 121 208q-48 0 -83.5 34t-35.5 83q0 50 33.5 85.5t83.5 35.5z" />
    <glyph glyph-name="kcommaaccent" unicode="&#x137;" horiz-adv-x="1099" 
d="M1081 0h-225l-389 461l-113 -111v-350h-176v1591h176v-1005l459 458h219l-440 -454zM588 -84q53 0 82.5 -38t29.5 -99q0 -258 -231 -389v80q105 78 121 208q-48 0 -83.5 34t-35.5 83q0 50 33.5 85.5t83.5 35.5z" />
    <glyph glyph-name="Lacute" unicode="&#x139;" 
d="M369 1628h-168l305 289h246zM373 166h768v-166h-957v1532h189v-1366z" />
    <glyph glyph-name="lacute" unicode="&#x13a;" horiz-adv-x="534" 
d="M356 1657h-168l306 289h245zM354 0h-176v1591h176v-1591z" />
    <glyph glyph-name="Lcommaaccent" unicode="&#x13b;" 
d="M1141 166v-166h-957v1532h189v-1366h768zM680 -84q53 0 83 -38t30 -99q0 -257 -232 -389v80q105 78 121 208q-48 0 -83.5 34t-35.5 83q0 50 33.5 85.5t83.5 35.5z" />
    <glyph glyph-name="lcommaaccent" unicode="&#x13c;" horiz-adv-x="534" 
d="M354 0h-176v1591h176v-1591zM268 -84q53 0 83 -38t30 -99q0 -258 -231 -389v80q104 77 120 208q-48 0 -83 34t-35 83q0 50 33 85.5t83 35.5z" />
    <glyph glyph-name="Lcaron" unicode="&#x13d;" 
d="M1176 1399q0 -257 -232 -389v80q105 78 121 208q-48 0 -83.5 34t-35.5 83q0 50 33.5 85.5t83.5 35.5q53 0 83 -38t30 -99zM373 166h768v-166h-957v1532h189v-1366z" />
    <glyph glyph-name="lcaron" unicode="&#x13e;" horiz-adv-x="763" 
d="M178 1591h176v-1591h-176v1591zM625 1536q53 0 82.5 -38t29.5 -99q0 -258 -231 -389v80q105 78 121 208q-48 0 -83.5 34t-35.5 83q0 50 33.5 85.5t83.5 35.5z" />
    <glyph glyph-name="Ldot" unicode="&#x13f;" 
d="M373 166h768v-166h-957v1532h189v-1366zM901 911q51 0 87 -36t36 -87q0 -50 -36 -85t-87 -35q-49 0 -84 35t-35 85q0 51 35 87t84 36z" />
    <glyph glyph-name="ldot" unicode="&#x140;" horiz-adv-x="800" 
d="M354 0h-176v1591h176v-1591zM629 727q51 0 87 -36t36 -87q0 -50 -36 -85.5t-87 -35.5q-49 0 -84 35.5t-35 85.5q0 51 35 87t84 36z" />
    <glyph glyph-name="Lslash" unicode="&#x141;" horiz-adv-x="1230" 
d="M1165 166v-166h-954v547l-195 -62l-24 144l219 67v836h186v-778l230 71l22 -141l-252 -80v-438h768z" />
    <glyph glyph-name="lslash" unicode="&#x142;" horiz-adv-x="579" 
d="M381 567v-567h-176v504l-201 -72l-33 139l234 84v936h176v-872l197 72l32 -142z" />
    <glyph glyph-name="Nacute" unicode="&#x143;" horiz-adv-x="1536" 
d="M844 1628h-168l305 289h246zM1352 0h-160l-819 1184v-1184h-189v1532h158l823 -1186v1186h187v-1532z" />
    <glyph glyph-name="nacute" unicode="&#x144;" horiz-adv-x="1247" 
d="M711 1219h-142l211 391h201zM672 1063q179 0 292 -117t113 -311v-635h-178v612q0 130 -72.5 208.5t-191.5 78.5q-122 0 -201.5 -84t-79.5 -205v-610h-176v1044h168v-155q41 76 125 125t201 49z" />
    <glyph glyph-name="Ncommaaccent" unicode="&#x145;" horiz-adv-x="1536" 
d="M1352 1532v-1532h-160l-819 1184v-1184h-189v1532h158l823 -1186v1186h187zM782 -84q53 0 83 -38t30 -99q0 -258 -231 -389v80q104 77 120 208q-48 0 -83 34t-35 83q0 50 33 85.5t83 35.5z" />
    <glyph glyph-name="ncommaaccent" unicode="&#x146;" horiz-adv-x="1247" 
d="M672 1063q179 0 292 -117t113 -311v-635h-178v612q0 130 -72.5 208.5t-191.5 78.5q-122 0 -201.5 -84t-79.5 -205v-610h-176v1044h168v-155q41 76 125 125t201 49zM635 -84q53 0 83 -38t30 -99q0 -257 -232 -389v80q105 78 121 208q-48 0 -83.5 34t-35.5 83
q0 50 33.5 85.5t83.5 35.5z" />
    <glyph glyph-name="Ncaron" unicode="&#x147;" horiz-adv-x="1536" 
d="M846 1628h-168l-244 293h152l176 -184l174 184h154zM1352 0h-160l-819 1184v-1184h-189v1532h158l823 -1186v1186h187v-1532z" />
    <glyph glyph-name="ncaron" unicode="&#x148;" horiz-adv-x="1247" 
d="M727 1217h-168l-246 344h152l178 -226l178 226h152zM672 1063q179 0 292 -117t113 -311v-635h-178v612q0 130 -72.5 208.5t-191.5 78.5q-122 0 -201.5 -84t-79.5 -205v-610h-176v1044h168v-155q41 76 125 125t201 49z" />
    <glyph glyph-name="Eng" unicode="&#x14a;" horiz-adv-x="1536" 
d="M1352 1532v-1598q0 -207 -129.5 -331.5t-350.5 -124.5v166q137 0 215 85.5t78 247.5v62l-792 1145v-1184h-189v1532h158l823 -1186v1186h187z" />
    <glyph glyph-name="eng" unicode="&#x14b;" horiz-adv-x="1247" 
d="M672 1063q179 0 292 -117t113 -311v-789q0 -180 -97 -279t-269 -99v153q86 0 137 58t51 163v770q0 130 -72.5 208.5t-191.5 78.5q-122 0 -201.5 -84t-79.5 -205v-610h-176v1044h168v-155q41 76 125 125t201 49z" />
    <glyph glyph-name="Omacron" unicode="&#x14c;" horiz-adv-x="1773" 
d="M1137 1708h-541v137h541v-137zM887 1552q162 0 303 -55t244.5 -155t163 -248.5t59.5 -327.5t-59.5 -327.5t-163 -248.5t-244.5 -155t-303 -55q-163 0 -304.5 55t-245 155t-163 248.5t-59.5 327.5t59.5 327.5t163 248.5t245 155t304.5 55zM887 1384q-123 0 -229.5 -42
t-184.5 -119.5t-123 -195.5t-45 -261t45 -260.5t123 -195.5t184.5 -120.5t229.5 -42.5t229 42.5t183.5 120.5t122 195.5t44.5 260.5t-44.5 260.5t-122 195.5t-183.5 120t-229 42z" />
    <glyph glyph-name="omacron" unicode="&#x14d;" horiz-adv-x="1292" 
d="M913 1300h-540v138h540v-138zM645 1063q232 0 384.5 -148.5t152.5 -392.5t-152.5 -393t-384.5 -149q-152 0 -273 65.5t-192 190t-71 286.5q0 244 152 392.5t384 148.5zM645 909q-156 0 -257 -104t-101 -283t101 -284t257 -105t257.5 105t101.5 284t-101 283t-258 104z
" />
    <glyph glyph-name="Obreve" unicode="&#x14e;" horiz-adv-x="1773" 
d="M1042 1921h146q0 -132 -87.5 -202t-234.5 -70t-234 70t-87 202h145q0 -69 47 -109t129 -40q80 0 128 40t48 109zM887 1552q162 0 303 -55t244.5 -155t163 -248.5t59.5 -327.5t-59.5 -327.5t-163 -248.5t-244.5 -155t-303 -55q-163 0 -304.5 55t-245 155t-163 248.5
t-59.5 327.5t59.5 327.5t163 248.5t245 155t304.5 55zM887 1384q-123 0 -229.5 -42t-184.5 -119.5t-123 -195.5t-45 -261t45 -260.5t123 -195.5t184.5 -120.5t229.5 -42.5t229 42.5t183.5 120.5t122 195.5t44.5 260.5t-44.5 260.5t-122 195.5t-183.5 120t-229 42z" />
    <glyph glyph-name="obreve" unicode="&#x14f;" horiz-adv-x="1292" 
d="M819 1499h146q0 -132 -87.5 -203t-234.5 -71q-146 0 -233.5 71t-87.5 203h145q0 -70 47 -109.5t129 -39.5q80 0 128 39.5t48 109.5zM645 1063q232 0 384.5 -148.5t152.5 -392.5t-152.5 -393t-384.5 -149q-152 0 -273 65.5t-192 190t-71 286.5q0 244 152 392.5t384 148.5z
M645 909q-156 0 -257 -104t-101 -283t101 -284t257 -105t257.5 105t101.5 284t-101 283t-258 104z" />
    <glyph glyph-name="Ohungarumlaut" unicode="&#x150;" horiz-adv-x="1773" 
d="M750 1634h-142l125 303h168zM1098 1634h-140l123 303h168zM887 1552q162 0 303 -55t244.5 -155t163 -248.5t59.5 -327.5t-59.5 -327.5t-163 -248.5t-244.5 -155t-303 -55q-163 0 -304.5 55t-245 155t-163 248.5t-59.5 327.5t59.5 327.5t163 248.5t245 155t304.5 55z
M887 1384q-123 0 -229.5 -42t-184.5 -119.5t-123 -195.5t-45 -261t45 -260.5t123 -195.5t184.5 -120.5t229.5 -42.5t229 42.5t183.5 120.5t122 195.5t44.5 260.5t-44.5 260.5t-122 195.5t-183.5 120t-229 42z" />
    <glyph glyph-name="ohungarumlaut" unicode="&#x151;" horiz-adv-x="1292" 
d="M530 1239h-139l127 324h168zM879 1239h-140l127 324h170zM645 1063q232 0 384.5 -148.5t152.5 -392.5t-152.5 -393t-384.5 -149q-152 0 -273 65.5t-192 190t-71 286.5q0 244 152 392.5t384 148.5zM645 909q-156 0 -257 -104t-101 -283t101 -284t257 -105t257.5 105
t101.5 284t-101 283t-258 104z" />
    <glyph glyph-name="OE" unicode="&#x152;" horiz-adv-x="2494" 
d="M1655 1366v-494h669v-161h-669v-11v-534h760v-166h-947v225q-104 -119 -254 -182t-327 -63q-163 0 -304.5 55t-245 155t-163 248.5t-59.5 327.5t59.5 327.5t163 248.5t245 155t304.5 55q177 0 327 -63t254 -182v225h947v-166h-760zM887 147q123 0 229 42.5t183.5 120.5
t122 195.5t44.5 260.5t-44.5 260.5t-122 195.5t-183.5 120t-229 42t-229.5 -42t-184.5 -119.5t-123 -195.5t-45 -261t45 -260.5t123 -195.5t184.5 -120.5t229.5 -42.5z" />
    <glyph glyph-name="oe" unicode="&#x153;" horiz-adv-x="2105" 
d="M1995 455h-805q7 -149 96.5 -235.5t229.5 -86.5q116 0 190.5 48.5t101.5 137.5l177 -10q-33 -144 -160 -236.5t-305 -92.5q-139 0 -251.5 57t-181.5 162q-70 -104 -186 -161.5t-256 -57.5q-152 0 -273 65.5t-192 190t-71 286.5q0 244 152 392.5t384 148.5
q139 0 254.5 -57t187.5 -160q67 104 179 160.5t250 56.5q222 0 350.5 -139t128.5 -373v-96zM645 133q148 0 247 94.5t109 257.5v37v37q-10 162 -109 256t-247 94q-156 0 -257 -104t-101 -283t101 -284t257 -105zM1513 909q-139 0 -227.5 -81t-95.5 -230h629q-3 141 -82 226
t-224 85z" />
    <glyph glyph-name="Racute" unicode="&#x154;" horiz-adv-x="1404" 
d="M725 1628h-168l305 289h246zM1116 0l-344 614h-399v-614h-189v1532h592q207 0 339 -119.5t132 -339.5q0 -164 -75 -273t-205 -155l360 -645h-211zM371 780h383q130 0 215.5 75t85.5 218t-85.5 218t-215.5 75h-383v-586z" />
    <glyph glyph-name="racute" unicode="&#x155;" horiz-adv-x="696" 
d="M469 1219h-141l211 391h200zM657 1057v-170q-137 0 -220 -82t-83 -205v-600h-176v1044h172v-157q31 72 109 121t198 49z" />
    <glyph glyph-name="Rcommaaccent" unicode="&#x156;" horiz-adv-x="1404" 
d="M1327 0h-211l-344 614h-399v-614h-189v1532h592q207 0 339 -119.5t132 -339.5q0 -164 -75 -273t-205 -155zM371 780h383q130 0 215.5 75t85.5 218t-85.5 218t-215.5 75h-383v-586zM723 -84q53 0 83 -38t30 -99q0 -257 -232 -389v80q105 78 121 208q-48 0 -83.5 34
t-35.5 83q0 50 33.5 85.5t83.5 35.5z" />
    <glyph glyph-name="rcommaaccent" unicode="&#x157;" horiz-adv-x="696" 
d="M350 1044v-157q31 72 109 121t198 49v-170q-137 0 -220 -82t-83 -205v-600h-176v1044h172zM270 -84q53 0 83 -38t30 -99q0 -258 -231 -389v80q104 77 120 208q-48 0 -83 34t-35 83q0 50 33 85.5t83 35.5z" />
    <glyph glyph-name="Rcaron" unicode="&#x158;" horiz-adv-x="1404" 
d="M559 1628l-244 293h152l176 -184l174 184h154l-244 -293h-168zM1116 0l-344 614h-399v-614h-189v1532h592q207 0 339 -119.5t132 -339.5q0 -164 -75 -273t-205 -155l360 -645h-211zM371 780h383q130 0 215.5 75t85.5 218t-85.5 218t-215.5 75h-383v-586z" />
    <glyph glyph-name="rcaron" unicode="&#x159;" horiz-adv-x="696" 
d="M485 1217h-168l-245 344h151l178 -226l179 226h151zM657 1057v-170q-137 0 -220 -82t-83 -205v-600h-176v1044h172v-157q31 72 109 121t198 49z" />
    <glyph glyph-name="Sacute" unicode="&#x15a;" horiz-adv-x="1343" 
d="M752 1628h-168l305 289h246zM668 1552q230 0 374.5 -113.5t153.5 -312.5l-190 -12q-7 128 -97.5 201.5t-236.5 73.5q-159 0 -245.5 -74t-86.5 -191q0 -34 6 -62t20.5 -50.5t30.5 -40t44 -33t52.5 -26t65 -22t72 -19.5t82.5 -19q109 -26 183 -49.5t144.5 -58.5t111 -77.5
t65 -104t24.5 -140.5q0 -112 -42.5 -198t-118 -138.5t-172.5 -79t-212 -26.5q-162 0 -290 51t-206 153t-85 242l188 10q10 -133 120.5 -213t272.5 -80q161 0 258 66t97 199q0 34 -6.5 62t-22 51t-32 40.5t-48 34t-57 27.5t-71 24.5t-78.5 22t-91 22.5q-69 17 -114.5 29.5
t-102.5 33t-93.5 41.5t-75 53t-60 69t-35.5 88t-14 112q0 89 32.5 166.5t95 137.5t163 95t227.5 35z" />
    <glyph glyph-name="sacute" unicode="&#x15b;" horiz-adv-x="1021" 
d="M561 1219h-141l211 391h200zM500 1061q168 1 266.5 -85t116.5 -228l-176 -11q-9 81 -63 127t-150 45q-97 1 -148 -39.5t-51 -111.5q0 -18 3 -33t11.5 -27t16 -21t24 -17.5t27.5 -13.5t35.5 -11.5t38.5 -9.5t44.5 -10t47.5 -11q72 -17 123 -33.5t99 -41.5t77 -55t46 -73
t17 -98q0 -154 -105.5 -238.5t-289.5 -84.5q-177 0 -285.5 83t-128.5 234l176 12q12 -86 74.5 -131t167.5 -45q97 0 156 40t59 116q0 40 -12.5 65.5t-47.5 45.5t-76.5 33t-121.5 32q-54 12 -84.5 20t-73.5 22t-67 27.5t-52.5 35.5t-42.5 47t-24 60.5t-10 78.5
q0 139 101 222.5t282 82.5z" />
    <glyph glyph-name="Scircumflex" unicode="&#x15c;" horiz-adv-x="1343" 
d="M999 1628h-153l-174 184l-176 -184h-152l244 293h168zM668 1552q230 0 374.5 -113.5t153.5 -312.5l-190 -12q-7 128 -97.5 201.5t-236.5 73.5q-159 0 -245.5 -74t-86.5 -191q0 -34 6 -62t20.5 -50.5t30.5 -40t44 -33t52.5 -26t65 -22t72 -19.5t82.5 -19
q109 -26 183 -49.5t144.5 -58.5t111 -77.5t65 -104t24.5 -140.5q0 -112 -42.5 -198t-118 -138.5t-172.5 -79t-212 -26.5q-162 0 -290 51t-206 153t-85 242l188 10q10 -133 120.5 -213t272.5 -80q161 0 258 66t97 199q0 34 -6.5 62t-22 51t-32 40.5t-48 34t-57 27.5t-71 24.5
t-78.5 22t-91 22.5q-69 17 -114.5 29.5t-102.5 33t-93.5 41.5t-75 53t-60 69t-35.5 88t-14 112q0 89 32.5 166.5t95 137.5t163 95t227.5 35z" />
    <glyph glyph-name="scircumflex" unicode="&#x15d;" horiz-adv-x="1021" 
d="M825 1221h-151l-178 225l-179 -225h-151l246 346h168zM500 1061q168 1 266.5 -85t116.5 -228l-176 -11q-9 81 -63 127t-150 45q-97 1 -148 -39.5t-51 -111.5q0 -18 3 -33t11.5 -27t16 -21t24 -17.5t27.5 -13.5t35.5 -11.5t38.5 -9.5t44.5 -10t47.5 -11q72 -17 123 -33.5
t99 -41.5t77 -55t46 -73t17 -98q0 -154 -105.5 -238.5t-289.5 -84.5q-177 0 -285.5 83t-128.5 234l176 12q12 -86 74.5 -131t167.5 -45q97 0 156 40t59 116q0 40 -12.5 65.5t-47.5 45.5t-76.5 33t-121.5 32q-54 12 -84.5 20t-73.5 22t-67 27.5t-52.5 35.5t-42.5 47t-24 60.5
t-10 78.5q0 139 101 222.5t282 82.5z" />
    <glyph glyph-name="Scedilla" unicode="&#x15e;" horiz-adv-x="1343" 
d="M1241 422q0 -107 -39 -190.5t-108 -136t-158.5 -81.5t-196.5 -34l-20 -91q103 -8 165 -56.5t62 -137.5q0 -99 -75.5 -153t-182.5 -54q-115 0 -199 43l33 109q64 -41 150 -41q58 0 99.5 24.5t41.5 73.5q0 102 -160 102q-23 0 -59 -8l51 191q-150 8 -266 61.5t-186.5 152
t-77.5 230.5l188 10q10 -133 120.5 -213t272.5 -80q161 0 258 66t97 199q0 34 -6.5 62t-22 51t-32 40.5t-48 34t-57 27.5t-71 24.5t-78.5 22t-91 22.5q-69 17 -114.5 29.5t-102.5 33t-93.5 41.5t-75 53t-60 69t-35.5 88t-14 112q0 89 32.5 166.5t95 137.5t163 95t227.5 35
q230 0 374.5 -113.5t153.5 -312.5l-190 -12q-7 128 -97.5 201.5t-236.5 73.5q-159 0 -245.5 -74t-86.5 -191q0 -34 6 -62t20.5 -50.5t30.5 -40t44 -33t52.5 -26t65 -22t72 -19.5t82.5 -19q109 -26 183 -49.5t144.5 -58.5t111 -77.5t65 -104t24.5 -140.5z" />
    <glyph glyph-name="scedilla" unicode="&#x15f;" horiz-adv-x="1021" 
d="M905 303q0 -144 -93 -227t-257 -94l-20 -93q103 -8 165 -56.5t62 -137.5q0 -99 -75.5 -153t-182.5 -54q-115 0 -199 43l33 109q64 -41 149 -41q59 0 100.5 24.5t41.5 73.5q0 102 -160 102q-23 0 -59 -8l51 191q-155 10 -250.5 92.5t-114.5 222.5l176 12q12 -86 74.5 -131
t167.5 -45q97 0 156 40t59 116q0 40 -12.5 65.5t-47.5 45.5t-76.5 33t-121.5 32q-54 12 -84.5 20t-73.5 22t-67 27.5t-52.5 35.5t-42.5 47t-24 60.5t-10 78.5q0 139 101 222.5t282 82.5q168 1 266.5 -85t116.5 -228l-176 -11q-9 81 -63 127t-150 45q-97 1 -148 -39.5
t-51 -111.5q0 -18 3 -33t11.5 -27t16 -21t24 -17.5t27.5 -13.5t35.5 -11.5t38.5 -9.5t44.5 -10t47.5 -11q72 -17 123 -33.5t99 -41.5t77 -55t46 -73t17 -98z" />
    <glyph glyph-name="Scaron" unicode="&#x160;" horiz-adv-x="1343" 
d="M756 1628h-168l-244 293h152l176 -184l174 184h153zM668 1552q230 0 374.5 -113.5t153.5 -312.5l-190 -12q-7 128 -97.5 201.5t-236.5 73.5q-159 0 -245.5 -74t-86.5 -191q0 -34 6 -62t20.5 -50.5t30.5 -40t44 -33t52.5 -26t65 -22t72 -19.5t82.5 -19q109 -26 183 -49.5
t144.5 -58.5t111 -77.5t65 -104t24.5 -140.5q0 -112 -42.5 -198t-118 -138.5t-172.5 -79t-212 -26.5q-162 0 -290 51t-206 153t-85 242l188 10q10 -133 120.5 -213t272.5 -80q161 0 258 66t97 199q0 34 -6.5 62t-22 51t-32 40.5t-48 34t-57 27.5t-71 24.5t-78.5 22t-91 22.5
q-69 17 -114.5 29.5t-102.5 33t-93.5 41.5t-75 53t-60 69t-35.5 88t-14 112q0 89 32.5 166.5t95 137.5t163 95t227.5 35z" />
    <glyph glyph-name="scaron" unicode="&#x161;" horiz-adv-x="1021" 
d="M580 1217h-168l-246 344h151l179 -226l178 226h151zM500 1061q168 1 266.5 -85t116.5 -228l-176 -11q-9 81 -63 127t-150 45q-97 1 -148 -39.5t-51 -111.5q0 -18 3 -33t11.5 -27t16 -21t24 -17.5t27.5 -13.5t35.5 -11.5t38.5 -9.5t44.5 -10t47.5 -11q72 -17 123 -33.5
t99 -41.5t77 -55t46 -73t17 -98q0 -154 -105.5 -238.5t-289.5 -84.5q-177 0 -285.5 83t-128.5 234l176 12q12 -86 74.5 -131t167.5 -45q97 0 156 40t59 116q0 40 -12.5 65.5t-47.5 45.5t-76.5 33t-121.5 32q-54 12 -84.5 20t-73.5 22t-67 27.5t-52.5 35.5t-42.5 47t-24 60.5
t-10 78.5q0 139 101 222.5t282 82.5z" />
    <glyph glyph-name="Tcaron" unicode="&#x164;" horiz-adv-x="1396" 
d="M786 1628h-168l-243 293h151l176 -184l175 184h153zM1362 1366h-569v-1366h-189v1366h-569v166h1327v-166z" />
    <glyph glyph-name="tcaron" unicode="&#x165;" horiz-adv-x="1048" 
d="M909 1536q53 0 83 -38t30 -99q0 -258 -231 -389v80q104 77 120 208q-48 0 -83 34t-35 83q0 50 33 85.5t83 35.5zM399 891l-4 -543q0 -107 50.5 -155t134.5 -48q33 0 102 11v-158q-70 -12 -141 -12q-150 0 -236.5 81t-85.5 246l2 578h-194v153h194l2 361h178l-2 -361h281
v-153h-281z" />
    <glyph glyph-name="Tbar" unicode="&#x166;" horiz-adv-x="1396" 
d="M793 1366v-539h288v-145h-288v-682h-189v682h-287v145h287v539h-569v166h1327v-166h-569z" />
    <glyph glyph-name="tbar" unicode="&#x167;" horiz-adv-x="731" 
d="M580 145q33 0 102 11v-158q-70 -12 -141 -12q-150 0 -236.5 81t-85.5 246v174h-192v129h194v275h-194v153h194l2 361h178l-2 -361h281v-153h-281l-2 -275h283v-129h-285v-139q0 -107 50.5 -155t134.5 -48z" />
    <glyph glyph-name="Utilde" unicode="&#x168;" horiz-adv-x="1564" 
d="M633 1917q43 0 83.5 -20t66.5 -43.5t61 -43.5t67 -20q49 0 75 31.5t28 81.5h100q6 -102 -45 -174t-139 -72q-43 0 -83.5 19.5t-67 43t-61.5 43t-67 19.5q-48 0 -73 -30.5t-27 -80.5h-102q-6 102 45 174t139 72zM1393 1532v-957q0 -284 -164 -439.5t-447 -155.5
q-284 0 -447 155t-163 440v957h186v-954q0 -211 111.5 -321t312.5 -110q199 0 311.5 110.5t112.5 320.5v954h187z" />
    <glyph glyph-name="utilde" unicode="&#x169;" 
d="M459 1507q43 0 83.5 -19.5t66.5 -43t61 -43t67 -19.5q49 0 75 30.5t28 80.5h100q6 -100 -45 -173t-139 -73q-43 0 -83.5 19.5t-67 43t-61.5 43t-67 19.5q-48 0 -73 -30t-27 -80h-103q-6 101 45.5 173t139.5 72zM1032 0h-168v156q-34 -73 -113.5 -124.5t-199.5 -51.5
q-174 0 -277.5 115t-103.5 304v645h176v-620q0 -129 64.5 -204t181.5 -75q120 0 192 84t72 205v610h176v-1044z" />
    <glyph glyph-name="Umacron" unicode="&#x16a;" horiz-adv-x="1564" 
d="M1051 1708h-541v137h541v-137zM1393 1532v-957q0 -284 -164 -439.5t-447 -155.5q-284 0 -447 155t-163 440v957h186v-954q0 -211 111.5 -321t312.5 -110q199 0 311.5 110.5t112.5 320.5v954h187z" />
    <glyph glyph-name="umacron" unicode="&#x16b;" 
d="M881 1300h-541v138h541v-138zM1032 0h-168v156q-34 -73 -113.5 -124.5t-199.5 -51.5q-174 0 -277.5 115t-103.5 304v645h176v-620q0 -129 64.5 -204t181.5 -75q120 0 192 84t72 205v610h176v-1044z" />
    <glyph glyph-name="Ubreve" unicode="&#x16c;" horiz-adv-x="1564" 
d="M956 1921h146q0 -132 -87.5 -202t-234.5 -70t-234 70t-87 202h145q0 -69 47 -109t129 -40q80 0 128 40t48 109zM1393 1532v-957q0 -284 -164 -439.5t-447 -155.5q-284 0 -447 155t-163 440v957h186v-954q0 -211 111.5 -321t312.5 -110q199 0 311.5 110.5t112.5 320.5v954
h187z" />
    <glyph glyph-name="ubreve" unicode="&#x16d;" 
d="M784 1499h146q0 -132 -87.5 -203t-234.5 -71q-146 0 -233.5 71t-87.5 203h145q0 -70 47 -109.5t129 -39.5q80 0 128 39.5t48 109.5zM1032 0h-168v156q-34 -73 -113.5 -124.5t-199.5 -51.5q-174 0 -277.5 115t-103.5 304v645h176v-620q0 -129 64.5 -204t181.5 -75
q120 0 192 84t72 205v610h176v-1044z" />
    <glyph glyph-name="Uring" unicode="&#x16e;" horiz-adv-x="1564" 
d="M780 2025q89 0 150 -56.5t61 -143.5t-61 -144t-150 -57q-90 0 -150.5 57t-60.5 144t60.5 143.5t150.5 56.5zM780 1929q-48 0 -78 -28.5t-30 -75.5q0 -46 30.5 -75.5t77.5 -29.5q46 0 76.5 29.5t30.5 75.5q0 47 -30.5 75.5t-76.5 28.5zM1393 1532v-957q0 -284 -164 -439.5
t-447 -155.5q-284 0 -447 155t-163 440v957h186v-954q0 -211 111.5 -321t312.5 -110q199 0 311.5 110.5t112.5 320.5v954h187z" />
    <glyph glyph-name="uring" unicode="&#x16f;" 
d="M610 1634q97 0 164.5 -61.5t67.5 -155.5t-67.5 -156.5t-164.5 -62.5q-99 0 -167 62.5t-68 156.5t68 155.5t167 61.5zM608 1528q-53 0 -86 -31t-33 -80q0 -51 33 -81.5t86 -30.5t86 30.5t33 81.5q0 49 -33 80t-86 31zM1032 0h-168v156q-34 -73 -113.5 -124.5t-199.5 -51.5
q-174 0 -277.5 115t-103.5 304v645h176v-620q0 -129 64.5 -204t181.5 -75q120 0 192 84t72 205v610h176v-1044z" />
    <glyph glyph-name="Uhungarumlaut" unicode="&#x170;" horiz-adv-x="1564" 
d="M664 1634h-142l125 303h168zM1012 1634h-140l123 303h168zM1393 1532v-957q0 -284 -164 -439.5t-447 -155.5q-284 0 -447 155t-163 440v957h186v-954q0 -211 111.5 -321t312.5 -110q199 0 311.5 110.5t112.5 320.5v954h187z" />
    <glyph glyph-name="uhungarumlaut" unicode="&#x171;" 
d="M496 1239h-140l127 324h168zM844 1239h-139l126 324h170zM1032 0h-168v156q-34 -73 -113.5 -124.5t-199.5 -51.5q-174 0 -277.5 115t-103.5 304v645h176v-620q0 -129 64.5 -204t181.5 -75q120 0 192 84t72 205v610h176v-1044z" />
    <glyph glyph-name="Uogonek" unicode="&#x172;" horiz-adv-x="1564" 
d="M1393 1532v-957q0 -237 -115.5 -385t-321.5 -192q-90 -46 -134 -89.5t-44 -98.5q0 -46 31 -70.5t84 -24.5q60 0 115 25l18 -90q-78 -33 -162 -33q-97 0 -159 44.5t-62 127.5q0 113 131 191q-281 2 -441.5 156.5t-160.5 438.5v957h186v-954q0 -211 111.5 -321t312.5 -110
q199 0 311.5 110.5t112.5 320.5v954h187z" />
    <glyph glyph-name="uogonek" unicode="&#x173;" 
d="M1034 -262l19 -90q-78 -33 -162 -33q-97 0 -159 44.5t-62 127.5q0 72 49.5 125.5t144.5 97.5v146q-34 -73 -113.5 -124.5t-199.5 -51.5q-174 0 -277.5 115t-103.5 304v645h176v-620q0 -129 64.5 -204t181.5 -75q120 0 192 84t72 205v610h176v-1044h-39q-96 -49 -142 -92
t-46 -101q0 -46 31 -70t84 -24q59 0 114 25z" />
    <glyph glyph-name="Wcircumflex" unicode="&#x174;" horiz-adv-x="2289" 
d="M1473 1628h-154l-174 184l-176 -184h-152l244 293h168zM1714 0h-158l-411 1188l-410 -1188h-157l-537 1532h203l415 -1202l410 1202h154l411 -1202l414 1202h201z" />
    <glyph glyph-name="wcircumflex" unicode="&#x175;" horiz-adv-x="1679" 
d="M1169 1221h-151l-178 225l-178 -225h-152l246 346h168zM1262 0h-142l-280 748l-281 -748h-141l-398 1044h193l281 -757l282 757h125l285 -757l282 757h191z" />
    <glyph glyph-name="Ycircumflex" unicode="&#x176;" horiz-adv-x="1417" 
d="M1038 1628h-153l-174 184l-176 -184h-152l244 293h168zM803 637v-637h-187v637l-581 895h217l459 -711l454 711h217z" />
    <glyph glyph-name="ycircumflex" unicode="&#x177;" horiz-adv-x="1085" 
d="M874 1221h-151l-178 225l-178 -225h-152l246 346h168zM395 -522h-194l248 579l-416 987h196l316 -788l313 788h197z" />
    <glyph glyph-name="Ydieresis" unicode="&#x178;" horiz-adv-x="1417" 
d="M557 1884q44 0 75.5 -30.5t31.5 -73.5q0 -45 -31 -76t-76 -31t-75.5 30.5t-30.5 76.5q0 43 31 73.5t75 30.5zM864 1884q44 0 74.5 -30.5t30.5 -73.5q0 -46 -30.5 -76.5t-74.5 -30.5q-45 0 -76.5 31t-31.5 76q0 43 32 73.5t76 30.5zM803 637v-637h-187v637l-581 895h217
l459 -711l454 711h217z" />
    <glyph glyph-name="Zacute" unicode="&#x179;" horiz-adv-x="1265" 
d="M715 1628h-168l305 289h246zM1178 1391l-865 -1225h881v-166h-1120v141l862 1225h-834v166h1076v-141z" />
    <glyph glyph-name="zacute" unicode="&#x17a;" horiz-adv-x="917" 
d="M532 1219h-141l211 391h201zM829 926l-555 -783h580v-143h-786v117l557 782h-545v145h749v-118z" />
    <glyph glyph-name="Zdotaccent" unicode="&#x17b;" horiz-adv-x="1265" 
d="M635 1894q47 0 82 -35.5t35 -82.5q0 -50 -34.5 -84.5t-82.5 -34.5q-50 0 -85.5 34.5t-35.5 84.5q0 47 36 82.5t85 35.5zM1178 1391l-865 -1225h881v-166h-1120v141l862 1225h-834v166h1076v-141z" />
    <glyph glyph-name="zdotaccent" unicode="&#x17c;" horiz-adv-x="917" 
d="M467 1511q47 0 82 -34.5t35 -81.5q0 -49 -34.5 -84t-82.5 -35q-50 0 -85.5 35t-35.5 84q0 47 36 81.5t85 34.5zM829 926l-555 -783h580v-143h-786v117l557 782h-545v145h749v-118z" />
    <glyph glyph-name="Zcaron" unicode="&#x17d;" horiz-adv-x="1265" 
d="M717 1628h-168l-244 293h152l176 -184l174 184h154zM1178 1391l-865 -1225h881v-166h-1120v141l862 1225h-834v166h1076v-141z" />
    <glyph glyph-name="zcaron" unicode="&#x17e;" horiz-adv-x="917" 
d="M549 1217h-168l-246 344h152l178 -226l178 226h152zM829 926l-555 -783h580v-143h-786v117l557 782h-545v145h749v-118z" />
    <glyph glyph-name="florin" unicode="&#x192;" horiz-adv-x="884" 
d="M694 1610q162 0 273 -90l-74 -146q-74 78 -182 78q-77 0 -122.5 -43.5t-62.5 -142.5l-39 -222h308v-149h-334l-211 -1186h-180l209 1186h-224v149h250l45 252q55 314 344 314z" />
    <glyph glyph-name="Aringacute" unicode="&#x1fa;" horiz-adv-x="1503" 
d="M764 1581q-90 0 -150.5 57t-60.5 144q0 56 26.5 100.5t71.5 71.5l267 223h227l-309 -207q62 -21 99.5 -71t37.5 -117q0 -87 -60 -144t-149 -57zM870 1782q0 47 -30 75.5t-76 28.5q-48 0 -78.5 -28.5t-30.5 -75.5q0 -46 31 -75.5t78 -29.5q46 0 76 29.5t30 75.5zM1473 0
h-205l-160 389h-711l-161 -389h-205l641 1532h159zM1038 553l-284 690l-287 -690h571z" />
    <glyph glyph-name="aringacute" unicode="&#x1fb;" horiz-adv-x="1110" 
d="M559 1192q-90 0 -151.5 57t-61.5 144q0 108 88 166l279 229h227l-311 -205q63 -21 101 -71t38 -119q0 -87 -60 -144t-149 -57zM666 1393q0 47 -30.5 75.5t-76.5 28.5q-48 0 -78 -28.5t-30 -75.5q0 -46 30.5 -75.5t77.5 -29.5q46 0 76.5 29.5t30.5 75.5zM541 1063
q193 0 296 -106t103 -300v-657h-178v123q-121 -143 -311 -143q-155 0 -248.5 78t-93.5 218q0 291 383 312l270 16v49q0 122 -54.5 188t-164.5 66t-169 -63.5t-59 -153.5l-178 8q0 68 28 133t78 117t128 83.5t170 31.5zM764 463l-250 -17q-227 -13 -227 -165q0 -150 190 -150
q128 0 207.5 70.5t79.5 218.5v43z" />
    <glyph glyph-name="AEacute" unicode="&#x1fc;" horiz-adv-x="2086" 
d="M1417 1628h-168l305 289h246zM1249 1366v-494h670v-161h-670v-545h760v-166h-948v389h-557l-258 -389h-228l1022 1532h969v-166h-760zM1061 553v680l-449 -680h449z" />
    <glyph glyph-name="aeacute" unicode="&#x1fd;" horiz-adv-x="1865" 
d="M967 1219h-142l211 391h201zM1759 455h-807q7 -149 97 -235.5t229 -86.5q116 0 192 49t101 137l178 -10q-34 -144 -161.5 -236.5t-305.5 -92.5q-135 0 -245 54.5t-179 155.5q-63 -99 -165.5 -154.5t-235.5 -55.5q-159 0 -253.5 80t-94.5 221q0 286 383 307l270 16v37
q0 128 -54.5 199t-164.5 71t-169 -64.5t-59 -156.5l-178 8q0 68 28 133t78 117t128 83.5t170 31.5q237 0 336 -182q141 182 401 182q223 0 352 -139.5t129 -372.5v-96zM1276 909q-137 0 -226 -81.5t-98 -229.5h629q-3 142 -81 226.5t-224 84.5zM764 463l-250 -17
q-109 -6 -168 -43.5t-59 -119.5q0 -150 190 -150q45 0 85 8.5t77.5 29.5t64.5 53t43.5 82t16.5 114v43z" />
    <glyph glyph-name="Oslashacute" unicode="&#x1fe;" horiz-adv-x="1734" 
d="M948 1628h-168l305 289h246zM1532 1520l-121 -156q118 -105 182 -257t64 -341q0 -179 -59.5 -327.5t-163 -248.5t-244.5 -155t-303 -55q-250 0 -441 122l-133 -174l-114 88l135 177q-219 216 -219 573q0 179 59.5 327.5t163 248.5t245 155t304.5 55q228 0 407 -104
l123 160zM305 766q0 -259 141 -426l742 969q-132 75 -301 75q-123 0 -229.5 -42t-184.5 -119.5t-123 -195.5t-45 -261zM887 147q123 0 229 42.5t183.5 120.5t122 195.5t44.5 260.5q0 287 -163 453l-748 -975q145 -97 332 -97z" />
    <glyph glyph-name="oslashacute" unicode="&#x1ff;" horiz-adv-x="1292" 
d="M711 1219h-142l211 391h201zM1108 1024l-82 -106q156 -153 156 -396q0 -244 -152.5 -393t-384.5 -149q-153 0 -276 69l-90 -119l-99 74l88 117q-159 153 -159 401q0 244 152 392.5t384 148.5q160 0 283 -72l82 107zM287 522q0 -163 86 -266l458 606q-83 47 -186 47
q-156 0 -257 -104t-101 -283zM645 133q156 0 257.5 105t101.5 284q0 159 -80 258l-457 -602q82 -45 178 -45z" />
    <glyph glyph-name="Scommaaccent" unicode="&#x218;" horiz-adv-x="1343" 
d="M713 852q109 -26 183 -49.5t144.5 -58.5t111 -77.5t65 -104t24.5 -140.5q0 -112 -42.5 -198t-118 -138.5t-172.5 -79t-212 -26.5q-162 0 -290 51t-206 153t-85 242l188 10q10 -133 120.5 -213t272.5 -80q161 0 258 66t97 199q0 34 -6.5 62t-22 51t-32 40.5t-48 34
t-57 27.5t-71 24.5t-78.5 22t-91 22.5q-69 17 -114.5 29.5t-102.5 33t-93.5 41.5t-75 53t-60 69t-35.5 88t-14 112q0 89 32.5 166.5t95 137.5t163 95t227.5 35q230 0 374.5 -113.5t153.5 -312.5l-190 -12q-7 128 -97.5 201.5t-236.5 73.5q-159 0 -245.5 -74t-86.5 -191
q0 -34 6 -62t20.5 -50.5t30.5 -40t44 -33t52.5 -26t65 -22t72 -19.5t82.5 -19zM692 -94q53 0 83 -38t30 -99q0 -258 -232 -390v80q105 78 121 209q-48 0 -83.5 34t-35.5 83q0 50 33.5 85.5t83.5 35.5z" />
    <glyph glyph-name="scommaaccent" unicode="&#x219;" horiz-adv-x="1021" 
d="M543 604q72 -17 123 -33.5t99 -41.5t77 -55t46 -73t17 -98q0 -154 -105.5 -238.5t-289.5 -84.5q-177 0 -285.5 83t-128.5 234l176 12q12 -86 74.5 -131t167.5 -45q97 0 156 40t59 116q0 40 -12.5 65.5t-47.5 45.5t-76.5 33t-121.5 32q-54 12 -84.5 20t-73.5 22t-67 27.5
t-52.5 35.5t-42.5 47t-24 60.5t-10 78.5q0 139 101 222.5t282 82.5q168 1 266.5 -85t116.5 -228l-176 -11q-9 81 -63 127t-150 45q-97 1 -148 -39.5t-51 -111.5q0 -18 3 -33t11.5 -27t16 -21t24 -17.5t27.5 -13.5t35.5 -11.5t38.5 -9.5t44.5 -10t47.5 -11zM506 -94
q53 0 82.5 -38t29.5 -99q0 -259 -231 -390v80q105 78 121 209q-48 0 -83.5 34t-35.5 83q0 50 33.5 85.5t83.5 35.5z" />
    <glyph glyph-name="uni021A" unicode="&#x21a;" horiz-adv-x="1396" 
d="M1362 1532v-166h-569v-1366h-189v1366h-569v166h1327zM700 -84q53 0 83 -38t30 -99q0 -258 -231 -389v80q104 77 120 208q-48 0 -83 34t-35 83q0 50 33 85.5t83 35.5z" />
    <glyph glyph-name="uni021B" unicode="&#x21b;" horiz-adv-x="731" 
d="M580 145q33 0 102 11v-158q-70 -12 -141 -12q-150 0 -236.5 81t-85.5 246l2 578h-194v153h194l2 361h178l-2 -361h281v-153h-281l-4 -543q0 -107 50.5 -155t134.5 -48zM434 -100q53 0 83 -38.5t30 -99.5q0 -257 -232 -389v80q105 78 121 209q-48 0 -83.5 34t-35.5 83
q0 50 33.5 85.5t83.5 35.5z" />
    <glyph glyph-name="dotlessj" unicode="&#x237;" horiz-adv-x="534" 
d="M358 1044v-1200q0 -191 -89.5 -286t-245.5 -95q-103 0 -170 43l65 146q51 -31 86 -31q85 0 131.5 53.5t46.5 161.5v1208h176z" />
    <glyph glyph-name="circumflex" unicode="&#x2c6;" horiz-adv-x="722" 
d="M692 1221h-151l-179 225l-178 -225h-151l246 346h167z" />
    <glyph glyph-name="caron" unicode="&#x2c7;" horiz-adv-x="722" 
d="M446 1217h-167l-246 344h151l178 -226l179 226h151z" />
    <glyph glyph-name="breve" unicode="&#x2d8;" horiz-adv-x="722" 
d="M537 1499h145q0 -132 -87.5 -203t-234.5 -71q-146 0 -233.5 71t-87.5 203h145q0 -70 47 -109.5t129 -39.5q81 0 129 39.5t48 109.5z" />
    <glyph glyph-name="dotaccent" unicode="&#x2d9;" horiz-adv-x="317" 
d="M160 1511q47 0 81.5 -34.5t34.5 -81.5q0 -49 -34.5 -84t-81.5 -35q-50 0 -85.5 35t-35.5 84q0 47 36 81.5t85 34.5z" />
    <glyph glyph-name="ring" unicode="&#x2da;" horiz-adv-x="542" 
d="M274 1634q97 0 164.5 -61.5t67.5 -155.5t-67.5 -156.5t-164.5 -62.5q-99 0 -167 62.5t-68 156.5t68 155.5t167 61.5zM272 1528q-53 0 -85.5 -31t-32.5 -80q0 -51 32.5 -81.5t85.5 -30.5t86 30.5t33 81.5q0 49 -33 80t-86 31z" />
    <glyph glyph-name="ogonek" unicode="&#x2db;" horiz-adv-x="475" 
d="M354 57l29 -49q-98 -49 -145.5 -92.5t-47.5 -101.5q0 -46 31 -70.5t84 -24.5q60 0 115 25l18 -90q-78 -33 -162 -33q-97 0 -159 44.5t-62 127.5q0 90 77 152t222 112z" />
    <glyph glyph-name="tilde" unicode="&#x2dc;" horiz-adv-x="739" 
d="M221 1507q43 0 83.5 -19.5t67 -43t61.5 -43t67 -19.5q49 0 74.5 30.5t27.5 80.5h100q6 -100 -45 -173t-139 -73q-43 0 -83.5 19.5t-66.5 43t-61 43t-67 19.5q-48 0 -73.5 -30.5t-27.5 -79.5h-102q-6 101 45 173t139 72z" />
    <glyph glyph-name="hungarumlaut" unicode="&#x2dd;" horiz-adv-x="714" 
d="M176 1239h-139l127 324h168zM524 1239h-139l127 324h170z" />
    <glyph glyph-name="uni0326" unicode="&#x326;" horiz-adv-x="0" 
d="M209 -84q53 0 83 -37.5t30 -99.5q0 -255 -232 -387v78q105 78 121 208q-48 0 -83.5 34t-35.5 83q0 51 33 86t84 35z" />
    <glyph glyph-name="Omega" unicode="&#x3a9;" horiz-adv-x="1605" 
d="M803 1473q155 0 281 -54.5t209 -149.5t128 -224t45 -279q0 -102 -27.5 -202.5t-72.5 -180.5t-91 -140.5t-95 -105.5h379v-137h-574v125q58 40 115.5 105t106.5 147t79.5 183t30.5 200q0 254 -137 414.5t-377 160.5q-161 0 -279 -75.5t-177.5 -204.5t-59.5 -295
q0 -99 30.5 -200t79.5 -183t106 -147t115 -105v-125h-571v137h377q-48 45 -94.5 105.5t-91 140.5t-72 180.5t-27.5 202.5q0 201 76.5 359.5t229 253t358.5 94.5z" />
    <glyph glyph-name="mu" unicode="&#x3bc;" horiz-adv-x="1220" 
d="M1040 1044v-1044h-166v156q-34 -73 -113.5 -124.5t-199.5 -51.5q-117 0 -207 55v-557h-176v1548h2v18h174v-620q0 -129 65.5 -204t182.5 -75q120 0 191 84t71 205v610h176z" />
    <glyph glyph-name="pi" unicode="&#x3c0;" horiz-adv-x="1351" 
d="M1155 1073l137 -80q-41 -98 -108 -155.5t-180 -57.5h-41l-66 -534q-16 -113 78 -113q50 0 108 45l80 -104q-93 -90 -215 -90q-113 0 -160 67.5t-34 186.5l65 542h-254l-57 -448q-23 -182 -96 -332h-166q48 98 74 175.5t42 186.5l52 418h-74q-109 0 -197 -88l-82 121
q44 40 79.5 64t96 42.5t136.5 18.5h547q95 0 146.5 33t88.5 102z" />
    <glyph glyph-name="Wgrave" unicode="&#x1e80;" horiz-adv-x="2289" 
d="M1223 1628h-168l-383 289h248zM1714 0h-158l-411 1188l-410 -1188h-157l-537 1532h203l415 -1202l410 1202h154l411 -1202l414 1202h201z" />
    <glyph glyph-name="wgrave" unicode="&#x1e81;" horiz-adv-x="1679" 
d="M905 1219h-139l-272 391h202zM1262 0h-142l-280 748l-281 -748h-141l-398 1044h193l281 -757l282 757h125l285 -757l282 757h191z" />
    <glyph glyph-name="Wacute" unicode="&#x1e82;" horiz-adv-x="2289" 
d="M1227 1628h-168l305 289h246zM1714 0h-158l-411 1188l-410 -1188h-157l-537 1532h203l415 -1202l410 1202h154l411 -1202l414 1202h201z" />
    <glyph glyph-name="wacute" unicode="&#x1e83;" horiz-adv-x="1679" 
d="M907 1219h-141l211 391h201zM1262 0h-142l-280 748l-281 -748h-141l-398 1044h193l281 -757l282 757h125l285 -757l282 757h191z" />
    <glyph glyph-name="Wdieresis" unicode="&#x1e84;" horiz-adv-x="2289" 
d="M993 1884q44 0 75.5 -30.5t31.5 -73.5q0 -45 -31 -76t-76 -31t-75.5 30.5t-30.5 76.5q0 43 31 73.5t75 30.5zM1300 1884q44 0 74.5 -30.5t30.5 -73.5q0 -46 -30.5 -76.5t-74.5 -30.5q-45 0 -76.5 31t-31.5 76q0 43 32 73.5t76 30.5zM1714 0h-158l-411 1188l-410 -1188
h-157l-537 1532h203l415 -1202l410 1202h154l411 -1202l414 1202h201z" />
    <glyph glyph-name="wdieresis" unicode="&#x1e85;" horiz-adv-x="1679" 
d="M680 1499q44 0 75 -30.5t31 -73.5q0 -45 -30.5 -75t-75.5 -30t-76 30t-31 75q0 43 31.5 73.5t75.5 30.5zM987 1499q44 0 74.5 -30.5t30.5 -73.5q0 -45 -30 -75t-75 -30t-76.5 30t-31.5 75q0 43 32 73.5t76 30.5zM1262 0h-142l-280 748l-281 -748h-141l-398 1044h193
l281 -757l282 757h125l285 -757l282 757h191z" />
    <glyph glyph-name="Ygrave" unicode="&#x1ef2;" horiz-adv-x="1417" 
d="M786 1628h-168l-382 289h247zM803 637v-637h-187v637l-581 895h217l459 -711l454 711h217z" />
    <glyph glyph-name="ygrave" unicode="&#x1ef3;" horiz-adv-x="1085" 
d="M610 1219h-139l-272 391h202zM395 -522h-194l248 579l-416 987h196l316 -788l313 788h197z" />
    <glyph glyph-name="endash" unicode="&#x2013;" horiz-adv-x="1153" 
d="M1061 453h-969v165h969v-165z" />
    <glyph glyph-name="emdash" unicode="&#x2014;" horiz-adv-x="1628" 
d="M1536 453h-1444v165h1444v-165z" />
    <glyph glyph-name="quoteleft" unicode="&#x2018;" horiz-adv-x="372" 
d="M313 1536v-80q-104 -77 -120 -209q48 0 83 -34t35 -83q0 -50 -32.5 -85t-81.5 -35q-54 0 -84.5 37.5t-30.5 99.5q0 258 231 389z" />
    <glyph glyph-name="quoteright" unicode="&#x2019;" horiz-adv-x="372" 
d="M178 1536q53 0 83 -38t30 -99q0 -257 -230 -389v77q104 81 119 211q-50 2 -83.5 35t-33.5 82q0 50 32.5 85.5t82.5 35.5z" />
    <glyph glyph-name="quotesinglbase" unicode="&#x201a;" horiz-adv-x="372" 
d="M178 221q53 0 83 -38t30 -99q0 -257 -230 -389v80q103 78 119 209q-50 2 -83.5 34.5t-33.5 81.5q0 50 32.5 85.5t82.5 35.5z" />
    <glyph glyph-name="quotedblleft" unicode="&#x201c;" horiz-adv-x="714" 
d="M72 1147q0 258 231 389v-80q-105 -78 -121 -209q48 0 83.5 -34t35.5 -83q0 -50 -33.5 -85t-83.5 -35q-53 0 -82.5 38t-29.5 99zM645 1536v-80q-105 -78 -121 -209q48 0 83.5 -34t35.5 -83q0 -50 -33.5 -85t-83.5 -35q-53 0 -82.5 38t-29.5 99q0 258 231 389z" />
    <glyph glyph-name="quotedblright" unicode="&#x201d;" horiz-adv-x="714" 
d="M168 1536q53 0 83 -38t30 -99q0 -257 -232 -389v80q105 78 121 208q-48 0 -83.5 34t-35.5 83q0 50 33.5 85.5t83.5 35.5zM510 1536q53 0 83 -38t30 -99q0 -257 -232 -389v80q105 78 121 208q-48 0 -83.5 34t-35.5 83q0 50 33.5 85.5t83.5 35.5z" />
    <glyph glyph-name="quotedblbase" unicode="&#x201e;" horiz-adv-x="714" 
d="M178 221q53 0 83 -38t30 -99q0 -257 -230 -389v80q103 78 119 209q-50 2 -83.5 34.5t-33.5 81.5q0 50 32.5 85.5t82.5 35.5zM520 221q53 0 83 -38t30 -99q0 -257 -232 -389v80q105 78 121 209q-48 0 -83.5 33.5t-35.5 82.5q0 50 33.5 85.5t83.5 35.5z" />
    <glyph glyph-name="dagger" unicode="&#x2020;" horiz-adv-x="1009" 
d="M594 1110h375v-160h-375v-1087h-176v1087h-377v160h377v422h176v-422z" />
    <glyph glyph-name="daggerdbl" unicode="&#x2021;" horiz-adv-x="1009" 
d="M594 1110h375v-160h-375v-504h375v-161h-375v-422h-176v422h-377v161h377v504h-377v160h377v422h176v-422z" />
    <glyph glyph-name="bullet" unicode="&#x2022;" horiz-adv-x="714" 
d="M358 768q101 0 172.5 -71.5t71.5 -174.5q0 -104 -71 -176t-173 -72q-104 0 -175.5 72t-71.5 176q0 103 71.5 174.5t175.5 71.5z" />
    <glyph glyph-name="ellipsis" unicode="&#x2026;" horiz-adv-x="1277" 
d="M211 223q51 0 87 -36t36 -87q0 -50 -36 -85t-87 -35q-49 0 -84 35t-35 85q0 51 35 87t84 36zM629 223q51 0 87 -36t36 -87q0 -50 -36 -85t-87 -35q-50 0 -85.5 35.5t-35.5 84.5q0 51 35.5 87t85.5 36zM1047 223q52 0 87 -36t35 -87q0 -50 -35 -85t-87 -35q-49 0 -84 35
t-35 85q0 51 35 87t84 36z" />
    <glyph glyph-name="perthousand" unicode="&#x2030;" horiz-adv-x="2510" 
d="M414 1552q147 0 240.5 -99t93.5 -265t-93.5 -266.5t-240.5 -100.5t-241.5 100.5t-94.5 266.5t94.5 265t241.5 99zM406 0h-175l1082 1532h174zM412 1425q-89 0 -146 -63.5t-57 -173.5q0 -111 57 -176.5t146 -65.5q90 0 146 65t56 177q0 111 -55.5 174t-146.5 63zM1305 711
q148 0 241.5 -99t93.5 -266q0 -165 -93.5 -265.5t-241.5 -100.5q-145 0 -239.5 100.5t-94.5 265.5q0 166 94.5 265.5t239.5 99.5zM2099 711q147 0 240.5 -99.5t93.5 -265.5q0 -165 -93.5 -265.5t-240.5 -100.5t-241.5 100.5t-94.5 265.5q0 166 94.5 265.5t241.5 99.5z
M1305 586q-90 0 -146.5 -64t-56.5 -176q0 -110 57.5 -175t145.5 -65q91 0 146.5 64t55.5 176t-55.5 176t-146.5 64zM2097 586q-90 0 -146.5 -64t-56.5 -176q0 -110 57.5 -175t145.5 -65q91 0 148 64t57 176t-57 176t-148 64z" />
    <glyph glyph-name="guilsinglleft" unicode="&#x2039;" horiz-adv-x="626" 
d="M588 854l-342 -334l342 -334l-129 -112l-428 446l428 447z" />
    <glyph glyph-name="guilsinglright" unicode="&#x203a;" horiz-adv-x="626" 
d="M598 520l-430 -446l-127 112l342 334l-342 334l127 113z" />
    <glyph glyph-name="fraction" unicode="&#x2044;" horiz-adv-x="403" 
d="M-246 0h-182l1079 1532h183z" />
    <glyph glyph-name="Euro" unicode="&#x20ac;" horiz-adv-x="1445" 
d="M1270 274l80 -155q-93 -71 -199.5 -105t-247.5 -34q-158 0 -292.5 63.5t-231.5 189t-137 299.5h-226l41 111h166q-6 59 -6 123q0 60 6 119h-207l41 110h185q57 262 238 409.5t425 147.5q131 0 232 -33t190 -100l-59 -153q-143 118 -355 118q-178 0 -303 -101t-174 -288
h719l-43 -110h-698q-6 -55 -6 -119q0 -71 8 -123h596l-41 -111h-535q50 -185 177 -285t300 -100q210 0 357 127z" />
    <glyph glyph-name="trademark" unicode="&#x2122;" horiz-adv-x="1804" 
d="M733 1405h-270v-608h-131v608h-266v127h667v-127zM1669 797h-133v448l-250 -444h-61l-250 444v-448h-131v735h108l303 -537l304 537h110v-735z" />
    <glyph glyph-name="estimated" unicode="&#x212e;" horiz-adv-x="1257" 
d="M657 1102q142 0 256 -59.5t184 -180t70 -284.5h-843v-357q0 -78 53 -108q109 -90 280 -90q148 0 268 71t197 189l35 -23q-88 -134 -216.5 -208.5t-283.5 -74.5q-157 0 -285.5 69.5t-204 198t-75.5 290.5q0 165 75.5 295.5t204 201t285.5 70.5zM655 1057q-163 0 -278 -90
q-53 -23 -53 -103v-243h628v249q0 52 -11 75.5t-48 43.5q-97 68 -238 68z" />
    <glyph glyph-name="partialdiff" unicode="&#x2202;" horiz-adv-x="1255" 
d="M592 1552q95 0 174 -28.5t135.5 -78t100.5 -122t71.5 -154.5t44.5 -182.5t24 -198.5t7 -210q0 -282 -144.5 -441.5t-392.5 -159.5q-106 0 -200.5 37t-164.5 103t-110.5 163t-40.5 212q0 223 144 359t368 136q216 0 350 -147q-6 122 -27.5 216.5t-62.5 170.5t-109.5 116.5
t-162.5 40.5q-105 0 -186 -37t-154 -110l-100 154q97 81 199 121t237 40zM625 145q147 0 242.5 94t95.5 250v9q-1 151 -97.5 247.5t-240.5 96.5q-146 0 -242 -97t-96 -251q0 -157 94.5 -253t243.5 -96z" />
    <glyph glyph-name="product" unicode="&#x220f;" horiz-adv-x="1316" 
d="M1266 1366h-211v-1702h-160v1702h-473v-1702h-160v1702h-211v166h1215v-166z" />
    <glyph glyph-name="summation" unicode="&#x2211;" horiz-adv-x="1228" 
d="M1133 1366h-816l451 -600l-451 -600h816v-166h-1033v137l473 629l-473 629v137h1033v-166z" />
    <glyph glyph-name="minus" unicode="&#x2212;" horiz-adv-x="1118" 
d="M1051 676h-983v166h983v-166z" />
    <glyph glyph-name="radical" unicode="&#x221a;" horiz-adv-x="1296" 
d="M1235 1360l-561 -1518l-295 699l-229 -150l-91 139l387 246l226 -563l418 1208z" />
    <glyph glyph-name="infinity" unicode="&#x221e;" horiz-adv-x="1611" 
d="M1182 1014q160 0 263 -112t103 -275q0 -165 -103 -278t-263 -113q-202 0 -371 213l-45 55l-43 -55q-78 -85 -157 -133t-173 -48q-148 0 -239 102t-91 255q0 150 91.5 253t238.5 103q100 0 178 -47.5t150 -136.5l43 -56l37 45q44 54 80.5 90.5t83.5 70.5t101 50.5
t116 16.5zM1182 864q-83 0 -147.5 -47.5t-139.5 -142.5l-39 -51l43 -58q68 -81 134 -129.5t149 -48.5q96 0 156.5 69.5t60.5 170.5q0 99 -60.5 168t-156.5 69zM397 836q-87 0 -139.5 -61t-52.5 -150q0 -90 52.5 -151.5t139.5 -61.5q128 0 242 151l47 60l-45 55
q-62 78 -119.5 118t-124.5 40z" />
    <glyph glyph-name="integral" unicode="&#x222b;" horiz-adv-x="694" 
d="M524 1552q87 0 176 -28l-30 -135q-52 18 -109 18q-73 0 -102 -40.5t-29 -139.5v-1250q0 -171 -60.5 -249t-193.5 -78q-91 0 -178 26l31 136q66 -19 104 -19q78 0 110.5 43.5t32.5 145.5v1251q0 165 58.5 242t189.5 77z" />
    <glyph glyph-name="approxequal" unicode="&#x2248;" horiz-adv-x="1097" 
d="M973 1141l82 -117q-69 -86 -140.5 -129t-169.5 -43q-62 0 -117.5 20t-90.5 43.5t-83 43.5t-96 20q-76 0 -126.5 -27t-106.5 -92l-82 119q68 84 136.5 125t162.5 41q53 0 104 -20t85.5 -43.5t87.5 -43.5t110 -20q81 0 135 28.5t109 94.5zM973 662l82 -119
q-69 -85 -140.5 -127.5t-169.5 -42.5q-62 0 -117.5 20t-90.5 43.5t-83 43.5t-96 20q-76 0 -126.5 -27t-106.5 -92l-82 117q69 85 137 126.5t162 41.5q44 0 84.5 -13.5t73 -32t65 -37.5t75 -32.5t89.5 -13.5q80 0 134.5 29.5t109.5 95.5z" />
    <glyph glyph-name="notequal" unicode="&#x2260;" horiz-adv-x="1118" 
d="M686 915l-111 -323h476v-166h-533l-92 -268l-152 37l80 231h-286v166h342l110 323h-452v168h512l90 267l153 -39l-78 -228h306v-168h-365z" />
    <glyph glyph-name="lessequal" unicode="&#x2264;" horiz-adv-x="1060" 
d="M995 1180l-581 -256l581 -256l-4 -181l-936 437l936 436zM995 203h-940v166h940v-166z" />
    <glyph glyph-name="greaterequal" unicode="&#x2265;" horiz-adv-x="1060" 
d="M1006 924l-936 -437l-2 181l581 256l-581 256l2 180zM1006 203h-938v166h938v-166z" />
    <glyph glyph-name="lozenge" unicode="&#x25ca;" horiz-adv-x="1097" 
d="M1026 709l-420 -822h-112l-422 822l422 823h112zM258 709l293 -566l291 566l-291 567z" />
    <glyph glyph-name="fl" unicode="&#xfb02;" horiz-adv-x="1236" 
d="M598 1599q32 0 78 -4v-153q-32 4 -60 4q-97 0 -155 -59.5t-58 -163.5v-179h269v-153h-269v-891h-176v891h-202v153h202v175q0 178 100.5 279t270.5 101zM1057 0h-176v1591h176v-1591z" />
    <glyph glyph-name="n.001" horiz-adv-x="1247" 
d="M676 1063q179 0 290 -112.5t111 -299.5v-651h-178v612q0 130 -72.5 208.5t-191.5 78.5q-122 0 -201.5 -84t-79.5 -205v-610h-176v1044h168v-182q30 83 119 142t211 59z" />
    <glyph glyph-name="germandbls.cap" horiz-adv-x="1411" 
d="M674 1548q326 0 530 -245l-237 -369q167 -47 261.5 -160t94.5 -301q0 -225 -152 -357t-399 -132q-102 0 -180 16l37 166q49 -16 135 -16q163 0 264.5 86.5t101.5 234.5q0 164 -108 250.5t-320 122.5l261 418q-104 120 -297 120q-133 0 -221.5 -78.5t-88.5 -205.5v-1098
h-186v1096q0 202 143.5 327t360.5 125z" />
    <glyph glyph-name="a.sups" horiz-adv-x="903" 
d="M446 1548q162 0 244 -83t82 -244v-525h-149v107q-35 -54 -106 -88.5t-159 -34.5q-126 0 -200 60.5t-74 174.5q0 84 46 140t118.5 82t171.5 32l192 13v49q0 87 -42.5 133.5t-123.5 46.5q-87 0 -134.5 -49t-47.5 -117l-155 6q0 118 92 207.5t245 89.5zM614 1069l-182 -12
q-186 -13 -186 -133q0 -119 143 -119q58 -1 107 20t83.5 74.5t34.5 132.5v37z" />
    <glyph glyph-name="b.sups" horiz-adv-x="1067" 
d="M297 1970v-551q35 58 108.5 93.5t169.5 35.5q177 0 291.5 -118.5t114.5 -315.5t-114.5 -315.5t-291.5 -118.5q-100 0 -175.5 37.5t-110.5 99.5v-121h-150v1274h158zM551 1411q-113 0 -183.5 -71t-70.5 -201v-49q0 -130 70.5 -201.5t183.5 -71.5q119 0 194.5 78t75.5 217
q0 141 -75.5 220t-194.5 79z" />
    <glyph glyph-name="c.sups" horiz-adv-x="950" 
d="M500 1548q153 0 257 -84.5t124 -230.5l-154 -14q-12 90 -73.5 141t-153.5 51q-113 0 -183.5 -79t-70.5 -220q0 -137 71.5 -216t182.5 -79q94 0 153.5 47.5t73.5 132.5l154 -14q-23 -141 -125.5 -222t-255.5 -81q-182 0 -299 116.5t-117 315.5q0 203 116 319.5t300 116.5z
" />
    <glyph glyph-name="d.sups" horiz-adv-x="1067" 
d="M926 696h-148v121q-35 -62 -112 -99.5t-177 -37.5q-177 0 -291 118.5t-114 315.5t114 315.5t291 118.5q98 0 172 -35.5t107 -93.5v551h158v-1274zM514 1411q-118 0 -193 -79t-75 -220q0 -139 75 -217t193 -78q113 0 183.5 71.5t70.5 201.5v49q0 130 -70.5 201t-183.5 71z
" />
    <glyph glyph-name="e.sups" horiz-adv-x="970" 
d="M887 1059h-633q4 -116 71 -179t175 -63q87 0 144.5 38.5t74.5 105.5l160 -11q-25 -122 -128 -196t-249 -74q-184 0 -301 116t-117 316q0 202 115.5 319t300.5 117q180 0 283.5 -111t103.5 -302v-76zM498 1411q-100 0 -166.5 -61t-75.5 -168h471q-5 102 -64.5 165.5
t-164.5 63.5z" />
    <glyph glyph-name="f.sups" horiz-adv-x="565" 
d="M485 1976q42 0 66 -6v-137q-10 4 -45 4q-76 0 -121 -44.5t-45 -125.5v-135h209v-137h-209v-699h-160v699h-162v137h162v133q0 145 83 228t222 83z" />
    <glyph glyph-name="g.sups" horiz-adv-x="1062" 
d="M489 1548q100 0 177 -37.5t112 -97.5v119h148v-881q0 -180 -109.5 -283.5t-294.5 -103.5q-176 0 -280.5 81t-130.5 218l159 6q12 -79 80 -125.5t166 -46.5q115 0 183.5 63.5t68.5 180.5v168q-35 -59 -108.5 -94t-170.5 -35q-177 0 -291 118.5t-114 315.5t114 315.5
t291 118.5zM514 1411q-118 0 -193 -78.5t-75 -218.5t75 -218.5t193 -78.5q113 0 183.5 71.5t70.5 201.5v49q0 131 -70.5 201.5t-183.5 70.5z" />
    <glyph glyph-name="h.sups" horiz-adv-x="991" 
d="M297 1970v-543q31 49 94.5 85t153.5 36q144 0 233.5 -89.5t89.5 -241.5v-521h-159v486q0 101 -55 160t-146 59q-94 0 -152.5 -63.5t-58.5 -157.5v-484h-158v1274h158z" />
    <glyph glyph-name="i.sups" horiz-adv-x="438" 
d="M219 1933q41 0 70.5 -30.5t29.5 -71.5q0 -42 -29 -71t-71 -29q-43 0 -72.5 28.5t-29.5 71.5q0 41 30.5 71.5t71.5 30.5zM299 696h-160v836h160v-836z" />
    <glyph glyph-name="j.sups" horiz-adv-x="438" 
d="M217 1933q42 0 72 -30t30 -72q0 -43 -29.5 -71.5t-72.5 -28.5q-42 0 -71 29t-29 71q0 41 29.5 71.5t70.5 30.5zM299 1532v-952q0 -147 -79.5 -229.5t-215.5 -82.5q-30 0 -70 4v140q28 -4 50 -4q73 0 115 43t42 124v957h158z" />
    <glyph glyph-name="k.sups" horiz-adv-x="890" 
d="M297 1178l348 354h199l-350 -365l387 -471h-201l-297 357l-86 -86v-271h-158v1274h158v-792z" />
    <glyph glyph-name="l.sups" horiz-adv-x="436" 
d="M297 696h-158v1274h158v-1274z" />
    <glyph glyph-name="m.sups" horiz-adv-x="1531" 
d="M1083 1548q144 0 230 -89t86 -242v-521h-160v486q0 102 -49.5 160.5t-138.5 58.5q-93 0 -148 -63t-55 -158v-484h-160v486q0 102 -50 160.5t-140 58.5q-91 0 -146 -63t-55 -158v-484h-158v836h150v-105q29 47 91 84t152 37q96 0 167.5 -39.5t109.5 -113.5q36 69 106 111
t168 42z" />
    <glyph glyph-name="n.sups" horiz-adv-x="999" 
d="M545 1548q144 0 233.5 -89.5t89.5 -241.5v-521h-159v486q0 101 -55 160t-146 59q-94 0 -152.5 -63.5t-58.5 -157.5v-484h-158v836h150v-105q31 49 97 85t159 36z" />
    <glyph glyph-name="o.sups" horiz-adv-x="1036" 
d="M516 1548q189 0 311.5 -119.5t122.5 -316.5q0 -196 -122.5 -314t-311.5 -118q-188 0 -310 118t-122 314t122 316t310 120zM518 1411q-120 0 -196 -80.5t-76 -218.5q0 -137 76 -216t196 -79t197.5 79.5t77.5 215.5q0 138 -77.5 218.5t-197.5 80.5z" />
    <glyph glyph-name="p.sups" horiz-adv-x="1067" 
d="M575 1548q177 0 291.5 -118.5t114.5 -315.5t-114.5 -315.5t-291.5 -118.5q-96 0 -169.5 35.5t-108.5 93.5v-530h-158v1253h150v-119q35 61 110.5 98t175.5 37zM551 1411q-113 0 -183.5 -70.5t-70.5 -201.5v-49q0 -130 70.5 -201.5t183.5 -71.5q119 0 194.5 78t75.5 219
t-75.5 219t-194.5 78z" />
    <glyph glyph-name="q.sups" horiz-adv-x="1067" 
d="M489 1548q100 0 177 -37.5t112 -97.5v119h148v-1253h-158v530q-33 -58 -107 -93.5t-172 -35.5q-177 0 -291 118.5t-114 315.5t114 315.5t291 118.5zM514 1411q-118 0 -193 -78.5t-75 -218.5t75 -218.5t193 -78.5q113 0 183.5 71.5t70.5 201.5v49q0 131 -70.5 201.5
t-183.5 70.5z" />
    <glyph glyph-name="r.sups" horiz-adv-x="561" 
d="M535 1542v-151q-107 0 -172.5 -64t-65.5 -160v-471h-158v836h152v-102q75 112 244 112z" />
    <glyph glyph-name="s.sups" horiz-adv-x="819" 
d="M399 1548q140 0 221 -71t93 -189l-158 -10q-6 64 -46 98.5t-110 34.5q-73 0 -112 -30t-39 -83q0 -21 7.5 -36t16 -24t30.5 -17.5t36.5 -12.5t49.5 -11.5t54 -12.5q150 -34 219.5 -85t69.5 -157q0 -125 -86 -193.5t-237 -68.5q-144 0 -232.5 69.5t-103.5 192.5l159 10
q7 -67 54 -102t123 -35q77 0 121 30t44 91q0 23 -8 39.5t-20 27.5t-40.5 21.5t-54.5 17.5t-77 19q-50 12 -80.5 20t-67.5 22t-58 30t-40.5 39t-28 54.5t-8.5 71.5q0 116 80.5 183t228.5 67z" />
    <glyph glyph-name="t.sups" horiz-adv-x="581" 
d="M467 825q39 0 84 9v-142q-62 -8 -119 -8q-124 0 -195 65.5t-71 202.5l2 443h-156v137h156l2 289h160l-2 -289h221v-137h-223l-2 -420q0 -150 143 -150z" />
    <glyph glyph-name="u.sups" horiz-adv-x="972" 
d="M834 696h-152v105q-31 -51 -92 -86t-152 -35q-143 0 -225 86.5t-82 237.5v528h160v-492q0 -99 48 -155t138 -56t144.5 59.5t54.5 149.5v494h158v-836z" />
    <glyph glyph-name="v.sups" horiz-adv-x="880" 
d="M504 696h-125l-363 836h174l252 -590l250 590h172z" />
    <glyph glyph-name="w.sups" horiz-adv-x="1353" 
d="M1020 696h-123l-219 590l-221 -590h-121l-320 836h174l218 -580l215 580h110l215 -580l217 580h172z" />
    <glyph glyph-name="x.sups" horiz-adv-x="854" 
d="M541 1124l290 -428h-188l-215 312l-211 -312h-192l290 426l-278 410h190l201 -295l201 295h188z" />
    <glyph glyph-name="y.sups" horiz-adv-x="882" 
d="M326 279h-172l200 475l-329 778h174l243 -590l242 590h172z" />
    <glyph glyph-name="z.sups" horiz-adv-x="741" 
d="M668 1421l-430 -598h448v-127h-633v109l430 598h-422v129h607v-111z" />
    <glyph glyph-name="zero.onum" horiz-adv-x="1323" 
d="M662 1231q251 0 400.5 -168.5t149.5 -456.5q0 -289 -149 -457.5t-401 -168.5q-253 0 -403 168.5t-150 457.5q0 288 150 456.5t403 168.5zM662 1065q-169 0 -265 -122t-96 -337t96 -337t265 -122q167 0 262.5 122t95.5 337t-95.5 337t-262.5 122z" />
    <glyph glyph-name="one.onum" horiz-adv-x="761" 
d="M573 0h-184v971l-280 -221l-82 145l409 313h137v-1208z" />
    <glyph glyph-name="two.onum" horiz-adv-x="1097" 
d="M563 1227q216 0 328.5 -107t112.5 -297q0 -73 -23 -138.5t-68 -122t-91.5 -100t-114.5 -95.5l-265 -201h580v-166h-903v143l444 332q44 32 58 42.5t50 40t49 44.5t37 44t33 52.5t17 55t8 65.5q0 118 -63 180t-185 62q-127 0 -197.5 -78t-72.5 -219l-186 10
q3 214 122 333.5t330 119.5z" />
    <glyph glyph-name="three.onum" horiz-adv-x="1140" 
d="M565 1229q205 0 323 -113.5t118 -306.5q0 -128 -62 -216t-158 -124q114 -28 186 -121.5t72 -238.5q0 -208 -130 -330.5t-345 -122.5q-221 0 -345 119.5t-138 330.5l188 11q12 -140 87 -216.5t208 -76.5q134 0 210.5 77t76.5 212q0 132 -83 202t-220 70h-150v166h146
q119 0 193.5 70t74.5 188q0 121 -67.5 186.5t-184.5 65.5q-121 0 -191 -72.5t-79 -204.5l-184 11q8 203 126.5 318.5t327.5 115.5z" />
    <glyph glyph-name="four.onum" horiz-adv-x="1220" 
d="M905 207h264v-168h-264v-363h-182v363h-668v154l695 1015h155v-1001zM262 207h461v665z" />
    <glyph glyph-name="five.onum" horiz-adv-x="1144" 
d="M592 616q204 0 330.5 -126t126.5 -345t-129 -354t-353 -135q-215 0 -339 117t-138 321l189 10q12 -134 85 -207t205 -73q140 0 216.5 88t76.5 229q0 140 -79.5 225t-209.5 85q-139 0 -256 -93h-172v850h846v-166h-661v-499q117 73 262 73z" />
    <glyph glyph-name="six.onum" horiz-adv-x="1212" 
d="M610 979q221 0 366.5 -139t145.5 -363q0 -148 -67.5 -262t-183.5 -174.5t-261 -60.5q-225 0 -369.5 136.5t-144.5 360.5q0 178 105 318l551 737h221l-414 -555q16 2 51 2zM610 147q141 0 232.5 92t91.5 244t-91.5 242t-232.5 90q-169 0 -258 -115q-67 -86 -67 -217
q0 -153 91 -244.5t234 -91.5z" />
    <glyph glyph-name="seven.onum" horiz-adv-x="1103" 
d="M1055 1057l-719 -1381h-207l719 1366h-801v166h1008v-151z" />
    <glyph glyph-name="eight.onum" horiz-adv-x="1226" 
d="M612 1552q200 0 330.5 -111t130.5 -300q0 -118 -57 -204t-150 -128q110 -47 178 -145.5t68 -235.5q0 -205 -140.5 -326.5t-359.5 -121.5q-217 0 -357 121.5t-140 326.5q0 136 67 234.5t176 144.5q-94 41 -150 128t-56 206q0 190 128.5 300.5t331.5 110.5zM614 1384
q-121 0 -198.5 -68t-77.5 -186q0 -114 78 -180.5t198 -66.5q119 0 197 66.5t78 180.5q0 118 -78 186t-197 68zM612 719q-136 0 -223.5 -76.5t-87.5 -208.5t88 -209.5t223 -77.5q136 0 224 77.5t88 209.5t-88 208.5t-224 76.5z" />
    <glyph glyph-name="nine.onum" horiz-adv-x="1212" 
d="M602 1229q224 0 369 -137t145 -361q0 -178 -104 -317l-551 -738h-221l413 555q-16 -2 -51 -2q-221 0 -366.5 139t-145.5 363q0 148 67.5 262.5t183.5 175t261 60.5zM602 393q169 0 258 115q68 87 68 217q0 153 -91.5 244.5t-234.5 91.5q-141 0 -232 -91.5t-91 -244.5
q0 -152 91 -242t232 -90z" />
    <glyph glyph-name="zero.slash" horiz-adv-x="1320" 
d="M662 1552q253 0 400.5 -206t147.5 -580t-147.5 -580t-400.5 -206q-256 0 -404.5 206t-148.5 580t148.5 580t404.5 206zM659 1384q-177 0 -268.5 -157t-91.5 -461q0 -272 74 -426l499 960q-87 84 -213 84zM659 147q176 0 269.5 158t93.5 461q0 264 -72 420l-497 -961
q84 -78 206 -78z" />
    <glyph glyph-name="zero.subs" horiz-adv-x="757" 
d="M379 690q142 0 226.5 -113t84.5 -319q0 -207 -84.5 -320.5t-226.5 -113.5q-141 0 -226 114t-85 320q0 205 85 318.5t226 113.5zM379 567q-172 0 -172 -309t172 -309t172 309t-172 309z" />
    <glyph glyph-name="one.subs" horiz-adv-x="456" 
d="M358 -164h-139v658l-141 -109l-62 109l254 184h88v-842z" />
    <glyph glyph-name="two.subs" horiz-adv-x="643" 
d="M322 690q126 0 192 -70.5t66 -185.5q0 -88 -38 -159t-114 -152l-158 -164h318v-123h-525v94l265 277q58 62 85 113t27 116q0 60 -30 95.5t-86 35.5q-60 0 -94.5 -38t-34.5 -105l-136 8q1 121 71.5 189.5t191.5 68.5z" />
    <glyph glyph-name="three.subs" horiz-adv-x="661" 
d="M326 690q119 0 186.5 -63t67.5 -172q0 -67 -32.5 -113.5t-80.5 -69.5q55 -16 92 -67.5t37 -126.5q0 -117 -73.5 -185.5t-194.5 -68.5q-127 0 -197.5 67.5t-75.5 184.5l138 10q6 -66 40 -101.5t95 -35.5q60 0 95.5 35.5t35.5 97.5t-39 94.5t-103 32.5h-84v119h82
q55 0 92 33t37 88q0 56 -32 87t-86 31q-55 0 -87.5 -33.5t-35.5 -95.5l-135 8q3 115 70 179.5t188 64.5z" />
    <glyph glyph-name="four.subs" horiz-adv-x="708" 
d="M541 145h127v-125h-127v-184h-140v184h-364v109l373 549h131v-533zM160 145h243v342z" />
    <glyph glyph-name="five.subs" horiz-adv-x="657" 
d="M344 362q114 0 185 -70t71 -194t-73 -199t-201 -75q-121 0 -192 66t-77 178l138 8q6 -60 40 -93.5t93 -33.5q64 0 99.5 40.5t35.5 106.5t-36.5 105t-98.5 39t-119 -45h-121v483h479v-123h-342v-221q51 28 119 28z" />
    <glyph glyph-name="six.subs" horiz-adv-x="702" 
d="M578 678l-218 -297q122 -2 202.5 -79t80.5 -200q0 -125 -82 -201.5t-207 -76.5q-127 0 -210 76.5t-83 201.5q0 92 60 179l291 397h166zM352 -51q67 0 109.5 43t42.5 114q0 73 -41.5 113.5t-110.5 40.5q-80 0 -119 -51q-32 -48 -32 -103q0 -71 42.5 -114t108.5 -43z" />
    <glyph glyph-name="seven.subs" horiz-adv-x="643" 
d="M600 573l-367 -737h-153l362 719h-403v123h561v-105z" />
    <glyph glyph-name="eight.subs" horiz-adv-x="708" 
d="M354 690q113 0 187.5 -63.5t74.5 -169.5q0 -110 -90 -174q51 -31 82 -84t31 -121q0 -116 -80.5 -185t-204.5 -69t-204 69t-80 185q0 133 110 203q-90 68 -90 176q0 107 74 170t190 63zM354 567q-58 0 -96.5 -32.5t-38.5 -90.5q0 -56 38.5 -87t96.5 -31q59 0 95 31t36 87
q0 58 -36 90.5t-95 32.5zM354 211q-64 0 -105.5 -34.5t-41.5 -96.5q0 -61 41.5 -96t105.5 -35q65 0 105.5 35t40.5 96q0 62 -41 96.5t-105 34.5z" />
    <glyph glyph-name="nine.subs" horiz-adv-x="702" 
d="M350 690q128 0 210.5 -76t82.5 -202q0 -99 -61 -179l-287 -397h-168l217 297q-122 2 -202.5 79t-80.5 200q0 125 82 201.5t207 76.5zM352 254q80 0 119 51q33 45 33 103q0 71 -42.5 115t-109.5 44q-66 0 -108.5 -43.5t-42.5 -115.5q0 -71 42 -112.5t109 -41.5z" />
    <glyph glyph-name="zero.sups" horiz-adv-x="757" 
d="M379 1677q142 0 226.5 -113t84.5 -319q0 -207 -84.5 -320.5t-226.5 -113.5q-141 0 -226 114t-85 320q0 205 85 318.5t226 113.5zM379 1554q-172 0 -172 -309t172 -309t172 309t-172 309z" />
    <glyph glyph-name="one.sups" horiz-adv-x="456" 
d="M358 823h-139v658l-141 -109l-62 109l254 184h88v-842z" />
    <glyph glyph-name="two.sups" horiz-adv-x="643" 
d="M322 1677q126 0 192 -70.5t66 -185.5q0 -88 -38 -159t-114 -152l-158 -164h318v-123h-525v95l265 276q58 62 85 113t27 116q0 60 -30 95.5t-86 35.5q-60 0 -94.5 -38t-34.5 -105l-136 8q1 121 71.5 189.5t191.5 68.5z" />
    <glyph glyph-name="three.sups" horiz-adv-x="661" 
d="M326 1677q119 0 186.5 -63t67.5 -172q0 -67 -32.5 -113t-80.5 -69q55 -16 92 -68t37 -127q0 -117 -73.5 -185.5t-194.5 -68.5q-127 0 -197.5 67.5t-75.5 184.5l138 10q6 -66 40 -101.5t95 -35.5q60 0 95.5 35t35.5 98q0 62 -39 94.5t-103 32.5h-84v119h82q55 0 92 33
t37 88q0 56 -32 87t-86 31q-55 0 -87.5 -33.5t-35.5 -95.5l-135 9q3 115 70 179t188 64z" />
    <glyph glyph-name="four.sups" horiz-adv-x="708" 
d="M541 1133h127v-125h-127v-185h-140v185h-364v108l373 549h131v-532zM160 1133h243v342z" />
    <glyph glyph-name="five.sups" horiz-adv-x="657" 
d="M344 1350q113 0 184.5 -70.5t71.5 -194.5t-73 -199t-201 -75q-121 0 -192 66t-77 178l138 8q6 -60 40 -93.5t93 -33.5q64 0 99.5 40.5t35.5 106.5t-36.5 105t-98.5 39t-119 -45h-121v483h479v-123h-342v-221q53 29 119 29z" />
    <glyph glyph-name="six.sups" horiz-adv-x="702" 
d="M578 1665l-218 -297q122 -2 202.5 -78.5t80.5 -199.5q0 -125 -82 -202t-207 -77q-127 0 -210 77t-83 202q0 91 60 178l291 397h166zM352 936q67 0 109.5 43.5t42.5 114.5q0 73 -41.5 113t-110.5 40q-80 0 -119 -51q-32 -48 -32 -102q0 -71 42.5 -114.5t108.5 -43.5z" />
    <glyph glyph-name="seven.sups" horiz-adv-x="643" 
d="M600 1561l-367 -738h-153l362 719h-403v123h561v-104z" />
    <glyph glyph-name="eight.sups" horiz-adv-x="708" 
d="M354 1677q113 0 187.5 -63.5t74.5 -169.5q0 -110 -90 -174q51 -31 82 -84t31 -121q0 -116 -80.5 -185t-204.5 -69t-204 69t-80 185q0 133 110 203q-90 68 -90 176q0 107 74 170t190 63zM354 1554q-58 0 -96.5 -32t-38.5 -90q0 -56 38.5 -87.5t96.5 -31.5t94.5 31.5
t36.5 87.5q0 58 -36 90t-95 32zM354 1198q-64 0 -105.5 -34.5t-41.5 -96.5q0 -61 41.5 -96t105.5 -35q65 0 105.5 35t40.5 96q0 62 -41 96.5t-105 34.5z" />
    <glyph glyph-name="nine.sups" horiz-adv-x="702" 
d="M350 1677q128 0 210.5 -76t82.5 -202q0 -98 -61 -178l-287 -398h-168l217 297q-122 2 -202.5 79t-80.5 200q0 125 82 201.5t207 76.5zM352 1241q80 0 119 51q33 45 33 103q0 71 -42.5 115t-109.5 44q-66 0 -108.5 -43.5t-42.5 -115.5q0 -71 42 -112.5t109 -41.5z" />
    <glyph glyph-name="zero.tnum" horiz-adv-x="1331" 
d="M666 1552q253 0 402 -206t149 -580t-149 -580t-402 -206q-255 0 -404 206t-149 580t149 580t404 206zM666 1384q-177 0 -270 -157t-93 -461t93 -461.5t270 -157.5q175 0 267.5 157.5t92.5 461.5q0 303 -92.5 460.5t-267.5 157.5z" />
    <glyph glyph-name="one.tnum" horiz-adv-x="1331" 
d="M829 166h320v-166h-852v166h346v1116l-295 -223l-88 141l432 332h137v-1366z" />
    <glyph glyph-name="two.tnum" horiz-adv-x="1331" 
d="M672 1550q209 0 323.5 -113.5t114.5 -314.5q0 -93 -21.5 -176t-65.5 -158.5t-93 -137t-121 -136.5l-332 -348h651v-166h-907v152l451 473q141 149 196.5 249.5t55.5 239.5q0 124 -65 197t-183 73q-133 0 -201.5 -80t-71.5 -227l-186 10q3 219 122 341t333 122z" />
    <glyph glyph-name="three.tnum" horiz-adv-x="1331" 
d="M662 1552q206 0 324 -113t118 -306q0 -128 -61.5 -216t-157.5 -124q114 -27 185 -121.5t71 -239.5q0 -208 -129.5 -330t-343.5 -122q-222 0 -346 119.5t-138 330.5l187 10q14 -140 88.5 -216.5t206.5 -76.5q135 0 210.5 77t75.5 212q0 133 -82 203t-219 70h-151v165h147
q119 0 193.5 70.5t74.5 188.5q0 121 -67 186t-186 65q-120 0 -191 -72t-78 -204l-186 10q9 203 127.5 318.5t327.5 115.5z" />
    <glyph glyph-name="four.tnum" horiz-adv-x="1331" 
d="M952 530h265v-168h-265v-362h-182v362h-670v154l697 1016h155v-1002zM309 530h459v666z" />
    <glyph glyph-name="five.tnum" horiz-adv-x="1331" 
d="M680 940q204 0 331.5 -126t127.5 -345t-129.5 -354t-354.5 -135q-215 0 -338 117t-137 321l187 10q12 -133 85.5 -207t204.5 -74q141 0 218 88.5t77 229.5q0 140 -79 224.5t-211 84.5q-141 0 -256 -92h-173v850h846v-166h-661v-500q118 74 262 74z" />
    <glyph glyph-name="six.tnum" horiz-adv-x="1331" 
d="M659 979q221 0 366.5 -139t145.5 -363q0 -148 -67.5 -262t-183.5 -174.5t-261 -60.5q-223 0 -368.5 136.5t-145.5 360.5q0 178 105 318l551 737h223l-414 -555q16 2 49 2zM659 147q142 0 233 91.5t91 244.5q0 152 -91 242t-233 90q-170 0 -256 -115q-67 -86 -67 -217
q0 -153 90 -244.5t233 -91.5z" />
    <glyph glyph-name="seven.tnum" horiz-adv-x="1331" 
d="M1159 1380l-719 -1380h-207l719 1366h-800v166h1007v-152z" />
    <glyph glyph-name="eight.tnum" horiz-adv-x="1331" 
d="M664 1552q202 0 332 -111t130 -300q0 -118 -57 -204t-151 -128q110 -47 177.5 -145.5t67.5 -235.5q0 -205 -140 -326.5t-357 -121.5q-218 0 -358 121.5t-140 326.5q0 136 66.5 234.5t175.5 144.5q-93 42 -150 128.5t-57 205.5q0 190 129 300.5t332 110.5zM666 1384
q-121 0 -199 -68t-78 -186q0 -114 78.5 -180.5t198.5 -66.5t197 66.5t77 180.5q0 118 -77 186t-197 68zM664 719q-135 0 -223.5 -77t-88.5 -208q0 -132 89 -209.5t223 -77.5q137 0 225 77.5t88 209.5t-88 208.5t-225 76.5z" />
    <glyph glyph-name="nine.tnum" horiz-adv-x="1331" 
d="M672 1552q223 0 368.5 -136.5t145.5 -360.5q0 -178 -105 -318l-551 -737h-223l414 555q-16 -2 -49 -2q-221 0 -366.5 139t-145.5 363q0 148 67.5 262t183.5 174.5t261 60.5zM672 717q170 0 256 114q67 86 67 218q0 153 -90 244t-233 91q-142 0 -233 -91t-91 -244
q0 -152 91 -242t233 -90z" />
    <glyph glyph-name="zero.dnom" horiz-adv-x="757" 
d="M379 854q142 0 226.5 -113t84.5 -319q0 -207 -84.5 -320.5t-226.5 -113.5q-141 0 -226 114t-85 320q0 205 85 318.5t226 113.5zM379 731q-172 0 -172 -309t172 -309t172 309t-172 309z" />
    <glyph glyph-name="one.dnom" horiz-adv-x="456" 
d="M358 0h-139v657l-141 -108l-62 108l254 185h88v-842z" />
    <glyph glyph-name="two.dnom" horiz-adv-x="643" 
d="M322 854q126 0 192 -70.5t66 -185.5q0 -88 -38 -159t-114 -152l-158 -164h318v-123h-525v94l265 277q58 62 85 113t27 116q0 60 -30 95.5t-86 35.5q-60 0 -94.5 -38t-34.5 -105l-136 8q1 121 71.5 189.5t191.5 68.5z" />
    <glyph glyph-name="three.dnom" horiz-adv-x="661" 
d="M326 854q119 0 186.5 -63.5t67.5 -172.5q0 -67 -32.5 -113t-80.5 -69q55 -16 92 -67.5t37 -126.5q0 -117 -73.5 -185.5t-194.5 -68.5q-127 0 -197.5 67.5t-75.5 184.5l138 10q6 -66 40 -101.5t95 -35.5q60 0 95.5 35.5t35.5 97.5t-39 94.5t-103 32.5h-84v119h82
q55 0 92 32.5t37 87.5q0 56 -32.5 87.5t-85.5 31.5q-55 0 -87.5 -33.5t-35.5 -95.5l-135 8q3 115 70 179.5t188 64.5z" />
    <glyph glyph-name="four.dnom" horiz-adv-x="708" 
d="M541 309h127v-125h-127v-184h-140v184h-364v109l373 549h131v-533zM160 309h243v342z" />
    <glyph glyph-name="five.dnom" horiz-adv-x="657" 
d="M344 526q114 0 185 -70t71 -194t-73 -199t-201 -75q-121 0 -192 65.5t-77 177.5l138 9q6 -60 40 -93.5t93 -33.5q64 0 99.5 40.5t35.5 106.5t-36.5 104.5t-98.5 38.5t-119 -45h-121v484h479v-123h-342v-221q51 28 119 28z" />
    <glyph glyph-name="six.dnom" horiz-adv-x="702" 
d="M578 842l-218 -297q122 -2 202.5 -79t80.5 -200q0 -125 -82 -201.5t-207 -76.5q-127 0 -210 76.5t-83 201.5q0 91 60 178l291 398h166zM352 113q67 0 109.5 43t42.5 114q0 73 -41.5 113.5t-110.5 40.5q-80 0 -119 -51q-32 -48 -32 -103q0 -71 42.5 -114t108.5 -43z" />
    <glyph glyph-name="seven.dnom" horiz-adv-x="643" 
d="M600 737l-367 -737h-153l362 719h-403v123h561v-105z" />
    <glyph glyph-name="eight.dnom" horiz-adv-x="708" 
d="M354 854q113 0 187.5 -63.5t74.5 -169.5q0 -111 -90 -175q51 -31 82 -83.5t31 -120.5q0 -116 -80.5 -185t-204.5 -69t-204 69t-80 185q0 132 110 202q-90 68 -90 177q0 107 74 170t190 63zM354 731q-58 0 -96.5 -32.5t-38.5 -90.5q0 -56 38.5 -87.5t96.5 -31.5t94.5 31.5
t36.5 87.5q0 58 -36 90.5t-95 32.5zM354 375q-64 0 -105.5 -34.5t-41.5 -96.5q0 -61 41.5 -96t105.5 -35q65 0 105.5 35t40.5 96q0 62 -41 96.5t-105 34.5z" />
    <glyph glyph-name="nine.dnom" horiz-adv-x="702" 
d="M350 854q128 0 210.5 -76.5t82.5 -202.5q0 -98 -61 -178l-287 -397h-168l217 297q-122 2 -202.5 78.5t-80.5 199.5q0 125 82 202t207 77zM352 418q80 0 119 51q33 45 33 102q0 71 -42.5 115.5t-109.5 44.5q-66 0 -108.5 -44t-42.5 -116q0 -71 42 -112t109 -41z" />
    <glyph glyph-name="zero.numr" horiz-adv-x="757" 
d="M379 1511q142 0 226.5 -113t84.5 -319q0 -207 -84.5 -320.5t-226.5 -113.5q-141 0 -226 114t-85 320q0 205 85 318.5t226 113.5zM379 1389q-172 0 -172 -310q0 -309 172 -309t172 309q0 152 -43.5 231t-128.5 79z" />
    <glyph glyph-name="one.numr" horiz-adv-x="456" 
d="M358 659h-139v658l-141 -109l-62 109l254 184h88v-842z" />
    <glyph glyph-name="two.numr" horiz-adv-x="643" 
d="M322 1511q126 0 192 -70.5t66 -185.5q0 -88 -38 -159t-114 -152l-158 -164h318v-123h-525v95l265 276q58 62 85 113t27 116q0 60 -30 96t-86 36q-60 0 -94.5 -38.5t-34.5 -105.5l-136 8q1 121 71.5 189.5t191.5 68.5z" />
    <glyph glyph-name="three.numr" horiz-adv-x="661" 
d="M326 1511q119 0 186.5 -63t67.5 -172q0 -67 -32.5 -113t-80.5 -69q55 -16 92 -68t37 -127q0 -117 -73.5 -185.5t-194.5 -68.5q-127 0 -197.5 67.5t-75.5 184.5l138 10q6 -66 40 -101.5t95 -35.5q60 0 95.5 35t35.5 98q0 62 -39 94.5t-103 32.5h-84v119h82q55 0 92 33
t37 88q0 56 -32.5 87.5t-85.5 31.5q-55 0 -87.5 -33.5t-35.5 -95.5l-135 8q3 115 70 179t188 64z" />
    <glyph glyph-name="four.numr" horiz-adv-x="708" 
d="M541 967h127v-125h-127v-185h-140v185h-364v108l373 549h131v-532zM160 967h243v342z" />
    <glyph glyph-name="five.numr" horiz-adv-x="657" 
d="M344 1186q114 0 185 -70t71 -194q0 -125 -73.5 -200t-200.5 -75q-121 0 -192 66t-77 178l138 8q6 -60 40 -93.5t93 -33.5q64 0 99.5 41t35.5 107t-36.5 104.5t-98.5 38.5t-119 -45h-121v483h479v-123h-342v-221q53 29 119 29z" />
    <glyph glyph-name="six.numr" horiz-adv-x="702" 
d="M578 1499l-218 -297q122 -2 202.5 -78.5t80.5 -199.5q0 -125 -82 -202t-207 -77q-127 0 -210 77t-83 202q0 91 60 178l291 397h166zM352 770q67 0 109.5 43.5t42.5 114.5q0 73 -41.5 113t-110.5 40q-80 0 -119 -51q-32 -48 -32 -102q0 -71 42.5 -114.5t108.5 -43.5z" />
    <glyph glyph-name="seven.numr" horiz-adv-x="643" 
d="M600 1397l-367 -738h-153l362 719h-403v123h561v-104z" />
    <glyph glyph-name="eight.numr" horiz-adv-x="708" 
d="M354 1511q113 0 187.5 -63.5t74.5 -169.5q0 -110 -90 -174q51 -31 82 -84t31 -121q0 -116 -80.5 -185t-204.5 -69t-204 69t-80 185q0 133 110 203q-90 68 -90 176q0 107 74 170t190 63zM354 1389q-58 0 -96.5 -32.5t-38.5 -90.5q0 -56 38.5 -87.5t96.5 -31.5t94.5 31.5
t36.5 87.5q0 58 -36 90.5t-95 32.5zM354 1032q-64 0 -105.5 -34.5t-41.5 -96.5q0 -61 41.5 -96t105.5 -35q65 0 105.5 35t40.5 96q0 62 -41 96.5t-105 34.5z" />
    <glyph glyph-name="nine.numr" horiz-adv-x="702" 
d="M350 1511q128 0 210.5 -76t82.5 -202q0 -98 -61 -178l-287 -398h-168l217 297q-122 2 -202.5 79t-80.5 200q0 125 82 201.5t207 76.5zM352 1075q80 0 119 51q33 45 33 103q0 71 -42.5 115.5t-109.5 44.5q-66 0 -108.5 -44t-42.5 -116q0 -71 42 -112.5t109 -41.5z" />
    <glyph glyph-name="periodcentered.cap" horiz-adv-x="444" 
d="M211 967q51 0 87 -36t36 -87q0 -50 -36 -85.5t-87 -35.5q-49 0 -84 35.5t-35 85.5q0 51 35 87t84 36z" />
    <glyph glyph-name="exclamdown.cap" horiz-adv-x="571" 
d="M289 1309q-51 0 -87 36t-36 87q0 50 36 85t87 35q49 0 84 -35t35 -85q0 -51 -35 -87t-84 -36zM195 1116h186l10 -1116h-207z" />
    <glyph glyph-name="questiondown.cap" horiz-adv-x="1026" 
d="M524 1309q-51 0 -87 36t-36 87q0 50 36 85t87 35q49 0 84 -35t35 -85q0 -51 -35 -87t-84 -36zM512 -20q-219 0 -345 121.5t-126 318.5q0 65 15 118t47 96t66.5 75t88.5 71q92 70 130 130.5t38 150.5v55h188v-63q0 -102 -46 -178.5t-150 -159.5q-95 -69 -141 -134
t-46 -159q0 -123 74.5 -201t206.5 -78q130 0 204.5 70t88.5 195l186 -13q-14 -193 -141.5 -304t-337.5 -111z" />
    <glyph glyph-name="braceleft.cap" horiz-adv-x="514" 
d="M467 1427h-12q-103 0 -135.5 -78.5t-0.5 -250.5q10 -55 15 -96t3.5 -84.5t-12.5 -73t-36.5 -51.5t-65.5 -29q40 -8 65.5 -31t36.5 -52.5t12.5 -73.5t-3.5 -84t-15 -95q-32 -173 0.5 -252.5t135.5 -79.5h12v-147h-12q-186 0 -272 120.5t-38 344.5q14 59 20.5 95t7 74
t-11 58.5t-37 33.5t-67.5 13h-16v148h16q35 0 59 8t36.5 26.5t17.5 39.5t2 55.5t-9 66.5t-18 80q-48 223 38.5 344t271.5 121h12v-150z" />
    <glyph glyph-name="braceright.cap" horiz-adv-x="514" 
d="M47 1577h12q187 0 272.5 -121t37.5 -344q-11 -49 -17 -80t-9.5 -66.5t2 -56t17.5 -39t36 -26.5t59 -8h16v-148h-16q-35 0 -59 -8t-36 -26t-17.5 -38.5t-2 -56t9.5 -65.5t17 -80q48 -224 -37.5 -344.5t-272.5 -120.5h-12v147h12q103 0 135.5 79.5t0.5 252.5q-10 55 -15 95
t-3.5 84t12.5 73.5t36.5 52.5t65.5 31q-40 7 -65.5 29t-36.5 51.5t-12.5 73t3.5 84.5t15 96q32 172 -0.5 250.5t-135.5 78.5h-12v150z" />
    <glyph glyph-name="bracketleft.cap" horiz-adv-x="540" 
d="M498 1430h-203v-1334h203v-147h-379v1628h379v-147z" />
    <glyph glyph-name="bracketright.cap" horiz-adv-x="555" 
d="M424 -51h-377v147h201v1334h-201v147h377v-1628z" />
    <glyph glyph-name="parenleft.cap" horiz-adv-x="522" 
d="M330 1577l153 -55q-225 -357 -225 -781q0 -421 225 -778l-153 -57q-111 167 -179.5 380t-68.5 455q0 243 68.5 457t179.5 379z" />
    <glyph glyph-name="parenright.cap" horiz-adv-x="518" 
d="M41 1522l154 55q110 -164 178.5 -378.5t68.5 -457.5q0 -242 -68 -455t-179 -380l-154 57q225 357 225 778q0 424 -225 781z" />
    <glyph glyph-name="emdash.cap" horiz-adv-x="1628" 
d="M1536 688h-1444v166h1444v-166z" />
    <glyph glyph-name="endash.cap" horiz-adv-x="1153" 
d="M1061 688h-969v166h969v-166z" />
    <glyph glyph-name="hyphen.cap" horiz-adv-x="825" 
d="M733 688h-641v166h641v-166z" />
    <glyph glyph-name="guillemotleft.cap" horiz-adv-x="1087" 
d="M537 1145l-306 -361l306 -360l-140 -90l-366 450l366 449zM1044 1145l-305 -361l305 -360l-139 -90l-366 450l366 449z" />
    <glyph glyph-name="guillemotright.cap" horiz-adv-x="1087" 
d="M549 784l-369 -450l-139 90l307 360l-307 361l139 88zM1055 784l-367 -450l-139 90l305 360l-305 361l139 88z" />
    <glyph glyph-name="guilsinglleft.cap" horiz-adv-x="626" 
d="M588 1118l-342 -334l342 -333l-129 -113l-428 446l428 447z" />
    <glyph glyph-name="guilsinglright.cap" horiz-adv-x="626" 
d="M598 784l-430 -446l-127 113l342 333l-342 334l127 113z" />
    <glyph glyph-name="emdash_guilsinglright" horiz-adv-x="1744" 
d="M1673 528l-471 -483l-125 113l299 299h-1284v147h1282l-297 293l125 113z" />
    <glyph glyph-name="endash_guilsinglright" 
d="M1139 528l-471 -483l-125 113l301 299h-752v147h748l-297 293l125 113z" />
    <glyph glyph-name="guilsinglleft_emdash" horiz-adv-x="1744" 
d="M668 897l-297 -293h1282v-147h-1286l301 -299l-123 -113l-473 483l473 482z" />
    <glyph glyph-name="guilsinglleft_endash" 
d="M668 897l-297 -293h747v-147h-751l301 -299l-123 -113l-473 483l473 482z" />
    <glyph glyph-name="at.cap" horiz-adv-x="1650" 
d="M825 1499q157 0 294.5 -56t235 -153t154 -233.5t56.5 -292.5q0 -200 -79 -308t-216 -108q-76 0 -125 33t-66 94q-92 -133 -288 -133q-172 0 -278.5 115t-106.5 311q0 197 106.5 312.5t278.5 115.5q103 0 174.5 -36.5t107.5 -98.5v110h131v-591q0 -117 96 -117
q69 0 110.5 79.5t41.5 221.5q0 177 -81.5 321t-225.5 226t-320 82q-135 0 -251.5 -48t-198.5 -132t-129 -200t-47 -249q0 -182 83 -326.5t224 -222.5t311 -78q217 0 379 103l31 -103q-89 -55 -184.5 -81.5t-225.5 -26.5q-153 0 -288 55t-232.5 151t-154 233.5t-56.5 295.5
q0 156 55.5 292.5t152.5 233.5t234.5 153t296.5 56zM1067 745v48q0 137 -69 208.5t-187 71.5q-120 0 -193 -80t-73 -225t73 -225t193 -80q117 0 186.5 73t69.5 209z" />
    <glyph glyph-name="acute.case" horiz-adv-x="626" 
d="M203 1632h-168l305 289h246z" />
    <glyph glyph-name="breve.case" horiz-adv-x="722" 
d="M537 1925h145q0 -132 -87.5 -202t-234.5 -70t-234 70t-87 202h145q0 -69 47 -109t129 -40q80 0 128.5 40t48.5 109z" />
    <glyph glyph-name="caron.case" horiz-adv-x="729" 
d="M449 1632h-168l-244 293h151l177 -184l174 184h153z" />
    <glyph glyph-name="circumflex.case" horiz-adv-x="729" 
d="M692 1632h-153l-174 185l-177 -185h-151l244 293h168z" />
    <glyph glyph-name="dieresis.case" horiz-adv-x="602" 
d="M147 1888q44 0 75.5 -30.5t31.5 -73.5q0 -45 -31 -76t-76 -31t-75.5 30.5t-30.5 76.5q0 43 31 73.5t75 30.5zM455 1888q44 0 74 -30.5t30 -73.5q0 -46 -30 -76.5t-74 -30.5q-45 0 -77 31t-32 76q0 43 32.5 73.5t76.5 30.5z" />
    <glyph glyph-name="dotaccent.case" horiz-adv-x="317" 
d="M160 1898q47 0 81.5 -35.5t34.5 -82.5q0 -50 -34 -84.5t-82 -34.5q-50 0 -85.5 34.5t-35.5 84.5q0 47 36 82.5t85 35.5z" />
    <glyph glyph-name="grave.case" horiz-adv-x="626" 
d="M590 1632h-168l-383 289h248z" />
    <glyph glyph-name="hungarumlaut.case" horiz-adv-x="708" 
d="M174 1638h-141l125 304h168zM522 1638h-139l123 304h168z" />
    <glyph glyph-name="macron.case" horiz-adv-x="602" 
d="M571 1712h-540v137h540v-137z" />
    <glyph glyph-name="ring.case" horiz-adv-x="505" 
d="M254 2030q89 0 150 -57t61 -144t-61 -144t-150 -57q-90 0 -150.5 57t-60.5 144t60.5 144t150.5 57zM254 1933q-48 0 -78.5 -28.5t-30.5 -75.5q0 -46 31 -75.5t78 -29.5q46 0 76 29.5t30 75.5q0 47 -30 75.5t-76 28.5z" />
    <glyph glyph-name="tilde.case" horiz-adv-x="739" 
d="M221 1921q43 0 83.5 -20t67 -43.5t61.5 -43.5t67 -20q49 0 74.5 31.5t27.5 81.5h100q6 -102 -45 -174t-139 -72q-43 0 -83.5 19.5t-66.5 43t-61 43t-67 19.5q-48 0 -73.5 -30.5t-27.5 -80.5h-102q-6 102 45 174t139 72z" />
    <glyph glyph-name="anneau" horiz-adv-x="1193" 
d="M598 1554q148 0 270.5 -68t192 -187t69.5 -263q0 -143 -69.5 -261.5t-192 -186.5t-270.5 -68q-151 0 -274.5 68t-193 186t-69.5 262q0 220 153.5 369t383.5 149zM596 1489q-198 0 -329.5 -129.5t-131.5 -323.5q0 -193 131.5 -321.5t329.5 -128.5t329.5 128.5t131.5 321.5
q0 194 -131.5 323.5t-329.5 129.5z" />
    <glyph glyph-name="null" horiz-adv-x="1228" 
 />
    </font>
</defs>
</svg>
